<svg height="56.87" viewBox="0 0 53.844 56.87" width="53.844" xmlns="http://www.w3.org/2000/svg"><path d="m695.645 2015.8-5.715-24.64h-6.955v-8.91a14.057 14.057 0 1 0 -28.113 0v8.91h-6.956l-5.715 24.64a7.551 7.551 0 0 0 7.363 9.26h38.728a7.55 7.55 0 0 0 7.363-9.26zm-37.451-33.55a10.725 10.725 0 1 1 21.449 0v8.91h-21.449zm33.4 37.88a4.191 4.191 0 0 1 -3.308 1.6h-38.732a4.229 4.229 0 0 1 -4.116-5.18l5.117-22.06h4.307v2.09h-1.172v3.33h5.675v-3.33h-1.171v-2.09h21.449v2.09h-1.172v3.33h5.676v-3.33h-1.171v-2.09h4.307l5.116 22.06a4.2 4.2 0 0 1 -.808 3.58zm0 0-27.44-23.55v3.33h3.1v2.58h3.332v-2.58h3.1v-3.33h-9.534zm0 0" fill-rule="evenodd" transform="translate(-642 -1968.19)"/></svg>