<svg xmlns="http://www.w3.org/2000/svg" xmlns:xlink="http://www.w3.org/1999/xlink" preserveAspectRatio="xMidYMid" width="68" height="64" viewBox="0 0 68 64">
  <defs>
    <style>

      .cls-2 {
        fill: #d9d9d9;
      }
    </style>
  </defs>
  <path d="M59.496,45.402 C59.496,45.402 58.120,45.402 58.120,45.402 C54.782,55.700 45.098,63.168 33.702,63.168 C22.306,63.168 12.623,55.700 9.285,45.402 C9.285,45.402 7.909,45.402 7.909,45.402 C3.555,45.402 0.012,41.860 0.012,37.506 C0.012,33.152 3.555,29.610 7.909,29.610 C7.909,29.610 9.277,29.610 9.277,29.610 C10.122,26.996 11.393,24.522 13.067,22.265 C15.976,18.343 19.859,15.379 24.363,13.624 C24.459,10.498 26.551,7.867 29.405,6.966 C29.405,6.966 28.874,2.192 28.874,2.192 C28.812,1.634 28.991,1.076 29.366,0.657 C29.740,0.239 30.275,-0.000 30.837,-0.000 C37.569,-0.000 43.046,5.477 43.046,12.209 C43.046,12.671 43.012,13.124 42.952,13.570 C47.394,15.294 51.350,18.276 54.227,22.103 C55.958,24.404 57.267,26.933 58.131,29.610 C58.131,29.610 59.496,29.610 59.496,29.610 C63.850,29.610 67.392,33.152 67.392,37.506 C67.392,41.860 63.850,45.402 59.496,45.402 ZM8.341,33.558 C8.341,33.558 7.909,33.558 7.909,33.558 C5.732,33.558 3.960,35.329 3.960,37.506 C3.960,39.683 5.732,41.454 7.909,41.454 C7.909,41.454 8.344,41.454 8.344,41.454 C8.144,40.167 8.040,38.848 8.040,37.506 C8.040,36.172 8.142,34.853 8.341,33.558 ZM33.076,4.256 C33.076,4.256 33.535,8.389 33.535,8.389 C33.597,8.947 33.419,9.504 33.044,9.923 C32.670,10.341 32.135,10.581 31.573,10.581 C29.772,10.581 28.307,12.046 28.307,13.847 C28.307,16.371 30.359,18.424 32.883,18.424 C36.310,18.424 39.098,15.636 39.098,12.209 C39.098,8.430 36.547,5.235 33.076,4.256 ZM41.672,17.303 C39.909,20.331 36.632,22.372 32.883,22.372 C29.507,22.372 26.583,20.399 25.203,17.544 C17.224,20.924 11.988,28.716 11.988,37.506 C11.988,49.479 21.729,59.220 33.702,59.220 C45.675,59.220 55.416,49.479 55.416,37.506 C55.416,28.467 49.960,20.551 41.672,17.303 ZM59.496,33.558 C59.496,33.558 59.064,33.558 59.064,33.558 C59.262,34.853 59.364,36.171 59.364,37.506 C59.364,38.848 59.260,40.167 59.061,41.454 C59.061,41.454 59.496,41.454 59.496,41.454 C61.673,41.454 63.444,39.683 63.444,37.506 C63.444,35.329 61.673,33.558 59.496,33.558 ZM46.862,39.480 C45.772,39.480 44.888,38.597 44.888,37.506 C44.888,36.418 44.003,35.532 42.914,35.532 C41.826,35.532 40.940,36.418 40.940,37.506 C40.940,38.597 40.057,39.480 38.966,39.480 C37.876,39.480 36.992,38.597 36.992,37.506 C36.992,34.241 39.649,31.584 42.914,31.584 C46.180,31.584 48.836,34.241 48.836,37.506 C48.836,38.597 47.953,39.480 46.862,39.480 ZM38.966,46.060 C40.057,46.060 40.940,46.943 40.940,48.034 C40.940,52.025 37.693,55.272 33.702,55.272 C29.711,55.272 26.464,52.025 26.464,48.034 C26.464,46.943 27.348,46.060 28.438,46.060 C29.529,46.060 30.412,46.943 30.412,48.034 C30.412,49.848 31.888,51.324 33.702,51.324 C35.517,51.324 36.992,49.848 36.992,48.034 C36.992,46.943 37.876,46.060 38.966,46.060 ZM28.438,39.480 C27.348,39.480 26.464,38.597 26.464,37.506 C26.464,36.418 25.579,35.532 24.490,35.532 C23.402,35.532 22.516,36.418 22.516,37.506 C22.516,38.597 21.633,39.480 20.542,39.480 C19.452,39.480 18.568,38.597 18.568,37.506 C18.568,34.241 21.225,31.584 24.490,31.584 C27.755,31.584 30.412,34.241 30.412,37.506 C30.412,38.597 29.529,39.480 28.438,39.480 Z" id="path-1" class="cls-2" fill-rule="evenodd"/>
</svg>
