<svg xmlns="http://www.w3.org/2000/svg" xmlns:xlink="http://www.w3.org/1999/xlink" preserveAspectRatio="xMidYMid" width="61" height="61" viewBox="0 0 61 61">
  <defs>
    <style>

      .cls-2 {
        fill: #d9d9d9;
      }
    </style>
  </defs>
  <path d="M57.849,16.548 C57.849,16.548 18.279,52.151 18.279,52.151 C18.344,52.505 18.378,52.867 18.378,53.235 C18.378,54.833 17.755,56.336 16.626,57.465 C16.626,57.465 13.085,61.008 13.085,61.008 C13.085,61.008 0.009,47.925 0.009,47.925 C0.009,47.925 3.550,44.382 3.550,44.382 C4.679,43.253 6.181,42.630 7.778,42.630 C8.145,42.630 8.507,42.665 8.861,42.729 C8.861,42.729 44.448,3.140 44.448,3.140 C46.207,1.183 48.623,0.067 51.252,-0.003 C53.881,-0.073 56.354,0.914 58.213,2.775 C60.073,4.635 61.060,7.109 60.989,9.740 C60.920,12.370 59.805,14.788 57.849,16.548 ZM7.778,46.205 C7.135,46.205 6.531,46.456 6.076,46.910 C6.076,46.910 5.062,47.925 5.062,47.925 C5.062,47.925 13.085,55.952 13.085,55.952 C13.085,55.952 14.100,54.937 14.100,54.937 C15.038,53.999 15.038,52.472 14.100,51.533 C14.100,51.533 9.479,46.910 9.479,46.910 C9.024,46.456 8.420,46.205 7.778,46.205 ZM12.098,44.475 C12.098,44.475 16.534,48.913 16.534,48.913 C16.534,48.913 22.879,43.204 22.879,43.204 C22.879,43.204 17.805,38.126 17.805,38.126 C17.805,38.126 12.098,44.475 12.098,44.475 ZM20.197,35.464 C20.197,35.464 25.540,40.810 25.540,40.810 C25.540,40.810 28.794,37.882 28.794,37.882 C28.794,37.882 23.124,32.209 23.124,32.209 C23.124,32.209 20.197,35.464 20.197,35.464 ZM55.687,5.303 C54.527,4.143 52.985,3.528 51.347,3.572 C49.708,3.615 48.201,4.311 47.105,5.530 C47.105,5.530 25.517,29.547 25.517,29.547 C25.517,29.547 31.454,35.487 31.454,35.487 C31.454,35.487 55.459,13.889 55.459,13.889 C56.678,12.792 57.374,11.285 57.417,9.645 C57.461,8.005 56.846,6.463 55.687,5.303 ZM23.642,14.374 C19.679,14.374 16.455,11.149 16.455,7.184 C16.455,3.220 19.679,-0.006 23.642,-0.006 C27.604,-0.006 30.828,3.220 30.828,7.184 C30.828,11.149 27.604,14.374 23.642,14.374 ZM23.642,3.570 C21.650,3.570 20.029,5.191 20.029,7.184 C20.029,9.177 21.650,10.799 23.642,10.799 C25.634,10.799 27.255,9.177 27.255,7.184 C27.255,5.191 25.634,3.570 23.642,3.570 Z" id="path-1" class="cls-2" fill-rule="evenodd"/>
</svg>
