<svg xmlns="http://www.w3.org/2000/svg" width="48.656" height="34.25" viewBox="0 0 48.656 34.25">
  <defs>
    <style>
      .cls-1 {
        fill-rule: evenodd;
        opacity: 0.5;
      }
    </style>
  </defs>
  <path class="cls-1" d="M536.769,1930.29c-1.757-2.09-5-2.94-11.194-2.94H503.091c-6.336,0-9.635.91-11.385,3.13-1.706,2.17-1.706,5.36-1.706,9.78v8.43c0,8.56,2.024,12.91,13.091,12.91h22.484c5.372,0,8.348-.75,10.274-2.6,1.974-1.89,2.817-4.97,2.817-10.31v-8.43C538.666,1935.6,538.534,1932.39,536.769,1930.29Zm-15.525,15.35-10.21,5.33a1.565,1.565,0,0,1-.728.18,1.493,1.493,0,0,1-.813-0.23,1.557,1.557,0,0,1-.756-1.34v-10.64a1.568,1.568,0,0,1,2.293-1.39l10.21,5.3A1.574,1.574,0,0,1,521.244,1945.64Z" transform="translate(-490 -1927.34)"/>
</svg>
