<svg width="20" height="20" viewBox="0 0 20 20" xmlns="http://www.w3.org/2000/svg"><title>theicons.co/svg/ui-88</title><path d="M8.333 16.667h3.334v-3.334H8.333v3.334zm3.334-5V8.333H8.333v3.334h3.334zm1.666 1.666v3.334h2.504c.458 0 .83-.373.83-.834v-2.5h-3.334zm3.334-5h-3.334v3.334h3.334V8.333zm-13.334 5v2.5c0 .46.372.834.83.834h2.504v-3.334H3.333zm3.334-1.666V8.333H3.333v3.334h3.334zm10-6.667a.832.832 0 0 0-.83-.833A.837.837 0 0 1 15 5a.831.831 0 0 1-.833-.833H12.5c0 .46-.37.833-.833.833a.831.831 0 0 1-.834-.833H9.167c0 .46-.37.833-.834.833a.831.831 0 0 1-.833-.833H5.833c0 .46-.37.833-.833.833a.831.831 0 0 1-.833-.833.832.832 0 0 0-.834.833v1.667h13.334V5zm1.666 0v10.833c0 1.38-1.116 2.5-2.496 2.5H4.163a2.498 2.498 0 0 1-2.496-2.5V5c0-1.38 1.116-2.5 2.496-2.5l.004-.833c0-.46.37-.834.833-.834.46 0 .833.37.833.834V2.5H7.5v-.833c0-.46.37-.834.833-.834.46 0 .834.37.834.834V2.5h1.666v-.833c0-.46.37-.834.834-.834.46 0 .833.37.833.834V2.5h1.667v-.833c0-.46.37-.834.833-.834.46 0 .833.37.833.834V2.5a2.5 2.5 0 0 1 2.5 2.5z" fill="#0BD" fill-rule="evenodd"/></svg>