<svg width="36" height="36" viewBox="0 0 36 36" xmlns="http://www.w3.org/2000/svg"><title>theicons.co/svg/city-12</title><path d="M16.5 29.25v-4.494a1.5 1.5 0 1 1 3 0v4.494h3v-10.5h-9v10.5h3zm-12-10.901A3.003 3.003 0 0 1 3 15.743v-1.518c-1.843-.18-2.045-1.226-.167-2.493L16.76 2.337c.685-.462 1.795-.462 2.48 0l13.915 9.397C35.03 13 34.91 14.049 33 14.227v1.516a3.01 3.01 0 0 1-1.5 2.604V29.25h2.999a1.5 1.5 0 1 1 0 3H1.501a1.5 1.5 0 1 1 0-3H4.5V18.349zm12-8.6c0-.828.666-1.499 1.5-1.499.828 0 1.5.665 1.5 1.499v1.501h7.496L18 5.127 9.003 11.25H16.5V9.749zm-9 9.001v10.5h3v-10.5h-3zm18 0v10.5h3v-10.5h-3zM6 14.25v1.5h24v-1.5H6z" fill="#0BD" fill-rule="evenodd"/></svg>