<svg xmlns="http://www.w3.org/2000/svg" xmlns:xlink="http://www.w3.org/1999/xlink" width="26" height="29" viewBox="0 0 26 29"><defs><path id="a" d="M747.25 588c0-.83.67-1.5 1.5-1.5s1.5.67 1.5 1.5v6c0 .83-.67 1.5-1.5 1.5h-3a1.5 1.5 0 0 1-1.5-1.5c0-.83.67-1.5 1.5-1.5h1.5zm7.84 16.2a11.94 11.94 0 0 1-12.68 0l-1.36 2.35a1.5 1.5 0 0 1-2.05.55 1.5 1.5 0 0 1-.55-2.05l1.61-2.77a11.96 11.96 0 0 1-2.22-13.29 5.24 5.24 0 0 1 3.41-9.24 5.25 5.25 0 0 1 4.54 2.62 12.02 12.02 0 0 1 5.64-.07 5.25 5.25 0 1 1 8.14 6.5 11.96 11.96 0 0 1-2.13 13.49c.04.04 1.61 2.76 1.61 2.76a1.5 1.5 0 0 1-.55 2.05 1.5 1.5 0 0 1-2.05-.55zm-13.84-21.45a2.25 2.25 0 0 0-1.77 3.63 12.06 12.06 0 0 1 3.45-2.88 2.25 2.25 0 0 0-1.68-.75zm16.94 2.25a2.25 2.25 0 0 0-3.83-1.6c1.34.7 2.52 1.65 3.5 2.78.2-.34.33-.75.33-1.18zm-18.44 9a9 9 0 1 0 18 0 9 9 0 0 0-18 0z"/></defs><use fill="#0bd" xlink:href="#a" transform="translate(-736 -579)"/></svg>