<svg width="48" height="48" viewBox="0 0 48 48" xmlns="http://www.w3.org/2000/svg"><title>theicons.co/svg/clothes-17</title><defs><linearGradient x1="50%" y1="0%" x2="50%" y2="100%" id="a"><stop stop-color="#00CFE8" offset="0%"/><stop stop-color="#00A1CC" offset="100%"/></linearGradient></defs><path d="M14 6.009C14 4.899 14.898 4 15.99 4h16.02C33.108 4 34 4.902 34 6.009V12h8.003c1.103 0 1.997.898 1.997 1.99v16.02A1.998 1.998 0 0 1 42 32v10.006C42 43.107 41.11 44 40 44H8c-1.105 0-2-.895-2-1.994V32a2 2 0 0 1-2-1.99V13.99C4 12.892 4.892 12 5.997 12H14V6.009zM18 12h12V8H18v4zm-8 28h28v-8h-8v1.991A2.01 2.01 0 0 1 27.991 36H20.01A2.01 2.01 0 0 1 18 33.991V32h-8v8zm20-12h10V16H8v12h10v-1.991A2.01 2.01 0 0 1 20.009 24h7.982A2.01 2.01 0 0 1 30 26.009V28zm-8 0v4h4v-4h-4z" fill="url(#a)" fill-rule="evenodd"/></svg>