<svg xmlns="http://www.w3.org/2000/svg" xmlns:xlink="http://www.w3.org/1999/xlink" width="28" height="28" viewBox="0 0 28 28"><defs><path id="a" d="M480.5 747.62v20.46c0 .79-.67 1.42-1.5 1.42s-1.5-.63-1.5-1.42v-20.46l-3.44 3.44a1.5 1.5 0 1 1-2.12-2.12l6-6a1.5 1.5 0 0 1 2.12 0l6 6a1.5 1.5 0 1 1-2.12 2.12zm12 10.5v9.96c0 .79-.67 1.42-1.5 1.42s-1.5-.63-1.5-1.42v-9.96l-3.44 3.44a1.5 1.5 0 1 1-2.12-2.12l6-6a1.5 1.5 0 0 1 2.12 0l6 6a1.5 1.5 0 1 1-2.12 2.12z"/></defs><use fill="#0bd" xlink:href="#a" transform="translate(-471 -742)"/></svg>