<svg xmlns="http://www.w3.org/2000/svg" xmlns:xlink="http://www.w3.org/1999/xlink" width="28" height="28" viewBox="0 0 28 28"><defs><path id="a" d="M773.58 757.67a3 3 0 0 0-2.58.84c-.92.92-2.35 3.24-3.23 5.38-.46 1.13-.8 2.89-.8 2.89s1.77-.34 2.9-.8c2.14-.88 4.45-2.3 5.37-3.23a3 3 0 0 0 .68-3.19l-1.74 1.75a1.5 1.5 0 0 1-2.12 0 1.5 1.5 0 0 1 0-2.12zm4.5-10.46a3 3 0 0 0 .78 2.9c.92.92 3.24 2.35 5.38 3.22 1.13.46 2.9.78 2.9.78s-.35-1.74-.81-2.86c-.88-2.15-2.3-4.46-3.23-5.38a3 3 0 0 0-2.9-.78l1.17 1.17a1.5 1.5 0 0 1 0 2.12 1.5 1.5 0 0 1-2.12 0zm-9.2 9.18a6 6 0 0 1 8.48 8.49c-2.34 2.34-10.38 6.58-12.73 4.24-2.34-2.34 1.9-10.39 4.25-12.73zm7.86-4.16a6 6 0 1 1 8.49-8.48c2.34 2.34 6.58 10.38 4.24 12.73-2.34 2.34-10.39-1.9-12.73-4.25zm-11.55.2c-.93-.94.76-4.15 1.7-5.08a2.4 2.4 0 1 1 3.38 3.38c-.94.94-4.14 2.63-5.08 1.7zm22.33 14.1c-.94.93-4.14-.76-5.08-1.7a2.4 2.4 0 0 1 3.39-3.38c.93.93 2.62 4.14 1.69 5.08z"/></defs><use fill="#0bd" xlink:href="#a" transform="translate(-763 -742)"/></svg>