<svg width="48" height="48" viewBox="0 0 48 48" xmlns="http://www.w3.org/2000/svg"><title>theicons.co/svg/home-16</title><defs><linearGradient x1="50%" y1="0%" x2="50%" y2="100%" id="a"><stop stop-color="#00CFE8" offset="0%"/><stop stop-color="#00A1CC" offset="100%"/></linearGradient></defs><path d="M36 44c-2.21 0-4-1.795-4-4H16c0 2.21-1.795 4-4 4-2.21 0-4-1.795-4-4-2.208 0-4-1.788-4-3.994v-10.01c0-2.61 1.671-4.83 4-5.654V14C8 8.474 12.473 4 18.005 4h11.99C35.518 4 40 8.483 40 14v6.341c2.33.823 4 3.044 4 5.655v10.01A3.993 3.993 0 0 1 40 40c0 2.21-1.795 4-4 4zm4-8V25.996A1.998 1.998 0 0 0 38 24c-1.102 0-2 .898-2 2.002V28a2 2 0 0 1-2.748 1.855C33.127 29.805 28.114 28 24 28c-4.115 0-9.14 1.81-9.27 1.862A2 2 0 0 1 12 28v-1.998C12 24.901 11.1 24 10 24c-1.102 0-2 .896-2 1.996V36h8l16 .004L40 36zM15.96 25.302S20.34 23.956 24 24c3.66.044 8.078 1.252 8.078 1.252 0-2.01 1.618-4.11 3.922-4.913V14c0-3.308-2.692-6-6.005-6h-11.99A5.997 5.997 0 0 0 12 14v6.342a6.017 6.017 0 0 1 3.96 4.96zM18 18a2 2 0 1 1 0-4 2 2 0 0 1 0 4zm12 0a2 2 0 1 1 0-4 2 2 0 0 1 0 4z" fill="url(#a)" fill-rule="evenodd"/></svg>