<?xml version="1.0" encoding="utf-8"?>
<svg xmlns="http://www.w3.org/2000/svg" xmlns:xlink="http://www.w3.org/1999/xlink">
<symbol viewBox="0 0 36 21" id="lips">
  <path transform="translate(-175 -745)" d="M206.11 756.75a23 23 0 0 1-1.87 1.83c-3.26 2.63-7.03 4.19-11.25 4.17-4.18.01-7.93-1.54-11.22-4.17a23.58 23.58 0 0 1-1.88-1.83zm-25.85-3c.35-.4.67-.78.98-1.18l1.26-1.7a5.66 5.66 0 0 1 4.47-2.37c.72 0 1.34.16 2.63.66 1.7.66 2.35.86 3.44.87 1-.01 1.67-.21 3.36-.87 1.29-.5 1.91-.67 2.63-.66a5.66 5.66 0 0 1 4.47 2.36l1.26 1.7c.31.41.63.8.98 1.19zm30.38 2.48a1.5 1.5 0 0 0-.16-2.11 21.09 21.09 0 0 1-3.33-3.37l-1.28-1.73a8.62 8.62 0 0 0-6.84-3.52c-1.18-.01-2.08.23-3.71.86-1.34.52-1.8.66-2.32.67-.52 0-.98-.15-2.32-.67-1.63-.63-2.53-.87-3.7-.86a8.62 8.62 0 0 0-6.85 3.52l-1.28 1.73c-.76 1-1.58 1.85-3.32 3.35a1.5 1.5 0 0 0-.13 2.17c.67.8 3.32 3.7 4.5 4.65 3.78 3.03 8.17 4.85 13.09 4.83 4.97.02 9.37-1.8 13.13-4.83 1.11-.9 4.46-4.62 4.52-4.69z"/>
</symbol>

<symbol viewBox="0 0 28 28" id="combined-up">
  <path transform="translate(-471 -742)" d="M480.5 747.62v20.46c0 .79-.67 1.42-1.5 1.42s-1.5-.63-1.5-1.42v-20.46l-3.44 3.44a1.5 1.5 0 1 1-2.12-2.12l6-6a1.5 1.5 0 0 1 2.12 0l6 6a1.5 1.5 0 1 1-2.12 2.12zm12 10.5v9.96c0 .79-.67 1.42-1.5 1.42s-1.5-.63-1.5-1.42v-9.96l-3.44 3.44a1.5 1.5 0 1 1-2.12-2.12l6-6a1.5 1.5 0 0 1 2.12 0l6 6a1.5 1.5 0 1 1-2.12 2.12z"/>
</symbol>

<symbol viewBox="0 0 28 28" id="food">
  <path transform="translate(-763 -742)" d="M773.58 757.67a3 3 0 0 0-2.58.84c-.92.92-2.35 3.24-3.23 5.38-.46 1.13-.8 2.89-.8 2.89s1.77-.34 2.9-.8c2.14-.88 4.45-2.3 5.37-3.23a3 3 0 0 0 .68-3.19l-1.74 1.75a1.5 1.5 0 0 1-2.12 0 1.5 1.5 0 0 1 0-2.12zm4.5-10.46a3 3 0 0 0 .78 2.9c.92.92 3.24 2.35 5.38 3.22 1.13.46 2.9.78 2.9.78s-.35-1.74-.81-2.86c-.88-2.15-2.3-4.46-3.23-5.38a3 3 0 0 0-2.9-.78l1.17 1.17a1.5 1.5 0 0 1 0 2.12 1.5 1.5 0 0 1-2.12 0zm-9.2 9.18a6 6 0 0 1 8.48 8.49c-2.34 2.34-10.38 6.58-12.73 4.24-2.34-2.34 1.9-10.39 4.25-12.73zm7.86-4.16a6 6 0 1 1 8.49-8.48c2.34 2.34 6.58 10.38 4.24 12.73-2.34 2.34-10.39-1.9-12.73-4.25zm-11.55.2c-.93-.94.76-4.15 1.7-5.08a2.4 2.4 0 1 1 3.38 3.38c-.94.94-4.14 2.63-5.08 1.7zm22.33 14.1c-.94.93-4.14-.76-5.08-1.7a2.4 2.4 0 0 1 3.39-3.38c.93.93 2.62 4.14 1.69 5.08z"/>
</symbol>


<symbol viewBox="0 0 29 32" id="nature">
  <path transform="translate(-1055 -739)" d="M1061.67 757.1c-3.13-3.15-5.14-6.12-6.12-9.7a1.5 1.5 0 0 1 2.9-.8 15.26 15.26 0 0 0 2.2 4.66 6.24 6.24 0 0 1 1.17-2.94 1.5 1.5 0 1 1 2.36 1.86c-.3.38-.5 1-.6 1.81-.1.81-.08 1.72.03 2.59 0 .09.13.36.19.4.62.63 2.61 2.5 3.7 3.55v-7.78c0-1.84-.75-3.88-2.03-5.94a20.86 20.86 0 0 0-2.06-2.78 1.5 1.5 0 0 1 2.18-2.06 23.83 23.83 0 0 1 2.43 3.26c.62.99 1.13 1.98 1.53 2.97.6-1.1 1.3-2.2 2.01-3.12a1.5 1.5 0 0 1 2.38 1.84c-1.79 2.3-3.44 5.9-3.44 7.33v3.28a10.87 10.87 0 0 1 3.9-2.87c-.38-1.4-.2-2.93.93-4.34a1.5 1.5 0 0 1 2.35 1.86c-.32.4-.45.8-.45 1.19 1.71-1 2.5-2.14 3.08-4.06a1.5 1.5 0 1 1 2.87.88c-1.12 3.64-3 5.45-7.47 7.18-.2.08-.4.16-.58.26.18.29.4.58.67.84.52.53 1.12.9 1.8 1.07a1.5 1.5 0 1 1-.7 2.92 6.74 6.74 0 0 1-3.24-1.88 8.32 8.32 0 0 1-.9-1.08l-.4.47a13.57 13.57 0 0 0-1.86 3.08v8.45a1.5 1.5 0 0 1-3 0v-4.49a5.2 5.2 0 0 0-.56-2.17c-.93-1.8-2.83-2.58-6.55-1.64a1.5 1.5 0 1 1-.73-2.91c.98-.25 1.9-.4 2.76-.45l-.75-.74z"/>
</symbol>


<symbol viewBox="0 0 34 30" id="signs">
  <path transform="translate(-176 -1014)" d="M205.02 1026.44c-.02.05-.28 1.13-.37 1.58-.63 3.33-.58 6.91.6 10.22.43 1.22 1 2.36 1.74 3.42a1.5 1.5 0 1 1-2.47 1.7 17.57 17.57 0 0 1-2.1-4.11 22.61 22.61 0 0 1-.72-11.79c-.39.02-.79.04-1.2.04a9 9 0 0 1-7.5-4.02 9 9 0 0 1-8.7 3.95c.73 3.84.67 7.93-.7 11.82a17.57 17.57 0 0 1-2.1 4.12 1.5 1.5 0 1 1-2.47-1.7c.73-1.07 1.3-2.21 1.74-3.43a19.72 19.72 0 0 0 .22-11.8 1.52 1.52 0 0 1-.04-.17 9 9 0 0 1-4.45-7.77c0-.88.1-1.54.32-2.22.12-.35.1-.31.54-1.32a1.5 1.5 0 1 1 2.76 1.19c-.38.87-.38.85-.45 1.08-.12.36-.17.7-.17 1.27a6 6 0 0 0 12 0 1.5 1.5 0 1 1 3 0 6 6 0 0 0 12 0c0-.57-.05-.91-.17-1.27-.07-.23-.07-.2-.45-1.08a1.5 1.5 0 1 1 2.76-1.2c.44 1.02.42.98.54 1.33.22.68.32 1.34.32 2.22a9 9 0 0 1-4.43 7.76l-.05.18zm-21.02-4.19a1.5 1.5 0 1 1 0-3 1.5 1.5 0 0 1 0 3zm18 0a1.5 1.5 0 1 1 0-3 1.5 1.5 0 0 1 0 3zM191.5 1038a1.5 1.5 0 0 1 3 0v1.5a1.5 1.5 0 0 1-3 0z"/>
</symbol>


<symbol viewBox="0 0 30 30" id="medical">
  <path transform="translate(-762 -1014)" d="M777 1015.3s.1-.1.88-.4c1.63-.66 3.43-.97 5.3-.77a9.08 9.08 0 0 1 8.1 8.9c0 3.8-.9 8.8-2.32 13.04-1.65 4.92-3.55 7.96-5.94 7.96-2.17 0-4-2.12-6.02-6.78-2.08 4.79-3.84 6.79-6.02 6.75-2.18-.03-4.27-3.07-5.9-7.97a44.53 44.53 0 0 1-2.33-13.03c0-4.68 3.7-8.35 8.1-8.87a12.25 12.25 0 0 1 6.16 1.16zm4.26 3.85a1.5 1.5 0 0 1-2.5 1.66c-.35-.52-3.02-4.12-7.61-3.77a6.03 6.03 0 0 0-5.4 5.96c0 3.46.86 8.14 2.17 12.08 1.2 3.57 2.66 5.91 3.1 5.92.45 0 3.11-4 4.32-8 .56-1.82 2.76-1.74 3.33.03 1.45 4.54 3.88 8 4.35 8 .05 0 1.6-1.38 3.1-5.91 1.29-3.95 2.17-8.64 2.17-12.1a6.16 6.16 0 0 0-5.45-5.98 7.42 7.42 0 0 0-3.04.35c.54.53 1.03 1.11 1.46 1.76zm-9.51-.65a1.5 1.5 0 1 1 0 3c-.83 0-1.5.67-1.5 1.5a1.5 1.5 0 1 1-3 0 4.5 4.5 0 0 1 4.5-4.5z"/>
</symbol>

<symbol viewBox="0 0 42 42" id="cosmo">
  <g stroke="none" stroke-width="1" fill="none" fill-rule="evenodd">
        <g transform="translate(-580.000000, -1538.000000)" fill="#00bbdd">
            <g transform="translate(96.000000, 1536.000000)">
                <g transform="translate(480.000000, 0.000000)">
                    <path d="M37.1134679,13.9002644 L39.9445801,16.7313767 C41.5051943,18.2919909 41.5016875,20.8257533 39.9441303,22.3833106 L22.969097,39.3583438 C21.4082343,40.9192065 18.878011,40.9196416 17.3171631,39.3587937 L15.9002644,37.941895 L14.4845752,39.3575842 C13.7043416,40.1378178 12.4448412,40.1433261 11.6589663,39.3574511 L7.41078305,43.6029493 C6.63205407,44.3816782 5.37304985,44.3852432 4.58655594,43.5987493 C3.80550736,42.8177007 3.80485912,41.5520189 4.58235592,40.7745221 L8.82919663,36.5276814 C8.04754697,35.7460318 8.05014924,34.4783017 8.82772098,33.70073 L10.2434102,32.2850408 L8.82651154,30.8681421 C7.26589731,29.3075279 7.2694041,26.7737655 8.82696137,25.2162082 L25.8019946,8.24117493 C27.3628573,6.68031227 29.8930806,6.67987715 31.4539285,8.2407251 L34.2850408,11.0718373 L37.1134679,8.24341019 L34.2808407,5.41078305 C33.5021118,4.63205407 33.4985468,3.37304985 34.2850408,2.58655594 C35.0660893,1.80550736 36.3317711,1.80485912 37.1092679,2.58235592 L45.6029493,11.0760373 C46.3816782,11.8547663 46.3852432,13.1137705 45.5987493,13.9002644 C44.8177007,14.681313 43.5520189,14.6819613 42.7745221,13.9044645 L39.941895,11.0718373 L37.1134679,13.9002644 Z M37.1116793,19.5508596 L34.2849244,16.7288079 L25.7997594,25.2139729 L28.6253509,28.0395644 L37.1116793,19.5508596 Z M20.1478219,36.5227647 L11.6638828,28.0441886 L17.3177661,22.388834 L25.7974599,30.8685277 L20.1478219,36.5227647 Z M28.6277403,11.0722835 L31.4561407,13.9007373 L22.9713323,22.3855458 L20.1457415,19.5599551 L28.6277403,11.0722835 Z"></path>
                </g>
            </g>
        </g>
    </g>
</symbol>

<symbol viewBox="0 0 64 84" id="tp">
  <g stroke="none" stroke-width="1" fill="none" fill-rule="evenodd">
        <g fill-rule="nonzero" fill="#00bbdd">
            <g>
                <path d="M63.5,63.825 L57.877,20.083 C57.872,20.048 57.866,20.013 57.86,19.979 C55.844,9.168 44.238,0.373 31.99,0.373 C19.531,0.373 7.89,9.364 6.03,20.487 L0.5,63.827 C0.421,64.444 0.654,65.06 1.122,65.472 C1.589,65.883 2.229,66.034 2.832,65.879 L14.198,62.923 L30.67,82.943 C31.026,83.376 31.556,83.627 32.117,83.627 C32.117,83.627 32.117,83.627 32.119,83.627 C32.678,83.627 33.209,83.377 33.564,82.946 L50.041,62.984 L61.17,65.879 C61.324,65.92 61.482,65.94 61.641,65.94 C62.092,65.94 62.534,65.777 62.881,65.471 C63.348,65.06 63.58,64.443 63.5,63.825 Z M32.12,78.805 L18.036,61.687 C19.918,60.696 21.876,58.924 22.922,56.065 C25.808,58.192 29.011,59.331 32.291,59.331 C35.533,59.331 38.555,58.214 41.205,56.369 C42.315,59.147 44.297,60.848 46.17,61.786 L32.12,78.805 Z M47.838,30.901 C47.854,31.283 47.869,35.407 47.869,36.029 C47.869,44.884 40.92,55.58 32.291,55.58 C25.259,55.58 16.927,47.184 16.724,36.393 L16.715,24.159 L23.47,17.541 C31.751,24.736 43.295,25.94 47.836,26.127 L47.836,30.81 C47.836,30.835 47.838,30.877 47.838,30.901 Z M49.654,59.009 C49.593,58.994 49.516,58.979 49.455,58.969 C48.976,58.895 45.268,58.167 44.296,53.723 C48.787,49.082 51.619,42.265 51.619,36.03 C51.619,35.985 51.608,31.519 51.586,30.779 L51.586,24.28 C51.586,23.773 51.38,23.287 51.017,22.934 C50.653,22.58 50.143,22.38 49.655,22.405 C49.639,22.406 49.511,22.409 49.286,22.409 C46.658,22.409 33.126,21.986 24.763,13.624 C24.037,12.896 22.86,12.893 22.125,13.61 L13.528,22.033 C13.168,22.386 12.965,22.868 12.965,23.372 L12.974,36.433 C13.075,41.771 15.122,47.377 18.593,51.812 C18.981,52.307 19.383,52.775 19.792,53.224 C18.996,58.107 15.044,58.892 14.561,58.968 C14.489,58.978 14.417,58.991 14.347,59.01 L4.571,61.553 L9.74,21.035 C11.274,11.868 21.464,4.124 31.991,4.124 C42.323,4.124 52.464,11.671 54.165,20.615 L59.429,61.552 L49.654,59.009 Z" id="Shape"></path>
                <path d="M38.905,44.429 C38.658,44.142 38.278,44.002 37.903,44.051 C36,44.309 34.052,44.375 32.138,44.246 C32.089,44.242 28.161,44.307 26.274,44.051 C25.894,44 25.516,44.144 25.268,44.435 C25.07,44.667 24.938,44.92 24.877,45.189 C24.772,45.608 24.783,46.261 25.389,47.055 C26.402,48.384 28.93,49.815 32.09,49.815 C32.091,49.815 32.094,49.815 32.094,49.815 C35.249,49.815 37.776,48.385 38.789,47.057 C39.414,46.239 39.408,45.571 39.31,45.219 C39.25,44.934 39.113,44.668 38.905,44.429 Z M32.094,47.564 L32.086,47.564 C30.353,47.564 28.993,47.034 28.128,46.495 C29.44,46.579 34.721,46.582 36.051,46.496 C35.185,47.035 33.826,47.564 32.094,47.564 Z" id="Shape"></path>
                <path d="M25.614,34.806 C25.614,34.809 25.612,34.849 25.612,34.853 C25.591,35.471 26.073,35.973 26.692,35.999 C27.312,36.029 27.834,35.527 27.862,34.908 C27.864,34.855 27.866,34.802 27.865,34.74 C27.818,32.812 26.233,31.3 24.283,31.325 C23.348,31.346 22.478,31.732 21.833,32.409 C21.565,32.689 21.35,33.007 21.191,33.347 L20.541,33.086 C19.964,32.855 19.31,33.135 19.078,33.712 C18.846,34.289 19.127,34.943 19.703,35.175 L21.573,35.925 C21.708,35.98 21.85,36.006 21.992,36.006 C22.218,36.006 22.442,35.938 22.633,35.805 C22.944,35.589 23.126,35.232 23.116,34.854 C23.108,34.52 23.231,34.203 23.461,33.961 C23.691,33.719 24.002,33.581 24.335,33.574 C25.026,33.552 25.6,34.104 25.614,34.806 Z" id="Shape"></path>
                <path d="M43.57,33.086 L42.922,33.347 C42.762,33.006 42.547,32.689 42.279,32.409 C41.634,31.732 40.763,31.347 39.83,31.325 C37.879,31.3 36.293,32.812 36.246,34.74 C36.246,34.802 36.248,34.855 36.25,34.908 C36.279,35.527 36.801,36.029 37.42,35.999 C38.038,35.974 38.522,35.472 38.5,34.853 C38.5,34.849 38.498,34.809 38.498,34.806 C38.513,34.105 39.087,33.552 39.777,33.575 C40.109,33.582 40.42,33.72 40.65,33.962 C40.88,34.203 41.003,34.521 40.996,34.855 C40.986,35.233 41.168,35.59 41.478,35.806 C41.669,35.939 41.893,36.007 42.121,36.007 C42.262,36.007 42.403,35.981 42.539,35.926 L44.408,35.176 C44.986,34.945 45.265,34.29 45.034,33.713 C44.803,33.136 44.148,32.854 43.57,33.086 Z"></path>
            </g>
        </g>
    </g>
</symbol>

<symbol viewBox="0 0 30 38" id="plazma">
  <g stroke="none" stroke-width="1" fill="none" fill-rule="evenodd">
        <g fill-rule="nonzero" fill="#00bbdd">
            <path d="M28,26 L28,32.9943542 C28,35.7588961 25.7558048,38 23,38 C20.2385763,38 18,35.7616406 18,32.9943542 L18,26 L12,11.9999917 L12,33 C12,35.7614237 9.75580481,38 7,38 C4.23857625,38 2,35.7625407 2,33 L2,22 L2,11.9999917 C0.89488899,11.9968684 0,11.1103089 0,10 C0,8.8954305 0.897060126,8 2.00585866,8 L11.9941413,8 C13.1019465,8 14,8.88772964 14,10 C14,11.1026234 13.1060981,11.9968441 12,11.9999917 L18.0058587,26 L18,7.99999172 C16.894889,7.9968684 16,7.11030894 16,6 C16,4.8954305 16.8970601,4 18.0058587,4 L27.9941413,4 C29.1019465,4 30,4.88772964 30,6 C30,7.10262341 29.1060981,7.99684411 28,7.99999167 L28,26 Z M22,26 L22,33.0029699 C22,33.5469637 22.4477153,34 23,34 C23.5561352,34 24,33.5536144 24,33.0029699 L24,26 L22,26 Z M22,8 L22,22 L24,22 L24,8 L22,8 Z M6,12 L6,21.0046024 C6,21.5443356 6.44771525,22 7,22 C7.55613518,22 8,21.5543453 8,21.0046024 L8,12 L6,12 Z M10,4 C8.8954305,4 8,3.1045695 8,2 C8,0.8954305 8.8954305,0 10,0 C11.1045695,0 12,0.8954305 12,2 C12,3.1045695 11.1045695,4 10,4 Z M4,6 C2.8954305,6 2,5.1045695 2,4 C2,2.8954305 2.8954305,2 4,2 C5.1045695,2 6,2.8954305 6,4 C6,5.1045695 5.1045695,6 4,6 Z"></path>
        </g>
    </g>
</symbol>

</svg>