<svg xmlns="http://www.w3.org/2000/svg" xmlns:xlink="http://www.w3.org/1999/xlink" width="36" height="21" viewBox="0 0 36 21"><defs><path id="a" d="M206.11 756.75a23 23 0 0 1-1.87 1.83c-3.26 2.63-7.03 4.19-11.25 4.17-4.18.01-7.93-1.54-11.22-4.17a23.58 23.58 0 0 1-1.88-1.83zm-25.85-3c.35-.4.67-.78.98-1.18l1.26-1.7a5.66 5.66 0 0 1 4.47-2.37c.72 0 1.34.16 2.63.66 1.7.66 2.35.86 3.44.87 1-.01 1.67-.21 3.36-.87 1.29-.5 1.91-.67 2.63-.66a5.66 5.66 0 0 1 4.47 2.36l1.26 1.7c.31.41.63.8.98 1.19zm30.38 2.48a1.5 1.5 0 0 0-.16-2.11 21.09 21.09 0 0 1-3.33-3.37l-1.28-1.73a8.62 8.62 0 0 0-6.84-3.52c-1.18-.01-2.08.23-3.71.86-1.34.52-1.8.66-2.32.67-.52 0-.98-.15-2.32-.67-1.63-.63-2.53-.87-3.7-.86a8.62 8.62 0 0 0-6.85 3.52l-1.28 1.73c-.76 1-1.58 1.85-3.32 3.35a1.5 1.5 0 0 0-.13 2.17c.67.8 3.32 3.7 4.5 4.65 3.78 3.03 8.17 4.85 13.09 4.83 4.97.02 9.37-1.8 13.13-4.83 1.11-.9 4.46-4.62 4.52-4.69z"/></defs><use fill="#0bd" xlink:href="#a" transform="translate(-175 -745)"/></svg>