<svg width="20" height="20" viewBox="0 0 20 20" xmlns="http://www.w3.org/2000/svg"><title>theicons.co/svg/mail-01</title><path d="M11.667 11.179l-1.078 1.077a.833.833 0 0 1-1.178 0l-1.078-1.077-4.657 4.657 12.646-.003-4.655-4.654zM17.5 5.345L12.845 10l4.655 4.655v-9.31zM7.155 10L2.5 5.345v9.31L7.155 10zm2.845.516l6.328-6.352-12.653.003L10 10.516zM2.5 2.5h15c.92 0 1.667.744 1.667 1.663v11.674c0 .919-.747 1.663-1.668 1.663H2.501c-.921 0-1.668-.744-1.668-1.663V4.163c0-.919.747-1.663 1.668-1.663z" fill="#0BD" fill-rule="evenodd"/></svg>