<svg xmlns="http://www.w3.org/2000/svg" xmlns:xlink="http://www.w3.org/1999/xlink" width="30" height="30" viewBox="0 0 30 30"><defs><path id="a" d="M777 1015.3s.1-.1.88-.4c1.63-.66 3.43-.97 5.3-.77a9.08 9.08 0 0 1 8.1 8.9c0 3.8-.9 8.8-2.32 13.04-1.65 4.92-3.55 7.96-5.94 7.96-2.17 0-4-2.12-6.02-6.78-2.08 4.79-3.84 6.79-6.02 6.75-2.18-.03-4.27-3.07-5.9-7.97a44.53 44.53 0 0 1-2.33-13.03c0-4.68 3.7-8.35 8.1-8.87a12.25 12.25 0 0 1 6.16 1.16zm4.26 3.85a1.5 1.5 0 0 1-2.5 1.66c-.35-.52-3.02-4.12-7.61-3.77a6.03 6.03 0 0 0-5.4 5.96c0 3.46.86 8.14 2.17 12.08 1.2 3.57 2.66 5.91 3.1 5.92.45 0 3.11-4 4.32-8 .56-1.82 2.76-1.74 3.33.03 1.45 4.54 3.88 8 4.35 8 .05 0 1.6-1.38 3.1-5.91 1.29-3.95 2.17-8.64 2.17-12.1a6.16 6.16 0 0 0-5.45-5.98 7.42 7.42 0 0 0-3.04.35c.54.53 1.03 1.11 1.46 1.76zm-9.51-.65a1.5 1.5 0 1 1 0 3c-.83 0-1.5.67-1.5 1.5a1.5 1.5 0 1 1-3 0 4.5 4.5 0 0 1 4.5-4.5z"/></defs><use fill="#0bd" xlink:href="#a" transform="translate(-762 -1014)"/></svg>