<svg xmlns="http://www.w3.org/2000/svg" xmlns:xlink="http://www.w3.org/1999/xlink" width="24" height="18" viewBox="0 0 24 18"><defs><path id="a" d="M47 873a2 2 0 0 1-2-2v-10c0-1.1.9-2 2-2h16a2 2 0 0 1 2 2v6.1a5 5 0 1 1-3.5 9.23 5 5 0 0 1-7.4-3.33zm8-4a3 3 0 1 1 2.77-1.85 5.01 5.01 0 0 1 3.73.52c.46-.27.96-.46 1.5-.57V861H47v10h7.1c.15-.74.46-1.42.9-2zm9 6a3 3 0 1 0-.9-5.86 4.98 4.98 0 0 1 0 5.72 3 3 0 0 0 .9.14zm-16-6.5c0-.27.23-.5.5-.5h2c.28 0 .5.22.5.5v1a.5.5 0 0 1-.5.5h-2a.5.5 0 0 1-.5-.5zm11-6c0-.27.23-.5.5-.5h2c.28 0 .5.22.5.5v1a.5.5 0 0 1-.5.5h-2a.5.5 0 0 1-.5-.5zm0 12.5a3 3 0 1 0 0-6 3 3 0 0 0 0 6z"/></defs><use xlink:href="#a" opacity=".25" transform="translate(-45 -859)"/></svg>