<svg width="48" height="48" viewBox="0 0 48 48" xmlns="http://www.w3.org/2000/svg"><title>theicons.co/svg/others-08</title><defs><linearGradient x1="50%" y1="0%" x2="50%" y2="100%" id="a"><stop stop-color="#00CFE8" offset="0%"/><stop stop-color="#00A1CC" offset="100%"/></linearGradient></defs><path d="M20.245 14h9.518l-3.092-6h-3.318l-3.108 6zm-.443 4l5.215 15.693L30.252 18h-10.45zm21.062-4l-3.985-6h-5.701l3.108 6h6.578zm-.515 4h-5.88l-4.335 12.995L40.349 18zM9.75 18l10.148 13.01L15.558 18H9.75zm-.596-4h6.587l3.106-5.997c-3.277.002-5.685.005-5.695.01-.018.01-2.482 3.709-3.998 5.987zm-5.042.331L9.888 5.67C10.502 4.747 11.9 4 12.99 4H37.01c1.1 0 2.491.75 3.103 1.669l5.776 8.662c.614.922.557 2.375-.118 3.234l-19.54 24.87c-.68.864-1.785.859-2.46 0L4.23 17.565c-.68-.864-.73-2.316-.118-3.234z" fill="url(#a)" fill-rule="evenodd"/></svg>