<svg width="20" height="20" viewBox="0 0 20 20" xmlns="http://www.w3.org/2000/svg"><title>theicons.co/svg/phone-15</title><path d="M9.165 6.12l-.882.883a1.252 1.252 0 0 0 .003 1.77l2.94 2.941a1.249 1.249 0 0 0 1.77.003l.883-.882a.834.834 0 0 1 1.18-.001l3.24 3.24a1.25 1.25 0 0 1-.002 1.77l-1.766 1.767c-1.138 1.139-3.205 1.438-4.586.611 0 0-2.213-.931-5.704-4.422-3.49-3.49-4.456-5.744-4.456-5.744-.805-1.395-.531-3.452.604-4.587l1.766-1.766A1.25 1.25 0 0 1 5.927 1.7l3.239 3.24a.834.834 0 0 1 0 1.18zM3.567 4.649c-.603.603-.705 1.81-.338 2.575 0 0 .589 1.068.855 1.461.788 1.162 1.883 2.485 3.336 3.938 1.452 1.453 2.767 2.541 3.915 3.317.388.263 1.466.853 1.466.853.697.365 1.938.255 2.551-.36l1.475-1.474-2.357-2.357-.295.295a2.916 2.916 0 0 1-4.127-.003l-2.94-2.94a2.919 2.919 0 0 1-.004-4.128L7.4 5.53 5.042 3.173 3.567 4.648z" fill-rule="nonzero" fill="#0BD"/></svg>