<svg xmlns="http://www.w3.org/2000/svg" xmlns:xlink="http://www.w3.org/1999/xlink" width="34" height="30" viewBox="0 0 34 30"><defs><path id="a" d="M205.02 1026.44c-.02.05-.28 1.13-.37 1.58-.63 3.33-.58 6.91.6 10.22.43 1.22 1 2.36 1.74 3.42a1.5 1.5 0 1 1-2.47 1.7 17.57 17.57 0 0 1-2.1-4.11 22.61 22.61 0 0 1-.72-11.79c-.39.02-.79.04-1.2.04a9 9 0 0 1-7.5-4.02 9 9 0 0 1-8.7 3.95c.73 3.84.67 7.93-.7 11.82a17.57 17.57 0 0 1-2.1 4.12 1.5 1.5 0 1 1-2.47-1.7c.73-1.07 1.3-2.21 1.74-3.43a19.72 19.72 0 0 0 .22-11.8 1.52 1.52 0 0 1-.04-.17 9 9 0 0 1-4.45-7.77c0-.88.1-1.54.32-2.22.12-.35.1-.31.54-1.32a1.5 1.5 0 1 1 2.76 1.19c-.38.87-.38.85-.45 1.08-.12.36-.17.7-.17 1.27a6 6 0 0 0 12 0 1.5 1.5 0 1 1 3 0 6 6 0 0 0 12 0c0-.57-.05-.91-.17-1.27-.07-.23-.07-.2-.45-1.08a1.5 1.5 0 1 1 2.76-1.2c.44 1.02.42.98.54 1.33.22.68.32 1.34.32 2.22a9 9 0 0 1-4.43 7.76l-.05.18zm-21.02-4.19a1.5 1.5 0 1 1 0-3 1.5 1.5 0 0 1 0 3zm18 0a1.5 1.5 0 1 1 0-3 1.5 1.5 0 0 1 0 3zM191.5 1038a1.5 1.5 0 0 1 3 0v1.5a1.5 1.5 0 0 1-3 0z"/></defs><use fill="#0bd" xlink:href="#a" transform="translate(-176 -1014)"/></svg>