<svg xmlns="http://www.w3.org/2000/svg" xmlns:xlink="http://www.w3.org/1999/xlink" width="20" height="12" viewBox="0 0 20 12"><defs><path id="awj0a" d="M850.83 751a.83.83 0 0 1-1.19.76l-.54-.3a23.48 23.48 0 0 1-5.45-4.38 18.4 18.4 0 0 1-2.94-4.13c-.4-.8-.6-1.4-.69-1.76a.83.83 0 0 1 1.63-.37c0 .04.35.99.55 1.38a16.66 16.66 0 0 0 2.66 3.74 21.9 21.9 0 0 0 4.3 3.63v-7.73h-.82a.83.83 0 0 1 0-1.67h.83c.92 0 1.66.75 1.66 1.67V746h.87a5.94 5.94 0 0 0 3.74-1.65 11.76 11.76 0 0 0 1.37-1.55 38.67 38.67 0 0 0 1.67-2.26.83.83 0 0 1 1.38.93l-.52.74a40.3 40.3 0 0 1-1.85 2.4c-.32.37-.62.69-.9.95-.55.52-1.17.95-1.82 1.29a12.9 12.9 0 0 1 3 1.79 20.97 20.97 0 0 1 2 1.79.83.83 0 1 1-1.2 1.15 19.33 19.33 0 0 0-1.82-1.63 10.96 10.96 0 0 0-5.05-2.28h-.87z"/></defs><g><g transform="translate(-840 -740)"><use xlink:href="#awj0a"/></g></g></svg>