<svg xmlns="http://www.w3.org/2000/svg" xmlns:xlink="http://www.w3.org/1999/xlink" width="18" height="18" viewBox="0 0 18 18"><defs><path id="o23ca" d="M796.83 737.67h8.34c2.3 0 4.17 1.86 4.17 4.16v8.34c0 2.3-1.87 4.17-4.17 4.17h-8.34a4.16 4.16 0 0 1-4.16-4.17v-8.34c0-2.3 1.86-4.16 4.16-4.16zm-2.5 12.5a2.5 2.5 0 0 0 2.5 2.5h8.34a2.5 2.5 0 0 0 2.5-2.5v-8.34a2.5 2.5 0 0 0-2.5-2.5h-8.34a2.5 2.5 0 0 0-2.5 2.5zm2.5-4.17a4.17 4.17 0 1 1 8.34 0 4.17 4.17 0 0 1-8.33 0zm6.67 0a2.5 2.5 0 1 0-5 0 2.5 2.5 0 0 0 5 0zm1.67-3.33a.83.83 0 1 1 0-1.67.83.83 0 0 1 0 1.67z"/></defs><g><g transform="translate(-792 -737)"><use xlink:href="#o23ca"/></g></g></svg>