<svg xmlns="http://www.w3.org/2000/svg" xmlns:xlink="http://www.w3.org/1999/xlink" width="20" height="16" viewBox="0 0 20 16"><defs><path id="r5dwa" d="M893.33 738.74s2.3-.24 6.67-.24c4.38 0 6.68.24 6.68.24 1.37.1 2.7 1.27 2.92 2.64 0 0 .4 1.5.4 4.62 0 3.13-.4 4.63-.4 4.63a3.34 3.34 0 0 1-2.93 2.63s-2.5.24-6.67.24-6.68-.24-6.68-.24a3.33 3.33 0 0 1-2.92-2.64s-.4-1.5-.4-4.62c0-3.13.4-4.63.4-4.63a3.35 3.35 0 0 1 2.93-2.63zm-1.48 3.99c-.11.89-.18 1.98-.18 3.27 0 1.3.07 2.38.18 3.27.07.5.2 1.09.2 1.09.1.58.77 1.2 1.43 1.24l1.7.12a92.7 92.7 0 0 0 11.33-.12c.66-.04 1.34-.65 1.44-1.26 0 0 .13-.57.2-1.07.11-.89.18-1.98.18-3.27 0-1.3-.07-2.38-.18-3.27-.07-.5-.2-1.09-.2-1.09-.1-.58-.78-1.2-1.4-1.24a94.08 94.08 0 0 0-11.44-.12l-1.67.12a1.7 1.7 0 0 0-1.4 1.26s-.12.57-.19 1.07zm6.07 1.32c0-.46.33-.66.73-.43l3.55 1.97c.4.22.4.59 0 .81l-3.56 2c-.4.22-.73.03-.73-.43z"/></defs><g><g transform="translate(-890 -738)"><use xlink:href="#r5dwa"/></g></g></svg>