<svg width="22" height="20" viewBox="0 0 22 20" fill="none" xmlns="http://www.w3.org/2000/svg">
<path fill-rule="evenodd" clip-rule="evenodd" d="M20.1667 15.8333C20.1667 16.7538 19.4205 17.5 18.5 17.5H3.50004C2.57957 17.5 1.83337 16.7538 1.83337 15.8333V6.66667C1.83337 5.74619 2.57957 5 3.50004 5H6.83337L8.50004 2.5H13.5L15.1667 5H18.5C19.4205 5 20.1667 5.74619 20.1667 6.66667V15.8333Z" stroke="#213644" stroke-width="2" stroke-linecap="round" stroke-linejoin="round"/>
<path fill-rule="evenodd" clip-rule="evenodd" d="M11 14.1667C12.8409 14.1667 14.3333 12.6743 14.3333 10.8333C14.3333 8.99238 12.8409 7.5 11 7.5C9.15901 7.5 7.66663 8.99238 7.66663 10.8333C7.66663 12.6743 9.15901 14.1667 11 14.1667Z" stroke="#213644" stroke-width="2" stroke-linecap="round" stroke-linejoin="round"/>
</svg>
