<svg width="19" height="18" viewBox="0 0 19 18" fill="none" xmlns="http://www.w3.org/2000/svg">
<path fill-rule="evenodd" clip-rule="evenodd" d="M16.75 12.69V14.94C16.7517 15.3624 16.5753 15.7659 16.2641 16.0514C15.9528 16.3369 15.5357 16.478 15.115 16.44C12.8071 16.1892 10.5903 15.4006 8.64252 14.1375C6.83039 12.986 5.29402 11.4496 4.14252 9.6375C2.875 7.6809 2.0862 5.45324 1.84002 3.135C1.80212 2.71565 1.94222 2.29969 2.22609 1.98871C2.50996 1.67774 2.91146 1.50039 3.33252 1.5H5.58252C6.33541 1.49259 6.97714 2.04447 7.08252 2.79C7.17748 3.51005 7.3536 4.21704 7.60752 4.8975C7.81357 5.44565 7.68178 6.0636 7.27002 6.48L6.31752 7.4325C7.38518 9.31016 8.93986 10.8648 10.8175 11.9325L11.77 10.98C12.1864 10.5682 12.8044 10.4364 13.3525 10.6425C14.033 10.8964 14.74 11.0725 15.46 11.1675C16.2142 11.2739 16.7689 11.9286 16.75 12.69Z" stroke="#F2BB54" stroke-width="2" stroke-linecap="round" stroke-linejoin="round"/>
</svg>
