<svg width="18" height="18" viewBox="0 0 18 18" fill="none" xmlns="http://www.w3.org/2000/svg">
<g opacity="0.3">
<path d="M15.5924 10.4625L13.8449 10.9275L12.3449 10.08V7.92L13.8449 7.0725L15.5924 7.5375L15.9824 6.09L14.6549 5.7375L14.9999 4.41L13.5524 4.02L13.0874 5.7675L11.5874 6.615L9.7499 5.535V3.84L11.0324 2.5575L9.9674 1.5L8.9999 2.4675L8.0324 1.5L6.9674 2.5575L8.2499 3.84V5.535L6.3749 6.615L4.8749 5.7675L4.4399 4.02L2.9999 4.41L3.3524 5.7375L2.0249 6.09L2.4149 7.5375L4.1624 7.0725L5.6624 7.92V10.0875L4.1624 10.935L2.4149 10.47L2.0249 11.9175L3.3524 12.27L2.9999 13.59L4.4474 13.98L4.9124 12.2325L6.4124 11.385L8.2499 12.465V14.16L6.9674 15.4425L8.0324 16.5L8.9999 15.5325L9.9674 16.5L11.0249 15.4425L9.7499 14.16V12.465L11.6249 11.3775L13.1249 12.225L13.5899 13.9725L14.9999 13.59L14.6474 12.2625L15.9749 11.91L15.5924 10.4625ZM7.1249 7.92L8.9999 6.8325L10.8749 7.92V10.08L8.9999 11.1675L7.1249 10.08V7.92Z" fill="white"/>
</g>
</svg>
