<svg xmlns="http://www.w3.org/2000/svg" viewBox="0 0 310.08 134.03"><defs><style>.cls-1,.cls-2{fill:#fff;}.cls-1{fill-rule:evenodd;}.cls-3{fill:#56bff9;}</style></defs><title>Asset 1</title><g id="Layer_2" data-name="Layer 2"><g id="Layer_1-2" data-name="Layer 1"><path class="cls-1" d="M176.45,35.82H185v-29h9.53V.09H166.86V6.86h9.59v29Zm26.72,0h8.46V25h6.3a5.79,5.79,0,0,1,3.93,1.11A5.36,5.36,0,0,1,223,29.88v5.94h8.66V28.9a7.07,7.07,0,0,0-1.52-4.84c-1.79-1.94-5.7-2.43-8.38-3.11,2.78-.56,6.35-.77,8.26-3a8.24,8.24,0,0,0,1.64-5.42v-3c0-2.68-.54-5.66-2.88-7.31C226.09.3,220.61.09,217.43.09H203.17V35.82Zm8.46-17.74V6.86H218c1.28,0,2.95.16,3.92,1.1a5.36,5.36,0,0,1,1.15,3.82v1.43A5.33,5.33,0,0,1,221.92,17c-1,.94-2.65,1.09-3.93,1.09Zm29.54-18V21.83a29.57,29.57,0,0,0,.62,7.09,9.8,9.8,0,0,0,2,3.85,9,9,0,0,0,4,2.67,22.46,22.46,0,0,0,6.83.84h4.92a22.46,22.46,0,0,0,6.83-.84,9,9,0,0,0,4-2.68A9.22,9.22,0,0,0,272.31,29a30.79,30.79,0,0,0,.59-7.17V.09h-8.41v21c0,1.79-.08,5-1.31,6.41s-3.51,1.59-5.2,1.59h-1.83c-1.72,0-4.07-.21-5.25-1.62s-1.32-4.58-1.32-6.38V.09Zm42.05,35.73h26.86V29.05h-18.4V20.49h17.48V14.85H291.68v-8h18V.09H283.22V35.82ZM176.45,84.92H185V56h9.53V49.19H166.86V56h9.59v29Zm26.63,0h26.86V78.16h-18.4V69.59H229V64H211.54V56h18V49.19H203.08V84.92Zm65.49-12.81H260v.08c0,1.55-.22,3.45-1.38,4.6s-3.16,1.37-4.72,1.37S250.1,78,249,76.65s-1.27-4.78-1.27-6.52V64c0-1.75.06-5.14,1.27-6.54S252.26,56,253.86,56s3.44.19,4.62,1.25a5.41,5.41,0,0,1,1.43,4.08h8.41c0-3.16-.43-7.5-2.86-9.81s-7.17-2.75-10.42-2.75h-2.76c-3.43,0-8,.47-10.52,3.13s-3,7.8-3,11.33v7.72c0,3.53.41,8.62,3,11.34s7.09,3.13,10.52,3.13h3.39c3.33,0,7.45-.51,9.92-3s3-6.64,3-10v-.3Zm9.27,12.81h8.46V70.36h14.55V84.92h8.46V49.19h-8.46v14H286.3v-14h-8.46V84.92ZM176.45,134H185v-29h9.53V98.3H166.86v6.76h9.59v29Zm22.05,0h26.86v-6.76H207V118.7h17.48v-5.64H207v-8h18V98.3H198.5V134Zm29.74,0h9.1l1.7-6.51H252l1.67,6.51h9.1l-10-35.72H238.51L228.24,134Zm12.24-12.55,4.19-17h1.86l4.07,17ZM296.05,98.3l-8.23,29-8.22-29H266.35V134h8.2V101.36L283.44,134h8.82l8.84-32.34V134h8.2V98.3Z"/><path class="cls-2" d="M52,75.54l-29.46.24v31h0v0a4.87,4.87,0,0,0,1.45,3.39,4.56,4.56,0,0,0,3.24,1.34v0l24.68,0L52,134c-11.74.09-13.07,0-24.81,0l-.05,0A27.3,27.3,0,0,1,0,107v-.17l0,0V0H22.51V53.36l29.38-.24L52,75.54Z"/><path class="cls-3" d="M104.82,53.42l10.22,0a27.31,27.31,0,0,1,27.2,27.25L142,106.78l0,0V107a27.26,27.26,0,0,1-8,19,27,27,0,0,1-19.15,8c-10.54,0-32,0-44.82-.06V111.53l44.83.07a4.52,4.52,0,0,0,3.22-1.39,4.86,4.86,0,0,0,1.46-3.39v0h0l.29-26.09a4.68,4.68,0,0,0-1.39-3.32,5,5,0,0,0-3.47-1.5L70,75.59V53.29H69.9l-.17-.21L106.9,22.61H40.44V.1H142.08V22.88L104.82,53.42Z"/></g></g></svg>