<svg xmlns="http://www.w3.org/2000/svg" viewBox="0 0 142.24 134.03"><defs><style>.cls-1{fill:#333;}.cls-2{fill:#56bff9;}</style></defs><title>Asset 1</title><g id="Layer_2" data-name="Layer 2"><g id="Layer_1-2" data-name="Layer 1"><path class="cls-1" d="M52,75.54l-29.46.24v31h0v0a4.87,4.87,0,0,0,1.45,3.39,4.56,4.56,0,0,0,3.24,1.34v0l24.68,0L52,134c-11.74.09-13.07,0-24.81,0l-.05,0A27.3,27.3,0,0,1,0,107v-.17l0,0V0H22.51V53.36l29.38-.24L52,75.54Z"/><path class="cls-2" d="M104.82,53.42l10.23,0a27.31,27.31,0,0,1,27.19,27.25L142,106.78l0,0V107a27.26,27.26,0,0,1-8,19,27,27,0,0,1-19.15,8c-10.55,0-32,0-44.82-.06V111.53l44.83.07a4.52,4.52,0,0,0,3.22-1.39,4.86,4.86,0,0,0,1.46-3.39v0h0l.29-26.09a4.68,4.68,0,0,0-1.39-3.32,5,5,0,0,0-3.47-1.5L70,75.59V53.29H69.9l-.17-.21L106.9,22.61H40.44V.1H142.08V22.88L104.82,53.42Z"/></g></g></svg>