<svg width="298" height="298" viewBox="0 0 298 298" fill="none" xmlns="http://www.w3.org/2000/svg">
<g opacity="0.4">
<g opacity="0.56">
<circle cx="148.87" cy="4.37184" r="3.09136" transform="rotate(45 148.87 4.37184)" fill="#EBEBEB"/>
<ellipse cx="140.126" cy="13.116" rx="3.09136" ry="3.09136" transform="rotate(45 140.126 13.116)" fill="#EBEBEB"/>
<ellipse cx="131.383" cy="21.8591" rx="3.09136" ry="3.09136" transform="rotate(45 131.383 21.8591)" fill="#EBEBEB"/>
<ellipse cx="122.639" cy="30.6033" rx="3.09136" ry="3.09136" transform="rotate(45 122.639 30.6033)" fill="#EBEBEB"/>
<ellipse cx="113.896" cy="39.3465" rx="3.09136" ry="3.09136" transform="rotate(45 113.896 39.3465)" fill="#EBEBEB"/>
<ellipse cx="157.614" cy="13.116" rx="3.09136" ry="3.09136" transform="rotate(45 157.614 13.116)" fill="#EBEBEB"/>
<circle cx="148.87" cy="21.8591" r="3.09136" transform="rotate(45 148.87 21.8591)" fill="#EBEBEB"/>
<ellipse cx="140.126" cy="30.6033" rx="3.09136" ry="3.09136" transform="rotate(45 140.126 30.6033)" fill="#EBEBEB"/>
<ellipse cx="131.383" cy="39.3465" rx="3.09136" ry="3.09136" transform="rotate(45 131.383 39.3465)" fill="#EBEBEB"/>
<ellipse cx="122.639" cy="48.0906" rx="3.09136" ry="3.09136" transform="rotate(45 122.639 48.0906)" fill="#EBEBEB"/>
<ellipse cx="166.357" cy="21.8591" rx="3.09136" ry="3.09136" transform="rotate(45 166.357 21.8591)" fill="#EBEBEB"/>
<ellipse cx="157.614" cy="30.6033" rx="3.09136" ry="3.09136" transform="rotate(45 157.614 30.6033)" fill="#EBEBEB"/>
<circle cx="148.87" cy="39.3465" r="3.09136" transform="rotate(45 148.87 39.3465)" fill="#EBEBEB"/>
<ellipse cx="140.126" cy="48.0906" rx="3.09136" ry="3.09135" transform="rotate(45 140.126 48.0906)" fill="#EBEBEB"/>
<ellipse cx="131.383" cy="56.8338" rx="3.09136" ry="3.09135" transform="rotate(45 131.383 56.8338)" fill="#EBEBEB"/>
<ellipse cx="175.101" cy="30.6033" rx="3.09136" ry="3.09136" transform="rotate(45 175.101 30.6033)" fill="#EBEBEB"/>
<ellipse cx="166.357" cy="39.3465" rx="3.09136" ry="3.09136" transform="rotate(45 166.357 39.3465)" fill="#EBEBEB"/>
<ellipse cx="157.614" cy="48.0906" rx="3.09135" ry="3.09136" transform="rotate(45 157.614 48.0906)" fill="#EBEBEB"/>
<circle cx="148.87" cy="56.8337" r="3.09135" transform="rotate(45 148.87 56.8337)" fill="#EBEBEB"/>
<circle cx="140.126" cy="65.5779" r="3.09136" transform="rotate(45 140.126 65.5779)" fill="#EBEBEB"/>
<ellipse cx="183.845" cy="39.3464" rx="3.09135" ry="3.09136" transform="rotate(45 183.845 39.3464)" fill="#EBEBEB"/>
<ellipse cx="175.101" cy="48.0906" rx="3.09136" ry="3.09136" transform="rotate(45 175.101 48.0906)" fill="#EBEBEB"/>
<ellipse cx="166.357" cy="56.8338" rx="3.09135" ry="3.09136" transform="rotate(45 166.357 56.8338)" fill="#EBEBEB"/>
<circle cx="157.614" cy="65.5779" r="3.09136" transform="rotate(45 157.614 65.5779)" fill="#EBEBEB"/>
<circle cx="148.87" cy="74.3211" r="3.09136" transform="rotate(45 148.87 74.3211)" fill="#EBEBEB"/>
</g>
<g opacity="0.56">
<circle cx="227.223" cy="86.1878" r="5.54037" transform="rotate(45 227.223 86.1878)" fill="#EBEBEB"/>
<ellipse cx="211.552" cy="101.859" rx="5.54037" ry="5.54037" transform="rotate(45 211.552 101.859)" fill="#EBEBEB"/>
<ellipse cx="195.881" cy="117.529" rx="5.54037" ry="5.54037" transform="rotate(45 195.881 117.529)" fill="#EBEBEB"/>
<ellipse cx="180.211" cy="133.2" rx="5.54037" ry="5.54037" transform="rotate(45 180.211 133.2)" fill="#EBEBEB"/>
<ellipse cx="164.541" cy="148.869" rx="5.54037" ry="5.54037" transform="rotate(45 164.541 148.869)" fill="#EBEBEB"/>
<ellipse cx="242.893" cy="101.859" rx="5.54037" ry="5.54037" transform="rotate(45 242.893 101.859)" fill="#EBEBEB"/>
<circle cx="227.223" cy="117.529" r="5.54037" transform="rotate(45 227.223 117.529)" fill="#EBEBEB"/>
<ellipse cx="211.552" cy="133.2" rx="5.54037" ry="5.54037" transform="rotate(45 211.552 133.2)" fill="#EBEBEB"/>
<ellipse cx="195.881" cy="148.869" rx="5.54037" ry="5.54037" transform="rotate(45 195.881 148.869)" fill="#EBEBEB"/>
<ellipse cx="180.211" cy="164.54" rx="5.54037" ry="5.54037" transform="rotate(45 180.211 164.54)" fill="#EBEBEB"/>
<ellipse cx="258.564" cy="117.529" rx="5.54037" ry="5.54037" transform="rotate(45 258.564 117.529)" fill="#EBEBEB"/>
<ellipse cx="242.893" cy="133.2" rx="5.54037" ry="5.54037" transform="rotate(45 242.893 133.2)" fill="#EBEBEB"/>
<circle cx="227.223" cy="148.869" r="5.54037" transform="rotate(45 227.223 148.869)" fill="#EBEBEB"/>
<ellipse cx="211.552" cy="164.54" rx="5.54037" ry="5.54036" transform="rotate(45 211.552 164.54)" fill="#EBEBEB"/>
<ellipse cx="195.881" cy="180.211" rx="5.54037" ry="5.54037" transform="rotate(45 195.881 180.211)" fill="#EBEBEB"/>
<ellipse cx="274.234" cy="133.2" rx="5.54037" ry="5.54037" transform="rotate(45 274.234 133.2)" fill="#EBEBEB"/>
<ellipse cx="258.564" cy="148.869" rx="5.54037" ry="5.54037" transform="rotate(45 258.564 148.869)" fill="#EBEBEB"/>
<ellipse cx="242.893" cy="164.54" rx="5.54036" ry="5.54037" transform="rotate(45 242.893 164.54)" fill="#EBEBEB"/>
<circle cx="227.223" cy="180.211" r="5.54036" transform="rotate(45 227.223 180.211)" fill="#EBEBEB"/>
<circle cx="211.552" cy="195.881" r="5.54037" transform="rotate(45 211.552 195.881)" fill="#EBEBEB"/>
<ellipse cx="289.905" cy="148.869" rx="5.54037" ry="5.54037" transform="rotate(45 289.905 148.869)" fill="#EBEBEB"/>
<ellipse cx="274.234" cy="164.54" rx="5.54037" ry="5.54037" transform="rotate(45 274.234 164.54)" fill="#EBEBEB"/>
<ellipse cx="258.564" cy="180.211" rx="5.54037" ry="5.54037" transform="rotate(45 258.564 180.211)" fill="#EBEBEB"/>
<circle cx="242.893" cy="195.881" r="5.54037" transform="rotate(45 242.893 195.881)" fill="#EBEBEB"/>
<circle cx="227.223" cy="211.552" r="5.54038" transform="rotate(45 227.223 211.552)" fill="#EBEBEB"/>
</g>
<g opacity="0.56">
<circle cx="148.87" cy="164.54" r="5.54037" transform="rotate(45 148.87 164.54)" fill="#EBEBEB"/>
<ellipse cx="133.2" cy="180.211" rx="5.54037" ry="5.54037" transform="rotate(45 133.2 180.211)" fill="#EBEBEB"/>
<ellipse cx="117.529" cy="195.881" rx="5.54037" ry="5.54037" transform="rotate(45 117.529 195.881)" fill="#EBEBEB"/>
<ellipse cx="101.858" cy="211.552" rx="5.54037" ry="5.54037" transform="rotate(45 101.858 211.552)" fill="#EBEBEB"/>
<ellipse cx="86.188" cy="227.222" rx="5.54037" ry="5.54037" transform="rotate(45 86.188 227.222)" fill="#EBEBEB"/>
<ellipse cx="164.541" cy="180.211" rx="5.54037" ry="5.54037" transform="rotate(45 164.541 180.211)" fill="#EBEBEB"/>
<circle cx="148.87" cy="195.881" r="5.54037" transform="rotate(45 148.87 195.881)" fill="#EBEBEB"/>
<ellipse cx="133.2" cy="211.552" rx="5.54037" ry="5.54037" transform="rotate(45 133.2 211.552)" fill="#EBEBEB"/>
<ellipse cx="117.529" cy="227.222" rx="5.54037" ry="5.54037" transform="rotate(45 117.529 227.222)" fill="#EBEBEB"/>
<ellipse cx="101.858" cy="242.893" rx="5.54037" ry="5.54037" transform="rotate(45 101.858 242.893)" fill="#EBEBEB"/>
<ellipse cx="180.211" cy="195.881" rx="5.54037" ry="5.54037" transform="rotate(45 180.211 195.881)" fill="#EBEBEB"/>
<ellipse cx="164.541" cy="211.552" rx="5.54037" ry="5.54037" transform="rotate(45 164.541 211.552)" fill="#EBEBEB"/>
<circle cx="148.87" cy="227.222" r="5.54037" transform="rotate(45 148.87 227.222)" fill="#EBEBEB"/>
<ellipse cx="133.2" cy="242.893" rx="5.54037" ry="5.54036" transform="rotate(45 133.2 242.893)" fill="#EBEBEB"/>
<ellipse cx="117.529" cy="258.564" rx="5.54037" ry="5.54037" transform="rotate(45 117.529 258.564)" fill="#EBEBEB"/>
<ellipse cx="195.882" cy="211.552" rx="5.54037" ry="5.54037" transform="rotate(45 195.882 211.552)" fill="#EBEBEB"/>
<ellipse cx="180.211" cy="227.222" rx="5.54037" ry="5.54037" transform="rotate(45 180.211 227.222)" fill="#EBEBEB"/>
<ellipse cx="164.541" cy="242.893" rx="5.54036" ry="5.54037" transform="rotate(45 164.541 242.893)" fill="#EBEBEB"/>
<circle cx="148.87" cy="258.564" r="5.54036" transform="rotate(45 148.87 258.564)" fill="#EBEBEB"/>
<circle cx="133.2" cy="274.234" r="5.54037" transform="rotate(45 133.2 274.234)" fill="#EBEBEB"/>
<ellipse cx="211.552" cy="227.222" rx="5.54037" ry="5.54037" transform="rotate(45 211.552 227.222)" fill="#EBEBEB"/>
<ellipse cx="195.882" cy="242.893" rx="5.54037" ry="5.54037" transform="rotate(45 195.882 242.893)" fill="#EBEBEB"/>
<ellipse cx="180.211" cy="258.564" rx="5.54037" ry="5.54037" transform="rotate(45 180.211 258.564)" fill="#EBEBEB"/>
<circle cx="164.541" cy="274.234" r="5.54037" transform="rotate(45 164.541 274.234)" fill="#EBEBEB"/>
<circle cx="148.87" cy="289.905" r="5.54038" transform="rotate(45 148.87 289.905)" fill="#EBEBEB"/>
</g>
<g opacity="0.56">
<circle cx="70.5176" cy="86.1878" r="5.54037" transform="rotate(45 70.5176 86.1878)" fill="#EBEBEB"/>
<ellipse cx="54.8472" cy="101.859" rx="5.54037" ry="5.54037" transform="rotate(45 54.8472 101.859)" fill="#EBEBEB"/>
<ellipse cx="39.1763" cy="117.529" rx="5.54037" ry="5.54037" transform="rotate(45 39.1763 117.529)" fill="#EBEBEB"/>
<ellipse cx="23.5059" cy="133.2" rx="5.54037" ry="5.54037" transform="rotate(45 23.5059 133.2)" fill="#EBEBEB"/>
<ellipse cx="7.83545" cy="148.869" rx="5.54037" ry="5.54037" transform="rotate(45 7.83545 148.869)" fill="#EBEBEB"/>
<ellipse cx="86.188" cy="101.859" rx="5.54037" ry="5.54037" transform="rotate(45 86.188 101.859)" fill="#EBEBEB"/>
<circle cx="70.5176" cy="117.529" r="5.54037" transform="rotate(45 70.5176 117.529)" fill="#EBEBEB"/>
<ellipse cx="54.8472" cy="133.2" rx="5.54037" ry="5.54037" transform="rotate(45 54.8472 133.2)" fill="#EBEBEB"/>
<ellipse cx="39.1763" cy="148.869" rx="5.54037" ry="5.54037" transform="rotate(45 39.1763 148.869)" fill="#EBEBEB"/>
<ellipse cx="23.5059" cy="164.54" rx="5.54037" ry="5.54037" transform="rotate(45 23.5059 164.54)" fill="#EBEBEB"/>
<ellipse cx="101.859" cy="117.529" rx="5.54037" ry="5.54037" transform="rotate(45 101.859 117.529)" fill="#EBEBEB"/>
<ellipse cx="86.188" cy="133.2" rx="5.54037" ry="5.54037" transform="rotate(45 86.188 133.2)" fill="#EBEBEB"/>
<circle cx="70.5176" cy="148.869" r="5.54037" transform="rotate(45 70.5176 148.869)" fill="#EBEBEB"/>
<ellipse cx="54.8472" cy="164.54" rx="5.54037" ry="5.54036" transform="rotate(45 54.8472 164.54)" fill="#EBEBEB"/>
<ellipse cx="39.1763" cy="180.211" rx="5.54037" ry="5.54037" transform="rotate(45 39.1763 180.211)" fill="#EBEBEB"/>
<ellipse cx="117.529" cy="133.2" rx="5.54037" ry="5.54037" transform="rotate(45 117.529 133.2)" fill="#EBEBEB"/>
<ellipse cx="101.859" cy="148.869" rx="5.54037" ry="5.54037" transform="rotate(45 101.859 148.869)" fill="#EBEBEB"/>
<ellipse cx="86.188" cy="164.54" rx="5.54036" ry="5.54037" transform="rotate(45 86.188 164.54)" fill="#EBEBEB"/>
<circle cx="70.5176" cy="180.211" r="5.54036" transform="rotate(45 70.5176 180.211)" fill="#EBEBEB"/>
<circle cx="54.8472" cy="195.881" r="5.54037" transform="rotate(45 54.8472 195.881)" fill="#EBEBEB"/>
<ellipse cx="133.2" cy="148.869" rx="5.54037" ry="5.54037" transform="rotate(45 133.2 148.869)" fill="#EBEBEB"/>
<ellipse cx="117.529" cy="164.54" rx="5.54037" ry="5.54037" transform="rotate(45 117.529 164.54)" fill="#EBEBEB"/>
<ellipse cx="101.859" cy="180.211" rx="5.54037" ry="5.54037" transform="rotate(45 101.859 180.211)" fill="#EBEBEB"/>
<circle cx="86.188" cy="195.881" r="5.54037" transform="rotate(45 86.188 195.881)" fill="#EBEBEB"/>
<circle cx="70.5176" cy="211.552" r="5.54038" transform="rotate(45 70.5176 211.552)" fill="#EBEBEB"/>
</g>
</g>
</svg>
