<svg width="134" height="134" viewBox="0 0 134 134" fill="none" xmlns="http://www.w3.org/2000/svg">
<g opacity="0.56">
<circle cx="3.51451" cy="3.51451" r="3.51451" fill="#4EAC93"/>
<ellipse cx="3.51451" cy="17.5726" rx="3.51451" ry="3.51451" fill="#4EAC93"/>
<ellipse cx="3.51451" cy="31.6307" rx="3.51451" ry="3.51451" fill="#4EAC93"/>
<ellipse cx="3.51451" cy="45.6883" rx="3.51451" ry="3.51451" fill="#4EAC93"/>
<ellipse cx="3.51451" cy="59.7464" rx="3.51451" ry="3.51451" fill="#4EAC93"/>
<ellipse cx="17.5726" cy="3.51451" rx="3.51451" ry="3.51451" fill="#4EAC93"/>
<circle cx="17.5726" cy="17.5726" r="3.51451" fill="#4EAC93"/>
<ellipse cx="17.5726" cy="31.6307" rx="3.51451" ry="3.51451" fill="#4EAC93"/>
<ellipse cx="17.5726" cy="45.6888" rx="3.51451" ry="3.51451" fill="#4EAC93"/>
<ellipse cx="17.5726" cy="59.7464" rx="3.51451" ry="3.51451" fill="#4EAC93"/>
<ellipse cx="31.6307" cy="3.51451" rx="3.51451" ry="3.51451" fill="#4EAC93"/>
<ellipse cx="31.6307" cy="17.5726" rx="3.51451" ry="3.51451" fill="#4EAC93"/>
<circle cx="31.6307" cy="31.6307" r="3.51451" fill="#4EAC93"/>
<ellipse cx="31.6307" cy="45.6888" rx="3.51451" ry="3.51451" fill="#4EAC93"/>
<ellipse cx="31.6307" cy="59.7464" rx="3.51451" ry="3.51451" fill="#4EAC93"/>
<ellipse cx="45.6888" cy="3.51451" rx="3.51451" ry="3.51451" fill="#4EAC93"/>
<ellipse cx="45.6888" cy="17.5726" rx="3.51451" ry="3.51451" fill="#4EAC93"/>
<ellipse cx="45.6888" cy="31.6307" rx="3.51451" ry="3.51451" fill="#4EAC93"/>
<circle cx="45.6888" cy="45.6888" r="3.51451" fill="#4EAC93"/>
<ellipse cx="45.6888" cy="59.7464" rx="3.51451" ry="3.51451" fill="#4EAC93"/>
<ellipse cx="59.7464" cy="3.51451" rx="3.51451" ry="3.51451" fill="#4EAC93"/>
<ellipse cx="59.7464" cy="17.5726" rx="3.51451" ry="3.51451" fill="#4EAC93"/>
<ellipse cx="59.7464" cy="31.6307" rx="3.51451" ry="3.51451" fill="#4EAC93"/>
<ellipse cx="59.7464" cy="45.6888" rx="3.51451" ry="3.51451" fill="#4EAC93"/>
<circle cx="59.7464" cy="59.7464" r="3.51451" fill="#4EAC93"/>
</g>
<g opacity="0.56">
<circle cx="73.8046" cy="3.51451" r="3.51451" fill="#4EAC93"/>
<ellipse cx="73.8046" cy="17.5726" rx="3.51451" ry="3.51451" fill="#4EAC93"/>
<ellipse cx="73.8046" cy="31.6307" rx="3.51451" ry="3.51451" fill="#4EAC93"/>
<ellipse cx="73.8046" cy="45.6883" rx="3.51451" ry="3.51451" fill="#4EAC93"/>
<ellipse cx="73.8046" cy="59.7464" rx="3.51451" ry="3.51451" fill="#4EAC93"/>
<ellipse cx="87.8627" cy="3.51451" rx="3.51451" ry="3.51451" fill="#4EAC93"/>
<circle cx="87.8627" cy="17.5726" r="3.51451" fill="#4EAC93"/>
<ellipse cx="87.8626" cy="31.6307" rx="3.51451" ry="3.51451" fill="#4EAC93"/>
<ellipse cx="87.8626" cy="45.6888" rx="3.51451" ry="3.51451" fill="#4EAC93"/>
<ellipse cx="87.8627" cy="59.7464" rx="3.51451" ry="3.51451" fill="#4EAC93"/>
<ellipse cx="101.921" cy="3.51451" rx="3.51451" ry="3.51451" fill="#4EAC93"/>
<ellipse cx="101.921" cy="17.5726" rx="3.51451" ry="3.51451" fill="#4EAC93"/>
<circle cx="101.921" cy="31.6307" r="3.51451" fill="#4EAC93"/>
<ellipse cx="101.921" cy="45.6888" rx="3.51451" ry="3.51451" fill="#4EAC93"/>
<ellipse cx="101.921" cy="59.7464" rx="3.51451" ry="3.51451" fill="#4EAC93"/>
<ellipse cx="115.979" cy="3.51451" rx="3.51451" ry="3.51451" fill="#4EAC93"/>
<ellipse cx="115.979" cy="17.5726" rx="3.51451" ry="3.51451" fill="#4EAC93"/>
<ellipse cx="115.979" cy="31.6307" rx="3.51451" ry="3.51451" fill="#4EAC93"/>
<circle cx="115.979" cy="45.6888" r="3.51451" fill="#4EAC93"/>
<ellipse cx="115.979" cy="59.7464" rx="3.51451" ry="3.51451" fill="#4EAC93"/>
<ellipse cx="130.036" cy="3.51451" rx="3.51451" ry="3.51451" fill="#4EAC93"/>
<ellipse cx="130.036" cy="17.5726" rx="3.51451" ry="3.51451" fill="#4EAC93"/>
<ellipse cx="130.036" cy="31.6307" rx="3.51451" ry="3.51451" fill="#4EAC93"/>
<ellipse cx="130.036" cy="45.6888" rx="3.51451" ry="3.51451" fill="#4EAC93"/>
<circle cx="130.036" cy="59.7464" r="3.51451" fill="#4EAC93"/>
</g>
<g opacity="0.56">
<circle cx="73.8046" cy="73.8046" r="3.51451" fill="#4EAC93"/>
<ellipse cx="73.8046" cy="87.8627" rx="3.51451" ry="3.51451" fill="#4EAC93"/>
<ellipse cx="73.8046" cy="101.921" rx="3.51451" ry="3.51451" fill="#4EAC93"/>
<ellipse cx="73.8046" cy="115.979" rx="3.51451" ry="3.51451" fill="#4EAC93"/>
<ellipse cx="73.8046" cy="130.037" rx="3.51451" ry="3.51451" fill="#4EAC93"/>
<ellipse cx="87.8627" cy="73.8046" rx="3.51451" ry="3.51451" fill="#4EAC93"/>
<circle cx="87.8627" cy="87.8627" r="3.51451" fill="#4EAC93"/>
<ellipse cx="87.8626" cy="101.921" rx="3.51451" ry="3.51451" fill="#4EAC93"/>
<ellipse cx="87.8626" cy="115.979" rx="3.51451" ry="3.51451" fill="#4EAC93"/>
<ellipse cx="87.8627" cy="130.037" rx="3.51451" ry="3.51451" fill="#4EAC93"/>
<ellipse cx="101.921" cy="73.8046" rx="3.51451" ry="3.51451" fill="#4EAC93"/>
<ellipse cx="101.921" cy="87.8626" rx="3.51451" ry="3.51451" fill="#4EAC93"/>
<circle cx="101.921" cy="101.921" r="3.51451" fill="#4EAC93"/>
<ellipse cx="101.921" cy="115.979" rx="3.51451" ry="3.51451" fill="#4EAC93"/>
<ellipse cx="101.921" cy="130.037" rx="3.51451" ry="3.51451" fill="#4EAC93"/>
<ellipse cx="115.979" cy="73.8046" rx="3.51451" ry="3.51451" fill="#4EAC93"/>
<ellipse cx="115.979" cy="87.8626" rx="3.51451" ry="3.51451" fill="#4EAC93"/>
<ellipse cx="115.979" cy="101.921" rx="3.51451" ry="3.51451" fill="#4EAC93"/>
<circle cx="115.979" cy="115.979" r="3.51451" fill="#4EAC93"/>
<ellipse cx="115.979" cy="130.037" rx="3.51451" ry="3.51451" fill="#4EAC93"/>
<ellipse cx="130.036" cy="73.8046" rx="3.51451" ry="3.51451" fill="#4EAC93"/>
<ellipse cx="130.036" cy="87.8626" rx="3.51451" ry="3.51451" fill="#4EAC93"/>
<ellipse cx="130.036" cy="101.921" rx="3.51451" ry="3.51451" fill="#4EAC93"/>
<ellipse cx="130.036" cy="115.979" rx="3.51451" ry="3.51451" fill="#4EAC93"/>
<circle cx="130.036" cy="130.037" r="3.51451" fill="#4EAC93"/>
</g>
<g opacity="0.56">
<circle cx="3.51451" cy="73.8046" r="3.51451" fill="#4EAC93"/>
<ellipse cx="3.51451" cy="87.8627" rx="3.51451" ry="3.51451" fill="#4EAC93"/>
<ellipse cx="3.51451" cy="101.921" rx="3.51451" ry="3.51451" fill="#4EAC93"/>
<ellipse cx="3.51451" cy="115.979" rx="3.51451" ry="3.51451" fill="#4EAC93"/>
<ellipse cx="3.51451" cy="130.037" rx="3.51451" ry="3.51451" fill="#4EAC93"/>
<ellipse cx="17.5726" cy="73.8046" rx="3.51451" ry="3.51451" fill="#4EAC93"/>
<circle cx="17.5726" cy="87.8627" r="3.51451" fill="#4EAC93"/>
<ellipse cx="17.5726" cy="101.921" rx="3.51451" ry="3.51451" fill="#4EAC93"/>
<ellipse cx="17.5726" cy="115.979" rx="3.51451" ry="3.51451" fill="#4EAC93"/>
<ellipse cx="17.5726" cy="130.037" rx="3.51451" ry="3.51451" fill="#4EAC93"/>
<ellipse cx="31.6307" cy="73.8046" rx="3.51451" ry="3.51451" fill="#4EAC93"/>
<ellipse cx="31.6307" cy="87.8626" rx="3.51451" ry="3.51451" fill="#4EAC93"/>
<circle cx="31.6307" cy="101.921" r="3.51451" fill="#4EAC93"/>
<ellipse cx="31.6307" cy="115.979" rx="3.51451" ry="3.51451" fill="#4EAC93"/>
<ellipse cx="31.6307" cy="130.037" rx="3.51451" ry="3.51451" fill="#4EAC93"/>
<ellipse cx="45.6888" cy="73.8046" rx="3.51451" ry="3.51451" fill="#4EAC93"/>
<ellipse cx="45.6888" cy="87.8626" rx="3.51451" ry="3.51451" fill="#4EAC93"/>
<ellipse cx="45.6888" cy="101.921" rx="3.51451" ry="3.51451" fill="#4EAC93"/>
<circle cx="45.6888" cy="115.979" r="3.51451" fill="#4EAC93"/>
<ellipse cx="45.6888" cy="130.037" rx="3.51451" ry="3.51451" fill="#4EAC93"/>
<ellipse cx="59.7464" cy="73.8046" rx="3.51451" ry="3.51451" fill="#4EAC93"/>
<ellipse cx="59.7464" cy="87.8626" rx="3.51451" ry="3.51451" fill="#4EAC93"/>
<ellipse cx="59.7464" cy="101.921" rx="3.51451" ry="3.51451" fill="#4EAC93"/>
<ellipse cx="59.7464" cy="115.979" rx="3.51451" ry="3.51451" fill="#4EAC93"/>
<circle cx="59.7464" cy="130.037" r="3.51451" fill="#4EAC93"/>
</g>
</svg>
