<svg width="208" height="48" viewBox="0 0 208 48" fill="none" xmlns="http://www.w3.org/2000/svg">
<g filter="url(#filter0_d)">
<circle cx="36.3078" cy="10.7692" r="10.7692" fill="white"/>
<circle cx="36.3078" cy="10.7697" r="4.61538" fill="#5EB39D"/>
<circle cx="14.7692" cy="10.7692" r="10.7692" fill="white"/>
<circle cx="25.5385" cy="29.2311" r="10.7692" fill="white"/>
<circle cx="14.7692" cy="10.7697" r="4.61538" fill="#5EB39D"/>
<circle cx="25.5385" cy="29.2306" r="4.61538" fill="#4EAC93"/>
</g>
<rect x="17.8462" y="9.23047" width="15.3846" height="3.07692" fill="#5EB39D"/>
<rect x="25.5386" y="25.6309" width="15.3846" height="3.07692" transform="rotate(-60 25.5386 25.6309)" fill="#5EB39D"/>
<rect x="22.4614" y="27.1699" width="15.3846" height="3.07692" transform="rotate(-120 22.4614 27.1699)" fill="#5EB39D"/>
<path d="M70.224 9.328H64.44C64.12 9.328 63.864 9.408 63.672 9.568C63.496 9.728 63.408 9.936 63.408 10.192V12.136H69.336V15.592H63.408V22H58.2V9.112C58.2 7.992 58.568 7.088 59.304 6.4C60.04 5.696 60.984 5.344 62.136 5.344C66.168 5.344 68.944 5.456 70.464 5.68L70.224 9.328ZM73.3493 4.504H75.4853C76.4613 4.504 76.9492 5 76.9492 5.992V7.216C76.9492 8.208 76.4613 8.704 75.4853 8.704H73.3493C72.3733 8.704 71.8853 8.208 71.8853 7.216V5.992C71.8853 5 72.3733 4.504 73.3493 4.504ZM76.9253 22H71.9093V10H76.9253V22ZM83.0389 10L83.4949 11.776C85.0149 10.368 86.6629 9.664 88.4389 9.664C90.8069 9.664 91.9909 10.784 91.9909 13.024V22H86.9509V14.632C86.9509 14.376 86.8869 14.192 86.7589 14.08C86.6309 13.968 86.4069 13.912 86.0869 13.912C85.4149 13.912 84.7589 14.008 84.1189 14.2V22H79.0789V10H83.0389ZM94.5611 13.456L94.1051 10.264C96.2811 9.864 98.5611 9.664 100.945 9.664C102.721 9.664 104.041 10.032 104.905 10.768C105.769 11.504 106.201 12.768 106.201 14.56V22H102.193L101.737 20.32C100.681 21.664 99.2971 22.336 97.5851 22.336C96.4011 22.336 95.4171 22.04 94.6331 21.448C93.8491 20.856 93.4571 20.016 93.4571 18.928V17.728C93.4571 16.768 93.8091 16.016 94.5131 15.472C95.2171 14.912 96.1851 14.632 97.4171 14.632H101.161V14.536C101.145 14.104 101.033 13.8 100.825 13.624C100.617 13.432 100.257 13.336 99.7451 13.336C97.9851 13.336 96.2571 13.376 94.5611 13.456ZM98.3531 17.8V18.184C98.3531 18.68 98.6891 18.928 99.3611 18.928C99.8891 18.928 100.489 18.728 101.161 18.328V17.056H99.2651C98.6571 17.056 98.3531 17.304 98.3531 17.8ZM112.101 10L112.557 11.776C114.077 10.368 115.725 9.664 117.501 9.664C119.869 9.664 121.053 10.784 121.053 13.024V22H116.013V14.632C116.013 14.376 115.949 14.192 115.821 14.08C115.693 13.968 115.469 13.912 115.149 13.912C114.477 13.912 113.821 14.008 113.181 14.2V22H108.141V10H112.101ZM133.8 18.136L134.256 21.28C132.976 21.952 131.232 22.288 129.024 22.288C126.672 22.288 125.016 21.816 124.056 20.872C123.112 19.928 122.64 18.296 122.64 15.976C122.64 13.656 123.12 12.024 124.08 11.08C125.04 10.136 126.704 9.664 129.072 9.664C131.184 9.664 132.856 9.96 134.088 10.552L133.584 13.672H129.936C129.152 13.672 128.616 13.832 128.328 14.152C128.056 14.456 127.92 15.064 127.92 15.976C127.92 16.904 128.056 17.528 128.328 17.848C128.616 18.152 129.152 18.304 129.936 18.304C131.504 18.304 132.792 18.248 133.8 18.136ZM143.578 17.104H140.578C140.674 17.6 140.866 17.944 141.154 18.136C141.458 18.328 141.93 18.424 142.57 18.424C144.138 18.424 145.762 18.336 147.442 18.16L147.898 21.184C146.442 21.92 144.482 22.288 142.018 22.288C139.57 22.288 137.818 21.784 136.762 20.776C135.706 19.752 135.178 18.192 135.178 16.096C135.178 13.744 135.69 12.088 136.714 11.128C137.738 10.152 139.498 9.664 141.994 9.664C144.202 9.664 145.786 10.016 146.746 10.72C147.722 11.424 148.218 12.496 148.234 13.936C148.25 15.072 147.906 15.888 147.202 16.384C146.514 16.864 145.306 17.104 143.578 17.104ZM140.482 14.728H142.162C142.706 14.728 143.05 14.68 143.194 14.584C143.338 14.472 143.41 14.216 143.41 13.816C143.41 13.448 143.314 13.208 143.122 13.096C142.946 12.968 142.618 12.904 142.138 12.904C141.498 12.888 141.066 12.992 140.842 13.216C140.634 13.44 140.514 13.944 140.482 14.728ZM149.982 22V5.44C152.798 5.28 155.158 5.2 157.062 5.2C159.03 5.2 160.55 5.448 161.622 5.944C162.71 6.424 163.51 7.28 164.022 8.512C164.534 9.728 164.79 11.464 164.79 13.72C164.79 15.976 164.534 17.72 164.022 18.952C163.51 20.168 162.71 21.024 161.622 21.52C160.55 22 159.03 22.24 157.062 22.24C154.662 22.24 152.302 22.16 149.982 22ZM155.19 18.448L157.062 18.472C157.958 18.472 158.55 18.16 158.838 17.536C159.142 16.896 159.294 15.624 159.294 13.72C159.294 11.816 159.142 10.552 158.838 9.928C158.55 9.288 157.958 8.968 157.062 8.968H155.19V18.448ZM167.171 13.456L166.715 10.264C168.891 9.864 171.171 9.664 173.555 9.664C175.331 9.664 176.651 10.032 177.515 10.768C178.379 11.504 178.811 12.768 178.811 14.56V22H174.803L174.347 20.32C173.291 21.664 171.907 22.336 170.195 22.336C169.011 22.336 168.027 22.04 167.243 21.448C166.459 20.856 166.067 20.016 166.067 18.928V17.728C166.067 16.768 166.419 16.016 167.123 15.472C167.827 14.912 168.795 14.632 170.027 14.632H173.771V14.536C173.755 14.104 173.643 13.8 173.435 13.624C173.227 13.432 172.867 13.336 172.355 13.336C170.595 13.336 168.867 13.376 167.171 13.456ZM170.963 17.8V18.184C170.963 18.68 171.299 18.928 171.971 18.928C172.499 18.928 173.099 18.728 173.771 18.328V17.056H171.875C171.267 17.056 170.963 17.304 170.963 17.8ZM194.027 10L190.211 21.664C190.067 22.144 189.891 22.6 189.683 23.032C189.475 23.464 189.203 23.912 188.867 24.376C188.547 24.856 188.179 25.256 187.763 25.576C187.363 25.912 186.883 26.208 186.323 26.464C185.763 26.736 185.147 26.88 184.475 26.896C183.803 26.928 183.051 26.872 182.219 26.728L181.883 24.016C182.827 23.824 183.571 23.576 184.115 23.272C184.659 22.968 185.091 22.544 185.411 22H184.595C183.779 22 183.251 21.608 183.011 20.824L179.459 10H184.811L186.227 16.624C186.291 17.056 186.395 17.808 186.539 18.88H186.755C186.867 18.496 187.035 17.744 187.259 16.624L188.675 10H194.027ZM200.165 17.824L197.525 17.104C196.293 16.752 195.461 16.264 195.029 15.64C194.597 15.016 194.381 14.192 194.381 13.168C194.381 12.016 194.805 11.144 195.653 10.552C196.501 9.96 197.933 9.664 199.949 9.664C202.333 9.664 204.381 9.84 206.093 10.192L205.781 13.12H201.053C200.189 13.12 199.669 13.136 199.493 13.168C199.333 13.184 199.253 13.264 199.253 13.408C199.253 13.552 199.525 13.688 200.069 13.816C200.309 13.88 200.509 13.936 200.669 13.984L203.429 14.68C204.533 14.984 205.333 15.416 205.829 15.976C206.341 16.52 206.597 17.296 206.597 18.304C206.597 19.808 206.157 20.848 205.277 21.424C204.413 21.984 202.917 22.264 200.789 22.264C198.581 22.264 196.501 22.096 194.549 21.76L194.861 18.832H199.133C200.317 18.832 201.045 18.816 201.317 18.784C201.589 18.752 201.725 18.648 201.725 18.472C201.725 18.44 201.717 18.416 201.701 18.4C201.701 18.368 201.685 18.344 201.653 18.328C201.637 18.296 201.613 18.272 201.581 18.256C201.565 18.24 201.533 18.224 201.485 18.208C201.437 18.176 201.381 18.16 201.317 18.16C201.269 18.144 201.197 18.12 201.101 18.088C201.021 18.056 200.941 18.032 200.861 18.016C200.781 18 200.677 17.976 200.549 17.944C200.421 17.896 200.293 17.856 200.165 17.824Z" fill="#FDFAF2"/>
<path d="M57.57 34.37L57.51 33.22C58.2833 33.06 59.0567 32.98 59.83 32.98C60.6033 32.98 61.18 33.0933 61.56 33.32C61.9467 33.5467 62.14 33.9667 62.14 34.58C62.14 34.9933 62.0633 35.36 61.91 35.68C61.7633 35.9933 61.4667 36.3867 61.02 36.86L59.25 38.7C59.5033 38.6533 59.8433 38.63 60.27 38.63H62.34V40H57.45V39.15C57.45 38.89 57.5233 38.6833 57.67 38.53L59.36 36.71C60.1867 35.85 60.5967 35.1933 60.59 34.74C60.5833 34.5467 60.51 34.4233 60.37 34.37C60.23 34.31 59.99 34.28 59.65 34.28C58.9433 34.28 58.25 34.31 57.57 34.37ZM65.9213 32.97C66.9079 32.97 67.5979 33.2367 67.9913 33.77C68.3846 34.3033 68.5813 35.23 68.5813 36.55C68.5813 37.87 68.3846 38.7967 67.9913 39.33C67.5979 39.8633 66.9079 40.13 65.9213 40.13C64.9413 40.13 64.2546 39.8633 63.8613 39.33C63.4679 38.7967 63.2713 37.87 63.2713 36.55C63.2713 35.23 63.4679 34.3033 63.8613 33.77C64.2546 33.2367 64.9413 32.97 65.9213 32.97ZM65.9113 34.18C65.4646 34.18 65.1613 34.3433 65.0013 34.67C64.8479 34.99 64.7713 35.6167 64.7713 36.55C64.7713 37.4833 64.8479 38.1133 65.0013 38.44C65.1613 38.76 65.4646 38.92 65.9113 38.92C66.3713 38.92 66.6813 38.76 66.8413 38.44C67.0013 38.1133 67.0813 37.4833 67.0813 36.55C67.0813 35.6167 67.0013 34.99 66.8413 34.67C66.6813 34.3433 66.3713 34.18 65.9113 34.18ZM69.6403 34.37L69.5803 33.22C70.3536 33.06 71.127 32.98 71.9003 32.98C72.6736 32.98 73.2503 33.0933 73.6303 33.32C74.017 33.5467 74.2103 33.9667 74.2103 34.58C74.2103 34.9933 74.1336 35.36 73.9803 35.68C73.8336 35.9933 73.537 36.3867 73.0903 36.86L71.3203 38.7C71.5736 38.6533 71.9136 38.63 72.3403 38.63H74.4103V40H69.5203V39.15C69.5203 38.89 69.5936 38.6833 69.7403 38.53L71.4303 36.71C72.257 35.85 72.667 35.1933 72.6603 34.74C72.6536 34.5467 72.5803 34.4233 72.4403 34.37C72.3003 34.31 72.0603 34.28 71.7203 34.28C71.0136 34.28 70.3203 34.31 69.6403 34.37ZM77.9916 32.97C78.9782 32.97 79.6682 33.2367 80.0616 33.77C80.4549 34.3033 80.6516 35.23 80.6516 36.55C80.6516 37.87 80.4549 38.7967 80.0616 39.33C79.6682 39.8633 78.9782 40.13 77.9916 40.13C77.0116 40.13 76.3249 39.8633 75.9316 39.33C75.5382 38.7967 75.3416 37.87 75.3416 36.55C75.3416 35.23 75.5382 34.3033 75.9316 33.77C76.3249 33.2367 77.0116 32.97 77.9916 32.97ZM77.9816 34.18C77.5349 34.18 77.2316 34.3433 77.0716 34.67C76.9182 34.99 76.8416 35.6167 76.8416 36.55C76.8416 37.4833 76.9182 38.1133 77.0716 38.44C77.2316 38.76 77.5349 38.92 77.9816 38.92C78.4416 38.92 78.7516 38.76 78.9116 38.44C79.0716 38.1133 79.1516 37.4833 79.1516 36.55C79.1516 35.6167 79.0716 34.99 78.9116 34.67C78.7516 34.3433 78.4416 34.18 77.9816 34.18Z" fill="#FDFAF2"/>
<defs>
<filter id="filter0_d" x="0" y="0" width="51.077" height="48.0004" filterUnits="userSpaceOnUse" color-interpolation-filters="sRGB">
<feFlood flood-opacity="0" result="BackgroundImageFix"/>
<feColorMatrix in="SourceAlpha" type="matrix" values="0 0 0 0 0 0 0 0 0 0 0 0 0 0 0 0 0 0 127 0"/>
<feOffset dy="4"/>
<feGaussianBlur stdDeviation="2"/>
<feColorMatrix type="matrix" values="0 0 0 0 0 0 0 0 0 0 0 0 0 0 0 0 0 0 0.08 0"/>
<feBlend mode="normal" in2="BackgroundImageFix" result="effect1_dropShadow"/>
<feBlend mode="normal" in="SourceGraphic" in2="effect1_dropShadow" result="shape"/>
</filter>
</defs>
</svg>
