<?xml version="1.0" encoding="UTF-8"?><!DOCTYPE svg PUBLIC "-//W3C//DTD SVG 1.1//EN" "http://www.w3.org/Graphics/SVG/1.1/DTD/svg11.dtd"><svg xmlns="http://www.w3.org/2000/svg" xmlns:xlink="http://www.w3.org/1999/xlink"><symbol id="ico-mono-bin" viewBox="0 0 44 44">
    <path d="M28.984 14.984V17H15.016v-2.016h3.468L19.516 14h4.968l1.032.984h3.468zM16 29.984v-12h12v12c0 .532-.203 1-.61 1.407-.406.406-.874.609-1.406.609h-7.968c-.532 0-1-.203-1.407-.61-.406-.406-.609-.874-.609-1.406z"/>
</symbol><symbol id="ico-mono-blind-eye" viewBox="0 0 24 24">
    <path d="M11.86 10H12c.813 0 1.516.297 2.11.89.593.594.89 1.297.89 2.11v.188L11.86 10zm-4.313.797c-.375.75-.563 1.484-.563 2.203 0 1.375.485 2.563 1.454 3.563 1 .968 2.187 1.453 3.562 1.453.719 0 1.453-.188 2.203-.563l-1.547-1.547A2.75 2.75 0 0112 16c-.813 0-1.516-.297-2.11-.89C9.298 14.515 9 13.812 9 13c0-.188.031-.406.094-.656l-1.547-1.547zM2.016 5.266L3.28 4 21 21.719l-1.266 1.265c-.156-.156-.656-.64-1.5-1.453l-1.875-1.875c-1.343.563-2.797.844-4.359.844-2.469 0-4.703-.688-6.703-2.063-2-1.375-3.438-3.187-4.313-5.437.344-.813.875-1.703 1.594-2.672.75-1 1.469-1.765 2.156-2.297L3.141 6.437a139.256 139.256 0 00-1.125-1.171zM12 7.984c-.625 0-1.234.125-1.828.375L8.016 6.203C9.234 5.734 10.562 5.5 12 5.5c2.469 0 4.688.688 6.656 2.063 2 1.375 3.438 3.187 4.313 5.437a12.222 12.222 0 01-3.422 4.734l-2.906-2.906c.25-.594.375-1.203.375-1.828 0-1.375-.5-2.547-1.5-3.516-.97-1-2.141-1.5-3.516-1.5z"/>
</symbol><symbol id="ico-mono-ch-arr-bottom" viewBox="0 0 12 8">
    <path d="M1.406.578L6 5.172 10.594.578 12 1.984l-6 6-6-6L1.406.578z"/>
</symbol><symbol id="ico-mono-ch-arr-left" viewBox="0 0 8 12">
    <path d="M7.422 10.594L6.016 12l-6-6 6-6 1.406 1.406L2.828 6l4.594 4.594z"/>
</symbol><symbol id="ico-mono-ch-arrow-top" viewBox="0 0 24 24">
    <path d="M7.406 16.422L6 15.016l6-6 6 6-1.406 1.406L12 11.828l-4.594 4.594z"/>
</symbol><symbol id="ico-mono-check" viewBox="0 0 18 18">
    <path d="M6.984 14.016l9-9-1.406-1.454-7.594 7.594-3.562-3.562L2.016 9l4.968 5.016zm9-14.016c.563 0 1.032.203 1.407.61.406.374.609.843.609 1.406v13.968c0 .563-.203 1.047-.61 1.454-.374.375-.843.562-1.406.562H2.016a2.069 2.069 0 01-1.454-.563A2.069 2.069 0 010 15.985V2.016C0 1.453.188.984.563.609.969.203 1.453 0 2.016 0h13.968z"/>
</symbol><symbol id="ico-mono-close" viewBox="0 0 10 10">
    <path d="M9.656 1.281L5.937 5l3.72 3.719-.938.937L5 5.937l-3.719 3.72-.937-.938L4.063 5 .342 1.281l.938-.937L5 4.063 8.719.342l.937.938z"/>
</symbol><symbol id="ico-mono-email" viewBox="0 0 49 35">
    <g fill-rule="evenodd">
        <path d="M44.49 0c2.338 0 4.13 1.781 4.13 3.813v1.272l-5.402 3.813-19.067 13.029L5.402 8.897v26.059h-1.27C1.791 34.956 0 33.175 0 31.143V3.813C0 1.783 1.793.001 4.131 0l20.02 14.936L44.49 0z" fill-rule="nonzero"/>
        <path d="M48.62 5.085v26.058c-.092 2.737-1.316 3.765-5.402 3.813V8.898l5.403-3.813z" fill-rule="nonzero"/>
        <path d="M3.813 0h40.765v5.461H3.813z"/>
        <path d="M4.767 29.554h38.451v5.402H4.767z"/>
    </g>
</symbol><symbol id="ico-mono-eye" viewBox="0 0 24 24">
    <path d="M9.89 10.89c.594-.593 1.297-.89 2.11-.89s1.516.297 2.11.89c.593.594.89 1.297.89 2.11s-.297 1.516-.89 2.11c-.594.593-1.297.89-2.11.89s-1.516-.297-2.11-.89C9.298 14.515 9 13.812 9 13s.297-1.516.89-2.11zm-1.453 5.672c1 .97 2.188 1.454 3.563 1.454s2.547-.485 3.516-1.453c1-1 1.5-2.188 1.5-3.563s-.5-2.547-1.5-3.516c-.97-1-2.141-1.5-3.516-1.5s-2.563.5-3.563 1.5c-.968.97-1.453 2.141-1.453 3.516s.485 2.563 1.454 3.563zm-3.14-9C7.297 6.188 9.53 5.5 12 5.5c2.469 0 4.703.688 6.703 2.063 2 1.375 3.438 3.187 4.313 5.437-.875 2.25-2.313 4.063-4.313 5.438-2 1.375-4.234 2.062-6.703 2.062-2.469 0-4.703-.688-6.703-2.063-2-1.375-3.438-3.187-4.313-5.437.875-2.25 2.313-4.063 4.313-5.438z"/>
</symbol><symbol id="ico-mono-facebook" viewBox="0 0 14 14">
    <path d="M12.5 0h-11A1.5 1.5 0 000 1.5v11c0 .844.656 1.5 1.5 1.5h4.281V9.25H3.813V7H5.78V5.312c0-1.937 1.157-3.03 2.907-3.03.874 0 1.75.155 1.75.155v1.907h-.97c-.968 0-1.28.593-1.28 1.218V7h2.156L10 9.25H8.187V14H12.5a1.5 1.5 0 001.5-1.5v-11c0-.813-.688-1.5-1.5-1.5z"/>
</symbol><symbol id="ico-mono-hamburger" viewBox="0 0 18 12">
    <path d="M0 0h18v2.016H0V0zm0 6.984V5.016h18v1.968H0zM0 12V9.984h18V12H0z"/>
</symbol><symbol id="ico-mono-insta-r" viewBox="0 0 22 22">
    <path d="M11 5.61c-3 0-5.39 2.437-5.39 5.39 0 3 2.39 5.39 5.39 5.39 2.953 0 5.39-2.39 5.39-5.39 0-2.953-2.437-5.39-5.39-5.39zm0 8.906A3.51 3.51 0 017.484 11c0-1.922 1.547-3.469 3.516-3.469A3.46 3.46 0 0114.469 11c0 1.969-1.547 3.516-3.469 3.516zm6.844-9.094a1.26 1.26 0 00-1.266-1.266 1.26 1.26 0 00-1.265 1.266 1.26 1.26 0 001.265 1.266 1.26 1.26 0 001.266-1.266zm3.562 1.266C21.313 5 20.938 3.5 19.72 2.28 18.5 1.062 17 .687 15.312.594 13.579.5 8.375.5 6.642.594 4.953.688 3.5 1.063 2.234 2.28 1.016 3.5.641 5 .547 6.687c-.094 1.735-.094 6.938 0 8.672.094 1.688.469 3.141 1.687 4.407 1.266 1.218 2.72 1.593 4.407 1.687 1.734.094 6.937.094 8.671 0 1.688-.094 3.188-.469 4.407-1.687 1.218-1.266 1.593-2.72 1.687-4.407.094-1.734.094-6.937 0-8.671zm-2.25 10.5c-.328.937-1.078 1.64-1.968 2.015-1.407.563-4.688.422-6.188.422-1.547 0-4.828.14-6.188-.422a3.554 3.554 0 01-2.015-2.015c-.563-1.36-.422-4.641-.422-6.188 0-1.5-.14-4.781.422-6.188a3.616 3.616 0 012.015-1.968c1.36-.563 4.641-.422 6.188-.422 1.5 0 4.781-.14 6.188.422.89.328 1.593 1.078 1.968 1.969.563 1.406.422 4.687.422 6.187 0 1.547.14 4.828-.422 6.188z"/>
</symbol><symbol id="ico-mono-insta" viewBox="0 0 14 14">
    <path d="M7 5.344c-.938 0-1.688.75-1.688 1.656 0 .938.75 1.688 1.688 1.688.906 0 1.656-.75 1.656-1.688 0-.906-.75-1.656-1.656-1.656zm3.875-1.282a1.548 1.548 0 00-.938-.937C9.281 2.844 7.72 2.906 7 2.906c-.75 0-2.313-.062-2.969.219-.437.156-.781.5-.937.938-.25.656-.219 2.218-.219 2.937 0 .75-.031 2.313.219 2.969.156.437.5.781.937.937.657.281 2.219.219 2.969.219.719 0 2.281.063 2.938-.219.437-.156.78-.5.937-.937.281-.656.219-2.219.219-2.969 0-.719.062-2.281-.219-2.938zM7 9.563A2.535 2.535 0 014.437 7 2.554 2.554 0 017 4.437 2.574 2.574 0 019.563 7v.031A2.574 2.574 0 017 9.594v-.031zm2.656-4.624a.575.575 0 01-.594-.594c0-.344.25-.594.594-.594a.593.593 0 110 1.188zM12.5 0h-11A1.5 1.5 0 000 1.5v11c0 .844.656 1.5 1.5 1.5h11a1.5 1.5 0 001.5-1.5v-11c0-.813-.688-1.5-1.5-1.5zm-.563 9.063c-.03.812-.218 1.53-.78 2.093-.595.594-1.313.781-2.095.813-.843.062-3.312.062-4.124 0-.813-.031-1.532-.219-2.094-.813-.594-.562-.781-1.281-.813-2.094-.062-.812-.062-3.28 0-4.124.031-.782.219-1.5.813-2.094.562-.563 1.281-.75 2.094-.781.812-.063 3.28-.063 4.125 0 .78.03 1.5.218 2.093.812.563.563.75 1.281.781 2.094.063.812.063 3.281 0 4.093z"/>
</symbol><symbol id="ico-mono-md-arr-left" viewBox="0 0 18 18">
    <path d="M17.016 8.016v1.968H4.828l5.578 5.625L9 17.016.984 9 9 .984l1.406 1.407-5.578 5.625h12.188z"/>
</symbol><symbol id="ico-mono-md-arr-right" viewBox="0 0 18 18">
    <path d="M.984 9.984V8.016h12.188L7.594 2.39 9 .984 17.016 9 9 17.016l-1.406-1.407 5.578-5.625H.984z"/>
</symbol><symbol id="ico-mono-md-arr-top" viewBox="0 0 18 18">
    <path d="M.984 9L9 .984 17.016 9l-1.453 1.406-5.579-5.578v12.188H8.016V4.828L2.39 10.406.984 9z"/>
</symbol><symbol id="ico-mono-od" viewBox="0 0 14 14">
    <path d="M5.75 4.563c0 .656.563 1.218 1.25 1.218a1.22 1.22 0 001.219-1.218c0-.72-.563-1.25-1.219-1.25-.688 0-1.25.53-1.25 1.25zM14 1.5c0-.813-.688-1.5-1.5-1.5h-11A1.5 1.5 0 000 1.5v11c0 .844.656 1.5 1.5 1.5h11a1.5 1.5 0 001.5-1.5v-11zM4.437 4.563A2.574 2.574 0 017 2c1.375 0 2.531 1.156 2.531 2.563 0 1.375-1.156 2.5-2.531 2.5-1.406 0-2.563-1.125-2.563-2.5zm5.47 2.812c.25.5-.032.75-.688 1.156-.531.344-1.25.469-1.75.531l.406.407 1.5 1.5c.531.562-.344 1.406-.906.875A76.358 76.358 0 017 10.344l-1.5 1.5c-.563.531-1.438-.344-.875-.875.375-.406.906-.938 1.469-1.5l.406-.406C6.031 9 5.281 8.874 4.75 8.53c-.656-.406-.938-.656-.688-1.156.157-.281.532-.531 1.063-.094 0 0 .719.563 1.875.563 1.125 0 1.844-.563 1.844-.563.531-.437.906-.187 1.062.094z"/>
</symbol><symbol id="ico-mono-paint" viewBox="0 0 24 24">
    <path d="M0 20.016h24V24H0v-3.984zm18.984-8.532C20.328 12.954 21 14.125 21 15c0 .531-.203 1-.61 1.406-.406.407-.874.61-1.406.61-.53 0-1-.203-1.406-.61A2.011 2.011 0 0117.016 15c0-.375.156-.86.468-1.453.344-.594.672-1.078.985-1.453l.515-.61zm-13.78-1.5h9.608l-4.828-4.78-4.78 4.78zm11.343-1.03c.312.312.469.671.469 1.077 0 .406-.157.75-.47 1.031l-5.483 5.485c-.313.312-.672.469-1.079.469-.375 0-.718-.157-1.03-.47l-5.532-5.483C3.14 10.78 3 10.421 3 9.983c0-.406.14-.75.422-1.03l5.156-5.157-2.39-2.39L7.64 0l8.906 8.953z"/>
</symbol><symbol id="ico-mono-play" viewBox="0 0 11 14">
    <path d="M.016.016L10.984 7 .016 13.984V.016z"/>
</symbol><symbol id="ico-mono-search" viewBox="0 0 18 18">
    <path d="M3.328 9.703c.875.875 1.938 1.313 3.188 1.313 1.25 0 2.312-.438 3.187-1.313s1.313-1.937 1.313-3.187c0-1.25-.438-2.313-1.313-3.188S7.766 2.016 6.516 2.016c-1.25 0-2.313.437-3.188 1.312S2.016 5.266 2.016 6.516c0 1.25.437 2.312 1.312 3.187zm9.188 1.313l4.968 4.968-1.5 1.5-4.968-4.968v-.797l-.282-.281c-1.187 1.03-2.593 1.546-4.218 1.546-1.813 0-3.36-.625-4.641-1.875C.625 9.86 0 8.33 0 6.516c0-1.813.625-3.344 1.875-4.594C3.156.64 4.703 0 6.515 0 8.329 0 9.86.64 11.11 1.922c1.25 1.25 1.875 2.781 1.875 4.594 0 .656-.156 1.406-.468 2.25-.313.812-.672 1.468-1.079 1.968l.282.282h.797z"/>
</symbol><symbol id="ico-mono-setting" viewBox="0 0 20 20">
    <path d="M7.516 12.484A3.386 3.386 0 0010 13.516c.969 0 1.797-.344 2.484-1.032A3.386 3.386 0 0013.516 10c0-.969-.344-1.797-1.032-2.484A3.386 3.386 0 0010 6.484c-.969 0-1.797.344-2.484 1.032A3.386 3.386 0 006.484 10c0 .969.344 1.797 1.032 2.484zm9.937-1.5l2.11 1.641c.218.156.25.375.093.656l-2.015 3.469c-.125.219-.328.281-.61.188l-2.484-.985c-.656.469-1.219.797-1.688.985l-.375 2.625c-.062.28-.218.421-.468.421H7.984c-.25 0-.406-.14-.468-.422l-.375-2.625a7.672 7.672 0 01-1.688-.984l-2.484.985c-.281.093-.485.03-.61-.188L.344 13.281c-.156-.281-.125-.5.094-.656l2.109-1.64A7.573 7.573 0 012.5 10c0-.438.016-.766.047-.984L.437 7.375C.22 7.219.188 7 .345 6.719L2.359 3.25c.125-.219.329-.281.61-.188l2.484.985c.656-.469 1.219-.797 1.688-.984L7.516.437c.062-.28.218-.421.468-.421h4.032c.25 0 .406.14.468.421l.375 2.626c.594.25 1.157.578 1.688.984l2.484-.984c.282-.094.485-.032.61.187l2.015 3.469c.157.281.125.5-.093.656l-2.11 1.64c.031.22.047.547.047.985 0 .438-.016.766-.047.984z"/>
</symbol><symbol id="ico-mono-thin-arrow-down" viewBox="0 0 16 39">
    <path d="M7.293 38.707a1 1 0 001.414 0l6.364-6.364a1 1 0 00-1.414-1.414L8 36.586l-5.657-5.657A1 1 0 00.93 32.343l6.364 6.364zM7 0v38h2V0H7z"/>
</symbol><symbol id="ico-mono-twitter" viewBox="0 0 16 14">
    <path d="M14.344 3.75a6.952 6.952 0 001.625-1.688 6.151 6.151 0 01-1.875.5A3.206 3.206 0 0015.53.75a6.93 6.93 0 01-2.062.813A3.282 3.282 0 0011.063.53 3.28 3.28 0 007.78 3.812c0 .25.032.5.094.75a9.52 9.52 0 01-6.781-3.437 3.192 3.192 0 00-.438 1.656c0 1.125.563 2.125 1.469 2.719-.531-.031-1.063-.156-1.5-.406v.031A3.285 3.285 0 003.25 8.344c-.25.062-.563.125-.844.125-.219 0-.406-.031-.625-.063a3.265 3.265 0 003.063 2.281A6.597 6.597 0 01.78 12.095c-.281 0-.531-.031-.781-.063 1.438.938 3.156 1.469 5.031 1.469 6.032 0 9.313-4.969 9.313-9.313V3.75z"/>
</symbol><symbol id="ico-mono-upload" viewBox="0 0 14 18">
    <path d="M.016 15h13.968v2.016H.016V15zM4 12.984v-6H.016L7 0l6.984 6.984H10v6H4z"/>
</symbol><symbol id="ico-mono-youtube" viewBox="0 0 18 12">
    <path d="M17.156 1.906a2.126 2.126 0 00-1.5-1.531C14.312 0 9 0 9 0S3.656 0 2.312.375a2.126 2.126 0 00-1.5 1.531C.438 3.22.438 6.031.438 6.031s0 2.782.376 4.125c.187.75.78 1.313 1.5 1.5C3.655 12 9 12 9 12s5.313 0 6.656-.344a2.084 2.084 0 001.5-1.5c.375-1.344.375-4.125.375-4.125s0-2.812-.375-4.125zM7.25 8.563V3.5l4.438 2.531L7.25 8.563z"/>
</symbol></svg>