<svg width="35" height="35" viewBox="0 0 35 35" fill="none" xmlns="http://www.w3.org/2000/svg">
<path d="M34.965 16.3943C35.2186 20.3994 34.0879 24.3699 31.7625 27.6405C29.4371 30.9112 26.0582 33.2833 22.1921 34.3592C18.326 35.4352 14.2075 35.1498 10.5268 33.5507C6.84609 31.9516 3.8268 29.1361 1.97485 25.5759C0.122908 22.0157 -0.449157 17.9271 0.354515 13.9954C1.15819 10.0636 3.28876 6.52751 6.38923 3.97961C9.4897 1.43172 13.3717 0.0268338 17.3846 0.000380215C21.3976 -0.0260733 25.2978 1.32751 28.4316 3.83431L24.8651 8.29273C22.7538 6.60377 20.126 5.69179 17.4223 5.70962C14.7185 5.72744 12.1031 6.67398 10.0141 8.39063C7.92517 10.1073 6.48969 12.4897 5.94822 15.1388C5.40674 17.7878 5.79217 20.5424 7.03992 22.9411C8.28767 25.3398 10.3219 27.2368 12.8018 28.3142C15.2817 29.3915 18.0565 29.5839 20.6613 28.8589C23.2661 28.134 25.5426 26.5358 27.1094 24.3322C28.6761 22.1286 29.4379 19.4535 29.2671 16.7551L34.965 16.3943Z" fill="#578AD6"/>
</svg>
