<svg width="81" height="23" viewBox="0 0 81 23" fill="none" xmlns="http://www.w3.org/2000/svg">
<path d="M7.69509 0C9.32732 0 9.84035 1.12171 10.2691 2.24454C10.4511 2.71939 14.6906 13.8581 14.8172 14.1924C14.8528 14.2844 14.8294 14.4385 14.6797 14.4933C14.5295 14.5481 12.3262 15.3702 12.2047 15.414C12.0829 15.458 11.9458 15.3931 11.901 15.2768C11.8559 15.1613 10.9428 12.7334 10.8396 12.4614C10.536 12.4614 4.86157 12.4614 4.55831 12.4614C4.45499 12.7334 3.5324 15.1657 3.48993 15.2768C3.44761 15.388 3.31558 15.4631 3.18687 15.414C3.05765 15.3646 0.844692 14.542 0.713887 14.4933C0.587279 14.4471 0.529094 14.3091 0.574076 14.1924C0.730057 13.7742 4.90476 2.8146 5.11862 2.24454C5.5315 1.13963 6.06357 0 7.69508 0H7.69509ZM0.238016 19.9304C0.10634 19.9304 0 20.0349 0 20.1643V22.7662C0 22.896 0.10634 23 0.238016 23H15.1522C15.2828 23 15.3883 22.896 15.3883 22.7662V20.1643C15.3883 20.0349 15.2828 19.9304 15.1522 19.9304H0.238016ZM7.6824 3.63758L5.55812 9.75646H9.84035L7.70886 3.63758H7.6824H7.6824ZM63.1715 12.6176C63.1715 13.3099 62.7722 13.7656 62.0365 13.7656C61.7456 13.7656 61.5071 13.7665 61.1273 13.667V11.5712C61.2949 11.5448 61.6414 11.4932 62.0365 11.5069C62.7843 11.534 63.1715 11.8692 63.1715 12.6176ZM64.6816 12.5142C64.6816 11.2303 63.8977 10.3458 62.2507 10.3458C61.846 10.3458 61.5637 10.3828 61.1273 10.4818L61.1241 8.63362C61.3955 8.59655 61.8603 8.56409 62.3723 8.56409C62.8568 8.56409 63.4703 8.58943 64.0088 8.65257L64.0463 7.58159C63.4344 7.44985 62.5469 7.36948 61.8582 7.36948C61.1797 7.36948 60.1245 7.53239 59.622 7.66281L59.6215 14.4938C60.4048 14.7689 61.1691 14.8947 61.954 14.8947C63.7496 14.8947 64.6816 13.9813 64.6816 12.5142L64.6816 12.5142ZM47.5502 12.1419C47.5502 13.0947 47.1546 13.7093 46.5035 13.7093C46.23 13.7093 46.0851 13.6961 45.7762 13.5991V10.7379C46.1153 10.5823 46.2977 10.584 46.5717 10.584C47.2239 10.584 47.5502 11.1009 47.5502 12.1419V12.1419ZM42.5882 12.174C42.5882 11.1339 42.9149 10.584 43.5659 10.584C43.841 10.584 44.0235 10.5823 44.3625 10.7379V13.5991C44.0546 13.6961 43.9092 13.7093 43.6347 13.7093C42.8927 13.7093 42.5882 13.128 42.5882 12.174H42.5882ZM45.7762 16.4613V14.5994C45.9561 14.7014 46.3147 14.8521 46.9192 14.8521C48.1214 14.8521 49.0074 13.8935 49.0074 12.1419C49.0074 10.255 48.1273 9.44727 46.6807 9.44727C46.3131 9.44727 46.074 9.48346 45.7762 9.61961V7.39506H44.3625V9.61961C44.0652 9.48346 43.8246 9.44727 43.4575 9.44727C42.0112 9.44727 41.1306 10.2885 41.1306 12.174C41.1306 13.9265 41.9265 14.8521 43.2169 14.8521C43.8241 14.8521 44.1826 14.7014 44.3625 14.5994V16.4613H45.7762ZM35.0349 14.7638V9.77035C34.2556 9.54758 33.6561 9.45095 32.874 9.45095C32.0926 9.45095 31.5078 9.54758 30.7282 9.77035V12.3269C30.7282 13.0221 30.7157 13.2307 30.6367 13.4556C30.5583 13.6524 30.453 13.8889 30.167 14.0716L30.5539 14.8688C31.6936 14.5601 32.1229 14.0843 32.1229 12.5718V10.6909C32.4995 10.6381 32.5739 10.6259 32.874 10.6259C33.176 10.6259 33.2389 10.6381 33.6144 10.6909V14.7638H35.0349L35.0349 14.7638ZM52.5199 13.669C52.2078 13.7727 52.0025 13.7966 51.7561 13.7966C51.2483 13.7966 50.9595 13.604 50.9595 13.1043C50.9595 12.5844 51.324 12.4081 52.0274 12.4081C52.1967 12.4081 52.367 12.433 52.4468 12.4595V12.8324C52.4468 13.2346 52.4675 13.4976 52.5199 13.669ZM54.3234 14.2665C53.949 13.7198 53.8516 13.3972 53.8516 12.7095V11.3137C53.8516 10.5594 53.7607 10.2829 53.5523 10.0065C53.2651 9.61858 52.7843 9.45095 51.8984 9.45095C51.2737 9.45095 50.6591 9.51591 50.0721 9.65918L50.2825 10.6589C50.6819 10.6056 51.0976 10.5594 51.3986 10.5594C52.3384 10.5594 52.4468 10.6909 52.4468 11.3663V11.6196C52.2379 11.5658 52.0025 11.5268 51.7291 11.5268C50.309 11.5268 49.5616 12.1909 49.5616 13.2874C49.5616 14.3179 50.3598 14.8805 51.3388 14.8805C51.7021 14.8805 52.0814 14.8155 52.3813 14.6993C52.5616 14.6227 52.6404 14.5796 52.8753 14.4314C53.017 14.6308 53.2995 14.8325 53.4153 14.8688L54.3234 14.2665L54.3234 14.2665ZM68.1803 13.669C67.8688 13.7727 67.6636 13.7966 67.4161 13.7966C66.9077 13.7966 66.6216 13.604 66.6216 13.1043C66.6216 12.5844 66.9855 12.4081 67.689 12.4081C67.8598 12.4081 68.0285 12.433 68.1062 12.4595V12.8324C68.1062 13.2346 68.129 13.4976 68.1803 13.669ZM69.9849 14.2665C69.6089 13.7198 69.5116 13.3972 69.5116 12.7095V11.3137C69.5116 10.5594 69.4216 10.2829 69.2138 10.0065C68.925 9.61858 68.4453 9.45095 67.5588 9.45095C66.9331 9.45095 66.3201 9.51591 65.7336 9.65918L65.9435 10.6589C66.3413 10.6056 66.7596 10.5594 67.0596 10.5594C67.9978 10.5594 68.1062 10.6909 68.1062 11.3663V11.6196C67.8979 11.5658 67.6636 11.5268 67.3896 11.5268C65.9705 11.5268 65.2231 12.1909 65.2231 13.2874C65.2231 14.3179 66.0218 14.8805 66.9992 14.8805C67.3631 14.8805 67.7413 14.8155 68.0412 14.6993C68.2226 14.6227 68.3014 14.5796 68.5352 14.4314C68.6769 14.6308 68.961 14.8325 69.0763 14.8688L69.9849 14.2665L69.9849 14.2665ZM39.07 12.9699C39.07 13.4812 38.8822 13.8316 38.2004 13.8316C37.9707 13.8316 37.8764 13.8316 37.5784 13.7514V12.2569C37.9483 12.1879 37.9811 12.1762 38.2004 12.1762C38.852 12.1762 39.07 12.4802 39.07 12.9699ZM36.1603 9.53437L36.1544 14.4913C36.8274 14.7638 37.5668 14.8866 38.2237 14.8866C39.7311 14.8866 40.5378 14.1389 40.5378 12.9068C40.5378 11.7917 39.8239 11.1019 38.4892 11.1019C38.1502 11.1019 37.9515 11.1451 37.5792 11.2308V9.53438H36.1603V9.53437ZM75.1735 14.7638V9.58156H73.7534V11.5409H72.146V9.58156H70.7286V14.7638H72.146V12.6477H73.7534V14.7638H75.1735ZM81 14.7638C81 14.7638 80.2257 13.1778 80.0358 12.8192C79.8221 12.4122 79.6253 12.1314 79.1879 12.0316V12.0077C79.481 11.9548 79.7137 11.7843 79.9654 11.2664C80.2082 10.7595 80.2801 10.6513 80.4219 10.5316C80.5615 10.4102 80.7519 10.4564 80.7519 10.4564L80.8239 9.51306C80.6202 9.48714 80.3954 9.48685 80.1632 9.49883C79.7798 9.52166 79.5793 9.62624 79.3916 9.81042C79.2445 9.95051 79.143 10.1596 79.0181 10.4047C78.8849 10.6665 78.7801 10.8783 78.6464 11.1451C78.5099 11.4181 78.4432 11.54 78.0757 11.54H77.8371V9.58156H76.4117V14.7638H77.8371V12.6461L78.0312 12.6431C78.4363 12.6431 78.5056 12.74 78.7209 13.15C78.9742 13.6403 79.4529 14.7638 79.4529 14.7638H81ZM28.0895 14.7638H29.7249L27.2549 7.51972C26.995 7.43546 26.6702 7.38287 26.3275 7.38287C25.953 7.38287 25.8194 7.43055 25.5256 7.51972L22.9064 14.7638H24.4728C24.4728 14.7638 24.6829 14.1295 24.9396 13.3413H27.6484C27.8925 14.129 28.0895 14.7638 28.0895 14.7638H28.0895ZM25.3379 12.1275C25.3379 12.1275 25.79 10.6757 25.8587 10.4483C26.0415 9.8576 26.3148 8.92758 26.3148 8.92758H26.3596C26.3596 8.92758 26.6112 9.89162 26.7755 10.4398C26.8398 10.653 27.2716 12.1275 27.2716 12.1275H25.3379V12.1275ZM56.7358 11.3009C56.2359 11.3009 55.8298 11.692 55.8298 12.1703C55.8298 12.6532 56.2359 13.0407 56.7358 13.0407C57.235 13.0407 57.6407 12.6532 57.6407 12.1703C57.6407 11.692 57.235 11.3009 56.7358 11.3009Z" fill="#EE4337"/>
</svg>
