<svg width="22" height="22" viewBox="0 0 22 22" fill="none" xmlns="http://www.w3.org/2000/svg">
<path d="M2.95951 8.68607L2.92014 9.22266H3.45817H5.15625C5.35474 9.22266 5.51562 9.38354 5.51562 9.58203V17.6602C5.51562 17.8586 5.35474 18.0195 5.15625 18.0195H3.4375C1.8182 18.0195 0.5 16.7013 0.5 15.082V12.1602C0.5 11.0765 1.09077 10.1269 1.97059 9.61706L2.21699 9.47429L2.21988 9.18952C2.24339 6.87741 3.15315 4.70954 4.79072 3.07197C6.44995 1.41274 8.65353 0.5 11 0.5C12.8309 0.5 14.5837 1.05731 16.072 2.11204C17.5279 3.14381 18.6221 4.56888 19.2383 6.23467C19.3071 6.42078 19.2121 6.62748 19.026 6.69641C18.8397 6.7653 18.633 6.67014 18.5642 6.48406C17.3987 3.33365 14.3602 1.21875 11 1.21875C6.75384 1.21875 3.26538 4.5168 2.95951 8.68607ZM4.29688 17.3008H4.79688V16.8008V10.4414V9.94141H4.29688H3.4375C2.21364 9.94141 1.21875 10.9363 1.21875 12.1602V15.082C1.21875 16.3059 2.21364 17.3008 3.4375 17.3008H4.29688Z" fill="#4AD4B9" stroke="#4AD4B9"/>
<path d="M13.0039 20.6406V19.9219H15.125C15.875 19.9219 16.4844 19.3125 16.4844 18.5625V17.6602V15.4688V9.58203C16.4844 9.38354 16.6453 9.22266 16.8438 9.22266H18.5625C20.1818 9.22266 21.5 10.5409 21.5 12.1602V15.082C21.5 16.7013 20.1818 18.0195 18.5625 18.0195H17.7031H17.2031V18.5195V18.5625C17.2031 19.7079 16.2704 20.6406 15.125 20.6406H13.0039ZM12.0666 19.6916L12.3936 20.2812L12.0666 20.8709C11.858 21.2472 11.4582 21.5 11 21.5C10.3269 21.5 9.78125 20.9543 9.78125 20.2812C9.78125 19.6082 10.3269 19.0625 11 19.0625C11.4582 19.0625 11.858 19.3153 12.0666 19.6916ZM17.2031 16.8008V17.3008H17.7031H18.5625C19.7864 17.3008 20.7812 16.3059 20.7812 15.082V12.1602C20.7812 10.9363 19.7864 9.94141 18.5625 9.94141H17.7031H17.2031V10.4414V15.4688V16.8008Z" fill="#4AD4B9" stroke="#4AD4B9"/>
</svg>
