<svg width="16" height="14" viewBox="0 0 16 14" fill="none" xmlns="http://www.w3.org/2000/svg">
<path fill-rule="evenodd" clip-rule="evenodd" d="M11.584 0C10.108 0 8.802 0.724 8 1.835C7.198 0.724 5.892 0 4.416 0C1.977 0 0 1.977 0 4.416C0 5.732 0.575 6.913 1.488 7.722L7.981 13.869L14.438 7.787C15.394 6.977 16 5.768 16 4.416C16 1.977 14.022 0 11.584 0ZM11.584 1C13.468 1 15 2.533 15 4.416C15 5.422 14.56 6.373 13.791 7.024L13.771 7.041L13.752 7.059L7.983 12.494L2.151 6.974C1.42 6.325 1 5.393 1 4.416C1 2.533 2.533 1 4.416 1C5.511 1 6.547 1.531 7.189 2.42L8 3.544L8.811 2.42C9.452 1.531 10.489 1 11.584 1Z" fill="#5A6872"/>
</svg>
