<svg width="17" height="17" viewBox="0 0 17 17" fill="none" xmlns="http://www.w3.org/2000/svg">
<path fill-rule="evenodd" clip-rule="evenodd" d="M13.5565 4.28256C13.5565 4.80577 13.1312 5.23036 12.6071 5.23036C12.0837 5.23036 11.659 4.80577 11.659 4.28256C11.659 3.75935 12.0837 3.33477 12.6071 3.33477C13.1312 3.33477 13.5565 3.75935 13.5565 4.28256ZM8.38574 11.1294C6.93042 11.1294 5.74978 9.95069 5.74978 8.49713C5.74978 7.04416 6.93042 5.86543 8.38574 5.86543C9.84166 5.86543 11.0223 7.04416 11.0223 8.49713C11.0223 9.95069 9.84166 11.1294 8.38574 11.1294ZM8.38574 4.44313C6.14312 4.44313 4.32518 6.25874 4.32518 8.49713C4.32518 10.7361 6.14312 12.5517 8.38574 12.5517C10.629 12.5511 12.4469 10.7367 12.4469 8.49713C12.4469 6.25874 10.629 4.44313 8.38574 4.44313ZM5.12512 0.649543C4.28362 0.688032 3.70896 0.82094 3.20538 1.01639C2.68554 1.21786 2.24461 1.48849 1.80488 1.9275C1.36515 2.36592 1.09469 2.80614 0.892894 3.32574C0.697125 3.82731 0.563399 4.40164 0.524848 5.24178C0.427264 7.40079 0.427264 9.59407 0.524848 11.7525C0.563399 12.5938 0.697125 13.1669 0.892894 13.6697C1.09469 14.1881 1.36515 14.6289 1.80488 15.0674C2.24461 15.5064 2.68554 15.777 3.20538 15.9791C3.70896 16.1733 4.28362 16.3074 5.12512 16.3459C7.28762 16.4421 9.48385 16.4433 11.647 16.3459C12.4885 16.3074 13.0631 16.1739 13.5661 15.9791C14.0859 15.777 14.5275 15.5064 14.9672 15.0674C15.4069 14.6289 15.6768 14.1887 15.8792 13.6697C16.0743 13.1669 16.2087 12.5938 16.2466 11.7525C16.3448 9.59407 16.3448 7.40079 16.2466 5.24178C16.2087 4.40164 16.0743 3.82731 15.8792 3.32574C15.6768 2.80614 15.4069 2.36592 14.9672 1.9275C14.5275 1.48849 14.0859 1.21786 13.5661 1.01639C13.0631 0.82094 12.4885 0.688032 11.647 0.649543C9.48506 0.549111 7.28642 0.549111 5.12512 0.649543ZM11.5819 2.07064C12.3523 2.10492 12.7716 2.23361 13.0499 2.34247C13.4197 2.485 13.683 2.65639 13.9594 2.93364C14.2359 3.20907 14.4076 3.47248 14.551 3.84054C14.6594 4.11898 14.7877 4.53695 14.8232 5.30673C14.9202 7.42123 14.9202 9.57242 14.8232 11.6875C14.7877 12.4579 14.6594 12.8759 14.551 13.1537C14.4076 13.5224 14.2359 13.7858 13.9594 14.0618C13.683 14.3379 13.4197 14.5099 13.0499 14.653C12.7716 14.7606 12.3523 14.8893 11.5819 14.9248C9.46277 15.0198 7.3087 15.0204 5.18958 14.9248C4.41915 14.8893 4.00051 14.7606 3.72161 14.653C3.35236 14.5099 3.08912 14.3379 2.81264 14.0618C2.53615 13.7852 2.36448 13.523 2.22051 13.1537C2.11208 12.8759 1.98378 12.4579 1.94824 11.6875C1.85246 9.57182 1.85246 7.42183 1.94824 5.30673C1.98378 4.53695 2.11208 4.11958 2.22051 3.84054C2.36448 3.47248 2.53615 3.20968 2.81264 2.93364C3.08912 2.65639 3.35236 2.485 3.72161 2.34247C4.00051 2.23361 4.41915 2.10492 5.18958 2.07064C7.3087 1.97441 9.46277 1.97501 11.5819 2.07064Z" fill="white"/>
</svg>
