<svg width="23" height="23" viewBox="0 0 23 23" fill="none" xmlns="http://www.w3.org/2000/svg">
<path d="M21.8604 8.57642C21.2794 8.08045 20.552 7.81121 19.8151 7.81121H19.0688H16.3811H14.8507V4.22606C14.8507 2.71926 14.4114 1.63286 13.5423 0.995181C12.1678 -0.01565 10.2736 0.560618 10.1933 0.588959C9.95716 0.664535 9.79656 0.881817 9.79656 1.12744V5.1377C9.79656 6.44611 9.17306 7.55614 7.94022 8.43943C7.01914 9.10072 6.07916 9.38886 5.97996 9.42192L5.84298 9.45499C5.63987 9.11017 5.26671 8.87872 4.83687 8.87872H1.16671C0.52431 8.87872 0 9.40303 0 10.0454V20.8339C0 21.4763 0.52431 22.0006 1.16671 22.0006H4.84632C5.20531 22.0006 5.53123 21.8353 5.74379 21.5802C6.33423 22.2085 7.17029 22.6005 8.0772 22.6005H11.19H11.5112H17.8927C20.0607 22.6005 21.4447 21.4669 21.6904 19.483L22.961 11.5995C23.1358 10.4658 22.7154 9.30383 21.8604 8.57642ZM4.87466 20.8339C4.87466 20.8528 4.86049 20.867 4.8416 20.867H1.16671C1.14781 20.867 1.13364 20.8528 1.13364 20.8339V10.0454C1.13364 10.0265 1.14781 10.0124 1.16671 10.0124H4.84632C4.86522 10.0124 4.87939 10.0265 4.87939 10.0454V20.8339H4.87466ZM21.8321 11.42L20.5662 19.3177C20.5662 19.3224 20.5662 19.3318 20.5614 19.3413C20.3867 20.7536 19.4892 21.4716 17.8879 21.4716H11.5065H11.1853H8.07248C7.06637 21.4716 6.19252 20.7206 6.03665 19.7286C6.03192 19.6956 6.02248 19.6625 6.01303 19.6294V10.5792L6.25865 10.5225C6.2681 10.5225 6.27282 10.5178 6.28227 10.5178C6.3295 10.5036 7.44898 10.1871 8.5779 9.38414C10.1225 8.28828 10.9349 6.81927 10.9349 5.1377V1.5809C11.4262 1.5006 12.267 1.45809 12.8763 1.91154C13.4337 2.32249 13.7171 3.10187 13.7171 4.22606V8.3733C13.7171 8.68506 13.9721 8.94013 14.2839 8.94013H16.3811H19.0688H19.8151C20.2828 8.94013 20.7504 9.1149 21.1235 9.43609C21.6809 9.91317 21.9549 10.6737 21.8321 11.42Z" fill="#000"/>
</svg>
