<svg width="68" height="68" viewBox="0 0 68 68" fill="none" xmlns="http://www.w3.org/2000/svg">
<path d="M33.6175 13.8182C32.385 10.0183 24.9507 7.58021 24.0674 13.8181C23.0628 20.9132 33.6176 25 33.6176 25C33.6176 25 44.9415 20.9131 43.9369 13.8181C43.0536 7.58021 34.8501 10.0184 33.6175 13.8182Z" fill="#4AD4B9"/>
<path d="M52.0715 20.8996C54.0959 17.3943 54.8794 13.8433 54.4011 10.3457C53.9689 7.18615 52.7313 4.6539 50.7227 2.81957C48.9649 1.21425 46.7087 0.254199 44.198 0.0431443C41.8273 -0.156606 39.4093 0.341706 37.3912 1.44539C35.9668 2.22417 34.8089 3.27572 33.9999 4.50322C33.191 3.27559 32.033 2.22417 30.6087 1.44539C28.5907 0.341706 26.1736 -0.156473 23.8019 0.0431443C21.2912 0.254199 19.0349 1.21425 17.2773 2.81957C15.2686 4.6539 14.0311 7.18615 13.5989 10.3457C13.1549 13.5919 13.7992 16.8901 15.5141 20.1489C16.8897 22.763 18.9629 25.3669 21.6758 27.8887C22.0794 28.2638 22.7104 28.2404 23.0855 27.8372C23.4605 27.4337 23.4374 26.8025 23.034 26.4275C17.3697 21.1626 14.8602 15.8428 15.5753 10.616C16.2582 5.62459 19.3958 2.41515 23.9689 2.03081C28.1327 1.67958 32.0341 3.85769 33.0481 7.09412C33.177 7.50533 33.569 7.79325 33.9999 7.79325C34.431 7.79325 34.8229 7.50546 34.9517 7.09412C35.9659 3.85782 39.8681 1.67972 44.0309 2.03081C48.6041 2.41515 51.7417 5.62445 52.4246 10.616C52.8408 13.659 52.1442 16.7774 50.3541 19.8845C48.8868 22.4313 46.689 24.9772 43.8221 27.4514C39.7047 31.0047 35.364 33.3916 33.9997 34.1039C32.8387 33.4986 29.5236 31.6823 26.0223 28.9605C25.5874 28.6226 24.9609 28.7008 24.6227 29.136C24.2846 29.5708 24.3632 30.1974 24.7981 30.5355C29.2902 34.0275 33.3915 36.0365 33.564 36.1203C33.837 36.2529 34.1632 36.2529 34.4363 36.1203C34.6593 36.0119 39.956 33.4145 45.0938 28.9889C48.1389 26.3661 50.4867 23.6443 52.0715 20.8996Z" fill="#578AD6"/>
<path d="M67.5381 25.9919C67.0711 25.2485 66.3055 24.747 65.4375 24.6156C64.1863 24.4262 62.988 25.0297 62.3801 26.088C62.0606 25.869 61.6952 25.7171 61.3058 25.648C59.9597 25.4074 58.6252 26.2093 58.2043 27.5113L57.7369 28.9566C57.4847 28.7888 57.206 28.6599 56.9083 28.5832C55.4952 28.2189 54.0493 29.0252 53.6163 30.4191L53.3102 31.4051C52.9773 31.1797 52.5963 31.0255 52.19 30.9589C50.8118 30.7331 49.4972 31.533 49.0646 32.8612L45.8981 42.585C44.7533 43.0958 41.7409 44.6608 39.5351 47.7945C36.8453 51.6155 36.3645 56.3361 36.3453 56.5352C36.3424 56.5669 36.3408 56.5987 36.3408 56.6307V66.9978C36.3408 67.5488 36.7873 67.9952 37.3382 67.9952H48.8291C49.3801 67.9952 49.8265 67.5488 49.8265 66.9978V59.854L57.1686 53.8584C61.1347 50.6197 62.78 45.1391 64.2317 40.3036C64.3937 39.7639 65.1593 37.2658 65.1593 37.2658C65.3214 36.7393 65.0262 36.1812 64.4996 36.0188C63.9734 35.8568 63.415 36.1519 63.2529 36.6784C63.2529 36.6784 62.4846 39.1857 62.321 39.73C60.9518 44.2911 59.3998 49.4608 55.9068 52.3131L48.1982 58.608C47.9662 58.7975 47.8317 59.0812 47.8317 59.3807V66.0002H38.3357V56.6844C38.3886 56.2235 38.9139 52.1427 41.1663 48.9427C43.5127 45.6095 47.0158 44.2772 47.0489 44.2648C47.0835 44.252 47.1172 44.2373 47.1502 44.2208C47.1555 44.2181 47.1605 44.2149 47.1656 44.2121C47.2012 44.1936 47.2353 44.1728 47.2683 44.1502C47.2787 44.1431 47.2889 44.1359 47.299 44.1285C47.3343 44.1023 47.3683 44.0746 47.4 44.0439C47.4021 44.0419 47.4041 44.04 47.4062 44.0381L53.075 38.5009C53.3634 38.2023 53.6702 37.9196 53.9671 37.6295C54.1836 37.4181 54.3783 37.1925 54.6874 37.1259C54.9385 37.0718 55.2075 37.1221 55.4214 37.2645C55.8709 37.5637 55.9694 38.217 55.6344 38.6389L48.0483 48.1873C47.7348 48.5816 47.7648 49.1476 48.1177 49.5069C48.4709 49.8662 49.0364 49.9057 49.4359 49.5994L53.5437 46.4511C57.5701 43.3654 60.4665 39.1653 61.9194 34.3049L64.0218 27.2728C64.1865 26.7788 64.709 26.4875 65.2159 26.6027C65.7846 26.7318 66.1313 27.3375 65.9597 27.8943L64.4317 32.8534C64.2693 33.3799 64.5647 33.938 65.0911 34.1003C65.6173 34.2629 66.1758 33.9674 66.338 33.4409L67.866 28.4817C68.1245 27.6427 68.005 26.7353 67.5381 25.9919ZM50.9616 33.4788C51.1067 33.0329 51.6099 32.8015 52.0442 32.9769C52.43 33.1326 52.6359 33.5738 52.5136 33.9707L51.493 37.2576L48.9093 39.7815L50.9616 33.4788ZM54.8915 35.1074C54.6641 35.1074 54.4414 35.1361 54.225 35.1861L55.5215 31.0107C55.6386 30.6343 56.0293 30.4162 56.4106 30.515C56.6096 30.5663 56.7737 30.6937 56.873 30.8738C56.9719 31.0536 56.9917 31.2603 56.9288 31.4556L55.7098 35.2246C55.4582 35.1522 55.1962 35.1107 54.9275 35.1075C54.9154 35.1074 54.9035 35.1074 54.8915 35.1074ZM57.7069 38.9049C57.949 38.1038 57.8397 37.2239 57.3931 36.5014L58.8259 32.0714C58.826 32.0711 58.8262 32.0707 58.8263 32.0704C58.8264 32.0702 58.8264 32.0698 58.8266 32.0695L60.1023 28.1252C60.2183 27.7666 60.5859 27.5461 60.9567 27.6121C61.2477 27.664 61.4027 27.8529 61.4692 27.9608C61.5358 28.0689 61.6348 28.2925 61.5501 28.5757C61.5501 28.5759 61.5499 28.576 61.5499 28.5761L60.0081 33.7335C59.4591 35.5698 58.6852 37.3033 57.7069 38.9049Z" fill="#578AD6"/>
<path d="M28.4648 47.7945C26.2589 44.6607 23.2464 43.0957 22.1016 42.585L18.9351 32.8612C18.5027 31.5331 17.1879 30.7327 15.8096 30.959C15.4035 31.0256 15.0225 31.1797 14.6896 31.4051L14.3833 30.419C13.9504 29.0253 12.5044 28.2186 11.0913 28.5832C10.7938 28.66 10.515 28.7888 10.2629 28.9567L9.79543 27.5113C9.37465 26.2095 8.0417 25.4078 6.69412 25.648C6.30472 25.7172 5.9394 25.869 5.61983 26.0881C5.0122 25.0297 3.81449 24.4261 2.56239 24.6156C1.6945 24.7469 0.92875 25.2485 0.461823 25.9919C-0.0052367 26.7353 -0.124661 27.6427 0.13387 28.4816L3.28519 38.7085C3.44611 39.2308 3.6061 39.7639 3.76808 40.3035C5.21979 45.1388 6.86501 50.6195 10.8312 53.8583C11.2581 54.2065 11.8863 54.1436 12.2347 53.7167C12.583 53.2899 12.5197 52.6615 12.0931 52.3131C8.59999 49.4609 7.048 44.2912 5.67887 39.73C5.51543 39.1856 5.35411 38.6479 5.1916 38.121L2.04028 27.8941C1.85928 27.3065 2.25426 26.6797 2.86069 26.5883C3.35155 26.5128 3.82127 26.8013 3.9782 27.2727L6.08063 34.3048C7.53368 39.1652 10.4299 43.3653 14.4565 46.4511L18.5642 49.5993C18.9643 49.9056 19.5295 49.8661 19.8824 49.5068C20.2354 49.1476 20.2653 48.5815 19.9519 48.1872L12.3659 38.6388C12.0697 38.2661 12.0972 37.7281 12.4298 37.3877C12.7908 37.0181 13.3999 37.0112 13.7693 37.372L14.923 38.4989C14.9239 38.4999 14.9248 38.5007 14.9258 38.5017L20.5942 44.0385C20.5958 44.0401 20.5974 44.0415 20.5988 44.043C20.6302 44.0736 20.6643 44.1011 20.6994 44.1273C20.7107 44.1357 20.7221 44.1437 20.7337 44.1517C20.7646 44.1727 20.7965 44.1921 20.8295 44.2095C20.8366 44.2134 20.8434 44.2179 20.8507 44.2215C20.8828 44.2374 20.9155 44.2518 20.9489 44.2643C20.984 44.2775 24.4871 45.6096 26.8335 48.943C29.087 52.1445 29.6117 56.2281 29.6641 56.6846V66.0005H20.1681V59.381C20.1681 59.0815 20.0335 58.7978 19.8016 58.6083L15.1916 54.8438C14.7647 54.4955 14.1363 54.5589 13.788 54.9855C13.4397 55.4123 13.5031 56.0407 13.9297 56.3891L18.1731 59.8543V66.9981C18.1731 67.5491 18.6196 67.9955 19.1705 67.9955H30.6614C31.2123 67.9955 31.6588 67.5491 31.6588 66.9981V56.631C31.6588 56.5991 31.6572 56.5673 31.6543 56.5355C31.6353 56.336 31.1545 51.6156 28.4648 47.7945ZM15.5716 33.303C15.6445 33.1852 15.814 32.9797 16.1324 32.9276C16.5324 32.8619 16.9129 33.094 17.0382 33.4788L19.0906 39.7814L16.5069 37.2575L15.4865 33.9714C15.3912 33.664 15.4988 33.4207 15.5716 33.303ZM7.9917 33.7334L6.44981 28.576C6.44981 28.5759 6.44981 28.5758 6.44968 28.5756C6.36497 28.2924 6.46391 28.0688 6.53054 27.9607C6.59703 27.8527 6.75223 27.6639 7.04321 27.612C7.41519 27.5468 7.78144 27.7668 7.89741 28.1251L9.17318 32.0694C9.17331 32.0698 9.17331 32.0701 9.17344 32.0704C9.17357 32.0708 9.17371 32.071 9.17384 32.0713L10.6067 36.5014C10.1601 37.224 10.0508 38.1038 10.2929 38.9051C9.31454 37.3035 8.54081 35.5698 7.9917 33.7334ZM13.0727 35.1076C12.8039 35.1108 12.5418 35.1523 12.2903 35.2246L11.0713 31.4557C11.0084 31.2603 11.0282 31.0539 11.1272 30.874C11.2263 30.6939 11.3904 30.5664 11.5896 30.515C11.9722 30.4166 12.3616 30.6345 12.4785 31.0107L13.7749 35.1855C13.5467 35.1328 13.3119 35.104 13.0727 35.1076Z" fill="#578AD6"/>
</svg>
