<svg width="68" height="63" viewBox="0 0 68 63" fill="none" xmlns="http://www.w3.org/2000/svg">
<path d="M36.8333 21.853C36.8333 22.5441 36.9666 23.2035 37.2063 23.8089C37.8522 24.088 38.564 24.2437 39.3121 24.2437C42.2459 24.2437 44.6246 21.865 44.6246 18.9312C44.6246 18.2401 44.4913 17.5807 44.2516 16.9748C43.6057 16.6956 42.8939 16.5405 42.1458 16.5405C39.2114 16.5405 36.8333 18.9187 36.8333 21.853Z" fill="#4AD4B9"/>
<path d="M26.9336 8.9419C26.9336 9.45811 27.0166 9.95512 27.1676 10.421C27.7932 10.7214 28.4947 10.89 29.2355 10.89C31.8762 10.89 34.0168 8.74943 34.0168 6.10874C34.0168 5.59253 33.9338 5.09604 33.7828 4.63016C33.1566 4.32925 32.4552 4.16064 31.7148 4.16064C29.0742 4.16064 26.9336 6.30173 26.9336 8.9419Z" fill="#4AD4B9"/>
<path d="M14.9187 27.1655C14.5696 27.1655 14.2266 27.3072 13.9797 27.5546C13.7327 27.8016 13.5906 28.144 13.5906 28.4937C13.5906 28.8428 13.7327 29.1852 13.9797 29.4322C14.2266 29.6791 14.5696 29.8218 14.9187 29.8218C15.2679 29.8218 15.6108 29.6796 15.8577 29.4322C16.1062 29.1852 16.2468 28.8428 16.2468 28.4937C16.2468 28.144 16.1062 27.8016 15.8577 27.5546C15.6108 27.3077 15.2679 27.1655 14.9187 27.1655Z" fill="#578AD6"/>
<path d="M67.1535 21.1094C66.4702 20.8433 65.6998 21.1815 65.4336 21.8653C65.127 22.6533 64.5314 23.2749 63.7569 23.6157C63.0975 23.9057 62.3753 23.9618 61.6884 23.7828C61.8975 23.6292 62.0978 23.459 62.2876 23.2718C64.0785 21.5068 64.1273 18.5963 62.3966 16.7836C61.4477 15.7901 60.2529 15.3383 59.0311 15.5131C57.9562 15.6667 57.0145 16.3146 56.4491 17.2884L56.4309 17.3201C56.3116 17.525 56.2203 17.7211 56.1507 17.9203C55.8156 18.8827 55.7253 19.8523 55.8473 20.7805C52.86 18.0199 49.121 16.1683 45.0977 15.4939C45.0598 15.4877 45.022 15.484 44.9841 15.4809C43.8168 13.5692 41.711 12.2908 39.3121 12.2908C37.0309 12.2908 35.0154 13.4472 33.8195 15.2044H24.9688C23.7533 15.2044 22.5559 15.3061 21.3834 15.5048C17.7539 11.894 12.4206 10.4278 7.45464 11.6792C7.04945 11.7814 6.71586 12.0683 6.55452 12.4532C6.39265 12.8382 6.4217 13.2771 6.63234 13.6376L10.7724 20.7172C8.15553 23.1234 6.16697 26.1833 5.05052 29.5477H3.05054C1.36859 29.5482 0 30.9168 0 32.5987V39.7789C0 41.4609 1.36859 42.8295 3.05054 42.8295H5.04222C5.90809 45.4432 7.29173 47.8489 9.16356 49.9915C12.0232 53.2646 14.061 57.1307 15.0576 61.1711L15.1349 61.484C15.2812 62.077 15.813 62.4941 16.4242 62.4941H24.9688C25.7019 62.4941 26.2969 61.899 26.2969 61.1659V57.1733H40.276V61.1659C40.276 61.899 40.8705 62.4941 41.6041 62.4941H50.2442C50.8605 62.4941 51.3959 62.0702 51.5371 61.47L51.5723 61.3211C52.5409 57.2013 54.5824 53.2579 57.4752 49.9168C60.7722 46.1078 62.5885 41.2326 62.5885 36.1888C62.5885 32.5842 61.6583 29.0605 59.9224 25.9529C60.0687 26.0193 60.2171 26.0842 60.3701 26.1433C61.0555 26.41 61.7699 26.5433 62.4843 26.5433C63.2801 26.5433 64.0754 26.3778 64.8261 26.0479C66.2497 25.4217 67.3449 24.2787 67.9088 22.8292C68.1755 22.1449 67.8367 21.3755 67.1535 21.1094ZM39.3121 14.9471C41.5092 14.9471 43.2964 16.7344 43.2964 18.9315C43.2964 21.1281 41.5092 22.9159 39.3121 22.9159C37.1155 22.9159 35.3277 21.1281 35.3277 18.9315C35.3277 16.7344 37.1155 14.9471 39.3121 14.9471ZM18.242 16.2934C16.338 16.9325 14.5311 17.8487 12.8616 19.028L9.89092 13.9479C12.8574 13.6688 15.853 14.5087 18.242 16.2934ZM55.467 48.1778C52.4989 51.606 50.3464 55.6205 49.2076 59.8373H42.9322V55.8446C42.9322 55.1115 42.3377 54.5165 41.6041 54.5165H24.9688C24.2352 54.5165 23.6407 55.1115 23.6407 55.8446V59.8373H17.455C16.3022 55.6407 14.1368 51.6465 11.1641 48.2437C9.32595 46.1394 8.02791 43.7519 7.30626 41.1465C7.14699 40.5711 6.62352 40.1727 6.02638 40.1727H3.05054C2.83317 40.1727 2.65626 39.9958 2.65626 39.7784V32.5982C2.65626 32.3808 2.83317 32.2039 3.05054 32.2039H6.03416C6.6313 32.2039 7.15477 31.806 7.31404 31.2307C9.49715 23.3584 16.7567 17.8607 24.9688 17.8607H32.7591C32.7025 18.2093 32.6719 18.5668 32.6719 18.9315C32.6719 20.4251 33.1679 21.8051 34.0032 22.9159H21.5167C20.7831 22.9159 20.1886 23.5104 20.1886 24.244C20.1886 24.9776 20.7831 25.5721 21.5167 25.5721H46.5166C47.2502 25.5721 47.8448 24.9776 47.8448 24.244C47.8448 23.5104 47.2502 22.9159 46.5166 22.9159H44.6209C45.4567 21.8051 45.9527 20.4251 45.9527 18.9315C45.9527 18.7432 45.9428 18.5569 45.9273 18.3727C49.2912 19.18 52.2546 20.8874 54.5793 23.2116C54.5892 23.2225 54.598 23.2334 54.6084 23.2437C54.6218 23.2577 54.6359 23.2702 54.6499 23.2837C57.9411 26.6118 59.9318 31.185 59.9318 36.1888C59.9323 40.594 58.3463 44.8518 55.467 48.1778ZM60.4231 21.3802C60.0604 21.7371 59.6231 21.9753 59.1603 22.093C58.4916 21.2168 58.2083 20.0879 58.6591 18.7945C58.6685 18.7686 58.6872 18.724 58.7261 18.657L58.7447 18.6254C58.8988 18.3603 59.1458 18.1797 59.4067 18.1429C59.4498 18.1367 59.4918 18.1336 59.5333 18.1336C59.9255 18.1336 60.2581 18.3904 60.4755 18.6181C61.2106 19.388 61.1873 20.6269 60.4231 21.3802Z" fill="#578AD6"/>
<path d="M54.4967 40.2806C53.8228 39.9911 53.042 40.3024 52.752 40.9758C51.4788 43.9361 49.0291 46.308 46.0314 47.4841C45.3487 47.7518 45.012 48.5228 45.2797 49.2055C45.4851 49.729 45.9863 50.0491 46.5165 50.0491C46.6779 50.0491 46.8423 50.0195 47.0011 49.9572C50.655 48.5238 53.6402 45.6325 55.1919 42.0258C55.4819 41.3519 55.1706 40.5706 54.4967 40.2806Z" fill="#578AD6"/>
<path d="M29.2356 12.2183C32.6042 12.2183 35.345 9.47747 35.345 6.1089C35.345 2.74033 32.6042 -0.000488281 29.2356 -0.000488281C25.867 -0.000488281 23.1262 2.74033 23.1262 6.1089C23.1262 9.47747 25.867 12.2183 29.2356 12.2183ZM29.2356 2.65577C31.1396 2.65577 32.6887 4.2049 32.6887 6.1089C32.6887 8.01289 31.1396 9.56203 29.2356 9.56203C27.3316 9.56203 25.7825 8.01289 25.7825 6.1089C25.7825 4.2049 27.3316 2.65577 29.2356 2.65577Z" fill="#578AD6"/>
</svg>
