<svg width="68" height="49" viewBox="0 0 68 49" fill="none" xmlns="http://www.w3.org/2000/svg">
<path d="M61.293 27.563V36.1958C61.293 37.663 62.4821 38.8521 63.9492 38.8521H67.0039V24.9067H63.9492C62.4821 24.9067 61.293 26.0958 61.293 27.563Z" fill="#4AD4B9"/>
<path d="M32.8279 26.9604C32.8279 33.929 27.1792 39.5776 20.2107 39.5776C13.2427 39.5776 7.59351 33.929 7.59351 26.9604C7.59351 19.9919 13.2427 14.3433 20.2107 14.3433C27.1792 14.3433 32.8279 19.9919 32.8279 26.9604Z" fill="#4AD4B9"/>
<path d="M27.9138 26.9604C27.9138 31.2146 24.4654 34.6636 20.2107 34.6636C15.9565 34.6636 12.5076 31.2146 12.5076 26.9604C12.5076 22.7063 15.9565 19.2573 20.2107 19.2573C24.4654 19.2573 27.9138 22.7063 27.9138 26.9604Z" fill="white"/>
<path d="M61.6914 5.71045H28.1796V3.65186C28.1796 1.63788 26.5412 -0.000488281 24.5273 -0.000488281H15.8944C13.881 -0.000488281 12.2421 1.63788 12.2421 3.65186V5.71045H6.30859C2.83005 5.71045 0 8.5405 0 12.019V41.9019C0 45.3804 2.83005 48.2104 6.30859 48.2104H10.1835C10.7339 48.2104 11.1796 47.7648 11.1796 47.2144C11.1796 46.6639 10.7339 46.2183 10.1835 46.2183H6.30859C3.92834 46.2183 1.99219 44.2821 1.99219 41.9019V12.019C1.99219 9.63879 3.92834 7.70264 6.30859 7.70264H61.6914C64.0717 7.70264 66.0078 9.63879 66.0078 12.019V23.9109H63.9492C61.9352 23.9109 60.2969 25.5493 60.2969 27.5633V36.1961C60.2969 38.2096 61.9352 39.8484 63.9492 39.8484H66.0078V41.9019C66.0078 44.2821 64.0717 46.2183 61.6914 46.2183H14.8319C14.282 46.2183 13.8358 46.6639 13.8358 47.2144C13.8358 47.7648 14.282 48.2104 14.8319 48.2104H61.6914C65.17 48.2104 68 45.3804 68 41.9019V12.019C68 8.5405 65.17 5.71045 61.6914 5.71045ZM14.2343 5.71045V3.65186C14.2343 2.73618 14.9793 1.9917 15.8944 1.9917H24.5273C25.4429 1.9917 26.1874 2.73618 26.1874 3.65186V5.71045H14.2343ZM63.9492 37.8563C63.0335 37.8563 62.2891 37.1113 62.2891 36.1961V27.5633C62.2891 26.6476 63.0335 25.9031 63.9492 25.9031H66.0078V37.8563H63.9492Z" fill="#578AD6"/>
<path d="M57.9248 20.7876H50.7094C50.1594 20.7876 49.7133 21.2332 49.7133 21.7837C49.7133 22.3336 50.1594 22.7798 50.7094 22.7798H57.9248C59.2062 22.7798 60.249 21.737 60.249 20.4556V16.0728C60.249 14.7913 59.2062 13.7485 57.9248 13.7485H41.3232C40.0418 13.7485 38.999 14.7913 38.999 16.0728V20.4556C38.999 21.737 40.0418 22.7798 41.3232 22.7798H46.0609C46.6114 22.7798 47.057 22.3336 47.057 21.7837C47.057 21.2332 46.6114 20.7876 46.0609 20.7876H41.3232C41.1401 20.7876 40.9912 20.6387 40.9912 20.4556V16.0728C40.9912 15.8896 41.1401 15.7407 41.3232 15.7407H57.9248C58.1079 15.7407 58.2568 15.8896 58.2568 16.0728V20.4556C58.2568 20.6387 58.1079 20.7876 57.9248 20.7876Z" fill="#578AD6"/>
<path d="M8.78311 21.5131C8.2695 21.3159 7.69363 21.5727 7.49649 22.0863C6.89987 23.6412 6.59741 25.2811 6.59741 26.9604C6.59741 34.4669 12.7042 40.5737 20.2107 40.5737C27.7172 40.5737 33.824 34.4669 33.824 26.9604C33.824 19.4539 27.7172 13.3472 20.2107 13.3472C16.3788 13.3472 12.7032 14.9757 10.1268 17.8156C9.7569 18.2228 9.78751 18.8527 10.1953 19.2226C10.6025 19.5919 11.2324 19.5613 11.6023 19.1541C13.802 16.7297 16.9397 15.3394 20.2107 15.3394C26.6189 15.3394 31.8318 20.5528 31.8318 26.9604C31.8318 33.3681 26.6189 38.5815 20.2107 38.5815C13.803 38.5815 8.5896 33.3681 8.5896 26.9604C8.5896 25.526 8.84744 24.1263 9.35638 22.7997C9.55353 22.2861 9.29672 21.7102 8.78311 21.5131Z" fill="#578AD6"/>
</svg>
