<svg width="28" height="22" viewBox="0 0 28 22" fill="none" xmlns="http://www.w3.org/2000/svg">
<g clip-path="url(#clip0)">
<path d="M23.6404 21.7016V21.7587H23.6926C23.7045 21.7587 23.714 21.7563 23.7211 21.7517C23.7281 21.747 23.7317 21.7397 23.7317 21.7297C23.7317 21.7205 23.7281 21.7135 23.7211 21.7086C23.7139 21.704 23.7045 21.7015 23.6926 21.7015H23.6404V21.7016ZM23.6931 21.6615C23.7204 21.6615 23.7414 21.6677 23.756 21.6798C23.7709 21.6921 23.7782 21.7086 23.7782 21.7298C23.7782 21.7475 23.7724 21.7623 23.7606 21.7738C23.7488 21.7852 23.7322 21.7922 23.7103 21.7949L23.7798 21.8757H23.7255L23.6613 21.7955H23.6403V21.8757H23.5952V21.6615H23.693H23.6931ZM23.6796 21.9492C23.7044 21.9492 23.7272 21.9447 23.7486 21.9352C23.77 21.9257 23.7885 21.9129 23.8046 21.8968C23.8207 21.8806 23.8331 21.8614 23.8423 21.8396C23.8515 21.8177 23.856 21.7944 23.856 21.7694C23.856 21.7446 23.8515 21.7214 23.8423 21.6995C23.8332 21.6776 23.8207 21.6585 23.8046 21.6422C23.7884 21.6262 23.7699 21.6136 23.7486 21.6041C23.7272 21.5949 23.7044 21.5903 23.6796 21.5903C23.6546 21.5903 23.6312 21.5949 23.6094 21.6041C23.5875 21.6136 23.5688 21.6262 23.5527 21.6422C23.5366 21.6586 23.5241 21.6777 23.515 21.6995C23.5059 21.7214 23.5013 21.7446 23.5013 21.7694C23.5013 21.7944 23.5059 21.8177 23.515 21.8396C23.5241 21.8614 23.5366 21.8806 23.5527 21.8968C23.5688 21.9129 23.5875 21.9257 23.6094 21.9352C23.6313 21.9447 23.6546 21.9492 23.6796 21.9492ZM23.6796 21.5386C23.7118 21.5386 23.7419 21.5447 23.7702 21.5569C23.7983 21.569 23.8228 21.5853 23.844 21.6065C23.8649 21.6274 23.8817 21.6518 23.8937 21.6798C23.9058 21.7079 23.912 21.7378 23.912 21.7693C23.912 21.8012 23.9058 21.831 23.8937 21.8589C23.8818 21.8866 23.8649 21.9112 23.844 21.932C23.8228 21.9529 23.7983 21.9694 23.7702 21.9818C23.7419 21.9939 23.7118 22.0003 23.6796 22.0003C23.6468 22.0003 23.6161 21.9939 23.5875 21.9818C23.5592 21.9694 23.5344 21.953 23.5134 21.932C23.4926 21.9112 23.4759 21.8866 23.464 21.8589C23.4517 21.831 23.4457 21.8012 23.4457 21.7693C23.4457 21.7378 23.4517 21.7079 23.464 21.6798C23.4759 21.6518 23.4926 21.6274 23.5134 21.6065C23.5344 21.5853 23.5591 21.569 23.5875 21.5569C23.6161 21.5448 23.6468 21.5386 23.6796 21.5386ZM20.2234 19.5002C20.3242 19.5002 20.4683 19.5196 20.5786 19.5634L20.425 20.0385C20.3194 19.9949 20.2138 19.9804 20.113 19.9804C19.7865 19.9804 19.6233 20.1937 19.6233 20.5767V21.8762H19.1241V19.5585H19.6185V19.8397C19.7481 19.6361 19.9354 19.5002 20.2234 19.5002H20.2234ZM18.4957 20.0191H17.6796V21.0664C17.6796 21.2991 17.7612 21.4545 18.0109 21.4545C18.1405 21.4545 18.3037 21.4108 18.4526 21.3234L18.5965 21.755C18.4381 21.8665 18.1885 21.9344 17.9725 21.9344C17.3821 21.9344 17.1757 21.6144 17.1757 21.0762V20.0191H16.71V19.5585H17.1757L17.1755 18.8555H17.6796L17.6796 19.5585H18.4957V20.0191ZM16.0968 20.15C15.9576 20.0628 15.6744 19.9513 15.3816 19.9513C15.108 19.9513 14.9448 20.0531 14.9448 20.2228C14.9448 20.378 15.1176 20.4215 15.3336 20.4507L15.5689 20.4845C16.068 20.5573 16.3704 20.7708 16.3704 21.1779C16.3704 21.6191 15.9865 21.9344 15.3239 21.9344C14.9496 21.9344 14.6039 21.8374 14.3304 21.6336L14.5656 21.241C14.7337 21.3719 14.9832 21.4833 15.3288 21.4833C15.6696 21.4833 15.8521 21.3815 15.8521 21.2021C15.8521 21.0712 15.7223 20.9984 15.4489 20.9598L15.2136 20.9259C14.7 20.8531 14.4216 20.6202 14.4216 20.2421C14.4216 19.7814 14.796 19.5002 15.3768 19.5002C15.7417 19.5002 16.0729 19.5826 16.3129 19.7427L16.0968 20.15L16.0968 20.15ZM12.2856 20.5136C12.3383 20.1791 12.5399 19.9513 12.8951 19.9513C13.2167 19.9513 13.4231 20.1548 13.476 20.5136H12.2856ZM13.9944 20.7174C13.9896 19.9949 13.5481 19.5002 12.9048 19.5002C12.2327 19.5002 11.7624 19.9949 11.7624 20.7174C11.7624 21.4545 12.252 21.9344 12.9385 21.9344C13.2841 21.9344 13.6009 21.8471 13.8793 21.6096L13.6345 21.2362C13.4425 21.3914 13.1976 21.4785 12.9672 21.4785C12.6456 21.4785 12.3527 21.3282 12.2807 20.9113H13.9848C13.9896 20.8482 13.9944 20.7854 13.9944 20.7174ZM21.9602 19.9744C21.8581 19.9744 21.7629 19.9925 21.6752 20.0288C21.5872 20.0651 21.5115 20.1159 21.4476 20.1812C21.3836 20.2466 21.3334 20.3249 21.2966 20.4161C21.2599 20.5072 21.2416 20.6076 21.2416 20.7174C21.2416 20.8271 21.2599 20.9277 21.2966 21.0187C21.3334 21.1097 21.3836 21.1882 21.4476 21.2534C21.5115 21.3188 21.5872 21.3696 21.6752 21.4059C21.763 21.4424 21.8581 21.4604 21.9602 21.4604C22.0624 21.4604 22.1576 21.4424 22.2453 21.4059C22.3333 21.3695 22.4094 21.3188 22.4741 21.2534C22.5388 21.1882 22.5896 21.1098 22.6263 21.0187C22.6631 20.9277 22.6816 20.8271 22.6816 20.7174C22.6816 20.6077 22.6631 20.5072 22.6263 20.4161C22.5896 20.3249 22.5388 20.2466 22.4741 20.1812C22.4094 20.1159 22.3333 20.0651 22.2453 20.0288C22.1575 19.9925 22.0624 19.9744 21.9602 19.9744ZM21.9602 19.4975C22.1376 19.4975 22.3018 19.5286 22.4527 19.5907C22.6037 19.6528 22.7342 19.7384 22.8443 19.8472C22.9546 19.9561 23.0409 20.0848 23.1032 20.2333C23.1654 20.3818 23.1967 20.5431 23.1967 20.7174C23.1967 20.8917 23.1654 21.0529 23.1032 21.2012C23.0409 21.3499 22.9546 21.4785 22.8443 21.5875C22.7342 21.6963 22.6037 21.7818 22.4527 21.8439C22.3018 21.9061 22.1376 21.9371 21.9602 21.9371C21.7831 21.9371 21.619 21.9061 21.468 21.8439C21.3168 21.7818 21.1868 21.6964 21.0774 21.5875C20.9678 21.4786 20.8819 21.3499 20.8197 21.2012C20.7574 21.0529 20.7262 20.8917 20.7262 20.7174C20.7262 20.5431 20.7575 20.3818 20.8197 20.2333C20.8819 20.0848 20.9678 19.9561 21.0774 19.8472C21.1868 19.7385 21.3168 19.6528 21.468 19.5907C21.619 19.5286 21.7831 19.4975 21.9602 19.4975ZM9.42018 20.7174C9.42018 20.31 9.6842 19.9755 10.1162 19.9755C10.5291 19.9755 10.8074 20.2955 10.8074 20.7174C10.8074 21.1391 10.5291 21.4591 10.1162 21.4591C9.6842 21.4591 9.42018 21.1246 9.42018 20.7174ZM11.278 20.7174V19.5584H10.7786V19.8396C10.6202 19.6312 10.3802 19.5002 10.0538 19.5002C9.41055 19.5002 8.90655 20.0094 8.90655 20.7173C8.90655 21.4253 9.41055 21.9344 10.0538 21.9344C10.3802 21.9344 10.6203 21.8033 10.7786 21.595V21.8761H11.278V20.7173V20.7174ZM8.46494 21.8762V20.4215C8.46494 19.8737 8.1193 19.505 7.5624 19.5002C7.26962 19.4954 6.9671 19.5875 6.75598 19.9124C6.59757 19.6554 6.34791 19.5002 5.9975 19.5002C5.75261 19.5002 5.51267 19.5729 5.3254 19.8445V19.5584H4.82617V21.8761H5.33022V20.5912C5.33022 20.1888 5.55102 19.9754 5.89184 19.9754C6.22312 19.9754 6.39107 20.1936 6.39107 20.5863V21.8761H6.89522V20.5912C6.89522 20.1888 7.12556 19.9754 7.45679 19.9754C7.79761 19.9754 7.96079 20.1936 7.96079 20.5863V21.8761H8.46494V21.8762Z" fill="black"/>
<path d="M10.2144 15.6122H17.7858V1.86865H10.2144V15.6122Z" fill="#7673C0"/>
<path d="M10.6951 8.74065C10.6951 5.9525 11.9874 3.4693 13.9999 1.86888C12.5281 0.698494 10.6711 0 8.65244 0C3.87378 0 0 3.91339 0 8.74065C0 13.5678 3.87378 17.4811 8.65244 17.4811C10.6711 17.4811 12.5281 16.7827 13.9999 15.6124C11.9874 14.0119 10.6951 11.5289 10.6951 8.74065Z" fill="#EB001B"/>
<path d="M27.73 14.1566V13.8174H27.6422L27.5415 14.0507L27.4405 13.8174H27.3529V14.1566H27.4149V13.9008L27.5093 14.1214H27.5735L27.6682 13.9003V14.1567H27.73L27.73 14.1566ZM27.1747 14.1566V13.8753H27.287V13.8181H27.001V13.8753H27.1132V14.1566H27.1748H27.1747Z" fill="#00A1DF"/>
<path d="M28.0001 8.74065C28.0001 13.5678 24.1263 17.4811 19.3476 17.4811C17.329 17.4811 15.4718 16.7827 14 15.6124C16.0127 14.0119 17.305 11.5289 17.305 8.74065C17.305 5.9525 16.0127 3.4693 14 1.86888C15.4718 0.698494 17.329 0 19.3476 0C24.1263 0 28.0001 3.91339 28.0001 8.74065Z" fill="#00A1DF"/>
</g>
<defs>
<clipPath id="clip0">
<rect width="28" height="22" fill="white"/>
</clipPath>
</defs>
</svg>
