<svg width="17" height="21" viewBox="0 0 17 21" fill="none" xmlns="http://www.w3.org/2000/svg">
<path d="M8.5001 1.04199C4.34894 1.04199 0.962891 4.42804 0.962891 8.59548C0.962891 9.10013 1.01173 9.60478 1.1094 10.0932C1.1094 10.1257 1.12568 10.1583 1.12568 10.2071C1.95591 13.935 7.8001 19.535 8.04428 19.7629C8.17452 19.8932 8.33731 19.942 8.5001 19.942C8.66289 19.942 8.82568 19.8769 8.95591 19.7629C9.2001 19.5187 15.0117 13.935 15.842 10.2885C15.842 10.2559 15.8582 10.2234 15.8582 10.1908C15.9722 9.6699 16.021 9.13269 16.021 8.59548C16.0373 4.42804 12.6513 1.04199 8.5001 1.04199V1.04199ZM14.5559 9.94664C14.5559 9.9792 14.5559 9.96292 14.5559 9.99548C13.9373 12.6978 9.88382 16.9629 8.5001 18.3466C7.11638 16.9629 3.04661 12.6978 2.42801 9.93036C2.42801 9.89781 2.42801 9.88153 2.41173 9.84897C2.33033 9.42571 2.28149 9.00246 2.28149 8.5792C2.28149 5.1606 5.06522 2.3606 8.48382 2.3606C11.9024 2.3606 14.7024 5.14432 14.7024 8.5792C14.7024 9.05129 14.6536 9.50711 14.5559 9.94664V9.94664Z" fill="#4AD4B9" stroke="#4AD4B9" stroke-width="0.5"/>
<path d="M8.50031 5.29102C7.10031 5.29102 5.97705 6.43055 5.97705 7.81427C5.97705 9.19799 7.11659 10.3375 8.50031 10.3375C9.88403 10.3375 11.0236 9.21427 11.0236 7.81427C11.0236 6.41427 9.90031 5.29102 8.50031 5.29102ZM8.50031 9.01892C7.83287 9.01892 7.29566 8.48171 7.29566 7.81427C7.29566 7.14683 7.83287 6.60962 8.50031 6.60962C9.16775 6.60962 9.70496 7.14683 9.70496 7.81427C9.70496 8.48171 9.16775 9.01892 8.50031 9.01892Z" fill="#4AD4B9" stroke="#4AD4B9" stroke-width="0.5"/>
</svg>
