<svg width="29" height="22" viewBox="0 0 29 22" fill="none" xmlns="http://www.w3.org/2000/svg">
<g clip-path="url(#clip0)">
<path d="M28.4253 21.7019V21.759H28.4791C28.4916 21.759 28.5015 21.7566 28.5087 21.752C28.5162 21.7473 28.5196 21.74 28.5196 21.7301C28.5196 21.7206 28.5162 21.7136 28.5087 21.7089C28.5015 21.7044 28.4916 21.7019 28.4791 21.7019H28.4253ZM28.4798 21.6619C28.5079 21.6619 28.5296 21.668 28.5451 21.6801C28.5602 21.6924 28.568 21.709 28.568 21.7301C28.568 21.7478 28.5617 21.7626 28.5496 21.7741C28.5374 21.7855 28.5202 21.7925 28.4978 21.7951L28.5697 21.876H28.5135L28.4468 21.7956H28.4254V21.876H28.3783V21.6619H28.4799H28.4798ZM28.4659 21.9495C28.4913 21.9495 28.5152 21.9447 28.5371 21.9355C28.5592 21.926 28.5784 21.9131 28.5951 21.8969C28.6118 21.8808 28.6247 21.8617 28.6342 21.8398C28.6436 21.818 28.6484 21.7946 28.6484 21.7696C28.6484 21.7448 28.6436 21.7217 28.6342 21.6997C28.6247 21.6779 28.6118 21.6588 28.5951 21.6425C28.5784 21.6264 28.5592 21.6135 28.5371 21.6043C28.5152 21.5951 28.4913 21.5905 28.4659 21.5905C28.44 21.5905 28.4156 21.5951 28.3932 21.6043C28.3705 21.6135 28.3508 21.6264 28.3342 21.6425C28.3177 21.6588 28.3045 21.6779 28.2951 21.6997C28.2856 21.7217 28.2809 21.7449 28.2809 21.7696C28.2809 21.7946 28.2856 21.818 28.2951 21.8398C28.3045 21.8617 28.3177 21.8809 28.3342 21.8969C28.3508 21.9131 28.3705 21.926 28.3932 21.9355C28.4156 21.9447 28.4399 21.9495 28.4659 21.9495ZM28.4659 21.5389C28.499 21.5389 28.5304 21.545 28.5595 21.5572C28.5886 21.5691 28.6143 21.5856 28.6359 21.6068C28.6578 21.6277 28.675 21.6521 28.6877 21.6801C28.7001 21.7083 28.7064 21.7381 28.7064 21.7697C28.7064 21.8015 28.7002 21.8311 28.6877 21.859C28.675 21.8869 28.6578 21.9114 28.6359 21.9324C28.6143 21.9533 28.5886 21.9697 28.5595 21.982C28.5304 21.9942 28.499 22.0003 28.4659 22.0003C28.4318 22.0003 28.4002 21.9942 28.3705 21.982C28.3409 21.9697 28.3153 21.9533 28.2936 21.9324C28.2719 21.9114 28.255 21.8869 28.2423 21.859C28.2299 21.8311 28.2237 21.8015 28.2237 21.7697C28.2237 21.7381 28.2299 21.7083 28.2423 21.6801C28.255 21.6521 28.2719 21.6277 28.2936 21.6068C28.3153 21.5856 28.3409 21.5691 28.3705 21.5572C28.4002 21.545 28.4318 21.5389 28.4659 21.5389ZM6.26581 20.715C6.26581 20.3072 6.53969 19.9722 6.98766 19.9722C7.41588 19.9722 7.70458 20.2926 7.70458 20.715C7.70458 21.1375 7.41588 21.4579 6.98766 21.4579C6.53969 21.4579 6.26581 21.1229 6.26581 20.715ZM8.19246 20.715V19.5547H7.67469V19.8363C7.51034 19.6276 7.26151 19.4964 6.92299 19.4964C6.25589 19.4964 5.73322 20.0062 5.73322 20.715C5.73322 21.424 6.25593 21.9338 6.92299 21.9338C7.26151 21.9338 7.51034 21.8027 7.67469 21.5939V21.8756H8.19246V20.715ZM25.6762 20.715C25.6762 20.3072 25.95 19.9722 26.3982 19.9722C26.8261 19.9722 27.1148 20.2926 27.1148 20.715C27.1148 21.1375 26.8261 21.4579 26.3982 21.4579C25.95 21.4579 25.6762 21.1229 25.6762 20.715ZM27.6027 20.715V18.6226H27.085V19.8363C26.9206 19.6275 26.6717 19.4964 26.3333 19.4964C25.6662 19.4964 25.1434 20.0062 25.1434 20.715C25.1434 21.4239 25.6662 21.9337 26.3333 21.9337C26.6717 21.9337 26.9206 21.8027 27.085 21.5938V21.8755H27.6027V20.715V20.715ZM14.6144 19.948C14.948 19.948 15.162 20.1519 15.2168 20.5111H13.9822C14.037 20.1762 14.2461 19.948 14.6144 19.948H14.6144ZM14.6244 19.4964C13.9274 19.4964 13.4396 19.9917 13.4396 20.715C13.4396 21.453 13.9474 21.9337 14.6592 21.9337C15.0177 21.9337 15.3462 21.8461 15.635 21.6084L15.3811 21.2345C15.1819 21.3899 14.928 21.4773 14.6891 21.4773C14.3556 21.4773 14.0519 21.3268 13.9772 20.9092H15.7444C15.7495 20.846 15.7544 20.783 15.7544 20.715C15.7495 19.9917 15.2914 19.4964 14.6244 19.4964ZM20.8721 20.715C20.8721 20.3072 21.1458 19.9722 21.5939 19.9722C22.0221 19.9722 22.3109 20.2926 22.3109 20.715C22.3109 21.1374 22.0221 21.4579 21.5939 21.4579C21.1458 21.4579 20.8721 21.1229 20.8721 20.715ZM22.7988 20.715V19.5547H22.281V19.8363C22.1167 19.6275 21.8677 19.4964 21.5291 19.4964C20.8621 19.4964 20.3394 20.0062 20.3394 20.715C20.3394 21.4239 20.8621 21.9337 21.5291 21.9337C21.8677 21.9337 22.1167 21.8027 22.281 21.5938V21.8755H22.7988V20.715ZM17.9498 20.715C17.9498 21.4191 18.4526 21.9337 19.2193 21.9337C19.5778 21.9337 19.8166 21.8561 20.0756 21.657L19.8267 21.2491C19.6325 21.385 19.4284 21.4579 19.2044 21.4579C18.7911 21.453 18.4875 21.1616 18.4875 20.715C18.4875 20.2684 18.7911 19.977 19.2044 19.9722C19.4284 19.9722 19.6325 20.045 19.8267 20.1809L20.0756 19.7732C19.8166 19.5741 19.5778 19.4964 19.2193 19.4964C18.4526 19.4964 17.9498 20.011 17.9498 20.715V20.715ZM24.6209 19.4964C24.3221 19.4964 24.1279 19.6325 23.9935 19.8363V19.5547H23.4806V21.8755H23.9984V20.5743C23.9984 20.1907 24.1677 19.977 24.5063 19.977C24.6109 19.977 24.7204 19.9917 24.83 20.0353L24.9893 19.5595C24.8746 19.5159 24.7252 19.4964 24.6209 19.4964V19.4964ZM10.7512 19.7391C10.5023 19.579 10.1588 19.4964 9.78058 19.4964C9.17814 19.4964 8.78979 19.778 8.78979 20.2392C8.78979 20.6179 9.0785 20.851 9.61129 20.9238L9.85518 20.9578C10.1389 20.9966 10.2734 21.0695 10.2734 21.2006C10.2734 21.3802 10.0842 21.4822 9.73076 21.4822C9.37234 21.4822 9.11342 21.3705 8.93919 21.2394L8.6953 21.6328C8.97892 21.8364 9.33748 21.9338 9.72572 21.9338C10.4127 21.9338 10.8109 21.6182 10.8109 21.1763C10.8109 20.7684 10.4973 20.5548 9.97959 20.482L9.73564 20.448C9.51158 20.4188 9.3324 20.3753 9.3324 20.2199C9.3324 20.0499 9.50163 19.948 9.78546 19.948C10.0891 19.948 10.3828 20.0597 10.5273 20.147L10.7512 19.7391H10.7512ZM17.4271 19.4964C17.1285 19.4964 16.9343 19.6325 16.7998 19.8363V19.5547H16.2871V21.8755H16.8049V20.5743C16.8049 20.1907 16.974 19.977 17.3127 19.977C17.4172 19.977 17.5267 19.9917 17.6362 20.0353L17.7955 19.5595C17.681 19.5159 17.5316 19.4964 17.4271 19.4964V19.4964ZM13.0115 19.5547H12.1651V18.8507H11.6424V19.5547H11.1594V20.016H11.6424V21.0743C11.6424 21.6133 11.8565 21.9337 12.4688 21.9337C12.6928 21.9337 12.9516 21.8656 13.116 21.7541L12.9666 21.322C12.8122 21.4093 12.643 21.453 12.5086 21.453C12.2497 21.453 12.1651 21.2977 12.1651 21.0645V20.016H13.0115V19.5547ZM5.27516 21.8755V20.4188C5.27516 19.8703 4.91673 19.5013 4.33926 19.4964C4.03554 19.4916 3.72192 19.5838 3.50288 19.9091C3.33859 19.6518 3.07974 19.4964 2.71631 19.4964C2.4624 19.4964 2.21344 19.5693 2.01937 19.8412V19.5547H1.50146V21.8755H2.02431V20.5888C2.02431 20.1858 2.25331 19.9722 2.60672 19.9722C2.95025 19.9722 3.12455 20.1907 3.12455 20.5839V21.8755H3.64726V20.5888C3.64726 20.1858 3.88621 19.9722 4.22974 19.9722C4.58315 19.9722 4.75238 20.1907 4.75238 20.5839V21.8755H5.27516Z" fill="black"/>
<path d="M10.5791 15.6115H18.4209V1.86865H10.5791V15.6115Z" fill="#FF5F00"/>
<path d="M11.077 8.74012C11.077 5.95203 12.4157 3.46899 14.5 1.86865C12.9757 0.698227 11.0521 0 8.96154 0C4.01223 0 0 3.91316 0 8.74012C0 13.5671 4.01223 17.4802 8.96154 17.4802C11.0521 17.4802 12.9757 16.7819 14.5 15.6115C12.4157 14.0112 11.077 11.5282 11.077 8.74012Z" fill="#EB001B"/>
<path d="M28.7202 14.156V13.8168H28.6296L28.525 14.0501L28.4204 13.8168H28.3296V14.156H28.3938V13.9002L28.4916 14.1207H28.5581L28.6562 13.8996V14.156H28.7202ZM28.1451 14.156V13.8746H28.2614V13.8174H27.9651V13.8746H28.0813V14.156H28.1451ZM29 8.74012C29 13.5671 24.9879 17.4802 20.0386 17.4802C17.948 17.4802 16.0244 16.7819 14.5 15.6115C16.5844 14.0112 17.9231 11.5282 17.9231 8.74012C17.9231 5.95203 16.5844 3.46899 14.5 1.86865C16.0244 0.698227 17.948 0 20.0386 0C24.9879 0 29 3.91316 29 8.74012Z" fill="#F79E1B"/>
</g>
<defs>
<clipPath id="clip0">
<rect width="29" height="22" fill="white"/>
</clipPath>
</defs>
</svg>
