<svg width="18" height="11" viewBox="0 0 18 11" fill="none" xmlns="http://www.w3.org/2000/svg">
<path d="M0 0.701388C0 0.314022 0.314022 0 0.701388 0H16.78C17.1674 0 17.4814 0.314022 17.4814 0.701388C17.4814 1.08875 17.1674 1.40278 16.78 1.40278H0.701386C0.31402 1.40278 0 1.08875 0 0.701388Z" fill="#373737"/>
<path d="M0 5.48361C0 5.09625 0.314022 4.78223 0.701388 4.78223H16.78C17.1674 4.78223 17.4814 5.09625 17.4814 5.48361C17.4814 5.87098 17.1674 6.185 16.78 6.185H0.701386C0.31402 6.185 0 5.87098 0 5.48361Z" fill="#373737"/>
<path d="M0.701388 9.19141C0.314022 9.19141 0 9.50543 0 9.89279C0 10.2802 0.314023 10.5942 0.701389 10.5942H10.6615C11.0489 10.5942 11.3629 10.2802 11.3629 9.89279C11.3629 9.50543 11.0489 9.19141 10.6615 9.19141H0.701388Z" fill="#373737"/>
</svg>
