<svg width="23" height="18" viewBox="0 0 23 18" fill="none" xmlns="http://www.w3.org/2000/svg">
<path d="M3.89778 2.53629C3.56009 2.23478 3.04677 2.26543 2.74595 2.60231C2.66849 2.68908 2.61295 2.78745 2.57891 2.89083C2.48046 3.18977 2.56171 3.53062 2.81201 3.75416L8.09316 8.47453L2.83065 13.4012C2.5049 13.7089 2.48736 14.2214 2.79398 14.5521L2.7967 14.5549C2.95647 14.7206 3.17197 14.8118 3.39131 14.8118C3.59006 14.8118 3.78917 14.7394 3.94575 14.5949L3.94674 14.594L9.31661 9.57051L10.674 10.7831C10.8308 10.9218 11.0243 10.9881 11.2163 10.9881C11.4097 10.9881 11.6083 10.9162 11.7603 10.7769L13.156 9.52618L18.4934 14.5972C18.652 14.7493 18.8575 14.8209 19.0549 14.8209C19.2721 14.8209 19.4837 14.7358 19.6449 14.5686L19.6464 14.567C19.9534 14.2419 19.9424 13.7237 19.6155 13.4149L14.3698 8.4343L19.589 3.75387L19.59 3.75295C19.8349 3.53033 19.9152 3.19195 19.8184 2.8943C19.7844 2.78968 19.7285 2.69009 19.6502 2.60232L19.649 2.60099C19.3481 2.27003 18.8353 2.23989 18.4979 2.54115L18.1048 2.89396L11.2114 9.08121L9.94439 7.9497L9.89647 7.90178C9.85949 7.8648 9.82255 7.83294 9.78215 7.80218L4.29435 2.89117L3.89778 2.53629Z" fill="#4AD4B9"/>
<path fill-rule="evenodd" clip-rule="evenodd" d="M2.89025 0C1.29584 0 0 1.29584 0 2.89031V14.2522C0 15.8466 1.29584 17.1424 2.89025 17.1424H19.5098C21.1042 17.1424 22.4 15.8466 22.4 14.2522V2.89482C22.4046 1.30055 21.1088 0 19.5143 0H2.89025ZM1.62907 2.89064C1.63134 2.19729 2.1964 1.63364 2.89025 1.63364H19.5098C20.2049 1.63364 20.7708 2.19939 20.771 2.8945V14.3597C20.7162 15.0049 20.1733 15.5134 19.5143 15.5134H2.89025C2.19501 15.5134 1.62907 14.9475 1.62907 14.2522V2.89482L1.62907 2.89064Z" fill="#4AD4B9"/>
</svg>
