<svg width="38" height="11" viewBox="0 0 38 11" fill="none" xmlns="http://www.w3.org/2000/svg">
<g clip-path="url(#clip0)">
<path d="M21.1571 1.16196L18.7564 6.50008H18.5129V2.2117e-05H15.1025V11H17.9967C18.7569 11 19.4476 10.5464 19.7662 9.83813L22.1668 4.50004H22.4104V11H25.8206V0H22.9264C22.1664 0 21.4755 0.45362 21.157 1.16194L21.1571 1.16196Z" fill="#35973F"/>
<path d="M8.363 1.44568L6.94235 6.49996H6.69879L5.27825 1.44568C5.03758 0.589551 4.27408 0 3.40587 0H0V11H3.41035V4.50003H3.65391L5.60264 11H8.03856L9.9873 4.50003H10.2309V11H13.6412V0H10.2354C9.36717 0 8.60361 0.589551 8.36304 1.44568H8.363Z" fill="#35973F"/>
<path d="M27.2822 5V11H30.6859V7.49999H34.3464C35.9367 7.49999 37.2858 6.45547 37.7878 5H27.2822H27.2822Z" fill="#35973F"/>
<path fill-rule="evenodd" clip-rule="evenodd" d="M31.904 4.49727V4.49263H31.7891C31.6779 4.4869 31.5675 4.47785 31.4583 4.46527V4.4631H31.4407C31.4129 4.45981 31.3853 4.45624 31.3576 4.45253V4.44839H31.327C31.3036 4.4451 31.2803 4.44145 31.257 4.43784V4.43362H31.2291C31.1516 4.42119 31.0746 4.40701 30.9982 4.3912V4.38936H30.9888C30.9727 4.38602 30.9567 4.38224 30.9407 4.37879V4.37461H30.9218C30.9041 4.37067 30.8864 4.36696 30.8688 4.36282V4.35986H30.8566L30.8113 4.34873V4.34509H30.7965C30.7774 4.34035 30.7584 4.33564 30.7394 4.33066V4.33033H30.7381C30.6855 4.31658 30.6332 4.30193 30.5812 4.28659V4.28608H30.5796L30.5381 4.27387V4.27132H30.5293C30.5178 4.26781 30.5064 4.26396 30.4949 4.26038V4.25662H30.4832L30.4518 4.24662V4.24184H30.4368L30.3943 4.22771V4.22709H30.3924L30.3511 4.21291V4.21234H30.3494C30.3357 4.20756 30.3218 4.20296 30.308 4.19812V4.19756H30.3064C30.2538 4.17883 30.2018 4.15899 30.1499 4.13862V4.13853H30.1497C30.1258 4.12911 30.1018 4.11971 30.078 4.10996V4.10903H30.0758L30.0492 4.09786V4.09426H30.0407L30.0061 4.0797V4.0795H30.0056L29.9773 4.06749V4.06473H29.9712L29.9486 4.05469V4.05H29.9381L29.9054 4.0354V4.03523H29.905C29.8956 4.03096 29.8861 4.02695 29.8767 4.0226V4.02047H29.8722C29.8009 3.98763 29.7306 3.95322 29.661 3.91732V3.91719H29.6608C29.6174 3.89476 29.5744 3.87163 29.5317 3.84805V3.84341H29.5233L29.5029 3.83206V3.82863H29.4967L29.4741 3.81605V3.81388H29.4702L29.4453 3.79948V3.7991H29.4447C29.3719 3.75715 29.3003 3.71345 29.2297 3.66819V3.66631H29.2268C29.2134 3.65769 29.1999 3.64913 29.1865 3.64037V3.63681H29.181L29.1434 3.61171V3.60728H29.1369L29.1003 3.58256V3.57778H29.0933C29.0175 3.52587 28.9432 3.47199 28.8702 3.41633V3.41544H28.8691L28.8559 3.40525V3.40069H28.85L28.8127 3.37183V3.37121H28.8119L28.7983 3.36066V3.35643H28.793C28.7755 3.34254 28.7582 3.32832 28.7408 3.31423V3.31218H28.7383L28.7265 3.30264V3.29743H28.72C28.7028 3.28334 28.6859 3.26907 28.6689 3.25476V3.25317H28.667C28.6387 3.22924 28.6106 3.20506 28.5827 3.18056V3.17939H28.5813C28.543 3.14568 28.5051 3.11142 28.4677 3.07661V3.07606H28.4671L28.4533 3.06334V3.06133H28.4511L28.4389 3.04978V3.04655H28.4356L28.4245 3.03594V3.0318H28.4202L28.4101 3.02213V3.01703H28.4048C28.3227 2.93809 28.2429 2.85652 28.1657 2.77246V2.76617H28.16L28.1513 2.75675V2.7514H28.1464L28.137 2.74107V2.73665H28.1329L28.1226 2.7253V2.72192H28.1196L28.1082 2.70896V2.70717H28.1066L28.0938 2.69261V2.69241H28.0936C28.0597 2.65389 28.0261 2.61492 27.9932 2.57542V2.57438H27.9923C27.9683 2.5456 27.9447 2.51656 27.9213 2.4873V2.48584H27.9201C27.906 2.46819 27.892 2.45045 27.8782 2.43263V2.42681H27.8737L27.8638 2.41401V2.41204H27.8623C27.8483 2.39397 27.8344 2.37594 27.8206 2.3577V2.35301H27.8172C27.8038 2.33518 27.7906 2.31733 27.7775 2.29935V2.294H27.7735L27.7631 2.27991V2.27925H27.7626C27.7184 2.21823 27.6755 2.15614 27.6337 2.0932V2.08743H27.6298C27.6214 2.07471 27.6133 2.06184 27.6049 2.04908V2.04317H27.6012C27.5928 2.0303 27.5844 2.01749 27.5762 2.00453V1.99894H27.5726L27.5475 1.95875V1.95466H27.5449L27.5187 1.91213V1.9104H27.5176C27.5034 1.88707 27.4895 1.86351 27.4756 1.83991V1.83662H27.4736C27.4397 1.77894 27.4068 1.72055 27.3749 1.6615V1.65957H27.3739L27.3606 1.63456V1.63005H27.3582L27.3462 1.60751V1.60056H27.3425L27.3318 1.58039V1.57102H27.3271C27.2781 1.47598 27.2317 1.3792 27.188 1.28095V1.27589H27.1857L27.1737 1.24844V1.24638H27.1728C27.1633 1.22471 27.1541 1.20297 27.1449 1.18118V1.1726H27.1412L27.1305 1.14708V1.14305H27.1289C27.1197 1.12071 27.1107 1.09822 27.1018 1.07571V1.06931H27.0992C27.0903 1.04682 27.0816 1.02422 27.073 1.00159V0.995532H27.0707C27.0464 0.931503 27.0231 0.866877 27.0011 0.801699V0.788937H26.9969L26.9867 0.758106V0.744637H26.9823L26.9723 0.714602V0.700381H26.9679L26.9579 0.66809V0.656125H26.9543L26.9436 0.621069V0.611824H26.9408L26.9292 0.572412V0.567568H26.9278C26.9078 0.498585 26.8891 0.429072 26.8717 0.359005V0.346199H26.8687C26.8648 0.330253 26.8611 0.314284 26.8573 0.298316V0.287191H26.8547L26.843 0.23703V0.213387H26.8379L26.8286 0.169794V0.154356H26.8253L26.8142 0.0998158V0.0953482H26.8133C26.8087 0.071882 26.8041 0.0482832 26.7998 0.0247065V0.0215659H26.7992L26.7964 0.00683594H34.5662C34.6233 0.0103083 34.68 0.0151962 34.7363 0.0213447V0.0215437H34.7384C34.7714 0.0251488 34.8042 0.0291962 34.8369 0.0337081V0.0362958H34.8543C34.8773 0.0395691 34.9004 0.0429088 34.9232 0.0466244V0.0510478H34.9486C34.9738 0.0553164 34.9988 0.059784 35.0238 0.0646055V0.065822H35.0299C35.0761 0.0747794 35.122 0.0845551 35.1676 0.0953039H35.1676C35.1869 0.0998158 35.206 0.104726 35.2251 0.109525V0.110078H35.2272C35.2409 0.11355 35.2546 0.116934 35.2682 0.120584V0.124852H35.2836L35.3258 0.13653V0.139626H35.3369C35.3524 0.144094 35.3678 0.148827 35.3832 0.153516V0.154356H35.386C35.4432 0.171762 35.4998 0.19054 35.5558 0.210666V0.213387H35.5634L35.5989 0.226391V0.228139H35.6035C35.626 0.236587 35.6485 0.245169 35.6708 0.254082V0.257687H35.6796L35.714 0.271864V0.272439H35.7153C35.7486 0.28624 35.7818 0.300505 35.8146 0.31528V0.316695H35.8178L35.8433 0.328439V0.331447H35.8497C35.9457 0.375947 36.0395 0.424427 36.1309 0.476955V0.478967H36.1342C36.1572 0.492238 36.1801 0.505685 36.2028 0.519464V0.523268H36.2089L36.2315 0.537356V0.53802H36.2326C36.2467 0.546712 36.2608 0.555293 36.2747 0.564162V0.567502H36.2798C36.3022 0.5819 36.3245 0.596497 36.3466 0.611338V0.611758H36.3471C36.3956 0.644425 36.4434 0.678308 36.4903 0.713231V0.715066H36.4928C36.5113 0.728867 36.5296 0.742801 36.5478 0.756934V0.759323H36.551C36.5693 0.773544 36.5873 0.788052 36.6054 0.802606V0.803601H36.6066C36.6702 0.855089 36.7322 0.908745 36.7923 0.964391V0.965895H36.7939L36.8067 0.977573V0.980669H36.81L36.821 0.991219V0.995444H36.8254C36.8935 1.06003 36.9592 1.12728 37.0223 1.19693V1.20204H37.0269L37.0367 1.21274V1.21677H37.0403L37.0511 1.22878V1.23154H37.0535L37.0654 1.24534V1.24629H37.0663C37.1155 1.30263 37.1633 1.36031 37.2092 1.41967V1.42334H37.212C37.2257 1.44099 37.239 1.45891 37.2523 1.4768V1.48237H37.2565L37.2667 1.49617V1.49712H37.2674C37.2769 1.51 37.2862 1.52302 37.2955 1.53603V1.54138H37.2993L37.3098 1.55602V1.55615H37.3099C37.3196 1.56991 37.3291 1.58389 37.3386 1.59782V1.60045H37.3404C37.3694 1.64292 37.3975 1.68602 37.4248 1.72975V1.73327H37.427C37.4359 1.74758 37.4449 1.7618 37.4536 1.77622V1.77752H37.4544L37.468 1.80057V1.807H37.4718C37.4801 1.82109 37.4886 1.83516 37.4967 1.84938V1.85131H37.4978L37.5111 1.8751V1.88079H37.5143C37.5432 1.93219 37.5709 1.98438 37.5973 2.03726V2.04313H37.6003L37.6117 2.06599V2.07261H37.615L37.6261 2.09574V2.10213H37.6291L37.6405 2.12622V2.13166H37.6431L37.6549 2.15676V2.16116H37.6568L37.6692 2.18905V2.19069H37.67C37.695 2.24682 37.7187 2.30371 37.7411 2.3613V2.36774H37.7436C37.7526 2.39096 37.7613 2.41429 37.7699 2.43776V2.44152H37.7713L37.7843 2.47728V2.48578H37.7871C37.8123 2.55785 37.8352 2.63104 37.8561 2.70509V2.70714H37.8567C37.8614 2.72386 37.866 2.74065 37.8705 2.7575V2.76615H37.8728C37.8768 2.78155 37.881 2.7969 37.8849 2.81242V2.82518H37.888C37.8919 2.84095 37.8956 2.85681 37.8993 2.87262V2.88421H37.902C37.906 2.90171 37.9099 2.91922 37.9137 2.93679V2.94322H37.915C37.925 2.98949 37.9342 3.036 37.9424 3.08289V3.09079H37.9437C37.9483 3.11748 37.9527 3.14424 37.9568 3.17114V3.19409H37.96C37.964 3.22178 37.9677 3.24961 37.9712 3.2775V3.29736H37.9734C37.9781 3.33651 37.982 3.37587 37.9855 3.4154V3.44492H37.988C37.9951 3.53352 37.9991 3.62299 37.9999 3.7132V3.81003C37.9986 3.89062 37.9949 3.97064 37.9887 4.04991H37.9855V4.08864C37.9819 4.13004 37.9776 4.1712 37.9726 4.21221H37.9712V4.22417C37.968 4.24976 37.9646 4.27533 37.9609 4.30076H37.9568V4.32883C37.953 4.35398 37.9489 4.37901 37.9446 4.40403H37.9424V4.4167C37.9379 4.44209 37.9333 4.46739 37.9283 4.49258H37.928V4.49413L37.9269 4.4999H32.0627C32.0095 4.4999 31.9566 4.49882 31.9038 4.49723L31.904 4.49727Z" fill="url(#paint0_linear)"/>
</g>
<defs>
<linearGradient id="paint0_linear" x1="26.8061" y1="-0.294663" x2="38.0004" y2="-0.294663" gradientUnits="userSpaceOnUse">
<stop stop-color="#31A3DC"/>
<stop offset="1" stop-color="#3373B8"/>
</linearGradient>
<clipPath id="clip0">
<rect width="38" height="11" fill="white"/>
</clipPath>
</defs>
</svg>
