<svg width="19" height="19" viewBox="0 0 19 19" fill="none" xmlns="http://www.w3.org/2000/svg">
<path d="M8.04346 1.62531C9.46846 1.1414 11.0263 1.05939 12.4958 1.38224C14.6389 1.8424 16.563 3.20543 17.7249 5.06164C18.5313 6.33226 18.9692 7.82629 19 9.32959V9.63314C18.9703 11.0006 18.6089 12.3618 17.9324 13.5523C17.2648 14.739 16.2988 15.7558 15.1488 16.485C13.8874 17.2892 12.4042 17.7382 10.9087 17.7705C7.54508 17.7824 4.18111 17.7716 0.817148 17.7764C0.659434 17.7783 0.496523 17.7549 0.361074 17.6692C0.156973 17.5489 0.0263477 17.327 0 17.0936V16.9522C0.0415625 16.7455 0.143613 16.5589 0.229707 16.3685C0.460898 15.8905 0.718066 15.4259 0.957793 14.9524C1.35338 14.1865 1.7074 13.396 1.95641 12.57C2.20355 11.7536 2.34939 10.9071 2.39021 10.0554C2.41211 9.63463 2.39949 9.21269 2.43623 8.79298C2.55498 7.31974 3.07674 5.87953 3.93842 4.67793C4.94186 3.26443 6.39728 2.17341 8.04346 1.62531ZM9.45807 2.78795C8.0635 3.04177 6.7591 3.75316 5.78164 4.77886C4.77561 5.82498 4.1158 7.20025 3.94398 8.64232C3.87533 9.12289 3.9002 9.60902 3.8757 10.0926C3.81373 11.5198 3.48383 12.9307 2.9257 14.2447C2.63514 14.9453 2.28557 15.6193 1.93451 16.2906C4.74072 16.2906 7.54693 16.2902 10.3531 16.2909C10.6266 16.2909 10.9009 16.2935 11.174 16.2731C12.088 16.2134 12.9875 15.9603 13.8025 15.5424C15.0133 14.9253 16.029 13.9352 16.6803 12.7429C17.4229 11.3951 17.6845 9.79086 17.4065 8.27679C17.2091 7.15052 16.7115 6.0814 15.9915 5.19449C15.2416 4.27084 14.2474 3.54572 13.1356 3.12082C11.9711 2.67365 10.6838 2.55861 9.45807 2.78795Z" fill="#4AD4B9"/>
<path d="M7.51187 11.7491C7.77758 11.6682 8.07853 11.7554 8.26779 11.9561C8.77916 12.4642 9.45492 12.8 10.1671 12.9102C11.2254 13.0824 12.3539 12.7277 13.1187 11.9743C13.2831 11.7969 13.528 11.6923 13.7711 11.7238C14.0565 11.7543 14.3103 11.968 14.3916 12.2426C14.471 12.4902 14.4057 12.7774 14.2261 12.9659C13.4048 13.8061 12.2719 14.3289 11.1011 14.4198C9.65086 14.5419 8.15535 13.9901 7.1508 12.9336C6.98529 12.7373 6.93519 12.4516 7.02351 12.2107C7.1007 11.9907 7.28847 11.8144 7.51187 11.7491Z" fill="#4AD4B9"/>
</svg>
