<svg width="30" height="30" viewBox="0 0 30 30" fill="none" xmlns="http://www.w3.org/2000/svg">
<path d="M30 15C30 23.2843 23.2843 30 15 30C6.71573 30 0 23.2843 0 15C0 6.71573 6.71573 0 15 0C23.2843 0 30 6.71573 30 15Z" fill="#578AD6"/>
<path d="M16.4122 24.9944V16.3301H19.3234L19.7602 12.9533H16.4122V10.8009C16.4122 9.82366 16.6857 9.15431 18.0868 9.15431H19.8794V6.13411C19.5716 6.09442 18.5084 6 17.2718 6C14.6888 6 12.9209 7.57685 12.9209 10.4635V12.9527H10V16.3301H12.9209V24.9938H16.4128L16.4122 24.9944Z" fill="white"/>
</svg>
