<svg width="30" height="30" viewBox="0 0 30 30" fill="none" xmlns="http://www.w3.org/2000/svg">
<path d="M30 15C30 23.2843 23.2843 30 15 30C6.71573 30 0 23.2843 0 15C0 6.71573 6.71573 0 15 0C23.2843 0 30 6.71573 30 15Z" fill="#578AD6"/>
<path fill-rule="evenodd" clip-rule="evenodd" d="M20.556 11.2826C20.556 11.8058 20.1307 12.2304 19.6066 12.2304C19.0832 12.2304 18.6585 11.8058 18.6585 11.2826C18.6585 10.7593 19.0832 10.3348 19.6066 10.3348C20.1307 10.3348 20.556 10.7593 20.556 11.2826ZM15.3852 18.1294C13.9299 18.1294 12.7493 16.9507 12.7493 15.4971C12.7493 14.0442 13.9299 12.8654 15.3852 12.8654C16.8412 12.8654 18.0218 14.0442 18.0218 15.4971C18.0218 16.9507 16.8412 18.1294 15.3852 18.1294ZM15.3852 11.4431C13.1426 11.4431 11.3247 13.2587 11.3247 15.4971C11.3247 17.7361 13.1426 19.5517 15.3852 19.5517C17.6285 19.5511 19.4464 17.7367 19.4464 15.4971C19.4464 13.2587 17.6285 11.4431 15.3852 11.4431ZM12.1246 7.64954C11.2831 7.68803 10.7085 7.82094 10.2049 8.01639C9.68505 8.21786 9.24412 8.48849 8.80439 8.9275C8.36466 9.36592 8.0942 9.80614 7.89241 10.3257C7.69664 10.8273 7.56291 11.4016 7.52436 12.2418C7.42678 14.4008 7.42678 16.5941 7.52436 18.7525C7.56291 19.5938 7.69664 20.1669 7.89241 20.6697C8.0942 21.1881 8.36466 21.6289 8.80439 22.0674C9.24412 22.5064 9.68505 22.777 10.2049 22.9791C10.7085 23.1733 11.2831 23.3074 12.1246 23.3459C14.2871 23.4421 16.4834 23.4433 18.6465 23.3459C19.488 23.3074 20.0626 23.1739 20.5656 22.9791C21.0854 22.777 21.527 22.5064 21.9667 22.0674C22.4064 21.6289 22.6763 21.1887 22.8787 20.6697C23.0739 20.1669 23.2082 19.5938 23.2461 18.7525C23.3443 16.5941 23.3443 14.4008 23.2461 12.2418C23.2082 11.4016 23.0739 10.8273 22.8787 10.3257C22.6763 9.80614 22.4064 9.36592 21.9667 8.9275C21.527 8.48849 21.0854 8.21786 20.5656 8.01639C20.0626 7.82094 19.488 7.68803 18.6465 7.64954C16.4846 7.54911 14.2859 7.54911 12.1246 7.64954ZM18.5814 9.07064C19.3518 9.10492 19.7711 9.23361 20.0494 9.34247C20.4192 9.485 20.6825 9.65639 20.959 9.93364C21.2354 10.2091 21.4071 10.4725 21.5505 10.8405C21.6589 11.119 21.7872 11.537 21.8227 12.3067C21.9197 14.4212 21.9197 16.5724 21.8227 18.6875C21.7872 19.4579 21.6589 19.8759 21.5505 20.1537C21.4071 20.5224 21.2354 20.7858 20.959 21.0618C20.6825 21.3379 20.4192 21.5099 20.0494 21.653C19.7711 21.7606 19.3518 21.8893 18.5814 21.9248C16.4623 22.0198 14.3082 22.0204 12.1891 21.9248C11.4187 21.8893 11 21.7606 10.7211 21.653C10.3519 21.5099 10.0886 21.3379 9.81215 21.0618C9.53566 20.7852 9.36399 20.523 9.22002 20.1537C9.1116 19.8759 8.98329 19.4579 8.94775 18.6875C8.85198 16.5718 8.85198 14.4218 8.94775 12.3067C8.98329 11.537 9.1116 11.1196 9.22002 10.8405C9.36399 10.4725 9.53566 10.2097 9.81215 9.93364C10.0886 9.65639 10.3519 9.485 10.7211 9.34247C11 9.23361 11.4187 9.10492 12.1891 9.07064C14.3082 8.97441 16.4623 8.97501 18.5814 9.07064Z" fill="white"/>
</svg>
