<svg width="27" height="27" viewBox="0 0 27 27" fill="none" xmlns="http://www.w3.org/2000/svg">
<g clip-path="url(#clip0)">
<path fill-rule="evenodd" clip-rule="evenodd" d="M0.978895 26.4248C1.52716 24.7889 2.08442 23.1531 2.63269 21.5083C0.987883 19.2344 -0.0816903 15.8908 0.0081898 13.0776C0.241878 5.78828 6.20093 0 13.4992 0C20.9593 0 26.9992 6.04893 26.9992 13.5C26.9992 20.9601 20.9503 27 13.4992 27C11.1084 27 8.07943 26.1282 6.05712 24.771C4.36738 25.3192 2.66864 25.8765 0.978895 26.4248Z" fill="#578AD6"/>
<path fill-rule="evenodd" clip-rule="evenodd" d="M7.37882 6.50714C7.37882 6.50714 7.81025 6.22852 8.03495 6.22852C8.26863 6.22852 9.30226 6.22852 9.30226 6.22852C9.30226 6.22852 9.6438 6.29143 9.7966 6.64196C9.95838 6.9925 11.028 9.50015 11.0999 9.69789C11.1808 9.88664 11.3875 10.372 11.0549 10.7944C10.7224 11.2259 10.0303 12.0258 10.0303 12.0258C10.0303 12.0258 9.75166 12.2775 9.99433 12.6729C10.228 13.0684 11.0729 14.3627 12.1694 15.3514C13.266 16.331 14.6052 17.0591 15.2793 17.2748C15.9534 17.4995 16.0972 17.2029 16.3489 16.8703C16.6095 16.5468 17.4094 15.5311 17.4094 15.5311C17.4094 15.5311 17.6791 15.1267 18.2274 15.3783C18.7666 15.621 21.4001 16.8973 21.4001 16.8973C21.4001 16.8973 21.7237 16.9512 21.7417 17.3107C21.7596 17.6703 21.9754 18.7398 21.0226 19.7735C20.0699 20.8071 18.0386 21.2834 17.0769 21.0138C16.1152 20.7442 12.9424 19.9083 10.8662 17.9759C8.78994 16.0434 7.11817 14.0121 6.42609 12.5111C5.743 11.0101 5.77895 10.1203 5.81491 9.69789C5.85985 9.28444 6.07556 7.33404 7.37882 6.50714Z" fill="#FEFEFE"/>
</g>
<defs>
<clipPath id="clip0">
<rect width="27" height="27" fill="white"/>
</clipPath>
</defs>
</svg>
