<svg width="25" height="27" viewBox="0 0 25 27" fill="none" xmlns="http://www.w3.org/2000/svg">
<path d="M2.80762 1.82842C5.03466 0.0992811 8.26689 0.00123709 10.6152 1.53429C12.617 1.19559 14.6967 1.35603 16.6118 2.06016C19.0641 2.94256 21.2045 4.68061 22.617 6.9178C24.3674 9.6363 24.9567 13.0767 24.2894 16.2587C25.208 18.175 25.2426 20.5281 24.3414 22.4622C23.6568 23.9686 22.435 25.2164 20.9619 25.9027C19.0208 26.8386 16.6724 26.7316 14.7834 25.7066C12.4263 26.1523 9.93934 25.8581 7.75563 24.842C4.86135 23.5318 2.53032 20.9738 1.43847 17.9166C0.658574 15.7863 0.519926 13.4422 0.918539 11.2139C0.389943 10.1354 -0.0173361 8.9589 0.00866043 7.73781C-0.0866602 5.44714 1.01386 3.1743 2.80762 1.82842Z" fill="#578AD6"/>
<path d="M11.6203 5.02814C13.466 4.92119 15.4418 5.08162 17.0189 6.16902C18.0241 6.8375 18.8906 7.95164 18.8386 9.24404C18.804 10.2601 17.7641 11.0534 16.8023 10.8395C16.109 10.7949 15.7017 10.1443 15.3811 9.58274C14.9738 8.82512 14.4106 8.03186 13.5354 7.85359C12.7295 7.68425 11.8802 7.66642 11.0917 7.88033C10.5024 8.04968 9.89584 8.37947 9.62721 8.96773C9.41924 9.41339 9.57522 9.97491 9.93917 10.2869C10.6064 10.8662 11.4903 11.0623 12.3135 11.2673C13.986 11.6862 15.7104 11.9982 17.2529 12.8182C18.1887 13.3084 19.0033 14.1106 19.3499 15.1445C19.8178 16.6152 19.6185 18.3265 18.7087 19.5743C17.7035 20.9737 16.0397 21.6867 14.4192 21.9363C12.7468 22.1769 11.0137 22.1324 9.40191 21.6154C7.79012 21.1163 6.36898 19.8774 5.77972 18.2374C5.56308 17.5778 5.44177 16.7667 5.90104 16.1784C6.35165 15.5278 7.25286 15.3228 7.96343 15.5902C8.50069 15.7952 8.84731 16.3121 9.07262 16.8291C9.39324 17.5332 9.73119 18.3087 10.4071 18.7276C11.109 19.2178 11.9842 19.2891 12.8075 19.2624C13.752 19.2178 14.7572 18.9237 15.3898 18.175C15.849 17.6402 15.901 16.8023 15.5284 16.2141C15.0432 15.5545 14.2373 15.2693 13.4834 15.0732C11.7069 14.6097 9.85251 14.3334 8.1974 13.4599C7.27885 12.943 6.44697 12.1408 6.11768 11.098C5.67574 9.69861 5.9357 8.04968 6.93223 6.96228C8.11074 5.63423 9.92184 5.15293 11.6203 5.02814Z" fill="white"/>
</svg>
