<svg width="26" height="26" viewBox="0 0 26 26" fill="none" xmlns="http://www.w3.org/2000/svg">
<path d="M26 13C26 20.1759 20.1759 26 13 26C5.82415 26 0 20.1759 0 13C0 5.82415 5.82415 0 13 0C20.1759 0 26 5.82415 26 13Z" fill="#578AD6"/>
<path d="M19.3228 7.47517L17.0004 19.187C17.0004 19.187 16.6829 19.9944 15.7847 19.6043L10.4233 15.4947L8.48188 14.5603L5.19786 13.4535C5.19786 13.4535 4.69891 13.2721 4.64447 12.882C4.59911 12.4919 5.216 12.2833 5.216 12.2833L18.2523 7.16673C18.2523 7.16673 19.3228 6.69499 19.3228 7.47517Z" fill="#FEFEFE"/>
<path d="M10.0148 19.0509C10.0148 19.0509 9.86061 19.0418 9.66103 18.4249C9.47052 17.808 8.48169 14.5603 8.48169 14.5603L16.3561 9.5526C16.3561 9.5526 16.8097 9.28044 16.7915 9.5526C16.7915 9.5526 16.8732 9.60703 16.6282 9.83383C16.3833 10.0606 10.4412 15.404 10.4412 15.404L10.0148 19.0509Z" fill="#D3E6F1"/>
<path d="M12.4824 17.073L10.3596 19.0053C10.3596 19.0053 10.1963 19.1323 10.0149 19.0507L10.4231 15.4673L12.4824 17.073Z" fill="#B6D1E6"/>
</svg>
