<svg width="30" height="30" viewBox="0 0 30 30" fill="none" xmlns="http://www.w3.org/2000/svg">
<path d="M30 15C30 23.2843 23.2843 30 15 30C6.71573 30 0 23.2843 0 15C0 6.71573 6.71573 0 15 0C23.2843 0 30 6.71573 30 15Z" fill="#578AD6"/>
<path d="M22.8405 12.3733C22.8405 12.3733 22.684 11.2955 22.2043 10.8211C21.5959 10.1979 20.9141 10.195 20.6012 10.1584C18.3622 10 15.0039 10 15.0039 10H14.9966C14.9966 10 11.6382 10 9.39884 10.1584C9.0863 10.195 8.40448 10.1979 7.79574 10.8211C7.31598 11.2955 7.16035 12.3733 7.16035 12.3733C7.16035 12.3733 7 13.6389 7 14.9046V16.0908C7 17.3564 7.16035 18.6221 7.16035 18.6221C7.16035 18.6221 7.31598 19.6995 7.79574 20.1743C8.40448 20.7975 9.20409 20.7773 9.56005 20.8428C10.8403 20.9626 15 21 15 21C15 21 18.3622 20.995 20.6012 20.837C20.9141 20.8004 21.5959 20.7975 22.2043 20.1743C22.684 19.6995 22.8405 18.6221 22.8405 18.6221C22.8405 18.6221 23 17.3564 23 16.0908V14.9046C23 13.6389 22.8405 12.3733 22.8405 12.3733ZM13.3483 17.5283L13.3479 13.1347L17.671 15.3391L13.3483 17.5283Z" fill="white"/>
</svg>
