<svg width="28" height="30" viewBox="0 0 28 30" fill="none" xmlns="http://www.w3.org/2000/svg">
<g clip-path="url(#clip0)">
<path d="M8.88894 0.377419C11.5892 -0.107756 14.3537 -0.0538479 17.0814 0.143816C19.6071 0.368434 23.8595 1.19503 25.5035 3.30644C26.7526 4.84283 27.2853 6.79251 27.5792 8.68829C28.0751 12.1744 28.0108 18.266 25.6688 21.1591C22.9962 24.5913 15.8232 24.8249 11.8188 24.6721C10.1288 26.4511 8.46646 28.2391 6.75817 30.0001C6.7398 27.9515 6.75817 25.912 6.7398 23.8635C5.40806 23.4412 4.09469 22.8662 3.0936 21.8869C0.33828 19.3711 -0.0107264 14.7799 0.237252 11.2849C0.255621 9.48793 0.457677 7.66403 1.08222 5.96592C2.41395 2.31812 5.17845 1.06924 8.88894 0.377419Z" fill="#578AD6"/>
<path d="M13.4996 4.44747C16.7233 4.15097 20.0205 6.11862 21.2512 9.04764C21.7563 10.2606 21.9859 11.5903 21.9308 12.8931C21.7931 13.3334 21.0308 13.2435 21.0491 12.7763C21.0032 11.3657 20.7644 9.91018 20.0205 8.67029C18.8449 6.65771 16.5488 5.37289 14.1976 5.31C13.9129 5.27406 13.5455 5.36391 13.3618 5.08538C13.1781 4.88772 13.2883 4.57325 13.4996 4.44747ZM14.7762 8.52653C15.3456 8.38277 15.9702 8.55348 16.4937 8.80506C17.2835 9.20937 17.7427 10.0539 17.8254 10.9075C17.8346 11.1411 17.9173 11.4556 17.6968 11.6263C17.4488 11.8509 16.9713 11.6981 16.9437 11.3567C16.907 10.8266 16.8059 10.2516 16.4018 9.86525C16.0345 9.46993 15.465 9.39805 14.9599 9.33516C14.5558 9.31719 14.4547 8.71521 14.7762 8.52653ZM14.2435 6.41512C15.0701 6.34324 15.9151 6.58583 16.6774 6.87334C18.4499 7.57415 19.7174 9.3082 19.846 11.168C19.8643 11.5184 19.9837 11.8958 19.7909 12.2103C19.6715 12.4169 19.3776 12.4079 19.1755 12.3361C18.8908 12.1743 18.9551 11.806 18.9367 11.5274C18.9275 10.3864 18.4224 9.26328 17.5591 8.49059C16.7049 7.69095 15.5201 7.35852 14.3721 7.27765C13.922 7.2507 13.8394 6.57685 14.2435 6.41512ZM7.77769 4.60919C8.31957 4.5463 8.81553 4.85178 9.16453 5.23812C9.80744 5.93893 10.4044 6.67568 10.9371 7.46633C11.2494 7.95151 11.5708 8.48161 11.58 9.0746C11.4055 10.0899 9.91765 10.2246 9.86255 11.2848C9.97276 12.4259 10.6248 13.4412 11.3963 14.2768C12.278 15.2022 13.3342 16.0198 14.565 16.4421C14.9231 16.5679 15.3456 16.6308 15.6946 16.46C16.1814 16.1096 16.4202 15.5077 16.9162 15.1662C17.3386 14.9147 17.8989 14.8877 18.3397 15.1123C19.3408 15.6155 20.2593 16.2624 21.1226 16.9632C21.49 17.2777 21.9951 17.5562 22.0961 18.0773C22.2247 18.6703 21.8574 19.2094 21.5175 19.6676C20.9389 20.4043 20.2317 21.177 19.249 21.3567C18.4959 21.5005 17.8162 21.0872 17.1458 20.8266C13.6006 19.3172 10.4871 16.8823 8.17262 13.8545C6.82251 12.1114 5.72957 10.1618 5.02237 8.08628C4.86624 7.57415 4.80195 6.9542 5.14177 6.49598C5.56425 5.92096 6.16124 5.49868 6.74904 5.09437C7.06131 4.88772 7.38276 4.65411 7.77769 4.60919Z" fill="white"/>
</g>
<defs>
<clipPath id="clip0">
<rect width="28" height="30" fill="white"/>
</clipPath>
</defs>
</svg>
