<svg width="30" height="30" viewBox="0 0 30 30" fill="none" xmlns="http://www.w3.org/2000/svg">
<path d="M30 15C30 23.2843 23.2843 30 15 30C6.71573 30 0 23.2843 0 15C0 6.71573 6.71573 0 15 0C23.2843 0 30 6.71573 30 15Z" fill="#578AD6"/>
<path d="M20.8117 15.387C20.8117 15.387 23.3073 11.8713 23.5555 10.7172C23.6416 10.3016 23.4585 10.0701 23.026 10.0701C23.026 10.0701 21.5893 10.0701 20.8599 10.0701C20.3635 10.0701 20.1846 10.286 20.0334 10.5987C20.0334 10.5987 18.8618 13.0903 17.4354 14.6647C16.9818 15.1717 16.7499 15.3227 16.4957 15.3227C16.2903 15.3227 16.1987 15.1555 16.1987 14.6972V10.6847C16.1987 10.1188 16.1283 9.95703 15.6693 9.95703H12.196C11.9316 9.95703 11.7641 10.108 11.7641 10.3179C11.7641 10.8465 12.5743 10.965 12.5743 12.3993V15.3545C12.5743 15.9529 12.5418 16.1796 12.2611 16.1796C11.5153 16.1796 9.74379 13.6237 8.7553 10.7172C8.55532 10.1188 8.33907 9.95703 7.77766 9.95703H5.61215C5.29832 9.95703 5.06641 10.1729 5.06641 10.4857C5.06641 11.0624 5.74106 13.7374 8.40412 17.3229C10.1919 19.7333 12.5418 21.0389 14.6585 21.0389C15.9494 21.0389 16.2626 20.823 16.2626 20.2781V18.4283C16.2626 17.9646 16.4463 17.7649 16.7108 17.7649C17.0077 17.7649 17.5318 17.8617 18.7582 19.0699C20.2165 20.461 20.3141 21.0383 21.1074 21.0383H23.538C23.7868 21.0383 24.0187 20.9192 24.0187 20.5097C24.0187 19.9648 23.3061 18.9888 22.2146 17.8347C21.7718 17.2363 21.043 16.594 20.8105 16.2981C20.4816 15.9523 20.5786 15.7533 20.8105 15.387H20.8117Z" fill="white"/>
</svg>
