<svg width="23" height="17" viewBox="0 0 23 17" fill="none" xmlns="http://www.w3.org/2000/svg">
<path d="M22.7765 4.02265C22.7765 4.02265 22.5572 2.48007 21.885 1.8011C21.0326 0.909233 20.0773 0.905023 19.6387 0.852702C16.5016 0.625977 11.7959 0.625977 11.7959 0.625977H11.7857C11.7857 0.625977 7.07999 0.625977 3.94226 0.852702C3.50434 0.905023 2.54899 0.909233 1.69604 1.8011C1.02379 2.48007 0.805738 4.02265 0.805738 4.02265C0.805738 4.02265 0.581055 5.83404 0.581055 7.64544V9.34318C0.581055 11.1546 0.805738 12.966 0.805738 12.966C0.805738 12.966 1.02379 14.5079 1.69604 15.1875C2.54899 16.0794 3.66939 16.0505 4.16815 16.1443C5.962 16.3157 11.7905 16.3693 11.7905 16.3693C11.7905 16.3693 16.5016 16.362 19.6387 16.1359C20.0773 16.0836 21.0326 16.0794 21.885 15.1875C22.5572 14.5079 22.7765 12.966 22.7765 12.966C22.7765 12.966 22.9999 11.1546 22.9999 9.34318V7.64544C22.9999 5.83404 22.7765 4.02265 22.7765 4.02265ZM9.47621 11.4005L9.47561 5.11237L15.533 8.26728L9.47621 11.4005Z" fill="white"/>
</svg>
