<svg width="35" height="11" viewBox="0 0 35 11" fill="none" xmlns="http://www.w3.org/2000/svg">
<path d="M17.3292 0.194946L14.9909 10.8327H12.1633L14.5017 0.194946H17.3292ZM29.2285 7.06364L30.7173 3.06827L31.5733 7.06364H29.2285H29.2285ZM32.3846 10.8327H35L32.7157 0.194943H30.3031C29.7588 0.194943 29.301 0.501298 29.0976 0.975168L24.8546 10.8327H27.8252L28.4136 9.24404H32.0423L32.3846 10.8327ZM25.0016 7.35996C25.0144 4.55255 21.0136 4.39603 21.0401 3.14211C21.0483 2.76095 21.4221 2.35482 22.2392 2.25104C22.6437 2.19996 23.762 2.15908 25.028 2.72714L25.5247 0.470735C24.8432 0.230919 23.968 0 22.8787 0C20.0827 0 18.1165 1.44567 18.1004 3.51682C18.0818 5.04836 19.5053 5.90163 20.575 6.41228C21.678 6.9333 22.0478 7.26799 22.0422 7.73297C22.0341 8.44728 21.1621 8.76304 20.3507 8.7757C18.928 8.79685 18.1035 8.40087 17.4464 8.10238L16.9328 10.4351C17.595 10.7299 18.8149 10.986 20.0769 11C23.0499 11 24.9933 9.57166 25.0016 7.35996L25.0016 7.35996ZM13.2888 0.194946L8.70594 10.8327H5.71681L3.46168 2.34216C3.32504 1.82062 3.20551 1.62888 2.78985 1.40805C2.10982 1.04907 0.986764 0.712665 0 0.503639L0.0672068 0.194946H4.87946C5.49234 0.194946 6.04382 0.59156 6.18415 1.27833L7.37599 7.4354L10.3174 0.194946H13.2888H13.2888Z" fill="#2A2A6C"/>
</svg>
