<svg width="20" height="13" viewBox="0 0 20 13" fill="none" xmlns="http://www.w3.org/2000/svg">
<path d="M15.8127 6.38701C15.8127 6.38701 18.3083 2.87127 18.5564 1.71719C18.6426 1.30163 18.4595 1.07009 18.027 1.07009C18.027 1.07009 16.5903 1.07009 15.8608 1.07009C15.3645 1.07009 15.1856 1.28599 15.0344 1.59872C15.0344 1.59872 13.8628 4.09029 12.4364 5.66474C11.9828 6.17171 11.7509 6.32266 11.4967 6.32266C11.2913 6.32266 11.1997 6.15548 11.1997 5.69722V1.68472C11.1997 1.11881 11.1292 0.957031 10.6702 0.957031H7.197C6.93256 0.957031 6.7651 1.10798 6.7651 1.31787C6.7651 1.84649 7.57528 1.96497 7.57528 3.39929V6.35454C7.57528 6.95292 7.54276 7.17965 7.26205 7.17965C6.51632 7.17965 4.74476 4.62373 3.75628 1.71719C3.55629 1.11881 3.34004 0.957031 2.77864 0.957031H0.613127C0.299294 0.957031 0.0673828 1.17293 0.0673828 1.48566C0.0673828 2.06239 0.742034 4.73739 3.4051 8.3229C5.19292 10.7333 7.54276 12.0389 9.65947 12.0389C10.9503 12.0389 11.2636 11.823 11.2636 11.2781V9.42826C11.2636 8.96459 11.4473 8.76492 11.7117 8.76492C12.0087 8.76492 12.5328 8.86175 13.7592 10.0699C15.2175 11.461 15.3151 12.0383 16.1084 12.0383H18.539C18.7877 12.0383 19.0197 11.9192 19.0197 11.5097C19.0197 10.9648 18.3071 9.98876 17.2156 8.83468C16.7728 8.2363 16.044 7.59401 15.8114 7.29812C15.4826 6.95232 15.5795 6.75326 15.8114 6.38701H15.8127Z" fill="white"/>
</svg>
