<svg xmlns="http://www.w3.org/2000/svg" width="150" height="26"><g fill="none" fill-rule="evenodd"><path fill="#167192" d="M73.288 17.34l-14.359.013V8.937H73.33c1.36 0 2.04.672 2.04 2.015v.984c0 .692-.354 1.094-1.062 1.206.713.108 1.066.485 1.062 1.132v1.058c-.01 1.339-.704 2.008-2.082 2.008zm-.342-1.658c.452 0 .683-.224.692-.674v-.33c.009-.458-.208-.687-.65-.687h-12.36v1.691h12.318zm-12.298-3.376h12.298c.452 0 .683-.234.692-.704v-.33c.009-.442-.228-.663-.711-.663h-12.28v1.697zm37.416 5.034l-14.352.013v-1.697h14.03c.457 0 .685-.22.685-.658v-.37c0-.42-.228-.63-.684-.63H84.048v-1.685H97.75c.442 0 .664-.241.664-.725v-.315c0-.434-.222-.65-.664-.65H83.712V8.936h14.395c1.359 0 2.038.613 2.038 1.84v1.159c0 .674-.342 1.076-1.026 1.206.689.108 1.03.485 1.026 1.132v1.058c-.01 1.339-.703 2.008-2.08 2.008m12.504.015c-1.37 0-2.053-.676-2.053-2.028v-4.367c0-1.348.677-2.022 2.032-2.022h12.313c1.391 0 2.087.69 2.087 2.069v4.36c0 1.312-.672 1.967-2.018 1.967l-12.361.02zm12.662-2.35v-3.676c0-.47-.228-.706-.685-.706h-11.615c-.455 0-.684.22-.684.658v3.703c0 .457.229.686.684.686h11.63c.446 0 .67-.222.67-.665zm11.806-.332v2.681h-1.732V8.93h14.331c1.402 0 2.102.668 2.102 2.002v1.658c0 1.388-.693 2.082-2.08 2.082h-12.621zm12.299-4.057h-12.299v2.372l12.326-.02c.416 0 .625-.222.63-.667v-1.031c.004-.436-.214-.654-.657-.654z"/><path fill="#E7792B" d="M16.848 13.144c0-3.484 2.879-6.318 6.417-6.318h.01a21.184 21.184 0 0 1 15.122 6.318c-.457.464-.937.907-1.436 1.328a13.301 13.301 0 0 1-1.106 4.147 23.911 23.911 0 0 0 6.186-5.475 23.944 23.944 0 0 0-18.766-9.026h-.01c-5.055 0-9.167 4.049-9.167 9.026 0 1.282.274 2.502.766 3.607a20.21 20.21 0 0 0 4.552 1.445c-1.558-1.154-2.568-2.989-2.568-5.052"/><path fill="#167192" d="M23.275.508h-.01c-7.077 0-12.835 5.668-12.835 12.636 0 .298.012.594.033.887a20.26 20.26 0 0 0 3.193 2.124 9.753 9.753 0 0 1-.475-3.011c0-5.475 4.524-9.929 10.084-9.929h.01a24.858 24.858 0 0 1 19.916 9.929 24.823 24.823 0 0 1-8.127 6.975 13.722 13.722 0 0 1-5.074 4.842 27.58 27.58 0 0 0 16.53-11.817A27.607 27.607 0 0 0 23.275.508"/><path fill="#EE9D5B" d="M29.693 13.14c0 3.484-2.879 6.318-6.418 6.318h-.01A21.183 21.183 0 0 1 8.144 13.14c.457-.464.937-.907 1.436-1.328a13.286 13.286 0 0 1 1.106-4.148A23.91 23.91 0 0 0 4.5 13.14a23.94 23.94 0 0 0 18.765 9.026h.01c5.055 0 9.168-4.049 9.168-9.026a8.851 8.851 0 0 0-.767-3.607 20.21 20.21 0 0 0-4.552-1.445c1.559 1.154 2.569 2.989 2.569 5.052"/><path fill="#7FA6B0" d="M23.265 25.776h.01c7.077 0 12.835-5.668 12.835-12.636 0-.298-.011-.594-.032-.887a20.26 20.26 0 0 0-3.194-2.124c.308.95.476 1.962.476 3.011 0 5.475-4.524 9.929-10.085 9.929h-.01A24.86 24.86 0 0 1 3.35 13.14a24.823 24.823 0 0 1 8.127-6.974 13.722 13.722 0 0 1 5.074-4.843A27.582 27.582 0 0 0 .021 13.14a27.609 27.609 0 0 0 23.244 12.636"/></g></svg>