<svg xmlns="http://www.w3.org/2000/svg" width="52" height="34"><g fill="#FEFEFE" fill-rule="evenodd"><path d="M29.002 7.467a9.322 9.322 0 0 0-7.274 3.49l.779.634a8.323 8.323 0 0 1 6.495-3.116c4.266 0 7.783 3.215 8.293 7.365l.994-.124c-.57-4.649-4.509-8.249-9.287-8.249m-7.266 15.345l.779-.636a8.326 8.326 0 0 0 10.469 2.093l.478.886a9.325 9.325 0 0 1-11.725-2.343"/><path d="M29.002 3.937c6.592 0 12.026 4.983 12.78 11.406h2.02a14.893 14.893 0 0 0-.542-2.747l1.6-1.045c-.249-.751-.55-1.48-.899-2.18l-1.865.4a14.999 14.999 0 0 0-1.554-2.332l1.081-1.58a16.888 16.888 0 0 0-1.66-1.67L38.39 5.276a14.871 14.871 0 0 0-2.32-1.561l.398-1.876a16.41 16.41 0 0 0-2.169-.904l-1.038 1.609a14.81 14.81 0 0 0-2.74-.546L30.177.114a16.855 16.855 0 0 0-2.348 0l-.347 1.884c-.942.096-1.857.282-2.74.546L23.704.934c-.747.251-1.472.555-2.168.905l.398 1.876c-.824.447-1.6.971-2.32 1.561l-1.572-1.087a16.924 16.924 0 0 0-1.66 1.67l1.08 1.58a14.93 14.93 0 0 0-1.553 2.332l-1.865-.4c-.349.7-.65 1.429-.9 2.18h4.125c2.02-4.49 6.514-7.614 11.734-7.614zm11.545 22.375h-2.735a12.789 12.789 0 0 1-8.81 3.507c-5.222 0-9.718-3.126-11.736-7.618H13.15l-.006.004c.25.752.551 1.48.9 2.18l1.865-.399c.445.827.967 1.607 1.554 2.332l-1.081 1.58a16.96 16.96 0 0 0 1.66 1.67l1.572-1.087c.72.59 1.496 1.113 2.32 1.561l-.398 1.876c.696.35 1.42.653 2.168.904l1.039-1.61c.882.265 1.797.45 2.74.547l.346 1.884a16.897 16.897 0 0 0 2.348 0l.347-1.884a14.79 14.79 0 0 0 2.74-.547l1.037 1.61a16.57 16.57 0 0 0 2.169-.904l-.397-1.876a14.89 14.89 0 0 0 2.319-1.561l1.572 1.086a16.884 16.884 0 0 0 1.66-1.669l-1.08-1.58a.037.037 0 0 0 .004-.006zm-19.795-16.15a10.573 10.573 0 0 1 8.25-3.956c5.418 0 9.887 4.082 10.534 9.354l.995-.125c-.707-5.77-5.599-10.237-11.53-10.237-3.645 0-6.898 1.689-9.028 4.33l.78.635zm13.784 16.989a11.522 11.522 0 0 1-5.534 1.408c-3.64 0-6.887-1.683-9.018-4.316l.779-.636a10.572 10.572 0 0 0 8.239 3.943c1.83 0 3.553-.466 5.057-1.287l.477.888zm-1.631-12.263v-.437h-1.902v-.437h-1.904l2.855 3.905 2.216-3.031z"/><path d="M6.116 19.373a.547.547 0 0 0-.041-.769l-.064-.058a.54.54 0 0 0-.766.041v-.001c-.4.575-1 .942-1.671.942-1.199 0-2.174-1.169-2.174-2.605 0-1.437.975-2.605 2.174-2.605.67 0 1.272.366 1.67.941v-.001a.54.54 0 0 0 .767.04l.064-.057a.547.547 0 0 0 .04-.77l.005.002c-.614-.815-1.526-1.332-2.546-1.332-1.847 0-3.344 1.693-3.344 3.782 0 2.088 1.497 3.78 3.344 3.78 1.02 0 1.934-.517 2.548-1.333l-.006.003zm20.274.07h-.127V13.77c0-.3-.242-.545-.541-.545h-.086c-.3 0-.543.244-.543.545v5.673H21.75V13.77c0-.3-.243-.545-.542-.545h-.086c-.3 0-.542.244-.542.545v6.305c0 .3.243.545.542.545h4.6c.013 0 .026-.003.04-.004v1.392c0 .3.242.545.542.545h.086c.3 0 .542-.244.542-.545v-2.02c0-.3-.242-.545-.542-.545zm-7.594-5.042h.042c.3 0 .543-.244.543-.544v-.087c0-.3-.243-.545-.543-.545h-4.014a.544.544 0 0 0-.542.545v6.305c0 .3.243.545.542.545h4.014c.3 0 .543-.244.543-.545v-.086a.543.543 0 0 0-.543-.545h-3.386V17.51h2.969c.3 0 .542-.243.542-.544v-.087c0-.3-.243-.545-.542-.545h-2.969v-1.933h3.344zm-5.851-.631v6.305c0 .3-.243.545-.542.545h-.086a.544.544 0 0 1-.542-.545v-5.674H8.431v5.674c0 .3-.242.545-.541.545h-.086a.544.544 0 0 1-.543-.545V13.77c0-.3.243-.545.543-.545h4.599c.3 0 .542.244.542.545zm25.698 8.023h2.426l-1.214-2.81-1.212 2.81zm4.23 2.594l-.08.034a.54.54 0 0 1-.713-.283l-.034-.079-.001-.001-.469-1.088h-3.44l-.454 1.048-.012.041-.035.079a.54.54 0 0 1-.717.283l-.079-.034a.546.546 0 0 1-.282-.717l.017-.04 2.71-6.28.001-.001.034-.08a.54.54 0 0 1 .536-.324.54.54 0 0 1 .537.324l.034.08 2.693 6.242.035.079a.547.547 0 0 1-.282.717zm8.354-7.38h-.085c-.3 0-.543.243-.543.544v5.674h-1.922V17.55c0-.3-.243-.545-.542-.545h-.086a.543.543 0 0 0-.542.545v5.675h-1.922V17.55c0-.3-.243-.545-.543-.545h-.086c-.3 0-.542.244-.542.545v6.305c0 .301.243.545.542.545h6.271c.3 0 .543-.244.543-.545V17.55c0-.3-.243-.545-.543-.545zm-15.93.544v6.305a.544.544 0 0 1-.542.545h-.086a.544.544 0 0 1-.543-.545V19.09l-1.64 2.243a.53.53 0 0 1-.092.125.537.537 0 0 1-.44.212c-.008 0-.016 0-.025-.002a.536.536 0 0 1-.415-.21.51.51 0 0 1-.093-.125l-1.64-2.244v4.767a.544.544 0 0 1-.542.545h-.087a.544.544 0 0 1-.542-.545v-6.305c0-.3.243-.545.542-.545h.28v.003a.537.537 0 0 1 .441.22l.029.04 2.052 2.807 2.051-2.808.03-.04a.536.536 0 0 1 .444-.22l.006-.002h.27c.3 0 .542.244.542.545z"/></g></svg>