<svg xmlns="http://www.w3.org/2000/svg" xmlns:xlink="http://www.w3.org/1999/xlink" width="68" height="10" viewBox="0 0 68 10"><defs><path id="a" d="M1247.3 3576.5l-4.8-4.6v4.6h-2.5v-9.5h.9l4.8 4.7v-4.7h2.5v9.5h-.9z"/><path id="b" d="M1270 3576.1v.3h-2.7l-1.6-2.8h-1.3v2.9h-2.4v-9.5h4.2c.6 0 1.1.1 1.6.3.5.2.8.5 1.1.9.3.3.5.7.6 1.2.1.5.2 1 .1 1.4 0 .5-.2.9-.4 1.3s-.5.7-.9 1zm-2.7-6.2c0-.2-.1-.4-.3-.5a.9.9 0 0 0-.7-.3h-1.6v2.3h1.7c.2 0 .4 0 .6-.2.1-.2.3-.4.3-.6v-.7z"/><path id="c" d="M1279.3 3571.7c0 .8-.2 1.6-.5 2.3-.4.7-.9 1.3-1.6 1.8-.8.5-1.6.7-2.6.7h-3.6v-9.5h3.6a4.4 4.4 0 0 1 4.2 2.5c.3.7.5 1.5.5 2.2zm-2.4 0c0-.4 0-.8-.2-1.2-.2-.3-.4-.7-.8-.9-.4-.3-.8-.4-1.3-.4h-1.2v5.1h1.2c.5 0 .9-.2 1.3-.4s.6-.5.8-.9c.1-.4.2-.8.2-1.3z"/><path id="d" d="M1259.8 3572c0 .8-.1 1.5-.5 2.2-.3.7-.6 1.2-1.1 1.6-.5.4-1 .7-1.6.9a5.66 5.66 0 0 1-3.6 0l-.6-.3-.4.5h-2l1.2-1.6c-.3-.3-.6-.7-.8-1.2-.3-.7-.4-1.4-.4-2.2 0-.8.1-1.6.4-2.2.3-.6.6-1.1 1.1-1.5.5-.4 1-.7 1.6-.9a5.66 5.66 0 0 1 3.6 0c.1.1.3.1.4.2l.4-.5 2 .1-1 1.3c.4.4.7.9.9 1.4.3.7.4 1.4.4 2.2zm-6.9 1.3l2.8-3.8c-.2-.1-.4-.1-.7-.1-.4 0-.7.1-1.1.3-.4.2-.7.5-.9.9-.3.4-.4.9-.4 1.4 0 .5.1.9.3 1.3zm4.5-1.3c0-.6-.2-1-.4-1.4v-.1l-2.9 3.9c.3.1.6.2.9.2.4 0 .7-.1 1.1-.3.4-.2.7-.5.9-.9.2-.4.4-.9.4-1.4z"/><path id="e" d="M1299 3576.1v.3h-2.7l-1.6-2.8h-1.3v2.9h-2.4v-9.5h4.2c.6 0 1.1.1 1.6.3.5.2.8.5 1.1.9.3.3.5.7.6 1.2.1.5.2 1 .1 1.4 0 .5-.2.9-.4 1.3s-.5.7-.9 1zm-2.8-6.1c0-.2-.1-.4-.3-.6a.9.9 0 0 0-.7-.3h-1.6v2.3h1.7c.2 0 .4 0 .6-.2.1-.2.3-.4.3-.6.1-.2.1-.4 0-.6z"/><path id="f" d="M1304.8 3569.2v7.3h-2.4v-7.3h-2.4v-2.2h7.1v2.2h-2.3z"/><path id="g" d="M1289.7 3576.3v.4h-2.4l-.6-1.2h-3.7l-.6 1.2h-2.4v-.4l4.3-9.3h1zm-3.9-2.9l-1.1-2.5-1 2.5z"/></defs><use xlink:href="#a" transform="translate(-1240 -3567)"/><use xlink:href="#b" transform="translate(-1240 -3567)"/><use xlink:href="#c" transform="translate(-1240 -3567)"/><use xlink:href="#d" transform="translate(-1240 -3567)"/><use fill="#e72273" xlink:href="#e" transform="translate(-1240 -3567)"/><use fill="#e72273" xlink:href="#f" transform="translate(-1240 -3567)"/><use fill="#e72273" xlink:href="#g" transform="translate(-1240 -3567)"/></svg>