<svg width="11" height="7" viewBox="0 0 11 7" fill="none" xmlns="http://www.w3.org/2000/svg">
<path fill-rule="evenodd" clip-rule="evenodd" d="M0.869833 5.76024C0.869833 5.85495 0.905841 5.94966 0.978104 6.02192C1.12263 6.1662 1.35693 6.1662 1.50145 6.02192L5.50007 2.02305L9.49869 6.02192C9.64322 6.1662 9.87752 6.1662 10.0218 6.02192C10.1663 5.87739 10.1663 5.64309 10.0218 5.49857L5.7615 1.23852C5.61722 1.094 5.38292 1.094 5.2384 1.23852L0.978104 5.49857C0.905841 5.57083 0.869833 5.66554 0.869833 5.76024Z" fill="#3099FF"/>
<path d="M0.869833 5.76024C0.869833 5.85495 0.905841 5.94966 0.978104 6.02192C1.12263 6.1662 1.35693 6.1662 1.50145 6.02192L5.50007 2.02305L9.49869 6.02192C9.64322 6.1662 9.87752 6.1662 10.0218 6.02192C10.1663 5.87739 10.1663 5.64309 10.0218 5.49857L5.7615 1.23852C5.61722 1.094 5.38292 1.094 5.2384 1.23852L0.978104 5.49857C0.905841 5.57083 0.869833 5.66554 0.869833 5.76024" stroke="#3099FF"/>
</svg>
