<svg width="17" height="17" viewBox="0 0 17 17" fill="none" xmlns="http://www.w3.org/2000/svg">
<path fill-rule="evenodd" clip-rule="evenodd" d="M16.1781 2.88453C16.5686 2.494 16.5686 1.86084 16.1781 1.47031L15.3295 0.621785C14.939 0.231261 14.3059 0.231261 13.9153 0.621785L8.3999 6.13722L2.88447 0.621785C2.49395 0.231261 1.86078 0.231261 1.47026 0.621786L0.621728 1.47031C0.231203 1.86084 0.231204 2.494 0.621728 2.88453L6.13716 8.39996L0.621729 13.9154C0.231205 14.3059 0.231205 14.9391 0.621729 15.3296L1.47026 16.1781C1.86078 16.5687 2.49395 16.5687 2.88447 16.1781L8.3999 10.6627L13.9153 16.1781C14.3059 16.5687 14.939 16.5687 15.3295 16.1781L16.1781 15.3296C16.5686 14.9391 16.5686 14.3059 16.1781 13.9154L10.6626 8.39996L16.1781 2.88453Z" fill="#3099FF"/>
</svg>
