<svg width="114" height="20" viewBox="0 0 114 20" fill="none" xmlns="http://www.w3.org/2000/svg">
<g id="Group 21">
<path id="Fill 1" fill-rule="evenodd" clip-rule="evenodd" d="M11.173 0V10.3514V10.3573L11.172 10.3583C11.1681 10.8067 10.8014 11.1694 10.3506 11.1694H9.11246C9.04988 11.1694 9 11.2181 9 11.2805V19.9571C9.3061 19.9864 9.61513 20 9.93003 20C15.4916 20 20 15.5067 20 9.96149C20 4.83744 16.1488 0.60931 11.173 0ZM10.9686 15.4375C10.2723 15.4375 9.70901 14.8769 9.70901 14.1838C9.70901 13.4906 10.2723 12.9291 10.9686 12.9291C11.663 12.9291 12.2263 13.4906 12.2263 14.1838C12.2263 14.8769 11.663 15.4375 10.9686 15.4375ZM13.9191 15.4375C13.2257 15.4375 12.6615 14.8769 12.6615 14.1838C12.6615 13.4906 13.2257 12.9291 13.9191 12.9291C14.6144 12.9291 15.1797 13.4906 15.1797 14.1838C15.1797 14.8769 14.6144 15.4375 13.9191 15.4375ZM18.1292 14.1838C18.1292 14.8769 17.5649 15.4375 16.8706 15.4375C16.1752 15.4375 15.6119 14.8769 15.6119 14.1838C15.6119 13.4906 16.1752 12.9291 16.8706 12.9291C17.5649 12.9291 18.1292 13.4906 18.1292 14.1838Z" fill="#00B956"/>
<path id="Fill 3" fill-rule="evenodd" clip-rule="evenodd" d="M9.99903 10.0084L10 0.000982367L9.96612 0C4.46187 0 0 4.52773 0 10.1135C0 14.9634 3.36237 19.0147 7.84843 20V10.9239H7.8494C7.85811 10.4848 8.20267 10.1321 8.63047 10.1144L8.63144 10.1135H9.04665H9.8887C9.94774 10.1135 9.99613 10.0683 9.99903 10.0084ZM8.05556 8.34029C7.36837 8.34029 6.81088 7.77445 6.81088 7.07697C6.81088 6.37851 7.36837 5.81266 8.05556 5.81266C8.74468 5.81266 9.30314 6.37851 9.30314 7.07697C9.30314 7.77445 8.74468 8.34029 8.05556 8.34029Z" fill="#00B956"/>
<path id="Fill 5" fill-rule="evenodd" clip-rule="evenodd" d="M64.4683 12.9372H69.5317L70.4028 15H73L69.0063 6.32223C68.5988 5.43598 67.7847 5 67.0019 5H67.0009H67C66.2153 5 65.4012 5.43598 64.9937 6.32223L61 15H63.5982L64.4683 12.9372ZM66.8015 7.43598C66.848 7.32556 66.9345 7.297 67 7.297H67.0009C67.0665 7.297 67.1529 7.32556 67.1995 7.43598L68.7033 10.9819H65.2977L66.8015 7.43598Z" fill="#00B956"/>
<path id="Fill 7" fill-rule="evenodd" clip-rule="evenodd" d="M33.0005 15C34.0372 15 34.7495 14.3391 35.1931 13.2882L38.4898 5.77044V14.9008H41V5.51314C41 3.79155 39.8607 3 38.7605 3C37.5831 3 36.8327 3.62951 36.2767 4.89836L33.0005 12.482L29.7223 4.89836C29.1664 3.62951 28.4159 3 27.2376 3C26.1383 3 25 3.79155 25 5.51314V14.9008H27.5102V5.77044L30.8069 13.2882C31.2495 14.3391 31.9618 15 32.9995 15H33.0005Z" fill="#00B956"/>
<path id="Fill 9" fill-rule="evenodd" clip-rule="evenodd" d="M52 15V12.8862H45.754C45.6318 12.8862 45.5353 12.7877 45.5353 12.6708V10.8873H51.8532V8.84855H45.5353V7.32726C45.5353 7.21226 45.6318 7.11383 45.754 7.11383H52V5H44.5076C43.6306 5 43 5.72702 43 6.49206V13.5089C43 14.2749 43.6306 15 44.5076 15H52Z" fill="#00B956"/>
<path id="Fill 11" fill-rule="evenodd" clip-rule="evenodd" d="M56.535 7.32674C56.535 7.21172 56.6315 7.11229 56.7537 7.11229H63V5H55.5074C54.6296 5 54 5.72522 54 6.49137V15H56.535V7.32674Z" fill="#00B956"/>
<path id="Fill 13" fill-rule="evenodd" clip-rule="evenodd" d="M96.4355 15C100.392 15 102 13.3777 102 10.0152V10.0105C101.998 6.59281 100.426 5 96.4579 5H95.5421C91.575 5 90.002 6.59281 90 10.0105V10.0152C90 13.3777 91.6066 15 95.5655 15H96.4355ZM92.551 10.02V10.0133C92.551 8.02777 93.2937 7.05306 95.5808 7.05306H96.4192C98.6422 7.05306 99.448 8.02777 99.448 10.0105V10.02C99.448 12.0626 98.5871 12.9802 96.4192 12.9802H95.5808C93.3955 12.9802 92.551 12.0626 92.551 10.02Z" fill="#00B956"/>
<path id="Fill 15" fill-rule="evenodd" clip-rule="evenodd" d="M87.8989 9.79926C87.9714 9.3486 88 8.85854 88 8.32806C88 4.94207 86.5514 3 82.9285 3H78.0725C74.4486 3 73 4.94207 73 8.32806C73 8.85854 73.0296 9.3486 73.102 9.79926C73.4864 12.197 74.8177 13.6703 78.2098 13.6703H79.2769V15H81.724V13.6703H82.7912C86.1852 13.6703 87.5155 12.197 87.8989 9.79926ZM79.2769 11.4827H78.1535C76.4942 11.4827 75.8962 10.8269 75.53 9.79926C75.3899 9.40317 75.3899 8.90199 75.3899 8.33311C75.3899 6.12125 76.3559 5.18659 77.7692 5.18659H79.2769V11.4827ZM85.4709 9.79926C85.1047 10.8269 84.5077 11.4827 82.8474 11.4827H81.724V5.18659H83.2327C84.6451 5.18659 85.6101 6.12125 85.6101 8.33311C85.6101 8.90199 85.6111 9.40317 85.4709 9.79926Z" fill="#00B956"/>
<path id="Fill 17" fill-rule="evenodd" clip-rule="evenodd" d="M111.518 5V8.78752H106.483V5H104V15H106.483V10.9591H111.518V15H114V5H111.518Z" fill="#00B956"/>
</g>
</svg>
