<svg width="100" height="30" viewBox="0 0 100 30" fill="none" xmlns="http://www.w3.org/2000/svg">
<g id="Group 21">
<g id="Group 8">
<path id="Fill 1" fill-rule="evenodd" clip-rule="evenodd" d="M95.8624 12.2395C95.8445 12.2395 95.8311 12.2537 95.8311 12.2708V12.5507C95.8311 12.5686 95.8445 12.5828 95.8624 12.5828H96.3855V14.3716C96.3855 14.3895 96.3997 14.4037 96.4176 14.4037H96.7109C96.7288 14.4037 96.743 14.3895 96.743 14.3716V12.5828H97.2661C97.2833 12.5828 97.2967 12.5686 97.2967 12.5507V12.2708C97.2967 12.2537 97.2833 12.2395 97.2661 12.2395H95.8624Z" fill="#1A1919"/>
<g id="Group 5">
<mask id="mask0" mask-type="alpha" maskUnits="userSpaceOnUse" x="97" y="12" width="3" height="3">
<path id="Clip 4" fill-rule="evenodd" clip-rule="evenodd" d="M97.5895 12.2395H99.5963V14.4037H97.5895V12.2395Z" fill="white"/>
</mask>
<g mask="url(#mask0)">
<path id="Fill 3" fill-rule="evenodd" clip-rule="evenodd" d="M99.2096 12.2395C99.1969 12.2395 99.185 12.2469 99.1798 12.2581C99.1798 12.2581 98.6462 13.5074 98.5932 13.6305C98.541 13.5074 98.0066 12.2581 98.0066 12.2581C98.0022 12.2469 97.9895 12.2395 97.9768 12.2395H97.6216C97.6044 12.2395 97.5895 12.2537 97.5895 12.2708V14.3716C97.5895 14.3895 97.6044 14.4037 97.6216 14.4037H97.9104C97.9186 14.4037 97.926 14.3999 97.932 14.3939C97.9387 14.388 97.9417 14.3805 97.9417 14.3716C97.9417 14.3716 97.9313 13.1507 97.929 12.8947C98.0283 13.1245 98.4522 14.1044 98.4522 14.1044C98.4574 14.1156 98.4686 14.1231 98.4805 14.1231H98.7051C98.7178 14.1231 98.729 14.1156 98.735 14.1044C98.735 14.1044 99.1581 13.1245 99.2574 12.8947C99.2551 13.1507 99.2454 14.3716 99.2454 14.3716C99.2454 14.3805 99.2484 14.388 99.2537 14.3939C99.2596 14.3999 99.2678 14.4037 99.2768 14.4037H99.5656C99.5828 14.4037 99.5969 14.3895 99.5969 14.3716V12.2708C99.5969 12.2537 99.5828 12.2395 99.5656 12.2395H99.2096Z" fill="#1A1919"/>
</g>
</g>
<path id="Fill 6" fill-rule="evenodd" clip-rule="evenodd" d="M57.5203 18.296C57.4016 19.5505 57.0695 19.858 56.0054 19.9759C55.8404 19.999 55.6748 20.1655 55.6748 20.355V21.3005C55.6748 21.4901 55.8404 21.6557 56.0054 21.6557C58.0874 21.6557 59.13 20.6617 59.3427 18.202L59.5546 16.0005C59.6971 14.4632 60.0046 13.9893 61.4001 13.9893H62.9382V21.2296C62.9382 21.4192 63.1039 21.5849 63.2934 21.5849H64.4292C64.5949 21.5849 64.7837 21.4192 64.7837 21.2296V12.5938C64.7837 12.405 64.5949 12.2393 64.4292 12.2393H61.3054C58.7262 12.2393 57.9695 13.7296 57.7561 15.8349L57.5203 18.296ZM82.2897 21.3722C82.3374 21.4901 82.4554 21.5849 82.5979 21.5849H83.4255C83.5919 21.5849 83.7568 21.4431 83.7568 21.2535V12.5938C83.7568 12.405 83.6143 12.2393 83.4024 12.2393H82.2665C82.0539 12.2393 81.9121 12.405 81.9121 12.5938V18.6744C81.2964 19.3371 80.1845 19.905 79.3568 19.905C78.1971 19.905 77.6285 19.2662 77.6285 17.6334V12.5938C77.6285 12.405 77.4636 12.2393 77.274 12.2393H76.1382C75.9486 12.2393 75.7837 12.405 75.7837 12.5938V18.2252C75.7837 20.2834 76.8949 21.7274 79.0494 21.7274C80.374 21.7274 81.533 21.0169 82.1009 20.5199L82.2897 21.3722ZM53.1218 21.3722C53.1695 21.4901 53.2882 21.5849 53.43 21.5849H54.2568C54.4233 21.5849 54.5889 21.4431 54.5889 21.2535V12.5938C54.5889 12.405 54.4471 12.2393 54.2345 12.2393H53.0979C52.8852 12.2393 52.7434 12.405 52.7434 12.5938V18.6744C52.1277 19.3371 51.0165 19.905 50.1882 19.905C49.0285 19.905 48.4606 19.2662 48.4606 17.6334V12.5938C48.4606 12.405 48.2956 12.2393 48.1068 12.2393H46.9695C46.7807 12.2393 46.6151 12.405 46.6151 12.5938V18.2252C46.6151 20.2834 47.7277 21.7274 49.88 21.7274C51.2054 21.7274 52.3651 21.0169 52.9322 20.5199L53.1218 21.3722ZM68.4046 18.5565C68.4046 17.8938 68.5225 17.208 69.8949 17.0893L71.9531 16.9005L71.977 19.3841C71.3151 19.7871 70.7934 19.999 69.9889 19.999C69.2083 19.999 68.4046 19.6923 68.4046 18.5565ZM67.4337 12.405C67.3158 12.4513 67.2218 12.5938 67.2218 12.7125V13.7774C67.2218 13.8714 67.2919 13.9893 67.3628 14.0371C67.4576 14.0841 67.5524 14.1087 67.6471 14.0841C68.2859 13.8714 69.0195 13.6587 70.2262 13.6587C71.7158 13.6587 71.977 14.1087 71.977 15.1722V15.3617L69.9188 15.5035C66.6061 15.7408 66.4404 17.8938 66.4404 18.5565C66.4404 20.5199 67.4815 21.7274 69.9658 21.7274C70.7464 21.7274 71.6218 21.4901 72.3792 21.0169L72.5449 21.3722C72.5919 21.4901 72.7106 21.5849 72.8531 21.5849H73.5389C73.7039 21.5849 73.8703 21.4431 73.8703 21.2535V15.1968C73.8703 12.9722 72.6874 11.908 70.2262 11.908C69.1845 11.908 68.1673 12.0975 67.4337 12.405ZM40.5904 14.7946C42.318 14.7946 43.2882 15.7408 43.2882 17.3498C43.2882 18.9587 42.318 19.8349 40.5904 19.8349H39.9762C38.6748 19.8349 38.1539 19.2908 38.1539 17.8229V14.7946H40.5904ZM36.5919 8.38261C36.4031 8.38261 36.2367 8.54754 36.2367 8.73709V17.6334C36.2367 20.0237 36.9949 21.608 39.9762 21.608H40.3307C44.5897 21.608 45.2285 18.7931 45.2285 17.3498C45.2285 16.0729 44.7546 13.0438 40.5195 13.0438H38.1539V10.1572H43.6195C43.8083 10.1572 43.9748 9.99157 43.9748 9.80202V8.73709C43.9748 8.54754 43.8083 8.38261 43.6195 8.38261H36.5919ZM83.3554 8.38261C83.568 8.38261 83.7337 8.54754 83.7337 8.73709V9.80202C83.7337 9.99157 83.568 10.1572 83.3554 10.1572H76.1382C75.9486 10.1572 75.7837 9.99157 75.7837 9.80202V8.73709C75.7837 8.54754 75.9486 8.38261 76.1382 8.38261H83.3554ZM92.3464 12.2393C92.1568 12.2393 91.9919 12.405 91.9919 12.5938V15.9535H87.7561V12.5938C87.7561 12.405 87.5897 12.2393 87.4009 12.2393H86.2412C86.0516 12.2393 85.9098 12.405 85.9098 12.5938V21.2296C85.9098 21.4192 86.0516 21.5849 86.2412 21.5849H87.4009C87.5897 21.5849 87.7561 21.4192 87.7561 21.2296V17.6334H91.9919V21.2296C91.9919 21.4192 92.1568 21.5849 92.3464 21.5849H93.5061C93.671 21.5849 93.8374 21.4192 93.8374 21.2296V12.5938C93.8374 12.405 93.671 12.2393 93.5061 12.2393H92.3464Z" fill="#1A1919"/>
</g>
<g id="Group 20">
<path id="Fill 9" fill-rule="evenodd" clip-rule="evenodd" d="M28.2471 15.0668C28.2471 22.7586 22.0135 28.9944 14.3217 28.9944C6.62767 28.9944 0.391846 22.7586 0.391846 15.0668C0.391846 7.37352 6.62767 1.13844 14.3217 1.13844C22.0135 1.13844 28.2471 7.37352 28.2471 15.0668Z" fill="#F3B337"/>
<path id="Fill 11" fill-rule="evenodd" clip-rule="evenodd" d="M3.76489 24.1536C6.31937 27.1178 10.1015 28.9939 14.3216 28.9939C18.538 28.9939 22.3179 27.1208 24.8716 24.1603C23.988 24.2834 21.1746 24.5745 14.3283 24.5745C7.29027 24.5745 4.56937 24.2723 3.76489 24.1536Z" fill="#18180F"/>
<path id="Fill 13" fill-rule="evenodd" clip-rule="evenodd" d="M27.9013 18.1714C28.1297 17.1729 28.2468 16.1341 28.2468 15.067C28.2468 13.8505 28.0931 12.6714 27.8006 11.5468C26.4207 11.5147 22.0834 11.4274 14.3864 11.4274C6.60727 11.4274 2.19459 11.5155 0.841602 11.5498C0.547572 12.6714 0.391602 13.8505 0.391602 15.067C0.391602 16.1483 0.516228 17.1998 0.749064 18.2095C2.4028 18.2371 8.90951 18.3364 14.5058 18.3364C20.1834 18.3364 26.4476 18.2028 27.9013 18.1714Z" fill="#18180F"/>
<path id="Fill 15" fill-rule="evenodd" clip-rule="evenodd" d="M24.7533 5.84045C22.2025 2.95687 18.4742 1.13821 14.3212 1.13821C10.1645 1.13821 6.43237 2.9606 3.88013 5.84717C4.82043 5.7203 7.62565 5.44344 14.2965 5.44344C20.9234 5.44344 23.7577 5.70986 24.7533 5.84045Z" fill="#18180F"/>
<g id="Group 19">
<mask id="mask1" mask-type="alpha" maskUnits="userSpaceOnUse" x="0" y="0" width="29" height="30">
<path id="Clip 18" fill-rule="evenodd" clip-rule="evenodd" d="M0.000244141 0.746567H28.639V29.3859H0.000244141V0.746567Z" fill="white"/>
</mask>
<g mask="url(#mask1)">
<path id="Fill 17" fill-rule="evenodd" clip-rule="evenodd" d="M14.3219 0.746353C6.41069 0.746353 0.000244141 7.15755 0.000244141 15.0665C0.000244141 22.9755 6.41069 29.3859 14.3219 29.3859C22.2301 29.3859 28.639 22.9755 28.639 15.0665C28.639 7.15755 22.2301 0.746353 14.3219 0.746353ZM28.2435 15.0672C28.2435 22.7568 22.0107 28.9904 14.3219 28.9904C6.62935 28.9904 0.395767 22.7568 0.395767 15.0672C0.395767 7.3762 6.62935 1.14262 14.3219 1.14262C22.0107 1.14262 28.2435 7.3762 28.2435 15.0672Z" fill="#18180F"/>
</g>
</g>
</g>
</g>
</svg>
