<svg width="124" height="46" viewBox="0 0 124 46" fill="none" xmlns="http://www.w3.org/2000/svg">
<g id="Group">
<g id="Group 4">
<mask id="mask0" mask-type="alpha" maskUnits="userSpaceOnUse" x="0" y="0" width="28" height="46">
<path id="Clip 2" fill-rule="evenodd" clip-rule="evenodd" d="M0 0.0690002H27.9845V45.9926H0V0.0690002Z" fill="white"/>
</mask>
<g mask="url(#mask0)">
<path id="Fill 1" fill-rule="evenodd" clip-rule="evenodd" d="M2.29015 45.7818H2.29028L2.2914 45.7821C2.31915 45.7934 2.34653 45.8055 2.37503 45.8158C2.39765 45.8239 2.4289 45.8323 2.46615 45.8406C2.79115 45.9413 3.1364 45.9977 3.49453 46C3.49465 46 4.18653 46 5.2999 46C6.99228 46 9.65865 46 12.35 46C16.9537 46 21.6303 46 21.6303 46L9.73578 34.202V34.2019L9.72953 34.2081C7.52978 36.3709 6.07603 37.7996 5.00503 38.856C4.05353 39.7943 3.4039 40.439 2.80153 41.0433C2.0429 41.7918 1.5374 42.2907 1.53528 42.2929L1.5334 42.2948L1.53328 42.2952C1.1634 42.6828 0.936401 43.243 0.936401 43.8182C0.936401 44.7214 1.4959 45.4589 2.29015 45.7818Z" fill="#FF4F12"/>
<path id="Fill 3" fill-rule="evenodd" clip-rule="evenodd" d="M0.936344 43.8182C0.936344 43.243 1.16334 42.6828 1.53322 42.2951L1.53334 42.2948L1.53522 42.2929C1.53734 42.2907 2.04284 41.7917 2.80147 41.0433C3.40384 40.4389 4.05347 39.7943 5.00497 38.856C6.07597 37.7996 7.52972 36.3709 9.72947 34.208L9.73572 34.2019V34.202C10.3828 33.5657 11.0938 32.8664 11.8793 32.094C11.8933 32.0802 11.908 32.0658 11.922 32.052C15.4828 28.5498 20.5523 23.5607 27.9845 16.2344L11.6527 0.0690002L2.40659 9.22683C-0.357031 11.9607 0.0169691 13.7499 0.0169691 17.4221C0.0169691 21.104 0.0169691 42.5432 0.0169691 42.5475C0.0169691 44.0331 0.962219 45.2927 2.29009 45.7817C1.49584 45.4589 0.936344 44.7214 0.936344 43.8182Z" fill="#7700FF"/>
</g>
</g>
<path id="Combined Shape" fill-rule="evenodd" clip-rule="evenodd" d="M27.3735 32.154H30.6462C32.3004 32.154 33.0557 31.353 33.0557 30.1511C33.0557 28.9496 32.3004 28.1485 30.6462 28.1485H27.3735V32.154ZM25 26H30.7181C33.5592 26 35.4292 27.4747 35.4292 30.1511C35.4292 32.8277 33.5592 34.3025 30.7181 34.3025H27.3735V38.745H25V26ZM99.8645 29.7142H102.544L98.4439 33.9019L102.652 38.745H99.9186L96.6639 35.0125V38.745H94.3981V29.7142H96.6639V32.9916L99.8645 29.7142ZM40.7869 36.8515C39.4564 36.8515 38.2156 35.8865 38.2156 34.2296C38.2156 32.5728 39.4564 31.6078 40.7869 31.6078C42.1176 31.6078 43.3583 32.5728 43.3583 34.2296C43.3583 35.8865 42.1176 36.8515 40.7869 36.8515ZM40.7869 29.4593C38.3415 29.4593 35.9138 31.0617 35.9138 34.2296C35.9138 37.3978 38.3415 38.9999 40.7869 38.9999C43.2325 38.9999 45.66 37.3978 45.66 34.2296C45.66 31.0617 43.2325 29.4593 40.7869 29.4593ZM49.071 34.2296C49.071 35.85 50.0779 36.8515 51.4444 36.8515C52.5593 36.8515 53.1346 36.3053 53.6742 35.5407L55.5442 36.5784C54.6451 38.126 53.3684 38.9999 51.4624 38.9999C48.8191 38.9999 46.7692 37.1064 46.7692 34.2296C46.7692 31.353 48.9269 29.4593 51.4624 29.4593C53.4045 29.4593 54.807 30.315 55.4543 31.7169L53.5123 32.8459C52.9549 31.9901 52.2535 31.6078 51.4444 31.6078C50.1138 31.6078 49.071 32.6274 49.071 34.2296ZM75.5682 34.8306C75.4604 36.2142 75.1903 36.5238 74.7228 36.5238C74.4032 36.5238 74.2532 36.488 74.0345 36.43L74.0459 38.7671C74.0459 38.7671 74.3275 38.8543 74.8488 38.8543C76.7729 38.8543 77.4923 37.5979 77.6721 34.9215L77.8879 31.7716H80.4411V38.7269H82.7069V29.7142H75.9459L75.5682 34.8306ZM69.0699 31.2073C67.8831 31.2073 66.9839 32.0083 66.6603 33.028H71.3895C71.1736 31.8991 70.3286 31.2073 69.0699 31.2073ZM64.4485 34.2296C64.4485 31.371 66.5525 29.4593 69.1417 29.4593C71.6951 29.4593 73.4933 31.3348 73.4933 33.9747V34.7758H66.6244C66.7681 36.1596 67.7393 37.0335 69.0699 37.0335C70.2746 37.0335 70.778 36.5055 71.3354 35.7954L73.1337 36.7058C72.2346 38.2534 70.9939 38.9999 69.0339 38.9999C66.5525 38.9999 64.4485 37.0882 64.4485 34.2296ZM86.187 33.028C86.5107 32.0083 87.4097 31.2073 88.5966 31.2073C89.8552 31.2073 90.7003 31.8991 90.9163 33.028H86.187ZM88.6684 29.4593C86.079 29.4593 83.9753 31.371 83.9753 34.2296C83.9753 37.0882 86.079 38.9999 88.5605 38.9999C90.5205 38.9999 91.7612 38.2534 92.6604 36.7058L90.8622 35.7954C90.3048 36.5055 89.8013 37.0335 88.5966 37.0335C87.2658 37.0335 86.2948 36.1596 86.1511 34.7758H93.0201V33.9747C93.0201 31.3348 91.2218 29.4593 88.6684 29.4593ZM58.9102 31.7169H56.249V29.7142H63.8373V31.7169H61.1759V38.745H58.9102V31.7169ZM107.15 36.8515C105.819 36.8515 104.579 35.8865 104.579 34.2296C104.579 32.5729 105.819 31.6078 107.15 31.6078C108.48 31.6078 109.721 32.5729 109.721 34.2296C109.721 35.8865 108.48 36.8515 107.15 36.8515ZM107.15 29.4593C104.704 29.4593 102.277 31.0617 102.277 34.2296C102.277 37.3978 104.704 39 107.15 39C109.595 39 112.023 37.3978 112.023 34.2296C112.023 31.0617 109.595 29.4593 107.15 29.4593ZM118.579 36.0371L121.038 29.7125H124V38.7269H121.846V33.0202L119.459 38.7269H117.7L115.312 33.0202V38.7269H113.159V29.7125H116.12L118.579 36.0371Z" fill="#101828"/>
</g>
</svg>
