<svg width="71" height="52" viewBox="0 0 71 52" fill="none" xmlns="http://www.w3.org/2000/svg">
<g id="Group 13">
<path id="Fill 1" fill-rule="evenodd" clip-rule="evenodd" d="M7.16438 14.7838C8.45346 14.7838 9.0856 13.8992 9.0856 12.888C9.0856 11.877 8.47887 11.0426 7.18959 11.0426H4.51V14.7838H7.16438ZM6.7851 7.5036C7.89734 7.5036 8.37765 6.69482 8.37765 5.83543C8.37765 5.00125 7.89734 4.2935 6.70928 4.2935H4.51V7.5036H6.7851ZM0.0864258 0.501465H6.73469C10.3495 0.501465 12.8772 2.11942 12.8772 5.2285C12.8772 6.74524 12.1443 8.28737 10.7792 9.07114V9.12156C12.852 9.7535 13.6104 11.5989 13.6104 13.1914C13.6104 17.1349 10.3241 18.5756 6.73469 18.5756H0.0864258V0.501465Z" fill="#3099FF"/>
<path id="Fill 3" fill-rule="evenodd" clip-rule="evenodd" d="M25.7937 0.198486C28.2204 0.198486 30.7988 1.00726 32.5684 2.75145L30.5207 6.08838C29.3579 5.07696 27.6137 4.24297 25.9959 4.24297C22.3811 4.24297 20.8896 6.79613 20.8896 9.39971C20.8896 12.0793 22.5074 14.8347 25.9959 14.8347C27.7907 14.8347 29.5603 13.8487 30.7988 12.61L33.0739 15.8457C31.4813 17.4889 29.1052 18.8792 25.7937 18.8792C19.9796 18.8792 16.3142 14.8599 16.3142 9.50073C16.3142 4.24297 20.2073 0.198486 25.7937 0.198486Z" fill="#3099FF"/>
<path id="Fill 6" fill-rule="evenodd" clip-rule="evenodd" d="M36.5105 0.501465H47.8354V4.2933H40.9341V7.57942H46.4449V11.3714H40.9341V14.7838H48.1893V18.5756H36.5105V0.501465Z" fill="#3099FF"/>
<path id="Fill 8" fill-rule="evenodd" clip-rule="evenodd" d="M52.6373 0.501465H57.4401L60.0691 8.13574C60.4734 9.2984 60.9791 11.1186 60.9791 11.1186H61.0297C61.0297 11.1186 61.5352 9.2984 61.9397 8.13574L64.5687 0.501465H69.3716L70.8377 18.5756H66.4141L65.8578 10.436C65.757 9.07114 65.8578 7.40258 65.8578 7.40258H65.8074C65.8074 7.40258 65.2006 9.2984 64.7963 10.436L62.9003 15.6688H59.1085L57.2127 10.436C56.8082 9.2984 56.2015 7.40258 56.2015 7.40258H56.1509C56.1509 7.40258 56.2521 9.07114 56.1509 10.436L55.5947 18.5756H51.1458L52.6373 0.501465Z" fill="#3099FF"/>
<path id="Fill 10" fill-rule="evenodd" clip-rule="evenodd" d="M51.3083 46.5606L50.752 38.4208C50.651 37.0559 50.752 35.3876 50.752 35.3876H50.7016C50.7016 35.3876 50.0949 37.2834 49.6906 38.4208L47.7946 43.6538H44.0027L42.1069 38.4208C41.7024 37.2834 41.0957 35.3876 41.0957 35.3876H41.0451C41.0451 35.3876 41.1463 37.0559 41.0451 38.4208L40.4889 46.5606H36.04L37.5315 28.4865H42.3344L44.9633 36.1205C45.3678 37.2834 45.8733 39.1036 45.8733 39.1036H45.9239C45.9239 39.1036 46.4295 37.2834 46.8339 36.1205L49.4629 28.4865H54.2658L55.7319 46.5606H51.3083ZM28.0272 46.5606H32.4508V28.4865H28.0272V46.5606ZM18.2957 46.8639C15.9447 46.8639 13.4676 46.0043 11.7486 44.2855L14.0741 40.9236C15.0854 41.8082 16.8041 42.794 18.4221 42.794C19.6608 42.794 20.2927 42.2381 20.2927 41.5301C20.2927 38.9772 12.3045 39.3815 12.3045 33.7192C12.3045 30.3823 15.06 28.1832 18.852 28.1832C20.874 28.1832 22.9471 28.8403 24.5142 30.2308L22.6436 33.8456C21.6324 32.9608 20.0653 32.2529 18.6495 32.2529C17.3098 32.2529 16.7285 32.809 16.7285 33.542C16.7285 36.1205 24.7165 35.514 24.7165 41.2269C24.7165 44.2603 22.4668 46.8639 18.2957 46.8639ZM0 22.7966V51.9722H59.145L70.855 40.2623V22.7966H0Z" fill="#3099FF"/>
</g>
</svg>
