<svg width="69" height="26" viewBox="0 0 69 26" fill="none" xmlns="http://www.w3.org/2000/svg">
<path id="logo" fill-rule="evenodd" clip-rule="evenodd" d="M52.0214 11C51.7458 4.8556 54.1339 1.08954 58.997 0L59 5.76851C57.9793 6.22116 56.9705 7.04453 57.2068 10.5159L52.0214 11ZM60.3891 0.106392C62.97 -0.271672 65.3301 0.364107 66.9384 1.91385C68.4094 3.3314 69.1515 5.33911 68.9742 7.42253C68.6386 11.3605 66.7637 14.5157 61.5435 19.7142L53 20C53 20 58.9511 14.4906 61.1895 11.7988C62.6398 10.0544 63.2541 8.17151 62.6584 6.91647C62.2809 6.12113 61.4334 5.72531 60.3891 5.7845V0.106392ZM43 3.03159V8L50 7.19268V2L43 3.03159ZM36 26V3.72994L41 3V26H36ZM16 6.78645V11L22 10.3845V6L16 6.78645ZM11 26V7.54872L15 7V26H11ZM0 9.37428V13L10 11.924V8L0 9.37428ZM3 13.3715V26H7V13L3 13.3715ZM16 19V14.3428L20 14V18.7822L16 19ZM16 22.1535V26H22V22L16 22.1535ZM42 17V11.4521L47 11V16.7119L42 17ZM43 21.213V26H50V21L43 21.213ZM23 26V5.63325L27 5V26H23ZM29 21.2016V26H35V21L29 21.2016ZM69 26V20L52 20.4437V26H69Z" fill="#1F2229"/>
</svg>
