<?xml version="1.0" encoding="UTF-8"?><!DOCTYPE svg PUBLIC "-//W3C//DTD SVG 1.1//EN" "http://www.w3.org/Graphics/SVG/1.1/DTD/svg11.dtd"><svg xmlns="http://www.w3.org/2000/svg" xmlns:xlink="http://www.w3.org/1999/xlink"><symbol id="ico-mono-arrow-angle-down" viewBox="0 0 7 4">
    <path d="M6.5.5l-3 3-3-3"/>
</symbol><symbol id="ico-mono-arrow-angle-left" viewBox="0 0 10 19">
    <path fill-rule="evenodd" clip-rule="evenodd" d="M9.26 18.52a.741.741 0 00.523-1.263L1.787 9.26l7.998-7.997A.74.74 0 008.737.217l-8.52 8.52a.74.74 0 000 1.047l8.52 8.52a.738.738 0 00.523.217z"/>
</symbol><symbol id="ico-mono-arrow-angle-mob" viewBox="0 0 20 11">
    <path fill-rule="evenodd" clip-rule="evenodd" d="M19.5 9.76c0 .19-.074.38-.222.524a.774.774 0 01-1.074 0L10 2.286l-8.204 7.998a.774.774 0 01-1.074 0 .727.727 0 010-1.047L9.463.717a.773.773 0 011.074 0l8.74 8.52a.728.728 0 01.223.523z"/>
</symbol><symbol id="ico-mono-arrow-angle-right" viewBox="0 0 10 19">
    <path fill-rule="evenodd" clip-rule="evenodd" d="M.74 18.52a.741.741 0 01-.523-1.263L8.213 9.26.216 1.263A.74.74 0 011.263.217l8.52 8.52a.74.74 0 010 1.047l-8.52 8.52a.738.738 0 01-.523.217z"/>
</symbol><symbol id="ico-mono-arrow-angle-up" viewBox="0 0 19 10">
    <path fill-rule="evenodd" clip-rule="evenodd" d="M18.52 9.26a.741.741 0 01-1.263.523L9.26 1.787 1.263 9.784A.74.74 0 01.217 8.737l8.52-8.52a.74.74 0 011.047 0l8.52 8.52a.738.738 0 01.217.523z"/>
</symbol><symbol id="ico-mono-arrow-long-right" viewBox="0 0 40 26">
    <path fill-rule="evenodd" clip-rule="evenodd" d="M39.703 11.954L28.046.297a1.012 1.012 0 10-1.431 1.43l10.114 10.115H1.012a1.012 1.012 0 100 2.024H36.36l-9.744 9.745a1.012 1.012 0 101.431 1.431l11.471-11.47.003-.003.183-.184a1.012 1.012 0 000-1.431z"/>
</symbol><symbol id="ico-mono-arrow-top" viewBox="0 0 11 7">
    <path fill-rule="evenodd" clip-rule="evenodd" d="M.87 5.76a.369.369 0 00.631.262l4-3.999 3.998 3.999a.37.37 0 00.523-.523l-4.26-4.26a.37.37 0 00-.524 0l-4.26 4.26a.369.369 0 00-.108.261z"/>
    <path d="M.87 5.76a.369.369 0 00.631.262l4-3.999 3.998 3.999a.37.37 0 00.523-.523l-4.26-4.26a.37.37 0 00-.524 0l-4.26 4.26a.369.369 0 00-.108.261"/>
</symbol><symbol id="ico-mono-burger" viewBox="0 0 24 18">
    <path fill-rule="evenodd" clip-rule="evenodd" d="M0 1a1 1 0 011-1h21.292a1 1 0 011 1v1.583a1 1 0 01-1 1H1a1 1 0 01-1-1V1zm0 7.167a1 1 0 011-1h21.292a1 1 0 011 1V9.75a1 1 0 01-1 1H1a1 1 0 01-1-1V8.167zm1 6.166a1 1 0 00-1 1v1.584a1 1 0 001 1h21.292a1 1 0 001-1v-1.584a1 1 0 00-1-1H1z"/>
</symbol><symbol id="ico-mono-check" viewBox="0 0 14 12">
    <path d="M1.894 6.5l3.301 3.79 7.699-8.838" stroke-width="2" stroke-linecap="round" stroke-linejoin="round"/>
</symbol><symbol id="ico-mono-close" viewBox="0 0 17 17">
    <path fill-rule="evenodd" clip-rule="evenodd" d="M16.178 2.885a1 1 0 000-1.415L15.33.622a1 1 0 00-1.414 0L8.4 6.137 2.884.622a1 1 0 00-1.414 0l-.848.848a1 1 0 000 1.415L6.137 8.4.622 13.915a1 1 0 000 1.415l.848.848a1 1 0 001.414 0L8.4 10.663l5.515 5.515a1 1 0 001.415 0l.848-.848a1 1 0 000-1.415L10.663 8.4l5.515-5.515z"/>
</symbol><symbol id="ico-mono-device-headph" viewBox="0 0 14 20">
    <path fill-rule="evenodd" clip-rule="evenodd" d="M1 0a1 1 0 011 1v7h2V4a4 4 0 014-4h2a4 4 0 014 4v12a4 4 0 01-4 4H8a4 4 0 01-4-4v-6H2v2H0V1a1 1 0 011-1z"/>
</symbol><symbol id="ico-mono-device-phone" viewBox="0 0 12 20">
    <path fill-rule="evenodd" clip-rule="evenodd" d="M7.5 17.5a1.667 1.667 0 11-3.335-.001A1.667 1.667 0 017.5 17.5zM1.667 15H10V2.5H1.667V15zm8.759-15H1.24C.556 0 0 .556 0 1.24v17.52C0 19.443.556 20 1.24 20h9.186c.685 0 1.24-.556 1.24-1.24V1.24c0-.684-.555-1.24-1.24-1.24z"/>
</symbol><symbol id="ico-mono-device-tablet" viewBox="0 0 27 20">
    <path fill-rule="evenodd" clip-rule="evenodd" d="M24.167 8.333a1.667 1.667 0 11-.002 3.335 1.667 1.667 0 01.002-3.335zM2.5 17.5h19.167v-15H2.5v15zM0 2.127v15.746C0 19.047.74 20 1.654 20h23.358c.914 0 1.655-.953 1.655-2.127V2.127C26.667.952 25.926 0 25.012 0H1.654C.741 0 0 .952 0 2.127z"/>
</symbol><symbol id="ico-mono-device-tv" viewBox="0 0 22 20">
    <path fill-rule="evenodd" clip-rule="evenodd" d="M14.962 13.5h-1.815l-2.42-7h1.726l1.482 4.872c.08.264.128.496.144.698h.03c.024-.218.074-.457.154-.718L15.735 6.5h1.676l-2.45 7.002zm-4.72-5.717H8.214v5.718H6.608V7.783H4.59V6.5h5.652v1.284zM0 1.883v16.235C0 19.157.856 20 1.912 20h18.176C21.145 20 22 19.157 22 18.117V1.883C22 .843 21.145 0 20.088 0H1.913C.856 0 0 .843 0 1.883z"/>
</symbol><symbol id="ico-mono-fb" viewBox="0 0 12 26">
    <path fill-rule="evenodd" clip-rule="evenodd" d="M11.9 8.5h-4V5.9c0-1 .7-1.2 1.1-1.2h2.8V.3H7.9C3.5.3 2.6 3.6 2.6 5.6v2.9H.1V13h2.5v12.7h5.3V13h3.6l.4-4.5z"/>
</symbol><symbol id="ico-mono-hand-cart" viewBox="0 0 25 24">
    <path fill-rule="evenodd" clip-rule="evenodd" d="M20.606 0c.265 0 .481.211.488.475v9.547l.473-.488a1.958 1.958 0 012.74-.219c.816.69.926 1.906.253 2.729l-4.395 5.277a4.37 4.37 0 01-3.063 1.283h-6.465c-.582 0-1.134.22-1.558.617l-.021.02-.538.52a2.26 2.26 0 01-.635 1.812l-.02.02-1.5 1.5a.488.488 0 01-.678.012l-.012-.012-5.532-5.524a.49.49 0 01-.01-.68l.01-.012 1.508-1.5a2.255 2.255 0 011.72-.662c.799-1.699 2.277-2.866 4.14-3.275l.058-.012V.488c0-.265.211-.48.474-.488h12.564zM4.175 16.069a1.295 1.295 0 00-1.819-.015l-.015.015-1.161 1.155 4.84 4.833 1.154-1.155a1.295 1.295 0 00.015-1.819l-.015-.015-3-2.999zm18.138-5.905a.98.98 0 011.365-.102.979.979 0 01.113 1.379l-4.36 5.235-.023.023c-.636.6-1.466.928-2.342.928H10.604a3.236 3.236 0 00-2.224.912l-.216.208-.021-.033a2.274 2.274 0 00-.278-.336l-3-3-.028-.028a2.283 2.283 0 00-.51-.37c.746-1.471 2.078-2.41 3.8-2.66.988-.142 1.975-.058 2.933.332.153.061.31.093.467.093h5.678a.978.978 0 01-.017 1.953H12.926a.488.488 0 00.014.976h4.28a1.955 1.955 0 001.904-2.21c.102-.103 3.053-3.156 3.155-3.262l.011-.012.023-.026zM20.118.977H8.545v10.32c.162-.011.325-.017.489-.017.827 0 1.633.157 2.393.467a.28.28 0 00.086.02l.014.001h5.661c.59 0 1.136.27 1.5.705l.017.02 1.413-1.46V.976zm-7.227 2.49a.488.488 0 00-.488-.488h-.991a.488.488 0 00.014.976V4.98a2.929 2.929 0 005.86-.048v-.977h.013a.488.488 0 00-.013-.976h-.991a.488.488 0 00.014.976v1.009a1.953 1.953 0 01-3.906-.032v-.977h.013a.488.488 0 00.475-.488z"/>
</symbol><symbol id="ico-mono-infinity-fig" viewBox="0 0 37 19">
    <path fill-rule="evenodd" clip-rule="evenodd" d="M37 9.5C37 4.262 32.697 0 27.407 0c-2.26 0-4.88 1.24-8.006 3.792-.296.242-.597.496-.901.76a38.11 38.11 0 00-.901-.76C14.472 1.24 11.853 0 9.592 0 4.303 0 0 4.262 0 9.5S4.303 19 9.592 19c2.261 0 4.88-1.24 8.007-3.792.296-.242.597-.496.901-.76.304.264.605.518.901.76C22.528 17.76 25.148 19 27.408 19 32.697 19 37 14.738 37 9.5zM20.783 5.362C23.495 3.132 25.75 2 27.485 2 31.629 2 35 5.364 35 9.5S31.628 17 27.485 17c-1.735 0-3.99-1.131-6.702-3.362-.257-.21-1.829-1.72-3.357-3.186-1.388-1.333-2.74-2.63-3.038-2.89l-.032-.027c-2.889-2.368-4.31-2.666-4.811-2.676h-.03A4.652 4.652 0 004.864 9.5a4.652 4.652 0 004.651 4.642c.477 0 1.907-.264 4.88-2.71.176-.143.353-.293.532-.447l2.01 2.045-.104.09c-.207.178-.413.352-.616.518C13.505 15.868 11.25 17 9.515 17 5.371 17 2 13.636 2 9.5 2 5.365 5.371 2 9.515 2c1.735 0 3.99 1.131 6.702 3.362.5.411 5.077 4.935 5.077 4.935l.101.092c.408.369.814.719 1.21 1.044 2.913 2.396 4.345 2.697 4.85 2.709h.03A4.652 4.652 0 0032.136 9.5a4.652 4.652 0 00-4.651-4.642c-.474 0-1.893.261-4.841 2.677-.188.154-.379.315-.57.48l-2.01-2.044.103-.09c.207-.179.413-.352.616-.52zM27.68 7l-.028.007c-.22.055-1.236.39-3.31 2.192-.085.073-.17.148-.256.224L24 9.5l.102.092.103.09.101.089c2.208 1.923 3.23 2.198 3.373 2.229C28.963 11.975 30 10.863 30 9.5S28.963 7.025 27.68 7zM7 9.5C7 8.137 8.037 7.025 9.32 7c.143.03 1.155.303 3.339 2.199.112.098.226.198.341.301-.103.092-.205.183-.306.27-2.076 1.81-3.103 2.16-3.338 2.222L9.32 12C8.037 11.975 7 10.863 7 9.5z"/>
</symbol><symbol id="ico-mono-insta" viewBox="0 0 24 24">
    <path fill-rule="evenodd" clip-rule="evenodd" d="M4.8.3h14.4c2.5 0 4.5 2 4.5 4.5V19.2c0 2.5-2 4.5-4.5 4.5H4.8c-2.5 0-4.5-2-4.5-4.5V4.8C.3 2.3 2.3.3 4.8.3zM21 3h-4v4h4V3zM8.7 9.6c.7-1 2-1.7 3.3-1.7 1.3 0 2.6.7 3.3 1.7.5.7.8 1.5.8 2.4 0 2.3-1.9 4.1-4.1 4.1-2.2 0-4.1-1.8-4.1-4.1 0-.9.3-1.7.8-2.4zm10.5 11.8c1.2 0 2.2-1 2.2-2.2V9.6h-3.5c.3.7.5 1.6.5 2.4 0 3.5-2.9 6.4-6.4 6.4-3.5 0-6.4-2.9-6.4-6.4 0-.8.2-1.7.5-2.4H2.6v9.6c0 1.2 1 2.2 2.2 2.2h14.4z"/>
</symbol><symbol id="ico-mono-list-arrows" viewBox="0 0 41 27">
    <path fill-rule="evenodd" clip-rule="evenodd" d="M10.486 23.586l6.777-6.778a.999.999 0 111.414 1.414l-8.484 8.485a1.01 1.01 0 01-.707.293.996.996 0 01-.709-.293L.293 18.222a1 1 0 011.413-1.414l6.78 6.778V1a1 1 0 112 0v22.586zM32.191.294l8.486 8.485a.999.999 0 11-1.414 1.414l-6.779-6.778V26a1 1 0 01-2 0V3.415l-6.779 6.778a.999.999 0 11-1.413-1.414L30.777.294a1.004 1.004 0 011.415 0z"/>
</symbol><symbol id="ico-mono-list-device" viewBox="0 0 32 26">
    <path fill-rule="evenodd" clip-rule="evenodd" d="M4.57 5.865A1.002 1.002 0 005.937 5.5 7.028 7.028 0 0112 2a7.03 7.03 0 016.064 3.5.997.997 0 001.366.365c.478-.277.64-.889.365-1.367A9.034 9.034 0 0012 0a9.036 9.036 0 00-7.795 4.498 1.001 1.001 0 00.365 1.367zM31 0h-3a1 1 0 00-1 1v12h-3v-3a1 1 0 00-1-1H1a1 1 0 00-1 1v15a1 1 0 001 1h22a1 1 0 001-1v-7h7a1 1 0 001-1V1a1 1 0 00-1-1zm-7 16v-1h4a1 1 0 001-1V2h1v14h-6zM2 24h20V11H2v13zM6.472 6.664A6.003 6.003 0 0117.5 6.6a1 1 0 01-1.833.801 4.001 4.001 0 00-7.353.043 1 1 0 11-1.842-.779z"/>
</symbol><symbol id="ico-mono-list-devices" viewBox="0 0 37 25">
    <path fill-rule="evenodd" clip-rule="evenodd" d="M11.667 22.875h18.75V2.125H5.458V5h4.968c.628 0 1.147.467 1.23 1.073l.01.168v16.634zM5 20a1.667 1.667 0 10.001 3.335A1.667 1.667 0 005 20zm5-13.333H1.667V20H10V6.667zm23.542 3.75a2.084 2.084 0 10.001 4.168 2.084 2.084 0 00-.001-4.168zM1.24 25a1.242 1.242 0 01-1.23-1.072L0 23.759V6.241c0-.628.467-1.147 1.073-1.23l.168-.01L3.333 5V2.658c0-1.381.82-2.517 1.869-2.646L5.4 0h29.198c1.074 0 1.958 1.055 2.058 2.402l.01.256v19.684c0 1.381-.82 2.517-1.869 2.646l-.2.012H1.242z"/>
</symbol><symbol id="ico-mono-list-doc" viewBox="0 0 25 26">
    <path fill-rule="evenodd" clip-rule="evenodd" d="M19 0a1 1 0 011 1v6.967a1 1 0 01-2 0V2H2v22h12.289L18 20.243v-2.29a1 1 0 012 0v2.701a.998.998 0 01-.289.702l-4.293 4.347a.999.999 0 01-.711.297H1a1 1 0 01-1-1V1a1 1 0 011-1h18zm5.665 6.252c.412.368.449.999.083 1.413l-8 9a1.004 1.004 0 01-.627.328l-.147.007a1.003 1.003 0 01-.755-.375l-4-5a1 1 0 011.562-1.25l3.259 4.075 7.212-8.115c.368-.412.999-.45 1.413-.083z"/>
</symbol><symbol id="ico-mono-list-map" viewBox="0 0 44 26">
    <path fill-rule="evenodd" clip-rule="evenodd" d="M17.458 21.976l2.632 1.974 3.868-1.935a.994.994 0 01.612-.091l3.859.643 1.924-1.925v-1.29a1 1 0 011-1h.47c.217 0 .427.071.6.201l2.47 1.851.846-.565a1 1 0 011.555.832v2.207l2.236-2.235v-3.31l-1.971-2.628h-2.676a1 1 0 01-1-1v-1.119c0-.265.105-.52.293-.707l1.118-1.118V7.789a1.001 1.001 0 011.447-.895l1.412.706a1 1 0 01.553.894v2.189l2.94 1.176v-5.03l-1.945-.973a1.002 1.002 0 01-.385-1.449l.92-1.379V2H35.71l-3.443 3.443-3.3 3.962a.998.998 0 01-.768.359h-3.47a.999.999 0 01-.893-.552L22.75 7.041l-3.908 1.954-1.677 2.235a1 1 0 01-1.354.232l-1.488-.992h-2.734a1 1 0 01-1-1V7.041l-1.615.551L7.81 9.917a1 1 0 01-.895.553H4.71l-.593 1.188v1.881c0 .155-.036.308-.105.447l-.578 1.153.497 1.491a.998.998 0 01-.394 1.148l-1.497.999.637 2.544L4.557 23.2l2.502-1.876v-.973a1.002 1.002 0 011.707-.707l1.38 1.381 1.7-2.273c.19-.251.486-.4.8-.4h2.072a1 1 0 01.858.486l1.882 3.138zm2.6 4.025a1.7 1.7 0 01-1.022-.342l-2.824-2.118a1.695 1.695 0 01-.44-.487l-1.62-2.702h-1.005l-1.605 2.142a1.71 1.71 0 01-2.571.182l-.224-.224a1.68 1.68 0 01-.37.383l-2.823 2.117a1.714 1.714 0 01-2.231-.158l-2.118-2.117a1.708 1.708 0 01-.45-.795l-.704-2.821a1.71 1.71 0 01.709-1.834l1.033-.689-.294-.882a1.72 1.72 0 01.092-1.301l.527-1.052v-1.715c0-.264.063-.529.18-.765l.706-1.41A1.697 1.697 0 014.53 8.47h1.769l.94-1.88c.205-.409.556-.712.988-.856l2.116-.706a1.708 1.708 0 012.246 1.619V8.47h1.823c.338 0 .666.1.948.288l.773.515 1.15-1.532a1.71 1.71 0 01.599-.502L22.12 5.12a1.707 1.707 0 012.288.764l.94 1.88h2.382l3.019-3.621c.019-.024.082-.093.104-.114l3.529-3.53A1.7 1.7 0 0135.589 0h4.94c.942 0 1.707.765 1.707 1.705v1.413c0 .337-.1.665-.288.947l-.34.508 1.096.547v.001c.582.29.943.875.943 1.526v5.647a1.706 1.706 0 01-2.339 1.583l-3.53-1.411a1.704 1.704 0 01-.78-.625c-.06.088-.127.171-.203.247l-.617.617h1.528c.534 0 1.044.256 1.365.683l2.117 2.823c.22.293.342.657.342 1.024v3.529c0 .45-.182.889-.5 1.207l-2.824 2.823c-.317.318-.756.5-1.206.5-.94 0-1.706-.765-1.706-1.706V22.42a1.708 1.708 0 01-1.435-.291l-1.521-1.141c-.05.369-.22.718-.485.983l-2.117 2.117a1.71 1.71 0 01-1.485.477l-3.69-.615-3.74 1.87a1.715 1.715 0 01-.763.181z"/>
</symbol><symbol id="ico-mono-list-round" viewBox="0 0 25 25">
    <path fill-rule="evenodd" clip-rule="evenodd" d="M0 12.5C0 5.593 5.593 0 12.5 0S25 5.613 25 12.5 19.387 25 12.5 25 0 19.407 0 12.5zm19.586-8.38A10.854 10.854 0 0012.5 1.513 10.96 10.96 0 005.414 4.12l3.025 3.006A6.701 6.701 0 0112.5 5.752c1.513 0 2.926.518 4.06 1.374l3.026-3.006zm-1.871 8.38a5.22 5.22 0 01-5.215 5.215A5.22 5.22 0 017.285 12.5c0-2.866 2.349-5.215 5.215-5.215 2.866 0 5.215 2.349 5.215 5.215zM4.319 5.195A10.835 10.835 0 001.513 12.5c0 2.707.995 5.175 2.607 7.086l3.026-3.025A6.658 6.658 0 015.772 12.5c0-1.632.578-3.125 1.553-4.3L4.319 5.196zM12.5 23.487a10.835 10.835 0 01-7.305-2.806l3.006-3.006a6.692 6.692 0 004.299 1.553 6.652 6.652 0 004.3-1.553l3.005 3.006a10.932 10.932 0 01-7.305 2.806zm5.374-6.926l3.006 3.025a11.086 11.086 0 002.627-7.086c0-2.807-1.075-5.354-2.806-7.305l-3.006 3.006a6.652 6.652 0 011.553 4.299 6.745 6.745 0 01-1.374 4.06z"/>
</symbol><symbol id="ico-mono-list-ruble" viewBox="0 0 26 26">
    <path fill-rule="evenodd" clip-rule="evenodd" d="M13 0c7.168 0 13 5.832 13 13s-5.832 13-13 13S0 20.168 0 13 5.832 0 13 0zm0 2C6.935 2 2 6.935 2 13s4.935 11 11 11 11-4.935 11-11S19.065 2 13 2zm2.058 4.342a3.919 3.919 0 013.914 3.915 3.919 3.919 0 01-3.914 3.914h-2.943v.743h2.77a1 1 0 01.117 1.994l-.116.006h-2.771v1.743a1 1 0 01-1.994.117l-.006-.117v-1.743H9.058a1 1 0 01-.117-1.993l.117-.007h1.057v-.743H9.058a1 1 0 01-.117-1.993l.117-.007h1.057V7.342a1 1 0 01.883-.993l.117-.007 3.807.001.036.002.1-.003zm-.238 2h-2.705v3.83h2.643l.065-.007.065-.003.17.01a1.916 1.916 0 001.914-1.915c0-1.005-.78-1.832-1.765-1.909l-.15-.006-.056.004a.998.998 0 01-.181-.004z"/>
</symbol><symbol id="ico-mono-list-shield" viewBox="0 0 26 26">
    <path fill-rule="evenodd" clip-rule="evenodd" d="M2 2.398V13c0 4.7 7.583 9.278 11 10.898C16.417 22.278 24 17.7 24 13V2.398C22.012 3.01 18.02 4 13 4S3.988 3.01 2 2.398zM13 26c-.139 0-.279-.029-.409-.087C12.077 25.683 0 20.193 0 13V1A1 1 0 011.371.071c.048.02 4.925 1.93 11.629 1.93S24.581.09 24.629.07A1 1 0 0126 1v12c0 7.193-12.077 12.683-12.591 12.913-.13.058-.27.087-.409.087z"/>
</symbol><symbol id="ico-mono-list-worktime" viewBox="0 0 29 26">
    <path fill-rule="evenodd" clip-rule="evenodd" d="M15.424 0a1 1 0 000 2c6.065 0 11 4.935 11 11s-4.935 11-11 11C9.93 24 5.376 19.946 4.565 14.674l.576.576a.999.999 0 101.414-1.414l-2.424-2.424a.999.999 0 00-1.414 0L.293 13.836a.999.999 0 101.414 1.414l.802-.803C3.232 20.937 8.745 26 15.424 26c7.168 0 13-5.832 13-13s-5.832-13-13-13zM9.767 11.257a1 1 0 001-1c0-.96.782-1.743 1.743-1.743a1.745 1.745 0 011.45 2.71l-4.993 6.662a1.001 1.001 0 00.8 1.6h5.486a1 1 0 000-2h-3.487l3.806-5.08c.004-.003.005-.008.007-.012 0-.002 0-.004.002-.006l.002-.005a.162.162 0 01.011-.012.12.12 0 00.018-.02c.419-.62.641-1.344.641-2.094a3.747 3.747 0 00-3.743-3.743 3.747 3.747 0 00-3.743 3.743 1 1 0 001 1zm11.315 8.229a1 1 0 001-1V7.515a1.001 1.001 0 00-1.825-.567l-5.029 7.315a1 1 0 00.824 1.566h4.03v2.657a1 1 0 001 1zm-3.128-5.657l2.128-3.095v3.095h-2.128z"/>
</symbol><symbol id="ico-mono-lock" viewBox="0 0 6 9">
    <path fill-rule="evenodd" clip-rule="evenodd" d="M4.499 4.5L4.5 2.24c0-.776-.595-1.41-1.356-1.483L3 .75l-.145.007a1.49 1.49 0 00-1.348 1.34l-.007.144v1.134H.75V2.253c0-1.192.917-2.168 2.095-2.247L3 0a2.252 2.252 0 012.25 2.253V4.53c.431.11.75.502.75.97v2.502A1 1 0 015.01 9H.99A.995.995 0 010 8.002V5.499c0-.467.324-.86.75-.968V4.5h3.749z"/>
</symbol><symbol id="ico-mono-mail-success" viewBox="0 0 100 114">
    <path fill-rule="evenodd" clip-rule="evenodd" d="M61 21L48 9 35 21h26zM28.591 71L16 60.267V28.84A3.82 3.82 0 0119.823 25h57.354C79.26 25 81 26.72 81 28.841v31.426L68.256 71H28.59zM33 75l6.903 6h17.11L64 75H33zm28.44 8.099l8.391-7.235L84.48 63.399V42L96 52.197v54.101c0 4.247-3.445 7.702-7.694 7.702H7.694A7.68 7.68 0 010 106.298V52.197L11.52 42v21.4l14.649 12.464 8.391 7.235-22.745 19.61 3.102 3.12L37.92 85.996l.081.07 20.058-.088 23.024 19.851 3.102-3.12-22.745-19.61zM23 40v-4h50v4H23zm0 8v4h50v-4H23zm0 15v-4h50v4H23z"/>
    <circle cx="79" cy="21" r="21"/>
    <path d="M68 24.378l7.76 6.508L91.283 13" stroke-width="3" stroke-linecap="round" stroke-linejoin="round"/>
</symbol><symbol id="ico-mono-mobile-order" viewBox="0 0 17 24">
    <path fill-rule="evenodd" clip-rule="evenodd" d="M5 21a2 2 0 104.001-.001A2 2 0 005 21zm7-3v-4h2v8.511A1.49 1.49 0 0112.511 24H1.489A1.49 1.49 0 010 22.511V1.489A1.49 1.49 0 011.489 0h11.022A1.49 1.49 0 0114 1.489V8h-2V3H2v15h10zm-1.902-8H16a1 1 0 010 2h-5.902v1.943L5 11l5.098-2.943V10z"/>
</symbol><symbol id="ico-mono-nav-bus" viewBox="0 0 31 41">
    <path fill-rule="evenodd" clip-rule="evenodd" d="M7.154 2.412V0h16.692v2.412h4.77C29.807 2.412 31 3.618 31 4.824v31.352h-2.385V41h-4.769v-4.824H7.154V41h-4.77v-4.824H0V4.824c0-1.206 1.192-2.412 2.385-2.412h4.769zM26 7H5v12h21V7zM7.5 26c1.385 0 2.5 1.115 2.5 2.5S8.885 31 7.5 31A2.495 2.495 0 015 28.5C5 27.115 6.115 26 7.5 26zM26 28.5c0-1.385-1.115-2.5-2.5-2.5a2.495 2.495 0 00-2.5 2.5c0 1.385 1.115 2.5 2.5 2.5s2.5-1.115 2.5-2.5z"/>
</symbol><symbol id="ico-mono-nav-on-foot" viewBox="0 0 29 44">
    <path fill-rule="evenodd" clip-rule="evenodd" d="M19 4c0-2.21-1.567-4-3.5-4S12 1.79 12 4s1.567 4 3.5 4S19 6.21 19 4zm-8.859 31.578c.429-.255 1.229-.995 1.81-1.948l2.999-5.355h1.322l3.87 3.989v9.453c0 1.261.991 2.283 2.214 2.283 1.223 0 2.215-1.022 2.215-2.283V31.573c0-.546-.343-1.452-.992-2.222l-3.438-3.642v-8.155s1.25 1.107 1.668 1.334c.459.257 1.996.257 2.268.257h2.708c1.224 0 2.215-1.022 2.215-2.283 0-1.26-.991-2.282-2.215-2.282H23.52l-4.192-4.322a3.528 3.528 0 00-.407-.419l-.07-.07a2.181 2.181 0 00-1.255-.647A3.352 3.352 0 0016.697 9h-2.46a3.355 3.355 0 00-2.144.771c-.178.146-.341.31-.487.487l-5.34 5.504c-.111.114-.227.225-.342.335-.526.505-1.038.995-1.038 1.78v4.058c0 1.26.992 2.282 2.215 2.282 1.223 0 2.214-1.022 2.214-2.282v-2.86l1.476-1.52V26.5S8.034 31.503 8 31.583l-6.891 4.1c-1.06.63-1.422 2.026-.81 3.118.61 1.091 1.965 1.465 3.024.835l6.82-4.058z"/>
</symbol><symbol id="ico-mono-nav-tram" viewBox="0 0 31 47">
    <path fill-rule="evenodd" clip-rule="evenodd" d="M12 0h2l-3 6h9l3-6h2l-3 6h1.846v2.412h4.77c1.192 0 2.384 1.206 2.384 2.411v31.353h-2.385V47h-4.769v-4.824H7.154V47h-4.77v-4.824H0V10.824c0-1.206 1.192-2.412 2.385-2.412h4.769V6H9l3-6zM5 13h21v12H5V13zm5 21.5c0-1.385-1.115-2.5-2.5-2.5A2.495 2.495 0 005 34.5C5 35.885 6.115 37 7.5 37s2.5-1.115 2.5-2.5zM23.5 32c1.385 0 2.5 1.115 2.5 2.5S24.885 37 23.5 37a2.495 2.495 0 01-2.5-2.5c0-1.385 1.115-2.5 2.5-2.5z"/>
</symbol><symbol id="ico-mono-ruble-round" viewBox="0 0 26 26">
    <path fill-rule="evenodd" clip-rule="evenodd" d="M13 0c7.168 0 13 5.832 13 13s-5.832 13-13 13S0 20.168 0 13 5.832 0 13 0zm2.058 6.342a3.919 3.919 0 013.914 3.915 3.919 3.919 0 01-3.914 3.914h-2.943v.743h2.77a1 1 0 01.117 1.994l-.116.006h-2.771v1.743a1 1 0 01-1.994.117l-.006-.117v-1.743H9.058a1 1 0 01-.117-1.993l.117-.007h1.057v-.743H9.058a1 1 0 01-.117-1.993l.117-.007h1.057V7.342a1 1 0 01.883-.993l.117-.007 3.807.001.036.002.1-.003zm-.238 2h-2.705v3.83h2.643l.065-.007.065-.003.17.01a1.916 1.916 0 001.914-1.915c0-1.005-.78-1.832-1.765-1.909l-.15-.006-.056.004a.998.998 0 01-.181-.004z"/>
</symbol><symbol id="ico-mono-search" viewBox="0 0 26 26">
    <path fill-rule="evenodd" clip-rule="evenodd" d="M19.448 18.034l6.259 6.259a.999.999 0 11-1.414 1.414l-6.259-6.259A10.948 10.948 0 0111 22C4.935 22 0 17.065 0 11S4.935 0 11 0s11 4.935 11 11c0 2.673-.96 5.125-2.552 7.034zM11 2c-4.962 0-9 4.038-9 9s4.038 9 9 9 9-4.038 9-9-4.038-9-9-9z"/>
</symbol><symbol id="ico-mono-sim-ip" viewBox="0 0 17 12">
    <path fill-rule="evenodd" clip-rule="evenodd" d="M9.644 7.046c.813 0 1.463-.209 1.95-.626.486-.418.729-.964.729-1.64 0-1.43-.848-2.144-2.543-2.144H7.405v6.728h1.516V7.046h.723zM5.876 3.81h.563V2.636H3.797v1.173h.563V8.19h-.563v1.173H6.44V8.191h-.563V3.81zM1.057 0h14.006c.583 0 1.057.473 1.057 1.057v7.677a.964.964 0 01-.284.683l-2.304 2.3a.967.967 0 01-.682.283H1.057A1.057 1.057 0 010 10.943V1.057C0 .473.473 0 1.057 0zm7.864 3.8h.596c.807 0 1.21.345 1.21 1.036 0 .707-.403 1.06-1.21 1.06H8.92V3.8z"/>
</symbol><symbol id="ico-mono-sim-plus" viewBox="0 0 17 12">
    <path fill-rule="evenodd" clip-rule="evenodd" d="M11.552 6.776H8.836v2.716H7.284V6.776H4.567V5.224h2.717V2.507h1.552v2.717h2.716v1.552zM15.062 0H1.057C.473 0 0 .473 0 1.057v9.886C0 11.527.473 12 1.057 12H12.85a.967.967 0 00.682-.282l2.304-2.3a.964.964 0 00.284-.684V1.057C16.12.473 15.646 0 15.062 0z"/>
</symbol><symbol id="ico-mono-sim" viewBox="0 0 30 22">
    <path fill-rule="evenodd" clip-rule="evenodd" d="M28.032 0H1.968C.881 0 0 .868 0 1.938V20.06C0 21.132.881 22 1.968 22h21.947c.476 0 .933-.186 1.27-.517l4.288-4.218c.338-.332.527-.782.527-1.252V1.938C30 .868 29.119 0 28.032 0z"/>
</symbol><symbol id="ico-mono-star" viewBox="0 0 24 23">
    <path fill-rule="evenodd" clip-rule="evenodd" d="M11.888 18.75l-7.347 3.863 1.403-8.182L0 8.637l8.215-1.193L11.888 0l3.674 7.444 8.214 1.193-5.944 5.794 1.403 8.182-7.347-3.863z"/>
</symbol><symbol id="ico-mono-userpic" viewBox="0 0 40 43">
    <path fill-rule="evenodd" clip-rule="evenodd" d="M20.5 22C26.851 22 32 17.075 32 11S26.851 0 20.5 0 9 4.925 9 11s5.149 11 11.5 11zm-.5 7c11.058 0 20 8.495 20 19H0c0-10.505 8.942-19 20-19z"/>
</symbol><symbol id="ico-mono-vk" viewBox="0 0 25 15">
    <path fill-rule="evenodd" clip-rule="evenodd" d="M20.726 7.163S24.014 2.525 24.34 1c.11-.544-.13-.849-.696-.849h-2.852c-.654 0-.893.283-1.089.697 0 0-1.542 3.286-3.418 5.356-.602.67-.909.87-1.241.87-.268 0-.392-.223-.392-.827V.958c0-.74-.087-.958-.696-.958H9.384c-.349 0-.567.203-.567.479 0 .697 1.067.854 1.067 2.743V7.12c0 .784-.043 1.089-.413 1.089-.98 0-3.31-3.375-4.616-7.207C4.594.218 4.311 0 3.571 0H.719C.305 0 0 .283 0 .697c0 .762.893 4.289 4.398 9.013 2.351 3.179 5.443 4.898 8.23 4.898 1.698 0 2.111-.282 2.111-1.001v-2.438c0-.61.24-.871.588-.871.392 0 1.084.126 2.7 1.72 1.916 1.829 2.046 2.59 3.091 2.59h3.2c.327 0 .632-.152.632-.696 0-.719-.936-2.003-2.373-3.527-.588-.784-1.546-1.633-1.85-2.025-.436-.457-.305-.718 0-1.197z"/>
</symbol></svg>