<svg width="43" height="14" viewBox="0 0 43 14" fill="none" xmlns="http://www.w3.org/2000/svg">
<path fill-rule="evenodd" clip-rule="evenodd" d="M17.2754 0.319376L15.0999 13.6897H18.5806L20.7564 0.319376H17.2754ZM12.1713 0.319376L8.85263 9.51534L8.46007 7.53512L8.46035 7.53577L8.37385 7.09195C7.9722 6.22636 7.04199 4.58122 5.2855 3.17723C4.7662 2.76224 4.24273 2.40806 3.73669 2.10554L6.75281 13.6897H10.3795L15.9176 0.319376H12.1713ZM25.756 4.03123C25.756 2.5196 29.146 2.71384 30.6355 3.53465L31.1322 0.663072C31.1322 0.663072 29.5992 0.0800781 28.0014 0.0800781C26.2739 0.0800781 22.1719 0.835522 22.1719 4.50621C22.1719 7.96078 26.9864 8.00371 26.9864 9.8174C26.9864 11.6311 22.6683 11.307 21.2433 10.1629L20.7254 13.1643C20.7254 13.1643 22.2796 13.9198 24.6548 13.9198C27.0298 13.9198 30.6138 12.6894 30.6138 9.34242C30.6138 5.86625 25.756 5.54249 25.756 4.03123ZM39.96 0.319376H37.1614C35.8691 0.319376 35.5544 1.31579 35.5544 1.31579L30.3635 13.6897H33.9915L34.7173 11.7038H39.1424L39.5506 13.6897H42.7467L39.96 0.319376ZM35.7204 8.96006L37.5495 3.95659L38.5784 8.96006H35.7204Z" fill="#005BAC"/>
<path fill-rule="evenodd" clip-rule="evenodd" d="M7.33676 1.57815C7.33676 1.57815 7.19268 0.37146 5.65454 0.37146H0.0663114L0.000854492 0.598241C0.000854492 0.598241 2.687 1.14582 5.26402 3.19733C7.72672 5.15807 8.5301 7.60223 8.5301 7.60223L7.33676 1.57815Z" fill="#F6AC1D"/>
</svg>
