<svg xmlns="http://www.w3.org/2000/svg" xmlns:xlink="http://www.w3.org/1999/xlink"><defs><style>
    .sprite-symbol-usage {display: none;}
    .sprite-symbol-usage:target {display: inline;}
  </style><symbol viewBox="0 0 64 64" id="app"><path d="M20 62h24v-2a1 1 0 00-.219-.625 8.375 8.375 0 01-.736-9.438l.823-1.441a1 1 0 00-.161-1.2l-8.5-8.5a2.536 2.536 0 013.586-3.586l10.5 10.5 1.414-1.414L49 42.586v-9.813l2.773 3.345A9 9 0 0154 42.044V62h2V42.044a10.976 10.976 0 00-2.7-7.222L49 29.639V7a5.006 5.006 0 00-5-5H20a5.006 5.006 0 00-5 5v50a5.006 5.006 0 005 5zm-3-5v-1h23.111a10.368 10.368 0 001.671 4H20a3 3 0 01-3-3zm23.207-23.207A4.523 4.523 0 0032.952 39H31v3h2v-2.908a4.464 4.464 0 00.793 1.115l7.96 7.96-.444.777A10.386 10.386 0 0039.952 54H17V10h30v30.586zM20 4h24a3 3 0 013 3v1H17V7a3 3 0 013-3z" /><path d="M43.857 21.189a10.075 10.075 0 00-5.41-7.084 1 1 0 00-1.342.448 3.88 3.88 0 01-4.886 1.857l-.848-.339a1 1 0 00-1.219.4l-4.94 7.9-4.226 4.229a3.381 3.381 0 004.114 5.307l18.416-11.05a1 1 0 00.464-1.057zm-19.787 11a1.366 1.366 0 01-1.67-.206 1.383 1.383 0 01-.4-1.003 1.357 1.357 0 01.4-.966l4.307-4.307a.962.962 0 00.141-.177l4.557-7.291.071.028a5.9 5.9 0 006.863-1.924 8.077 8.077 0 013.542 5.162z" /><path d="M33.658 21.711l-1.211-.606a1 1 0 00-1.342.448l-2 4 1.79.894 1.552-3.105 1.106.553a1 1 0 001.279-.34l2-3-1.664-1.11zM22 37a3 3 0 00-3 3 3.389 3.389 0 001 2.414l1.293 1.293a1 1 0 001.414 0L24 42.414A3.389 3.389 0 0025 40a3 3 0 00-3-3zm.586 4l-.586.586-.586-.586A1.425 1.425 0 0121 40a1 1 0 012 0 1.425 1.425 0 01-.414 1zM22 46a3 3 0 103 3 3 3 0 00-3-3zm0 4a1 1 0 111-1 1 1 0 01-1 1zM27 39h2v3h-2zM27 47h2v3h-2zM31 47h2v3h-2zM35 47h2v3h-2zM43 12h2v2h-2zM19 12h2v2h-2zM23 12h2v2h-2zM27 12h2v2h-2z" /></symbol><symbol viewBox="0 0 480 480" id="calendar"><path d="M408 0H72C32.254.043.043 32.254 0 72v336c.043 39.746 32.254 71.957 72 72h336c39.746-.043 71.957-32.254 72-72V72c-.043-39.746-32.254-71.957-72-72zM16 72c.04-30.91 25.09-55.96 56-56h336c30.91.04 55.96 25.09 56 56v40H16zm448 336c-.04 30.91-25.09 55.96-56 56H72c-30.91-.04-55.96-25.09-56-56V128h448zm0 0" /><path d="M344 32c-17.672 0-32 14.328-32 32s14.328 32 32 32 32-14.328 32-32-14.328-32-32-32zm0 48c-8.836 0-16-7.164-16-16s7.164-16 16-16 16 7.164 16 16-7.164 16-16 16zm0 0M136 32c-17.672 0-32 14.328-32 32s14.328 32 32 32 32-14.328 32-32-14.328-32-32-32zm0 48c-8.836 0-16-7.164-16-16s7.164-16 16-16 16 7.164 16 16-7.164 16-16 16zm0 0M240 320c13.254 0 24-10.746 24-24s-10.746-24-24-24-24 10.746-24 24 10.746 24 24 24zm0-32a8 8 0 110 16 8 8 0 010-16zm0 0M240 400c13.254 0 24-10.746 24-24s-10.746-24-24-24-24 10.746-24 24 10.746 24 24 24zm0-32a8 8 0 110 16 8 8 0 010-16zm0 0M240 240c13.254 0 24-10.746 24-24s-10.746-24-24-24-24 10.746-24 24 10.746 24 24 24zm0-32a8 8 0 110 16 8 8 0 010-16zm0 0M160 320c13.254 0 24-10.746 24-24s-10.746-24-24-24-24 10.746-24 24 10.746 24 24 24zm0-32a8 8 0 110 16 8 8 0 010-16zm0 0M160 400c13.254 0 24-10.746 24-24s-10.746-24-24-24-24 10.746-24 24 10.746 24 24 24zm0-32a8 8 0 110 16 8 8 0 010-16zm0 0M160 240c13.254 0 24-10.746 24-24s-10.746-24-24-24-24 10.746-24 24 10.746 24 24 24zm0-32a8 8 0 110 16 8 8 0 010-16zm0 0M80 320c13.254 0 24-10.746 24-24s-10.746-24-24-24-24 10.746-24 24 10.746 24 24 24zm0-32a8 8 0 110 16 8 8 0 010-16zm0 0M80 400c13.254 0 24-10.746 24-24s-10.746-24-24-24-24 10.746-24 24 10.746 24 24 24zm0-32a8 8 0 110 16 8 8 0 010-16zm0 0M320 240c13.254 0 24-10.746 24-24s-10.746-24-24-24-24 10.746-24 24 10.746 24 24 24zm0-32a8 8 0 110 16 8 8 0 010-16zm0 0M400 320c13.254 0 24-10.746 24-24s-10.746-24-24-24-24 10.746-24 24 10.746 24 24 24zm0-32a8 8 0 110 16 8 8 0 010-16zm0 0M400 240c13.254 0 24-10.746 24-24s-10.746-24-24-24-24 10.746-24 24 10.746 24 24 24zm0-32a8 8 0 110 16 8 8 0 010-16zm0 0M297.375 318.625a8.004 8.004 0 0011.313 0L320 307.312l11.313 11.313a8 8 0 0011.312-11.313L331.312 296l11.313-11.313a8 8 0 00-11.313-11.312L320 284.688l-11.313-11.313a8 8 0 00-11.312 11.313L308.688 296l-11.313 11.313a8.004 8.004 0 000 11.312zm0 0" /></symbol><symbol viewBox="0 0 64 64" id="calendar-2"><path d="M61 6h-6V2h-2v4h-6V2h-2v4h-6V2h-2v4h-6V2h-2v4h-6V2h-2v4h-6a1 1 0 00-1 1v38h2V18h44v17h-9a1 1 0 00-1 1v9h-4v2h5a1.005 1.005 0 00.707-.293L60 38.414V49H47v2h14a1 1 0 001-1V7a1 1 0 00-1-1zM16 16V8h5v4h2V8h6v4h2V8h6v4h2V8h6v4h2V8h6v4h2V8h5v8zm36 27.586V37h6.586z" /><path d="M20 29h6a1 1 0 001-1v-6a1 1 0 00-1-1h-6a1 1 0 00-1 1v6a1 1 0 001 1zm1-6h4v4h-4zM30 29h6a1 1 0 001-1v-6a1 1 0 00-1-1h-6a1 1 0 00-1 1v6a1 1 0 001 1zm2.414-2L35 24.414V27zm1.172-4L31 25.586V23zM40 29h6a1 1 0 001-1v-6a1 1 0 00-1-1h-6a1 1 0 00-1 1v6a1 1 0 001 1zm1-6h4v4h-4zM56 29a1 1 0 001-1v-6a1 1 0 00-1-1h-6a1 1 0 00-1 1v6a1 1 0 001 1zm-5-6h4v4h-4zM19 38a1 1 0 001 1h6a1 1 0 001-1v-6a1 1 0 00-1-1h-6a1 1 0 00-1 1zm2-5h4v4h-4zM29 38a1 1 0 001 1h6a1 1 0 001-1v-6a1 1 0 00-1-1h-6a1 1 0 00-1 1zm2-5h4v4h-4zM39 38a1 1 0 001 1h6a1 1 0 001-1v-6a1 1 0 00-1-1h-6a1 1 0 00-1 1zm3.414-1L45 34.414V37zm1.172-4L41 35.586V33zM7 62h34a5.006 5.006 0 005-5 34.913 34.913 0 00-2.838-13.828l-.243-.566a1 1 0 00-1.366-.5l-2.615 1.308a8.978 8.978 0 01-9.256-.726l-2.1-1.5a1 1 0 00-1.067-.061L17.6 46.081 5.418 50.14A4.993 4.993 0 002 54.883V57a5.006 5.006 0 005 5zm34-2H7a3.006 3.006 0 01-2.829-2h39.658A3.006 3.006 0 0141 60zm2.985-4H29.156a43.824 43.824 0 0114.607-2.975q.177 1.475.222 2.975zM4 54.883a3 3 0 012.051-2.846l12.265-4.088a1.033 1.033 0 00.17-.075l8.447-4.693 1.587 1.133a10.976 10.976 0 0011.313.888l1.667-.832a33.056 33.056 0 011.959 6.667c-3.7.152-12.125.956-18.722 4.963H4z" /><path d="M30.447 49.9l-.894-1.79-5.353 2.673-1.49-1.49a1 1 0 00-1.1-.212l-7 3 .788 1.838 6.377-2.733 1.522 1.521a1 1 0 001.154.188z" /></symbol><symbol viewBox="-56 0 480 480" id="check-list"><path d="M344 0H24C10.746 0 0 10.746 0 24v432c0 13.254 10.746 24 24 24h320c13.254 0 24-10.746 24-24V24c0-13.254-10.746-24-24-24zM112 64h144a8 8 0 008-8v-8h56v384H48V48h56v8a8 8 0 008 8zm136-48v32H120V16zm104 440a8 8 0 01-8 8H24a8 8 0 01-8-8V24a8 8 0 018-8h80v16H48c-8.836 0-16 7.164-16 16v384c0 8.836 7.164 16 16 16h272c8.836 0 16-7.164 16-16V48c0-8.836-7.164-16-16-16h-56V16h80a8 8 0 018 8zm0 0" /><path d="M80 104v64a8 8 0 008 8h64a8 8 0 008-8v-44.688l13.656-13.656a8 8 0 00-11.312-11.312l-2.895 2.894A8.003 8.003 0 00152 96H88a8 8 0 00-8 8zm16 8h48v4.688l-16 16-10.344-10.344a8 8 0 00-11.312 11.312l16 16a8.004 8.004 0 0011.312 0L144 139.312V160H96zm0 0M162.344 210.344l-2.895 2.894A8.003 8.003 0 00152 208H88a8 8 0 00-8 8v64a8 8 0 008 8h64a8 8 0 008-8v-44.688l13.656-13.656a8 8 0 00-11.312-11.312zM144 272H96v-48h48v4.688l-16 16-10.344-10.344a8 8 0 00-11.312 11.312l16 16a8.004 8.004 0 0011.312 0L144 251.312zm0 0M162.344 322.344l-2.895 2.894A8.003 8.003 0 00152 320H88a8 8 0 00-8 8v64a8 8 0 008 8h64a8 8 0 008-8v-44.688l13.656-13.656a8 8 0 00-11.312-11.312zM144 384H96v-48h48v4.688l-16 16-10.344-10.344a8 8 0 00-11.312 11.312l16 16a8.004 8.004 0 0011.312 0L144 363.312zm0 0M200 176h80a8 8 0 000-16h-80a8 8 0 000 16zm0 0M200 144h64a8 8 0 000-16h-64a8 8 0 000 16zm0 0M200 288h80a8 8 0 000-16h-80a8 8 0 000 16zm0 0M200 256h64a8 8 0 000-16h-64a8 8 0 000 16zm0 0M200 400h80a8 8 0 000-16h-80a8 8 0 000 16zm0 0M200 368h64a8 8 0 000-16h-64a8 8 0 000 16zm0 0" /></symbol><symbol viewBox="0 0 64 64" id="distance"><path d="M20 62h24v-2a1 1 0 00-.219-.625 8.375 8.375 0 01-.736-9.438l.823-1.441a1 1 0 00-.161-1.2l-8.5-8.5a2.536 2.536 0 013.586-3.586l10.5 10.5 1.414-1.414L49 42.586v-9.813l2.773 3.345A9 9 0 0154 42.044V62h2V42.044a10.976 10.976 0 00-2.7-7.222L49 29.639V7a5.006 5.006 0 00-5-5H20a5.006 5.006 0 00-5 5v50a5.006 5.006 0 005 5zm-3-5v-1h23.111a10.368 10.368 0 001.671 4H20a3 3 0 01-3-3zm27.758-18.656A3.965 3.965 0 0045 37v-5a4 4 0 00-4-4H31a2 2 0 010-4h7v-2h-7a4 4 0 000 8h10a2 2 0 012 2v4.586l-2.793-2.793A4.523 4.523 0 0032.952 39H25a2 2 0 01-2-2v-2h-2v2a4 4 0 004 4h9.586l7.167 7.167-.444.777A10.386 10.386 0 0039.952 54H17V10h30v30.586zM20 4h24a3 3 0 013 3v1H17V7a3 3 0 013-3z" /><path d="M22 26a3 3 0 00-3 3 3.389 3.389 0 001 2.414l1.293 1.293a1 1 0 001.414 0L24 31.414A3.389 3.389 0 0025 29a3 3 0 00-3-3zm.586 4l-.586.586-.586-.586A1.425 1.425 0 0121 29a1 1 0 012 0 1.425 1.425 0 01-.414 1zM38 13a3 3 0 00-3 3 3.389 3.389 0 001 2.414l1.293 1.293a1 1 0 001.414 0L40 18.414A3.389 3.389 0 0041 16a3 3 0 00-3-3zm.586 4l-.586.586-.586-.586A1.425 1.425 0 0137 16a1 1 0 012 0 1.425 1.425 0 01-.414 1zM43 12h2v2h-2zM19 12h2v2h-2zM23 12h2v2h-2zM27 12h2v2h-2zM19 45h18v2H19zM19 49h2v2h-2zM23 49h2v2h-2zM29 49h2v2h-2zM33 49h2v2h-2z" /></symbol><symbol viewBox="-12 0 480 480.001" id="female"><path d="M367.996 352h-56c-8.84 0-16-7.164-16-16v-16.36c22.598-13.917 42.445-38.808 57.55-67.273a64.077 64.077 0 0037.895-26.484 31.928 31.928 0 003.829-24.207 31.91 31.91 0 00-14.454-19.793c-.398-.235-.796-.38-1.183-.594.418-1.976.867-3.953 1.226-5.894l.176.07a7.89 7.89 0 002.961.535 8 8 0 008-8v-52.879a47.898 47.898 0 00-27.578-43.351C325.723 4.684 240.762-19.57 172.48 16.977 156.8-1.621 129.645-5.461 109.418 8.059H97.594c-41.922.082-77.996 29.648-86.32 70.734L.151 134.403a8.004 8.004 0 004.785 8.949 7.997 7.997 0 009.711-2.942l24.25-36.379a71.852 71.852 0 0155.778-31.773 48.66 48.66 0 006.758 8.953 47.662 47.662 0 00-13.438 33.11V168a7.99 7.99 0 003.582 6.676 7.99 7.99 0 007.543.691c.36 1.946.8 3.93 1.227 5.899-.418.23-.801.382-1.25.632a31.925 31.925 0 00-14.418 19.778 31.905 31.905 0 003.828 24.172 64.147 64.147 0 0037.887 26.52c15.085 28.417 34.953 53.28 57.601 67.202V344a8 8 0 01-8 8h-56c-48.578.059-87.945 39.422-88 88v32c0 4.418 3.578 8 8 8h408a8 8 0 008-8v-32c-.059-48.578-39.426-87.941-88-88zM88.867 56.617A87.77 87.77 0 0025.594 95.2l-1.817 2.739 3.2-16c6.578-32.43 34.363-56.231 67.418-57.747a46.403 46.403 0 00-5.504 32.426zm290.88 148.801c1 4.113.3 8.457-1.938 12.055a50.63 50.63 0 01-14.094 13.601 283.926 283.926 0 0011.808-33.152 15.942 15.942 0 014.223 7.535zM298.058 176a167.887 167.887 0 01-97.368-31.2 310.509 310.509 0 01146.184 17.032l18.824 7.488c-.367 2.192-.847 4.442-1.304 6.68zM239.996 16a127.955 127.955 0 0199.79 47.914 490.658 490.658 0 00-198.75-1.074A128.296 128.296 0 01239.995 16zm-104 0a31.564 31.564 0 0122.606 9.395 144 144 0 00-42.473 45.308c-.59.266-1.117.633-1.703.93a31.991 31.991 0 01-8.258-35.2A32.002 32.002 0 01135.996 16zm-32 98.32a31.95 31.95 0 0119.254-29.343l9.16-3.903a473.978 473.978 0 01215.024.977l8.945 3.496a32.084 32.084 0 0119.617 29.574V156.2l-23.32-9.285a329.445 329.445 0 00-225.922-.8l-22.758 9.792zm-1.832 103.2a15.804 15.804 0 012.285-19.512 280.355 280.355 0 0011.739 33.035 50.448 50.448 0 01-14.024-13.563zm36.484 23.738l-.07-.13a257.565 257.565 0 01-24.336-72.183L132.641 161a305.91 305.91 0 0146.48-12.703A183.877 183.877 0 00298.06 192h62.457c-12.985 46.402-41.762 97.305-76.336 116.168a88.526 88.526 0 01-88.356-.07c-22.437-12.215-42.375-37.809-57.176-66.88zM199.996 344v-16.184a102.382 102.382 0 0080 .047V336c.059 14.402 9.734 26.992 23.637 30.754-3.531 32.223-30.602 56.719-63.016 57.023-32.418.305-59.941-23.68-64.078-55.832 13.02-.297 23.43-10.922 23.457-23.945zm-152 96c.043-36.648 27.578-67.434 64-71.55V464h-64zm80-72h32.422c4.215 40.781 38.578 71.777 79.578 71.777 40.996 0 75.36-30.996 79.574-71.777h40.426v96h-232zm312 96h-64v-95.55c36.418 4.116 63.953 34.902 64 71.55zm0 0" /></symbol><symbol viewBox="0 0 479.856 479.856" id="fishing"><path d="M103.93 111.855a7.929 7.929 0 007.925-7.925V79.855h16.075a7.929 7.929 0 000-15.855h-16.075V47.855h24.075a7.929 7.929 0 000-15.855h-32A7.93 7.93 0 0096 39.93v64a7.93 7.93 0 007.93 7.925zm0 0M159.93 111.855a7.929 7.929 0 007.925-7.925v-64A7.93 7.93 0 00159.93 32a7.93 7.93 0 00-7.93 7.93v64a7.93 7.93 0 007.93 7.925zm0 0M247.93 111.855a7.929 7.929 0 007.925-7.925v-64A7.93 7.93 0 00247.93 32a7.93 7.93 0 00-7.93 7.93v64a7.93 7.93 0 007.93 7.925zm0 0M183.93 111.855a7.929 7.929 0 007.925-7.925V67.574L217.2 108.13a7.958 7.958 0 006.73 3.726 7.9 7.9 0 005.606-2.32 7.9 7.9 0 002.32-5.605v-64A7.93 7.93 0 00223.93 32a7.93 7.93 0 00-7.93 7.93V76.28l-25.344-40.554a7.925 7.925 0 00-8.914-3.426A7.926 7.926 0 00176 39.93v64a7.93 7.93 0 007.93 7.925zm0 0M327.93 111.855a7.929 7.929 0 007.925-7.925V79.855H360v24.075a7.929 7.929 0 0015.855 0v-64A7.93 7.93 0 00367.93 32a7.93 7.93 0 00-7.93 7.93V64h-24.145V39.93A7.93 7.93 0 00327.93 32a7.93 7.93 0 00-7.93 7.93v64a7.93 7.93 0 007.93 7.925zm0 0M287.93 96c-4.457-.004-8.07-3.617-8.075-8.07A7.93 7.93 0 00271.93 80a7.93 7.93 0 00-7.93 7.93c0 13.215 10.715 23.925 23.93 23.925s23.925-10.71 23.925-23.925S301.145 64 287.93 64a8.071 8.071 0 01-8.075-8.07 8.072 8.072 0 018.075-8.075A8.071 8.071 0 01296 55.93a7.929 7.929 0 0015.855 0c0-13.215-10.71-23.93-23.925-23.93S264 42.715 264 55.93s10.715 23.925 23.93 23.925A8.071 8.071 0 01296 87.93a8.07 8.07 0 01-8.07 8.07zm0 0" /><path d="M471.93 143.855a7.929 7.929 0 007.925-7.925v-128A7.93 7.93 0 00471.93 0h-464A7.93 7.93 0 000 7.93v128a7.93 7.93 0 007.93 7.925H16v273.602A23.89 23.89 0 000 439.93v32a7.93 7.93 0 007.93 7.925h64a7.929 7.929 0 007.925-7.925v-32a23.885 23.885 0 00-16-22.473v-33.602H167.93a7.929 7.929 0 007.925-7.925v-8.075h40.075a7.926 7.926 0 007.32-4.898 7.921 7.921 0 00-1.723-8.637l-10.398-10.39 10.398-10.403a7.921 7.921 0 001.723-8.636 7.926 7.926 0 00-7.32-4.899h-48a7.93 7.93 0 00-7.93 7.93v8.07H63.855V143.855H416V336h-96.145v-8.07a7.93 7.93 0 00-7.925-7.93h-48a7.927 7.927 0 00-5.602 13.535l10.399 10.395-10.399 10.398a7.927 7.927 0 005.602 13.535H304v8.067a7.93 7.93 0 007.93 7.925H416v33.602a23.89 23.89 0 00-16 22.473v32a7.93 7.93 0 007.93 7.925h64a7.929 7.929 0 007.925-7.925v-32a23.885 23.885 0 00-16-22.473V143.855zm-456.075-128H464V128H15.855zM64 464H15.855v-24.07a8.082 8.082 0 018.075-8.075h32c4.453.004 8.066 3.618 8.07 8.075zm111.855-128.145h20.93l-2.457 2.473a7.938 7.938 0 000 11.2l2.465 2.464h-20.938zm-15.855 16V368H63.855v-16.145zM48 416H31.855V143.855H48zm235.07-64l2.457-2.473a7.931 7.931 0 000-11.199l-2.465-2.465h20.93v16.145zm36.801 16v-16.145H416V368zm144.145 96h-48.16v-24.07a8.082 8.082 0 018.074-8.075h32c4.453.004 8.066 3.618 8.07 8.075zm-16-48h-16.16V143.855H448zm0 0" /><path d="M47.93 79.855h16a7.929 7.929 0 000-15.855h-16A7.93 7.93 0 0040 71.93a7.93 7.93 0 007.93 7.925zm0 0M415.93 79.855h16a7.929 7.929 0 000-15.855h-16a7.93 7.93 0 00-7.93 7.93 7.93 7.93 0 007.93 7.925zm0 0" /></symbol><symbol viewBox="-101 -17 562 562.668" id="in"><path d="M293.645 0H118.02C84.543 0 57.312 27.48 57.312 61.332v81.316c0 6.899 5.59 12.493 12.493 12.493 6.898 0 12.488-5.594 12.488-12.493V61.457a36.026 36.026 0 0110.324-25.578 35.997 35.997 0 0125.403-10.77h175.75c19.738 0 35.722 16.36 35.722 36.348v404.711a36.01 36.01 0 01-35.722 36.352H118.02c-19.735 0-35.727-16.368-35.727-36.352v-80.691c0-6.899-5.59-12.489-12.488-12.489-6.903 0-12.493 5.59-12.493 12.489v80.691c0 33.852 27.231 61.332 60.708 61.332h175.75c33.476 0 60.703-27.48 60.703-61.332V61.457C354.473 27.605 327.246 0 293.645 0zm0 0" /><path d="M150.121 310.406c-4.406 5.281-3.73 13.13 1.512 17.582 5.242 4.457 13.097 3.856 17.601-1.343l46.22-54.586.37-.375c.125-.13.254-.38.375-.5a.638.638 0 00.246-.504c.13-.121.254-.375.38-.496.124-.125.124-.375.245-.504.13-.121.13-.371.254-.496s.125-.375.25-.496c.121-.254.121-.38.25-.625 0-.13.125-.375.125-.504 0-.25.121-.375.121-.625 0-.121.13-.375.13-.496 0-.25.12-.504.12-.754v-.375a7.317 7.317 0 000-2.371v-.375c0-.25-.12-.497-.12-.747 0-.129-.13-.375-.13-.504 0-.25-.12-.375-.12-.625 0-.12-.126-.375-.126-.496-.129-.25-.129-.375-.25-.625-.125-.125-.125-.375-.25-.504-.125-.246-.125-.37-.254-.496-.12-.129-.12-.375-.246-.496-.125-.129-.25-.379-.379-.504-.12-.12-.12-.25-.246-.5-.12-.125-.25-.375-.375-.5l-.37-.37-46.22-54.59c-4.449-5.274-12.336-5.95-17.613-1.5-5.281 4.453-5.95 12.335-1.5 17.617l28.852 34.101H7.223c-6.895 0-12.493 5.59-12.493 12.488 0 6.895 5.598 12.493 12.493 12.493h171.75zm0 0" /></symbol><symbol viewBox="0 0 480.005 480" id="male"><path d="M472.082 434.203c-10.457-47.832-52.719-81.996-101.68-82.2h-58.398c-8.84 0-16-7.163-16-16v-16.358c22.598-13.918 42.445-38.81 57.55-67.274a64.077 64.077 0 0037.895-26.484 31.954 31.954 0 003.832-24.211 31.94 31.94 0 00-14.453-19.79c-.402-.234-.8-.378-1.187-.593.418-1.977.867-3.953 1.226-5.895l.176.07c.941.368 1.95.548 2.96.536a8 8 0 008-8v-52.879a47.898 47.898 0 00-27.577-43.352C338.832 27.543 291.687.223 240.586.003c-51.098-.218-98.477 26.7-124.45 70.704a47.923 47.923 0 00-28.132 43.617v53.68a7.99 7.99 0 003.582 6.676 7.99 7.99 0 007.543.691c.363 1.945.8 3.93 1.226 5.899-.418.23-.8.382-1.25.632a31.925 31.925 0 00-14.418 19.778 31.905 31.905 0 003.829 24.172 64.176 64.176 0 0037.886 26.52c15.09 28.417 34.953 53.28 57.602 67.202v24.43a8 8 0 01-8 8h-66.402c-48.961.203-91.223 34.367-101.68 82.2L.18 470.323a8.004 8.004 0 001.597 6.711 8.006 8.006 0 006.227 2.969h464a8.004 8.004 0 006.223-2.969 8.02 8.02 0 001.601-6.71zm-92.328-228.742c1 4.117.3 8.46-1.934 12.055a50.565 50.565 0 01-14.105 13.601 283.831 283.831 0 0011.816-33.16 15.91 15.91 0 014.223 7.504zM240.004 16.004a127.95 127.95 0 0199.789 47.914 490.658 490.658 0 00-198.75-1.074 128.296 128.296 0 0198.96-46.84zm-136 98.32a31.95 31.95 0 0119.254-29.344l9.16-3.902a471.854 471.854 0 01107.281-11.855h.59A471.634 471.634 0 01347.441 82.02s8.762 3.449 8.946 3.496a32.086 32.086 0 0119.617 29.609v41.078l-23.32-9.285a329.445 329.445 0 00-225.922-.8l-22.758 9.792zm-1.832 103.2a15.81 15.81 0 012.285-19.512 280.323 280.323 0 0011.754 33.074 50.537 50.537 0 01-14.04-13.602zm36.476 23.722l-.054-.098a257.64 257.64 0 01-24.344-72.199l18.398-7.945a313.01 313.01 0 01214.235.871l18.824 7.488c-8.656 51.153-41.176 116.84-81.52 138.848a91.905 91.905 0 01-44.136 11.777 85.725 85.725 0 01-22.242-2.96 99.757 99.757 0 01-21.973-8.887c-22.45-12.274-42.387-37.864-57.188-66.938zm61.356 102.758V327.82a102.4 102.4 0 0080 .047v8.137c.058 14.402 9.734 26.992 23.637 30.754-3.532 32.222-30.602 56.719-63.016 57.023-32.418.305-59.941-23.68-64.078-55.832 13.02-.297 23.43-10.922 23.457-23.945zM23.562 437.605c8.262-37.718 40.016-65.734 78.473-69.226L81.54 464.004H17.9zm74.336 26.399l20.575-96h41.953c4.215 40.781 38.578 71.773 79.578 71.773 40.996 0 75.36-30.992 79.574-71.773h41.488l13.711 96zm293.047 0l-13.672-95.695c38.747 3.183 70.88 31.28 79.2 69.257l5.632 26.438zm0 0" /></symbol><symbol viewBox="-96 0 480 480.196" id="medal-2"><path d="M208.098 207.2V184h16c22.082-.027 39.972-17.918 40-40v-8a39.997 39.997 0 00-25.407-37l48.399-87.113a7.993 7.993 0 00-.094-7.942A8.001 8.001 0 00280.098 0h-104a8 8 0 00-6.832 3.832l-25.168 41.207L118.93 3.832A8 8 0 00112.098 0h-104a7.995 7.995 0 00-6.895 3.945 7.993 7.993 0 00-.098 7.942L49.515 99a40.004 40.004 0 00-25.417 37v8c.027 22.082 17.922 39.973 40 40h16v23.2c-59.899 29.718-91.461 96.76-76.2 161.863 15.262 65.101 73.332 111.132 140.2 111.132 66.867 0 124.937-46.03 140.199-111.132S268 236.917 208.097 207.198zm12-71.2c2.21 0 4 1.79 4 4s-1.79 4-4 4h-6.399l4.446-8zM180.586 16H266.5l-71.105 128h-93.047zM68.098 144a4 4 0 010-8H88.5l-4.89 8zm39.511-128l27.106 44.375L112.945 96H66.156L21.7 16zM40.098 144v-8c.05-12.473 9.632-22.84 22.066-23.863.27 0 1.598-.137 1.934-.137h39.074l-4.89 8H68.097c-11.047 0-20 8.953-20 20s8.953 20 20 20h152c9.8.023 18.164-7.078 19.73-16.75 1.57-9.676-4.121-19.055-13.426-22.129l4.48-8.058A24.048 24.048 0 01248.099 136v8c0 13.254-10.746 24-24 24h-160c-13.254 0-24-10.746-24-24zm56 40h96v16.398a141.352 141.352 0 00-96 0zm48 280c-70.692 0-128-57.309-128-128s57.308-128 128-128 128 57.309 128 128c-.082 70.656-57.34 127.918-128 128zm0 0" /><path d="M144.098 240c-53.02 0-96 42.98-96 96s42.98 96 96 96 96-42.98 96-96c-.055-52.996-43.004-95.941-96-96zm0 176c-44.184 0-80-35.816-80-80s35.816-80 80-80 80 35.816 80 80c-.047 44.164-35.836 79.953-80 80zm0 0" /><path d="M208.563 315.055A15.765 15.765 0 00193.34 304h-25.992l-8-24.719a16.003 16.003 0 00-30.403 0l-8 24.719H94.86a15.996 15.996 0 00-15.218 11.055 16 16 0 005.808 17.89l21.024 15.278-8 24.722a16.008 16.008 0 005.812 17.899 16.005 16.005 0 0018.82-.012l20.993-15.281 21.023 15.281a15.78 15.78 0 0018.816 0 15.77 15.77 0 005.817-17.887l-8.055-24.722 21.031-15.278a15.779 15.779 0 005.833-17.89zm-36.258 20.226a15.995 15.995 0 00-5.805 17.887l8 24.719-21.027-15.27a15.944 15.944 0 00-18.813 0l-20.96 15.27 8-24.719a16 16 0 00-5.802-17.887L94.86 320h25.993a16.002 16.002 0 0015.246-11.055l8-24.8v.093l8 24.723A16 16 0 00167.348 320h25.992zm0 0" /></symbol><symbol viewBox="-88 0 480 480" id="mobile"><path d="M232 0H72C32.254.043.043 32.254 0 72v336c.043 39.746 32.254 71.957 72 72h160c39.746-.043 71.957-32.254 72-72V72c-.043-39.746-32.254-71.957-72-72zM16 80h272v304H16zm56-64h160c27.805.055 51.367 20.484 55.36 48H16.64C20.634 36.484 44.196 16.055 72 16zm160 448H72c-30.914-.035-55.965-25.086-56-56v-8h272v8c-.035 30.914-25.086 55.965-56 56zm0 0" /><path d="M112 48h32a8 8 0 000-16h-32a8 8 0 000 16zm0 0M168 48h16a8 8 0 000-16h-16a8 8 0 000 16zm0 0M152 408c-13.254 0-24 10.746-24 24s10.746 24 24 24 24-10.746 24-24-10.746-24-24-24zm0 32a8 8 0 110-16 8 8 0 010 16zm0 0M68.441 142.656l19.286-12.855L112 148v12a8 8 0 008 8h24a8 8 0 000-16h-16v-8c0-2.52-1.188-4.89-3.2-6.398l-32-24a7.998 7.998 0 00-9.241-.258l-24 16a8.002 8.002 0 008.882 13.312zm0 0" /><path d="M40 208a8.001 8.001 0 005.656-2.344l41.106-41.105 6.941 10.402-11.36 11.36a8 8 0 0011.313 11.312l16-16a8.004 8.004 0 001-10.098l-16-24a8 8 0 00-5.863-3.52 8.15 8.15 0 00-6.45 2.305l-48 48a8.006 8.006 0 00-1.769 8.743A8.003 8.003 0 0040 208zm0 0M144 112c0 8.836-7.164 16-16 16s-16-7.164-16-16 7.164-16 16-16 16 7.164 16 16zm0 0M184 136h8a8 8 0 000-16h-8a8 8 0 000 16zm0 0M264 120h-48a8 8 0 000 16h48a8 8 0 000-16zm0 0M184 160h8a8 8 0 000-16h-8a8 8 0 000 16zm0 0M264 144h-48a8 8 0 000 16h48a8 8 0 000-16zm0 0M264 168h-80a8 8 0 000 16h80a8 8 0 000-16zm0 0M264 232H40a8 8 0 00-8 8v120a8 8 0 008 8h224a8 8 0 008-8V240a8 8 0 00-8-8zM80 352v-16h16v16zm64 0v-48h16v48zm64 0v-80h16v80zm48 0h-16v-88a8 8 0 00-8-8h-32a8 8 0 00-8 8v88h-16v-56a8 8 0 00-8-8h-32a8 8 0 00-8 8v56h-16v-24a8 8 0 00-8-8H72a8 8 0 00-8 8v24H48V248h208zm0 0" /></symbol><symbol viewBox="0 0 64 64" id="plan"><path d="M62 51V11a4 4 0 00-4-4H47a5 5 0 00-10 0H26a4 4 0 00-4 4v28h2V11a2 2 0 012-2h5.382l-1 2H27a1 1 0 00-1 1v27h2V13h2v2a1 1 0 001 1h22a1 1 0 001-1v-2h2v29h-6a1 1 0 00-1 1v6h-1v2h9a1 1 0 001-1V12a1 1 0 00-1-1h-3.382l-1-2H58a2 2 0 012 2v40a2 2 0 01-2 2H48v2h10a4 4 0 004-4zm-11-7h3.586L51 47.586zm1.414 5L56 45.414V49zM52 12.236V14H32v-1.764L33.618 9H38a1 1 0 001-1V7a3 3 0 016 0v1a1 1 0 001 1h4.382z" /><path d="M41 6h2v2h-2zM5.745 60.569A73.817 73.817 0 0020.2 62H41a5.006 5.006 0 005-5v-3a20.62 20.62 0 00-1.661-8.073l-1.42-3.32a1 1 0 00-1.569-.367l-1.75 1.494a6.9 6.9 0 01-3.282 1.573l-.052.007a7 7 0 01-5.823-1.627l-2.79-2.44a1 1 0 00-1.143-.122L23.506 42.8l-.765-1.113-1.648 1.132.657.957-1.888 1.048-.55-1.1-1.79.895.59 1.18-.517.287-1.512.5-.5-1.149-1.834.8.429.99-1.768.589-.288-.937-1.912.587.3.983-5.323 1.771A4.639 4.639 0 002 54.64V56a4.672 4.672 0 003.745 4.569zM44 57a3 3 0 01-3 3H20.2a71.818 71.818 0 01-14.06-1.392 2.662 2.662 0 01-1.874-1.462l7.626.848A1 1 0 0012 58h9.73a24.481 24.481 0 008.621-1.563A22.475 22.475 0 0138.272 55H44zM5.816 52.119l5.284-1.763.442 1.438 1.912-.588L13 49.722l1.978-.66.688 1.586 1.834-.8-.618-1.425 1.433-.478a.987.987 0 00.173-.076l.519-.289.681 1.363 1.79-.894-.721-1.441 2.131-1.184.955 1.388 1.648-1.132-.846-1.232 2.226-1.237 2.262 1.978a9 9 0 007.428 2.1.438.438 0 00.062-.008 8.9 8.9 0 004.287-2.031l.706-.6.885 2.067a18.474 18.474 0 011.1 3.5A18.226 18.226 0 0143.948 53h-5.676a24.5 24.5 0 00-8.623 1.563A22.475 22.475 0 0121.728 56h-3.5c-3.435 0-6.912-.173-10.333-.516L4 55.1v-.46a2.644 2.644 0 011.816-2.521z" /><path d="M38 43v-3h16v-2H38v-6h16v-2H38v-6h16v-2H38v-4h-2v4h-6v2h6v6h-6v2h6v6h-6v2h6v3h2z" /><path d="M30 18h4v2h-4zM40 18h2v2h-2zM44 18h2v2h-2zM48 18h2v2h-2zM52 18h2v2h-2zM30 26h4v2h-4zM40 26h2v2h-2zM44 26h2v2h-2zM48 26h2v2h-2zM52 26h2v2h-2zM30 34h4v2h-4zM40 34h2v2h-2zM44 34h2v2h-2zM48 34h2v2h-2zM52 34h2v2h-2zM13.293 40.707l2 2a1 1 0 001.414 0l2-2A1 1 0 0019 40V15a3 3 0 00-6 0v1h-3a1 1 0 00-1 1v10h2v-9h2v22a1 1 0 00.293.707zM16 40.586l-1-1V18h2v21.586zM15 15a1 1 0 012 0v1h-2zM23 51.945s1.083-.425 1.074-.461l.32-.137.657 1.969a1 1 0 001.395.579l6-3-.894-1.79-4.968 2.485-.636-1.906a1 1 0 00-1.342-.6l-7 3 .788 1.838z" /></symbol><symbol viewBox="0 0 512 512" id="running"><path d="M121 68.5H45c-8.291 0-15 6.709-15 15s6.709 15 15 15h76c8.291 0 15-6.709 15-15s-6.709-15-15-15zM121 188.5H45c-8.291 0-15 6.709-15 15s6.709 15 15 15h76c8.291 0 15-6.709 15-15s-6.709-15-15-15zM91 128.5H15c-8.291 0-15 6.709-15 15s6.709 15 15 15h76c8.291 0 15-6.709 15-15s-6.709-15-15-15zM482 203.5h-91v-60c0-26.346-32.229-40.218-51.22-21.202L219.789 242.289c-11.719 11.719-11.719 30.703 0 42.422l68.789 68.789-83.789 83.789c-11.719 11.719-11.719 30.703 0 42.422 11.718 11.718 30.703 11.719 42.422 0l105-105c11.719-11.719 11.719-30.703 0-42.422L283.422 263.5 331 215.922V233.5c0 16.567 13.433 30 30 30h121c16.567 0 30-13.433 30-30s-13.433-30-30-30zM280.14 51.04c-11.924-7.925-27.744-6.357-37.852 3.75l-82.5 82.5c-11.719 11.719-11.719 30.703 0 42.422s30.704 11.718 42.423-.001l65.112-65.112 21.934 15.8 29.306-29.306c4.902-4.902 10.684-8.707 17.007-11.678L280.14 51.04z" /><path d="M198.578 305.922c-7.601-7.601-12.675-16.956-15.35-27.072L24.789 437.289c-11.719 11.719-11.719 30.703 0 42.422 11.718 11.718 30.703 11.719 42.422 0l152.578-152.578-21.211-21.211z" /><circle cx="406" cy="68.5" r="45" /></symbol><symbol viewBox="0 0 480 480" id="running-2"><path d="M440 0H40C17.918.027.027 17.918 0 40v400c.027 22.082 17.918 39.973 40 40h400c22.082-.027 39.973-17.918 40-40V40c-.027-22.082-17.918-39.973-40-40zM16 40c0-13.254 10.746-24 24-24h400c13.254 0 24 10.746 24 24v24H16zm448 400c0 13.254-10.746 24-24 24H40c-13.254 0-24-10.746-24-24V80h448zm0 0" /><path d="M68.441 142.656l19.286-12.855L112 148v12a8 8 0 008 8h24a8 8 0 000-16h-16v-8c0-2.52-1.188-4.89-3.2-6.398l-32-24a7.998 7.998 0 00-9.241-.258l-24 16a8.002 8.002 0 008.882 13.312zm0 0" /><path d="M40 208a8.001 8.001 0 005.656-2.344l41.106-41.105 6.941 10.402-11.36 11.36a8 8 0 0011.313 11.312l16-16a8.004 8.004 0 001-10.098l-16-24a8 8 0 00-5.863-3.52 8.182 8.182 0 00-6.45 2.305l-48 48a8.006 8.006 0 00-1.769 8.743A8.003 8.003 0 0040 208zm0 0M144 112c0 8.836-7.164 16-16 16s-16-7.164-16-16 7.164-16 16-16 16 7.164 16 16zm0 0M184 128h8a8 8 0 000-16h-8a8 8 0 000 16zm0 0M216 128h72a8 8 0 000-16h-72a8 8 0 000 16zm0 0M184 152h8a8 8 0 000-16h-8a8 8 0 000 16zm0 0M216 152h56a8 8 0 000-16h-56a8 8 0 000 16zm0 0M320 128h8a8 8 0 000-16h-8a8 8 0 000 16zm0 0M352 128h72a8 8 0 000-16h-72a8 8 0 000 16zm0 0M320 152h88a8 8 0 000-16h-88a8 8 0 000 16zm0 0M152 288h-16v-24a8 8 0 00-8-8H96a8 8 0 00-8 8v24H72a8 8 0 000 16h336a8 8 0 000-16h-16v-56a8 8 0 00-8-8h-32a8 8 0 00-8 8v56h-16v-88a8 8 0 00-8-8h-32a8 8 0 00-8 8v88h-16v-56a8 8 0 00-8-8h-32a8 8 0 00-8 8v56h-16v-72a8 8 0 00-8-8h-32a8 8 0 00-8 8zm-48 0v-16h16v16zm256-48h16v48h-16zm-64-32h16v80h-16zm-64 32h16v48h-16zm-64-16h16v64h-16zm0 0M424 432H64v-24h32a8.001 8.001 0 005.656-2.344l30.399-30.398 12.273 42.918c.746 2.62 2.777 4.68 5.387 5.465s5.441.187 7.508-1.586l48.218-41.328 11.414 22.832A7.998 7.998 0 00224 408h30.113l30.313 15.2a7.995 7.995 0 009.597-1.895l48.801-55.739 18.352 30.594A7.998 7.998 0 00368 400h32a8 8 0 000-16h-27.473l-21.672-36.121a8 8 0 00-12.87-1.145l-51.938 59.344-26.473-13.238A7.985 7.985 0 00256 392h-27.055L215.2 364.426a7.997 7.997 0 00-12.367-2.496l-46.527 39.879-12.578-44a7.991 7.991 0 00-5.68-5.547 8.012 8.012 0 00-7.664 2.082L92.688 392H64v-48a8 8 0 00-16 0v96a8 8 0 008 8h368a8 8 0 000-16zm0 0M48 32h-8a8 8 0 000 16h8a8 8 0 000-16zm0 0M80 32h-8a8 8 0 000 16h8a8 8 0 000-16zm0 0M112 32h-8a8 8 0 000 16h8a8 8 0 000-16zm0 0" /></symbol><symbol viewBox="-1 0 483 483.41" id="running-5"><path d="M112.305 427.313h-16v-8c0-2.52-1.188-4.891-3.203-6.403l-32-24a7.998 7.998 0 00-9.239-.254l-24 16a8.002 8.002 0 00-2.215 11.098 7.997 7.997 0 0011.094 2.215l19.29-12.856 24.273 18.2v12a8 8 0 008 8h24a8 8 0 000-16zm0 0" /><path d="M62.96 422.871a8.015 8.015 0 00-5.866-3.52 8.065 8.065 0 00-6.446 2.305l-48 48a8.001 8.001 0 00-2.183 7.781 8.002 8.002 0 0013.496 3.531l41.102-41.105 6.945 10.403-11.36 11.359a8 8 0 0011.313 11.312l16-16a8.01 8.01 0 001-10.097zm0 0M112.305 387.313c0 8.835-7.164 16-16 16s-16-7.165-16-16 7.164-16 16-16 16 7.164 16 16zm0 0M144.305 419.313h212c33.136 0 60-26.864 60-60s-26.864-60-60-60h-100v16h100c24.3 0 44 19.699 44 44s-19.7 44-44 44h-212zm0 0" /><path d="M360.305 235.313h-236c-24.301 0-44-19.7-44-44s19.699-44 44-44h220v-16h-220c-33.137 0-60 26.863-60 60s26.863 60 60 60h236c57.41.066 103.933 46.59 104 104v8c-.067 57.41-46.59 103.933-104 104h-216v16h216c66.242-.075 119.922-53.758 120-120v-8c-.078-66.243-53.758-119.926-120-120zm0 0M128.305 67.313h216v16h-216zm0 0" /><path d="M144.305 299.313h-24c-57.41-.067-103.934-46.59-104-104v-8a104.06 104.06 0 0113.91-52l-13.84-8a119.957 119.957 0 00-16.07 60v8c.074 66.242 53.754 119.925 120 120h24zm0 0M384.305 35.313V33.09a16.004 16.004 0 00-8-29.86 16.002 16.002 0 00-8 29.86v154.222h-16v16h48v-16h-16v-72h96v-80zm80 32h-16v-16h16zm-48 0v-16h16v16zm16 16v16h-16v-16zm-32-32v16h-16v-16zm-16 32h16v16h-16zm64 16v-16h16v16zm0 0M192.305 371.313v24h16v-24h48.16l-43.016-32h43.016l-43.016-32h30.317L199.984 264l-42.882 43.313h29.683l-42.32 32h42.32l-42.32 32zm7.78-22l8.06 6h-16zm0-62.688l4.731 4.688h-9.312zm8 36.688h-16l7.946-6zm0 0M48.305 107.313v24h16v-24h48.16l-43.016-32h43.016l-43.016-32h30.317L55.984 0 13.102 43.313h29.683l-42.32 32h42.32l-42.32 32zm7.78-22l8.06 6h-16zm0-62.688l4.755 4.688h-9.336zm8.06 36.688h-16l7.94-6zm0 0" /></symbol><symbol viewBox="-92 0 480 480" id="smartwatch-1"><path d="M280 152h-8v-24c-.027-22.082-17.918-39.973-40-40h-8V24c0-13.254-10.746-24-24-24H72C58.746 0 48 10.746 48 24v64h-8c-22.082.027-39.973 17.918-40 40v224c.027 22.082 17.918 39.973 40 40h8v64c0 13.254 10.746 24 24 24h128c13.254 0 24-10.746 24-24v-64h8c22.082-.027 39.973-17.918 40-40V216h8c8.836 0 16-7.164 16-16v-32c0-8.836-7.164-16-16-16zM64 24a8 8 0 018-8h128a8 8 0 018 8v64H64zm144 432a8 8 0 01-8 8H72a8 8 0 01-8-8v-64h144zm48-104c0 13.254-10.746 24-24 24H40c-13.254 0-24-10.746-24-24V128c0-13.254 10.746-24 24-24h192c13.254 0 24 10.746 24 24zm16-152v-32h8v32zm0 0" /><path d="M131.266 294.457a7.994 7.994 0 009.468 0C146.801 290 200 250 200 216a39.502 39.502 0 00-23.008-37.48 27.512 27.512 0 00-31.015 7.625A91.782 91.782 0 00136 199.727a91.64 91.64 0 00-9.977-13.598 27.493 27.493 0 00-31.015-7.625A39.502 39.502 0 0072 216c0 34 53.2 74 59.266 78.457zm-30.403-101.043a11.666 11.666 0 014.313-.863 12.48 12.48 0 019.144 4.496 121.917 121.917 0 0114.52 22.527 8.335 8.335 0 0014.32 0 121.917 121.917 0 0114.52-22.527 11.622 11.622 0 0113.457-3.633A23.685 23.685 0 01184 216c0 19.922-31.2 48.672-48 61.93-16.273-12.922-48-42.153-48-61.93a23.685 23.685 0 0112.863-22.586zm0 0M130.32 314.32a7.431 7.431 0 00-1.68 2.64c-1.277 2.997-.609 6.466 1.688 8.774s5.766 2.996 8.766 1.739A8.002 8.002 0 00144 320a7.995 7.995 0 00-4.934-7.434 7.996 7.996 0 00-8.746 1.754zm0 0M164.48 313.36c-.445-.301-.93-.544-1.44-.72a4.87 4.87 0 00-1.528-.48 7.346 7.346 0 00-4.551.48 7.431 7.431 0 00-2.64 1.68A8.374 8.374 0 00152 320a7.929 7.929 0 002.32 5.68 9.224 9.224 0 002.64 1.68 7.55 7.55 0 006.08 0 9.309 9.309 0 002.64-1.68A7.935 7.935 0 00168 320a8.41 8.41 0 00-2.32-5.68 13.452 13.452 0 00-1.2-.96zm0 0M106.32 314.32A8.374 8.374 0 00104 320a8.01 8.01 0 00.55 3.04 12.148 12.148 0 001.77 2.64 9.224 9.224 0 002.64 1.68 7.55 7.55 0 006.08 0 7.187 7.187 0 004.32-4.32c.41-.962.628-1.993.64-3.04a7.995 7.995 0 00-4.934-7.434 7.996 7.996 0 00-8.746 1.754zm0 0" /><path d="M232 120H40a8 8 0 00-8 8v224a8 8 0 008 8h192a8 8 0 008-8V128a8 8 0 00-8-8zm-8 224H48V136h176zm0 0" /></symbol><symbol viewBox="-29 0 478 478.837" id="stopwatch"><path d="M297.195 406.793a7.997 7.997 0 01-6.933-4l-8-13.855a7.99 7.99 0 01-.035-8.032 7.996 7.996 0 0113.89.031l8 13.856a8 8 0 010 7.996 7.993 7.993 0 01-6.922 4.004zm0 0M206.148 418.785a8.145 8.145 0 01-2.082-.273c-4.265-1.145-6.8-5.532-5.652-9.797l4.14-15.442a8.002 8.002 0 0115.458 4.145l-4.145 15.453a7.997 7.997 0 01-7.719 5.914zm0 0" /><path d="M396.547 202.871a183.043 183.043 0 00-88.95-77.879l4.575-17.086 7.719 2.063a8 8 0 009.8-5.656l2.067-7.727c3.43-12.8-4.164-25.957-16.961-29.395l-30.938-8.277c-12.796-3.398-25.937 4.184-29.398 16.969l-2.074 7.726a8.006 8.006 0 005.656 9.793l7.73 2.07-4.578 17.09a183.174 183.174 0 00-94.398 12.36l-11.242-19.473c16.164-20.433 18.18-48.676 5.082-71.199C144.672 5.781 109.96-6.277 79.785 6.16 49.61 18.598 33.477 51.613 42.207 83.063s39.578 51.421 71.844 46.523l11.144 19.336a183.084 183.084 0 00-57.886 75.55l-17.09-4.574 2.074-7.722a8.002 8.002 0 00-5.656-9.801l-7.727-2.07c-12.805-3.43-25.96 4.168-29.394 16.968l-8.282 30.934c-3.425 12.805 4.168 25.961 16.97 29.395l7.73 2.07a7.994 7.994 0 009.789-5.656l2.074-7.72 17.086 4.575C44.403 350.477 86.762 427.68 159.53 461.61c72.77 33.926 159.14 16.739 213.375-42.468 54.235-59.204 63.805-146.743 23.64-216.27zM279.75 74.367l30.91 8.281a8 8 0 015.656 9.793l-7.695-2.066-30.976-8.3-7.704-2.067c1.149-4.25 5.52-6.77 9.774-5.64zm1.512 25.25l15.46 4.145-4.206 15.726a191.728 191.728 0 00-15.473-4.152zM63.598 90.242C50.555 67.305 58.473 38.141 81.324 24.95c22.848-13.195 52.063-5.469 65.406 17.293a47.518 47.518 0 01-.054 47.887l-12.68-22.031 6.922-4a8.001 8.001 0 002.926-10.93l-4-6.918a23.987 23.987 0 00-14.574-11.2 23.993 23.993 0 00-18.227 2.4l-27.711 16a24.001 24.001 0 00-11.2 14.573 24.028 24.028 0 002.4 18.227l4 6.926a8.002 8.002 0 0010.929 2.93l6.926-4 12.722 22.03a47.514 47.514 0 01-41.511-23.894zm55.422-32l-27.711 16-6.914 4a8.006 8.006 0 012.93-10.93l27.71-16a7.998 7.998 0 016.09-.8 7.935 7.935 0 014.855 3.73l-6.921 4zm-12.801 25.856l13.86-8 32.1 55.597a160.09 160.09 0 00-7.03 3.825c-2.32 1.343-4.586 2.753-6.833 4.175zM17.484 258.426a7.924 7.924 0 01-.8-6.074l8.28-30.903a8.004 8.004 0 013.74-4.879 8.004 8.004 0 016.093-.785l-2.067 7.711-3.007 11.25-7.375 27.406a7.994 7.994 0 01-4.864-3.726zm24.457-7.578l4.145-15.473 15.719 4.21a188.498 188.498 0 00-4.145 15.474zm279.254 189.52c-61.136 35.195-137.75 28.445-191.793-16.9-54.043-45.34-74-119.616-49.964-185.94 24.035-66.321 86.94-110.567 157.488-110.758a169.067 169.067 0 0143.758 5.793c65.656 17.574 114.257 72.976 123.125 140.363 8.87 67.387-23.739 133.48-82.614 167.441zm0 0" /><path d="M276.516 148.121c-81.047-21.715-164.356 26.383-186.07 107.434-21.72 81.047 26.382 164.355 107.429 186.07a153.302 153.302 0 0039.68 5.266c76.132-.29 140.308-56.856 150.152-132.348 9.844-75.492-37.68-146.621-111.191-166.422zm28.68 264.527c-49.477 28.57-111.54 23.168-155.337-13.52s-59.996-96.839-40.543-150.562c19.454-53.718 70.41-89.554 127.543-89.695a137.287 137.287 0 0135.512 4.707c53.149 14.2 92.492 59.035 99.676 113.574 7.18 54.54-19.219 108.028-66.875 135.504zm0 0" /><path d="M268.254 178.96a8 8 0 00-9.8 5.657l-21 78.399c-14.567-.192-27.411 9.523-31.184 23.593-3.778 14.07 2.476 28.907 15.183 36.032l-2.402 8.8a8.006 8.006 0 005.656 9.793c.68.184 1.379.282 2.082.278a8 8 0 007.719-5.934l2.402-8.707h.285c14.524.024 27.23-9.758 30.926-23.8 3.695-14.044-2.555-28.813-15.203-35.942l21-78.399c1.121-4.261-1.41-8.628-5.664-9.77zm-15.602 120.056c-2.148 8.015-10.066 13.054-18.234 11.613s-13.883-8.887-13.16-17.149c.722-8.265 7.644-14.605 15.937-14.609 1.399 0 2.79.184 4.137.547 8.54 2.281 13.61 11.059 11.32 19.598zm0 0M184.125 186.953a8.002 8.002 0 00-6.938-4.047c-2.87-.004-5.523 1.528-6.953 4.016s-1.418 5.555.036 8.031l8 13.856c2.222 3.793 7.093 5.082 10.898 2.882a8.003 8.003 0 002.957-10.882zm0 0M345.117 241.8c3.793-2.222 5.078-7.093 2.883-10.902a7.999 7.999 0 00-10.883-2.953l-13.847 8a7.996 7.996 0 00-.031 13.89 7.999 7.999 0 008.03-.034zm0 0M329.926 319.723c-1.145 4.265 1.386 8.656 5.656 9.797l15.453 4.136c.68.188 1.38.281 2.082.281a8 8 0 002.063-15.73l-15.465-4.133a7.996 7.996 0 00-9.79 5.649zm0 0M143.125 339.945l-13.848 8a7.996 7.996 0 00-.031 13.89 7.999 7.999 0 008.031-.034l13.848-8a8.001 8.001 0 002.883-10.903 7.999 7.999 0 00-10.883-2.953zm0 0M136.75 275.96a8.003 8.003 0 007.957-6.96c.523-3.992-2-7.75-5.894-8.773l-15.458-4.137a7.998 7.998 0 10-4.145 15.445l15.466 4.145a7.744 7.744 0 002.074.28zm0 0" /><path d="M241.676 288.234a6.004 6.004 0 00-1.442-.722 4.941 4.941 0 00-1.527-.48 8.444 8.444 0 00-7.2 2.16 8.116 8.116 0 000 11.363 7.486 7.486 0 002.641 1.68c.965.41 2 .628 3.047.636a9.77 9.77 0 001.512-.156 4.941 4.941 0 001.527-.48c.512-.18.996-.423 1.442-.723l1.199-.957a8.116 8.116 0 000-11.364zm0 0M307.125 46.602a8 8 0 009.793-5.656l8.277-30.872a8.002 8.002 0 00-15.457-4.145l-8.27 30.872a8 8 0 005.657 9.8zm0 0M276.395 41.273a8.004 8.004 0 007.722 5.934 7.993 7.993 0 002.078-.336c4.27-1.14 6.801-5.531 5.657-9.797l-8.254-30.89a8.002 8.002 0 00-9.79-5.622c-4.253 1.137-6.785 5.5-5.667 9.758zm0 0M326.469 52.816a7.997 7.997 0 0011.312 0l22.614-22.625a8 8 0 00-3.52-13.496 7.997 7.997 0 00-7.781 2.176l-22.625 22.633a7.997 7.997 0 000 11.312zm0 0" /></symbol><symbol viewBox="0 0 64 64" id="sync"><path d="M34.367 21.75a7.129 7.129 0 018.027-.876 1 1 0 001.333-1.4l-1.88-3-1.694 1.062.375.6a9.1 9.1 0 00-7.484 2.12zM28 44v3a1 1 0 001 1h8a1 1 0 001-1v-4a1 1 0 00-1-1h-5v2h4v2h-6v-2z" /><path d="M55 29.639V7a5.006 5.006 0 00-5-5H28a4.982 4.982 0 00-2.5.67l1 1.73A3 3 0 0128 4h22a3 3 0 013 3v1H31v2h22v30.586l-6.793-6.793a4.55 4.55 0 00-.718-.585 8.968 8.968 0 001.385-10.574l-1.748.972a6.981 6.981 0 01-1.816 8.889 4.505 4.505 0 00-3.517 1.3c-.05.05-.084.109-.131.161-.225.02-.455.046-.662.046a6.9 6.9 0 01-3.394-.874 1 1 0 00-1.333 1.405l1.88 3 1.694-1.062-.375-.6a8.986 8.986 0 001.121.116 4.525 4.525 0 001.2 4.221L41.586 42H41a1 1 0 00-1 1v4a1 1 0 001 1h6.586l.167.167-.444.777A10.622 10.622 0 0046.8 50H25v-2h-2v5a5.006 5.006 0 005 5h18.7a10.439 10.439 0 001.3 2.341V62a1 1 0 001 1h12a1 1 0 001-1V42.045a10.982 10.982 0 00-2.7-7.224zM28 56a3 3 0 01-3-3v-1h21.158a10.3 10.3 0 00-.047 4zm14-10v-2h1.586l2 2zm18 15H50v-1a1 1 0 00-.219-.625 8.375 8.375 0 01-.736-9.438l.823-1.441a1 1 0 00-.161-1.2l-8.5-8.5a2.536 2.536 0 013.586-3.586l10.5 10.5 1.414-1.414L55 42.586v-9.813l2.773 3.345A9 9 0 0160 42.045z" /><path d="M49 12h2v2h-2zM34 12h2v2h-2zM20 23a3.006 3.006 0 011.5.4l1-1.73a5 5 0 00-6.83 6.83l1.73-1A3 3 0 0120 23zM25 26a4.99 4.99 0 00-.67-2.5l-1.73 1a3 3 0 01-4.1 4.1l-1 1.732A5 5 0 0025 26z" /><path d="M3 63h12a1 1 0 001-1v-1.659a10.361 10.361 0 00.691-11.4l-.444-.777L18.414 46H25a1 1 0 001-.933L26.2 42H29a1 1 0 001-.91l.7-7.7a12.672 12.672 0 001.7-3.456 13.114 13.114 0 00.356-6.489.462.462 0 00-.011-.063 12.733 12.733 0 00-2.045-4.761L30 10.91a1 1 0 00-1-.91h-2.8L26 6.936A1 1 0 0025 6H15a1 1 0 00-1 .933L13.8 10H11a1 1 0 00-1 .91l-.7 7.7a12.942 12.942 0 00-1.336 12.279L4.721 34.8A11 11 0 002 42.045V62a1 1 0 001 1zm17.414-19l3.793-3.793c.046-.046.078-.1.122-.149L24.065 44zm-1.372-11.074a6.849 6.849 0 01-2.358-.767 7 7 0 116.818-.106 4.197 4.197 0 00-.194.111 6.149 6.149 0 01-1.128.475 4.273 4.273 0 00-3.138.287zM26.337 40l.186-2.773a12.935 12.935 0 001.937-1.352L28.086 40zm1.75-28l.376 4.127a13.048 13.048 0 00-1.94-1.354L26.337 12zm-4.024-4l.39 5.8a13.4 13.4 0 00-8.906 0l.388-5.8zm-10.4 4l-.186 2.773a12.935 12.935 0 00-1.937 1.352L11.914 12zm-2.575 7.548a.825.825 0 00.067-.106 11.024 11.024 0 0117.688 0 .934.934 0 00.071.113 10.758 10.758 0 011.856 4.179c0 .02.006.04.01.06A10.854 10.854 0 0131 26a11.05 11.05 0 01-.514 3.33 10.658 10.658 0 01-1.571 3.118.891.891 0 00-.07.11A11.128 11.128 0 0125.3 35.63a4.5 4.5 0 00-1-1.73 1.357 1.357 0 00.2-.116 9.071 9.071 0 10-7.415.716l-1.552 1.552c-.22-.1-.43-.2-.627-.3a11.163 11.163 0 01-3.773-3.239 1.13 1.13 0 00-.042-.062 11.709 11.709 0 01-1.071-1.8A11.019 11.019 0 019 26a10.9 10.9 0 012.088-6.452zm.8 20.152l-.349-3.832a13.049 13.049 0 001.94 1.359l.055.827zM4 42.045A9.015 9.015 0 016.244 36.1l2.706-3.266c.115.186.232.369.356.547L10 41.09a.994.994 0 00.115.376l-2.822 2.827 1.414 1.414 10.5-10.5a2.6 2.6 0 013.586 0 2.535 2.535 0 010 3.586l-8.5 8.5a1 1 0 00-.161 1.2l.823 1.441a8.375 8.375 0 01-.736 9.438A1 1 0 0014 60v1H4z" /></symbol><symbol viewBox="-1 0 512 512" id="technology"><path d="M176.398 445.34c-12.578 0-22.812 10.234-22.812 22.812s10.234 22.813 22.812 22.813c12.579 0 22.813-10.235 22.813-22.813s-10.234-22.812-22.813-22.812zm0 30.418c-4.191 0-7.601-3.41-7.601-7.606 0-4.191 3.41-7.601 7.601-7.601 4.192 0 7.606 3.41 7.606 7.601-.004 4.196-3.414 7.606-7.606 7.606zm0 0M136.86 51.477h79.077a7.604 7.604 0 100-15.207H136.86c-4.199 0-7.601 3.406-7.601 7.605s3.402 7.602 7.601 7.602zm0 0M107.969 51.48c3.515 0 6.636-2.523 7.41-5.94.687-3.028-.61-6.27-3.195-7.99-2.758-1.831-6.473-1.652-9.04.446-2.46 2.012-3.394 5.45-2.335 8.438 1.058 2.98 3.988 5.046 7.16 5.046zm0 0" /><path d="M463.242 135.316c-28.586-33.68-67.605-56.898-110.437-65.879V42.602C352.805 19.109 333.687 0 310.19 0H42.601C19.11 0 0 19.11 0 42.602v426.785C0 492.883 19.11 512 42.602 512h267.59c23.496 0 42.613-19.117 42.613-42.613v-12.145c42.832-8.98 81.851-32.199 110.437-65.879 30.328-35.738 47.035-81.203 47.035-128.023 0-46.82-16.707-92.285-47.035-128.024zm-153.05 361.477H42.601c-15.106 0-27.395-12.293-27.395-27.406V42.602c0-15.106 12.29-27.395 27.395-27.395h267.59c15.109 0 27.402 12.29 27.402 27.395v157.046c0 4.2 3.406 7.606 7.605 7.606s7.606-3.406 7.606-7.606V135.84c24.968 8 47.418 23.398 63.953 44.082 19.137 23.941 29.25 52.785 29.25 83.418 0 30.633-10.117 59.476-29.25 83.414-16.535 20.683-38.98 36.086-63.953 44.086V313.2c0-4.2-3.407-7.602-7.606-7.602s-7.605 3.402-7.605 7.601v81.535c-4.762.922-9.586 1.59-14.446 1.989v-47.024c0-4.199-3.406-7.601-7.605-7.601s-7.602 3.402-7.602 7.601v47.406c-66.445-2.062-121.191-52.687-128.73-118.308h24.676a7.594 7.594 0 006.582-3.805 7.594 7.594 0 000-7.601l-57.7-99.942a7.605 7.605 0 00-13.171 0l-57.7 99.942a7.594 7.594 0 000 7.601 7.6 7.6 0 006.586 3.805h26.176c3.746 48.351 24.953 93.297 60.203 127.23a201.877 201.877 0 0017.465 14.98H63.368c-10.208 0-18.516-8.3-18.516-18.503V114.09c0-10.207 8.304-18.512 18.515-18.512h226.059c10.207 0 18.515 8.305 18.515 18.512v69.34c0 4.199 3.403 7.601 7.602 7.601s7.605-3.402 7.605-7.601v-69.34c0-18.594-15.128-33.723-33.722-33.723H63.367c-18.594 0-33.722 15.13-33.722 33.723v288.414c0 18.586 15.128 33.71 33.722 33.71h152.074c29.278 16.454 62.403 25.235 96.715 25.235 8.504 0 17.028-.55 25.438-1.633v9.57c0 15.114-12.293 27.407-27.403 27.407zm141.453-115.27c-27.684 32.622-65.954 54.625-107.762 61.965a184.224 184.224 0 01-31.723 2.754c-47.46 0-92.472-18.172-126.75-51.168-34.176-32.906-54.058-77.012-55.984-124.191a7.6 7.6 0 00-7.598-7.293h-20.172l44.532-77.13 44.527 77.13h-19.777a7.6 7.6 0 00-7.594 8.02c4.344 78.94 69.707 140.777 148.816 140.777 11.774 0 23.488-1.383 34.817-4.114 31.976-7.671 60.98-26.148 81.66-52.023 21.011-26.281 32.578-59.277 32.578-92.91 0-33.633-11.567-66.63-32.578-92.914-19.418-24.29-46.168-42.063-75.832-50.492V84.992c38.312 8.746 73.14 29.88 98.843 60.164 28 32.992 43.422 74.965 43.422 118.184s-15.422 85.191-43.425 118.183zm0 0" /><path d="M309.34 309.695h-56.817v-7.234c0-9.344 11.157-17.168 24.079-26.23 8.68-6.086 18.511-12.985 25.968-21.223 8.551-9.453 12.711-19.278 12.711-30.024 0-11.02-4.383-20.992-12.344-28.086-7.664-6.828-18.046-10.59-29.234-10.59-10.574 0-20.469 3.34-27.851 9.399-7.73 6.344-11.985 15.227-11.985 25.012 0 7.777 3.082 11.558 9.426 11.558 4.05 0 6.61-1.332 8.043-2.449 1.863-1.453 2.93-3.43 2.93-5.43 0-6.136 1.96-11.128 5.672-14.43 3.39-3.019 8.152-4.616 13.765-4.616 10.012 0 20.793 6.324 20.793 20.21 0 6.575-3.152 13.075-9.637 19.864-5.808 6.082-13.722 11.867-21.382 17.46-15.887 11.614-32.32 23.622-32.32 39.575v18.789c0 1.887 1.12 3.672 3.155 5.02 1.782 1.18 4.055 1.882 6.075 1.882h68.957c3.547 0 6.906-4.578 6.906-9.422-.004-4.812-3.23-9.035-6.91-9.035zm0 0M316.77 288.71c0 4.52 3 7.68 7.292 7.68h47.524v24.86c0 2.125 1.117 3.91 3.234 5.168 1.883 1.121 4.422 1.738 7.157 1.738 2.625 0 5.207-.633 7.086-1.738 2.164-1.27 3.308-3.055 3.308-5.168v-24.86h9.363c3.649 0 7.102-4.675 7.102-9.617 0-2.562-.629-4.953-1.766-6.726-1.289-2.02-3.136-3.086-5.336-3.086h-9.363v-26.602c0-5.097-5.598-6.906-10.394-6.906-5.024 0-10.391 1.813-10.391 6.906v26.602h-28.14l39.808-79.426c.59-1.18.98-2.168.98-3.156 0-4.852-6.254-8.066-10.39-8.066-2.258 0-6.434.738-9.024 5.683l-46.87 92.39c-.75 1.31-1.18 2.887-1.18 4.325zm0 0" /></symbol><symbol viewBox="0 0 480.234 480" id="trail-running"><path d="M472.117 400.2a8 8 0 00-8 8v56h-51.113l-59.918-116.985 55.031-119.817 56.735 123.457a8 8 0 0013.965 1.46 8.006 8.006 0 00.566-8.143l-64-139.277a8.001 8.001 0 00-14.54 0l-57.046 124.183s-34.785-67.93-34.824-68L248.117 142.27V96.2h72a8 8 0 008-8v-8h72c3.446 0 6.5-2.204 7.59-5.473a8 8 0 00-2.789-8.93l-23.465-17.598 23.465-17.601a8 8 0 00-4.8-14.399h-80a8 8 0 00-8 8v8h-64v-2.226a15.993 15.993 0 007.452-17.996A15.994 15.994 0 00240.117.117a15.994 15.994 0 00-15.453 11.86 15.998 15.998 0 007.453 17.996V142.27l-95.68 186.808-57.046-124.215c-1.309-2.84-4.145-4.66-7.27-4.66s-5.96 1.82-7.27 4.66l-64 139.278a8 8 0 007.98 11.55 8.003 8.003 0 006.552-4.87l56.734-123.423 55.031 119.848L67.23 464.2H16.117v-56a8 8 0 00-16 0v64a8 8 0 008 8h464a8 8 0 008-8v-64a8 8 0 00-8-8zm-232-238.458l52.711 102.918-12.488 17.457-25.598-38.398a7.85 7.85 0 00-7.199-3.547 8 8 0 00-6.656 4.41l-32.496 65-20.739-45.602zm88-129.543h48l-12.8 9.598a8.01 8.01 0 00-3.2 6.402 8.009 8.009 0 003.2 6.399l12.8 9.601h-48zm-16 16v32h-64v-32zm-160 400c0-17.676 14.328-32 32-32s32 14.324 32 32a31.492 31.492 0 01-4.36 16h-55.28a31.492 31.492 0 01-4.36-16zm80 16c0-8.84 7.164-16 16-16s16 7.16 16 16zm48 0a31.909 31.909 0 00-49.281-26.86 47.997 47.997 0 00-34.457-35.96 47.995 47.995 0 00-47.809 13.965 47.991 47.991 0 00-9.683 48.855h-53.68l93.215-181.992 22.398 49.3a8.004 8.004 0 007.13 4.692h.167a8.008 8.008 0 007.16-4.426l33.832-67.671 24.352 36.535a8.002 8.002 0 0013.16.219l14.399-20.169L395.027 464.2zm0 0" /><path d="M472.117 368.2a8 8 0 00-8 8v8a8 8 0 0016 0v-8a8 8 0 00-8-8zm0 0M8.117 392.2a8 8 0 008-8v-8a8 8 0 00-16 0v8a8 8 0 008 8zm0 0" /></symbol><symbol viewBox="-40 0 480 480.061" id="training"><path d="M391.621 313.77c9.375-9.375 9.375-24.575 0-33.946-9.496-9.066-24.445-9.066-33.941 0l-7.442 7.442a103.422 103.422 0 00-39.254-14.196c-2.32-.343-4.64-.496-6.96-.68V264h24a8 8 0 008-8v-32a8 8 0 00-8-8H304.03V56c0-13.254-10.746-24-24-24h-88v-8c0-13.254-10.746-24-24-24h-40c-13.254 0-24 10.746-24 24v8h-80c-13.254 0-24 10.746-24 24v328c0 13.254 10.746 24 24 24h173.102c12.332 38.258 45.613 65.977 85.469 71.184 39.855 5.207 79.144-13.032 100.886-46.836 21.746-33.809 22.051-77.121.782-111.227zM369 291.137a8.183 8.183 0 0111.309 0 7.997 7.997 0 010 11.312l-5.664 5.664a104.224 104.224 0 00-11.36-11.273zm-80.969-18.801c-5.39.39-10.742 1.21-16 2.457V264h16zM216.727 308.8l-6.352-6.403a8 8 0 0111.313-11.3l6.312 6.308a104.9 104.9 0 00-11.273 11.395zm24.265-20.985l-8-8a24.01 24.01 0 00-23.344-6.546 24.011 24.011 0 00-17.14 17.14 24.01 24.01 0 006.547 23.344l8.175 8.14A103.678 103.678 0 00193.32 360H48.031V80h208v200.078a102.957 102.957 0 00-15.039 7.738zM320.032 248h-48v-16h48zm-200-224a8 8 0 018-8h40a8 8 0 018 8v8h-56zm-96 368a8 8 0 01-8-8V56a8 8 0 018-8h256a8 8 0 018 8v160h-16V80c0-8.836-7.165-16-16-16h-208c-8.837 0-16 7.164-16 16v280c0 8.836 7.163 16 16 16h144.1a103.434 103.434 0 001.106 16zm359.085-3.328c-6.758 46.453-48.793 79.426-95.52 74.922-46.726-4.5-81.695-44.89-79.46-91.782 2.23-46.89 40.879-83.769 87.82-83.812h.129a87.995 87.995 0 0187.031 100.656zm0 0" /><path d="M301.133 304.063a8.019 8.019 0 00-8.5 7.5c-.274 4.417 3.082 8.226 7.5 8.5 23.879 1.5 44.168 18.003 50.496 41.074 6.332 23.074-2.695 47.617-22.469 61.093-19.77 13.473-45.914 12.899-65.074-1.43l23.008-23.007A23.73 23.73 0 00296.03 400c13.254 0 24-10.746 24-24s-10.746-24-24-24-24 10.746-24 24c.02 3.695.91 7.332 2.59 10.625l-28.91 28.895a7.997 7.997 0 000 11.312c22.648 22.648 57.535 27.613 85.602 12.184s42.566-47.547 35.578-78.805c-6.993-31.258-33.79-54.14-65.758-56.149zM296.03 368a8 8 0 110 16 8 8 0 010-16zm0 0M232.031 144h-32a8 8 0 00-8 8v88h-16v-64a8 8 0 00-8-8h-32a8 8 0 00-8 8v64h-16v-40a8 8 0 00-8-8h-32a8 8 0 00-8 8v48a8 8 0 008 8h160a8 8 0 008-8v-96a8 8 0 00-8-8zm-152 96v-32h16v32zm64 0v-56h16v56zm64 0v-80h16v80zm0 0M72.031 287.984h16v16h-16zm0 0M104.031 287.984h16v16h-16zm0 0M136.031 287.984h40v16h-40zm0 0" /></symbol></defs><use id="app-usage" xlink:href="#app" class="sprite-symbol-usage" /><use id="calendar-usage" xlink:href="#calendar" class="sprite-symbol-usage" /><use id="calendar-2-usage" xlink:href="#calendar-2" class="sprite-symbol-usage" /><use id="check-list-usage" xlink:href="#check-list" class="sprite-symbol-usage" /><use id="distance-usage" xlink:href="#distance" class="sprite-symbol-usage" /><use id="female-usage" xlink:href="#female" class="sprite-symbol-usage" /><use id="fishing-usage" xlink:href="#fishing" class="sprite-symbol-usage" /><use id="in-usage" xlink:href="#in" class="sprite-symbol-usage" /><use id="male-usage" xlink:href="#male" class="sprite-symbol-usage" /><use id="medal-2-usage" xlink:href="#medal-2" class="sprite-symbol-usage" /><use id="mobile-usage" xlink:href="#mobile" class="sprite-symbol-usage" /><use id="plan-usage" xlink:href="#plan" class="sprite-symbol-usage" /><use id="running-usage" xlink:href="#running" class="sprite-symbol-usage" /><use id="running-2-usage" xlink:href="#running-2" class="sprite-symbol-usage" /><use id="running-5-usage" xlink:href="#running-5" class="sprite-symbol-usage" /><use id="smartwatch-1-usage" xlink:href="#smartwatch-1" class="sprite-symbol-usage" /><use id="stopwatch-usage" xlink:href="#stopwatch" class="sprite-symbol-usage" /><use id="sync-usage" xlink:href="#sync" class="sprite-symbol-usage" /><use id="technology-usage" xlink:href="#technology" class="sprite-symbol-usage" /><use id="trail-running-usage" xlink:href="#trail-running" class="sprite-symbol-usage" /><use id="training-usage" xlink:href="#training" class="sprite-symbol-usage" /></svg>