<svg xmlns="http://www.w3.org/2000/svg" width="42" height="42"><g fill="none" fill-rule="evenodd"><path fill="#FFF" d="M40.35 36.081h-4.336V5.968h4.337V1.67h-8.674v38.71h8.674v-4.298zM27.34 1.67H14.308v38.71h4.337V23.186h4.358V40.38h4.337V1.67zm-8.695 4.3v12.896h4.358V5.968h-4.358zM9.972 36.08H5.635V23.185h4.337v-4.32H5.635V5.968h4.337V1.67H1.298v38.71h8.674v-4.298z"/><path d="M1.298 40.38V1.67m0 38.71h8.674m0 0v-4.299m-4.337 0V23.185m0 0h4.337m0 0v-4.32m0 0H5.635M1.298 1.67h8.674m0 0v4.298m0 0H5.635m0 8.598V5.968m0 30.113h4.337M5.635 14.566v4.299M14.308 1.67H27.34m0 0v38.71m-13.032 0V1.67m0 38.71h4.337m0 0V23.185m0-17.217h4.358m0 34.412V23.185m0 17.195h4.337m-8.695-17.195h4.358m-4.358-4.32h4.358m0 0V5.968m-4.358 12.897V5.968M31.677 1.67h8.673m0 4.298h-4.336m0 0v30.113m0 0h4.336m-8.673 4.299h8.673m-8.673 0V1.67" stroke="#FFF" stroke-linecap="round" stroke-linejoin="round" stroke-width=".48"/><path stroke="#FFF" stroke-linecap="round" stroke-linejoin="round" stroke-width="1.68" d="M40.35 1.67h-8.673m0 0v38.71m0 0h8.673m0-4.299h-4.336m0 0V5.968m0 0h4.336M27.34 1.67v38.71m0 0h-4.337m0 0V23.185m0 0h-4.358m0 0V40.38m0 0H14.31m-.002 0V1.67m0 0H27.34m-4.337 4.298v12.897m0 0h-4.358m0 0V5.968m0 0h4.358M9.972 18.865H5.635m0 0v-4.3m0 .001V5.968m0 0h4.337m0 0V1.67m0 0H1.298m0 0v38.71m0 0h8.674m0 0v-4.299m0 0H5.635m0 0V23.185m0 0h4.337m0 0v-4.32"/></g></svg>