<svg xmlns="http://www.w3.org/2000/svg" width="41" height="54"><g fill="none" fill-rule="evenodd"><path fill="#FFF" d="M.96 1.153V52.73h38.682V1.153H.961zm1.752 1.636v48.197h35.179V2.789H2.712zM33.47 46.556l-.022-.043-.022-.066-.022-.043-.021-.066-.022-.043-.022-.066-.022-.044-.022-.065-.022-.044-.022-.065-.022-.044-.022-.065-.021-.044-.022-.065-.022-.044-.022-.065-.022-.044-.022-.066-.022-.043-.022-.066-.022-.043-.021-.066-.023-.043-.021-.066-.022-.043-.022-.066-.022-.043-.022-.066-.022-.044-.022-.065-.021-.044-.022-.065-.022-.044-.022-.065-.022-.044-.022-.065-.022-.044-.022-.065-.022-.044-.021-.065-.022-.044-.022-.066-.022-.043-.022-.066-.022-.043-.022-.066-.022-.043-.022-.066-.021-.043-.022-.066-.022-.044-.022-.065-.022-.044-.022-.065-.022-.044-.022-.065-.022-.044-.021-.065-.022-.044-.022-.065-.022-.044-.022-.065-.022-.044-.022-.066-.022-.043-.022-.066-.021-.043-.022-.066-.022-.043-.022-.066-.022-.043-.022-.066-.022-.044-.022-.065-.022-.044-.021-.065-.022-.044-.022-.065-.022-.044-.022-.065-.022-.044-.022-.065-.022-.044-.022-.065-.022-.044-.021-.066-.023-.043-.021-.066-.022-.043-.022-.066-.022-.043-.022-.066-.022-.043-.022-.066-.022-.043-.022-.066-.021-.044-.022-.065-.022-.044-.022-.065-.022-.044-.022-.065-.022-.044-.022-.065-.022-.044-.021-.065-.022-.044-.022-.066-.022-.043-.022-.066-.022-.043-.022-.066-.022-.043-.022-.066-.021-.043-.022-.066-.022-.044-.022-.065-.022-.044-.022-.065-.022-.044-.022-.065-.022-.044-.021-.065-.022-.044-.022-.065-.022-.044-.022-.065-.022-.044-.022-.066-.022-.043-.021-.066-.022-.043-.022-.066-.022-.043-.022-.066-.022-.043-.022-.066-.022-.043-.021-.066-.023-.044-.021-.065-.022-.044-.022-.065-.022-.044-.022-.065-.022-.044-.022-.066-.022-.043-.022-.065-.021-.044-.022-.065-.022-.044-.022-.066-.022-.043-.022-.066-.022-.043-.022-.066-.022-.043-.021-.066-.022-.044-.022-.065-.022-.044-.022-.065-.022-.044-.022-.065-.022-.044-.022-.065-.021-.044-.022-.065-.022-.044-.022-.065-.022-.044-.022-.066-.022-.043-.022-.066-.022-.043-.021-.066-.022-.043-.022-.066-.022-.043-.022-.066-.022-.044-.022-.065-.022-.043-.022-.066-.022-.044-.021-.065-.022-.044-.022-.065-.022-.044-.022-.065-.022-.044-.022-.065-.022-.044-.022-.066-.021-.043-.022-.066-.022-.043-.022-.11h.022l.022-.043.022-.065.021-.044.022-.065.022-.044.022-.066.022-.043.022-.066.022-.043.022-.066.022-.043.021-.066.022-.044.022-.065.022-.043.022-.066.022-.044.022-.065.022-.044.022-.065.022-.044.021-.065.022-.044.022-.065.022-.044.022-.066.022-.043.022-.065.022-.044.022-.066.021-.043.022-.066.022-.043.022-.066.022-.044.022-.065.022-.044.022-.065.022-.044.021-.065.022-.044.022-.065.022-.044.022-.065.022-.044.022-.065.022-.044.022-.066.021-.043.022-.066.022-.043.022-.066.022-.044.022-.065.022-.043.022-.066.022-.044.021-.065.023-.044.021-.065.022-.044.022-.065.022-.044.022-.065.022-.044.022-.065.022-.044.021-.065.022-.044.022-.066.022-.043.022-.066.022-.043.022-.066.022-.043.021-.066.022-.044.022-.065.022-.044.022-.065.022-.043.022-.066.022-.044.022-.065.021-.044.022-.065.022-.044.022-.065.022-.044.022-.066.022-.043.022-.066.022-.043.021-.065.022-.044.022-.066.022-.043.022-.066.022-.043.022-.066.022-.044.022-.065.021-.044.022-.065.022-.044.022-.065.022-.044.022-.065.022-.044.022-.065.022-.044.021-.065.023-.044.021-.066.022-.043.022-.066.022-.043.022-.066.022-.043.022-.066.022-.043.022-.066.022-.044.021-.065.022-.044.022-.065.022-.044.022-.065.022-.044.022-.065.022-.044.022-.065.021-.044.022-.065.022-.044.022-.066.022-.043.022-.066.022-.043.022-.066.022-.043.021-.066.022-.044.022-.065.022-.044.022-.065.022-.044.022-.065.022-.044.022-.065.021-.044.022-.065.022-.044.022-.065.022-.044.022-.065.022-.044.022-.066.022-.043.021-.065.022-.044.022-.066.022-.043.022-.066.022-.043.022-.066.022-.044.022-.065.021-.044.022-.065.022-.044.022-.065.022-.044.022-.065.022-.044.021-.065.023-.044.021-.065.022-.044.022-.066.022-.043.022-.066.022-.043.022-.066.022-.043.022-.066.021-.043.022-.066.022-.044.022-.065.022-.044.022-.065.022-.044.022-.065.022-.044.021-.065.022-.044.022-.066.022-.043v-.065h-4.4v.065l-.022.065-.022.044-.022.066-.022.043-.021.066-.022.043-.022.066-.022.043-.022.066-.022.043-.022.066-.022.044-.022.065-.021.044-.022.065-.022.044-.022.065-.022.044-.022.065-.022.044-.022.065-.022.044-.021.065-.022.044-.022.066-.022.043-.022.066-.022.043-.022.066-.022.043-.021.066-.022.043-.022.066-.022.044-.022.065-.022.044-.022.065-.022.044-.022.065-.021.044-.023.065-.021.044-.022.065-.022.044-.022.065-.022.044-.022.066-.022.043-.044.131-.021.044-.022.065-.022.044-.022.065-.022.044-.022.065-.022.044-.021.065-.023.044-.021.066-.022.043-.022.066-.022.043-.022.066-.022.043-.022.066-.022.043-.022.066-.021.043-.022.066-.022.044-.022.065-.022.044-.022.065-.022.044-.022.065-.022.044-.022.065-.021.044-.022.065-.022.044-.022.065-.022.044-.022.066-.022.043-.022.066-.022.043-.021.066-.022.043-.022.066-.022.044-.022.065-.022.044-.022.065-.022.044-.022.065-.021.044-.022.065-.022.044-.044-.087-.022-.066-.022-.043-.022-.066-.022-.044-.021-.065-.022-.044-.022-.065-.022-.044-.022-.065-.022-.044-.022-.065-.022-.044-.022-.065-.021-.044-.022-.066-.022-.043-.022-.066-.022-.043-.022-.066-.022-.043-.022-.066-.022-.043-.021-.066-.022-.043-.022-.066-.022-.044-.022-.065-.022-.044-.022-.065-.022-.044-.022-.065-.043-.087-.022-.066-.022-.044-.022-.065-.022-.044-.022-.065-.022-.044-.022-.065-.022-.044-.021-.065-.022-.044-.022-.065-.022-.044-.022-.065-.022-.044-.022-.066-.022-.043-.022-.066-.021-.043-.023-.066-.021-.043-.022-.066-.022-.043-.022-.066-.022-.044-.022-.065-.022-.043-.021-.066-.023-.044-.021-.065-.022-.044-.022-.065-.044-.088-.022-.065-.022-.044-.021-.065-.023-.044-.021-.065-.022-.044-.022-.065-.022-.044-.022-.065-.022-.044-.022-.065-.021-.044-.023-.066-.021-.043-.022-.066-.022-.043-.022-.066-.022-.043-.022-.066-.022-.043-.022-.066-.021-.044-.022-.065-.022-.044-.022-.065-.022-.044-.022-.065-.022-.044-.022-.065-.022-.044-.021-.066-.022-.043-.022-.065h-4.4l.022.065.021.043.022.066.022.044.022.065.022.044.022.065.022.044.022.065.022.044.021.065.023.044.021.066.022.043.022.066.022.043.022.066.022.043.022.066.021.043.022.066.022.044.022.065.022.044.022.065.022.044.022.065.022.044.021.065.022.044.022.065.022.044.022.065.022.044.022.066.022.043.022.066.021.043.022.066.022.044.022.065.022.043.022.066.022.044.022.065.022.044.021.065.022.044.022.065.022.044.022.065.022.044.022.065.022.044.022.065.021.044.022.065.022.044.022.066.022.043.022.066.022.043.022.066.022.043.021.066.022.044.022.065.022.044.022.065.022.044.022.065.022.044.022.065.022.044.022.065.022.044.021.065.022.044.022.066.022.043.022.066.022.043.022.066.022.043.022.066.021.043.022.066.022.044.022.065.022.044.022.065.022.044.022.065.022.044.021.065.022.044.022.065.022.044.022.065.022.044.022.066.022.043.022.066.021.043.022.066.022.044.022.065.022.043.022.066.022.043.022.066.022.044.021.065.022.044.022.065.022.044.022.065.022.044.022.066.022.043.021.065.022.044.022.065.022.044.022.066.022.043.022.066.022.043.021.066.023.043.021.066.022.044.022.065.022.044.022.065.022.044.022.065.022.044.022.065.021.044.022.065.022.044.022.065.022.044.022.066.022.043.022.065.022.044.021.066.022.043.022.066.022.043.022.066.022.044.022.065.022.044.022.065.021.044.022.065.022.044.022.065.022.044.022.065.022.044.022.065.022.044.021.066.022.043.022.066.022.043.022.066.022.044.022.065.022.043.022.066.022.044.021.065.022.044.022.065.022.044.022.065.022.044.022.065.022.044.022.066.021.043.022.065.022.044.022.066.022.043.022.066.022.043.022.066.022.043.021.066.022.044.022.065.022.044.022.065.022.043v.11l-.022.043-.022.066-.022.043-.022.066-.022.044-.021.065-.022.044-.022.065-.022.044-.022.065-.022.044-.022.065-.022.044-.022.066-.021.043-.022.065-.022.044-.022.066-.022.043-.022.066-.022.043-.022.066-.022.043-.021.066-.022.043-.022.066-.022.044-.022.065-.022.044-.022.065-.022.044-.022.065-.022.044-.021.065-.022.044-.022.065-.022.044-.022.065-.022.044-.022.066-.022.043-.022.066-.021.043-.022.066-.022.043-.022.066-.022.044-.022.065-.022.044-.022.065-.022.043-.021.066-.022.044-.022.065-.022.044-.022.065-.022.044-.022.065-.022.044-.022.066-.021.043-.022.066-.022.043-.022.066-.022.043-.022.066-.022.043-.022.066-.022.043-.021.066-.023.044-.021.065-.022.044-.022.065-.022.044-.022.065-.022.044-.022.065-.022.044-.021.065-.022.044-.022.065-.022.044-.022.066-.022.043-.022.066-.022.043-.021.066-.022.043-.022.066-.022.043-.022.066-.022.044-.022.065-.022.044-.022.065-.021.044-.022.065-.022.044-.022.065-.022.044-.022.065-.022.044-.022.066-.022.043-.021.066-.022.043-.022.066-.022.043-.022.066-.022.043-.022.066-.022.043-.022.066-.021.044-.022.065-.022.044-.022.065-.022.044-.022.065-.022.044-.022.065-.022.044-.021.065-.022.044-.022.065-.022.044-.022.066-.022.043-.022.066-.022.043-.022.066-.022.043-.022.066-.022.043-.021.066-.022.044-.022.065-.022.044-.022.065-.022.044-.022.065-.022.044-.022.065-.021.044-.022.065-.022.044-.022.065-.022.044-.022.066-.022.043-.022.066-.022.043-.021.066-.022.043-.022.066-.022.043-.022.066-.022.044-.022.065-.022.044-.022.065-.021.044-.022.065-.022.044-.022.065-.022.044-.022.065-.022.044-.022.065-.022.044-.021.066-.022.043-.022.066-.022.043-.022.066-.022.043-.022.066-.022.043-.022.066-.021.043-.022.066-.022.044-.022.065-.022.044-.022.065-.022.044-.021.065-.023.044-.021.065-.022.044-.022.065-.022.044-.022.066-.022.043-.022.066-.022.043-.022.066-.043.087h4.4l.044-.087.021-.066.022-.043.022-.066.022-.043.022-.066.022-.044.022-.065.022-.044.022-.065.021-.044.022-.065.022-.044.022-.065.022-.044.022-.065.022-.044.022-.066.021-.043.023-.066.021-.043.022-.066.022-.043.022-.066.022-.043.022-.066.022-.043.021-.066.023-.044.021-.065.022-.044.022-.065.044-.087.022-.066.022-.043.021-.066.023-.044.021-.065.022-.044.022-.065.022-.044.022-.065.022-.044.022-.065.021-.044.023-.065.021-.044.022-.065.022-.044.022-.066.022-.043.022-.066.022-.043.022-.066.022-.043.021-.066.022-.043.022-.066.022-.044.022-.065.022-.044.022-.065.022-.044.022-.065.043-.087.022-.066.022-.044.022-.065.022-.044.022-.065.022-.044.022-.065.022-.044.021-.065.022-.044.022-.065.022-.044.022-.065.022-.044.022-.066.022-.043.022-.066.021-.043.022-.066.022-.043.022-.066.022-.043.022-.066.022-.044.022-.065.022-.044.021-.065.022-.044.022-.065.022-.044.022-.065.022-.044.022-.065.044.13.021.044.022.066.022.043.022.066.022.043.022.066.022.043.022.066.022.044.021.065.022.044.022.065.022.044.022.065.022.044.022.065.022.044.022.065.021.044.022.065.022.044.022.066.022.043.022.066.022.043.022.066.022.043.022.066.021.043.022.066.022.044.022.065.022.044.022.065.022.044.022.065.022.044.021.065.023.044.021.065.022.044.022.065.022.044.022.066.022.043.022.066.021.043.044.131.022.044.022.065.022.044.022.065.022.044.022.065.021.044.023.066.021.043.022.066.022.043.022.066.022.043.022.066.022.043.022.066.022.044.021.065.022.044.022.065.022.044.022.065.022.044.022.065.022.044.021.065.022.044.022.065.022.044.022.065.022.044.022.066.022.043.022.066.021.043.022.066.022.043.022.066.022.044.022.065.022.044.022.065.022.044.021.065.022.044.022.065.022.044.022.065v.044h4.4v-.044zm-17.557-4.341h-4.4V29.08h4.4v-4.385h-4.4V11.56h4.4V7.175h-8.8V46.6h8.8v-4.385z"/><path stroke="#FFF" stroke-linecap="round" stroke-linejoin="round" stroke-width=".48" d="M7.112 46.6h8.8m0 0v-4.385m0 0h-4.4m0 0V29.08m0 0h4.4m0 0v-4.385m0 0h-4.4m0 0V11.56m0 0h4.4m0 0V7.175m0 0h-8.8m0 0V46.6m17.578 0l2.212-5.476m2.189 5.476l-2.19-5.476m6.59 5.476l-4.4-10.953m0-10.952l-2.19 5.476m6.59 16.429h-4.4m-4.401 0h-4.4m8.801-10.953l4.4-10.952M24.69 35.647l-4.4-10.952m6.612 5.475l-2.211-5.475m-.001 10.952L20.29 46.6m0-21.905h4.4m4.401 0h4.4M2.712 2.79h35.18m-.001 0v48.195m0 .001H2.712m0 0V2.789M.96 1.153h38.682m0 0V52.73m0 0H.961m-.001 0V1.154"/><path stroke="#FFF" stroke-linecap="round" stroke-linejoin="round" stroke-width="1.68" d="M39.642 1.153V52.73m0 0H.961m-.001 0V1.154m0-.001h38.682m0 0V52.73m0 0H.961m-.001 0V1.154m0-.001h38.682M37.891 2.79v48.195m0 .001H2.712m0 0V2.789m0 .001h35.18m-8.801 21.905h4.4m0 0l-4.4 10.952m0 0l4.4 10.953m0 0h-4.4m0 0l-2.19-5.476m.001 0L24.69 46.6m0 0h-4.4m0 0l4.4-10.953m0 0l-4.4-10.952m0 0h4.4m0 0l2.212 5.476m0-.001l2.189-5.475m-13.179 0h-4.4m0 0V11.56m0 0h4.4m0 0V7.175m0 0h-8.8m0 0V46.6m0 0h8.8m0 0v-4.385m0 0h-4.4m0 0V29.08m0 0h4.4m0 0v-4.385"/></g></svg>