<svg xmlns="http://www.w3.org/2000/svg" width="23" height="20"><path fill="#007395" fill-rule="evenodd" d="M12.032 14.167v-1.044c0-1.15.957-2.081 2.128-2.081h2.134c1.175 0 2.127.931 2.127 2.081v1.044h2.664a1.05 1.05 0 0 1 1.063 1.041c0 .576-.475 1.042-1.063 1.042H18.42v1.044c0 1.15-.956 2.081-2.127 2.081H14.16c-1.175 0-2.128-.932-2.128-2.081V16.25H1.915a1.05 1.05 0 0 1-1.063-1.042c0-.575.475-1.041 1.063-1.041h10.117zM4.58 2.707c0-1.15.956-2.082 2.127-2.082H8.84c1.175 0 2.128.932 2.128 2.081V3.75h10.117a1.05 1.05 0 0 1 1.063 1.042c0 .575-.475 1.041-1.063 1.041H10.968v1.044c0 1.15-.957 2.081-2.128 2.081H6.706c-1.175 0-2.127-.931-2.127-2.081V5.833H1.915A1.05 1.05 0 0 1 .852 4.792c0-.576.475-1.042 1.063-1.042H4.58V2.706zm2.13.001v4.167h2.129V2.708h-2.13zm7.453 10.417v4.167h2.13v-4.167h-2.13z"/></svg>