<svg xmlns="http://www.w3.org/2000/svg" width="50" height="80"><g fill="none" fill-rule="evenodd"><rect width="50" height="80" fill="#F77200" rx="25"/><g fill="#FFF" fill-rule="nonzero"><path d="M17.5 28.577v12.846c0 3.95 3.357 7.148 7.5 7.148s7.5-3.2 7.5-7.148V28.577c0-3.95-3.357-7.148-7.5-7.148s-7.5 3.2-7.5 7.148zm-1.5 0C16 23.84 20.028 20 25 20c4.97 0 9 3.838 9 8.577v12.846C34 46.16 29.972 50 25 50c-4.97 0-9-3.838-9-8.577V28.577z"/><path d="M24.25 25v2.857c0 .395.336.714.75.714s.75-.32.75-.714V25c0-.394-.336-.714-.75-.714s-.75.32-.75.714zM25 57.852l4.125-3.928a.777.777 0 0 1 1.06 0 .69.69 0 0 1 0 1.01l-4.655 4.433a.767.767 0 0 1-.53.21.767.767 0 0 1-.53-.21L19.779 54.9a.69.69 0 0 1 0-1.01.777.777 0 0 1 1.06 0L25 57.852z"/></g></g></svg>