<?xml version="1.0" encoding="utf-8"?>
<svg xmlns="http://www.w3.org/2000/svg" xmlns:xlink="http://www.w3.org/1999/xlink">

  <symbol viewBox="0 0 20 20" id="search">
    <path fill-rule="nonzero" d="M7.222 0a7.222 7.222 0 0 1 7.222 7.222 7.24 7.24 0 0 1-1.733 4.7l.3.3h.878l5.555 5.556-1.666 1.666-5.556-5.555v-.878l-.3-.3a7.24 7.24 0 0 1-4.7 1.733A7.222 7.222 0 1 1 7.222 0zm0 2.222a4.98 4.98 0 0 0-5 5c0 2.778 2.222 5 5 5s5-2.222 5-5-2.222-5-5-5z"/>
  </symbol>

  <symbol viewBox="0 0 23 20" id="filter">
    <path fill-rule="evenodd" d="M12.032 14.167v-1.044c0-1.15.957-2.081 2.128-2.081h2.134c1.175 0 2.127.931 2.127 2.081v1.044h2.664a1.05 1.05 0 0 1 1.063 1.041c0 .576-.475 1.042-1.063 1.042H18.42v1.044c0 1.15-.956 2.081-2.127 2.081H14.16c-1.175 0-2.128-.932-2.128-2.081V16.25H1.915a1.05 1.05 0 0 1-1.063-1.042c0-.575.475-1.041 1.063-1.041h10.117zM4.58 2.707c0-1.15.956-2.082 2.127-2.082H8.84c1.175 0 2.128.932 2.128 2.081V3.75h10.117a1.05 1.05 0 0 1 1.063 1.042c0 .575-.475 1.041-1.063 1.041H10.968v1.044c0 1.15-.957 2.081-2.128 2.081H6.706c-1.175 0-2.127-.931-2.127-2.081V5.833H1.915A1.05 1.05 0 0 1 .852 4.792c0-.576.475-1.042 1.063-1.042H4.58V2.706zm2.13.001v4.167h2.129V2.708h-2.13zm7.453 10.417v4.167h2.13v-4.167h-2.13z"/>
  </symbol>

  <symbol viewBox="0 0 20 20" id="cart">
    <path fill-rule="nonzero" d="M16 16c1.1 0 2 .9 2 2s-.9 2-2 2a2 2 0 0 1-2-2c0-1.11.89-2 2-2zM0 0h3.27l.94 2H19c.55 0 1 .45 1 1 0 .17-.05.34-.12.5L16.3 9.97c-.34.61-1 1.03-1.75 1.03H7.1l-.9 1.63-.03.12c0 .14.11.25.25.25H18v2H6a2 2 0 0 1-2-2c0-.35.09-.68.24-.96L5.6 9.59 2 2H0V0zm6 16c1.1 0 2 .9 2 2s-.9 2-2 2a2 2 0 0 1-2-2c0-1.11.89-2 2-2zm9-7l2.78-5H5.14L7.5 9H15z"/>
  </symbol>

  <symbol viewBox="0 0 12 17" id="blob">
    <path fill-rule="nonzero" d="M6 17c-3.31 0-6-2.69-6-6C0 7 6 .25 6 .25S12 7 12 11c0 3.31-2.69 6-6 6z"/>
  </symbol>

  <symbol viewBox="0 0 357 357" id="close">
    <polygon points="357,35.7 321.3,0 178.5,142.8 35.7,0 0,35.7 142.8,178.5 0,321.3 35.7,357 178.5,214.2 321.3,357 357,321.3 
      214.2,178.5"/>
  </symbol>

  <symbol viewBox="0 0 20 20" id="checkboxCircle">
    <g fill="none" fill-rule="nonzero">
      <path fill="#F77200" d="M10 0C4.48 0 0 4.48 0 10s4.48 10 10 10 10-4.48 10-10S15.52 0 10 0z"/>
      <path fill="#FFF" d="M8 15l-5-5 1.41-1.42L8 12.17l7.59-7.59L17 6z"/>
    </g>
  </symbol>

  <symbol viewBox="0 0 18 18" id="delete">
    <path fill-rule="nonzero" d="M6 0v1H1v2h1v13c0 1.1.9 2 2 2h10c1.1 0 2-.9 2-2V3h1V1h-5V0H6zM4 3h10v13H4V3zm2 2v9h2V5H6zm4 0v9h2V5h-2z"/>
  </symbol>

  <symbol viewBox="0 0 42 42" id="eac">
    <g fill="none" fill-rule="evenodd">
      <path fill="#FFF" d="M40.35 36.081h-4.336V5.968h4.337V1.67h-8.674v38.71h8.674v-4.298zM27.34 1.67H14.308v38.71h4.337V23.186h4.358V40.38h4.337V1.67zm-8.695 4.3v12.896h4.358V5.968h-4.358zM9.972 36.08H5.635V23.185h4.337v-4.32H5.635V5.968h4.337V1.67H1.298v38.71h8.674v-4.298z"/>
      <g stroke="#FFF" stroke-linecap="round" stroke-linejoin="round" stroke-width=".48">
        <path d="M1.298 40.38V1.67M1.298 40.38h8.674"/>
      </g>
      <path stroke="#FFF" stroke-linecap="round" stroke-linejoin="round" stroke-width=".48" d="M9.972 40.38v-4.299M5.635 36.081V23.185M5.635 23.185h4.337M9.972 23.185v-4.32M9.972 18.865H5.635"/>
      <g stroke="#FFF" stroke-linecap="round" stroke-linejoin="round" stroke-width=".48">
          <path d="M1.298 1.67h8.674M9.972 1.67v4.298"/>
      </g>
      <path stroke="#FFF" stroke-linecap="round" stroke-linejoin="round" stroke-width=".48" d="M9.972 5.968H5.635M5.635 14.566V5.968M5.635 36.081h4.337M5.635 14.566v4.299"/>
      <g stroke="#FFF" stroke-linecap="round" stroke-linejoin="round" stroke-width=".48">
          <path d="M14.308 1.67H27.34M27.34 1.67v38.71M14.308 40.38V1.67"/>
      </g>
      <path stroke="#FFF" stroke-linecap="round" stroke-linejoin="round" stroke-width=".48" d="M14.308 40.38h4.337M18.645 40.38V23.185M18.645 5.968h4.358M23.003 40.38V23.185M23.003 40.38h4.337M18.645 23.185h4.358M18.645 18.865h4.358M23.003 18.865V5.968M18.645 18.865V5.968M31.677 1.67h8.673M40.35 5.968h-4.336M36.014 5.968v30.113M36.014 36.081h4.336M31.677 40.38h8.673M31.677 40.38V1.67"/>
      <path stroke="#FFF" stroke-linecap="round" stroke-linejoin="round" stroke-width="1.68" d="M40.35 1.67h-8.673M31.677 1.67v38.71M31.677 40.38h8.673M40.35 36.081h-4.336M36.014 36.081V5.968M36.014 5.968h4.336"/>
      <g stroke="#FFF" stroke-linecap="round" stroke-linejoin="round" stroke-width="1.68">
          <path d="M27.34 1.67v38.71M27.34 40.38h-4.337M23.003 40.38V23.185"/>
      </g>
      <path stroke="#FFF" stroke-linecap="round" stroke-linejoin="round" stroke-width="1.68" d="M23.003 23.185h-4.358"/>
      <g stroke="#FFF" stroke-linecap="round" stroke-linejoin="round" stroke-width="1.68">
          <path d="M18.645 23.185V40.38M18.645 40.38H14.31M14.308 40.38V1.67M14.308 1.67H27.34"/>
      </g>
      <path stroke="#FFF" stroke-linecap="round" stroke-linejoin="round" stroke-width="1.68" d="M23.003 5.968v12.897M23.003 18.865h-4.358M18.645 18.865V5.968M18.645 5.968h4.358M9.972 18.865H5.635M5.635 18.865v-4.3M5.635 14.566V5.968M5.635 5.968h4.337"/>
      <g stroke="#FFF" stroke-linecap="round" stroke-linejoin="round" stroke-width="1.68">
          <path d="M9.972 5.968V1.67M9.972 1.67H1.298M1.298 1.67v38.71M1.298 40.38h8.674M9.972 40.38v-4.299"/>
      </g>
      <path stroke="#FFF" stroke-linecap="round" stroke-linejoin="round" stroke-width="1.68" d="M9.972 36.081H5.635M5.635 36.081V23.185M5.635 23.185h4.337M9.972 23.185v-4.32"/>
    </g>
  </symbol>

  <symbol viewBox="0 0 41 54" id="ex">
    <g fill="none" fill-rule="evenodd">
        <path fill="#FFF" d="M.96 1.153V52.73h38.682V1.153H.961zm1.752 1.636v48.197h35.179V2.789H2.712zM33.47 46.556l-.022-.043-.022-.066-.022-.043-.021-.066-.022-.043-.022-.066-.022-.044-.022-.065-.022-.044-.022-.065-.022-.044-.022-.065-.021-.044-.022-.065-.022-.044-.022-.065-.022-.044-.022-.066-.022-.043-.022-.066-.022-.043-.021-.066-.023-.043-.021-.066-.022-.043-.022-.066-.022-.043-.022-.066-.022-.044-.022-.065-.021-.044-.022-.065-.022-.044-.022-.065-.022-.044-.022-.065-.022-.044-.022-.065-.022-.044-.021-.065-.022-.044-.022-.066-.022-.043-.022-.066-.022-.043-.022-.066-.022-.043-.022-.066-.021-.043-.022-.066-.022-.044-.022-.065-.022-.044-.022-.065-.022-.044-.022-.065-.022-.044-.021-.065-.022-.044-.022-.065-.022-.044-.022-.065-.022-.044-.022-.066-.022-.043-.022-.066-.021-.043-.022-.066-.022-.043-.022-.066-.022-.043-.022-.066-.022-.044-.022-.065-.022-.044-.021-.065-.022-.044-.022-.065-.022-.044-.022-.065-.022-.044-.022-.065-.022-.044-.022-.065-.022-.044-.021-.066-.023-.043-.021-.066-.022-.043-.022-.066-.022-.043-.022-.066-.022-.043-.022-.066-.022-.043-.022-.066-.021-.044-.022-.065-.022-.044-.022-.065-.022-.044-.022-.065-.022-.044-.022-.065-.022-.044-.021-.065-.022-.044-.022-.066-.022-.043-.022-.066-.022-.043-.022-.066-.022-.043-.022-.066-.021-.043-.022-.066-.022-.044-.022-.065-.022-.044-.022-.065-.022-.044-.022-.065-.022-.044-.021-.065-.022-.044-.022-.065-.022-.044-.022-.065-.022-.044-.022-.066-.022-.043-.021-.066-.022-.043-.022-.066-.022-.043-.022-.066-.022-.043-.022-.066-.022-.043-.021-.066-.023-.044-.021-.065-.022-.044-.022-.065-.022-.044-.022-.065-.022-.044-.022-.066-.022-.043-.022-.065-.021-.044-.022-.065-.022-.044-.022-.066-.022-.043-.022-.066-.022-.043-.022-.066-.022-.043-.021-.066-.022-.044-.022-.065-.022-.044-.022-.065-.022-.044-.022-.065-.022-.044-.022-.065-.021-.044-.022-.065-.022-.044-.022-.065-.022-.044-.022-.066-.022-.043-.022-.066-.022-.043-.021-.066-.022-.043-.022-.066-.022-.043-.022-.066-.022-.044-.022-.065-.022-.043-.022-.066-.022-.044-.021-.065-.022-.044-.022-.065-.022-.044-.022-.065-.022-.044-.022-.065-.022-.044-.022-.066-.021-.043-.022-.066-.022-.043-.022-.11h.022l.022-.043.022-.065.021-.044.022-.065.022-.044.022-.066.022-.043.022-.066.022-.043.022-.066.022-.043.021-.066.022-.044.022-.065.022-.043.022-.066.022-.044.022-.065.022-.044.022-.065.022-.044.021-.065.022-.044.022-.065.022-.044.022-.066.022-.043.022-.065.022-.044.022-.066.021-.043.022-.066.022-.043.022-.066.022-.044.022-.065.022-.044.022-.065.022-.044.021-.065.022-.044.022-.065.022-.044.022-.065.022-.044.022-.065.022-.044.022-.066.021-.043.022-.066.022-.043.022-.066.022-.044.022-.065.022-.043.022-.066.022-.044.021-.065.023-.044.021-.065.022-.044.022-.065.022-.044.022-.065.022-.044.022-.065.022-.044.021-.065.022-.044.022-.066.022-.043.022-.066.022-.043.022-.066.022-.043.021-.066.022-.044.022-.065.022-.044.022-.065.022-.043.022-.066.022-.044.022-.065.021-.044.022-.065.022-.044.022-.065.022-.044.022-.066.022-.043.022-.066.022-.043.021-.065.022-.044.022-.066.022-.043.022-.066.022-.043.022-.066.022-.044.022-.065.021-.044.022-.065.022-.044.022-.065.022-.044.022-.065.022-.044.022-.065.022-.044.021-.065.023-.044.021-.066.022-.043.022-.066.022-.043.022-.066.022-.043.022-.066.022-.043.022-.066.022-.044.021-.065.022-.044.022-.065.022-.044.022-.065.022-.044.022-.065.022-.044.022-.065.021-.044.022-.065.022-.044.022-.066.022-.043.022-.066.022-.043.022-.066.022-.043.021-.066.022-.044.022-.065.022-.044.022-.065.022-.044.022-.065.022-.044.022-.065.021-.044.022-.065.022-.044.022-.065.022-.044.022-.065.022-.044.022-.066.022-.043.021-.065.022-.044.022-.066.022-.043.022-.066.022-.043.022-.066.022-.044.022-.065.021-.044.022-.065.022-.044.022-.065.022-.044.022-.065.022-.044.021-.065.023-.044.021-.065.022-.044.022-.066.022-.043.022-.066.022-.043.022-.066.022-.043.022-.066.021-.043.022-.066.022-.044.022-.065.022-.044.022-.065.022-.044.022-.065.022-.044.021-.065.022-.044.022-.066.022-.043v-.065h-4.4v.065l-.022.065-.022.044-.022.066-.022.043-.021.066-.022.043-.022.066-.022.043-.022.066-.022.043-.022.066-.022.044-.022.065-.021.044-.022.065-.022.044-.022.065-.022.044-.022.065-.022.044-.022.065-.022.044-.021.065-.022.044-.022.066-.022.043-.022.066-.022.043-.022.066-.022.043-.021.066-.022.043-.022.066-.022.044-.022.065-.022.044-.022.065-.022.044-.022.065-.021.044-.023.065-.021.044-.022.065-.022.044-.022.065-.022.044-.022.066-.022.043-.044.131-.021.044-.022.065-.022.044-.022.065-.022.044-.022.065-.022.044-.021.065-.023.044-.021.066-.022.043-.022.066-.022.043-.022.066-.022.043-.022.066-.022.043-.022.066-.021.043-.022.066-.022.044-.022.065-.022.044-.022.065-.022.044-.022.065-.022.044-.022.065-.021.044-.022.065-.022.044-.022.065-.022.044-.022.066-.022.043-.022.066-.022.043-.021.066-.022.043-.022.066-.022.044-.022.065-.022.044-.022.065-.022.044-.022.065-.021.044-.022.065-.022.044-.044-.087-.022-.066-.022-.043-.022-.066-.022-.044-.021-.065-.022-.044-.022-.065-.022-.044-.022-.065-.022-.044-.022-.065-.022-.044-.022-.065-.021-.044-.022-.066-.022-.043-.022-.066-.022-.043-.022-.066-.022-.043-.022-.066-.022-.043-.021-.066-.022-.043-.022-.066-.022-.044-.022-.065-.022-.044-.022-.065-.022-.044-.022-.065-.043-.087-.022-.066-.022-.044-.022-.065-.022-.044-.022-.065-.022-.044-.022-.065-.022-.044-.021-.065-.022-.044-.022-.065-.022-.044-.022-.065-.022-.044-.022-.066-.022-.043-.022-.066-.021-.043-.023-.066-.021-.043-.022-.066-.022-.043-.022-.066-.022-.044-.022-.065-.022-.043-.021-.066-.023-.044-.021-.065-.022-.044-.022-.065-.044-.088-.022-.065-.022-.044-.021-.065-.023-.044-.021-.065-.022-.044-.022-.065-.022-.044-.022-.065-.022-.044-.022-.065-.021-.044-.023-.066-.021-.043-.022-.066-.022-.043-.022-.066-.022-.043-.022-.066-.022-.043-.022-.066-.021-.044-.022-.065-.022-.044-.022-.065-.022-.044-.022-.065-.022-.044-.022-.065-.022-.044-.021-.066-.022-.043-.022-.065h-4.4l.022.065.021.043.022.066.022.044.022.065.022.044.022.065.022.044.022.065.022.044.021.065.023.044.021.066.022.043.022.066.022.043.022.066.022.043.022.066.021.043.022.066.022.044.022.065.022.044.022.065.022.044.022.065.022.044.021.065.022.044.022.065.022.044.022.065.022.044.022.066.022.043.022.066.021.043.022.066.022.044.022.065.022.043.022.066.022.044.022.065.022.044.021.065.022.044.022.065.022.044.022.065.022.044.022.065.022.044.022.065.021.044.022.065.022.044.022.066.022.043.022.066.022.043.022.066.022.043.021.066.022.044.022.065.022.044.022.065.022.044.022.065.022.044.022.065.022.044.022.065.022.044.021.065.022.044.022.066.022.043.022.066.022.043.022.066.022.043.022.066.021.043.022.066.022.044.022.065.022.044.022.065.022.044.022.065.022.044.021.065.022.044.022.065.022.044.022.065.022.044.022.066.022.043.022.066.021.043.022.066.022.044.022.065.022.043.022.066.022.043.022.066.022.044.021.065.022.044.022.065.022.044.022.065.022.044.022.066.022.043.021.065.022.044.022.065.022.044.022.066.022.043.022.066.022.043.021.066.023.043.021.066.022.044.022.065.022.044.022.065.022.044.022.065.022.044.022.065.021.044.022.065.022.044.022.065.022.044.022.066.022.043.022.065.022.044.021.066.022.043.022.066.022.043.022.066.022.044.022.065.022.044.022.065.021.044.022.065.022.044.022.065.022.044.022.065.022.044.022.065.022.044.021.066.022.043.022.066.022.043.022.066.022.044.022.065.022.043.022.066.022.044.021.065.022.044.022.065.022.044.022.065.022.044.022.065.022.044.022.066.021.043.022.065.022.044.022.066.022.043.022.066.022.043.022.066.022.043.021.066.022.044.022.065.022.044.022.065.022.043v.11l-.022.043-.022.066-.022.043-.022.066-.022.044-.021.065-.022.044-.022.065-.022.044-.022.065-.022.044-.022.065-.022.044-.022.066-.021.043-.022.065-.022.044-.022.066-.022.043-.022.066-.022.043-.022.066-.022.043-.021.066-.022.043-.022.066-.022.044-.022.065-.022.044-.022.065-.022.044-.022.065-.022.044-.021.065-.022.044-.022.065-.022.044-.022.065-.022.044-.022.066-.022.043-.022.066-.021.043-.022.066-.022.043-.022.066-.022.044-.022.065-.022.044-.022.065-.022.043-.021.066-.022.044-.022.065-.022.044-.022.065-.022.044-.022.065-.022.044-.022.066-.021.043-.022.066-.022.043-.022.066-.022.043-.022.066-.022.043-.022.066-.022.043-.021.066-.023.044-.021.065-.022.044-.022.065-.022.044-.022.065-.022.044-.022.065-.022.044-.021.065-.022.044-.022.065-.022.044-.022.066-.022.043-.022.066-.022.043-.021.066-.022.043-.022.066-.022.043-.022.066-.022.044-.022.065-.022.044-.022.065-.021.044-.022.065-.022.044-.022.065-.022.044-.022.065-.022.044-.022.066-.022.043-.021.066-.022.043-.022.066-.022.043-.022.066-.022.043-.022.066-.022.043-.022.066-.021.044-.022.065-.022.044-.022.065-.022.044-.022.065-.022.044-.022.065-.022.044-.021.065-.022.044-.022.065-.022.044-.022.066-.022.043-.022.066-.022.043-.022.066-.022.043-.022.066-.022.043-.021.066-.022.044-.022.065-.022.044-.022.065-.022.044-.022.065-.022.044-.022.065-.021.044-.022.065-.022.044-.022.065-.022.044-.022.066-.022.043-.022.066-.022.043-.021.066-.022.043-.022.066-.022.043-.022.066-.022.044-.022.065-.022.044-.022.065-.021.044-.022.065-.022.044-.022.065-.022.044-.022.065-.022.044-.022.065-.022.044-.021.066-.022.043-.022.066-.022.043-.022.066-.022.043-.022.066-.022.043-.022.066-.021.043-.022.066-.022.044-.022.065-.022.044-.022.065-.022.044-.021.065-.023.044-.021.065-.022.044-.022.065-.022.044-.022.066-.022.043-.022.066-.022.043-.022.066-.043.087h4.4l.044-.087.021-.066.022-.043.022-.066.022-.043.022-.066.022-.044.022-.065.022-.044.022-.065.021-.044.022-.065.022-.044.022-.065.022-.044.022-.065.022-.044.022-.066.021-.043.023-.066.021-.043.022-.066.022-.043.022-.066.022-.043.022-.066.022-.043.021-.066.023-.044.021-.065.022-.044.022-.065.044-.087.022-.066.022-.043.021-.066.023-.044.021-.065.022-.044.022-.065.022-.044.022-.065.022-.044.022-.065.021-.044.023-.065.021-.044.022-.065.022-.044.022-.066.022-.043.022-.066.022-.043.022-.066.022-.043.021-.066.022-.043.022-.066.022-.044.022-.065.022-.044.022-.065.022-.044.022-.065.043-.087.022-.066.022-.044.022-.065.022-.044.022-.065.022-.044.022-.065.022-.044.021-.065.022-.044.022-.065.022-.044.022-.065.022-.044.022-.066.022-.043.022-.066.021-.043.022-.066.022-.043.022-.066.022-.043.022-.066.022-.044.022-.065.022-.044.021-.065.022-.044.022-.065.022-.044.022-.065.022-.044.022-.065.044.13.021.044.022.066.022.043.022.066.022.043.022.066.022.043.022.066.022.044.021.065.022.044.022.065.022.044.022.065.022.044.022.065.022.044.022.065.021.044.022.065.022.044.022.066.022.043.022.066.022.043.022.066.022.043.022.066.021.043.022.066.022.044.022.065.022.044.022.065.022.044.022.065.022.044.021.065.023.044.021.065.022.044.022.065.022.044.022.066.022.043.022.066.021.043.044.131.022.044.022.065.022.044.022.065.022.044.022.065.021.044.023.066.021.043.022.066.022.043.022.066.022.043.022.066.022.043.022.066.022.044.021.065.022.044.022.065.022.044.022.065.022.044.022.065.022.044.021.065.022.044.022.065.022.044.022.065.022.044.022.066.022.043.022.066.021.043.022.066.022.043.022.066.022.044.022.065.022.044.022.065.022.044.021.065.022.044.022.065.022.044.022.065v.044h4.4v-.044zm-17.557-4.341h-4.4V29.08h4.4v-4.385h-4.4V11.56h4.4V7.175h-8.8V46.6h8.8v-4.385z"/>
        <path stroke="#FFF" stroke-linecap="round" stroke-linejoin="round" stroke-width=".48" d="M7.112 46.6h8.8M15.912 46.6v-4.385M15.912 42.215h-4.4M11.512 42.215V29.08M11.512 29.08h4.4M15.912 29.08v-4.385M15.912 24.695h-4.4M11.512 24.695V11.56M11.512 11.56h4.4M15.912 11.56V7.175M15.912 7.175h-8.8M7.112 7.175V46.6M24.69 46.6l2.212-5.476M29.091 46.6l-2.19-5.476M33.491 46.6l-4.4-10.953M29.091 24.695l-2.19 5.476M33.491 46.6h-4.4M24.69 46.6h-4.4M29.091 35.647l4.4-10.952M24.69 35.647l-4.4-10.952M26.902 30.17l-2.211-5.475M24.69 35.647L20.29 46.6M20.29 24.695h4.4M29.091 24.695h4.4M2.712 2.79h35.18M37.891 2.79v48.195M37.891 50.986H2.712M2.712 50.986V2.789"/>
        <g stroke="#FFF" stroke-linecap="round" stroke-linejoin="round" stroke-width=".48">
            <path d="M.96 1.153h38.682M39.642 1.153V52.73"/>
        </g>
        <path stroke="#FFF" stroke-linecap="round" stroke-linejoin="round" stroke-width=".48" d="M39.642 52.73H.961M.96 52.73V1.154"/>
        <path stroke="#FFF" stroke-linecap="round" stroke-linejoin="round" stroke-width="1.68" d="M39.642 1.153V52.73M39.642 52.73H.961M.96 52.73V1.154M.96 1.153h38.682M39.642 1.153V52.73M39.642 52.73H.961M.96 52.73V1.154M.96 1.153h38.682M37.891 2.79v48.195M37.891 50.986H2.712M2.712 50.986V2.789M2.712 2.79h35.18M29.091 24.695h4.4M33.491 24.695l-4.4 10.952M29.091 35.647l4.4 10.953M33.491 46.6h-4.4M29.091 46.6l-2.19-5.476M26.902 41.124L24.69 46.6M24.69 46.6h-4.4M20.29 46.6l4.4-10.953M24.69 35.647l-4.4-10.952M20.29 24.695h4.4M24.69 24.695l2.212 5.476M26.902 30.17l2.189-5.475M15.912 24.695h-4.4M11.512 24.695V11.56M11.512 11.56h4.4M15.912 11.56V7.175M15.912 7.175h-8.8M7.112 7.175V46.6M7.112 46.6h8.8M15.912 46.6v-4.385M15.912 42.215h-4.4M11.512 42.215V29.08M11.512 29.08h4.4M15.912 29.08v-4.385"/>
    </g>
  </symbol>

  <symbol viewBox="0 0 10 20" id="flash">
    <path fill-rule="nonzero" d="M0 0v11h3v9l7-12H6l4-8z"/>
  </symbol>

  <symbol viewBox="0 0 20 20" id="list">
    <path fill-rule="nonzero" d="M2 0C.89 0 0 .89 0 2v10h2V2h10V0H2zm4 4c-1.11 0-2 .89-2 2v10h2V6h10V4H6zm4 4c-1.11 0-2 .89-2 2v8c0 1.11.89 2 2 2h8c1.11 0 2-.89 2-2v-8c0-1.11-.89-2-2-2h-8z"/>
  </symbol>

  <symbol viewBox="0 0 11 22" id="paperclip">
    <path fill-rule="nonzero" d="M9.5 5v11.5c0 2.21-1.79 4-4 4s-4-1.79-4-4V4a2.5 2.5 0 0 1 5 0v10.5c0 .55-.45 1-1 1s-1-.45-1-1V5H3v9.5a2.5 2.5 0 0 0 5 0V4c0-2.21-1.79-4-4-4S0 1.79 0 4v12.5C0 19.54 2.46 22 5.5 22s5.5-2.46 5.5-5.5V5H9.5z"/>
  </symbol>

  <symbol viewBox="0 0 16 20" id="pdf">
    <path fill-rule="nonzero" d="M9 7h5.5L9 1.5V7zM2 0h8l6 6v12c0 1.1-.9 2-2 2H2c-1.1 0-2-.9-2-2V2C0 .9.9 0 2 0zm4.1 9.4c-.02.04-.29 1.76-2.1 4.69 0 0-3.5 1.82-2.67 3.18.67 1.08 2.32-.04 3.74-2.68 0 0 1.82-.64 4.24-.82 0 0 3.86 1.73 4.39-.11.52-1.86-3.06-1.44-3.7-1.25 0 0-2-1.35-2.5-3.21 0 0 1.14-3.95-.61-3.9-1.75.05-1.09 3.13-.79 4.1zm.81 1.04c.03.01.47 1.21 1.89 2.46 0 0-2.33.46-3.39.9 0 0 1-1.73 1.5-3.36zm3.93 2.72c.58-.16 2.33.15 2.26.48-.06.33-2.26-.48-2.26-.48zM3.77 15c-.53 1.24-1.44 2-1.67 2-.23 0 .7-1.6 1.67-2zm3.14-6.93c0-.07-.36-2.2 0-2.15.54.08 0 2.08 0 2.15z"/>
  </symbol>

  <symbol viewBox="0 0 50 80" id="scroll">
    <g fill="none" fill-rule="evenodd">
        <rect width="50" height="80" fill="#F77200" rx="25"/>
        <g fill="#FFF" fill-rule="nonzero">
            <path d="M17.5 28.577v12.846c0 3.95 3.357 7.148 7.5 7.148s7.5-3.2 7.5-7.148V28.577c0-3.95-3.357-7.148-7.5-7.148s-7.5 3.2-7.5 7.148zm-1.5 0C16 23.84 20.028 20 25 20c4.97 0 9 3.838 9 8.577v12.846C34 46.16 29.972 50 25 50c-4.97 0-9-3.838-9-8.577V28.577z"/>
            <path d="M24.25 25v2.857c0 .395.336.714.75.714s.75-.32.75-.714V25c0-.394-.336-.714-.75-.714s-.75.32-.75.714zM25 57.852l4.125-3.928a.777.777 0 0 1 1.06 0 .69.69 0 0 1 0 1.01l-4.655 4.433a.767.767 0 0 1-.53.21.767.767 0 0 1-.53-.21L19.779 54.9a.69.69 0 0 1 0-1.01.777.777 0 0 1 1.06 0L25 57.852z"/>
        </g>
    </g>
  </symbol>

  <symbol viewBox="0 0 20 20" id="snowflake">
    <path fill-rule="nonzero" d="M18.79 11.95l-2.33.62-2-1.13V8.56l2-1.13 2.33.62.52-1.93-1.77-.47.46-1.77-1.93-.52-.62 2.33-2 1.13L11 5.38V3.12l1.71-1.71L11.29 0 10 1.29 8.71 0 7.29 1.41 9 3.12v2.26L6.5 6.82l-2-1.13-.58-2.33L2 3.88l.47 1.77-1.77.47.52 1.93 2.33-.62 2 1.13v2.89l-2 1.13-2.33-.62-.52 1.93 1.77.47L2 16.12l1.93.52.62-2.33 2-1.13L9 14.62v2.26l-1.71 1.71L8.71 20 10 18.71 11.29 20l1.41-1.41-1.7-1.71v-2.26l2.5-1.45 2 1.13.62 2.33 1.88-.51-.47-1.77 1.77-.47-.51-1.93zM7.5 8.56L10 7.11l2.5 1.45v2.88L10 12.89l-2.5-1.45V8.56z"/>
  </symbol>

  <symbol viewBox="0 0 8 18" id="thermometer">
    <path fill-rule="nonzero" d="M2.5 0C1.67 0 1 .67 1 1.5v12a2.5 2.5 0 1 0 4 2c0-.79-.37-1.5-1-2V12h4v-2H4V8h4V6H4V4h4V2H4v-.5C4 .67 3.33 0 2.5 0z"/>
  </symbol>

  <symbol viewBox="0 0 16 20" id="word">
    <path fill-rule="nonzero" d="M10 0H2C.9 0 0 .9 0 2v16c0 1.1.9 2 2 2h12c1.1 0 2-.9 2-2V6l-6-6zm1.2 18H9.8L8 11.2 6.2 18H4.8L2.6 9h1.5l1.4 6.8L7.3 9h1.3l1.8 6.8L11.8 9h1.5l-2.1 9zM9 7V1.5L14.5 7H9z"/>
  </symbol>


  <symbol viewBox="0 0 20 14" id="youtube">
    <path fill-rule="nonzero" d="M8 10l5.19-3L8 4v6zm11.56-7.83c.13.47.22 1.1.28 1.9.07.8.1 1.49.1 2.09L20 7c0 2.19-.16 3.8-.44 4.83-.25.9-.83 1.48-1.73 1.73-.47.13-1.33.22-2.65.28-1.3.07-2.49.1-3.59.1L10 14c-4.19 0-6.8-.16-7.83-.44-.9-.25-1.48-.83-1.73-1.73-.13-.47-.22-1.1-.28-1.9-.07-.8-.1-1.49-.1-2.09L0 7c0-2.19.16-3.8.44-4.83.25-.9.83-1.48 1.73-1.73C2.64.31 3.5.22 4.82.16c1.3-.07 2.49-.1 3.59-.1L10 0c4.19 0 6.8.16 7.83.44.9.25 1.48.83 1.73 1.73z"/>
  </symbol>


  <symbol viewBox="0 0 12 8" id="arrB">
    <polygon points="1.41 0 6 4.59 10.59 0 12 1.42 6 7.42 0 1.42"/>
  </symbol>


  <symbol viewBox="0 0 16 11" id="arrR">
    <path transform="translate(-79 -5)" d="M94.9999,10.31891 C94.9999,10.1971172 94.9252602,10.0354071 94.8495298,9.9569337 L90.5829555,5.483179 C90.3837561,5.27994278 90.0610371,5.25639022 89.8287977,5.46265274 C89.6211717,5.64704692 89.6159984,6.00667739 89.8079978,6.20691362 L93.2329212,9.79248683 L79.5333318,9.79248683 C79.2387726,9.79248683 79,10.0281177 79,10.318801 C79,10.6094843 79.2387726,10.8451415 79.5333318,10.8451415 L93.2329212,10.8451415 L89.8079978,14.4307095 C89.616025,14.6309194 89.6296517,14.9817078 89.8287977,15.174944 C90.0390638,15.3789434 90.3867961,15.3607855 90.5829555,15.1544178 L94.8495298,10.6806946 C94.9748894,10.5593529 94.997796,10.4424848 94.9999,10.31891 Z"/>
  </symbol>


</svg>