<svg width="110" height="15" viewBox="0 0 110 15" fill="none" xmlns="http://www.w3.org/2000/svg">
<path fill-rule="evenodd" clip-rule="evenodd" d="M17.6708 14.7641H0V14.2179L13.2356 0.887982H7.80236H2.27467L1.95922 4.21065H1.15015L1.51361 0.336676H18.0462V0.7272L4.60461 14.2179H16.809L17.1429 10.0294H18.0462L17.6708 14.7641ZM99.546 10.2661H92.2237L89.8656 14.2179H94.13V14.7641H85.7764V14.2179H88.9559L97.3634 0.00277375H97.8911L105.953 14.2179H109.051V14.7641H98.0668V14.2179H101.792L99.546 10.2661ZM92.5466 9.71988H99.2354L95.9849 3.94303H95.9199L92.5466 9.71988ZM38.4888 10.264H31.1676L28.8082 14.2152H33.0741V14.7632H24.7193V14.2152H27.9L36.3061 0H36.8339L44.8954 14.2152H47.9938V14.7632H37.0108V14.2152H40.7365L38.4888 10.264ZM31.3777 9.71759H38.0666L34.8157 3.94102H34.7523L31.3777 9.71759ZM59.3006 14.2179V0.887982H55.6747V0.336676H68.3059L72.8467 0.366422C75.2784 0.381309 75.8986 2.34301 75.8986 3.66374C75.8986 5.45122 75.4749 6.90446 72.8604 7.40036C72.8134 7.41055 72.4699 7.42624 71.9836 7.44426L75.8151 14.218H78.9122V14.7653H71.9591L67.7684 7.43422H63.3894V14.2201H67.0159V14.7662H55.6747V14.2201L59.3006 14.2179ZM63.3894 0.887982V6.88205L67.4629 6.86723C68.333 6.86723 69.013 6.7737 69.5261 6.69057C70.2234 6.57633 70.7821 6.29052 71.198 5.81875C71.6215 5.35004 71.8265 4.60115 71.8265 3.57613C71.8265 2.73868 71.6154 2.1252 71.193 1.73618C70.7709 1.3506 70.254 1.11223 69.6563 1.02017C69.0509 0.931939 68.2654 0.887886 67.2919 0.887886L63.3894 0.887982Z" fill="#191919"/>
</svg>
