<svg width="52" height="40" viewBox="0 0 52 40" fill="none" xmlns="http://www.w3.org/2000/svg">
<path fill-rule="evenodd" clip-rule="evenodd" d="M0 39.9111V37.2889L0.399997 37.2445H0.844442C2.4 36.7556 3.2 35.6889 3.2 34V5.73333C3.2 4.62222 2.93333 3.82222 2.44444 3.33333C1.95556 2.84444 1.33333 2.57778 0.62222 2.44444H0.222222V0H19.6L26.9333 11.1111L34.0889 0H51.9111V2.44444C51.0667 2.44444 50.3556 2.75556 49.7778 3.33333C49.2 3.91111 48.8889 4.71111 48.8889 5.73333V33.9111V35.0222C49.0222 36 49.7333 36.6667 51.0222 37.0667L51.4667 37.2445H51.7333V39.9111H30.2667V37.2889L30.6667 37.2445L31.0667 37.1556C32.6222 36.6222 33.3778 35.5556 33.3778 33.9556V8.48889L22.3111 25.8667H19.1556L7.42223 8.44444V34C7.42223 34.9778 7.55556 35.6445 7.86667 36.0889C8.17778 36.5333 8.71111 36.8889 9.51111 37.1556L9.91111 37.2445H10.2222V39.9111H0Z" fill="#CB2B2E"/>
</svg>
