<svg width="241" height="41" viewBox="0 0 241 41" fill="none" xmlns="http://www.w3.org/2000/svg">
<path fill-rule="evenodd" clip-rule="evenodd" d="M0 40.9111V38.2889L0.399997 38.2445H0.844442C2.4 37.7556 3.2 36.6889 3.2 35V6.73333C3.2 5.62222 2.93333 4.82222 2.44444 4.33333C1.95556 3.84444 1.33333 3.57778 0.62222 3.44444H0.222222V1H19.6L26.9333 12.1111L34.0889 1H51.9111V3.44444C51.0667 3.44444 50.3556 3.75556 49.7778 4.33333C49.2 4.91111 48.8889 5.71111 48.8889 6.73333V34.9111V36.0222C49.0222 37 49.7333 37.6667 51.0222 38.0667L51.4667 38.2445H51.7333V40.9111H30.2667V38.2889L30.6667 38.2445L31.0667 38.1556C32.6222 37.6222 33.3778 36.5556 33.3778 34.9556V9.48889L22.3111 26.8667H19.1556L7.42223 9.44444V35C7.42223 35.9778 7.55556 36.6445 7.86667 37.0889C8.17778 37.5333 8.71111 37.8889 9.51111 38.1556L9.91111 38.2445H10.2222V40.9111H0Z" fill="#CB2B2E"/>
<path d="M113.728 3.744C113.456 3.76 113.26 3.792 113.14 3.84C113.02 3.888 112.936 3.98 112.888 4.116C112.848 4.252 112.828 4.472 112.828 4.776V10.728C112.828 11.032 112.848 11.252 112.888 11.388C112.936 11.524 113.02 11.616 113.14 11.664C113.268 11.712 113.464 11.744 113.728 11.76V12C113.288 11.976 112.66 11.964 111.844 11.964C110.988 11.964 110.356 11.976 109.948 12V11.76C110.236 11.744 110.444 11.712 110.572 11.664C110.708 11.616 110.8 11.524 110.848 11.388C110.896 11.252 110.92 11.032 110.92 10.728V4.452L108.028 12.012H107.836L104.596 4.284V10.032C104.596 10.504 104.62 10.852 104.668 11.076C104.716 11.292 104.82 11.452 104.98 11.556C105.14 11.652 105.4 11.72 105.76 11.76V12C105.448 11.976 105.016 11.964 104.464 11.964C104.024 11.964 103.676 11.976 103.42 12V11.76C103.684 11.72 103.876 11.652 103.996 11.556C104.124 11.46 104.208 11.308 104.248 11.1C104.296 10.892 104.32 10.584 104.32 10.176V4.776C104.32 4.472 104.296 4.252 104.248 4.116C104.208 3.98 104.124 3.888 103.996 3.84C103.876 3.792 103.684 3.76 103.42 3.744V3.504C103.676 3.528 104.024 3.54 104.464 3.54C105.2 3.54 105.832 3.528 106.36 3.504L108.784 9.348L110.992 3.54H111.844C112.66 3.54 113.288 3.528 113.728 3.504V3.744ZM121.105 10.176C121.105 10.912 121.133 11.52 121.189 12C120.645 11.976 119.729 11.964 118.441 11.964C116.697 11.964 115.393 11.976 114.529 12V11.76C114.793 11.744 114.985 11.712 115.105 11.664C115.233 11.616 115.317 11.524 115.357 11.388C115.405 11.252 115.429 11.032 115.429 10.728V4.776C115.429 4.472 115.405 4.252 115.357 4.116C115.317 3.98 115.233 3.888 115.105 3.84C114.985 3.792 114.793 3.76 114.529 3.744V3.504C115.393 3.528 116.697 3.54 118.441 3.54C119.617 3.54 120.453 3.528 120.949 3.504C120.893 4.168 120.865 4.76 120.865 5.28C120.865 5.632 120.877 5.904 120.901 6.096H120.625C120.505 5.24 120.289 4.64 119.977 4.296C119.665 3.952 119.225 3.78 118.657 3.78H118.165C117.917 3.78 117.737 3.8 117.625 3.84C117.513 3.88 117.437 3.96 117.397 4.08C117.357 4.192 117.337 4.376 117.337 4.632V7.608H117.721C118.145 7.608 118.465 7.452 118.681 7.14C118.905 6.828 119.061 6.456 119.149 6.024H119.425C119.401 6.36 119.389 6.736 119.389 7.152V7.728C119.389 8.136 119.413 8.704 119.461 9.432H119.185C119.017 8.376 118.529 7.848 117.721 7.848H117.337V10.872C117.337 11.128 117.357 11.316 117.397 11.436C117.437 11.548 117.513 11.624 117.625 11.664C117.737 11.704 117.917 11.724 118.165 11.724H118.753C119.321 11.724 119.777 11.532 120.121 11.148C120.473 10.756 120.721 10.096 120.865 9.168H121.141C121.117 9.432 121.105 9.768 121.105 10.176ZM124.943 8.568V10.656C124.943 10.976 124.975 11.212 125.039 11.364C125.111 11.508 125.231 11.604 125.399 11.652C125.575 11.7 125.851 11.728 126.227 11.736V12C125.243 11.976 124.511 11.964 124.031 11.964C123.631 11.964 123.127 11.972 122.519 11.988L122.135 12V11.76C122.399 11.744 122.591 11.712 122.711 11.664C122.839 11.616 122.923 11.524 122.963 11.388C123.011 11.252 123.035 11.032 123.035 10.728V4.776C123.035 4.472 123.011 4.252 122.963 4.116C122.923 3.98 122.839 3.888 122.711 3.84C122.591 3.792 122.399 3.76 122.135 3.744V3.504C122.543 3.528 123.151 3.54 123.959 3.54L125.291 3.528C125.451 3.52 125.635 3.516 125.843 3.516C126.923 3.516 127.747 3.732 128.315 4.164C128.883 4.588 129.167 5.16 129.167 5.88C129.167 6.32 129.055 6.744 128.831 7.152C128.607 7.552 128.227 7.888 127.691 8.16C127.163 8.432 126.459 8.568 125.579 8.568H124.943ZM125.687 3.744C125.471 3.744 125.311 3.772 125.207 3.828C125.111 3.884 125.043 3.984 125.003 4.128C124.963 4.272 124.943 4.488 124.943 4.776V8.328H125.459C126.107 8.328 126.555 8.12 126.803 7.704C127.051 7.288 127.175 6.724 127.175 6.012C127.175 5.236 127.059 4.664 126.827 4.296C126.603 3.928 126.223 3.744 125.687 3.744ZM137.899 11.472C137.683 11.712 137.451 11.888 137.203 12C136.955 12.112 136.655 12.168 136.303 12.168C135.839 12.168 135.475 12.072 135.211 11.88C134.947 11.688 134.771 11.352 134.683 10.872L134.359 9.036C134.287 8.692 134.195 8.428 134.083 8.244C133.979 8.052 133.819 7.908 133.603 7.812C133.395 7.716 133.103 7.668 132.727 7.668H132.571V10.728C132.571 11.032 132.591 11.252 132.631 11.388C132.679 11.524 132.763 11.616 132.883 11.664C133.003 11.712 133.199 11.744 133.471 11.76V12C133.039 11.976 132.435 11.964 131.659 11.964C130.803 11.964 130.171 11.976 129.763 12V11.76C130.027 11.744 130.219 11.712 130.339 11.664C130.467 11.616 130.551 11.524 130.591 11.388C130.639 11.252 130.663 11.032 130.663 10.728V4.776C130.663 4.472 130.639 4.252 130.591 4.116C130.551 3.98 130.467 3.888 130.339 3.84C130.219 3.792 130.027 3.76 129.763 3.744V3.504C130.171 3.528 130.803 3.54 131.659 3.54C132.435 3.54 133.039 3.528 133.471 3.504V3.744C133.199 3.76 133.003 3.792 132.883 3.84C132.763 3.888 132.679 3.98 132.631 4.116C132.591 4.252 132.571 4.472 132.571 4.776V7.464C132.891 7.456 133.187 7.364 133.459 7.188C133.731 7.012 134.031 6.732 134.359 6.348L135.067 5.496C135.435 5.056 135.619 4.684 135.619 4.38C135.619 4.18 135.543 4.028 135.391 3.924C135.239 3.812 135.023 3.748 134.743 3.732V3.504C135.335 3.528 135.923 3.54 136.507 3.54C136.979 3.54 137.359 3.528 137.647 3.504V3.732C137.023 3.876 136.439 4.26 135.895 4.884L133.675 7.488C134.459 7.536 135.067 7.684 135.499 7.932C135.931 8.172 136.211 8.572 136.339 9.132L136.687 10.74C136.751 11.068 136.823 11.296 136.903 11.424C136.991 11.544 137.111 11.604 137.263 11.604C137.351 11.596 137.427 11.572 137.491 11.532C137.563 11.492 137.643 11.424 137.731 11.328L137.899 11.472ZM145.18 3.54C145.556 3.54 145.864 3.528 146.104 3.504V3.744C145.928 3.808 145.748 3.948 145.564 4.164C145.388 4.38 145.188 4.7 144.964 5.124L142.6 9.876L142.036 11.016C141.86 11.376 141.684 11.644 141.508 11.82C141.276 12.052 140.94 12.168 140.5 12.168C140.092 12.168 139.768 12.076 139.528 11.892C139.288 11.708 139.168 11.468 139.168 11.172C139.168 10.892 139.268 10.664 139.468 10.488C139.676 10.312 139.932 10.224 140.236 10.224C140.548 10.224 140.796 10.292 140.98 10.428C141.172 10.564 141.268 10.752 141.268 10.992C141.268 11.208 141.192 11.392 141.04 11.544C140.896 11.696 140.704 11.812 140.464 11.892C140.512 11.916 140.592 11.928 140.704 11.928C140.928 11.928 141.124 11.852 141.292 11.7C141.468 11.54 141.632 11.304 141.784 10.992L142.06 10.416L138.676 4.476C138.412 4.028 138.148 3.784 137.884 3.744V3.504C138.204 3.528 138.736 3.54 139.48 3.54C140.336 3.54 140.972 3.528 141.388 3.504V3.744C140.98 3.76 140.776 3.916 140.776 4.212C140.776 4.356 140.82 4.52 140.908 4.704L143.032 8.472L144.244 6.012C144.548 5.412 144.7 4.928 144.7 4.56C144.7 4.28 144.612 4.08 144.436 3.96C144.268 3.832 144.02 3.76 143.692 3.744V3.504C144.236 3.528 144.732 3.54 145.18 3.54ZM149.142 8.568V10.656C149.142 10.976 149.174 11.212 149.238 11.364C149.31 11.508 149.43 11.604 149.598 11.652C149.774 11.7 150.05 11.728 150.426 11.736V12C149.442 11.976 148.71 11.964 148.23 11.964C147.83 11.964 147.326 11.972 146.718 11.988L146.334 12V11.76C146.598 11.744 146.79 11.712 146.91 11.664C147.038 11.616 147.122 11.524 147.162 11.388C147.21 11.252 147.234 11.032 147.234 10.728V4.776C147.234 4.472 147.21 4.252 147.162 4.116C147.122 3.98 147.038 3.888 146.91 3.84C146.79 3.792 146.598 3.76 146.334 3.744V3.504C146.742 3.528 147.35 3.54 148.158 3.54L149.49 3.528C149.65 3.52 149.834 3.516 150.042 3.516C151.122 3.516 151.946 3.732 152.514 4.164C153.082 4.588 153.366 5.16 153.366 5.88C153.366 6.32 153.254 6.744 153.03 7.152C152.806 7.552 152.426 7.888 151.89 8.16C151.362 8.432 150.658 8.568 149.778 8.568H149.142ZM149.886 3.744C149.67 3.744 149.51 3.772 149.406 3.828C149.31 3.884 149.242 3.984 149.202 4.128C149.162 4.272 149.142 4.488 149.142 4.776V8.328H149.658C150.306 8.328 150.754 8.12 151.002 7.704C151.25 7.288 151.374 6.724 151.374 6.012C151.374 5.236 151.258 4.664 151.026 4.296C150.802 3.928 150.422 3.744 149.886 3.744ZM162.999 3.744C162.727 3.76 162.531 3.792 162.411 3.84C162.291 3.888 162.207 3.98 162.159 4.116C162.119 4.252 162.099 4.472 162.099 4.776V10.728C162.099 11.032 162.119 11.252 162.159 11.388C162.207 11.524 162.291 11.616 162.411 11.664C162.531 11.712 162.727 11.744 162.999 11.76V12C162.591 11.976 161.959 11.964 161.103 11.964C160.319 11.964 159.715 11.976 159.291 12V11.76C159.555 11.744 159.747 11.712 159.867 11.664C159.995 11.616 160.079 11.524 160.119 11.388C160.167 11.252 160.191 11.032 160.191 10.728V5.112L156.771 10.884C156.779 11.132 156.807 11.316 156.855 11.436C156.903 11.548 156.987 11.628 157.107 11.676C157.227 11.716 157.415 11.744 157.671 11.76V12C157.239 11.976 156.635 11.964 155.859 11.964C155.003 11.964 154.371 11.976 153.963 12V11.76C154.227 11.744 154.419 11.712 154.539 11.664C154.667 11.616 154.751 11.524 154.791 11.388C154.839 11.252 154.863 11.032 154.863 10.728V4.776C154.863 4.472 154.839 4.252 154.791 4.116C154.751 3.98 154.667 3.888 154.539 3.84C154.419 3.792 154.227 3.76 153.963 3.744V3.504C154.371 3.528 155.003 3.54 155.859 3.54C156.635 3.54 157.239 3.528 157.671 3.504V3.744C157.399 3.76 157.203 3.792 157.083 3.84C156.963 3.888 156.879 3.98 156.831 4.116C156.791 4.252 156.771 4.472 156.771 4.776V10.368L160.191 4.572C160.183 4.34 160.151 4.168 160.095 4.056C160.047 3.944 159.963 3.868 159.843 3.828C159.723 3.788 159.539 3.76 159.291 3.744V3.504C159.707 3.528 160.311 3.54 161.103 3.54C161.959 3.54 162.591 3.528 162.999 3.504V3.744ZM172.842 3.744C172.57 3.76 172.374 3.792 172.254 3.84C172.134 3.888 172.05 3.98 172.002 4.116C171.962 4.252 171.942 4.472 171.942 4.776V10.728C171.942 11.032 171.962 11.252 172.002 11.388C172.05 11.524 172.134 11.616 172.254 11.664C172.374 11.712 172.57 11.744 172.842 11.76V12C172.434 11.976 171.802 11.964 170.946 11.964C170.162 11.964 169.558 11.976 169.134 12V11.76C169.398 11.744 169.59 11.712 169.71 11.664C169.838 11.616 169.922 11.524 169.962 11.388C170.01 11.252 170.034 11.032 170.034 10.728V5.112L166.614 10.884C166.622 11.132 166.65 11.316 166.698 11.436C166.746 11.548 166.83 11.628 166.95 11.676C167.07 11.716 167.258 11.744 167.514 11.76V12C167.082 11.976 166.478 11.964 165.702 11.964C164.846 11.964 164.214 11.976 163.806 12V11.76C164.07 11.744 164.262 11.712 164.382 11.664C164.51 11.616 164.594 11.524 164.634 11.388C164.682 11.252 164.706 11.032 164.706 10.728V4.776C164.706 4.472 164.682 4.252 164.634 4.116C164.594 3.98 164.51 3.888 164.382 3.84C164.262 3.792 164.07 3.76 163.806 3.744V3.504C164.214 3.528 164.846 3.54 165.702 3.54C166.478 3.54 167.082 3.528 167.514 3.504V3.744C167.242 3.76 167.046 3.792 166.926 3.84C166.806 3.888 166.722 3.98 166.674 4.116C166.634 4.252 166.614 4.472 166.614 4.776V10.368L170.034 4.572C170.026 4.34 169.994 4.168 169.938 4.056C169.89 3.944 169.806 3.868 169.686 3.828C169.566 3.788 169.382 3.76 169.134 3.744V3.504C169.55 3.528 170.154 3.54 170.946 3.54C171.802 3.54 172.434 3.528 172.842 3.504V3.744ZM170.214 0.659999C170.486 0.659999 170.71 0.735999 170.886 0.887999C171.07 1.032 171.162 1.22 171.162 1.452C171.162 1.804 170.922 2.1 170.442 2.34C170.194 2.468 169.89 2.572 169.53 2.652C169.17 2.724 168.77 2.76 168.33 2.76C167.89 2.76 167.49 2.724 167.13 2.652C166.77 2.572 166.466 2.468 166.218 2.34C165.746 2.1 165.51 1.804 165.51 1.452C165.51 1.22 165.598 1.032 165.774 0.887999C165.95 0.735999 166.178 0.659999 166.458 0.659999C166.738 0.659999 166.97 0.735999 167.154 0.887999C167.338 1.032 167.43 1.224 167.43 1.464C167.43 1.664 167.358 1.832 167.214 1.968C167.078 2.104 166.902 2.196 166.686 2.244C166.902 2.34 167.158 2.412 167.454 2.46C167.758 2.5 168.05 2.52 168.33 2.52C168.61 2.52 168.898 2.496 169.194 2.448C169.498 2.4 169.754 2.328 169.962 2.232C169.746 2.176 169.57 2.084 169.434 1.956C169.306 1.82 169.242 1.656 169.242 1.464C169.242 1.224 169.334 1.032 169.518 0.887999C169.702 0.735999 169.934 0.659999 170.214 0.659999Z" fill="#191919"/>
<path opacity="0.5" d="M105.63 26C105.563 26 105.507 25.98 105.46 25.94C105.42 25.8933 105.4 25.8367 105.4 25.77V19.89H103.48C103.413 19.89 103.357 19.87 103.31 19.83C103.27 19.7833 103.25 19.7267 103.25 19.66V19.24C103.25 19.1733 103.27 19.1167 103.31 19.07C103.357 19.0233 103.413 19 103.48 19H108.3C108.373 19 108.43 19.0233 108.47 19.07C108.517 19.11 108.54 19.1667 108.54 19.24V19.66C108.54 19.7267 108.517 19.7833 108.47 19.83C108.423 19.87 108.367 19.89 108.3 19.89H106.39V25.77C106.39 25.8367 106.367 25.8933 106.32 25.94C106.273 25.98 106.217 26 106.15 26H105.63ZM111.661 26.1C110.928 26.1 110.358 25.8933 109.951 25.48C109.551 25.0667 109.338 24.5167 109.311 23.83L109.301 23.4L109.311 22.97C109.338 22.29 109.554 21.7433 109.961 21.33C110.368 20.91 110.934 20.7 111.661 20.7C112.388 20.7 112.954 20.91 113.361 21.33C113.768 21.7433 113.984 22.29 114.011 22.97C114.018 23.0433 114.021 23.1867 114.021 23.4C114.021 23.6133 114.018 23.7567 114.011 23.83C113.984 24.5167 113.768 25.0667 113.361 25.48C112.961 25.8933 112.394 26.1 111.661 26.1ZM111.661 25.33C112.081 25.33 112.411 25.1967 112.651 24.93C112.898 24.6633 113.031 24.28 113.051 23.78C113.058 23.7133 113.061 23.5867 113.061 23.4C113.061 23.2133 113.058 23.0867 113.051 23.02C113.031 22.52 112.898 22.1367 112.651 21.87C112.411 21.6033 112.081 21.47 111.661 21.47C111.241 21.47 110.908 21.6033 110.661 21.87C110.414 22.1367 110.284 22.52 110.271 23.02L110.261 23.4L110.271 23.78C110.284 24.28 110.414 24.6633 110.661 24.93C110.908 25.1967 111.241 25.33 111.661 25.33ZM115.513 27.9C115.447 27.9 115.39 27.8767 115.343 27.83C115.303 27.79 115.283 27.7367 115.283 27.67V21.03C115.283 20.9633 115.303 20.91 115.343 20.87C115.39 20.8233 115.447 20.8 115.513 20.8H115.973C116.04 20.8 116.093 20.8233 116.133 20.87C116.18 20.91 116.203 20.9633 116.203 21.03V21.47C116.577 20.9567 117.123 20.7 117.843 20.7C118.543 20.7 119.067 20.92 119.413 21.36C119.767 21.8 119.957 22.3667 119.983 23.06C119.99 23.1333 119.993 23.2467 119.993 23.4C119.993 23.5533 119.99 23.6667 119.983 23.74C119.957 24.4267 119.767 24.9933 119.413 25.44C119.06 25.88 118.537 26.1 117.843 26.1C117.15 26.1 116.61 25.85 116.223 25.35V27.67C116.223 27.7367 116.203 27.79 116.163 27.83C116.123 27.8767 116.07 27.9 116.003 27.9H115.513ZM117.633 25.29C118.107 25.29 118.45 25.1433 118.663 24.85C118.883 24.5567 119.003 24.17 119.023 23.69C119.03 23.6233 119.033 23.5267 119.033 23.4C119.033 22.14 118.567 21.51 117.633 21.51C117.173 21.51 116.827 21.6633 116.593 21.97C116.367 22.27 116.243 22.63 116.223 23.05L116.213 23.43L116.223 23.82C116.237 24.2133 116.363 24.5567 116.603 24.85C116.843 25.1433 117.187 25.29 117.633 25.29ZM121.46 26C121.394 26 121.337 25.98 121.29 25.94C121.25 25.8933 121.23 25.8367 121.23 25.77V21.03C121.23 20.9633 121.25 20.91 121.29 20.87C121.337 20.8233 121.394 20.8 121.46 20.8H124.45C124.517 20.8 124.57 20.8233 124.61 20.87C124.657 20.91 124.68 20.9633 124.68 21.03V21.37C124.68 21.4367 124.657 21.4933 124.61 21.54C124.57 21.58 124.517 21.6 124.45 21.6H122.17V25.77C122.17 25.8367 122.147 25.8933 122.1 25.94C122.06 25.98 122.007 26 121.94 26H121.46ZM127.55 26.1C126.816 26.1 126.246 25.8933 125.84 25.48C125.44 25.0667 125.226 24.5167 125.2 23.83L125.19 23.4L125.2 22.97C125.226 22.29 125.443 21.7433 125.85 21.33C126.256 20.91 126.823 20.7 127.55 20.7C128.276 20.7 128.843 20.91 129.25 21.33C129.656 21.7433 129.873 22.29 129.9 22.97C129.906 23.0433 129.91 23.1867 129.91 23.4C129.91 23.6133 129.906 23.7567 129.9 23.83C129.873 24.5167 129.656 25.0667 129.25 25.48C128.85 25.8933 128.283 26.1 127.55 26.1ZM127.55 25.33C127.97 25.33 128.3 25.1967 128.54 24.93C128.786 24.6633 128.92 24.28 128.94 23.78C128.946 23.7133 128.95 23.5867 128.95 23.4C128.95 23.2133 128.946 23.0867 128.94 23.02C128.92 22.52 128.786 22.1367 128.54 21.87C128.3 21.6033 127.97 21.47 127.55 21.47C127.13 21.47 126.796 21.6033 126.55 21.87C126.303 22.1367 126.173 22.52 126.16 23.02L126.15 23.4L126.16 23.78C126.173 24.28 126.303 24.6633 126.55 24.93C126.796 25.1967 127.13 25.33 127.55 25.33ZM131.392 26C131.325 26 131.269 25.98 131.222 25.94C131.182 25.8933 131.162 25.8367 131.162 25.77V21.03C131.162 20.9633 131.182 20.91 131.222 20.87C131.269 20.8233 131.325 20.8 131.392 20.8H133.472C134.085 20.8 134.552 20.9267 134.872 21.18C135.199 21.4267 135.362 21.7667 135.362 22.2C135.362 22.4867 135.309 22.71 135.202 22.87C135.095 23.0233 134.932 23.1567 134.712 23.27C134.952 23.37 135.139 23.5367 135.272 23.77C135.412 24.0033 135.482 24.2533 135.482 24.52C135.482 25 135.312 25.3667 134.972 25.62C134.639 25.8733 134.165 26 133.552 26H131.392ZM133.412 23.01C133.739 23.01 133.995 22.94 134.182 22.8C134.369 22.66 134.462 22.4633 134.462 22.21C134.462 21.9633 134.372 21.79 134.192 21.69C134.012 21.5833 133.752 21.53 133.412 21.53H132.082V23.01H133.412ZM133.472 25.27C133.805 25.27 134.065 25.2067 134.252 25.08C134.445 24.9533 134.542 24.7667 134.542 24.52C134.542 24.2533 134.455 24.06 134.282 23.94C134.109 23.8133 133.839 23.75 133.472 23.75H132.082V25.27H133.472ZM138.897 26.1C138.164 26.1 137.594 25.8933 137.187 25.48C136.787 25.0667 136.574 24.5167 136.547 23.83L136.537 23.4L136.547 22.97C136.574 22.29 136.791 21.7433 137.197 21.33C137.604 20.91 138.171 20.7 138.897 20.7C139.624 20.7 140.191 20.91 140.597 21.33C141.004 21.7433 141.221 22.29 141.247 22.97C141.254 23.0433 141.257 23.1867 141.257 23.4C141.257 23.6133 141.254 23.7567 141.247 23.83C141.221 24.5167 141.004 25.0667 140.597 25.48C140.197 25.8933 139.631 26.1 138.897 26.1ZM138.897 25.33C139.317 25.33 139.647 25.1967 139.887 24.93C140.134 24.6633 140.267 24.28 140.287 23.78C140.294 23.7133 140.297 23.5867 140.297 23.4C140.297 23.2133 140.294 23.0867 140.287 23.02C140.267 22.52 140.134 22.1367 139.887 21.87C139.647 21.6033 139.317 21.47 138.897 21.47C138.477 21.47 138.144 21.6033 137.897 21.87C137.651 22.1367 137.521 22.52 137.507 23.02L137.497 23.4L137.507 23.78C137.521 24.28 137.651 24.6633 137.897 24.93C138.144 25.1967 138.477 25.33 138.897 25.33ZM142.69 23.42C142.623 23.42 142.566 23.4 142.52 23.36C142.48 23.3133 142.46 23.2567 142.46 23.19V22.81C142.46 22.7433 142.48 22.69 142.52 22.65C142.566 22.6033 142.623 22.58 142.69 22.58H145.69C145.756 22.58 145.81 22.6033 145.85 22.65C145.896 22.69 145.92 22.7433 145.92 22.81V23.19C145.92 23.2567 145.896 23.3133 145.85 23.36C145.81 23.4 145.756 23.42 145.69 23.42H142.69ZM147.593 27.9C147.527 27.9 147.47 27.8767 147.423 27.83C147.383 27.79 147.363 27.7367 147.363 27.67V21.03C147.363 20.9633 147.383 20.91 147.423 20.87C147.47 20.8233 147.527 20.8 147.593 20.8H148.053C148.12 20.8 148.173 20.8233 148.213 20.87C148.26 20.91 148.283 20.9633 148.283 21.03V21.47C148.657 20.9567 149.203 20.7 149.923 20.7C150.623 20.7 151.147 20.92 151.493 21.36C151.847 21.8 152.037 22.3667 152.063 23.06C152.07 23.1333 152.073 23.2467 152.073 23.4C152.073 23.5533 152.07 23.6667 152.063 23.74C152.037 24.4267 151.847 24.9933 151.493 25.44C151.14 25.88 150.617 26.1 149.923 26.1C149.23 26.1 148.69 25.85 148.303 25.35V27.67C148.303 27.7367 148.283 27.79 148.243 27.83C148.203 27.8767 148.15 27.9 148.083 27.9H147.593ZM149.713 25.29C150.187 25.29 150.53 25.1433 150.743 24.85C150.963 24.5567 151.083 24.17 151.103 23.69C151.11 23.6233 151.113 23.5267 151.113 23.4C151.113 22.14 150.647 21.51 149.713 21.51C149.253 21.51 148.907 21.6633 148.673 21.97C148.447 22.27 148.323 22.63 148.303 23.05L148.293 23.43L148.303 23.82C148.317 24.2133 148.443 24.5567 148.683 24.85C148.923 25.1433 149.267 25.29 149.713 25.29ZM154.76 26.1C154.434 26.1 154.13 26.0333 153.85 25.9C153.57 25.7667 153.347 25.5867 153.18 25.36C153.02 25.1267 152.94 24.87 152.94 24.59C152.94 24.15 153.12 23.79 153.48 23.51C153.847 23.2233 154.34 23.0367 154.96 22.95L156.45 22.74V22.45C156.45 21.77 156.06 21.43 155.28 21.43C154.987 21.43 154.747 21.4933 154.56 21.62C154.374 21.74 154.234 21.8833 154.14 22.05C154.12 22.11 154.094 22.1533 154.06 22.18C154.034 22.2067 153.994 22.22 153.94 22.22H153.51C153.45 22.22 153.397 22.2 153.35 22.16C153.31 22.1133 153.29 22.06 153.29 22C153.297 21.84 153.37 21.66 153.51 21.46C153.657 21.2533 153.88 21.0767 154.18 20.93C154.48 20.7767 154.85 20.7 155.29 20.7C156.037 20.7 156.574 20.8767 156.9 21.23C157.227 21.5767 157.39 22.01 157.39 22.53V25.77C157.39 25.8367 157.367 25.8933 157.32 25.94C157.28 25.98 157.227 26 157.16 26H156.7C156.634 26 156.577 25.98 156.53 25.94C156.49 25.8933 156.47 25.8367 156.47 25.77V25.34C156.324 25.5533 156.11 25.7333 155.83 25.88C155.55 26.0267 155.194 26.1 154.76 26.1ZM154.97 25.35C155.404 25.35 155.757 25.21 156.03 24.93C156.31 24.6433 156.45 24.2333 156.45 23.7V23.42L155.29 23.59C154.817 23.6567 154.46 23.77 154.22 23.93C153.98 24.0833 153.86 24.28 153.86 24.52C153.86 24.7867 153.97 24.9933 154.19 25.14C154.41 25.28 154.67 25.35 154.97 25.35ZM160.638 26.1C160.151 26.1 159.748 26.0233 159.428 25.87C159.115 25.7167 158.885 25.53 158.738 25.31C158.598 25.09 158.525 24.8733 158.518 24.66V24.64C158.518 24.5867 158.538 24.5433 158.578 24.51C158.618 24.4767 158.665 24.46 158.718 24.46H159.188C159.308 24.46 159.388 24.5233 159.428 24.65C159.501 24.9033 159.645 25.0833 159.858 25.19C160.078 25.29 160.365 25.34 160.718 25.34C161.058 25.34 161.338 25.27 161.558 25.13C161.778 24.99 161.888 24.7833 161.888 24.51C161.888 24.23 161.808 24.0233 161.648 23.89C161.495 23.75 161.255 23.68 160.928 23.68H160.378C160.318 23.68 160.268 23.66 160.228 23.62C160.188 23.58 160.168 23.5267 160.168 23.46V23.19C160.168 23.1233 160.188 23.07 160.228 23.03C160.268 22.99 160.318 22.97 160.378 22.97H160.868C161.435 22.97 161.718 22.7467 161.718 22.3C161.718 22.06 161.631 21.86 161.458 21.7C161.291 21.54 161.018 21.46 160.638 21.46C160.271 21.46 160.005 21.5233 159.838 21.65C159.678 21.77 159.561 21.9633 159.488 22.23C159.461 22.2967 159.428 22.3467 159.388 22.38C159.355 22.4067 159.305 22.42 159.238 22.42H158.788C158.728 22.42 158.678 22.4033 158.638 22.37C158.598 22.33 158.578 22.2833 158.578 22.23C158.585 21.9567 158.665 21.7033 158.818 21.47C158.971 21.2367 159.201 21.05 159.508 20.91C159.815 20.77 160.191 20.7 160.638 20.7C161.105 20.7 161.488 20.7733 161.788 20.92C162.088 21.0667 162.305 21.25 162.438 21.47C162.571 21.69 162.638 21.92 162.638 22.16C162.638 22.4333 162.591 22.6567 162.498 22.83C162.411 22.9967 162.251 23.1367 162.018 23.25C162.305 23.3567 162.508 23.5233 162.628 23.75C162.755 23.9767 162.818 24.2533 162.818 24.58C162.818 25.0667 162.618 25.4433 162.218 25.71C161.818 25.97 161.291 26.1 160.638 26.1ZM164.175 26C164.108 26 164.052 25.98 164.005 25.94C163.965 25.8933 163.945 25.8367 163.945 25.77V21.03C163.945 20.9633 163.965 20.91 164.005 20.87C164.052 20.8233 164.108 20.8 164.175 20.8H166.255C166.868 20.8 167.335 20.9267 167.655 21.18C167.982 21.4267 168.145 21.7667 168.145 22.2C168.145 22.4867 168.092 22.71 167.985 22.87C167.878 23.0233 167.715 23.1567 167.495 23.27C167.735 23.37 167.922 23.5367 168.055 23.77C168.195 24.0033 168.265 24.2533 168.265 24.52C168.265 25 168.095 25.3667 167.755 25.62C167.422 25.8733 166.948 26 166.335 26H164.175ZM166.195 23.01C166.522 23.01 166.778 22.94 166.965 22.8C167.152 22.66 167.245 22.4633 167.245 22.21C167.245 21.9633 167.155 21.79 166.975 21.69C166.795 21.5833 166.535 21.53 166.195 21.53H164.865V23.01H166.195ZM166.255 25.27C166.588 25.27 166.848 25.2067 167.035 25.08C167.228 24.9533 167.325 24.7667 167.325 24.52C167.325 24.2533 167.238 24.06 167.065 23.94C166.892 23.8133 166.622 23.75 166.255 23.75H164.865V25.27H166.255ZM169.301 26C169.234 26 169.177 25.9767 169.131 25.93C169.084 25.8833 169.061 25.8267 169.061 25.76V25.39C169.061 25.3233 169.081 25.27 169.121 25.23C169.161 25.19 169.211 25.17 169.271 25.17C169.591 25.1567 169.827 24.93 169.981 24.49C170.141 24.0433 170.221 23.3167 170.221 22.31V21.03C170.221 20.9633 170.241 20.91 170.281 20.87C170.327 20.8233 170.384 20.8 170.451 20.8H173.631C173.697 20.8 173.751 20.8233 173.791 20.87C173.837 20.91 173.861 20.9633 173.861 21.03V25.77C173.861 25.8367 173.837 25.8933 173.791 25.94C173.751 25.98 173.697 26 173.631 26H173.151C173.084 26 173.031 25.98 172.991 25.94C172.951 25.8933 172.931 25.8367 172.931 25.77V21.6H171.131V22.42C171.131 23.6933 170.984 24.61 170.691 25.17C170.397 25.7233 169.934 26 169.301 26ZM177.431 26.1C176.745 26.1 176.195 25.89 175.781 25.47C175.375 25.0433 175.151 24.4633 175.111 23.73L175.101 23.39L175.111 23.06C175.158 22.34 175.385 21.7667 175.791 21.34C176.205 20.9133 176.748 20.7 177.421 20.7C178.161 20.7 178.735 20.9367 179.141 21.41C179.548 21.8767 179.751 22.51 179.751 23.31V23.48C179.751 23.5467 179.728 23.6033 179.681 23.65C179.641 23.69 179.588 23.71 179.521 23.71H176.061V23.8C176.081 24.2333 176.211 24.6033 176.451 24.91C176.698 25.21 177.021 25.36 177.421 25.36C177.728 25.36 177.978 25.3 178.171 25.18C178.371 25.0533 178.518 24.9233 178.611 24.79C178.671 24.71 178.715 24.6633 178.741 24.65C178.775 24.63 178.831 24.62 178.911 24.62H179.401C179.461 24.62 179.511 24.6367 179.551 24.67C179.591 24.7033 179.611 24.75 179.611 24.81C179.611 24.9567 179.518 25.1333 179.331 25.34C179.151 25.5467 178.895 25.7267 178.561 25.88C178.235 26.0267 177.858 26.1 177.431 26.1ZM178.801 23.02V22.99C178.801 22.53 178.675 22.1567 178.421 21.87C178.175 21.5767 177.841 21.43 177.421 21.43C177.001 21.43 176.668 21.5767 176.421 21.87C176.181 22.1567 176.061 22.53 176.061 22.99V23.02H178.801ZM185.287 25.71C185.32 25.75 185.337 25.7933 185.337 25.84C185.337 25.8867 185.317 25.9267 185.277 25.96C185.244 25.9867 185.197 26 185.137 26H184.527C184.42 26 184.334 25.95 184.267 25.85L182.817 23.76H181.877V25.77C181.877 25.8367 181.854 25.8933 181.807 25.94C181.767 25.98 181.714 26 181.647 26H181.177C181.11 26 181.054 25.98 181.007 25.94C180.967 25.8933 180.947 25.8367 180.947 25.77V21.03C180.947 20.9633 180.967 20.91 181.007 20.87C181.054 20.8233 181.11 20.8 181.177 20.8H181.647C181.714 20.8 181.767 20.8233 181.807 20.87C181.854 20.91 181.877 20.9633 181.877 21.03V22.95H182.797L184.137 20.95C184.217 20.85 184.307 20.8 184.407 20.8H184.927C184.987 20.8 185.037 20.8167 185.077 20.85C185.117 20.8767 185.137 20.9133 185.137 20.96C185.137 20.9933 185.12 21.0333 185.087 21.08L183.597 23.29L185.287 25.71ZM187.758 26.1C187.432 26.1 187.128 26.0333 186.848 25.9C186.568 25.7667 186.345 25.5867 186.178 25.36C186.018 25.1267 185.938 24.87 185.938 24.59C185.938 24.15 186.118 23.79 186.478 23.51C186.845 23.2233 187.338 23.0367 187.958 22.95L189.448 22.74V22.45C189.448 21.77 189.058 21.43 188.278 21.43C187.985 21.43 187.745 21.4933 187.558 21.62C187.372 21.74 187.232 21.8833 187.138 22.05C187.118 22.11 187.092 22.1533 187.058 22.18C187.032 22.2067 186.992 22.22 186.938 22.22H186.508C186.448 22.22 186.395 22.2 186.348 22.16C186.308 22.1133 186.288 22.06 186.288 22C186.295 21.84 186.368 21.66 186.508 21.46C186.655 21.2533 186.878 21.0767 187.178 20.93C187.478 20.7767 187.848 20.7 188.288 20.7C189.035 20.7 189.572 20.8767 189.898 21.23C190.225 21.5767 190.388 22.01 190.388 22.53V25.77C190.388 25.8367 190.365 25.8933 190.318 25.94C190.278 25.98 190.225 26 190.158 26H189.698C189.632 26 189.575 25.98 189.528 25.94C189.488 25.8933 189.468 25.8367 189.468 25.77V25.34C189.322 25.5533 189.108 25.7333 188.828 25.88C188.548 26.0267 188.192 26.1 187.758 26.1ZM187.968 25.35C188.402 25.35 188.755 25.21 189.028 24.93C189.308 24.6433 189.448 24.2333 189.448 23.7V23.42L188.288 23.59C187.815 23.6567 187.458 23.77 187.218 23.93C186.978 24.0833 186.858 24.28 186.858 24.52C186.858 24.7867 186.968 24.9933 187.188 25.14C187.408 25.28 187.668 25.35 187.968 25.35ZM193.416 26C193.349 26 193.293 25.98 193.246 25.94C193.206 25.8933 193.186 25.8367 193.186 25.77V21.6H191.446C191.379 21.6 191.323 21.58 191.276 21.54C191.236 21.4933 191.216 21.4367 191.216 21.37V21.03C191.216 20.9633 191.236 20.91 191.276 20.87C191.323 20.8233 191.379 20.8 191.446 20.8H195.846C195.913 20.8 195.966 20.8233 196.006 20.87C196.053 20.91 196.076 20.9633 196.076 21.03V21.37C196.076 21.4367 196.053 21.4933 196.006 21.54C195.966 21.58 195.913 21.6 195.846 21.6H194.106V25.77C194.106 25.8367 194.086 25.8933 194.046 25.94C194.006 25.98 193.953 26 193.886 26H193.416ZM199.023 26.1C198.336 26.1 197.786 25.89 197.373 25.47C196.966 25.0433 196.743 24.4633 196.703 23.73L196.693 23.39L196.703 23.06C196.75 22.34 196.976 21.7667 197.383 21.34C197.796 20.9133 198.34 20.7 199.013 20.7C199.753 20.7 200.326 20.9367 200.733 21.41C201.14 21.8767 201.343 22.51 201.343 23.31V23.48C201.343 23.5467 201.32 23.6033 201.273 23.65C201.233 23.69 201.18 23.71 201.113 23.71H197.653V23.8C197.673 24.2333 197.803 24.6033 198.043 24.91C198.29 25.21 198.613 25.36 199.013 25.36C199.32 25.36 199.57 25.3 199.763 25.18C199.963 25.0533 200.11 24.9233 200.203 24.79C200.263 24.71 200.306 24.6633 200.333 24.65C200.366 24.63 200.423 24.62 200.503 24.62H200.993C201.053 24.62 201.103 24.6367 201.143 24.67C201.183 24.7033 201.203 24.75 201.203 24.81C201.203 24.9567 201.11 25.1333 200.923 25.34C200.743 25.5467 200.486 25.7267 200.153 25.88C199.826 26.0267 199.45 26.1 199.023 26.1ZM200.393 23.02V22.99C200.393 22.53 200.266 22.1567 200.013 21.87C199.766 21.5767 199.433 21.43 199.013 21.43C198.593 21.43 198.26 21.5767 198.013 21.87C197.773 22.1567 197.653 22.53 197.653 22.99V23.02H200.393ZM202.25 26C202.183 26 202.126 25.9767 202.08 25.93C202.033 25.8833 202.01 25.8267 202.01 25.76V25.39C202.01 25.3233 202.03 25.27 202.07 25.23C202.11 25.19 202.16 25.17 202.22 25.17C202.54 25.1567 202.776 24.93 202.93 24.49C203.09 24.0433 203.17 23.3167 203.17 22.31V21.03C203.17 20.9633 203.19 20.91 203.23 20.87C203.276 20.8233 203.333 20.8 203.4 20.8H206.58C206.646 20.8 206.7 20.8233 206.74 20.87C206.786 20.91 206.81 20.9633 206.81 21.03V25.77C206.81 25.8367 206.786 25.8933 206.74 25.94C206.7 25.98 206.646 26 206.58 26H206.1C206.033 26 205.98 25.98 205.94 25.94C205.9 25.8933 205.88 25.8367 205.88 25.77V21.6H204.08V22.42C204.08 23.6933 203.933 24.61 203.64 25.17C203.346 25.7233 202.883 26 202.25 26ZM208.531 26C208.464 26 208.407 25.98 208.361 25.94C208.321 25.8933 208.301 25.8367 208.301 25.77V21.03C208.301 20.9633 208.321 20.91 208.361 20.87C208.407 20.8233 208.464 20.8 208.531 20.8H209.011C209.077 20.8 209.131 20.8233 209.171 20.87C209.217 20.91 209.241 20.9633 209.241 21.03V22.5H210.361C211.021 22.5 211.511 22.6567 211.831 22.97C212.157 23.2767 212.321 23.7133 212.321 24.28C212.321 24.8667 212.147 25.3 211.801 25.58C211.461 25.86 210.941 26 210.241 26H208.531ZM210.281 25.25C210.687 25.25 210.981 25.1767 211.161 25.03C211.347 24.8833 211.441 24.6333 211.441 24.28C211.441 23.9267 211.347 23.6667 211.161 23.5C210.981 23.3333 210.687 23.25 210.281 23.25H209.231V25.25H210.281ZM213.54 26C213.474 26 213.417 25.98 213.37 25.94C213.33 25.8933 213.31 25.8367 213.31 25.77V21.03C213.31 20.9633 213.33 20.91 213.37 20.87C213.417 20.8233 213.474 20.8 213.54 20.8H214.02C214.087 20.8 214.14 20.8233 214.18 20.87C214.227 20.91 214.25 20.9633 214.25 21.03V22.95H216.97V21.03C216.97 20.9633 216.99 20.91 217.03 20.87C217.077 20.8233 217.134 20.8 217.2 20.8H217.67C217.737 20.8 217.79 20.8233 217.83 20.87C217.877 20.91 217.9 20.9633 217.9 21.03V25.77C217.9 25.8367 217.877 25.8933 217.83 25.94C217.79 25.98 217.737 26 217.67 26H217.2C217.134 26 217.077 25.98 217.03 25.94C216.99 25.8933 216.97 25.8367 216.97 25.77V23.75H214.25V25.77C214.25 25.8367 214.227 25.8933 214.18 25.94C214.14 25.98 214.087 26 214.02 26H213.54ZM219.634 26C219.567 26 219.511 25.98 219.464 25.94C219.424 25.8933 219.404 25.8367 219.404 25.77V21.03C219.404 20.9633 219.424 20.91 219.464 20.87C219.511 20.8233 219.567 20.8 219.634 20.8H220.114C220.181 20.8 220.234 20.8233 220.274 20.87C220.321 20.91 220.344 20.9633 220.344 21.03V22.5H221.384C222.044 22.5 222.534 22.6567 222.854 22.97C223.181 23.2767 223.344 23.7133 223.344 24.28C223.344 24.8667 223.171 25.3 222.824 25.58C222.484 25.86 221.964 26 221.264 26H219.634ZM224.284 26C224.217 26 224.161 25.98 224.114 25.94C224.074 25.8933 224.054 25.8367 224.054 25.77V21.03C224.054 20.9633 224.074 20.91 224.114 20.87C224.161 20.8233 224.217 20.8 224.284 20.8H224.764C224.831 20.8 224.884 20.8233 224.924 20.87C224.971 20.91 224.994 20.9633 224.994 21.03V25.77C224.994 25.8367 224.971 25.8933 224.924 25.94C224.884 25.98 224.831 26 224.764 26H224.284ZM221.294 25.25C221.707 25.25 222.004 25.1767 222.184 25.03C222.371 24.8833 222.464 24.6333 222.464 24.28C222.464 23.9267 222.371 23.6667 222.184 23.5C222.004 23.3333 221.707 23.25 221.294 23.25H220.334V25.25H221.294ZM230.904 20.8C230.957 20.8 231.004 20.82 231.044 20.86C231.091 20.9 231.114 20.9467 231.114 21V25.77C231.114 25.8367 231.091 25.8933 231.044 25.94C231.004 25.98 230.951 26 230.884 26H230.414C230.347 26 230.291 25.98 230.244 25.94C230.204 25.8933 230.184 25.8367 230.184 25.77V22.14L227.414 25.85C227.341 25.95 227.254 26 227.154 26H226.704C226.644 26 226.591 25.98 226.544 25.94C226.504 25.8933 226.484 25.8433 226.484 25.79V21.03C226.484 20.9633 226.504 20.91 226.544 20.87C226.591 20.8233 226.647 20.8 226.714 20.8H227.194C227.261 20.8 227.314 20.8233 227.354 20.87C227.401 20.91 227.424 20.9633 227.424 21.03V24.64L230.184 20.95C230.257 20.85 230.344 20.8 230.444 20.8H230.904ZM228.824 20.11C228.291 20.11 227.907 19.9933 227.674 19.76C227.441 19.5267 227.324 19.2267 227.324 18.86C227.324 18.8067 227.341 18.7633 227.374 18.73C227.407 18.69 227.454 18.67 227.514 18.67H227.854C227.914 18.67 227.961 18.69 227.994 18.73C228.027 18.7633 228.044 18.8067 228.044 18.86C228.044 19.28 228.304 19.49 228.824 19.49C229.344 19.49 229.604 19.28 229.604 18.86C229.604 18.8067 229.621 18.7633 229.654 18.73C229.687 18.69 229.734 18.67 229.794 18.67H230.144C230.204 18.67 230.251 18.69 230.284 18.73C230.317 18.7633 230.334 18.8067 230.334 18.86C230.334 19.22 230.214 19.52 229.974 19.76C229.741 19.9933 229.357 20.11 228.824 20.11ZM108.08 37.71C108.113 37.75 108.13 37.7933 108.13 37.84C108.13 37.8867 108.11 37.9267 108.07 37.96C108.037 37.9867 107.99 38 107.93 38H107.32C107.213 38 107.127 37.95 107.06 37.85L105.61 35.76H104.67V37.77C104.67 37.8367 104.647 37.8933 104.6 37.94C104.56 37.98 104.507 38 104.44 38H103.97C103.903 38 103.847 37.98 103.8 37.94C103.76 37.8933 103.74 37.8367 103.74 37.77V33.03C103.74 32.9633 103.76 32.91 103.8 32.87C103.847 32.8233 103.903 32.8 103.97 32.8H104.44C104.507 32.8 104.56 32.8233 104.6 32.87C104.647 32.91 104.67 32.9633 104.67 33.03V34.95H105.59L106.93 32.95C107.01 32.85 107.1 32.8 107.2 32.8H107.72C107.78 32.8 107.83 32.8167 107.87 32.85C107.91 32.8767 107.93 32.9133 107.93 32.96C107.93 32.9933 107.913 33.0333 107.88 33.08L106.39 35.29L108.08 37.71ZM110.987 38.1C110.254 38.1 109.684 37.8933 109.277 37.48C108.877 37.0667 108.664 36.5167 108.637 35.83L108.627 35.4L108.637 34.97C108.664 34.29 108.881 33.7433 109.287 33.33C109.694 32.91 110.261 32.7 110.987 32.7C111.714 32.7 112.281 32.91 112.687 33.33C113.094 33.7433 113.311 34.29 113.337 34.97C113.344 35.0433 113.347 35.1867 113.347 35.4C113.347 35.6133 113.344 35.7567 113.337 35.83C113.311 36.5167 113.094 37.0667 112.687 37.48C112.287 37.8933 111.721 38.1 110.987 38.1ZM110.987 37.33C111.407 37.33 111.737 37.1967 111.977 36.93C112.224 36.6633 112.357 36.28 112.377 35.78C112.384 35.7133 112.387 35.5867 112.387 35.4C112.387 35.2133 112.384 35.0867 112.377 35.02C112.357 34.52 112.224 34.1367 111.977 33.87C111.737 33.6033 111.407 33.47 110.987 33.47C110.567 33.47 110.234 33.6033 109.987 33.87C109.741 34.1367 109.611 34.52 109.597 35.02L109.587 35.4L109.597 35.78C109.611 36.28 109.741 36.6633 109.987 36.93C110.234 37.1967 110.567 37.33 110.987 37.33ZM119.719 32.8C119.773 32.8 119.819 32.82 119.859 32.86C119.899 32.8933 119.919 32.9367 119.919 32.99V37.78C119.919 37.8467 119.899 37.9 119.859 37.94C119.819 37.98 119.769 38 119.709 38H119.219C119.153 38 119.099 37.98 119.059 37.94C119.019 37.9 118.999 37.8467 118.999 37.78V34.49L117.719 36.91C117.673 36.9967 117.626 37.0633 117.579 37.11C117.539 37.15 117.476 37.17 117.389 37.17H117.129C117.049 37.17 116.986 37.15 116.939 37.11C116.899 37.07 116.853 37.0033 116.799 36.91L115.529 34.55V37.78C115.529 37.8467 115.509 37.9 115.469 37.94C115.429 37.98 115.376 38 115.309 38H114.819C114.753 38 114.699 37.98 114.659 37.94C114.619 37.9 114.599 37.8467 114.599 37.78V32.99C114.599 32.9433 114.619 32.9 114.659 32.86C114.699 32.82 114.746 32.8 114.799 32.8H115.309C115.409 32.8 115.493 32.8533 115.559 32.96L117.259 36.14L118.969 32.96C119.023 32.8533 119.106 32.8 119.219 32.8H119.719ZM121.646 38C121.579 38 121.522 37.98 121.476 37.94C121.436 37.8933 121.416 37.8367 121.416 37.77V33.03C121.416 32.9633 121.436 32.91 121.476 32.87C121.522 32.8233 121.579 32.8 121.646 32.8H125.616C125.682 32.8 125.736 32.8233 125.776 32.87C125.822 32.91 125.846 32.9633 125.846 33.03V37.77C125.846 37.8367 125.822 37.8933 125.776 37.94C125.736 37.98 125.682 38 125.616 38H125.136C125.069 38 125.016 37.98 124.976 37.94C124.936 37.8933 124.916 37.8367 124.916 37.77V33.6H122.356V37.77C122.356 37.8367 122.332 37.8933 122.286 37.94C122.246 37.98 122.192 38 122.126 38H121.646ZM127.084 38C127.017 38 126.96 37.9767 126.914 37.93C126.867 37.8833 126.844 37.8267 126.844 37.76V37.39C126.844 37.3233 126.864 37.27 126.904 37.23C126.944 37.19 126.994 37.17 127.054 37.17C127.374 37.1567 127.61 36.93 127.764 36.49C127.924 36.0433 128.004 35.3167 128.004 34.31V33.03C128.004 32.9633 128.024 32.91 128.064 32.87C128.11 32.8233 128.167 32.8 128.234 32.8H131.414C131.48 32.8 131.534 32.8233 131.574 32.87C131.62 32.91 131.644 32.9633 131.644 33.03V37.77C131.644 37.8367 131.62 37.8933 131.574 37.94C131.534 37.98 131.48 38 131.414 38H130.934C130.867 38 130.814 37.98 130.774 37.94C130.734 37.8933 130.714 37.8367 130.714 37.77V33.6H128.914V34.42C128.914 35.6933 128.767 36.61 128.474 37.17C128.18 37.7233 127.717 38 127.084 38ZM135.215 38.1C134.528 38.1 133.978 37.89 133.565 37.47C133.158 37.0433 132.935 36.4633 132.895 35.73L132.885 35.39L132.895 35.06C132.941 34.34 133.168 33.7667 133.575 33.34C133.988 32.9133 134.531 32.7 135.205 32.7C135.945 32.7 136.518 32.9367 136.925 33.41C137.331 33.8767 137.535 34.51 137.535 35.31V35.48C137.535 35.5467 137.511 35.6033 137.465 35.65C137.425 35.69 137.371 35.71 137.305 35.71H133.845V35.8C133.865 36.2333 133.995 36.6033 134.235 36.91C134.481 37.21 134.805 37.36 135.205 37.36C135.511 37.36 135.761 37.3 135.955 37.18C136.155 37.0533 136.301 36.9233 136.395 36.79C136.455 36.71 136.498 36.6633 136.525 36.65C136.558 36.63 136.615 36.62 136.695 36.62H137.185C137.245 36.62 137.295 36.6367 137.335 36.67C137.375 36.7033 137.395 36.75 137.395 36.81C137.395 36.9567 137.301 37.1333 137.115 37.34C136.935 37.5467 136.678 37.7267 136.345 37.88C136.018 38.0267 135.641 38.1 135.215 38.1ZM136.585 35.02V34.99C136.585 34.53 136.458 34.1567 136.205 33.87C135.958 33.5767 135.625 33.43 135.205 33.43C134.785 33.43 134.451 33.5767 134.205 33.87C133.965 34.1567 133.845 34.53 133.845 34.99V35.02H136.585ZM143.07 37.71C143.104 37.75 143.12 37.7933 143.12 37.84C143.12 37.8867 143.1 37.9267 143.06 37.96C143.027 37.9867 142.98 38 142.92 38H142.31C142.204 38 142.117 37.95 142.05 37.85L140.6 35.76H139.66V37.77C139.66 37.8367 139.637 37.8933 139.59 37.94C139.55 37.98 139.497 38 139.43 38H138.96C138.894 38 138.837 37.98 138.79 37.94C138.75 37.8933 138.73 37.8367 138.73 37.77V33.03C138.73 32.9633 138.75 32.91 138.79 32.87C138.837 32.8233 138.894 32.8 138.96 32.8H139.43C139.497 32.8 139.55 32.8233 139.59 32.87C139.637 32.91 139.66 32.9633 139.66 33.03V34.95H140.58L141.92 32.95C142 32.85 142.09 32.8 142.19 32.8H142.71C142.77 32.8 142.82 32.8167 142.86 32.85C142.9 32.8767 142.92 32.9133 142.92 32.96C142.92 32.9933 142.904 33.0333 142.87 33.08L141.38 35.29L143.07 37.71ZM145.947 38.1C145.234 38.1 144.674 37.9 144.267 37.5C143.867 37.0933 143.654 36.5267 143.627 35.8L143.617 35.4L143.627 35C143.654 34.2733 143.867 33.71 144.267 33.31C144.674 32.9033 145.234 32.7 145.947 32.7C146.427 32.7 146.834 32.7867 147.167 32.96C147.501 33.1333 147.747 33.3467 147.907 33.6C148.074 33.8533 148.164 34.1067 148.177 34.36C148.184 34.4267 148.164 34.48 148.117 34.52C148.071 34.56 148.014 34.58 147.947 34.58H147.467C147.401 34.58 147.351 34.5667 147.317 34.54C147.284 34.5133 147.251 34.46 147.217 34.38C147.104 34.06 146.944 33.8333 146.737 33.7C146.531 33.56 146.271 33.49 145.957 33.49C145.544 33.49 145.214 33.62 144.967 33.88C144.727 34.1333 144.597 34.5233 144.577 35.05L144.567 35.41L144.577 35.75C144.597 36.2833 144.727 36.6767 144.967 36.93C145.207 37.1833 145.537 37.31 145.957 37.31C146.271 37.31 146.531 37.2433 146.737 37.11C146.944 36.97 147.104 36.74 147.217 36.42C147.251 36.34 147.284 36.2867 147.317 36.26C147.351 36.2267 147.401 36.21 147.467 36.21H147.947C148.014 36.21 148.071 36.2333 148.117 36.28C148.164 36.32 148.184 36.3733 148.177 36.44C148.164 36.6867 148.074 36.94 147.907 37.2C147.747 37.4533 147.501 37.6667 147.167 37.84C146.841 38.0133 146.434 38.1 145.947 38.1Z" fill="#191919"/>
<rect x="82" y="1" width="1" height="40" fill="#191919"/>
</svg>
