<svg width="1236" height="565" viewBox="0 0 1236 565" fill="none" xmlns="http://www.w3.org/2000/svg">
<path d="M1 1.00003H136.371H182.93V52.6191L171.975 79.5199L182.05 86.4271V169.19H136.371V197.787H1V1.00003Z" fill="#E7E7E7" stroke="white" stroke-miterlimit="22.9256"/>
<path d="M91.9658 197.787H137.114L136.371 169.19H182.05V332.903H91.9658V197.787Z" fill="#E7E7E7" stroke="white" stroke-miterlimit="22.9256"/>
<path d="M1 197.787H91.9654V332.903H484.777V479.913V499.681V500.513H522.999V561.101H457.856V525.475H412.952V528.627V561.101H367.666V528.627H304.185L303.889 560.36L283.743 535.898L284.033 528.627V499.37V497.641V488.398H270.387V471.075H229.795V499.286L200.574 499.241L201.726 561.147L180.806 561.065L159.032 536.27L137.889 564.176L114.718 536.121L92.5574 562.827L70.1679 536.22L47.7053 562.827L13.8171 520.765C10.0865 516.134 34.551 499.681 29.2685 499.681V384.261H1V380.272V332.903V323.436H31.0288V255.336H1V197.787Z" fill="#E7E7E7" stroke="white" stroke-miterlimit="22.9256"/>
<path d="M182.05 281.307H227.337V332.903H182.05V281.307Z" fill="#E7E7E7" stroke="white" stroke-miterlimit="22.9256"/>
<path d="M227.336 281.307H272.623V332.903H227.336V281.307Z" fill="#E7E7E7" stroke="white" stroke-miterlimit="22.9256"/>
<path d="M272.623 281.307H323.172V332.903H272.623V281.307Z" fill="#E7E7E7" stroke="white" stroke-miterlimit="22.9256"/>
<path d="M323.172 281.307H352.27V332.903H323.172V281.307Z" fill="#E7E7E7" stroke="white" stroke-miterlimit="22.9256"/>
<path d="M352.27 281.307H406.753V332.903H352.27V281.307Z" fill="#E7E7E7" stroke="white" stroke-miterlimit="22.9256"/>
<path d="M406.753 281.307H455.903V332.903H406.753V281.307Z" fill="#E7E7E7" stroke="white" stroke-miterlimit="22.9256"/>
<path d="M455.903 281.307H479.086C482.339 281.307 485.001 284.604 485.001 288.634V332.903H455.903V281.307Z" fill="#E7E7E7" stroke="white" stroke-miterlimit="22.9256"/>
<path d="M259.847 225.376H232.22C228.344 225.376 225.172 221.447 225.172 216.644V181.54H259.847V225.376Z" fill="#E7E7E7" stroke="white" stroke-miterlimit="22.9256"/>
<path d="M294.522 225.376H259.847V181.207H294.522V225.376Z" fill="#E7E7E7" stroke="white" stroke-miterlimit="22.9256"/>
<path d="M325.526 225.71H294.571V181.541H325.526V225.71Z" fill="#E7E7E7" stroke="white" stroke-miterlimit="22.9256"/>
<path d="M368.955 225.71H325.795V181.541H368.955V225.71Z" fill="#E7E7E7" stroke="white" stroke-miterlimit="22.9256"/>
<path d="M411.845 225.71H368.686V181.541H411.845V225.71Z" fill="#E7E7E7" stroke="white" stroke-miterlimit="22.9256"/>
<path d="M475.306 225.71H411.846V181.541H457.005V208.612H486.544V211.787C486.544 219.445 481.488 225.71 475.306 225.71V225.71Z" fill="#E7E7E7" stroke="white" stroke-miterlimit="22.9256"/>
<path d="M270.283 139.696H231.983C228.237 139.696 225.172 143.492 225.172 148.134V181.207H270.283V139.696Z" fill="#E7E7E7" stroke="white" stroke-miterlimit="22.9256"/>
<path d="M325.796 181.541H270.015V139.696H325.796V181.541Z" fill="#E7E7E7" stroke="white" stroke-miterlimit="22.9256"/>
<path d="M370.246 181.541H325.795V139.696H370.246V181.541Z" fill="#E7E7E7" stroke="white" stroke-miterlimit="22.9256"/>
<path d="M392.471 181.541H370.246V139.696H392.471V181.541Z" fill="#E7E7E7" stroke="white" stroke-miterlimit="22.9256"/>
<path d="M414.697 181.541H392.471V139.696H414.697V181.541Z" fill="#E7E7E7" stroke="white" stroke-miterlimit="22.9256"/>
<path d="M457.006 181.541H414.697V139.696H444.687V172.098H457.006V181.541Z" fill="#E7E7E7" stroke="white" stroke-miterlimit="22.9256"/>
<path d="M457.005 139.696H480.54C483.843 139.696 486.544 143.042 486.544 147.134V208.612H457.005V139.696Z" fill="#E7E7E7" stroke="white" stroke-miterlimit="22.9256"/>
<path d="M227.336 1.00004H368.458V61.3956H331.186V80.0586H322.068V89.9919H227.336L197.961 39.5848H227.336V1.00004Z" fill="#E7E7E7" stroke="white" stroke-miterlimit="22.9256"/>
<path d="M412.91 89.9919H368.459V34.9808H412.91V89.9919Z" fill="#E7E7E7" stroke="white" stroke-miterlimit="22.9256"/>
<path d="M452.182 89.9919H412.555V34.9808H452.182V89.9919Z" fill="#E7E7E7" stroke="white" stroke-miterlimit="22.9256"/>
<path d="M452.182 89.9919H466.885C474.509 89.9919 480.746 82.265 480.746 72.8202V1.00004H412.555V34.9808H452.182V89.9919Z" fill="#E7E7E7" stroke="white" stroke-miterlimit="22.9256"/>
<path d="M597.73 89.9919H583.027C575.403 89.9919 569.166 82.265 569.166 72.8202V1.00004H597.73V34.9808V86.7283V89.9919Z" fill="#E7E7E7" stroke="white" stroke-miterlimit="22.9256"/>
<path d="M637.357 89.9919H597.73V1.00004H637.357V89.9919Z" fill="#E7E7E7" stroke="white" stroke-miterlimit="22.9256"/>
<path d="M681.645 89.9919H637.357V36.324H681.645V89.9919Z" fill="#E7E7E7" stroke="white" stroke-miterlimit="22.9256"/>
<path d="M728.973 89.9919H681.645V1.00004H728.973V89.9919Z" fill="#E7E7E7" stroke="white" stroke-miterlimit="22.9256"/>
<path d="M778.465 89.9919H728.973V43.8413H778.465V89.9919Z" fill="#E7E7E7" stroke="white" stroke-miterlimit="22.9256"/>
<path d="M823.358 89.9919H778.465V43.8413H728.973V1.00004H823.358V89.9919Z" fill="#E7E7E7" stroke="white" stroke-miterlimit="22.9256"/>
<path d="M867.665 89.9919H823.358V1.00004H867.665V89.9919Z" fill="#E7E7E7" stroke="white" stroke-miterlimit="22.9256"/>
<path d="M918.62 89.9919H867.665V1.00004H918.62V89.9919Z" fill="#E7E7E7" stroke="white" stroke-miterlimit="22.9256"/>
<path d="M909.816 89.9919H867.665V75.2977H909.816V89.9919Z" fill="#E7E7E7" stroke="white" stroke-miterlimit="22.9256"/>
<path d="M1011.05 99.5393H972.705V72.1548H954.71V38.1485H1011.05V99.5393Z" fill="#E7E7E7" stroke="white" stroke-miterlimit="22.9256"/>
<path d="M954.71 99.5393H972.705V72.1548H954.71V99.5393Z" fill="#E7E7E7" stroke="white" stroke-miterlimit="22.9256"/>
<path d="M1142.21 149.167H1119.76L1097.9 124.993V1.00001H1142.21V149.167Z" fill="#E7E7E7" stroke="white" stroke-miterlimit="22.9256"/>
<path d="M963.707 173.458H1097.9L1119.76 149.167L1097.9 124.993V1.00003H1011.05V99.5393H963.707V173.458Z" fill="#E7E7E7" stroke="white" stroke-miterlimit="22.9256"/>
<path d="M1187.19 173.458H1142.21L1119.76 149.167H1142.21V1.00003H1187.19V173.458Z" fill="#E7E7E7" stroke="white" stroke-miterlimit="22.9256"/>
<path d="M1235 173.458H1187.19V1.00003H1235V87.2293H1211.09V113.074H1220.52V159.85H1235V173.458Z" fill="#E7E7E7" stroke="white" stroke-miterlimit="22.9256"/>
<path d="M868.59 254.859H824.283V134.408H868.59V254.859Z" fill="#E7E7E7" stroke="white" stroke-miterlimit="22.9256"/>
<path d="M824.283 254.859H777.477V134.408H824.283V254.859Z" fill="#E7E7E7" stroke="white" stroke-miterlimit="22.9256"/>
<path d="M777.476 254.859H728.973V134.408H777.476V254.859Z" fill="#E7E7E7" stroke="white" stroke-miterlimit="22.9256"/>
<path d="M959.209 173.458L892.789 254.859H868.59V134.408H963.707V173.458H959.209Z" fill="#E7E7E7" stroke="white" stroke-miterlimit="22.9256"/>
<path d="M728.973 254.859H571.576C565.068 254.859 559.746 248.264 559.746 240.202V154.352C559.746 146.29 565.068 139.696 571.576 139.696H728.973V254.859Z" fill="#E7E7E7" stroke="white" stroke-miterlimit="22.9256"/>
<path d="M636.218 338.887H569.166V295.962C569.166 287.901 574.49 281.307 580.997 281.307H671.041V325.909H636.218V338.887Z" fill="#E7E7E7" stroke="white" stroke-miterlimit="22.9256"/>
<path d="M636.218 325.909H671.041V338.887H636.218V325.909Z" fill="#E7E7E7" stroke="white" stroke-miterlimit="22.9256"/>
<path d="M569.166 338.887H671.041V348.016H728.973V416.932H632.303V390.484H569.166V338.887Z" fill="#E7E7E7" stroke="white" stroke-miterlimit="22.9256"/>
<path d="M569.166 390.484H632.303V416.932H569.166V390.484Z" fill="#E7E7E7" stroke="white" stroke-miterlimit="22.9256"/>
<path d="M569.167 419.086H657.183V480.4H569.167V419.086Z" fill="#E7E7E7" stroke="white" stroke-miterlimit="22.9256"/>
<path d="M569.167 480.4H657.183V541.714H636.933V525.475H591.548V505.118H569.167V480.4Z" fill="#E7E7E7" stroke="white" stroke-miterlimit="22.9256"/>
<path d="M591.548 505.118H569.167V513.839H562.196V561.101H591.548V505.118Z" fill="#E7E7E7" stroke="white" stroke-miterlimit="22.9256"/>
</svg>
