<svg width="353" height="142" viewBox="0 0 353 142" fill="none" xmlns="http://www.w3.org/2000/svg">
<path fill-rule="evenodd" clip-rule="evenodd" d="M71.4565 141.998L70.8721 142C31.7301 142 0 110.213 0 71C0 31.787 31.7301 0 70.8721 0L71.5093 0.00222014H282.765C321.639 0.316355 353 31.9824 353 70.9995C353 110.017 321.585 141.683 282.712 141.997H71.4565V141.998Z" fill="#ED1C24"/>
<path fill-rule="evenodd" clip-rule="evenodd" d="M242.082 44.8792H243.656V38.9228C243.656 38.2019 244.341 36.4814 246.212 36.4814C247.619 36.4814 248.008 37.3694 248.008 38.6087V44.8798H249.582V38.9228C249.582 37.4432 250.563 36.4814 252.081 36.4814C253.619 36.4814 253.933 37.4249 253.933 38.6087V44.8798H255.507V37.8683C255.507 35.8892 254.229 35.0933 252.322 35.0933C251.101 35.0933 249.971 35.7038 249.323 36.7217C248.934 35.5562 247.86 35.0933 246.694 35.0933C245.379 35.0933 244.305 35.6483 243.601 36.7217H243.564V35.3158H242.083V44.8792H242.082Z" fill="white"/>
<path fill-rule="evenodd" clip-rule="evenodd" d="M266.223 35.3158H264.575L261.965 43.2885H261.928L259.243 35.3158H257.484L261.039 44.8792H262.724L266.223 35.3158Z" fill="white"/>
<path fill-rule="evenodd" clip-rule="evenodd" d="M268.3 44.8792H269.873V35.3159H268.3V44.8792ZM269.873 31.6711H268.3V33.5948H269.873V31.6711Z" fill="white"/>
<path fill-rule="evenodd" clip-rule="evenodd" d="M281.403 31.6711H279.829V36.5918H279.792C279.088 35.4635 277.681 35.0933 276.701 35.0933C273.776 35.0933 272.331 37.3688 272.331 40.0695C272.331 42.7702 273.794 45.1006 276.738 45.1006C278.053 45.1006 279.274 44.6383 279.793 43.5838H279.83V44.8786H281.403V31.6711H281.403ZM273.997 40.1805C273.997 38.3123 274.719 36.4808 276.867 36.4808C279.032 36.4808 279.885 38.2197 279.885 40.1067C279.885 41.901 279.07 43.7142 276.959 43.7142C274.923 43.7142 273.997 41.9754 273.997 40.1805Z" fill="white"/>
<path fill-rule="evenodd" clip-rule="evenodd" d="M290.972 41.8455C290.695 43.0849 289.788 43.7142 288.491 43.7142C286.399 43.7142 285.455 42.234 285.511 40.569H292.675C292.768 38.2568 291.732 35.0933 288.343 35.0933C285.733 35.0933 283.844 37.2023 283.844 40.0695C283.936 42.9922 285.381 45.1006 288.436 45.1006C290.583 45.1006 292.102 43.954 292.527 41.845H290.972V41.8455ZM285.511 39.182C285.622 37.7207 286.603 36.4814 288.251 36.4814C289.807 36.4814 290.936 37.6835 291.01 39.182H285.511Z" fill="white"/>
<path fill-rule="evenodd" clip-rule="evenodd" d="M295.062 40.1067C295.062 42.9 296.673 45.1012 299.708 45.1012C302.745 45.1012 304.355 42.9 304.355 40.1067C304.355 37.295 302.745 35.0933 299.708 35.0933C296.673 35.0933 295.062 37.295 295.062 40.1067ZM296.728 40.1067C296.728 37.7756 298.061 36.4808 299.708 36.4808C301.356 36.4808 302.689 37.7756 302.689 40.1067C302.689 42.4194 301.356 43.7142 299.708 43.7142C298.061 43.7142 296.728 42.4194 296.728 40.1067Z" fill="white"/>
<path d="M309.151 42.8262H307.096V44.8792H309.151V42.8262Z" fill="white"/>
<path fill-rule="evenodd" clip-rule="evenodd" d="M312.37 44.8792H313.944V40.6245C313.944 38.2014 314.869 36.7583 317.405 36.7583V35.0933C315.702 35.0378 314.647 35.7965 313.888 37.3317H313.851V35.3153H312.37V44.8792Z" fill="white"/>
<path fill-rule="evenodd" clip-rule="evenodd" d="M327.603 35.3158H326.028V40.7172C326.028 42.4377 325.103 43.7142 323.196 43.7142C321.992 43.7142 321.252 42.9555 321.252 41.79V35.3158H319.678V41.6052C319.678 43.6587 320.456 45.1012 322.974 45.1012C324.344 45.1012 325.417 44.5462 326.084 43.3624H326.121V44.8792H327.603V35.3158Z" fill="white"/>
<path d="M130.293 31.4461H131.21L132.615 33.665H133.467L132.002 31.3889C132.796 31.329 133.345 30.9094 133.345 30.0097C133.345 28.9913 132.736 28.5129 131.515 28.5129H129.502V33.665H130.294V31.4461H130.293ZM130.293 29.1711H131.392C131.942 29.1711 132.552 29.291 132.552 29.9509C132.552 30.729 131.942 30.789 131.27 30.789H130.293V29.1711H130.293Z" fill="white"/>
<path d="M131.27 35.6424C133.71 35.6424 135.847 33.6649 135.847 31.088C135.847 28.5123 133.71 26.6535 131.27 26.6535C128.769 26.6535 126.572 28.5123 126.572 31.088C126.572 33.6644 128.769 35.6424 131.27 35.6424ZM131.27 27.3734C133.344 27.3734 134.932 28.9907 134.932 31.088C134.932 33.2459 133.344 34.8033 131.27 34.8033C129.194 34.8033 127.549 33.2454 127.549 31.088C127.549 28.9907 129.194 27.3734 131.27 27.3734Z" fill="white"/>
<path d="M125.616 96.6723C125.616 99.3986 123.402 101.61 120.675 101.61C117.947 101.61 115.737 99.3986 115.737 96.6723C115.737 93.9472 117.947 91.74 120.675 91.74C123.402 91.74 125.616 93.9472 125.616 96.6723Z" fill="white"/>
<path d="M186.865 36.7842C179.582 32.7304 147.179 41.8964 136.782 76.8957C135.558 77.2315 129.677 78.7589 129.677 78.7589L127.107 85.676L136.224 82.8976C136.224 82.8976 135.224 99.6766 150.513 100.178C162.519 99.7299 168.798 82.6745 164.953 70.6758C164.221 71.0626 154.627 75.6742 154.627 75.6742C154.627 75.6742 156.849 88.8428 151.513 90.4546C149.786 90.6755 147.758 85.404 149.617 77.5074C175.122 64.2588 191.292 39.2667 186.865 36.7842ZM176.694 44.7841C181.583 44.3434 158.073 69.3415 152.066 70.5625C150.122 69.4531 166.964 47.1739 176.694 44.7841Z" fill="white"/>
<path d="M172.857 68.7316V73.6745C172.857 73.6745 179.361 69.4532 179.861 70.2318C180.026 72.453 171.804 91.2333 171.635 94.0644C171.468 95.7877 173.08 102.289 180.692 98.8991C184.421 97.2896 194.413 89.106 194.413 89.106C194.413 89.106 192.803 93.2813 193.486 96.6191C194.163 99.9581 198.31 100.837 202.047 99.4547C205.785 98.0694 210.054 95.2305 211.892 93.0094C211.613 92.2851 210.556 88.9528 210.556 88.9528C210.556 88.9528 207.206 92.1114 206.381 91.6996C205.553 91.2855 215.893 61.0098 215.893 61.0098C215.893 61.0098 205.291 60.5997 204.234 60.5997C202.487 68.5529 192.588 88.7297 185.757 89.6199C183.416 89.4529 194.038 65.7862 194.431 63.1183C195.208 59.6173 192.588 58.0078 189.479 58.7298C186.201 59.8426 172.857 68.7316 172.857 68.7316Z" fill="white"/>
<path d="M245.701 60.2627C245.701 60.2627 244.416 63.4307 244.176 63.9768C242.835 61.6635 238.197 57.1557 228.621 63.126C218.626 69.5835 214.356 80.6115 215.701 92.3061C217.163 101.993 227.649 103.147 234.72 94.923C233.991 97.0586 226.489 120.086 226.489 120.086L238.135 120.146L257.164 60.5052L245.701 60.2627ZM232.933 89.0759C231.288 89.9878 228.729 91.5086 228.366 85.722C228.181 78.9004 233.677 71.2741 234.727 70.0786C237.47 66.9727 240.892 66.9156 240.805 71.8341C240.443 77.4974 236.777 86.4524 232.933 89.0759Z" fill="white"/>
<path d="M58.6869 99.3942C52.8632 93.2458 57.3925 81.9264 58.3691 71.8996C57.0714 73.195 44.1201 103.274 32.465 101.974C22.1059 98.7481 23.4003 87.0996 26.6374 78.3682H43.4702C38.2909 92.597 45.4129 86.7766 50.2705 77.7222C59.9829 57.9928 60.6313 56.3766 71.3153 26.617C77.4657 26.617 83.6149 26.617 89.7697 26.617C84.2666 43.4377 79.084 59.9331 76.8213 77.3981C76.8213 78.0441 77.1429 78.6912 77.7912 78.3682C81.6733 77.7222 103.043 29.8555 104.984 26.617C110.49 26.617 116.965 26.617 122.788 26.617C122.788 28.2343 103.043 82.2488 106.28 87.4226C107.901 90.3331 110.169 84.8374 112.108 82.5708L115.024 85.4834C109.197 91.9548 102.4 103.594 92.6858 101.656C91.3897 101.332 90.0947 100.689 89.1259 99.7155C79.0845 90.9841 97.2162 59.4169 95.2762 57.3451C94.6729 57.4122 94.069 59.0168 93.0069 61.2251C87.5009 72.5473 74.8813 102.302 64.5145 102.302C62.899 102.302 59.6568 100.688 58.6869 99.3942Z" fill="white"/>
<path d="M268.453 90.5217C290.036 79.1896 295.218 64.8137 288.574 60.7921C278.753 55.3092 251.867 65.1173 254.916 91.9853C253.569 92.7756 250.762 94.2997 250.762 94.2997L252.718 99.6599C252.718 99.6599 256.68 97.2862 257.703 96.5769C271.44 107.703 286.513 89.4594 286.513 89.4594L283.877 85.404C283.877 85.404 272.47 96.3665 268.453 90.5217ZM271.315 74.0718C274.424 68.5889 279.428 64.3253 281.866 66.0314C284.304 67.7381 279.364 76.3873 267.738 85.5783C267.273 84.7774 268.204 79.5559 271.315 74.0718Z" fill="white"/>
<path d="M303.821 61.2179L316.322 60.8538C316.322 60.8538 298.762 74.6963 301.321 87.7801C303.339 95.7333 310.768 91.8594 314.857 82.8455C315.645 81.0783 320.588 69.0768 317.477 69.0768C314.367 69.0768 311.12 75.2302 311.12 75.2302L307.718 71.8191C307.718 71.8191 314.609 62.0088 322.455 59.3825C323.393 59.0872 329.059 57.9306 329.123 66.0309C329.371 69.8078 325.288 90.5229 311.08 97.8313C298.046 104.527 292.328 96.5087 291.297 94.1155C284.156 76.4068 303.821 61.2179 303.821 61.2179Z" fill="white"/>
</svg>
