<?xml version="1.0" encoding="utf-8"?>
<svg xmlns="http://www.w3.org/2000/svg" xmlns:xlink="http://www.w3.org/1999/xlink">
  <symbol fill="none" viewBox="0 0 24 24" id="angle-arrow-down">
    <path d="M6 9l6 6 6-6" stroke-width="2" stroke-linecap="round" stroke-linejoin="round"></path>
  </symbol>
  <symbol fill="none" viewBox="0 0 24 24" id="arrow-next">
    <path d="M4 12h16m-6-6l6 6-6 6" stroke-width="2" stroke-linecap="round" stroke-linejoin="round"></path>
  </symbol>
  <symbol fill="none" viewBox="0 0 24 24" id="arrow-prev">
    <path d="M20 12H4m6 6l-6-6 6-6" stroke-width="2" stroke-linecap="round" stroke-linejoin="round"></path>
  </symbol>
  <symbol stroke="none" viewBox="0 0 52 40" id="c-ic-1">
    <path d="M45.64 3.415h-7.898a1.184 1.184 0 00-.842.35l-13.868 13.99v-2.29a5.21 5.21 0 00-1.502-3.71 5.186 5.186 0 00-3.685-1.54 5.176 5.176 0 00-3.686 1.54 5.2 5.2 0 00-1.501 3.71v11.7H6.352a6.395 6.395 0 00-4.494 1.897 6.426 6.426 0 000 9.04A6.395 6.395 0 006.352 40h7.898c.297 0 .583-.111.801-.312l25.684-23.54h4.905a6.335 6.335 0 004.497-1.862A6.367 6.367 0 0052 9.78a6.38 6.38 0 00-1.863-4.505 6.349 6.349 0 00-4.497-1.861zm-30.608 12.05a2.797 2.797 0 011.686-2.644c.34-.146.706-.223 1.077-.226.759 0 1.486.303 2.023.841.537.538.838 1.268.84 2.028v4.689l-3.8 3.86-1.826 1.853V15.464zm30.608-1.698h-5.367c-.297 0-.582.111-.801.312L13.789 37.62H6.352a3.976 3.976 0 01-2.81-1.168 3.995 3.995 0 01-1.167-2.818 4.048 4.048 0 011.146-2.868 4.028 4.028 0 012.831-1.22h7.898a1.185 1.185 0 00.845-.354L38.236 5.796h7.404a3.969 3.969 0 012.816 1.165 3.987 3.987 0 01.864 4.348 3.988 3.988 0 01-2.156 2.158c-.483.2-1.001.302-1.524.301zM17.844 9.21c.908 0 1.796-.27 2.552-.776a4.615 4.615 0 00.697-7.085A4.59 4.59 0 0016.086.35a4.596 4.596 0 00-2.062 1.696 4.613 4.613 0 00.573 5.813 4.594 4.594 0 003.247 1.351zm0-6.83a2.215 2.215 0 012.05 1.373 2.23 2.23 0 01-.48 2.425 2.219 2.219 0 01-3.79-1.573 2.23 2.23 0 01.651-1.572 2.22 2.22 0 011.569-.653zm25.121 24.19H37.57a1.186 1.186 0 00-1.187 1.19 1.191 1.191 0 001.187 1.19h2.864l-8.688 8.707a1.19 1.19 0 001.294 1.941 1.18 1.18 0 00.385-.258l8.353-8.372v2.2a1.191 1.191 0 001.187 1.19 1.186 1.186 0 001.187-1.19v-5.409a1.194 1.194 0 00-.733-1.1 1.185 1.185 0 00-.454-.09z"></path>
  </symbol>
  <symbol stroke="none" viewBox="0 0 40 40" id="c-ic-2">
    <path d="M38.948 0H1.052C.472 0 0 .472 0 1.052v37.896C0 39.528.472 40 1.052 40h37.896c.58 0 1.052-.472 1.052-1.052V1.052C40 .472 39.529 0 38.948 0zM11.106 37.894V9.128h7.842v28.766h-7.842zm9.946 0V9.128h7.843v28.766h-7.843zm16.842 0H31V8.075c0-.58-.472-1.052-1.052-1.052H10.053C9.472 7.023 9 7.494 9 8.075v29.82H2.105V2.104h35.79v35.79z"></path>
    <path d="M32.79 22.654h3.321a.658.658 0 00.414-1.17l-1.61-1.61a.657.657 0 00-.932 0l-1.658 1.657a.655.655 0 00-.142.716.657.657 0 00.608.407zm1.194 4.496a.66.66 0 00.93 0l1.658-1.658a.658.658 0 00-.465-1.122H32.79a.657.657 0 00-.466 1.122l1.659 1.659z"></path>
  </symbol>
  <symbol stroke="none" viewBox="0 0 55 40" id="c-ic-3">
    <path d="M29.698 40c-4.474 0-8.1-3.582-8.1-8s3.626-8 8.1-8 8.1 3.582 8.1 8-3.627 8-8.1 8zm0-2.667c2.982 0 5.4-2.387 5.4-5.333 0-2.945-2.418-5.333-5.4-5.333-2.983 0-5.4 2.387-5.4 5.333s2.417 5.333 5.4 5.333zM5.4 40C2.418 40 0 37.612 0 34.667c0-2.946 2.418-5.334 5.4-5.334 2.983 0 5.4 2.388 5.4 5.334C10.8 37.612 8.383 40 5.4 40zm0-2.667c1.491 0 2.7-1.194 2.7-2.666C8.1 33.194 6.891 32 5.4 32s-2.7 1.194-2.7 2.667c0 1.472 1.209 2.666 2.7 2.666zM40.5 32h12.151c.746 0 1.35.597 1.35 1.333 0 .737-.604 1.334-1.35 1.334h-13.5c-.746 0-1.35-.597-1.35-1.334v-32A1.34 1.34 0 0139.15 0c.745 0 1.35.597 1.35 1.333V32z"></path>
    <path d="M9.452 37.333c-.746 0-1.35-.597-1.35-1.333s.604-1.334 1.35-1.334h14.85c.746 0 1.35.598 1.35 1.334 0 .736-.604 1.333-1.35 1.333H9.452zm-1.644-16L5.363 30.99a1.351 1.351 0 01-1.637.97 1.332 1.332 0 01-.982-1.617l2.7-10.666c.15-.594.69-1.01 1.31-1.01h8.1c.58 0 1.097.367 1.28.911l2.393 7.088h5.777c.746 0 1.35.598 1.35 1.334 0 .736-.604 1.333-1.35 1.333h-6.75a1.349 1.349 0 01-1.28-.911l-2.393-7.089H7.808z"></path>
    <path d="M16.022 2.667l-2.535 17.522a1.347 1.347 0 01-1.527 1.13 1.336 1.336 0 01-1.146-1.508l2.7-18.666A1.345 1.345 0 0114.852 0h13.5c.66 0 1.224.471 1.332 1.114l4.05 24a1.335 1.335 0 01-1.11 1.534 1.348 1.348 0 01-1.553-1.096L27.208 2.667H16.022z"></path>
    <path d="M29.303 24.39l-1.91 1.886-4.05-4 1.91-1.885 4.05 4z"></path>
    <path d="M23.902 23.61c-.527.52-1.382.52-1.909 0a1.322 1.322 0 010-1.886l2.7-2.667a1.362 1.362 0 011.91 0c.527.52.527 1.365 0 1.886l-2.7 2.666z"></path>
  </symbol>
  <symbol fill="none" viewBox="0 0 24 24" id="clock">
    <path clip-rule="evenodd" d="M12 22c5.523 0 10-4.477 10-10S17.523 2 12 2 2 6.477 2 12s4.477 10 10 10z" stroke-width="2" stroke-linecap="round" stroke-linejoin="round"></path>
    <path d="M12 6v6l3 3" stroke-width="2" stroke-linecap="round" stroke-linejoin="round"></path>
  </symbol>
  <symbol fill="none" viewBox="0 0 24 24" id="close">
    <path d="M18 6L6 18M6 6l12 12" stroke-width="2" stroke-linecap="round" stroke-linejoin="round"></path>
  </symbol>
  <symbol fill="none" viewBox="0 0 18 18" id="link">
    <path d="M7.5 9.75a3.75 3.75 0 005.655.405l2.25-2.25a3.75 3.75 0 00-5.303-5.302l-1.29 1.282" stroke-width="2" stroke-linecap="round" stroke-linejoin="round"></path>
    <path d="M10.5 8.25a3.75 3.75 0 00-5.655-.405l-2.25 2.25a3.75 3.75 0 005.302 5.303l1.283-1.283" stroke-width="2" stroke-linecap="round" stroke-linejoin="round"></path>
  </symbol>
  <symbol fill="none" viewBox="0 0 20 18" id="map">
    <g stroke-linecap="round" stroke-linejoin="round" stroke-width="2">
      <path clip-rule="evenodd" d="M1.75 4.5v12l5.25-3 6 3 5.25-3v-12L13 4.5l-6-3z"></path>
      <path d="M7 1.5v12m6-9v12"></path>
    </g>
  </symbol>
  <symbol fill="none" viewBox="0 0 24 24" id="maximize">
    <path d="M15 3h6v6M9 21H3v-6M21 3l-7 7M3 21l7-7" stroke-width="2" stroke-linecap="round" stroke-linejoin="round"></path>
  </symbol>
  <symbol fill="none" viewBox="0 0 24 24" id="menu">
    <path d="M3 12h18M3 6h18M3 18h18" stroke-width="2" stroke-linecap="round" stroke-linejoin="round"></path>
  </symbol>
  <symbol stroke="none" viewBox="0 0 24 24" id="minus">
    <path fill-rule="evenodd" clip-rule="evenodd" d="M3.999 12a1 1 0 011-1h14a1 1 0 110 2h-14a1 1 0 01-1-1z"></path>
  </symbol>
  <symbol fill="none" viewBox="0 0 24 24" id="navigation">
    <path clip-rule="evenodd" d="M2 12l19-9-9 19-2-8-8-2z" stroke-width="2" stroke-linecap="round" stroke-linejoin="round"></path>
  </symbol>
  <symbol stroke="none" viewBox="0 0 24 24" id="plus">
    <path fill-rule="evenodd" clip-rule="evenodd" d="M12.001 4a1 1 0 011 1v14a1 1 0 11-2 0V5a1 1 0 011-1z"></path>
    <path fill-rule="evenodd" clip-rule="evenodd" d="M3.999 12a1 1 0 011-1h14a1 1 0 110 2h-14a1 1 0 01-1-1z"></path>
  </symbol>
  <symbol fill="none" viewBox="0 0 24 24" id="search">
    <path clip-rule="evenodd" d="M10.5 18a7.5 7.5 0 100-15 7.5 7.5 0 000 15z" stroke-width="2" stroke-linecap="round" stroke-linejoin="round"></path>
    <path d="M21 21l-5.2-5.2" stroke-width="2" stroke-linecap="round" stroke-linejoin="round"></path>
  </symbol>

  <symbol fill="none" viewBox="0 0 40 40" id="spinner">
    <path opacity=".2" fill-rule="evenodd" clip-rule="evenodd" d="M20 1.667c.921 0 1.667.746 1.667 1.666V10a1.667 1.667 0 11-3.333 0V3.333c0-.92.746-1.666 1.667-1.666z" fill="#191919"></path>
    <path opacity=".6" fill-rule="evenodd" clip-rule="evenodd" d="M20 28.333c.921 0 1.667.747 1.667 1.667v6.667a1.667 1.667 0 11-3.333 0V30c0-.92.746-1.667 1.667-1.667z" fill="#191919"></path>
    <path fill-rule="evenodd" clip-rule="evenodd" d="M7.037 7.038c.65-.65 1.706-.65 2.357 0l4.717 4.717a1.667 1.667 0 01-2.357 2.357L7.037 9.395a1.667 1.667 0 010-2.357z" fill="#191919"></path>
    <path opacity=".4" fill-rule="evenodd" clip-rule="evenodd" d="M25.889 25.888c.65-.65 1.706-.65 2.357 0l4.716 4.717a1.667 1.667 0 11-2.357 2.357l-4.716-4.717a1.667 1.667 0 010-2.357z" fill="#191919"></path>
    <path opacity=".8" fill-rule="evenodd" clip-rule="evenodd" d="M1.666 20c0-.92.746-1.667 1.667-1.667h6.666a1.667 1.667 0 010 3.334H3.333c-.92 0-1.667-.747-1.667-1.667z" fill="#191919"></path>
    <path opacity=".4" fill-rule="evenodd" clip-rule="evenodd" d="M28.334 20c0-.92.746-1.667 1.667-1.667h6.666a1.667 1.667 0 110 3.334h-6.666c-.92 0-1.667-.747-1.667-1.667z" fill="#191919"></path>
    <path opacity=".6" fill-rule="evenodd" clip-rule="evenodd" d="M14.11 25.888a1.665 1.665 0 010 2.357l-4.716 4.717a1.667 1.667 0 11-2.357-2.357l4.717-4.717c.65-.65 1.706-.65 2.357 0z" fill="#191919"></path>
    <path opacity=".2" fill-rule="evenodd" clip-rule="evenodd" d="M32.962 7.038a1.666 1.666 0 010 2.357l-4.716 4.717a1.667 1.667 0 01-2.357-2.357l4.716-4.717a1.668 1.668 0 012.357 0z" fill="#191919"></path>
  </symbol>

  <symbol stroke="none" viewBox="0 0 40 40" id="control-inf-1">
    <path d="M13.09 12.938a1.138 1.138 0 00-.91-.44H6.455c-.36 0-.7.163-.908.44-2.013 2.68-3.096 5.879-3.102 9.156 0 .577.496 1.045 1.108 1.045.614.002 1.113-.465 1.113-1.04.004-1.793.379-3.57 1.101-5.228a.184.184 0 01.17-.105c.1 0 .182.076.182.17v15.082c0 .673.582 1.22 1.302 1.22.718 0 1.3-.547 1.3-1.22v-9.192c0-.31.268-.56.596-.56.33 0 .596.25.596.56v9.192c0 .673.583 1.219 1.302 1.219.719 0 1.3-.546 1.3-1.22v-15.08c0-.069.047-.131.115-.158.092-.037.2.006.238.093A13.154 13.154 0 0113.97 22.1c0 .574.497 1.042 1.112 1.04.612 0 1.108-.468 1.107-1.044-.005-3.278-1.088-6.477-3.1-9.157zM20.607 1.96h-.716v35.573h.716V1.96zm14.981 10.978a1.134 1.134 0 00-.908-.44h-5.726c-.36 0-.7.163-.908.44-2.011 2.68-3.095 5.879-3.1 9.156-.002.577.494 1.045 1.107 1.045.614.002 1.113-.465 1.113-1.04a13.14 13.14 0 011.1-5.228.184.184 0 01.17-.105c.1 0 .182.076.182.17v1.36l-1.534 6.634h1.534v7.088c0 .673.583 1.22 1.3 1.22.721 0 1.303-.547 1.303-1.22V24.93h1.192v7.088c0 .673.584 1.22 1.302 1.22.718 0 1.302-.547 1.302-1.22V24.93h1.533l-1.533-6.579v-1.414c0-.07.044-.132.113-.16.092-.036.2.007.238.094a13.14 13.14 0 011.101 5.228c0 .574.498 1.042 1.114 1.04.612 0 1.108-.468 1.106-1.044-.006-3.278-1.089-6.477-3.101-9.157zM12.01 8.72c0-1.361-1.178-2.466-2.63-2.466-1.453 0-2.63 1.105-2.63 2.467 0 1.364 1.177 2.47 2.63 2.47 1.452 0 2.63-1.106 2.63-2.47zm22.5 0c0-1.361-1.18-2.466-2.631-2.466-1.453 0-2.629 1.105-2.629 2.467 0 1.364 1.176 2.47 2.629 2.47 1.451 0 2.63-1.106 2.63-2.47z"></path>
  </symbol>
  <symbol stroke="none" viewBox="0 0 40 40" id="control-inf-2">
    <path d="M13.88 29.343h-1.528v6.875h11.912c.2 0 .396-.06.577-.175l7.905-5.047c.235-.153.433-.394.572-.696a2.525 2.525 0 00.085-1.804 1.95 1.95 0 00-.315-.588 1.369 1.369 0 00-.455-.377 1.032 1.032 0 00-1.043.065l-6.2 3.955c-.3.192-.63.292-.962.292h-5.234v-1.25h4.105c.364 0 .712-.197.968-.549.257-.352.401-.829.401-1.326 0-.497-.144-.974-.4-1.326-.257-.351-.605-.549-.969-.549h-6.842c-.471 0-.93.199-1.316.572-.384.372-.675.9-.83 1.509a.644.644 0 01-.167.304.38.38 0 01-.264.115zm-2.777-.985H6.738v7.86h4.365v-7.86zM26.875 15c.105 0 .21-.013.313-.04-.024-.042-.042-.087-.063-.13-.014-.031-.03-.06-.043-.09a2.496 2.496 0 01-.139-.426l-.016-.087a2.458 2.458 0 01-.052-.477c.002-.16.019-.32.05-.478.006-.028.01-.057.017-.085.034-.148.081-.292.142-.431.011-.027.024-.053.037-.08.021-.045.04-.092.062-.137a1.25 1.25 0 10-.308 2.46zm-10-2.5H15v.625h1.875V12.5zm17.5 8.522l.975-.263a.625.625 0 00.441-.763l-1.416-5.288v6.314zm-5-6.022a1.25 1.25 0 10-1.145-.744c.071.159.175.301.306.416.229.21.528.327.839.328zm-12.5-.625H15V15h1.875v-.625z"></path>
    <path d="M11.25 23.75H32.5a.624.624 0 00.625-.625v-12.5A.624.624 0 0032.5 10H11.25a.624.624 0 00-.625.625v12.5a.624.624 0 00.625.625zm18.125-1.25h-5v-1.25h5v1.25zm-3.75-2.5v-1.25h1.25V20h-1.25zm3.75 0h-1.25v-1.25h1.25V20zm-2.5-8.75c.44.001.87.119 1.25.341a2.5 2.5 0 110 4.317c-.379.223-.81.341-1.25.342a2.5 2.5 0 010-5zm-3.75 7.5h1.25V20h-1.25v-1.25zm-2.5 0h1.25V20h-1.25v-1.25zm0 3.75h-5v-1.25h5v1.25zm-5-2.5v-1.25h1.25V20h-1.25zm3.75 0h-1.25v-1.25h1.25V20zm-7.5-8.125a.624.624 0 01.625-.625h5a.624.624 0 01.625.625v3.75a.624.624 0 01-.625.625h-5a.624.624 0 01-.625-.625v-3.75zm5.492-3.125H32.5c.096.002.192.012.287.029L31.908 5.5a.625.625 0 00-.763-.438L17.367 8.75z"></path>
    <path d="M13.75 12.5h-.625V15h.625v-2.5z"></path>
  </symbol>
  <symbol stroke="none" viewBox="0 0 37 27" id="control-inf-3">
    <path fill-rule="evenodd" clip-rule="evenodd" d="M8.851 3.31a2.095 2.095 0 11-.003 4.186 2.095 2.095 0 01.003-4.185zm1.852 4.992l1.95.74v5.954l-1.488.923-1.309 7.393h-2.01l-1.31-7.392-1.489-1.007v-5.87l1.943-.741 1.86 2.153 1.852-2.153zm10.582-3.033a1.96 1.96 0 01-1.96 1.96 1.96 1.96 0 111.96-1.96zm-3.471 3.073l1.524 1.555 1.49-1.555 1.1.256 1.698 8.777-2.65.88-.597 5.057h-2.082l-.64-5.056-2.607-.88 1.657-8.778 1.107-.256zm11.325.912h7.857L33.067 3.82 29.14 9.254zm7.857 8.115H29.14l3.929 5.434 3.928-5.434zm-9.38 9.253V0H.997v26.62h26.62v.002z"></path>
  </symbol>
  <symbol stroke="none" viewBox="0 0 30 29" id="control-inf-4">
    <path d="M28.75 7.724h-5.203c-1.33 0-2.585.534-3.535 1.51L6.831 22.83a1.232 1.232 0 01-.884.377H1.25c-.69 0-1.25.578-1.25 1.29v2.58c0 .713.56 1.291 1.25 1.291h5.215A4.897 4.897 0 0010 26.86l13.181-13.596c.235-.242.552-.378.884-.378h4.685c.69 0 1.25-.578 1.25-1.29v-2.58c0-.713-.56-1.291-1.25-1.291zM8.73 17.206l5-5.149V9.025c0-1.419-1.125-2.58-2.5-2.58s-2.5 1.161-2.5 2.58v8.181zm2.5-12.045c1.381 0 2.5-1.155 2.5-2.58C13.73 1.155 12.611 0 11.23 0c-1.38 0-2.5 1.155-2.5 2.58 0 1.426 1.12 2.581 2.5 2.581z"></path>
  </symbol>
</svg>
