<svg width="104" height="104" viewBox="0 0 104 104" fill="none" xmlns="http://www.w3.org/2000/svg">
<path d="M87.4387 0.393289C86.6278 0.490698 85.874 0.860991 85.3012 1.44336L69.851 17.0444C69.4827 17.3709 69.1852 17.7693 68.9769 18.2153C68.7686 18.6613 68.654 19.1452 68.6401 19.6372C68.6262 20.1292 68.7133 20.6189 68.896 21.0759C69.0788 21.5329 69.3533 21.9476 69.7026 22.2944C70.0519 22.6411 70.4686 22.9125 70.9269 23.0919C71.3853 23.2713 71.8755 23.3548 72.3674 23.3373C72.8592 23.3197 73.3423 23.2015 73.7867 22.99C74.2311 22.7784 74.6274 22.4779 74.9511 22.1072L87.8512 9.05637L94.9013 16.1443L73.1136 37.9332C72.4708 38.5807 72.0978 39.4481 72.07 40.3601C72.0421 41.272 72.3615 42.1606 72.9636 42.8461C75.1382 45.3104 75.0643 48.9957 72.7011 51.3591C70.2407 53.8196 66.3863 53.8196 63.926 51.3591C62.4383 49.8712 61.849 47.8398 62.1634 45.9212C62.2536 45.359 62.2091 44.7835 62.0337 44.2418C61.8583 43.7001 61.5569 43.2077 61.1543 42.8051C60.7517 42.4025 60.2594 42.1011 59.7177 41.9257C59.1761 41.7503 58.6005 41.7058 58.0384 41.796C56.1199 42.1104 54.126 41.5586 52.6383 40.0709C50.178 37.6103 50.178 33.7182 52.6383 31.2578C55.0016 28.8944 58.6492 28.858 61.1134 31.0328C61.4668 31.3528 61.8803 31.5995 62.3298 31.7585C62.7793 31.9175 63.2559 31.9856 63.732 31.9588C64.208 31.9321 64.674 31.8111 65.1029 31.6028C65.5318 31.3945 65.9151 31.1031 66.2305 30.7455C66.5458 30.3879 66.7871 29.9712 66.9401 29.5197C67.0931 29.0681 67.155 28.5905 67.122 28.1149C67.089 27.6392 66.9619 27.1748 66.748 26.7487C66.5341 26.3225 66.2377 25.9431 65.876 25.6324C60.6241 20.9973 52.552 21.1809 47.5382 26.195C42.3264 31.4071 42.3264 39.9591 47.5382 45.1712C49.6603 47.2934 52.3391 48.4847 55.1133 48.8839C55.5169 51.6488 56.7107 54.3441 58.8259 56.4594C64.0377 61.6715 72.5893 61.6715 77.8011 56.4594C81.9508 52.3095 82.5876 46.1328 80.1262 41.1209L102.551 18.6945C102.887 18.36 103.153 17.9625 103.335 17.5249C103.517 17.0873 103.61 16.6181 103.61 16.1443C103.61 15.6705 103.517 15.2013 103.335 14.7637C103.153 14.3261 102.887 13.9287 102.551 13.5942L90.4013 1.44336C90.019 1.05573 89.5538 0.759814 89.0406 0.577933C88.5275 0.396051 87.9798 0.332936 87.4387 0.393289ZM35.6881 43.5961C32.2453 43.5961 28.8064 44.8902 26.2005 47.4964C22.0429 51.6542 21.3966 57.8556 23.8755 62.8723L1.45017 85.2988C0.783852 85.9728 0.410156 86.8824 0.410156 87.8302C0.410156 88.778 0.783852 89.6875 1.45017 90.3616L13.6003 102.512C13.9348 102.848 14.3322 103.114 14.7698 103.296C15.2074 103.478 15.6766 103.571 16.1504 103.571C16.6242 103.571 17.0933 103.478 17.5309 103.296C17.9685 103.114 18.3659 102.848 18.7004 102.512L41.0882 80.1233C46.1042 82.6009 52.3065 81.9554 56.4634 77.7983C61.6752 72.5862 61.6752 63.9967 56.4634 58.7845C54.3418 56.6629 51.6618 55.5088 48.8883 55.1093C48.4887 52.3355 47.2972 49.618 45.1757 47.4964C42.5698 44.8902 39.1309 43.5961 35.6881 43.5961ZM35.6881 50.7591C37.2731 50.7591 38.8455 51.3664 40.0757 52.5967C41.5634 54.0844 42.1526 56.1158 41.8382 58.0345C41.748 58.5967 41.7925 59.1723 41.9679 59.714C42.1433 60.2556 42.4447 60.748 42.8473 61.1506C43.2499 61.5532 43.7422 61.8546 44.2839 62.03C44.8255 62.2055 45.4011 62.2499 45.9632 62.1597C47.8817 61.8453 49.8756 62.3971 51.3633 63.8849C53.8236 66.3454 53.8236 70.2374 51.3633 72.6979C49 75.0614 45.3524 75.1351 42.8882 72.9605C42.2005 72.3474 41.3041 72.0213 40.3833 72.0492C39.4625 72.0771 38.5874 72.4569 37.9381 73.1105L16.1504 94.8994L9.10027 87.8491L30.888 66.0226C31.5308 65.3751 31.9039 64.5076 31.9317 63.5957C31.9595 62.6837 31.6401 61.7952 31.038 61.1097C28.8634 58.6453 28.9373 54.96 31.3005 52.5967C32.5307 51.3664 34.1031 50.759 35.6881 50.7591Z" fill="white"/>
</svg>
