<svg width="22" height="22" viewBox="0 0 22 22" fill="none" xmlns="http://www.w3.org/2000/svg">
<path fill-rule="evenodd" clip-rule="evenodd" d="M7.66667 20.1666C8.58714 20.1666 9.33333 19.4204 9.33333 18.4999C9.33333 17.5794 8.58714 16.8333 7.66667 16.8333C6.74619 16.8333 6 17.5794 6 18.4999C6 19.4204 6.74619 20.1666 7.66667 20.1666Z" stroke="white" stroke-width="2" stroke-linecap="round" stroke-linejoin="round"/>
<path fill-rule="evenodd" clip-rule="evenodd" d="M17.6667 20.1666C18.5871 20.1666 19.3333 19.4204 19.3333 18.4999C19.3333 17.5794 18.5871 16.8333 17.6667 16.8333C16.7462 16.8333 16 17.5794 16 18.4999C16 19.4204 16.7462 20.1666 17.6667 20.1666Z" stroke="white" stroke-width="2" stroke-linecap="round" stroke-linejoin="round"/>
<path d="M5.72467 5.99992H20.1663L18.7663 12.9916C18.6091 13.7834 17.9069 14.3487 17.0997 14.3333H8.29134C7.44924 14.3404 6.73412 13.7182 6.62467 12.8833L5.35801 3.28325C5.24936 2.45458 4.54377 1.83452 3.70801 1.83325H1.83301" stroke="white" stroke-width="2" stroke-linecap="round" stroke-linejoin="round"/>
</svg>
