<svg width="60" height="60" viewBox="0 0 60 60" fill="none" xmlns="http://www.w3.org/2000/svg">
<path d="M35.7857 35.7857C31.0714 40.65 30.7286 46.7143 30.3214 60C42.7071 60 51.2571 59.9571 55.6714 55.6714C59.9571 51.2571 60 42.3 60 30.3214C46.7143 30.75 40.65 31.0714 35.7857 35.7857ZM0 30.3214C0 42.3 0.0428571 51.2571 4.32857 55.6714C8.74286 59.9571 17.2929 60 29.6786 60C29.25 46.7143 28.9286 40.65 24.2143 35.7857C19.35 31.0714 13.2857 30.7286 0 30.3214ZM29.6786 0C17.3143 0 8.74286 0.0428571 4.32857 4.32857C0.0428571 8.74286 0 17.7 0 29.6786C13.2857 29.25 19.35 28.9286 24.2143 24.2143C28.9286 19.35 29.2714 13.2857 29.6786 0ZM35.7857 24.2143C31.0714 19.35 30.7286 13.2857 30.3214 0C42.7071 0 51.2571 0.0428571 55.6714 4.32857C59.9571 8.74286 60 17.7 60 29.6786C46.7143 29.25 40.65 28.9286 35.7857 24.2143Z" fill="white"/>
</svg>
