<svg width="24" height="30" viewBox="0 0 24 30" fill="none" xmlns="http://www.w3.org/2000/svg">
<path d="M21.4329 13.6667C21.0496 13.1667 20.5829 12.7333 20.1496 12.3C19.0329 11.3 17.7663 10.5833 16.6996 9.53333C14.2163 7.1 13.6663 3.08333 15.2496 0C13.6663 0.383333 12.2829 1.25 11.0996 2.2C6.78293 5.66667 5.08293 11.7833 7.11626 17.0333C7.18293 17.2 7.24959 17.3667 7.24959 17.5833C7.24959 17.95 6.99959 18.2833 6.66626 18.4167C6.28293 18.5833 5.88293 18.4833 5.56626 18.2167C5.46626 18.1333 5.39959 18.05 5.33293 17.9333C3.44959 15.55 3.14959 12.1333 4.41626 9.4C1.63293 11.6667 0.116261 15.5 0.332928 19.1167C0.432928 19.95 0.532928 20.7833 0.816261 21.6167C1.04959 22.6167 1.49959 23.6167 1.99959 24.5C3.79959 27.3833 6.91626 29.45 10.2663 29.8667C13.8329 30.3167 17.6496 29.6667 20.3829 27.2C23.4329 24.4333 24.4996 20 22.9329 16.2L22.7163 15.7667C22.3663 15 21.4329 13.6667 21.4329 13.6667ZM16.1663 24.1667C15.6996 24.5667 14.9329 25 14.3329 25.1667C12.4663 25.8333 10.5996 24.9 9.49959 23.8C11.4829 23.3333 12.6663 21.8667 13.0163 20.3833C13.2996 19.05 12.7663 17.95 12.5496 16.6667C12.3496 15.4333 12.3829 14.3833 12.8329 13.2333C13.1496 13.8667 13.4829 14.5 13.8829 15C15.1663 16.6667 17.1829 17.4 17.6163 19.6667C17.6829 19.9 17.7163 20.1333 17.7163 20.3833C17.7663 21.75 17.1663 23.25 16.1663 24.1667Z" fill="#2384B8"/>
</svg>
