<svg width="38" height="38" viewBox="0 0 38 38" fill="none" xmlns="http://www.w3.org/2000/svg">
<path d="M30.9121 17.8592C28.1988 17.9897 25.9652 19.3092 24.5418 20.4233C24.4441 20.4998 24.3648 20.5971 24.3094 20.7081C24.2541 20.8191 24.2241 20.941 24.2217 21.065C24.2194 21.189 24.2446 21.312 24.2956 21.4251C24.3466 21.5381 24.4222 21.6384 24.5168 21.7186C25.5027 22.5586 26.4231 23.4728 27.2699 24.453C27.5175 24.7381 27.5105 25.1975 27.2261 25.4467C27.1581 25.5063 27.079 25.5519 26.9933 25.5808C26.9076 25.6097 26.817 25.6215 26.7268 25.6153C26.6366 25.6091 26.5484 25.5852 26.4675 25.5449C26.3865 25.5045 26.3143 25.4486 26.255 25.3803C24.1394 22.946 22.4566 21.8303 21.9222 21.5084C19.6871 20.5124 17.2621 20.6233 15.5714 20.9108C15.3173 20.9543 15.0837 21.0782 14.9051 21.2642C14.7265 21.4502 14.6123 21.6886 14.5793 21.9444C14.3793 23.4514 13.8621 25.1788 12.5941 26.0749C12.5157 26.1305 12.4266 26.169 12.3324 26.1879C12.2382 26.2069 12.1411 26.2058 12.0473 26.1848C11.9535 26.1638 11.8652 26.1234 11.7881 26.0661C11.711 26.0088 11.6467 25.9359 11.5996 25.8522C11.5185 25.6987 11.4966 25.5208 11.5379 25.3522C11.5792 25.1836 11.681 25.036 11.8238 24.9374C12.4738 24.4631 12.8558 23.5694 13.0738 22.6085C13.276 21.6787 13.3287 20.7227 13.23 19.7764L12.5668 13.017C12.5344 12.7114 12.4074 12.4235 12.2035 12.1936L11.4332 11.31C11.3105 11.1749 11.2452 10.9974 11.2511 10.815C11.2569 10.6326 11.3334 10.4597 11.4644 10.3327C11.5319 10.2702 11.6113 10.2218 11.6978 10.1905C11.7843 10.1593 11.8762 10.1456 11.9681 10.1505C12.0599 10.1554 12.1499 10.1787 12.2326 10.219C12.3153 10.2592 12.3891 10.3157 12.4496 10.385L13.5925 11.6959C13.97 11.7991 14.3686 11.7968 14.7448 11.6894C15.1211 11.582 15.4608 11.3735 15.7269 11.0866L18.8519 7.66782C19.1913 7.30058 19.3791 6.8184 19.3773 6.31833C19.3756 5.81825 19.1845 5.33739 18.8425 4.97251L15.3597 1.24908C15.0846 0.959813 14.7161 0.776981 14.3194 0.732817C13.9226 0.688652 13.523 0.78599 13.191 1.00767L8.69254 4.0272C7.714 4.67847 6.99814 5.65565 6.67222 6.78501L0.797224 27.4374C0.454255 28.6436 1.12769 29.9022 2.3441 30.328L4.30504 31.0155C4.30504 31.0155 12.3191 36.8663 23.8441 35.9631C24.5889 35.9058 25.3382 35.955 26.0691 36.1092C27.9847 36.51 32.0472 37.2584 35.8222 37.2811C36.0156 37.2819 36.2072 37.2445 36.3861 37.1711C36.565 37.0976 36.7276 36.9896 36.8646 36.8531C37.0015 36.7166 37.1102 36.5544 37.1843 36.3758C37.2584 36.1972 37.2965 36.0057 37.2964 35.8124V33.2389C37.2967 33.1843 37.2855 33.1302 37.2636 33.0802C37.2416 33.0302 37.2094 32.9854 37.1691 32.9486C37.1288 32.9117 37.0812 32.8838 37.0293 32.8665C36.9775 32.8493 36.9227 32.8431 36.8683 32.8483C36.6964 32.8613 36.5266 32.8681 36.3589 32.8686C33.7457 32.8686 31.5152 31.3366 29.98 29.8717C29.8548 29.7558 29.7759 29.5983 29.7582 29.4285C29.7406 29.2587 29.7852 29.0883 29.8839 28.9491C29.942 28.8706 30.0161 28.8054 30.1014 28.7578C30.1866 28.7102 30.281 28.6813 30.3782 28.6731C30.4755 28.6648 30.5734 28.6773 30.6655 28.7098C30.7575 28.7423 30.8416 28.7941 30.9121 28.8616C32.3597 30.2499 34.5128 31.7194 36.9496 31.4561C37.0454 31.4453 37.1339 31.3994 37.1979 31.3273C37.262 31.2552 37.2971 31.1619 37.2964 31.0655V21.0866C37.2974 20.7538 37.184 20.4309 36.9753 20.1717C36.3019 19.3397 34.498 17.6858 30.9121 17.8592Z" fill="#2384B8"/>
</svg>
