<svg width="40" height="40" viewBox="0 0 40 40" fill="none" xmlns="http://www.w3.org/2000/svg">
<path d="M37.9038 20.5601C37.9438 20.1601 37.6638 19.8801 37.5038 19.5601C37.4638 19.4401 37.3038 19.0801 37.5438 19.1201C37.5038 18.8401 37.1438 18.8401 37.1038 18.5601C37.1038 18.4001 37.3038 18.2801 37.1438 18.1201C37.0638 18.0401 36.9038 18.0001 36.7838 17.9601C36.6638 17.8801 36.5438 17.8401 36.5838 17.6801C36.5838 17.5601 36.7438 17.4801 36.6238 17.3601C36.5438 17.2801 36.3838 17.3601 36.2638 17.3201C36.1038 17.2801 36.0638 17.0801 35.9438 16.9601C35.9038 17.0401 35.8238 17.1601 35.9038 17.2401C35.6238 17.2801 35.5438 17.0001 35.4238 16.8001C35.2638 16.5201 35.1438 16.3201 35.3438 16.0001C35.1838 15.9601 35.2238 15.7601 35.1838 15.6801C35.3038 15.6801 35.3438 15.7601 35.4638 15.8001C35.5038 15.5601 35.2638 15.3201 35.4238 15.1201C35.5438 14.9601 35.7838 14.9601 35.9038 14.8001C35.5838 14.4801 35.5038 14.0401 35.4638 13.6001C35.4238 13.3201 35.5038 12.8801 35.1438 12.7601C35.3038 12.4801 35.4638 12.5601 35.3838 12.2001C35.1838 12.4401 34.8238 12.2401 34.5838 12.3201C34.5038 12.3601 34.1838 12.6401 34.1438 12.5601C34.1838 12.5201 34.2238 12.4801 34.2238 12.4401C34.1838 12.4401 34.1038 12.4401 34.0638 12.4801C34.1038 12.2401 34.4638 12.2001 34.3438 11.8801C34.2638 11.6401 33.9038 11.4401 33.6638 11.4801C33.7038 11.4801 33.7438 11.4801 33.8238 11.4401C33.7838 11.4801 33.7438 11.3201 33.7438 11.3201C34.0238 11.6001 34.1038 11.2001 34.2638 11.0001C34.4638 10.7601 34.9038 10.8001 34.9838 10.4801C34.9038 10.4801 34.9038 10.4801 34.9038 10.4001C35.0638 10.4801 34.9838 10.3201 34.9838 10.2401C34.9038 10.4001 34.7438 10.1601 34.6638 10.1201C34.6638 10.1601 34.6638 10.1601 34.6638 10.2001C34.5438 10.1201 34.4638 10.2401 34.3438 10.2001C34.4638 10.1601 34.5038 10.0401 34.5038 9.9201C34.5038 9.9601 34.3838 9.9601 34.3838 9.9601C34.4638 9.8401 34.3438 9.7201 34.3438 9.6001C34.3438 10.0401 33.7038 10.0001 33.6238 10.3601C33.7438 10.4001 33.9038 10.4001 34.0238 10.3601C34.0638 10.6001 33.5438 10.4801 33.3838 10.5201C33.0238 10.6001 32.7038 10.9201 32.3838 11.1201C32.0638 11.3201 31.2638 11.8001 31.5438 12.3201C31.4238 12.3201 31.2238 12.4401 31.2238 12.6001C31.2238 12.7601 31.3838 12.7201 31.5038 12.8001C31.6238 12.8401 31.8638 12.9601 31.7438 13.1201C31.6238 13.2801 31.4238 13.0801 31.3038 13.0801C31.0238 13.1201 31.1038 13.4801 31.0238 13.6801C30.9438 13.8401 30.5038 14.1201 30.7838 14.3201C30.6638 14.2801 30.6238 14.4401 30.5038 14.4401C30.3838 14.4401 30.3438 14.3601 30.2238 14.3201C29.9438 14.2001 29.7038 14.4001 29.5438 14.6001C29.3838 14.8001 29.3038 15.0001 29.1038 15.1201C29.0238 15.1601 28.7038 15.2001 28.8238 15.3201C28.7038 15.2001 28.6638 15.2801 28.5038 15.1601C28.3838 15.1201 28.5838 15.0401 28.3438 15.0401C27.9438 15.0801 28.2238 15.6401 27.9838 15.7601C28.0238 15.5601 27.8238 15.6001 27.7038 15.6401C27.7038 15.5201 27.9038 15.4801 27.8238 15.3601C27.6638 15.4401 27.5438 15.5601 27.3838 15.6001C27.2638 15.6401 27.1038 15.6801 27.0238 15.8001C27.2638 15.8801 26.9038 16.1601 27.1038 16.2401C27.1438 16.2001 27.1438 16.1601 27.1438 16.0801C27.2638 16.1601 27.3038 16.3201 27.4238 16.4001C27.3438 16.5201 27.1838 16.4801 27.1038 16.6001C27.1438 16.6401 27.2238 16.6801 27.2238 16.7601C27.0238 16.6801 26.6638 16.8401 26.7838 17.0801C26.6238 17.0801 26.3838 16.9201 26.2638 17.1201C26.1838 17.3201 26.4638 17.4801 26.4238 17.6801C26.2238 17.4801 25.8238 17.6801 25.7038 17.4401C25.6638 17.3601 25.7438 16.9201 25.5438 17.1201C25.5838 16.9201 25.3438 16.7201 25.1838 16.7601C25.0638 16.8001 25.0238 16.8401 24.9438 16.8801C24.8238 16.8801 24.6638 16.8801 24.5838 16.8001C24.5438 17.0001 24.6638 17.2401 24.5438 17.4001C24.4638 17.4801 24.2238 17.6001 24.1838 17.4401C24.1038 17.6401 23.9038 17.4001 23.7838 17.3601C23.5438 17.2801 23.3038 17.5201 23.1838 17.6801C23.2238 17.7201 23.2238 17.7201 23.2638 17.7601C23.1438 17.7601 23.1438 17.6001 23.0638 17.5201C22.9038 17.4001 22.7038 17.6001 22.5838 17.7201C22.3838 17.9201 22.3438 18.3201 22.0238 18.3601C22.1838 17.8001 23.2238 17.1201 22.6638 16.5201C22.9038 16.5601 22.7438 16.3601 22.6638 16.2801C22.5438 16.2001 22.3438 16.1201 22.2238 16.1601C22.1038 16.1601 21.9838 16.3601 21.9438 16.3601C21.8238 16.3601 21.8638 16.2401 21.8238 16.2401C21.7038 16.1601 21.6238 16.2001 21.4638 16.1601C21.5438 16.0801 21.6638 15.9201 21.5438 15.8001C21.4238 15.7201 21.2638 15.9201 21.1838 16.0001C20.9838 16.2001 21.0638 16.6001 20.7438 16.6001C20.7838 16.6801 20.8638 16.7201 20.9038 16.8001C20.7438 16.7201 20.5038 16.8401 20.3838 16.9601C20.3838 16.8801 20.3838 16.8401 20.4238 16.7601C20.2638 16.7601 20.0638 16.8001 19.9438 16.9601C19.9838 16.9601 20.0238 17.0001 20.0638 17.0001C19.9438 17.1601 19.7038 17.1201 19.5438 17.2001C19.4238 17.2801 19.3438 17.4801 19.1438 17.4401C19.1438 17.5201 19.1438 17.5601 19.2238 17.5201C19.1838 17.5601 19.0638 17.8801 19.1038 17.8801C19.0638 17.8801 19.1438 17.7601 19.0238 17.8001C19.0238 17.8001 18.9438 18.1201 18.9038 18.1601C18.7438 18.2801 18.4638 18.1601 18.2638 18.2801C17.9038 18.5201 18.4238 18.7601 18.3438 19.0401C18.3038 19.2801 18.1838 19.1601 18.0638 19.0401C17.9038 18.9201 17.8638 18.8801 17.6638 18.9201C17.5438 18.9201 17.3038 18.9601 17.2638 19.0801C17.2238 19.3201 17.5838 19.2801 17.5838 19.5201C17.4238 19.4001 17.2238 19.3201 17.1438 19.1201C17.0238 18.8801 17.1838 18.6401 17.2638 18.4001C17.0238 18.2801 16.7038 19.4401 16.6638 19.6001C16.5438 19.9601 16.5438 20.1201 16.9038 20.3201C17.1838 20.4801 17.3438 20.9201 17.3038 21.2801C16.9838 21.2801 17.1438 20.8801 17.0638 20.7201C16.9038 20.3601 16.5838 20.7601 16.4638 20.9601C16.3038 21.2001 16.1838 21.5201 15.8638 21.6001C15.6238 21.6401 15.2638 21.5201 15.3038 21.2001C15.9038 21.4001 16.2238 20.8401 16.3438 20.3201C16.4238 19.9201 16.4638 19.5201 16.5838 19.1201C16.6638 18.8801 16.8638 18.5601 16.7038 18.3201C16.3838 17.8801 15.7038 18.8401 15.5838 19.0801C15.4638 19.3201 15.2238 20.0801 15.6638 20.1201C15.2238 20.4001 15.0238 19.8401 14.8238 19.5601C14.7038 19.3601 14.5438 19.2401 14.3038 19.3201C14.1438 19.3601 13.9038 19.6001 13.9438 19.8001C13.8238 19.7201 13.8638 19.5601 13.7838 19.4801C13.7038 19.4001 13.5438 19.4001 13.4638 19.4001C13.2638 19.4001 12.9438 19.4401 12.7838 19.2401C12.8638 19.2401 12.9038 19.0801 13.0238 19.1201C12.9838 18.9201 12.7438 19.0801 12.6238 19.0801C12.4238 19.0801 12.1038 19.0001 11.9038 18.9601C11.9038 19.0001 11.9038 19.0401 11.9438 19.0401C11.7438 18.8801 11.4638 19.2801 11.2638 19.0801C11.0238 18.8801 11.3838 18.4401 11.5838 18.7201C11.8238 18.5201 11.6238 17.9601 11.3038 18.0001C11.3438 18.2401 11.1438 18.4401 11.0238 18.6001C10.9838 18.7201 10.9438 18.8401 10.8638 18.9201C10.7838 19.0401 10.6238 19.0801 10.5438 19.1601C10.5038 19.0001 10.5038 18.8401 10.3038 18.7201C10.1038 18.6001 9.90377 18.8001 9.66377 18.7201C9.66377 18.8801 9.62377 19.1201 9.38377 19.0801C9.18377 19.0401 9.26377 18.8401 9.22377 18.6801C9.06377 18.2801 9.02377 18.8801 8.82377 18.9601C8.46377 19.1201 8.58377 18.5201 8.62377 18.3601C8.70377 18.1601 8.82377 18.0001 8.90377 17.8401C9.02377 17.5601 8.98377 17.2801 9.10377 17.0001C9.26377 17.1601 9.22377 17.3601 9.26377 17.5601C9.30377 17.8001 9.46377 18.0401 9.66377 18.2001C9.98377 18.4401 10.3838 18.4001 10.5438 18.0401C10.7838 17.5601 10.4238 17.0401 10.2238 16.6001C10.1838 16.4801 9.94377 16.0001 10.2238 16.1601C10.1838 16.0401 10.1038 15.9601 9.94377 15.9601C9.94377 15.9201 9.94377 15.8801 9.98377 15.8401C9.86377 16.0001 9.62377 15.8001 9.50377 15.8401C9.26377 15.8801 9.22377 16.0401 9.10377 16.2001C8.94377 16.4001 8.74377 16.4801 8.58377 16.6401C8.38377 16.8401 8.26377 17.0801 8.06377 17.2801C7.90377 17.4801 7.70377 17.6401 7.54377 17.8801C7.46377 18.2001 7.42377 18.4401 7.26377 18.6001C6.86377 18.9201 6.34377 18.5601 5.90377 18.5601C5.94377 18.6401 6.02377 18.6801 6.10377 18.7201C5.94377 18.8801 6.22377 19.1601 6.02377 19.3201C5.86377 18.8801 5.26377 19.0001 4.98377 19.2401C4.78377 19.4001 4.54377 19.6401 4.42377 19.8401C4.34377 20.0801 4.38377 20.3201 4.30377 20.5601C4.62377 20.6001 4.26377 21.5201 4.18377 21.7201C4.06377 21.9601 4.02377 21.9201 3.78377 21.9201C3.54377 21.9201 3.42377 22.0401 3.50377 22.2801C3.58377 22.5201 3.78377 22.6401 3.82377 22.8801C3.86377 23.1601 3.66377 23.4401 3.74377 23.7601C3.82377 24.0401 4.02377 24.2401 4.14377 24.4801C4.22377 24.6401 4.26377 24.8801 4.46377 24.9601C4.38377 25.0801 4.22377 25.1201 4.10377 25.2401C3.98377 25.3601 3.90377 25.5201 3.78377 25.6401C3.62377 25.4801 3.30377 25.2801 3.10377 25.5201C3.18377 25.5601 3.46377 25.6401 3.38377 25.8001C3.26377 25.7601 3.14377 25.7601 3.06377 25.7601C2.98377 25.7201 2.90377 25.6801 2.82377 25.6401C2.82377 25.7601 2.86377 25.8401 2.82377 25.9601C2.62377 25.8801 2.18377 25.9201 2.06377 26.1201C1.86377 26.4001 2.18377 26.8401 2.34377 27.0801C2.78377 27.8001 3.30377 28.4401 3.66377 29.2401C3.74377 29.4401 4.10377 30.2401 4.38377 29.9601C4.62377 29.7201 4.46377 29.0801 4.58377 28.8001C4.62377 28.6401 4.70377 28.4801 4.86377 28.3601C4.94377 28.2801 5.18377 28.2401 5.18377 28.0801C5.42377 28.1201 5.74377 28.3601 5.94377 28.1201C5.86377 28.0401 5.82377 27.9201 5.82377 27.8401C6.26377 27.8001 6.02377 27.2401 5.78377 27.1201C5.86377 27.0801 5.82377 26.7601 5.90377 26.6401C5.98377 26.4801 6.14377 26.3201 6.30377 26.2401C6.62377 26.0801 6.66377 26.4401 6.98377 26.4001C7.14377 26.3601 7.26377 26.2401 7.42377 26.2001C7.66377 26.1201 7.82377 26.2001 8.06377 26.3201C8.22377 26.4001 8.38377 26.4801 8.50377 26.6401C8.58377 26.7201 8.62377 26.8401 8.66377 26.9601C8.66377 27.0001 8.70377 27.0401 8.70377 27.0801C8.62377 27.1201 8.62377 27.1601 8.62377 27.2401C8.70377 27.2401 8.70377 27.1201 8.78377 27.1201C8.82377 27.1201 8.90377 27.1601 8.94377 27.2001C9.14377 27.2801 9.34377 27.3601 9.54377 27.4801C9.82377 27.6401 10.2638 28.2001 10.6238 28.0401C10.9438 27.8801 10.6638 27.4801 10.8638 27.2801C10.9438 27.1601 11.4638 27.1201 11.1838 26.9201C11.3038 26.8401 11.3438 26.6801 11.4638 26.6401C11.6238 26.6001 11.8238 26.7601 11.9838 26.8001C12.3838 26.9201 12.8238 26.8401 13.2638 26.8001C13.5438 26.8001 13.9038 26.8001 14.1038 27.0401C14.2238 27.2001 14.2238 27.4001 14.3438 27.5601C14.4238 27.6401 14.5838 27.5601 14.5038 27.7201C14.5838 27.7601 14.7838 27.6401 14.8638 27.7601C14.9838 27.8801 14.7438 27.9601 14.7438 28.0801C15.1838 28.1201 15.5438 27.6001 15.7838 28.1201C15.9038 28.3601 16.1038 28.6001 16.1838 28.8801C16.2638 29.1201 16.2238 29.3601 16.3838 29.5601C16.7438 30.0001 17.4238 29.7601 17.8238 30.0801C18.0238 30.2401 18.3838 30.8401 18.6638 30.4801C18.7838 31.2001 19.8238 30.3601 20.1438 30.2001C20.5838 30.0001 20.9038 30.1201 21.3038 30.2801C21.6638 30.4401 22.2238 30.6001 22.3038 30.0401C22.3438 29.7201 22.1838 29.2801 22.6238 29.1601C22.9838 29.0801 23.3438 29.4401 23.6638 29.5601C24.1038 29.7201 24.5438 29.6401 24.9838 29.6801C25.5438 29.7201 26.1438 29.9601 26.6238 29.6401C26.9838 29.4401 27.2238 29.0801 27.6638 28.9601C28.1038 28.8401 28.6638 28.9201 28.9038 28.4801C29.3038 27.8401 28.3838 27.0401 29.0238 26.4401C29.5838 25.9201 30.3438 26.1601 30.8238 26.6401C31.2238 27.0001 31.4638 27.2401 32.0238 27.2001C32.2638 27.2001 32.4638 27.1601 32.7038 27.2801C32.9438 27.4001 33.1038 27.5601 33.3438 27.3201C33.5838 27.0801 33.7438 26.6401 34.1038 27.0801C34.3038 27.3201 34.4638 27.7601 34.3438 28.0801C34.2238 28.4001 33.8638 28.5601 34.0238 28.9201C34.1438 29.1601 34.3038 29.2801 34.3438 29.5201C34.3438 29.6401 34.2638 29.9201 34.4638 29.8801C34.4238 29.7601 34.5038 29.6801 34.5438 29.6001C34.5838 29.4801 34.5438 29.3601 34.5438 29.2801C34.5838 29.3201 34.6238 29.3601 34.6638 29.4001C34.6638 29.3201 34.6638 29.2401 34.7038 29.2001C35.4238 29.7201 35.4638 27.9201 35.4638 27.5601C35.4638 26.8001 35.5038 26.0001 35.2238 25.2801C35.0638 24.8801 34.7438 24.5201 34.5438 24.1201C34.3838 23.8801 34.2238 23.5201 33.9038 23.5201C34.1038 23.1201 33.1838 23.3601 33.0638 23.4401C33.1438 23.5601 33.2638 23.6801 33.2238 23.8001C33.1038 23.7201 33.0238 23.9601 32.9438 24.0001C32.9438 23.8801 32.7838 23.8001 32.7838 23.6801C32.6638 23.7601 32.8638 23.9201 32.7438 24.0401C32.6638 23.9601 32.6238 23.8801 32.5038 23.8401C32.3838 23.8001 32.2638 23.9201 32.1838 23.8401C31.9838 23.7601 32.0238 23.5201 32.0238 23.3601C32.0638 22.8001 32.1438 22.2401 32.1438 21.6801C32.1438 21.2001 32.2238 20.7601 32.5838 20.4001C32.7438 20.2401 33.2238 19.9601 33.0638 19.6801C33.3838 19.8001 33.3838 19.0401 33.6638 18.9601C33.9838 18.8801 33.7838 19.1201 33.8638 19.2001C33.9438 19.2801 34.0238 18.8801 34.0638 18.8401C34.1038 18.6001 34.2638 18.5601 34.3438 18.3601C33.7838 18.2801 33.8238 18.0401 33.7438 17.5201C33.7038 17.2801 33.6638 17.0801 33.7438 16.8801C33.8238 16.7601 34.0238 16.6401 33.9038 16.4801C34.0238 16.6001 34.1438 16.7601 34.2638 16.8801C34.2638 16.8401 34.2638 16.8001 34.2638 16.7201C34.3438 16.7601 34.3838 16.8001 34.4238 16.8801C34.5038 16.7601 34.3838 16.6001 34.3838 16.4801C34.3438 16.3201 34.3838 16.1601 34.4238 16.0001C33.7038 16.1601 34.3038 15.4001 34.3438 15.4001C34.1038 15.5201 34.3838 15.7601 34.4638 15.8401C34.6238 16.0401 34.7038 16.2801 34.7838 16.5201C34.9038 16.8401 35.0638 17.1601 35.1438 17.5201C35.1838 17.8001 35.1038 18.1201 35.1838 18.4001C35.3438 19.0401 35.9038 19.4801 36.4638 19.7601C36.7838 19.9201 37.0638 20.1201 37.3838 20.2401C37.5438 20.3201 37.8238 20.3201 37.9038 20.5601C37.9038 20.5201 37.9038 20.4801 37.9038 20.4401C37.9038 20.4401 37.9038 20.4801 37.9038 20.5601C37.9038 20.4801 37.9038 20.4401 37.9038 20.3601C37.9038 20.4001 37.9038 20.4801 37.9038 20.5601C37.9038 20.5201 37.9038 20.4401 37.9038 20.3601C37.9038 20.4001 37.9038 20.4801 37.9038 20.5601C37.9038 20.5201 37.9038 20.4401 37.9038 20.3601C37.9038 20.4001 37.9038 20.4801 37.9038 20.5601C37.9038 20.5201 37.9038 20.4401 37.9038 20.3601C37.9038 20.4001 37.9038 20.4801 37.9038 20.5601C37.9438 20.1601 37.9038 20.4801 37.9038 20.5601C37.9438 20.1601 37.9038 20.4801 37.9038 20.5601Z" fill="black"/>
<path d="M14.1601 18.52C13.8801 18.68 14.1201 18.72 14.1201 18.92H14.2401C14.2801 18.88 14.2401 18.64 14.1601 18.52Z" fill="black"/>
<path d="M30.9201 10.7199C31.0401 10.8799 31.0801 11.0399 31.2001 10.8399C31.2401 10.7999 31.2401 10.6399 31.2401 10.5599C31.2401 9.99994 30.8801 10.5999 30.9201 10.7199Z" fill="black"/>
<path d="M26.6401 15.5199C26.6801 15.3599 26.9601 15.3199 27.0801 15.2799C27.0401 15.0799 26.7201 15.0399 26.6001 15.2399C26.5601 15.2799 26.6401 15.4399 26.6401 15.5199Z" fill="black"/>
<path d="M20.8797 14.9599C20.8797 14.8799 20.8797 14.7599 20.8397 14.6799C20.6797 14.6799 20.5597 15.4399 20.6397 15.5199C20.7997 15.3599 21.1197 15.3599 21.1597 15.1199C21.1597 15.0799 21.1997 14.9999 21.1597 14.9199C21.1197 14.8799 21.0797 14.8799 21.0397 14.9199C20.9997 14.8399 20.9597 14.7999 20.9197 14.7599C20.9597 14.7999 20.9197 14.9599 20.8797 14.9599Z" fill="black"/>
<path d="M20.4005 14.4001C20.3605 14.4801 20.3205 14.5201 20.2805 14.5201C20.3205 14.4401 20.3205 14.4001 20.3205 14.3201C20.2005 14.3601 20.0805 14.4001 20.0005 14.4801C19.9205 14.5601 19.9605 14.7201 19.8405 14.7601C19.8005 14.7201 20.0405 14.8801 20.0005 14.8401C20.0805 14.8801 20.0805 14.9201 20.1605 15.0001C20.2005 15.0401 20.3605 15.1201 20.4405 15.0801C20.6405 15.0401 20.4805 14.9201 20.4805 14.8001C20.4805 14.6801 20.6405 14.4401 20.4005 14.4001Z" fill="black"/>
<path d="M12.2795 18.0801C11.9595 18.0801 11.9995 18.5201 12.3195 18.4001C12.4795 18.3201 12.4795 18.0801 12.2795 18.0801Z" fill="black"/>
<path d="M13.8003 18.1999C13.7203 18.1999 13.4803 18.0399 13.4803 17.9599C13.4803 17.8399 13.6003 17.7999 13.5603 17.6799C13.5603 17.5599 13.4003 17.5199 13.3603 17.3999C13.3203 17.2399 13.4403 17.0799 13.6003 17.1999C13.6003 17.0799 13.9203 17.0399 13.7603 16.9199C13.8003 16.8799 13.8803 16.8399 13.9603 16.9199L14.0003 16.7599C14.0803 16.7599 14.1603 16.7999 14.2403 16.7599C14.3203 16.7199 14.2803 16.6399 14.4003 16.6399C14.3203 16.5999 14.2803 16.5599 14.2403 16.5199C14.4003 16.4799 14.6403 16.2799 14.8003 16.3199L14.7203 16.2399C14.8003 16.1999 14.8403 16.2399 14.8803 16.2799C14.8403 16.1999 14.8803 16.0399 14.9203 15.9999C14.9603 16.0399 15.0003 16.0799 15.0803 16.0799C15.0803 16.0399 15.0803 16.0399 15.0803 15.9999C15.2003 16.0799 15.2403 15.9599 15.3603 15.9199C15.4803 15.8799 15.5203 15.9199 15.6403 15.8799C15.8803 15.8399 15.9203 15.8399 16.1603 15.8799C16.4403 15.9599 16.4403 15.7599 16.6803 15.7199C16.8403 15.6799 17.0003 15.7999 16.9603 15.9599C16.8803 16.1599 15.4003 16.3199 15.5203 16.4799C15.4403 16.5199 15.2003 16.5599 15.1203 16.5199C15.1603 16.6399 15.0403 16.6799 14.9603 16.7599C14.9603 16.7199 14.9603 16.6799 14.9603 16.6799C14.8803 16.7199 14.8803 16.7599 14.9203 16.8399C14.9203 16.8399 14.8003 16.8399 14.8003 16.7999C14.8003 16.8399 14.8003 16.8799 14.8003 16.9199L14.7603 16.8799C14.6003 17.1599 14.2003 17.2399 14.0803 17.5599C14.0003 17.7599 14.2003 18.2799 14.0003 18.3199C13.8803 18.2799 13.8803 18.2399 13.8003 18.1999Z" fill="black"/>
<path d="M33.7597 22.5599H33.7197C33.6797 22.5199 33.6797 22.4399 33.6797 22.3999C34.0797 22.4799 34.3597 22.9599 34.6797 23.1999C34.8397 23.3199 35.0397 23.4399 35.1997 23.5199C35.3997 23.6399 35.5997 23.8399 35.8397 23.9199C35.7997 24.0399 35.7197 24.0799 35.5997 24.0799C35.7197 24.4399 35.6797 24.7599 36.0797 24.9599C36.1997 24.9999 36.3197 25.1199 36.4397 25.1199C36.5597 25.1599 36.6797 25.0399 36.7597 25.2399C36.7197 25.1199 36.3997 25.2399 36.3597 25.3599C36.3197 25.4799 36.6397 25.6399 36.4397 25.7599C36.1997 25.4799 36.0397 25.0799 35.7197 24.8799C35.5997 24.7999 35.4797 24.7599 35.3597 24.6399C35.2397 24.5199 35.1997 24.3599 35.1197 24.2399C34.9997 24.0799 34.8797 23.9599 34.7597 23.8399C34.6397 23.7599 34.4797 23.7199 34.3597 23.5999C34.1997 23.4399 34.1197 23.0799 33.8397 23.0799C33.8797 23.0399 33.8797 22.9599 33.8797 22.9199C33.9197 22.9199 33.9597 22.9599 33.9997 22.9599C34.0397 22.7599 33.8797 22.5999 33.7597 22.5599Z" fill="black"/>
<path d="M26.2805 14.5601C26.1605 14.4801 25.9205 14.4001 26.0805 14.2401C26.1205 14.7201 26.6005 14.2401 26.3605 14.2801C26.3605 14.2401 26.4005 14.1601 26.4005 14.1201C26.2405 14.1601 26.1605 14.2001 26.0005 14.2401C25.9205 14.2401 25.8805 14.2001 25.8005 14.2401C25.8005 14.3601 25.8805 14.4001 25.9605 14.4801C25.9205 14.5201 25.4005 14.3601 25.5605 14.5601L25.4805 14.6001C25.4805 14.6801 25.5605 14.7601 25.5205 14.8401C25.6405 14.8401 25.6405 15.0401 25.8405 15.0801C26.1205 15.1601 26.0405 15.0401 26.1205 14.8801L26.1605 14.9201C26.2005 14.8401 26.2805 14.7201 26.3605 14.6401L26.4005 14.6801C26.4405 14.6401 26.4805 14.6001 26.5205 14.5201C26.3605 14.5201 26.3605 14.5201 26.2805 14.5601Z" fill="black"/>
<path d="M26.7595 13.84C26.6795 13.92 26.5995 14.04 26.5195 14C26.5195 14.04 26.5595 14.04 26.5595 14.08C26.6795 14.32 27.0395 14.12 27.1195 13.96C27.3595 13.56 26.7995 13.92 26.7595 13.84Z" fill="black"/>
<path d="M2.68004 18.6401C2.64004 18.5601 2.60004 18.5201 2.56004 18.4801L2.52004 18.5201L2.56004 18.5601V18.6401H2.48004C2.48004 18.6401 2.48004 18.6001 2.48004 18.5601C2.40004 18.4801 2.40004 18.4001 2.36004 18.4001C2.32004 18.4001 2.32004 18.3601 2.28004 18.3601C2.24004 18.3601 2.20004 18.4001 2.12004 18.4001C2.08004 18.4001 2.08004 18.4001 2.04004 18.4001C2.12004 18.6001 2.28004 19.0001 2.48004 19.0801C2.64004 19.1201 2.72004 19.0001 2.72004 18.8401C2.72004 18.8001 2.72004 18.7201 2.68004 18.6401Z" fill="black"/>
<path d="M19.9597 13.6799C19.9597 13.7599 19.7997 13.8399 19.7597 13.9199C19.7597 13.9599 19.7197 14.1599 19.7197 14.1999C19.7597 14.5599 20.0397 14.3199 20.2397 14.2399C20.1597 14.0799 20.3197 13.7199 19.9597 13.6799Z" fill="black"/>
<path d="M14.1601 18.52C13.8801 18.68 14.1201 18.72 14.1201 18.92H14.2401C14.2801 18.88 14.2401 18.64 14.1601 18.52Z" fill="black"/>
</svg>
