<svg width="26" height="32" viewBox="0 0 26 32" fill="none" xmlns="http://www.w3.org/2000/svg">
<path d="M21.9504 12.9364L20.4308 11.4208L11.5157 0.844855C11.0767 0.339637 10.4351 0.00282434 9.75973 0.00282434C9.08434 -0.0308569 8.44273 0.238593 7.93619 0.71013L0.912181 7.74951C0.439412 8.22105 0.169258 8.89467 0.203027 9.5683C0.236796 10.2419 0.54072 10.8819 1.04726 11.3197L11.6508 20.1779L13.1704 21.6935C14.3861 22.9061 15.9733 23.5123 17.5604 23.5123C19.1476 23.5123 20.7347 22.9061 21.9504 21.6935C24.3818 19.3022 24.3818 15.3615 21.9504 12.9364ZM1.65511 9.50093C1.65511 9.23148 1.75641 8.96203 1.92526 8.79363L8.98303 1.72057C9.18565 1.51848 9.42204 1.41744 9.69219 1.45112C9.96234 1.45112 10.1987 1.58584 10.4013 1.78793L19.384 12.4312L12.6639 19.1338L1.9928 10.1746C1.79018 10.0062 1.65511 9.77038 1.65511 9.50093ZM14.2173 20.6831L13.677 20.1779L20.397 13.4753L20.9036 13.9805C22.7609 15.833 22.7609 18.8306 20.9036 20.6831C19.08 22.5356 16.0746 22.5356 14.2173 20.6831Z" fill="black"/>
<path d="M20.1518 19.9175C20.4683 19.6019 20.4683 19.09 20.1518 18.7744C19.8353 18.4587 19.3222 18.4587 19.0057 18.7744C18.6892 19.09 18.6892 19.6019 19.0057 19.9175C19.3222 20.2332 19.8353 20.2332 20.1518 19.9175Z" fill="black"/>
<path d="M20.439 17.2415C20.7555 16.9258 20.7555 16.414 20.439 16.0983C20.1225 15.7827 19.6093 15.7827 19.2928 16.0983C18.9763 16.414 18.9763 16.9258 19.2928 17.2415C19.6093 17.5572 20.1225 17.5572 20.439 17.2415Z" fill="black"/>
<path d="M17.4585 20.1876C17.775 19.8719 17.775 19.3601 17.4585 19.0444C17.142 18.7287 16.6288 18.7287 16.3123 19.0444C15.9958 19.3601 15.9958 19.8719 16.3123 20.1876C16.6288 20.5032 17.142 20.5032 17.4585 20.1876Z" fill="black"/>
<path d="M14.5211 12.3637C14.6562 12.4985 14.8588 12.5658 15.0277 12.5658C15.1965 12.5658 15.3991 12.4985 15.5342 12.3637C15.8044 12.0943 15.8044 11.6228 15.5342 11.3533L10.1649 5.99799C9.89476 5.72854 9.42199 5.72854 9.15183 5.99799C8.88168 6.26744 8.88168 6.73897 9.15183 7.00842L14.5211 12.3637Z" fill="black"/>
<path d="M12.5957 14.2837L7.22644 8.92841C6.95628 8.65896 6.48351 8.65896 6.21336 8.92841C5.9432 9.19786 5.9432 9.66939 6.21336 9.93884L11.5827 15.2942C11.7177 15.4289 11.9204 15.4963 12.0892 15.4963C12.2581 15.4963 12.4607 15.4289 12.5957 15.2942C12.8659 15.0247 12.8659 14.5532 12.5957 14.2837Z" fill="black"/>
<path d="M24.1449 24.5228C24.7044 24.5228 25.158 24.0704 25.158 23.5124C25.158 22.9543 24.7044 22.502 24.1449 22.502C23.5854 22.502 23.1318 22.9543 23.1318 23.5124C23.1318 24.0704 23.5854 24.5228 24.1449 24.5228Z" fill="black"/>
<path d="M24.7875 28.9349C25.347 28.9349 25.8006 28.4826 25.8006 27.9245C25.8006 27.3665 25.347 26.9141 24.7875 26.9141C24.228 26.9141 23.7744 27.3665 23.7744 27.9245C23.7744 28.4826 24.228 28.9349 24.7875 28.9349Z" fill="black"/>
<path d="M21.8158 31.9999C22.3753 31.9999 22.8289 31.5475 22.8289 30.9894C22.8289 30.4314 22.3753 29.979 21.8158 29.979C21.2563 29.979 20.8027 30.4314 20.8027 30.9894C20.8027 31.5475 21.2563 31.9999 21.8158 31.9999Z" fill="black"/>
<path d="M20.8021 27.3182C21.3616 27.3182 21.8152 26.8658 21.8152 26.3078C21.8152 25.7498 21.3616 25.2974 20.8021 25.2974C20.2426 25.2974 19.7891 25.7498 19.7891 26.3078C19.7891 26.8658 20.2426 27.3182 20.8021 27.3182Z" fill="black"/>
</svg>
