<svg width="40" height="40" viewBox="0 0 40 40" fill="none" xmlns="http://www.w3.org/2000/svg">
<path d="M10.5695 21.3966C10.4402 21.3966 10.3109 21.3557 10.2005 21.272C10.1241 21.2158 8.36704 19.8642 8.46276 18.1684C8.51706 17.2119 9.1213 16.3857 10.258 15.7144C11.015 15.2677 11.4149 14.7713 11.4531 14.2399C11.5134 13.3419 10.5622 12.3822 10.1908 12.0878C9.92527 11.878 9.88017 11.4929 10.0882 11.227C10.2962 10.962 10.68 10.9146 10.9483 11.124C11.0247 11.1838 12.7891 12.5893 12.6763 14.3172C12.6119 15.2783 12.009 16.1032 10.8834 16.7698C10.1195 17.2198 9.71772 17.7129 9.68826 18.2351C9.6358 19.1005 10.5746 20.016 10.9409 20.2953C11.2092 20.5014 11.2612 20.885 11.0583 21.1546C10.9363 21.3134 10.7541 21.3966 10.5695 21.3966Z" fill="black"/>
<path d="M17.8806 16.2675C17.7508 16.2675 17.6219 16.227 17.5115 16.1432C17.4379 16.0867 15.6772 14.7355 15.7733 13.0397C15.8286 12.0832 16.4319 11.2569 17.5686 10.5857C18.3261 10.1395 18.7255 9.64398 18.7619 9.11123C18.824 8.21457 17.8732 7.25489 17.5023 6.96045C17.2363 6.75066 17.1907 6.36559 17.3988 6.09968C17.6077 5.83514 17.9906 5.7873 18.2589 5.99662C18.3357 6.05551 20.1006 7.46191 19.9851 9.18898C19.9229 10.15 19.3196 10.9749 18.1935 11.6416C17.43 12.092 17.0274 12.5847 16.9965 13.1068C16.9459 13.9722 17.8852 14.8882 18.251 15.167C18.5193 15.3731 18.5723 15.7568 18.3684 16.025C18.2464 16.1842 18.0651 16.2675 17.8806 16.2675Z" fill="black"/>
<path d="M25.1902 14.003C25.0613 14.003 24.9311 13.9625 24.8211 13.8788C24.7447 13.8227 22.9867 12.471 23.0829 10.7748C23.1381 9.8183 23.7419 8.99249 24.8791 8.32127C25.6356 7.87501 26.0355 7.37814 26.0737 6.84677C26.134 5.94874 25.1828 4.98905 24.8123 4.69462C24.5468 4.48483 24.5003 4.09976 24.7088 3.83384C24.9173 3.56793 25.3001 3.52238 25.568 3.73079C25.6448 3.7906 27.4102 5.19608 27.2979 6.92406C27.2325 7.88513 26.6292 8.71002 25.504 9.37664C24.7401 9.82704 24.3379 10.3198 24.3084 10.8419C24.2564 11.7073 25.1948 12.6233 25.5611 12.9021C25.8294 13.1082 25.8823 13.4919 25.6789 13.7615C25.556 13.9193 25.3742 14.003 25.1902 14.003Z" fill="black"/>
<path d="M34.0676 25.8588C33.9116 25.8588 33.7537 25.799 33.6341 25.6789C28.5553 20.5984 29.9967 15.103 30.0616 14.8721C30.1499 14.5454 30.4859 14.3518 30.8135 14.4447C31.1394 14.533 31.3303 14.8698 31.2443 15.1969C31.19 15.4012 29.9447 20.2548 34.5011 24.8126C34.7409 25.0523 34.7409 25.4401 34.5011 25.6793C34.3815 25.799 34.2264 25.8588 34.0676 25.8588Z" fill="black"/>
<path d="M5.37362 36.4002C5.31288 36.4002 5.25075 36.3905 5.19138 36.3726C4.98245 36.3077 4.82461 36.1352 4.77629 35.9222C4.36717 34.1233 5.3566 30.4401 5.75605 29.0806C2.60507 27.2119 0.262659 24.6567 0.159574 24.544C0.00172611 24.3705 -0.0429133 24.1226 0.0431438 23.9059C0.129661 23.6883 0.332609 23.5387 0.565009 23.5203C1.30271 23.4619 2.03488 23.4334 2.74359 23.4334C6.32623 23.4334 8.62032 24.1672 9.54486 24.5371C11.8808 21.7602 16.6945 18.1077 22.1971 16.2684C25.9808 15.0042 29.8171 14.3081 33.0021 14.3081C36.2345 14.3081 38.5677 14.9977 39.75 16.302C39.958 16.5316 39.9631 16.8789 39.7596 17.1136L37.5857 19.6388L39.4412 19.8017C39.6492 19.8196 39.8342 19.9434 39.9299 20.1283C40.0275 20.3128 40.0229 20.535 39.918 20.7158C38.1296 23.8474 32.8903 27.2349 26.5704 29.3475C22.7894 30.6099 18.9536 31.3064 15.7681 31.3064C14.1809 31.3064 12.8012 31.1394 11.6618 30.8077L5.78964 36.2369C5.67459 36.3441 5.52641 36.4002 5.37362 36.4002ZM2.01601 24.6691C3.03351 25.6316 4.77214 27.1337 6.78137 28.2576C7.03494 28.3993 7.15459 28.6992 7.06807 28.9762C6.73259 30.0403 6.02618 32.6567 5.9162 34.4504L11.0884 29.6677C11.2513 29.5154 11.4864 29.4657 11.6986 29.537C14.8146 30.5818 20.5832 30.0569 26.1815 28.1849C31.6583 26.3548 36.2539 23.5815 38.299 20.9325L36.2874 20.7563C36.0574 20.7361 35.8581 20.5902 35.772 20.3772C35.686 20.1642 35.7269 19.9213 35.8756 19.7465L38.4421 16.7648C37.3841 15.968 35.4849 15.5342 33.0021 15.5342C29.9464 15.5342 26.2468 16.2082 22.5855 17.4328C17.0728 19.2749 12.3051 22.9904 10.2075 25.6642C10.0253 25.8924 9.70501 25.9633 9.44454 25.8303C9.42245 25.8197 7.09707 24.6595 2.74359 24.6595C2.50429 24.6595 2.26268 24.6631 2.01601 24.6691Z" fill="black"/>
<path d="M29.497 23.4913C29.3696 23.4913 29.2407 23.4517 29.1303 23.3703L24.8251 20.1623C24.554 19.9603 24.4965 19.5757 24.7004 19.3043C24.9042 19.0329 25.2862 18.9776 25.5568 19.1787L29.8629 22.3872C30.1362 22.5887 30.1906 22.9728 29.989 23.2452C29.868 23.4062 29.6834 23.4913 29.497 23.4913Z" fill="black"/>
<path d="M27.0783 25.9209C26.9518 25.9209 26.822 25.8813 26.712 25.8003L19.9402 20.7553C19.6696 20.5534 19.6116 20.1692 19.8155 19.8973C20.0193 19.624 20.4013 19.5716 20.6724 19.7712L27.4446 24.8167C27.718 25.0187 27.7723 25.4028 27.5712 25.6743C27.4502 25.8362 27.2652 25.9209 27.0783 25.9209Z" fill="black"/>
<path d="M23.337 27.1717C23.2109 27.1717 23.0807 27.1322 22.9711 27.0493L16.2016 22.002C15.9287 21.8001 15.873 21.4168 16.0769 21.1449C16.2785 20.8721 16.6618 20.8169 16.9342 21.0203L23.7038 26.068C23.9767 26.27 24.0319 26.6528 23.8285 26.9251C23.7088 27.0871 23.5238 27.1717 23.337 27.1717Z" fill="black"/>
<path d="M19.2191 28.7963C19.0893 28.7963 18.9623 28.7567 18.8523 28.6748L13.4289 24.6341C13.1555 24.4322 13.1003 24.048 13.3014 23.7761C13.5053 23.5047 13.8914 23.4508 14.162 23.6505L19.585 27.6917C19.856 27.8932 19.9135 28.2778 19.7097 28.5497C19.5896 28.7116 19.4055 28.7963 19.2191 28.7963Z" fill="black"/>
<path d="M33.9338 19.4409C33.7152 19.4409 33.5053 19.3967 33.3037 19.3116C32.4874 18.967 32.1045 18.0198 32.451 17.2027C32.7915 16.4068 33.7685 16.0153 34.561 16.3516C34.9559 16.5177 35.2647 16.8305 35.4253 17.2303C35.5854 17.6278 35.5804 18.0644 35.4156 18.461C35.162 19.0554 34.5808 19.4409 33.9338 19.4409ZM33.9338 17.4479C33.7782 17.4479 33.6411 17.5404 33.5789 17.6825C33.4975 17.8753 33.5886 18.1017 33.7828 18.1826C33.9789 18.2723 34.2062 18.1697 34.2854 17.9816C34.3258 17.8868 34.3258 17.7828 34.2877 17.6871C34.249 17.5928 34.1777 17.5197 34.0842 17.4801C34.0345 17.459 33.9839 17.4479 33.9338 17.4479Z" fill="black"/>
</svg>
