<svg width="60" height="60" viewBox="0 0 60 60" fill="none" xmlns="http://www.w3.org/2000/svg">
<path d="M17.4 -3.05176e-05H42.6C52.2 -3.05176e-05 60 7.79997 60 17.4V42.6C60 52.2 52.2 60 42.6 60H17.4C7.8 60 0 52.2 0 42.6V17.4C0 7.79997 7.8 -3.05176e-05 17.4 -3.05176e-05ZM16.8 5.99997C10.83 5.99997 6 10.83 6 16.8V43.2C6 49.17 10.83 54 16.8 54H43.2C49.17 54 54 49.17 54 43.2V16.8C54 10.83 49.17 5.99997 43.2 5.99997H16.8ZM45.75 10.5C47.82 10.5 49.5 12.18 49.5 14.25C49.5 16.32 47.82 18 45.75 18C43.68 18 42 16.32 42 14.25C42 12.18 43.68 10.5 45.75 10.5ZM30 15C38.28 15 45 21.72 45 30C45 38.28 38.28 45 30 45C21.72 45 15 38.28 15 30C15 21.72 21.72 15 30 15ZM30 21C25.02 21 21 25.02 21 30C21 34.98 25.02 39 30 39C34.98 39 39 34.98 39 30C39 25.02 34.98 21 30 21Z" fill="white"/>
</svg>
