<svg width="24" height="24" viewBox="0 0 24 24" fill="none" xmlns="http://www.w3.org/2000/svg">
<path d="M10 13C10.869 14.1617 12.1996 14.8887 13.6466 14.9923C15.0937 15.096 16.5144 14.566 17.54 13.54L20.54 10.54C22.4349 8.57811 22.4078 5.45958 20.4791 3.53091C18.5504 1.60224 15.4319 1.57514 13.47 3.47L11.75 5.18" stroke="#2384B8" stroke-width="2" stroke-linecap="round" stroke-linejoin="round"/>
<path d="M14.0002 11C13.1312 9.83831 11.8006 9.1113 10.3536 9.00767C8.90653 8.90403 7.48583 9.43399 6.4602 10.46L3.4602 13.46C1.56534 15.4219 1.59244 18.5404 3.52111 20.4691C5.44978 22.3978 8.56831 22.4249 10.5302 20.53L12.2402 18.82" stroke="#2384B8" stroke-width="2" stroke-linecap="round" stroke-linejoin="round"/>
</svg>
