<svg width="32" height="34" viewBox="0 0 32 34" fill="none" xmlns="http://www.w3.org/2000/svg">
<path d="M30.65 20.2499L26.7667 21.2833L23.4333 19.3999V14.5999L26.7667 12.7166L30.65 13.7499L31.5167 10.5333L28.5667 9.74992L29.3333 6.79992L26.1167 5.93325L25.0833 9.81659L21.75 11.6999L17.6667 9.29992V5.53325L20.5167 2.68325L18.15 0.333252L16 2.48325L13.85 0.333252L11.4833 2.68325L14.3333 5.53325V9.29992L10.1667 11.6999L6.83333 9.81659L5.86667 5.93325L2.66667 6.79992L3.45 9.74992L0.5 10.5333L1.36667 13.7499L5.25 12.7166L8.58333 14.5999V19.4166L5.25 21.2999L1.36667 20.2666L0.5 23.4833L3.45 24.2666L2.66667 27.1999L5.88333 28.0666L6.91667 24.1833L10.25 22.2999L14.3333 24.6999V28.4666L11.4833 31.3166L13.85 33.6666L16 31.5166L18.15 33.6666L20.5 31.3166L17.6667 28.4666V24.6999L21.8333 22.2833L25.1667 24.1666L26.2 28.0499L29.3333 27.1999L28.55 24.2499L31.5 23.4666L30.65 20.2499ZM11.8333 14.5999L16 12.1833L20.1667 14.5999V19.3999L16 21.8166L11.8333 19.3999V14.5999Z" fill="#2384B8"/>
</svg>
