<svg width="60" height="60" viewBox="0 0 60 60" fill="none" xmlns="http://www.w3.org/2000/svg">
<path d="M39.21 0H20.79C3.99 0 0 3.99 0 20.79V39.21C0 56.01 3.99 60 20.79 60H39.21C56.01 60 60 56.01 60 39.21V20.79C60 3.99 56.01 0 39.21 0ZM48.45 42.81H44.07C42.42 42.81 41.91 41.46 39 38.49C36.36 36 35.22 35.64 34.59 35.64C33.72 35.64 33.45 35.88 33.45 37.14V41.07C33.45 42.12 33.12 42.78 30.33 42.78C25.71 42.78 20.58 39.96 16.98 34.77C11.55 27.15 10.08 21.39 10.08 20.25C10.08 19.62 10.29 19.02 11.55 19.02H15.96C17.07 19.02 17.49 19.5 17.91 20.7C20.07 27 23.67 32.4 25.14 32.4C25.71 32.4 25.95 32.13 25.95 30.75V24.3C25.8 21.36 24.21 21.09 24.21 20.04C24.21 19.5 24.63 19.02 25.32 19.02H32.19C33.12 19.02 33.45 19.5 33.45 20.64V29.31C33.45 30.24 33.84 30.57 34.14 30.57C34.68 30.57 35.16 30.24 36.15 29.22C39.3 25.71 41.55 20.28 41.55 20.28C41.85 19.65 42.33 19.05 43.5 19.05H47.79C49.11 19.05 49.41 19.74 49.11 20.67C48.57 23.22 43.23 30.75 43.29 30.75C42.81 31.5 42.63 31.83 43.29 32.7C43.74 33.33 45.27 34.65 46.29 35.82C48.15 37.95 49.59 39.72 49.98 40.95C50.31 42.18 49.71 42.81 48.45 42.81Z" fill="white"/>
</svg>
