<svg width="30" height="40" viewBox="0 0 30 40" fill="none" xmlns="http://www.w3.org/2000/svg">
<path d="M15.667 0.75C15.3337 0.333333 14.667 0.333333 14.3337 0.75C11.5003 4.41667 0.916992 18.75 0.916992 25.5C0.916992 33.25 7.25033 39.5833 15.0003 39.5833C22.7503 39.5833 29.0837 33.25 29.0837 25.5C29.0837 18.75 18.5003 4.41667 15.667 0.75ZM19.7503 34.6667C19.5837 34.75 19.417 34.75 19.2503 34.75C18.7503 34.75 18.2503 34.4167 18.0837 34C17.8337 33.3333 18.167 32.6667 18.7503 32.3333C23.667 30.3333 23.2503 24.3333 23.167 24.25C23.0837 23.5833 23.5837 22.9167 24.3337 22.9167C25.0003 22.8333 25.667 23.3333 25.667 24.0833C26.0003 26.75 25.0003 32.5 19.7503 34.6667Z" fill="#2384B8"/>
</svg>
