<svg width="34" height="30" viewBox="0 0 34 30" fill="none" xmlns="http://www.w3.org/2000/svg">
<path d="M16.9997 0C20.683 0 23.6663 2.98333 23.6663 6.66667C23.6663 7.88333 23.3497 9.01667 22.7663 10H26.9997C28.583 10 29.9163 11.1167 30.2497 12.6C33.5997 25.95 33.6663 26.3 33.6663 26.6667C33.6663 28.5 32.1663 30 30.333 30H3.66634C1.83301 30 0.333008 28.5 0.333008 26.6667C0.333008 26.3 0.399675 25.95 3.74968 12.6C4.08301 11.1167 5.41634 10 6.99967 10H11.233C10.6497 9.01667 10.333 7.88333 10.333 6.66667C10.333 2.98333 13.3163 0 16.9997 0ZM16.9997 3.33333C15.1663 3.33333 13.6663 4.83333 13.6663 6.66667C13.6663 8.5 15.1663 10 16.9997 10C18.833 10 20.333 8.5 20.333 6.66667C20.333 4.83333 18.833 3.33333 16.9997 3.33333Z" fill="#2384B8"/>
</svg>
