<svg width="1100" height="569" fill="none" xmlns="http://www.w3.org/2000/svg"><g clip-path="url(#clip0)" fill-rule="evenodd" clip-rule="evenodd" fill="#EDEEF0"><path d="M873.322 113.293l-.904 2.559 2.259 1.504 2.553-1.504-.9-3.159-3.008.6zM658.068 181.616l4.125 3.276 1.893-2.988.632-2.47-2.293-1.435-2.753-.403-1.604 4.02zM650.043 191.326l1.316 1.664 4.585-2.815-1.031-2.756-2.866-.115-1.604 2.47-.4 1.552zM751.6 148.652l6.921.901.3 3.462-2.708.752-3.157-1.957-1.356-3.158zM769.805 137.216l1.204 5.566h2.859l.601-4.964-2.859-2.407-1.805 1.805zM776.123 141.879v6.321l7.071-1.504 6.622-3.462-2.255-5.116-4.367-.602-3.308-.752-2.408 3.613-1.355 1.502zM778.382 106.674l2.108 4.514 13.538.149 3.914-7.222-2.56-5.567-2.858 3.162-5.567-.452-1.504 2.556h-3.008l-.451 3.009-3.612-.149zM773.115 84.104l-.901 3.311 2.709.601 1.05-2.859-2.858-1.053zM765.893 113.293l3.163 4.815 5.867 1.204.15-6.772-1.958-3.31-6.92-.449-3.61 2.556-5.566-.903-.452 3.762 3.308 3.462-1.802 2.106-5.269-4.364-6.32.603-.45 5.115.603 5.266 2.855 3.61 1.055 4.062 5.867 1.655 5.416-.451-.449-5.718 3.914.452 3.008-4.965 3.608.752 2.408-2.707-2.408-2.408-5.263-1.504-4.212-4.966 3.457-.903zM739.412 125.932l.904 4.063 3.61 4.212 2.257-.901-2.708-4.966-4.063-2.408zM895.537 116.982l-1.823 3.537-9.838 5.543-7.148-6.796-7.152-.714-10.196 6.617-6.971 8.583-2.506 8.76-4.647 1.431-5.724-2.861-5.541.536-2.862 3.756-2.504-2.147-2.325 2.506-2.857-2.684 4.108-4.112-9.653-.716-5.544 4.828 3.039 10.372-5.543 5.363v-8.046h-3.755l-3.755 3.398-.893-4.114 5.544-5.007-5.903.359-17.523 8.94 3.397 4.112-5.005 4.829 1.965 3.575 3.578-1.789.358 5.188 4.29 5.007-6.617 1.608-1.966 2.683 1.789 4.29-5.363.895-7.154-2.146-2.145 8.045-12.162-2.145v17.881l-8.58-1.429-13.235-11.981 4.829-3.397-8.044-11.981-5.187-2.503-7.867 2.681-8.761-3.396-1.253 13.589-15.912 6.795-6.08-4.114.892-3.216-16.27-.18-4.293 5.722-1.074 3.756-1.07-5.544-3.042-2.683-3.574 3.756-4.959 2.478-.274 3.407 2.316 3.088.045.063.017.075 1.051 5.508 7.663 10.839.061.087v7.16l3.91 4.691.219.26-.266.214-8.93 7.09-.515 4.115-.012.08-.043.066-2.092 3.138-1.578 7.64-.064.3-.3-.037-4.378-.515-7.069 5.757-.026.022-.031.016-2.374 1.225 5.605 8.57.047.073.008.083 1.903 23.954.012.138-.096.11-4.928 5.449 3.25 2.503.166.126-1.37 6.57 2.882 3.143.084.094v4.58l3.398 2.351.211.149-.087.244-1.637 4.351-.018.057-.036.043-5.108 6.183-.492 4.428h8.451l.093.074 3.621 2.842 3.881-2.586.254-.169.194.239 2.176 2.719.173.223-.014.017 2.851 4.319.183.282-.285.184-3.231 2.054v3.825l3.578.277 2.982-2.089.313-.215.172.334 3.697 7.088.041.075-.002.09-.302 8.421 4.752 2.675.22.122-.058.247-2.131 8.822 2.667 5.92 6.018 1.804.352.109-.146.342-4.597 10.734-.912 13.354 4.623 4.913 5.003-3.824.079-.062.11-.004 7.514-.299 2.68-4.772.215-.38.313.307 4.059 4.059 5.282-6.159 8.298-17.829.073-.157.173-.03 5.549-.925.093-.015.084.036 10.783 4.312.144.057.049.147 2.347 7.044 6.444-2.932.17-.076.157.107 4.006 2.774.075.053.04.086 7.256 16.455 9.429 17.477 5.934-3.881.026-.019.03-.011 6.164-2.467.18-.073.155.122 4.708 3.829 2.559-2.278.227-.199.222.203 3.771 3.482 3.472-3.47.1-.104.145.004 8.626.311.111.004.086.066 5.397 4.197 10.61-3.939.182-.065.147.122 3.535 2.948 14.6-6.692.1-.049.107.023 4.217.904 4.583-1.716-.57-3.428-.042-.238.215-.112 11.296-5.874-2.825-7.965-.068-.187.138-.148 3.794-4.066-1.571-3.925-7.224-4.724-.251-.165.14-.265 3.8-7.337-7.072-4.894-.304-.212.243-.278 3.294-3.847v-16.416l.215-.084 13.866-5.268.543-6.263.027-.284.284-.02 8.221-.545 1.87-5.08-.276-5.274-.013-.223 4.167-1.944-2.986-10.582-5.523-3.871-.196-.135.064-.227 3.625-12.834-5.021-13.399-.065-.174.111-.144 2.812-3.657.147-.191.223.078 9.76 3.344 6.229-1.353 2.178-3.81.081-.14.161-.023 7.38-1.094 1.316-4.733-12.281-25.477-.046-.101.019-.107 1.245-6.229.029-.129.107-.078 8.233-5.811-3.104-5.97-.117-.223.185-.173 7.971-7.473.083-.079.111-.011 7.098-.734 4.074-4.555.722-7.946-4.608-4.122-.103-.095-.008-.138-.244-5.137-2.942-4.41-.154-.235.208-.193 3.506-3.272-3.782-4.493-.209-.242.235-.215 9.217-8.47.043-.041.057-.021 4.146-1.707 3.074-4.494-5.807-12.093h-7.333l-.066-.028-5.729-2.49-.126-.058-.049-.128-2.99-7.724-.074-.185.131-.149 11.626-13.61v-6.686l-15.211-11.411zM913.581 27.888l7.712 9.138 1.687-1.686 2.104-10.543 2.524-4.92-2.805-3.796-7.014.561-4.208 6.326v4.92z"/><path d="M1032.61 119.852l-1.75-19.36-5.37-3.039 12.7-8.763-1.79-5.9-23.6-1.968-2.86 3.756-6.44.536-.71 5.007-5.187-.358V82.79l5.897-1.968 2.33-4.826-1.26-12.696-2.32-.893-2.864 1.786-.176-4.648-5.544 2.144-3.755-4.29 1.432-6.974 4.647 4.113 2.681-2.146 3.939 4.292 2.32-5.365-.53-6.437 4.29-3.576 7.51.716 12.51-9.477-3.04-3.578 6.26.895-.18-6.08-6.79 1.252-1.97-4.29-9.12-1.79 3.58-4.47-4.65-3.396 4.29-3.04-5.37-6.975-15.192 8.94-.896 7.332-4.113 5.365 10.191 4.112-5.539 2.504-16.452-4.47-19.133 12.695-28.608 15.556-7.69 12.518.715 3.753-5.187 1.43-7.328 6.618 5.186 6.437 4.647-1.43 6.975 3.934-.715 6.974-6.436.714-4.294 2.502-9.118-5.721v11.623l-9.3 6.975-3.589 6.951 15.435 11.577.136.1v7.261l-.082.095-11.58 13.552 2.87 7.407 5.537 2.407h7.613l.093.191 2.912 6.066 4.808.723.162.024.078.142 3.085 5.459 6.448-3.103.119-.057.127.04 6.048 1.934 4.589-4.107.087-.078.115-.008 7.097-.489 5.271-5.513-.965-5.315-.054-.286.281-.091 5.31-1.689 1.446-5.06.062-.216.223-.024 4.521-.476 1.427-4.281.058-.177.179-.041 8.33-1.96 2.17-3.858.089-.157.181-.013 12.456-.748.247-.013.086.233 2.881 7.924 8.67-2.648.05-.016.05.001 9.47.244 7.65-21.942.12-.365.35.178 4.61 2.429 5.9-1.789zM1091.13 218.047l2.79 2.782 5.42-4.451-2.37-.558-5.84 2.227zM1067.81 335.443l.44 2.089 2.69 1.739 1.31-3.305-1.48-2.436-2.96 1.913zM1076.33 331.445l-.43 2 2.95 1.128 1.57-1.739-2.87-2.52-1.22 1.131zM1074.5 335.793l-.69 8.259 3.22 4.175 2.95-1.393-.6-8.171-2.35-2.174-2.53-.696zM1079.11 354.136l-.43 3.044 1.39 3.043 3.83-1.739.52-1.998-5.31-2.35zM1084.04 378.306l-1.43 2.727 2.14 3.085 2.61-2.488-1.66-3.09-1.66-.234zM1084.27 393.618l1.43 2.374 2.01-.711.48-3.803-2.61-.592-1.31 2.732zM1086.05 399.789l-2.13 2.254 1.66 4.513 4.98-1.308-1.66-4.629-2.85-.83zM1082.73 418.544l-2.49 2.493.23 10.684.12 2.494h2.62l2.13-6.175-.47-6.052-2.14-3.444zM1075.25 438.962l2.61.119.83 3.44-1.9 2.97-2.49 3.56-.24 3.915-.71 4.867-.47 3.682-1.19-.592-.95-6.409-.24-7.958 3.21-3.323 1.78-1.542-.24-2.729zM1065.83 481.436l1.29-.569.52-9.275 1.59-1.855.31-2.423-1.7-1.081-2.62 1.234-1.44 1.135 1.29 4.071-.47 5.259 1.23 3.504zM1075.61 472.107l.87 2.007 2.62-.926-.56-2.782-1.44-2.011-1.44 1.391-.05 2.321zM1025.19 199.544l-2.09 6.26 7.94 8.903 1.11-12.797-4.32-1.948-2.64-.418zM1077.5 222.915l2.08 3.2 7.93 1.252 3.2-1.668-1.94-3.34-5.85-.696-5.42 1.252z"/><path d="M933.448 293.366l4.786-3.156 3.219-2.684 4.472-1.073-1.432-9.117 7.869-2.505 6.079-5.364 5.543-.179-4.111 5.902 3.935 3.398 5.719-6.439 1.432-10.191 5.182-1.968 4.112-5.364-4.287-3.219-3.756 4.651-3.933-3.757-1.073-18.417-3.396-10.907 1.069-8.048 6.618-9.477 3.754-.177 1.789-5.364 7.687 10.551 5.367-.896.357-3.935-1.253-8.046-1.358-5.666-5.164-2.912-.138-.077-.026-.151-.987-5.164-3.324-3.088-5.373.488-.251.023-.091-.235-3.198-8.366-4.59-.964-.132-.029-7.435-10.804-5.198 5.433-.094.095-.125.009-7.111.49-4.646 4.158-.144.127-.181-.059-6.101-1.952-6.606 3.182-.281.135-.154-.273-3.158-5.585-4.203-.632 2.718 5.662.084.174-.108.158-3.239 4.734-.057.081-.092.038-4.179 1.722-8.942 8.215 3.987 4.732-.23.215-3.533 3.294 2.835 4.249.051.074.003.095.244 5.094 4.627 4.142.126.109-.014.167-.75 8.221-.009.111-.072.082-4.237 4.733-.084.096-.127.013-7.114.736-7.705 7.223 3.119 6.004.135.259-.238.169-8.362 5.9-1.195 5.992 12.115 25.141 5.59-3.725.134-.09.154.053 12.657 4.219.185.062.039.188 1.405 7.03.022.118-.058.106-3.008 5.476 2.274 4.55 5.028-3.702.09-.065h6.77l.092.167 3.19 5.576zM943.213 510.195l-.685 20.872 3.756 6.436-14.663 1.255-4.829 10.549 13.589 13.947.358 5.186 7.509-7.152 12.874.177 9.299-7.51 5.545-11.085 2.681-30.401 3.755-15.913-2.498-18.62-3.674-1.043-.201-.053-.037-.202-.893-4.454-6.11-4.366-6.843 5.131 4.062 4.402 6.472.542.353.028-.049.349-1.47 10.084-.04.276-.276.008-4.594.174.696 6.428.019.201-.164.111-6.603 4.402-.072.046-.089.008-10.848.722-2.722 3.567 2.108 4.213.193.381-.415.093-5.494 1.211z"/><path d="M937.226 487.699l4.763 7.783-1.785 5.726 2.909 8.325 5.033-1.108-2.01-4.015-.092-.189.128-.162 2.931-3.852.093-.123.15-.007 10.911-.728 6.358-4.239-.749-6.937.358-.015 4.669-.174 1.379-9.457-6.248-.523-.128-.011-.087-.093-4.402-4.766-.251-.274.298-.219 7.331-5.501.198-.147.195.143 6.417 4.582.108.077.027.131.877 4.382 3.274.928 1.627-21.092-2.323-6.614-10.372-21.097-3.398-4.114-3.038-14.842-2.071-4.937-.726-.8-7.754-3.204-2.685-3.217 2.328-4.652-5.721-2.323-11.98-2.147-9.299 4.828-3.221 14.128-3.931-5.01-4.471 5.726-3.755-10.909-7.867 4.826-6.618-1.071.357-6.259L903.547 373l2.147-21.456 2.501-10.373-2.144-8.583 2.859-7.687-1.251-8.226 18.061-17.702 5.72 1.07.538-2.144-1.608-2.503 2.519-1.662-3.111-5.445h-6.167l-5.256 3.873-.316.233-.176-.353-2.531-5.064-.082-.155.086-.153 3.036-5.517-1.348-6.726-12.315-4.105-5.672 3.779-1.369 4.944-.062.208-.211.033-7.433 1.1-2.17 3.799-.072.129-.147.029-6.471 1.408-.089.018-.088-.029-9.619-3.296-2.553 3.316 4.997 13.329.038.104-.027.102-3.593 12.715 5.428 3.8.1.069.032.111 3.093 10.973.077.27-.254.119-4.018 1.873.269 5.12.004.07-.022.062-1.97 5.344-.074.204-.215.015-8.152.542-.538 6.188-.019.207-.198.074-13.845 5.261v16.206l-.082.093-3.136 3.658 7.01 4.852.242.169-3.935 7.587 7.06 4.616.089.058 1.728 4.316.076.197-.142.154-3.802 4.07 2.729 7.687 11.214-5.832.223-.118.177.186 3.697 4.005.151.162-.097.206-5.505 11.934.607 5.763.021.215-.185.107-4.136 2.363.277 4.716h9.414l.1.145 4.209 6.316 4.621-.29 7.537-6.937 1.212-5.139.058-.258h5.912l1.759-3.513.108-.216.239.036 4.004.615.204.03.061.202 3.698 11.398.065.193-.146.142-2.463 2.467-.076.072-.108.019-9.115 1.47 2.278 4.837.093.203-.15.166-3.632 3.933-.908 5.142-.016.089-.058.07-5.367 6.263 2.293 2.867.158.199-.154.204-3.627 4.84v5.848l9.675 4.837.074.038.045.066 7.788 10.783 4.87-4.62.101-.093.134.004 10.45.18.115.005.089.068 4.624 3.736 13.946-4.709.574-.193-.147.589-1.462 5.913z"/><path d="M897.664 497.403l5.349 8.452 5.721 5.007 12.157-5.899 1.607-5.009 9.123-10.192 4.974-2.282 1.306-5.262-13.547 4.57-.174.062-.138-.115-4.678-3.779-10.203-.18-5.018 4.763-6.479 9.864zM800.345 465.628l12.185-6.263 9.3 3.216 11.265-1.785 16.45 16.27 20.384 21.099 8.048-3.217 5.007 2.325 3.576-1.791 6.795 2.147 3.678-.479 6.449-9.82-7.826-10.841-9.787-4.889-.185-.097v-6.475l.065-.089 3.543-4.724-2.304-2.882-.17-.215.177-.208 5.486-6.397.908-5.148.021-.1.064-.07 3.544-3.844-2.367-5.032-.191-.4.437-.069 9.441-1.524 2.248-2.246-3.57-11.007-3.563-.551-1.738 3.477-.093.189h-5.793l-1.176 4.979-.021.1-.077.069-7.703 7.087-.089.076-.115.008-4.932.312-.189.013-.108-.162-4.212-6.322h-9.688l-.019-.315-.308-5.236-.011-.209.177-.099 4.128-2.359-.596-5.637-.008-.091.039-.081 5.452-11.815-3.374-3.655-22.669 11.789.577 3.457.046.27-.259.096-4.927 1.847-.093.035-.092-.02-4.209-.9-14.685 6.729-.193.089-.158-.135-3.551-2.96-10.602 3.94-.179.066-.141-.115-5.464-4.247-8.371-.297-3.597 3.594-.224.226-.234-.219-3.786-3.489-2.547 2.262-.211.189-.219-.181-4.78-3.878-5.946 2.377-5.788 3.79 7.315 4.875.284.191-.196.28-2.182 3.053 3.374 3.374 6.105-3.394.289-.161.166.289 2.921 5.17 4.682-1.111.377-.092.03.392.689 9.194 4.77 2.729.316.181-.207.298-2.682 3.799 7.597 11.395zM960.306 404.54l-.254-.607 10.55 5.725 3.397 8.937 5.186 6.616 6.256 10.015 4.47 7.329 5.187 3.936 1.608 4.648 1.431 4.113 6.433 3.04.9 6.436 6.61 8.406.54-7.332-.89-5.546 5.18-.356 1.97-.893 4.83 2.504-3.94-8.226h-5.72l-6.08-2.681-6.97-5.009-4.472-11.441-2.504-7.335 5.363-3.039 10.013-.533-22.527-15.202-15.914-14.304-7.333-13.77L953.611 373l-4.646-5.903-3.217 1.432-.715 3.399 5.897 4.112 3.221 4.827-1.789 2.324-2.863-.715-.892 4.113 5.721 4.289 5.724 13.055-.472-.193.726.8zM104.92 325.459l1.493 2.838-.256 6.588 4.551 2.432.022.011 3.291 2.116 3.047-2.108.093-.066.114.008 4.616.243 4.845-2.961.528-3.689.045-.322.326.042 5.416.723 2.859-.896.27-.081.126.251 2.136 4.274 4.814 1.715 1.067-.949.326-5.372-3.093-2.327-.125-.093-.011-.154-.222-3.465-1.967-1.859-2.999-2.196-.148-.108.011-.181.337-5.28-5.994-4.642-.104-.085-.021-.132-.551-3.535-2.274-1.085-.19-.091v-2.442l-.91-1.622-3.402-.205-.603 1.408-.07.167-.181.029-1.389.233-.192.032-.12-.152-.943-1.15h-1.452l-2.223 2.015v3.904l-.064.089-1.314 1.823 1.127.848.125.092.008.153.118 1.857.021.368-.369-.015-2.463-.107-.992 1.688.706 3.529-.123.126-7.673 7.768z"/><path d="M93.26 289.327l-2.583 3.207-1.25 1.967.535 2.681 2.681 1.252-.356 4.114 6.795 4.292.178 7.866 5.334 10.138 7.399-7.496-.662-3.304-.023-.123.064-.111 1.158-1.974.101-.173.2.01 2.292.101-.083-1.336-1.267-.949-.259-.197.191-.264 1.44-1.999v-3.706l-4.926-5.048-4.879-1.023-.061-.014-.055-.034-3.473-2.319-.1-.067-.034-.117-.867-2.931-1.762-.295-1.75.987-.202.113-.178-.15-3.598-3.098z"/><path d="M97.93 271.948l-2.96 1.275-1.43 2.861-2.148.538-.18 3.574 3.043 1.79-.74 6.683 3.6 3.098 1.649-.93.102-.056.115.019 2.084.348.205.034.061.202.893 3.015 3.316 2.216 4.914 1.029.099.022.071.074 4.87 4.989 2.194-1.989.096-.087h2.018l.101.122.921 1.128 1.016-.17.551-1.284-2.2-2.976-.06-.078-.009-.098-.212-2.905-2.331-.745-.141-.044-.062-.133-.695-1.506-.03-.069v-2.51l-1.089-1.418-.068-.092v-5.335l-7.824-10.223-9.74-.369zM109.008 248.059l-4.919-.405-3.575-3.398.356-3.219-3.396-.715-1.97 4.827-7.15 6.078.537 3.936 3.753-.178 2.86 2.323 1.074 5.007 3.22-.357 3.754.715v2.502l-4.668 6.143 8.853.337 11.022-8.069-.871-1.427-.051-.082v-2.011l.099-.097 1.311-1.314.03-.026.037-.023 1.872-1.105-.213-1.483-2.228-.16-1.212.953-.178.137-.192-.11-1.97-1.126-.083-.048-.047-.087-1.219-2.344-.033-.063-.003-.077-.096-2.156-.001-.094.048-.085 1.14-1.974-5.28-.341-.097-.006-.079-.059-.435-.319z"/><path d="M124.561 217.788l-.803 1.434-5.902 3.397-3.039 4.829-3.218 6.615-.356 5.363.893 3.221-2.325 2.86-.145 2.211.092.067 5.634.363 2.271-.999.065-.028h.075l4.46.093 2.435-2.252.104-.098.138.009 3.281.187.235.013.065.226 1.382 4.746 1.226-.72.101-.061.115.017 2.44.375.14.024.081.116 1.202 1.715 6.383-.629 3.812-2.453 4.229-6.065.163-1.464-2.91-3.547-.06-.073-.014-.094-.437-3.227-7.164-1.27-.075-.014-.065-.046-3.467-2.532-.064-.046-.035-.066-4.594-8.625-.008-.015-.006-.012-1.452-3.452-1.378-.73-2.779.719-.07.018-.063-.01-.593-.09zM108.312 272.058l7.779 10.168.068.092v5.334l1.086 1.418.07.092v2.59l.606 1.31 2.359.75 3.609.177 1.118-1.977.033-.057.048-.037 6.834-5.541.711-5.603-2.967-2.697-.048-.045-.03-.062-1.5-3.284-.033-.071.003-.075.182-5.7-9.01-4.774-10.918 7.992z"/><path d="M132.189 287.015l-6.633 5.378-1.19 2.1-.1.18-.203-.011-3.478-.169.194 2.663 2.166 2.928 3.665.223.182.01.089.16 1.04 1.853.045.078v2.196l2.24 1.069.158.074.026.176.559 3.58 5.869 4.553 2.849-1.316.756-1.766-.446-2.853-.825-1.741-.074-.155.085-.151 1.219-2.157.055-.094.096-.043 5.015-2.324 2.953-2.683.088-3.269-.703-2.193-2.641-2.094-.071-.059-.033-.087-.864-2.337-2.515-.252-3.95 1.84-.082.036-.092-.009-2.812-.282-.136-.014-.089-.105-2.412-2.933z"/><path d="M149.173 298.418l-.014.516-.003.141-.104.095-3.093 2.814-.038.034-.047.022-4.966 2.298-1.08 1.91.77 1.629.019.039.008.053.47 3.001.013.092-.037.089-.842 1.965-.051.12-.116.053-2.966 1.37-.325 5.071 2.863 2.097.01.007.022.019 2.082 1.974.096.089.008.131.222 3.442 3.003 2.256 4.396-.763 8.79-4.534 1.11-1.536.093-7.304v-.026l.003-.023.845-4.971.016-.088.057-.068 3.845-4.562-3.088-3.421-1.826 1.163-.04.025-.042.014-1.595.47-.137.037-.123-.07-2.437-1.407-.081-.047-.045-.082-2.16-3.96-3.485-.174zM128.904 268.838l-.179 5.646 1.438 3.143 3.045 2.769.128.118-.024.171-.73 5.763 2.448 2.973 2.585.258 3.948-1.838.081-.037.093.008 2.501.251.23-1.47.014-.083.045-.065 1.783-2.437.01-.013.014-.016 3.569-3.842v-2.54l.097-.096 2.137-2.139-.436-4.368-2.579-1.601-.084-.051-.042-.086-1.121-2.334-5.45.264-1.31 1.574-.185.221-.244-.148-4.741-2.884-1.327-.415-5.714 3.304z"/><path d="M150.388 280.592l-3.551 3.823-1.725 2.363-.255 1.61.874 2.365 2.648 2.098.08.063.03.096.751 2.343.016.055-.001.055-.062 2.289 3.682.185.188.008.088.165 2.205 4.043 2.234 1.288 1.413-.416 2.022-1.287.238-.152.188.21 3.412 3.782 2.294.793 2.069-.085 6.849-6.109.013-.011.019-.014 3.633-2.57-.848-2.293-1.396-3.814-7.018-11.82-4.281-.174-1.492 1.316-.193.171-.211-.141-1.689-1.126-.005-.005-1.667-1.167-.837.685-.059.045-.073.019-3 .749-.111.029-.105-.048-1.676-.752-1.148 1.069-.091.082-.12.005-3.332.18zM147.914 266.254l1.018-1.272 1.624-2.348v-5.515l-2.545-1.404-.071-.04-.048-.072-1.97-3.095-.037-.061-.011-.069-.485-3.149-3.505 2.256-.066.042-.081.009-6.659.656-.191.018-.111-.159-1.232-1.756-2.184-.337-1.489.876-.365.218-.122-.411-1.433-4.93-2.907-.166-2.429 2.247-.098.092-.135-.003-4.517-.093-2.18.96-1.301 2.256.085 1.987 1.141 2.191 1.689.966 1.135-.893.102-.081.129.011 2.623.188.27.019.035.267.281 1.967.034.221-.193.113-2.023 1.196-1.188 1.188v1.549l.933 1.529 9.134 4.84 5.842-3.376.124-.074.14.044 1.501.467.035.011.037.025 4.537 2.758 1.224-1.469.093-.114.147-.005 5.663-.275z"/><path d="M145.99 248.753l.532 3.459 1.883 2.959 2.646 1.462.173.093v6.114l-.06.086-1.686 2.437-.017.018-.994 1.242 1.088 2.255 2.637 1.638.138.085.015.165.47 4.689.015.157-.11.11-2.153 2.155v2.041l2.999-.163 1.223-1.134.163-.154.2.092 1.77.797 2.813-.704.977-.797.193-.16.207.143 1.869 1.309 1.476.985 1.403-1.239.099-.089.134.006 4.403.179 1.659-2.529 1.133-3.22-1.059-.978-.024-.021-.015-.018-1.968-2.531-.034-.045-.021-.058-1.592-4.874-.034-.104.034-.101 1.123-3.469.022-.066.043-.05 3.657-4.219.017-.017.011-.011 2.263-2.082.508-2.549-2.886-3.414-6.876.092-.1.001-.083-.053-7.595-4.876-.163-.107.013-.191.172-2.877-.9-.451-.768.77-.077.077-.112.016-6.495.902-.066.586-.009.085-.047.068-4.237 6.078z"/><path d="M175.733 255.482l-1.825 1.678-3.597 4.15-1.07 3.3 1.541 4.716 1.919 2.467 1.198 1.104.159.148-.072.209-1.217 3.467-.014.042-.022.03-1.668 2.547 6.847 11.535 4.776-2.856.075-.044.086-.002 6.058-.203 6.659-4.015-1.392-3.899-6.519-8.353-3.225-1.411-.065-.029-.048-.051-2.476-2.683-.187-.203.165-.222 1.817-2.422.764-3.055-1.514-1.512-3.272 2.697-.24.199-.214-.226-3.098-3.304-.081-.086-.008-.12-.24-3.593z"/><path d="M184.564 260.649l.441.44.133.132-.046.185-.825 3.301-.019.064-.04.055-1.69 2.256 2.242 2.429 3.237 1.416.078.033.051.069 6.605 8.46.035.047.017.048 1.403 3.933 2.151-.429 1.56-2.247.092-.131.16-.011 3.995-.307.143-.011.107.101 1.563 1.469 2.503-1.432.727-8.687-3.937-2.165-.163-.09-.009-.185-.199-3.577-1.82-1.637-2.913.971-.134.046-.126-.068-9.612-5.112-5.71.634z"/><path d="M194.339 261.422l5.737 3.051 2.957-.987.185-.061.144.128 2.063 1.858.103.092.008.138.195 3.53 3.968 2.182.189.105-.018.213-.731 8.722 11.831.1 1.455-.968.086-.059.106.003 3.892.104.23.005.078.214 1.078 3.042 3.144 1.376.06.026.044.045 2.684 2.73 4.369-4.452.102-.103.141.003 10.614.201.196-6.689.004-.123.082-.093 2.056-2.243-2.325-2.324-5.597 1.398-.13.035-.118-.07-8.463-4.954-.079-.048-.044-.08-5.118-9.414-7.696-4.66-11.775-.609-4.035 2.825-.076.056-.097.006-4.576.197-1.352 2.125-.041.064-.067.041-5.463 3.322zM176.67 251.548l5.059-2.289-.697-2.371-.023-.074.015-.077 1.556-8.567.055-.293.296.019 4.368.303 5.538-5.389-.724-6.395-5.411.034-.036.35-.485-.432-5.965-5.314-3.572.217-.13.008-.098-.082-4.273-3.492-.085-.07-.027-.111-.758-3.142-3.181-2.264-1.167.897-.538 2.915-.054.298-.3-.026-7.868-.675-.108-.008-.084-.075-2.638-2.311-7.678-2.009-.062-.016-.051-.036-4.046-2.928-.018-.013-.022-.022-2.137-2.145-2.074 2.074-1.215 5.064-.014.058-.03.048-2.272 3.508-.077.119-.137.028-5.333 1.03 1.337 3.172 4.549 8.542 3.343 2.439 7.331 1.3.241.043.032.241.456 3.377 2.94 3.582.09.109-.015.137-.047.418 6.214-.863.859-.859.17-.168.215.107 1.311.657.197.097-.012.22-.177 2.901 7.348 4.715 6.93-.092.158-.003.101.121 2.93 3.463z"/><path d="M209.427 252.411l-4.322-4.129-.142-.137.053-.192 1.666-6.065-3.211-3.941-2.792.148-.108.004-.088-.058-7.254-4.685-5.572 5.423-.108.105-.146-.011-4.222-.292-1.491 8.194.758 2.574.082.278-.264.118-5.393 2.441-.522 2.604.279 4.124 2.8 2.987 3.271-2.691.233-.192.212.212.816.818 6.343-.706.104-.012.088.049 3.159 1.679 5.734-3.485 1.404-2.206.095-.146.171-.009 4.651-.201 3.716-2.6zM201.374 380.384l-.19 4.059 2.143 5.186 2.505-.536 1.787-1.612 3.756 1.789-.179 2.505-1.073 2.324 1.252 1.43 3.576 1.251 1.43 5.006 1.43 6.259-1.608 3.936 1.608 3.216 4.114-2.5 1.787.535 1.252 2.68.894 4.652 2.68 1.966 3.222-2.146 3.04.18 5.721 2.502-.18 2.681 1.252 2.146 2.862.54 2.323-2.506 2.504 2.506 3.219 1.964-.716 5.007.716 2.862 3.218 3.574 2.681.896 2.684-1.613 2.146.717 1.61 3.22 6.615 2.147 2.86-2.147 2.862-4.112-5.059-11.073-.453-.308-.09-.066-.038-.108-1.179-3.538.185-.144 2.746-2.149.665-1.989-1.358-2.943-7.089-2.17-3.299.872-1.709 4.026-.097.222-.243-.024-4.279-.413-.12-.013-.083-.085-3.899-3.897-7.208-1.648-.151-.033-.07-.14-1.565-3.027-.107-.208.16-.169 2.812-3.004-1.765-1.863-.102-.104.007-.141.104-1.878.014-.234.225-.066 2.594-.77.277-4.405-3.708.185-1.804 1.204-.453.3-.063-.539-.626-5.216-.031-.259.241-.092 1.678-.655.189-3.093-1.681-1.876-.089-.1.004-.132.207-7.294-2.024-2.831-.062-.09v-9.84l-1.954-4.318-.045-.104.026-.107.9-3.901-2.579-2.905-.108.454-.004.02-1.333 4.405-.009.03-.015.032-1.024 1.942-.046.088-.089.051-7.598 4.256-1.9 3.5-.065.119-.128.04-5.225 1.638-.026.007-.025.004-2.672.397-5.355 4.647-.082.072-.11.009-7.737.604-.204.274zM163.795 377.259l3.414 3.251-.359 3.574-.892 2.863 1.965 3.578 3.935-1.789 1.966-3.937 2.326-2.5 5.544 1.072 3.04-2.504 2.143-.181 1.61 1.255 5.544-.357 4.112-1.074 2.765-.611.167-.224.096-2.427-.294-2.048-2.719-3.927-.068-.1.008-.12.401-4.786-3.093-3.89-.045-.058-.019-.068-1.125-4.406-.008-.027-.001-.03-.192-2.547-2.552-.851-.033-.012-.021-.011-7.581-4.097-.171-.092-.004-.193-.096-4.132-7.415-1.284-.059-.013-.052-.026-7.889-4.612-.164-.097v-2.766l-1.102-1.925-3.823-.396-.162-.015-.084-.134-5.614-8.837-7.465 3.849-.043.025-.05.007-4.326.75-.331 5.421-.008.138-.105.089-1.194 1.07.345 4.313 2.245 2.935 3.355.704.095.02.068.068 6.04 5.858.101.094v4.655l-.086.097-2.667 3.025-.158 2.85 2.154.154 2.487-1.066.446-.193.017.489.18 4.841 1.515 2.188 3.527.704.261.055.006.264.192 8.107z"/><path d="M194.684 355.211l.183 2.5 1.103 4.308 3.13 3.936.084.109-.011.125-.399 4.803 2.697 3.897.045.066.01.075.307 2.152.004.026-.003.036-.085 2.185 7.409-.578 5.345-4.639.072-.065.096-.017 2.74-.404 5.074-1.592 1.881-3.465.045-.087.082-.045 7.599-4.255.963-1.827 1.319-4.367.477-2.002-3.787-5.474-1.617-1.442-1.735 1.185-.056.038-.064.015-1.539.304-.212.047-.125-.181-3.082-4.429-.931.696-3.874 4.08-.032.034-.041.023-2.252 1.33-.118.07-.134-.034-2.867-.716-.077-.018-.061-.055-4.389-3.878-2.963-2.174-2.739.293-4.561.596-1.81 2.57-.079 1.123 1.441.719.22.109-.044.242-.511 2.974-.03.177-.167.072-1.931.829z"/><path d="M184.22 345.711l.093 4.067 7.39 3.993 2.614.87 1.87-.8.44-2.552-1.418-.707-.199-.1.017-.22.101-1.434.005-.094.055-.076 1.947-2.766.085-.119.145-.019 4.711-.613.008-.004 2.869-.304.127-.014.105.076 3.072 2.256.008.003.015.016 4.342 3.834 2.661.667 2.098-1.239 3.861-4.062.017-.021.024-.019.952-.715-2.855-3.522-.175-.218.18-.208 1.239-1.431-.269-3.058-5.76-.393-.157-.007-.092-.131-3.288-4.682-4.14-.198-.211-.009-.082-.198-1.518-3.742-4.522-5.39-.613.753-.804 4.016-.014.066-.037.054-1.022 1.535-.142.217-.246-.087-6.934-2.408v7.345l-.083.092-1.488 1.674 1.329 2.563.067.126-.048.138-.615 1.744-.026.069-.062.057-5.627 5.329z"/><path d="M169.128 306.955l-2.004.085-.062.003-.059-.022-2.222-.77-3.826 4.538-.826 4.855-.091 7.379-.002.104-.061.088-1.22 1.686-.046.066-.07.039-.848.434 5.492 8.653 3.833.392.171.018.085.148 1.23 2.149.044.078v2.562l7.67 4.482 7.463 1.297 5.553-5.26.541-1.53-1.367-2.64-.104-.204.152-.17 1.555-1.751v-7.247l-2.663-.181-.195-.015-.086-.177-1.87-4.044-4.285-.762-1.416 1.226-.3.259-.203-.338-2.664-4.405-.041-.066-.006-.077-.386-4.921h-4.74l-.079-.221-2.047-5.74z"/><path d="M180.105 298.141l-3.596 2.543-6.759 6.028 1.971 5.539h4.889l.025.308.404 5.144 2.416 4.001 1.242-1.072.12-.106.154.028 4.608.819.174.031.072.158 1.862 4.024 2.422.166v-.112l.438.153 7.133 2.478.848-1.27.806-4.031.016-.081.053-.066.91-1.111 1.479-2.467.087-1.757-1.974-1.133-.14-.08-.025-.161-.283-2.089-1.217-.685-.65 1.059-.095.149-.176.007-4.805.197-.634 1.585-.267-.044-2.458-.409-.163-.028-.075-.142-2.562-4.817-.03-.054-.005-.07-.706-7.054-5.509-5.578zM202.545 317.475l-.097 1.97-.044.07-1.415 2.359 4.663 5.558.036.039.019.05.655 1.615 3.452-.992.016-.007.033-.004 4.56-.582.479-3.536.021-.164.146-.081 2.356-1.331.042-.024.041-.012 4.695-1.173.479-3.923-1.286-6.926-8.937-2.88-5.114 1.448-.491 5.306-.013.151-.123.087-4.173 2.982z"/><path d="M178.203 291.475l1.314 3.585.912 2.463 5.741 5.813.082.083.011.118.711 7.103 2.455 4.616 2.03.339.517-1.289.081-.2.215-.009 4.841-.2.727-1.18.167-.273.281.158 1.637.923.144.081.025.165.283 2.088 1.826 1.044 4.006-2.863.498-5.378.022-.23.219-.062 5.194-1.469.253-8.068.308-.012 4.692-.204 2.525-2.02.183-.148.2.126 5.055 3.172 3.992-5.588.194-.273.272.199 4.749 3.432 3.304-1.458 1.445-1.715-2.814-3.666-5.786-5.886-3.218-1.407-.134-.059-.048-.137-1.049-2.959-3.558-.093-1.45.966-.083.056-.105-.003-12.203-.098-2.79 1.594-.214.121-.181-.169-1.633-1.535-3.691.283-1.55 2.223-.075.113-.134.026-2.504.501-6.916 4.169-.073.045-.088.004-6.062.201-4.752 2.841z"/><path d="M225.153 300.403l-5.004-3.139-2.425 1.939-.085.067-.108.007-4.491.193-.232 7.445 8.98 2.895.188.06.038.196 1.331 7.171.011.049-.006.051-.445 3.642 2.419-.957.034-.015.043-.004 7.512-1.043.075-.011.07.024 5.322 1.668.121.04.066.108 1.665 2.777 2.721-2.539-.202-5.945-1.206-2.915-3.644-4.046-9.382-1.65-.083-.013-.068-.057-2.192-1.775-.089-.073-.025-.112-.909-4.038z"/><path d="M242.963 321.927l-2.58 2.405-.3.28-.211-.353-1.812-3.021-5.13-1.608-7.398 1.028-2.719 1.076-.004.032-.223.053-4.878 1.219-2.17 1.228-.489 3.627-.033.251-.253.034-4.784.614-3.366.964.548 1.359 4.091.191.163.008.094.135 3.288 4.683 5.886.4.284.019.028.285.306 3.486.011.133-.092.108-1.151 1.328 2.698 3.328.02-.016.198.281 3.152 4.533 1.258-.251 1.888-1.292.217-.146.194.172 1.844 1.64.026.022.026.035 3.892 5.636.085.123-.033.143-.218.908 3.003 3.378.116.127-.041.169-.911 3.959 1.845 4.086h.822l1.165-2.62 1.46-3.236.093-.204.225.008 2.504.104.086.003.075.047 3.281 2.028.787-1.097-.588-3.616-2.326-2.325-.117-.119.022-.165.522-3.652.048-.322.322.039 6.086.722 4.951-1.585.647-4.059-1.755-.26-.125-.021-.081-.096-1.149-1.355-.23-.272.289-.211 2.601-1.902.133-.88-2.263-.27-.237-.03-.049-.232-.314-1.46-.027-.124.062-.108 1.32-2.355-.848-.638-4.404 2.404-.107.058-.118-.024-5.217-1.041-.14-.031-.077-.123-2.192-3.548-.023-.039-.011-.034-1.356-4.278-.014-.045-.003-.056-.095-9.779z"/><path d="M244.424 333.854l.633 1.993 2.089 3.386 4.96.992 4.484-2.447.186-.1.171.128 1.252.938.233.173-.141.254-1.399 2.5.236 1.106 2.371.283.344.043-.053.338-.207 1.358-.022.135-.111.08-2.428 1.774.839.989 1.934.289h3.086l3.136-2.838.103-7.162.005-.354.348.028 2.866.196 2.979-3.278 1.858-4.844.023-.062.044-.045 2.877-3.086 3.33-8.576-1.682-1.308-.022-.019-.025-.026-1.963-2.26-2.629.49-.164.03-.123-.116-3.459-3.255-5.387-.192-.091 1.863v.026l-.313 2.61-.016.129-.101.086-3.861 3.234-.163.136-.192-.093-3.071-1.432-2.385-.184-2.428 8.814-.058.208-.214.031-5.237.808-2.442 6.229z"/><path d="M266.479 345.703l-3.247 2.944-.097.085h-3.078l-.685 4.312-.032.2-.195.062-5.216 1.669-.071.022-.07-.005-5.835-.693-.452 3.166 2.285 2.28.075.074.016.111.626 3.859.022.136-.078.111-1.044 1.459-.182.253-.263-.162-3.474-2.146-2.193-.093-1.368 3.031h-.002l-1.25 2.814-.088.199h-1.136v9.368l2.026 2.836.066.089-.004.111-.207 7.279 1.688 1.881.092.105-.01.137-.207 3.444-.014.211-.2.078-1.635.639.531 4.42 1.428-.951.075-.049.093-.004 4.173-.212.372-.015-.338 5.378-.012.23-.225.07-2.592.767-.083 1.5 1.883 1.985.217.223-.217.232-2.864 3.061 1.388 2.681 7.152 1.637.095.018.065.07 3.882 3.882 3.915.379 1.677-3.95.067-.147.157-.041 3.337-.886.487-3.009.418-3.131.031-.23.223-.051 4.262-.993.49-3.427.01-.062.034-.058 3.545-6.052.05-.076.076-.046 5.948-3.339.154-.085.16.081 2.955 1.526h1.441l1.079-3.824.05-.178.174-.053 2.967-.919 1.642-1.296-2.293-2.385-1.34.626-2.186 1.146-.126.066-.134-.045-9.493-3.129-.055-.019-.049-.04-2.191-1.775-.061-.048-.033-.075-2.506-5.635-.052-.119.041-.122 1.147-3.339.04-.115.104-.062 4.486-2.712.093-.058.107.011 2.504.208.147.011.09.121 1.984 2.608.064.088.003.108.098 4.329 1.807 1.445 2.319-1.062.081-.038.088.007 2.192.209.09.007.07.055 1.463 1.041.016.015.022.021 3.372 3.269 1.569-.874 1.114-2.231-2.066-2.755-.05-.068-.014-.085-.314-2.189-.012-.108.048-.096 2.164-4.017.466-3.267-1.759-.264-.044-.009-.039-.013-6.158-2.718-.036-.015-.038-.026-2.607-2.091-.078-.06-.03-.097-.949-2.934-2.513.652-.219.055-.133-.181-1.148-1.566-.049-.066-.012-.081-.418-2.712h.003l-.369-1.653-2.826-.681-.234-.059-.019-.238-.291-3.674-6.59-.3-.321-.011v-5.195l-2.872.092zM286.777 289.118l-4.401 2.011-.128.057-.13-.049-12.523-4.827-4.227 4.738-.209.236-.246-.199-1.991-1.59-.126-.103v-7.658l-1.035-2.456-.08-.193.14-.158 10.03-11.213-.419-4.846-2.91-3.531-3.942.623-5.692 3.721-.089.059-.107-.004-5.071-.211-.712 1.782 3.594 3.383.245.231-.236.243-4.417 4.562-.005.008-2.181 2.378-.203 6.893-.008.332-.328-.008-10.797-.203-4.281 4.358 2.692 2.739.008.007.018.025 2.996 3.896.162.211-.172.205-1.669 1.981-.054.059-.067.031-3.548 1.566-.174.077-.155-.111-4.634-3.351-3.89 5.45.88 3.915 2.032 1.646 9.412 1.654.114.019.077.087 3.755 4.173.038.041.02.054 1.254 3.028.023.054.003.061.208 6.157.004.15-.004.004.104 10.336.38 1.197 2.212-5.644.071-.179.189-.029 5.213-.8 2.446-8.872.074-.265.27.024 2.716.206.057.004.059.028 2.936 1.372 3.596-3.016.298-2.468.104-2.174.015-.328.329.011 5.845.21.123.002.09.085 3.425 3.225 2.654-.493.183-.034.125.145 2.063 2.371 1.611 1.254 2.748-3.09 2.137-2.897-2.432-2.127-.112-.1V305.4l.203-.086 9.263-3.899-.313-4.988-5.526-7.309zM493.515 189.636l2.492.275.46-1.659-1.661-1.846-2.028.646.737 2.584zM501.449 202.456l2.951 1.108 3.046-.554-1.292-4.52-3.692 2.029-1.013 1.937z"/><path d="M508.404 204.706l-3.603.212-1.789 6.437-5.9-5.365-1.611 5.543 6.262 6.794.357 5.9-11.445-10.191-.356-6.437 4.826-5.9.715-9.477-1.967.894-2.325 6.437-3.575 3.218-3.755 1.074-3.577 5.365.179 14.124-8.762 13.769.537 8.404h8.942l7.331 8.762v8.404l-5.188 6.259 1.431 2.86 4.114 2.325-7.688 1.787-2.146-8.046 5.72-10.013-2.501-7.511-8.763-1.252-4.829 4.651-.535 10.549-8.048 8.225-7.33 2.683-5.007 5.365-16.807-10.373v-5.007l11.264 5.185 5.902-2.322 9.476-6.08 6.437-12.876-1.072-6.972 10.908-25.929 1.249-4.469-1.249-5.901 7.152-6.795 1.431-9.476-5.543-7.332 5.693-.744-.835-6.898-5.646-.419-.418 5.017 1.206 3.044-3.578-1.43-5.365 4.114-6.437 8.224-5.007 4.827-7.509 1.79-3.936 3.753 3.936 5.185-4.291 7.689-5.901 1.789-.18 2.683 5.187 5.364-1.789 5.005.896 3.22 1.965 2.861-6.616 6.078-2.145-3.396-1.789-7.689-6.982-11.205-3.999 3.33 2.349 4.177.091.163-.091.164-4.9 8.707 1.889 6.211.048.148-.085.127-3.1 4.789-.111.039-4.878 1.626-3.252 3.794-.094.108-.144.007-12.304.548-6.265 5.173-.087.072-.118.002-4.03.064-.361 10.463-.002.1-.059.084-4.817 6.779 3.121 6.587 11.857.897.099.008.081.062 5.66 4.382.123.096.006.157.177 5.702 1.998 1.833 13.578.724.151.008.09.118 4.2 5.295.07.085.003.109.36 8.659 2.31 3.019.072.096-.002.117-.174 5.681h9.1l.093.09 8.179 7.447 11.268 4.909.098.044.054.088 4.16 6.871 7.349 4.482 7.466.712 6.105-4.49.221-.166.204.189 5.559 5.202 5.71-.177.179-.008.103.153 4.29 6.256 2.217.17.123.012 4.204 4.205 8.515-10.82.534-6.974.009-.097.053-.072 5.634-7.784-1.041-6.263-6.592-4.944.036-.2 1.61-9.115-4.273-5.875-.075-.102.013-.127 1.348-12.662-5.36-6.97-.11-.141.055-.165 2.139-6.414-2.128-5.056-.148-.354.367-.098 6.915-1.862 2.926-7.431-1.532-8.762-7.231-1.807-.113-.029-.072-.093-6.645-8.771-.096-.125.039-.156 1.328-5.316.04-.155.151-.067 9.946-4.452.999-3.98-4.203-8.929-.046-.094.02-.106 1.061-5.848.046-.23.229-.038 4.351-.725-4.066-8.638-.025-.051-.005-.061-.066-.704zM359.417 417.612l5.019-.091 4.111 6.975 3.319.525.103-.113 1.092-2.916.03-.077.055-.051 5.874-5.509.909-4.177.02-.086.059-.066 3.537-3.904.126-.142.182.038 4.429.885 1.149-1.804.708-3.193-1.216-3.302-3.765-1.434-.156-.062-.045-.163-.559-2.046-.045-.165.109-.134 1.795-2.156.549-5.478.012-.119.088-.084 6.323-6.137.236-.231.232.231 3.532 3.536.199.196-.162.231-1.934 2.738 2.467.463.073.011.059.043 6.403 4.574 4.889-.728.111-.015.098.058 4.581 2.563 4.46.181 6.036-4.141-10.788-8.091-.064-.049-.034-.066-5.209-10.23-.006-.015-3.84-8.592-3-.708-.021-.004-.028-.01-6.324-2.605-.057-.022-.047-.044-3.17-3.004-.94 2.508-.084.223-.239-.008-5.048-.179-1.198 1.37-.041.045-.054.03-3.162 1.674-.106.053-.118-.023-2.452-.526-1.554 1.207-.09.07h-3.343l-.065-.026-3.993-1.74-1.718 3.263-.074.141-.158.032-5.66 1.108-3.643 6.29-.097.173-.201-.008-10.086-.33-2.748 5.812.167 5.668.008.258-.252.072-2.681.747-.922 4.49 2.295 5.31.005.018.01.031.935 3.504 4.244 1.298.073.023.053.049 3.933 3.563.106.096.004.14.116 3.666 5.792 5.063.096.083.015.132.368 3.316.003.024v.006z"/><path d="M311.63 411.432l10.071 2.334 5.72 3.578 3.399-2.682 5.007 2.682 16.808 3.22 6.11-2.789.006-.142-.353-3.166-5.8-5.076-.107-.095-.005-.142-.118-3.672-3.773-3.415-4.35-1.331-.177-.055-.048-.177-.977-3.659-2.324-5.385-.043-.097.021-.104.931-4.536-4.781-2.274-3.539 1.77-.241.12-.17-.216-2.888-3.728-6.192-2.147-7.044 2.155.374 1.982.006.03-.002.039-.121 6.386-.003.166-.132.095-9.58 7.159-.225 3.452 7.197 4.317.278.168-.159.281-2.776 4.954z"/><path d="M272.095 428.97l2.041-2.685 6.797-.538.535-4.829 3.217-1.785 3.4.178 4.113 3.219 2.501-2.323-3.038-5.01-1.43-5.005 3.395-3.578 3.04-.892 4.649 5.004 9.644.608.002-.026.009-.061.032-.055 2.666-4.759-7.094-4.255-.175-.104.014-.2.246-3.808.011-.153.122-.094 9.577-7.153.119-6.189-.836-4.41-2.561-2.45-1.381.846-.118.073-.135-.03-2.458-.617-.075-.018-.061-.05-10.187-8.733-1.773.446-.492 3.432-.006.057-2.169 4.024.286 2.001 2.141 2.855.124.162-.095.184-1.252 2.505-.045.091-.09.051-1.879 1.042-.215.12-.175-.174-3.53-3.424-1.37-.978-2.011-.19-2.425 1.111-.186.085-.157-.128-2.088-1.669-.123-.1v-.154l-.103-4.379-1.828-2.4-2.252-.188-4.289 2.592-1.067 3.105 2.419 5.437 2.08 1.684 9.307 3.067 2.064-1.082.014-.003 1.566-.731.213-.101.167.17 2.713 2.817.255.264-.29.228-1.982 1.567-.049.037-.06.02-2.851.884-1.167 4.137h-2.104l-.074-.036-2.867-1.485-5.715 3.21-3.466 5.912-.512 3.591-.033.227-.222.049-4.263.992-.387 2.903-.002.005-.474 2.952 7.045 2.155.144.045.061.136 1.474 3.193.057.119-.043.124-.737 2.212-.031.096-.08.061-2.641 2.07.959 2.877z"/><path d="M343.455 299.404l-1.744 2.991-1.252 2.865-.019.039-.022.03-5.744 7.603-.013.019-.019.02-8.618 8.448-.045.043-.053.023-7.249 3.297-.155 3.255 2.325 4.481.103.201-.148.169-3.141 3.639-.495 4.798-.011.096-.061.078-2.029 2.534-.093.115-.15.008-6.843.328-.988 4.448-.115.072-2.874 1.859-.237.154-.191-.211-2.748-3.053-3.819 6.048-.087.14-.161.015-6.287.662-5.388 6.374.956 2.966 2.492 1.993 6.079 2.679 1.977.295 2.091-.526.168-.043.127.111 10.262 8.796 2.244.56 1.479-.911.218-.13.186.177 2.826 2.7.079.078.02.103.359 1.909 7.079-2.165.102-.032.101.036 6.392 2.211.095.03.058.082 2.783 3.589 3.441-1.72.146-.073.145.068 5.048 2.406 2.507-.701-.161-5.487-.002-.079.035-.07 2.871-6.082.093-.196.22.004 10.107.33 3.515-6.066-2.589-3.886-.064-.097.011-.115.337-3.721V360l.983-6.718-6.915-4.448-.09-.057-.041-.1-1.182-3.044-.07-.18.123-.15 3.955-4.778-.817-4.072v-.002l-1.349-7.267-.027-.14.083-.115 3.314-4.64-.163-5.401-3.821-9.136-6.495-3.833-.124-.071-.03-.144-.994-4.467-1.802-1.833z"/><path d="M387.978 260.33l-3.877.062-5.578 4.941-.086.077-.116.006-5.042.265-.194.011-.103-.163-1.648-2.591-8.129 7.239-1.3 4.681-.027.097-.071.064-8.586 7.659-9.418 16.13 1.996 2.029.064.069.022.093.981 4.422 6.467 3.813.096.056.044.102 3.887 9.296.021.055.003.063.168 5.576.003.111-.065.092-3.297 4.616 1.326 7.124.845 4.223.031.158-.102.119-3.931 4.75 1.072 2.759 7.008 4.506.179.115-.029.211-1.014 6.93-.327 3.578 2.517 3.774 5.435-1.062 1.785-3.393.143-.274 4.495 1.955h2.981l1.585-1.231.122-.096.152.031 2.485.534 3.001-1.589 1.263-1.442.103-.119.157.007 4.97.178 1.03-2.752.177-.469.363.347 3.489 3.305 6.237 2.566 3.141.738.16.039.068.149 3.9 8.727 5.175 10.163 10.918 8.192 6.007-3.44.701-3.682.027-.138.119-.081 3.654-2.374.101-.066.118.017 4.292.515 3.751-11.969.028-.101.088-.064 5.293-4.017.136-.104.159.047 5.66 1.646.055.011.037.026 7.589 5.06 11.583.185h.11l.086.062 8.04 5.897 9.671-5.552.185-.107.177.124 5.004 3.576 5.671-.706 6.218-2.666 1.125-2.891-7.058-4.059-.167-.095v-8.999l-4.197-4.197-2.25-.174-.159-.011-.093-.134-4.279-6.242-5.659.178-.136.003-.101-.092-5.459-5.109-5.988 4.405-.1.074-.127-.012-7.669-.73-.075-.008-.066-.04-7.486-4.567-.073-.041-.039-.07-4.144-6.848-11.225-4.886-.05-.024-.042-.034-8.119-7.397H426.5l.011-.343.179-5.911-2.304-3.011-.061-.082-.006-.107-.359-8.654-4.04-5.092-13.545-.724-.118-.005-.087-.081-2.191-2.009-.104-.096-.005-.14-.178-5.685-5.458-4.225-11.95-.904-.194-.016-.08-.174-3.289-6.94-.083-.177.114-.157 4.87-6.858.356-10.33zM154.875 184.485l-1.615 1.292-.976 2.537.204 8.398.008.247-.236.077-6.2 2-.385 2.886-.035.264-.265.024-2.04.187-.559 2.047-.022.089-.063.059-.9.903 2.118 2.123 3.978 2.878 7.692 2.011.076.019.059.053 2.615 2.291 7.459.641.506-2.743.024-.124.102-.08 1.46-1.124.196-.152.2.144 3.484 2.478.1.071.031.123.76 3.154 4.082 3.339 3.58-.218.14-.006.101.09 5.585 4.974.264-2.551-.97-3.13-2.535-2.76-.174-.189.14-.217 2.411-3.73-.432-4.102-2.22-4.337-.054-.106.023-.112.603-3.032-2.119-.289-.223-.03-.055-.219-.5-2.008-3.795-.104-.19-.006-.09-.166-1.125-2.028-.088-.158.084-.158.966-1.827-.199-2.389-2.934-.982-.869 1.16-.114.152-.189-.02-2.023-.226-.105-.011-.08-.07-2.022-1.814-3.219.43-.222.029-.111-.195-1.859-3.286-2.122-1.011-3.672 1.841-.351.174-.115-.375-.979-3.1z"/><path d="M193.5 232.74l7.253 4.683 2.853-.149.166-.01.108.133 3.426 4.204.108.135-.046.163-1.659 6.039 4.382 4.185 11.849.613.085.005.069.041 7.842 4.75.078.043.044.083 5.116 9.413 8.265 4.836 5.648-1.411.185-.044.131.13 2.444 2.447 3.953-4.085-3.515-3.308-.164-.155.084-.211.885-2.211.089-.219.235.009 5.199.218 5.508-3.604v-3.816l-3.793-1.899-.267-.133 1.309-3.494-3.527-1.178-2.315 1.053-.321.145-.127-.329-2.795-7.091-6.857-.215-.147-.006-.094-.11-4.391-5.048-4.16-2.627-.027-.019-.024-.021-3.98-3.76-.009-.005-.012-.015-11.721-13.272-.101-.113.019-.148.885-6.636.014-.099 4.381-5.008-2.841-.948-.232-.076v-4.768l-3.522.043-2.378 2.272-.101.1-.141-.005-4.946-.225-.132-.008-.095-.096-2.319-2.433-2.219-.053-3.269 1.092-5.283 3.97-3.45 7.249-.098.208-.229-.019-5.749-.444-3.209 1.715-2.285 3.543 2.41 2.624.049.056.025.073 1.011 3.266.019.064-.008.067-.297 2.898 5.635-.036.299-.001.033.297.761 6.696zM153.863 168.047l-3.463.393-5.543 4.292-3.219 4.469-6.257-.357-3.755 6.259-4.47.537-.18 4.826-6.615 4.292.358 6.259 2.682 3.397-3.04 3.756.715 3.04 4.289 1.072.895 4.47-1.352 2.414.281.041 2.838-.732.123-.031.113.059 1.49.789 5.482-1.056 2.163-3.345 1.226-5.102.022-.096.065-.064 3.446-3.447.596-2.183.062-.222.23-.022 2.005-.182.378-2.832.026-.209.2-.065 6.165-1.987-.202-8.214-.001-.065.023-.061 1.033-2.686.032-.084.07-.056 1.985-1.589 1.987-6.156-2.602-4.206-.046-.072-.004-.088-.231-5.156z"/><path d="M187.781 159.281l-5.909.219-7.333 2.682-.356 5.9.713 2.682-2.144 1.789-1.611-4.113-2.86-.178-4.47-4.294-5.541 3.579-3.746.424.232 5.115 2.637 4.263.082.132-.049.145-2.032 6.297.976 3.092 3.472-1.738.147-.073.145.07 2.36 1.126.093.042.051.095 1.801 3.184 3.151-.424.151-.018.114.102 2.056 1.844 1.728.191 1.04-1.39.228.075 3.372 1.128.21.067.018.22.224 2.703.008.096-.046.085-.928 1.758.946 1.702 3.856.11.253.004.061.247.508 2.034 2.246.305.352.05-.717 3.613 2.19 4.288.03.056.006.06.398 3.788 2.937-1.568.087-.048.094.008 5.618.433 3.385-7.114.034-.071.067-.051 5.395-4.055.043-.033.051-.017 3.37-1.126.055-.017h.056l4.715.11 2.462-1.973-4.558-5.946-2.909-.542-.199-.037-.06-.194-1.383-4.582-1.819.174-.305 2.772-.043.372-.363-.083-1.461-.338-.141-.034-.072-.125-1.106-1.914-1.437.425-.209 3.259-.026.388-.378-.085-2.024-.45-.158-.035-.07-.147-1.145-2.397-5.63.108-.18.004-.102-.149-2.259-3.345h-5.489l-.1-.122-1.462-1.804-.171-.211.171-.21 9.137-11.052-.531-11.312zM266.566 137.015l1.492-9.166 2.148 3.04-.896 6.438 2.682 5.722.715 9.477 3.755 5.722.892 5.9 13.949 8.405 8.583-1.609 6.438-8.762 1.785-9.298-2.859-11.087.357-16.093-1.786-5.9-4.471-7.153-.715-5.544 1.966-1.251 2.683 3.755 2.682-1.788-2.504-4.826-9.476-6.44-13.59-1.25-2.683 1.967-6.795 3.934.178 5.363-4.649 7.51-9.118.179-3.038 3.821 6.763 9.015-.031.145-1.054 5.28 5.521 2.761.089.043.049.086.938 1.604z"/><path d="M249.896 174.234l-.434-2.933.537-2.502-2.328-3.219 2.15-3.935 6.613-8.224 5.546-1.789 3.216-5.544 1.21-8.037-1.3-2.218-5.665-2.83-.227-.115.051-.25 1.076-5.383-6.475-8.636-7.623 9.589-3.933-.179-5.008 3.397-3.574-.179-1.432 3.576-1.608 3.04-2.862 2.147 1.608 3.039-1.965 1.966-6.618-1.072-1.786 6.257-1.254 9.477-3.934 1.611-17.522-2.325-7.91.293.239 5.103 4.286-.849.053-.01.057.008 5.619.788.142.02.082.117 2.248 3.153.065.091-.003.111-.112 3.942-.003.118-.078.09-1.937 2.263.218 4.374.004.035-.006.028-.561 3.831-.018.132-.11.081-2.848 2.196-.813 2.143 1.105 2.317 1.485.332.199-3.104.016-.233.225-.064 1.909-.565.25-.071.13.225 1.164 2.015.956.222.296-2.67.03-.269.272-.027 2.36-.225.271-.023.078.259 1.404 4.649 2.833.526.126.023.078.1 4.462 5.826.668-1.837-.446-5.561-.006-.092.044-.086 2.023-3.941.021-.04.032-.034 7.305-7.883.133-.145.188.044 4.269 1.015.146.033.07.133 1.349 2.477.055.1-.02.111-.674 4.278-.019.112-.076.077-3.144 3.035-5.329 6.011-1.436 5.13 3.548-.041.337-.005v4.963l2.884.96 2.066-2.272.1-.11h2.752l1.049-4.823.019-.092.066-.069 4.91-5.123-1.196-1.994-.003-.005-1.548-2.654-.069-.121.036-.133 1.107-3.981.025-.086.058-.062 4.791-4.791.425-2.546.061-.361.354.093 3.296.881 2.03.405 2.526-2.737.042-.046.06-.029.399-.188zM325.201 210.456l-6.596 8.514 2.301 3.56.107.166-.09.173-1.488 2.763 1.075 4.523.058.238-.215.126-4.2 2.433-.177.102-.168-.11-5.443-3.482-5.204.216-.275.012-.063-.272-.855-3.862-13.115-10.104-1.454 2.184 3.65 6.011.068.113-1.133 5.213-.021.098-3.205 3.204 1.418 2.433.04.067.005.073.221 2.653.03.346-.349.015-5.15.213-4.045 5.324-.201 3.202 4.863 2.026 2.052-2.465.062-.073.09-.03 4.645-1.548.273-.089.129.256 2.994 5.991-.209.168-10.718 8.53-.215 4.714-.007.156-.125.093-3.757 2.877-.152.114-.176-.072-4.682-1.916-3.367 2.734-9.97 11.147.979 2.327.029.065-.001.064v7.404l1.616 1.297 4.17-4.676.154-.172.215.083 12.608 4.86 4.396-2.008 2.471-6.114.095-.233.246.025 8.359.797.129.011.089.099 6.194 6.986 6.791 3.526 9.518 1.044 3.757-2.073.197-.109 10.452 8.575 6.321.885 11.433-19.578.026-.045.04-.036 8.552-7.63 1.3-4.684.026-.094.071-.065 8.493-7.563.293-.26.21.33 1.752 2.755 4.734-.249 5.585-4.944.09-.084.122-.001 8.577-.134 6.258-5.173.086-.069.112-.005 12.274-.547 3.219-3.753.061-.07.087-.029 4.855-1.619 2.888-4.463-1.888-6.2-.041-.138.07-.122 2.255-4.008-2.361-.43-1.534 2.302-.1.148h-3.082l-3.77 3.499-.127.12-.174-.039-4.496-1.058-3.454 3.986-.09.106-.137.01-10.21.827-.12.011-.099-.073-44.296-31.639-4.26 1.331-.063.021-.067-.009-19.141-2.056zM257.563 161.841l1.379 1.515 1.865-1.246-.532-2.181-1.422-1.069-1.11 1.513-.18 1.468zM390.557 166.83l2.302-1.674v-3.762l-2.719-.627.417 6.063z"/><path d="M427.386 220.488l-3.407-6.273-8.941-9.656h-6.794l-.892 3.933-.179 5.903-4.831 2.86-2.683-.536-1.785 2.681-3.397-2.681 3.933-3.577v-3.932l-12.695-.18-6.259-4.649-9.656.894-3.397-4.649 5.723-.537 3.04-5.9-7.691-1.789-3.575 4.293-1.789-3.22-19.667-4.828-2.504 2.504-2.862-2.683-10.37 6.081-5.366-5.188 1.61-4.647-1.61-4.65 6.437-2.146 5.902 4.113 2.86-4.648-.179-8.406-7.868-8.58-2.323 8.404-10.73 6.971-.892 5.364-5.127 4.63 2.012 10.724 5.628 8.441 5.154.644.151.019.084.126 2.786 4.074 19.104 2.052 4.349-1.36.157-.05.136.096 44.331 31.666 9.954-.808 3.498-4.035.134-.153.193.045 4.521 1.065 3.733-3.466.097-.091h2.986l1.558-2.334.119-.182.215.038 2.803.511 2.278-4.046-2.393-4.254-.135-.239.211-.178 4.3-3.581z"/><path d="M411.672 201.951l-3.972.418-3.135-5.226.836-4.809 5.016-1.254 1.463 5.435-.208 5.436zM350.289 177.314l3.078 4.049 7.247.192.835-2.699-.45-4.048-3.848-4.176-5.514 1.928-1.348 4.754zM404.147 182.718l1.674-15.888 1.253-6.063 5.225-5.644 6.274-2.09 2.507-3.555-1.463-4.39 4.598 2.928 4.181-.419 1.048-3.135 2.717.208.207-3.136 3.346 1.255.627-3.136 2.509 2.718 1.882-2.508.626-3.764 3.556 2.509 2.297-2.09 4.81 1.045 3.973-4.599 30.52-.628 7.318-3.97.834-5.437-3.134-3.762-7.318 1.88-1.255 2.719-12.542-1.045-5.434-4.6-4.81 2.717-4.808-2.09-6.062 3.973h-5.018l-2.507 2.089-3.346-3.554-1.674 7.318-3.763.21-.416 2.924-9.406 2.928-3.347-1.462-2.09 2.507 2.718 2.718-3.765 3.554-6.063-2.508-.835 4.599-4.389-.208-.208 3.553-6.063 3.136-3.763-1.255-4.183 3.136-.206 4.598 3.969 3.973.209 6.061-3.762 3.765 2.926 6.479 3.345.419.21 2.926 3.763.837 2.508 1.254zM308.845 186.288l-5.383 4.861-2.504-4.65 3.576-.714-4.471-8.404-6.793 1.071-6.796-2.323-8.403 1.252-4.649 11.623-3.398-1.967-4.828-11.267.718-8.762-7.869.896-2.146 7.51 3.397 4.113-3.219 4.289-5.184-2.86-.894-6.035-.159.074-2.61 2.828-.127.139-.184-.037-2.212-.443-.018-.004-2.965-.793-.383 2.293-.016.107-.074.075-4.806 4.806-1.043 3.759 1.476 2.534 1.326 2.207.129.216-.175.184-5.021 5.24-1.085 4.994-.057.263h-2.997l-2.113 2.322-.012.016-4.562 5.213-.849 6.385 11.604 13.138 3.952 3.732 4.174 2.635.042.028.031.038 4.328 4.975 6.931.217.219.008.082.203 2.745 6.97 2.115-.961.118-.053.123.042 3.982 1.326.326.11-1.342 3.581 3.714 1.857.183.091v4.019l3.818-.603.188-.029.12.147 3.096 3.757.067.083.011.101.385 4.46 3.051-2.476.152-.125.182.074 4.691 1.918 3.484-2.666.214-4.708.008-.152.118-.095L295 250.484l-2.626-5.252-4.282 1.428-2.149 2.581-.158.189-.226-.093-5.308-2.214-.219-.09.016-.236.221-3.538.007-.099.061-.082 4.2-5.529.097-.124.155-.009 4.961-.205-.188-2.236-1.508-2.586-.132-.223.182-.18 3.248-3.25 1.056-4.861-3.689-6.078-.109-.182.115-.175 1.77-2.652.2-.298.281.217 13.49 10.394.096.076.026.118.825 3.708 5.031-.21.101-.004.089.056 5.359 3.43 3.811-2.208-1.049-4.404-.029-.123.061-.111 1.456-2.702-2.325-3.594-.13-.199.144-.185 6.708-8.654-2.653-3.877-5.158-.647-.153-.019-.084-.126-5.786-8.679-.014-.07-1.947-10.389zM487.673 64.252l2.222 2.082 3.052-2.635-1.525-2.22-2.22.555-1.529 2.218zM492.53 66.059l1.665 1.385 2.915-1.525.833-3.47-2.224-.553-3.189 4.163zM500.438 65.641l2.914 2.637 5.826-2.915-1.109-3.329-4.024-1.664-3.468 2.912-.139 2.36zM506.68 59.397l2.498 1.248 1.666-1.94-2.082-1.945-2.082 2.637zM517.642 52.462l.834 2.635 2.497-.971-.972-3.19-2.359 1.526zM509.316 45.941l1.389 1.248 1.802-1.388-2.634-2.497-1.387 1.111.83 1.526zM501.825 47.605l.415 2.081 2.777 1.804 1.662-2.497-1.525-3.052-3.329 1.664zM496.414 49.825l5.274 4.717-.696 4.022-5.272-1.804-3.466-4.02 4.16-2.915zM511.122 64.948l.693 3.052 5.826-.138L520 63.977l-1.942-3.192-2.498 3.608-3.745-.97-.693 1.525zM495.166 71.883l1.526 2.221 1.389-1.804-1.389-2.356-1.526 1.94zM480.736 56.623l2.359 4.022 2.776-2.634-1.391-3.33-3.744 1.942zM487.534 55.375l.556 2.358 1.525-1.11-1.248-2.635-.833 1.387zM485.038 42.196l1.804 2.496 1.664-1.665-2.775-2.497-.693 1.666zM468.667 37.2l.831 3.33 2.499 1.941 3.607-.275 2.221 1.803 1.386-1.666-2.776-2.497-2.497.763-5.271-3.399zM469.359 45.663l-.275 2.914 2.636 2.635 2.637 3.33.83-1.527-.693-3.19 3.608-.832 4.578 1.526 2.915-2.913-2.638-3.054-2.22-.831-2.358 1.802-3.192.418-1.94.833-3.888-1.111zM475.049 56.623l-.556 1.941 2.082 1.25.139-2.636-1.665-.555zM63.629 143.397l12.1 26.158 7.522-3.922.653-14.389-3.596-5.558-1.637 6.54-3.597-2.29-2.94-8.502-3.6 2.291-4.905-.328zM106.126 335.623l-.072 1.792-5.54-.175-2.148 3.215-2.862.359-3.394 6.078-5.722 2.148-4.114-6.08-9.656-1.254-4.47 4.652 9.655 5.722-2.86 1.964-5.007-3.04-2.869 2.259 1.714 3.385h3.677l.101.123 4.222 5.214.138.173-3.228 6.209 4.085 5.045.135.165-.097.193-.963 1.927-.236 4.024 2.4 2.948 2.377-2.733.217.082 3.713 1.393 1.348-2.248.148-.247.264.113 2.981 1.24.206.083v4.732l3.531 1.65.193.089v4.585l1.83 2.971 4.336-.454 1.406-2.581.096-.173h7.25l4.276-4.748-.211-2.32-3.955-.465-.276-.031-.017-.277-.241-3.382-3.673-5.14-.089-.126.041-.155 1.945-7.056-2.398-3.601-.199-.296 5.526-3.159.221-.122.18.177 1.881 1.881 3.633-.226 2.106-4.211-.736-7.108-.022-.202.171-.111 5.541-3.612-.939-8.707-4.325-.227-3.134 2.17-.181.127-.188-.119-3.474-2.236-4.248-2.266z"/><path d="M143.464 388.585l6.043-1.996.893-4.648 5.188-2.863 5.542-1.43 1.995-.608-.18-7.603-3.4-.681-.13-.026-.077-.112-1.646-2.378-.056-.08-.003-.096-.164-4.456-2.118.909-.076.03-.079-.009-2.562-.18-.327-.022.02-.328.183-3.293.004-.116.078-.088 2.659-3.012v-4.129l-5.866-5.689-3.381-.712-.122-.026-.075-.098-2.377-3.112-.06-.077-.01-.096-.348-4.36-4.922-1.757-.123-.046-.061-.12-2.068-4.136-2.657.832-.07.018-.073-.007-5.163-.688-.502 3.515-.022.154-.133.082-4.889 2.986.968 8.978.025.204-.174.113-5.541 3.612.725 7.001.009.096-.044.086-2.235 4.47-.084.173-.193.012-3.974.249-.149.009-.107-.109-1.806-1.804-4.685 2.678 2.285 3.428.085.123-.039.149-1.946 7.05 3.547 4.967 8.782.949.904-2.489.087-.238.253.019 2.981.249.246.021.051.246.944 4.485 3.374.451 2.992-1.889.115-.074.13.032 10.611 2.193.15.03.074.131 2.774 4.951z"/><path d="M117.43 429.427l5.613 2.046 15.02-.359-1.252-5.903 3.754-.715 2.863-16.093-2.505-3.397-3.756-.892.538-3.04 4.649-4.294-4.142-5.755 1.997-1.04 2.628-1.156-2.654-4.737-10.33-2.136-2.751 1.736 1.891 4.963.034.088-.022.095-1.962 9.32 2.424 4.363.074.131-.048.137-2.455 7.118.974 4.375.099.454-.462-.05-4.381-.489-2.314 1.011-.254.113-.154-.23-1.583-2.38-1.415 1.701 2.301 5.487.093.226-.19.159-3.111 2.563-.028.022-.026.012-2.776 1.468 3.619 5.078z"/><path d="M105.663 431.71l5.58.119 5.331-2.459-3.524-4.942-.22-.309.336-.18 3.082-1.632 2.892-2.381-2.284-5.445-.078-.185.131-.153 1.828-2.196.285-.343.25.369 1.675 2.512 2.137-.931.083-.039.085.013 4.011.446-.893-4.02-.02-.094.027-.083 2.437-7.064-2.41-4.34-.06-.113.026-.117 1.965-9.343-1.881-4.938-3.528-.474-.235-.03-.048-.232-.943-4.474-2.479-.204-.906 2.489-.09.247-.259-.028-8.794-.949.201 2.804 3.948.465.267.031.025.269.249 2.731.012.144-.096.107-4.471 4.971-.098.108h-7.154l-1.396 2.558-.085.153-.172.019-4.72.496-.21.025-.109-.181-1.986-3.227-.05-.083v-4.354l-3.532-1.647-.192-.088v-4.711l-2.51-1.045-1.342 2.236-.142.237-.26-.095-3.76-1.408-2.148 2.469 2.432 2.982 2.54-.462.208-.038.123.178 1.67 2.385 3.363.961.163.046.059.159 1.48 3.943 3.525 6.044-.022.119-.975 5.844 3.67 6.606.025.042.008.043 1.244 5.217.01.042-.002.046-.241 5.317 5.608 5.611.048.049.027.068 1.259 3.317z"/><path d="M71.125 450.304l-1.904 1.909.359 5.363 5.007 7.152-.358 7.509-.896 3.58 4.47 5.544 2.147-.898 1.251-2.142 2.681 1.427 2.863.896 3.398-2.146v-9.476l2.324-13.412 8.582-8.226.717-8.584-.896-3.755 4.159-3.131-1.221-3.217-5.457-5.454-2.003 1.557-.094.073-.124-.004-5.837-.243-3.167 2.491 1.12 2.239.134.273-.257.157-2.819 1.75 3.581 5.118 3.843.719.208.04.053.202 1.243 4.721.074.281-.267.111-2.984 1.241-.071.03-.08-.004-3.01-.232-3.873 7.503-.19.368-.32-.268-2.98-2.521-1.772 1.994-.11.123-.168-.015-7.356-.643z"/><path d="M69.561 443.602l1.27 3.424.53 2.628 7.011.615 1.877-2.109.215-.246.248.212 2.91 2.463 3.783-7.33.099-.196.22.019 3.151.243 2.639-1.1-1.115-4.237-3.766-.707-.133-.023-.08-.111-5.121-7.319-3.984-.235-1.908.848 2.17 8.167.072.27-.253.119-9.835 4.605z"/><path d="M67.172 440.174l.08 1.489 1.89 1.4 9.72-4.552-2.07-7.797-1.748.772-1.68 5.321-.03.096-.083.062-2.482 1.989-.046.035-.057.019-3.494 1.166z"/><path d="M59.652 428.912l.27 6.133 7.154 3.398.057 1.042 3.269-1.089 2.356-1.885 1.696-5.363.045-.141.14-.062 3.985-1.769-3.124-2.521-1.172 2.025-.125.215-.241-.062-8.104-1.963-6.069 1.942-.137.1z"/><path d="M54.371 416.585l3.764 4.156.179 5.721 1.14 1.77.027-.018.05-.021 6.211-1.985.088-.031.092.023 7.953 1.928 2.534-4.374-1.123-3.602H71.43l-.096-.089-7.362-6.623-5.226-.239-4.374 3.384z"/><path d="M45.163 399.438l4.388 7.357v4.471l4.374 4.827 4.513-3.493.096-.074.12.004 5.104.232-.233-5.348-.008-.189.154-.103 2.732-1.82-3.903-7.359-1.325 2.65-.104.207-.23-.023-4.718-.496-.146-.019-.09-.115-2.584-3.529-8.14 2.82z"/><path d="M43.57 391.79l-.246-4.22-.02-.321-.017-.317.318-.032.319-.03 4.365-.438v-2.963l.135-.1.135-.1 4.926-3.64-3.142-1.966h-.003l-.042-.027-.041-.028-.035-.037-.035-.042v-.004l-3.975-4.718-.095-.111-.096-.112.02-.146.02-.146.496-3.723.056-.413.053-.404.387.136.386.137 3.478 1.242.107.04.108.038.063.1.062.096 2.783 4.408h4.484l.019.317.018.311.231 3.935 2.758 2.298.126.108.13.103-.008.167-.007.161-.25 5.466-.009.208-.062.081-.064.084-3.975 5.218-.493.646-.492.649-.104-.809-.102-.808-.563-4.525-6.229 6.874-.168.185-.166.181-.219-.104-.225-.103-4.717-2.236-.178-.086-.179-.084-.013-.195-.013-.201zm-6.356-33.094l-1.967 2.323.895 2.682 2.86 2.147-.178 4.47 1.61 7.153-.536 6.613-1.254 10.908 1.432 1.968 2.86-1.253 1.88 3.151 8.5-2.947.232-.081.146.196 2.643 3.608 4.344.458 3.185-6.366 3.46-1.386-1.264-1.893-.11-.165 1.96-3.67-2.042-1.813-.264-.235.252-.249 2.403-2.404.234-2.116.02-.189.173-.077 2.732-1.244.275-.125.15.265 1.793 3.135 2.315-1.893.238-4.078.005-.064.032-.066.897-1.795-4.088-5.05-.138-.169.1-.193 3.13-6.016-3.986-4.921H68.37l-.091-.185-2.17-4.286-6.543-5.952-.894 8.583-3.576-1.789-6.797.358-2.503 3.22-4.792-10.099-4.149 5.271.36 6.26z"/><path d="M76.229 380.299l-2.474 2.027-.306.245-.194-.338-1.839-3.215-2.282 1.037-.24 2.167-.083.081-2.234 2.231 1.972 1.754.195.174-.124.23-1.894 3.552 1.38 2.07.23.342-.381.15-3.61 1.443-1.48 2.962 4.265 8.049.142.265-.252.166-2.822 1.88.233 5.387 7.252 6.526h4.092l.073.234 1.242 3.974.041.138-.072.128-1.222 2.112 3.545 2.858 4.117.243.158.011.094.13 1.172 1.679 2.592-1.609-1.107-2.212-.12-.242.213-.17 3.476-2.73.096-.079.123.009 5.84.242 2.019-1.57.237-5.263-1.22-5.127-3.702-6.665-.055-.104.016-.112.974-5.844-3.416-5.859-.012-.019-.011-.031-1.432-3.813-3.315-.95-.112-.031-.07-.1-1.617-2.308-2.523.462-.192.034-.123-.153-5.253-6.448zM43.988 387.53l.25 4.221 4.719 2.235 6.713-7.409.488-.537.745 5.962 3.973-5.218.25-5.462-2.87-2.389-.112-.096-.008-.144-.24-4.076h-4.223l-.096-.155-2.883-4.567-3.477-1.239-.497 3.725 3.972 4.716h.002v.004l3.557 2.224.415.259-.39.287-5.32 3.933-.002.003v3.227l-.3.032-4.666.464zM602.292 518.34l15.159 6.109 13.948 3.221 2.859 11.088 10.191 5.363 7.152-.181 10.196-6.078 7.867 2.504 8.222-.538 2.147 3.753 4.731.205 1.551-5.737.04-.142.13-.068 4.537-2.374-4.864-5.31-.239-.262.273-.219 4.744-3.84-1.8-5.409-.147-.439h9.484l5.528-4.608.115-.093.144.019 4.963.677 9.261-12.269.087-.119.151-.012 5.925-.453 1.785-2.905.057-.089.106-.042 5.074-2.077 3.865-4.775.443-5.093-4.055-2.706-.147-.1v-5.263l.132-.1 8.837-6.744 3.012-6.952.058-.135.135-.046 7.729-2.727-.438-6.179-4.752-4.298-5.293-.92-.198-.034-.065-.192-4.424-13.277-2.75-2.52-.215-.198.168-.237 2.74-3.886-.381-3.806-3.244 3.651-.122.136-.178-.026-2.751-.425-1.567 6.037-.045.189-.189.049-14.766 3.983-.219.061-.134-.185-2.478-3.376h-3.428l-.078-.044-3.193-1.704-1.735 4.12-.058.14-.141.045-7.033 2.344-.108.037-.107-.037-3.629-1.282-.857 4.082-.051.236-.234.026-7.152.896.623 3.52 4.359 3.67.253.216-.215.254-3.682 4.375-.685 6.61 2.374 5.586.381-1.116 1.455-9.099.007-.058.031-.053 2.373-4.199.112-.191.216.022 3.104.367.251.03.037.251.552 3.469.007.058-.007.049-1.455 8.177.543 7.963 1.264 4.344.036.108-.043.104-1.669 4.27-2.574 2.389-.82 1.474.874 2.785.035.111-.047.112-1.097 2.74-.062.157-.164.043-2.682.668-.169 3.044-.008.081-.043.073-3.469 5.66-.066.107-.119.04-5.191 1.606-3.404 4.661-.111.153-.185-.016-3.898-.343-1.039 5.911-.018.092-.061.07-2.921 3.289-.05.053-.066.028-9.352 4.138-1.236 4.233-.051.166-.164.057-6.025 2.008-.342.111-.085-.345-.862-3.446-6.363-1.24-.242-.047-.026-.242-.54-4.655-4.405-5.64h-5.978l-.092-.074-12.232-9.675-.038-.032-.025-.034-3.823-5.209-6.125 4.37-.087.065-.11-.004-3.5-.079.177.772.042.177-.129.132-1.878 1.878.685 2.734.044.17-.115.131-2.59 2.934 2.319 4.491z"/><path d="M515.764 544.191l23.011-8.654 8.225-.534 1.43 2.142 12.339 2.683.894 5.543 4.65 2.324 13.052 1.431 5.186.717 2.681 2.504 4.114-1.432 3.754-3.22 2.681-6.614-4.467-5.363.534-8.226 2.862-.896.179-3.755 3.755-.176 1.051-4.032-2.417-4.679-.104-.204.15-.169 2.624-2.974-.689-2.752-.045-.184.133-.13 1.879-1.882-.442-1.916-5.381.346-.114.008-.095-.069-13.468-9.391-.808 3.713-.052.242-.244.019-16.379 1.443-1.039 4.327-.045.197-.193.051-3.192.837.333 3.003.023.202-.174.113-4.422 2.83-.171 2.937-.014.246-.243.058-3.029.711-5.415 4.512-.113.096-.145-.018-12.597-1.642-.082-.012-.066-.046-7.737-5.449-3.56-.273-2.309 6.065-.078.198-.213.017-8.952.577.561 6.182 5.363 9.529.15.267-.251.172-3.726 2.583.857 5.867zM504.762 510.796l3.966-1.42 2.92-1.459 4.912-4.913-1.126-3.096-.034-.097.023-.1.878-3.516-1.176-4.714-.041-.16.098-.128 3.266-4.15 1.677-5.029-4.789-1.693-.159-.054-.049-.161-.9-3.002-.048-.161.101-.135 3.782-4.943-2.066-5.021.024-.1.9-3.897.035-.158.148-.07 5.04-2.374 2.489-2.485-5.284-10.276-.057-.107.026-.117.764-3.567-5.704 2.446-.133.057-.133-.057-7.408-3.259-8.474 1.168-3.215 3.799-.098.119h-.157l-8.716-.044-.181 23.469 3.162-.409.33-.041.041.335.586 4.686 4.424 4.716.048.055.022.06 1.464 4.103 4.111 2.934.293.211-.231.276-3.111 3.676 2.504 2.783.117.13-.042.172-1.197 4.795-.034.127-.111.073-3.154 2.008-.267 5.621 7.279.219.144.004.098.108 2.423 2.763z"/><path d="M466.091 525.989l.626 6.151 5.719 3.22.179 6.08 5.724 1.249 2.323 2.863 6.438-3.398 1.251 4.471 4.112 6.079 6.44.715 1.965-4.293 8.585-.357 5.69-4.232-.926-6.323-.029-.203.171-.119 3.647-2.525-5.247-9.328-.034-.062-.007-.073-.548-5.994-4.615 3.531-.264.2-.202-.261-4.197-5.393-.096-.128.035-.149 1.463-6.441-2.359-2.689-7.15-.213-.002.098-.255.049-4.497.9-.15.03-.122-.096-3.711-2.916-.248 2.982-.008.085-.045.072-3.599 5.395-.109.166-.197-.021-6.528-.59-5.226 1.741-2.107 2.897 3.247 1.625.141.068.036.151.898 3.897.082.36-.369.048-5.925.681z"/><path d="M420.886 472.8l8.637 41.458 4.648-.715 3.219-4.648 3.04 1.25.894 4.829 9.833 5.367 7.689-2.863 4.112 1.788 2.944 6.077 5.669-.655-.782-3.381-3.457-1.732-.352-.174.23-.319 2.4-3.297.062-.085.103-.034 5.396-1.796.065-.025.07.009 6.395.58 3.442-5.161.293-3.51.051-.619.485.384 4.077 3.201 4.093-.819.294-6.206.147-.092 3.185-2.028 1.123-4.498-2.579-2.865-.193-.215.187-.22 3.065-3.626-3.903-2.785-.088-.061-.034-.099-1.474-4.133-4.451-4.744-.075-.08-.014-.107-.557-4.463-3.102.396-4.013 3.65-.11.096-.146-.013-7.681-.733-2.315 1.782-.206.157-.201-.157-2.376-1.866-6.673 6.491-.232.226-.23-.226-5.207-5.021-.074-.07-.02-.092-.917-3.839-4.274-5.703-17.626 6.06-.122.043-.116-.051-3.739-1.604-1.708 1.196-.181.127-.185-.115-2.807-1.753-3.628 2.131z"/><path d="M407.396 455.221l9.253.208-3.756 3.935 7.748 12.805 3.713-2.178.176-.1.17.104 2.787 1.746 1.68-1.177.153-.108.169.073 3.787 1.625 17.735-6.095.228-.081.146.196 4.463 5.952.045.058.015.065.905 3.809 4.906 4.733 6.653-6.472.207-.205.229.182 2.4 1.885 2.212-1.7.104-.082.132.012 7.663.73 3.877-3.523.182-23.696h-3.08l-4.37 3.641-.265.222-.21-.274-1.86-2.419-.078-.099.008-.124.537-8.957-12.862-.361-.191-.008-.091-.165-2.322-4.286-6.678.181-.262.008-.067-.255-1.287-4.77-4.187-5.463-22.516-10.716v7.475l-.164.097-4.247 2.477 1.24 4.78.117.446-.46-.031-5.504-.365-4.285 1.784-2.503 4.467.554 12.927.005.069-.028.074-2.926 6.944z"/><path d="M372.578 425.177l2.588.751.176 4.646-1.608 1.791 1.073 3.22-3.576 4.111.716 3.04 7.689 1.786.357 4.112 3.755.181 2.86.715 2.86 3.217-4.112 3.397v2.863l4.112-1.251 3.577 1.967 3.218-.716 2.683-2.323 7.703-1.402 3.03-7.194-.553-12.951-.006-.092 2.648-4.731.059-.1.106-.047 4.463-1.859.074-.03.077.007 5.12.338-1.186-4.572-.065-.243.22-.127 4.297-2.508v-18.091l-3.073-3.25-.2-.215.186-.224 3.258-3.987-.289-2.473-6.056 4.155-.092.061-.108-.004-4.652-.189-.081-.002-.07-.039-4.548-2.546-4.912.727-.13.019-.111-.078-6.45-4.608-2.904-.544-.508-.094.299-.425 2.07-2.93-3.106-3.106-6.003 5.825-.542 5.459-.011.101-.067.076-1.748 2.101.47 1.715 3.746 1.427.143.054.052.144 1.303 3.535.031.088-.02.097-.744 3.347-.011.057-.035.05-1.301 2.046-.122.193-.223-.045-4.467-.893-3.345 3.697-.911 4.193-.022.1-.074.074-5.899 5.528-1.078 2.878z"/><path d="M497.398 377.975l-4.841-3.463-9.677 5.555-.186.109-.174-.127-8.134-5.964-11.577-.181-.101-.004-.08-.051-7.63-5.089-5.446-1.58-5.077 3.85-3.803 12.135-.083.265-.273-.034-4.446-.536-3.431 2.232-.704 3.693-.028.155-.135.077-6.134 3.512.345 2.942.015.14-.09.111-3.163 3.863 2.963 3.136.089.097v10.521l22.874 10.884.073.035.047.065 4.279 5.579.041.053.017.062 1.233 4.583 6.622-.178.203-.004.096.178 2.329 4.297 13.012.365.344.008-.571 9.522 1.572 2.042 4.199-3.496.096-.08h3.985v.004l8.56.041 3.197-3.778.082-.1.126-.015 8.695-1.2.092-.011.086.038 7.363 3.238 5.97-2.561.29-6.087.008-.153.121-.093 6.208-4.733.785-2.878-5.39-1.7-.078-.026-.059-.058-3.978-3.979-.014-.115-.599-5.097-.019-.173.133-.116 6.79-5.906.265-3.442-4.48-.563-.179-.022-.081-.162-5.019-10.338-17.214-2.67-.283-.043v-5.198l.074-.092 2.29-2.862-2.392-8.429zM519.598 462.181l-2.066.973-.837 3.637 2.058 4.995.071.179-.115.15-3.795 4.963.803 2.674 4.936 1.741.308.109-1.903 5.705-.016.058-.035.043-3.197 4.07 1.159 4.636.021.081-.021.081-.875 3.501 1.163 3.201.075.199-5.247 5.244-.035.039-.051.022-2.998 1.502-.027.011-.012.004-4.023 1.44-1.423 6.263 3.897 5.008 4.834-3.696.48-.367.024.278 8.756-.562 2.322-6.098.088-.231.248.02 3.668.28 2.602-5.486.057-.123.128-.047 4.667-1.749 1.411-3.11v-3.724l.176-.092 4.305-2.297-.281-3.643-1.784-5.356-.009-.031-.005-.014-.886-5.033-3.86-5.936-.101-.153.076-.167 1.678-3.636-2.95-1.877-4.983.585-.021.005h-5.648l-.078-.228-2.729-8.041zM511.411 196.83l3.044 3.966 2.122-.922-.648-5.536-2.121-1.105-2.397 3.597zM519.897 171.648l1.568 2.03 1.658-1.752-.735-2.768-2.122.646-.369 1.844zM578.2 73.89l6.694 1.228-1.562-5.017-4.684.11-.448 3.68zM583.778 86.495l3.68-4.907-.893-4.351 3.568-2.341 3.569-3.57 4.015 3.57 2.23 6.355 1.34 2.79-3.681 2.005v3.458l-9.144 4.126-4.684-4.238v-2.897zM580.431 91.957l7.026 2.677-1.004 3.345-3.234 1.785-4.684-3.234-.782-3.122 2.678-1.45zM586.677 103.111l3.122-7.697 8.587-4.237 1.561 5.912 2.23-.67.334-2.564 3.904 3.79-.334 5.018-2.899 4.684 2.452 2.9-.668 4.349-3.122 1.674-6.356-4.351-5.689-4.907-3.235-1.45.113-2.451zM609.091 107.459l-.779 10.037-3.793 6.914 1.452 5.241 6.244-5.018 6.578-.447 3.457-3.456.447-8.03-3.681-4.684-3.122 3.124-1.674-1.785.225-4.796-5.354 2.9zM627.49 121.957l.558 2.676 4.909 1.115-.223-1.896-4.909-3.01-.335 1.115zM590.244 142.03l2.566 1.896 1.896-1.115-1.337-2.788-3.125 2.007zM567.607 138.351l3.232 1.783.224-2.564-2.117-2.453-1.561 1.336.222 1.898zM587.568 149.056l1.228 1.339 1.56-1.452-1.782-1.894-1.006 2.007zM533.088 182.716l2.49 2.306 1.661-1.659-.647-2.584-2.12-.553-1.384 2.49zM539.084 185.668l1.384 1.016.919-1.752-1.567-1.753-.736 2.489zM542.681 178.936l1.383.922.831-1.569-2.123-1.382-.091 2.029zM545.172 175.247l1.569 1.198 1.475-2.122-2.399-1.752-1.292.922.647 1.754zM534.008 162.516l1.755 1.2 2.582-1.569-1.475-2.583-2.215-.643-2.121 1.842 1.474 1.753zM539.544 153.477l-.646 1.568 1.384 1.937 1.474-1.567.093-1.755-2.305-.183zM535.376 89.997l-.404 2.096 2.159 2.167 3.039.067-.137-2.706-2.091-2.774-2.566 1.15zM548.881 73.69l2.834.879 3.108-.81-1.825-4.06-2.297-1.83-1.619 1.558-.337 2.572.136 1.691zM632.207 500.769l-.627-3.294-.054-.291.281-.089 3.189-1.007-1.377-4.818-.085-.292.289-.108 3.813-1.432.281-.106.135.268 2.97 5.941 7.405-4.409.262-.154.177.247 2.559 3.581.002.004 2.195 2.008 2.862-1.073.061-.023h4.193l.102.158 1.964 3.116.128.196-.147.185-7.694 9.79-.192.251-.258-.181-4.675-3.289-5.729.538-.111.011-.096-.061-3.359-2.119-.019-.011-4.012-2.921-4.133-.347-.251-.019-.049-.25zm32.337-164.711l-2.162 2.401-.074.081-.107.022-5.139 1.081-4.656 2.071.257 5.167 1.343 3.486.05.13-.059.126-2.645 5.826 2.628 4.205.042.069.007.077.542 6.259.009.096-.043.086-4.085 7.895-.044.083-.075.047-6.799 4.186 2.554 4.344.112.189-.131.175-2.894 3.952 1.536 5.118 5.817 1.85.184.057.043.189.816 3.812.037.17-.119.128-4.274 4.538-.241 3.152 2.727.743.17.045.058.17 1.361 4.086.066.192-.148.146-3.204 3.206-1.338 4.811-.115.42-.374-.219-5.986-3.54-.088-.053-.047-.097-2.855-6.228-5.521 2.509-.792 5.261-.011.106-.07.071-12.149 13.233.531 6.112.021.243-.226.093-3.266 1.361-.295.124-.134-.289-4.67-10.114-3.201 4.185-.096.126-.156.004-12.604.54-4.989 9.187 5.612 8.817.075.116-.031.134-1.089 4.898-.049.227-.228.032-5.548.791-3.155 6.046-1.083 16.265-.022.343-.343-.036-5.353-.534-3.808 1.774v3.182l9.163 8.206 13.763 9.598 5.545-.361.284-.014.061.277.217.93 3.553.085 6.303-4.502.267-.193.194.267 3.992 5.443 12.102 9.575h6.076l.099.128 4.567 5.845.058.074.008.094.522 4.502 6.334 1.231.207.043.051.204.827 3.304 5.521-1.84 1.102-3.788h-5.974l-.092-.193-1.278-2.74-.127-.268.259-.153 2.74-1.648.057-.035.066-.008 3.757-.537 7.55-5.214 2.7-4.143.023-.036.034-.03 5.595-5.052 1.249-3.751.012-.034.02-.028 3.285-5.662.008-.013 3.997-6.174 3.452-9.457 2.581-7.591-2.7-6.348-.032-.081.009-.084.704-6.798.008-.1.067-.081 3.536-4.198-4.2-3.536-.092-.079-.021-.115-.704-3.988-.061-.347.35-.041 7.265-.908.887-4.22.077-.373.359.126 3.878 1.37 6.778-2.258 1.817-4.316.142-.336.319.173 3.444 1.831h3.601l.099.14 2.444 3.332 14.363-3.876 1.588-6.139.076-.292.296.045 2.871.44 3.628-4.082.505-.566.518 5.186 8.754 1.347 5.148-3.583.221-6.683-5.478-3.882-.135-.092-.006-.16-.47-8.437-.008-.174.139-.107 3.046-2.344.086-.066.107-.004 7.476-.218-7.025-15.928-3.771-2.613-6.61 3.004-.334.155-.115-.355-2.417-7.243-10.557-4.221-5.28.877-8.244 17.713-.019.039-.03.034-5.544 6.471-.235.273-.259-.252-4-4.002-2.555 4.543-.092.161-.189.009-7.594.304-5.155 3.944-.238.18-.206-.22-4.931-5.236-.1-.108.011-.142.923-13.558.004-.053.025-.055 4.472-10.441-5.805-1.74-.146-.045-.061-.138-2.771-6.161-.046-.104.024-.111 2.1-8.69-4.714-2.648-.177-.1.009-.204.308-8.54-3.482-6.671-2.774 1.938-.096.07-.115-.008-4.006-.308-.311-.024v-4.804l.158-.097 3.105-1.977-2.571-3.894z"/><path d="M632.291 497.641l.523 2.755 3.878.323.092.007.093.008.077.058.074.053 4.011 2.917 3.249 2.05 5.615-.527.124-.01.124-.012.099.073.1.068 4.414 3.106 7.352-9.361-1.743-2.758h-3.716l-2.806 1.05-.193.07-.188.073-.15-.139-.15-.134-2.189-2.009h-.004l-.026-.026-.027-.024-.019-.03-.019-.027-2.381-3.336-7.146 4.251-.308.185-.307.181-.158-.32-.162-.319-2.834-5.671-3.248 1.216 1.293 4.525.093.311.088.312-.313.096-.307.099-2.905.916zM725.862 522.895l1.639-4.219.073-.185.074-.189.2-.024.196-.023 9.249-1.13 2.655-5.529.192-.404.193-.404.33.304.33.303 2.121 1.939 2.208-5.224.069-.165.069-.161.174-.036.173-.034 4.686-.94v.004l.128-.026.13-.027.111.07.111.072v-.004l5.626 3.517.196.123.193.119-.085.447-.704 3.75-.039.213-.042.215-.212.05-.207.05-2.763.646 4.698 4.309h.004l.357.33.361.333-.441.211-.438.215-19.458 9.372-.165.081-.165.081-.153-.096-11.404-7.129-.235-.148-.234-.145.099-.259.1-.253zm-40.417 20.918l2.995.127 3.04 5.725 23.421 2.142 15.736-9.475 5.01-.178 1.608-5.185 7.686-7.152 10.73-.539 3.217 3.04 4.47-4.114 18.956 3.044 2.681-7.333 6.438-4.471-2.682-6.614 2.862-17.882 4.828-4.829-3.22-8.583-6.795-.715 4.83-8.94 8.517-5.911-7.833-11.749.13-.185 2.601-3.685-4.604-2.632-.15-.09-.017-.175-.672-8.984-4.544 1.081-.243.057-.123-.219-2.881-5.105-6.044 3.357-.22.121-.176-.178-3.747-3.747-.2-.199.161-.231 2.147-3.001-7.448-4.968-.07-.042-.039-.077-9.515-17.633-7.656.228-2.819 2.17.449 8.102 5.491 3.894.146.104-.004.176-.241 7.199-.135.096-5.391 3.752-.112.073-.126-.02-8.941-1.372-2.525 3.576 2.597 2.379.062.057.027.085 4.394 13.169 5.193.904.093.016.072.066 4.925 4.451.097.091.011.132.47 6.563.015.255-.238.083-7.834 2.763-2.988 6.899-.036.079-.065.055-8.776 6.695v4.582l4.071 2.711.162.109-.016.196-.47 5.395-.007.098-.064.081-3.987 4.921-.05.066-.081.031-5.056 2.069-1.82 2.956-.087.145-.17.012-5.944.458-9.284 12.303-.119.154-.193-.027-5.012-.681-5.51 4.589-.096.082h-8.796l1.729 5.185.073.219-.177.144-4.652 3.762 4.921 5.367.289.315-.381.206-4.793 2.508-1.476 5.451z"/><path d="M728.121 518.918l-1.639 4.216 11.248 7.032 19.458-9.376h-.004.004l-5.163-4.731-.466-.423.615-.147 3.37-.793.704-3.751-5.623-3.516-4.687.938-2.397 5.659-.185.436-.346-.32-2.466-2.257-2.731 5.693-.083.166-.179.023-9.43 1.151zM658.507 335.793l-.2.135-3.908-3.072h-8.967l.583-5.27.011-.1.062-.076 5.141-6.217 1.519-4.06-3.323-2.3-.143-.1v-4.675l-2.909-3.17-.115-.126.034-.167 1.319-6.326-3.659-2.814.244-.269 5.074-5.608-1.889-23.726-5.934-9.13 2.971-1.533 7.149-5.825.111-.089.136.016 4.22.497 1.53-7.41.013-.064.034-.052 2.086-3.125.519-4.173.018-.132.104-.087 8.773-6.964-3.77-4.522-.078-.093v-7.191l-7.644-10.811-.042-.056-.015-.072-1.048-5.506-2.347-3.126-.077-.101.013-.123.249-3.131-4.716 2.358-5.363 4.112-7.333 2.147-2.859 5.005.177-7.152 14.842-15.376 8.226-14.842 3.755-13.231-11.445-13.055-10.726-.356-3.755 5.363-4.293.716 3.219-9.12-8.762-1.073 2.86-4.112-5.363-4.47-4.828 1.789-7.689 11.443 1.789 6.794-8.225.537.178 2.145 3.038 4.472-5.898-1.253-3.041 2.861-6.795-1.251-.892-3.04-9.657.178.179 5.544-11.624 1.608-7.867 6.258-6.078.181-4.472 3.934-1.967 8.045 3.755 6.796-5.722 1.43-15.199-2.504-8.761-.178-2.682 4.828-.358 12.516 5.542 5.366 2.684 6.257h-7.689l-6.616-12.338-4.852.285.057.623 4.229 8.985.185.399-.432.071-4.552.757-1.004 5.513 4.207 8.94.051.108-.029.115-1.062 4.252-.041.156-.148.067-9.949 4.451-1.252 5.004 6.477 8.549 7.327 1.832.209.052.039.215 1.604 9.168-.469 1.187v-.009l-2.589 6.57-.061.159-.165.044-6.706 1.807 2.027 4.819.049.115-.038.118-2.125 6.367 5.339 6.936.082.105-.014.132-1.349 12.665 4.279 5.885.084.115-.023.14-1.599 9.052 6.371 4.78.104.075.022.136 1.088 6.527.026.14-.082.115-5.662 7.814-.537 6.983-.008.1-.062.081-8.737 11.103v8.642l7.134 4.1.25.143-.104.265-1.278 3.285-.053.132-.128.057-6.391 2.74-.041.015-.046.007-5.457.681 2.362 8.337.047.163-.109.134-2.324 2.904v4.397l17.104 2.657.174.026.075.159 5.017 10.326 4.617.576.318.039-.026.315-.3 3.897-.011.14-.102.087-6.762 5.883.566 4.805 3.759 3.759 5.617 1.774.303.096-.083.308-.9 3.296-.029.112-.089.066-6.174 4.705-.292 6.14-.008.207-.034.012-.839 3.915 5.343 10.387.111.215-.172.172-2.7 2.696-.037.044-.053.022-2.279 1.074 2.672 7.886h5.145l5.073-.596.116-.015.1.066 3.296 2.096.248.158-.124.263-1.721 3.73 3.797 5.841.039.057.012.066.896 5.078 1.787 5.367.014.043.002.039.301 3.896.018.217-.193.104-4.321 2.299v3.471l-.029.064-1.498 3.299-.057.126-.131.05-4.669 1.751-2.52 5.321 7.515 5.29 12.373 1.617 5.367-4.476.061-.049.076-.021 2.863-.672.167-2.855.009-.17.144-.092 4.389-2.808-.374-3.366.278-.074 3.28-.861 1.046-4.37.057-.236.238-.023 16.371-1.438.819-3.77-9.141-8.188-.111-.104v-3.893l.192-.092 4.082-1.905.085-.039.088.008 5.103.513 1.064-15.991.007-.065.031-.066 3.267-6.259.08-.155.168-.022 5.489-.785 1.007-4.539-5.641-8.865-.104-.166.092-.174 5.173-9.524.09-.166.189-.008 12.634-.537 3.445-4.501.336-.44.23.5 4.765 10.323 2.745-1.142-.524-6.018-.01-.147.1-.107 12.176-13.261.793-5.287-.035-.169 6.526-3.002.138.304 2.951 6.433 5.524 3.267 1.247-4.479.023-.088.058-.061 3.123-3.12-1.238-3.718-2.825-.769-.264-.073.019-.274.273-3.538.012-.117.079-.087 4.237-4.498-.742-3.456-5.802-1.846-.169-.054-.051-.166-1.634-5.442-.047-.159.1-.134 2.863-3.906-2.608-4.439-.166-.281.277-.173 6.997-4.305 3.995-7.721-.528-6.092-2.682-4.286-.092-.149.074-.162 2.666-5.863-1.312-3.41-.02-.049-.004-.053-.272-5.44-.008-.229.208-.092 4.897-2.176.034-.015.036-.009 5.063-1.065 2.189-2.432-1.81-2.261-3.831 2.55zM1077.53 327.582l-1.43-17.882-1.97-8.226-5.9-5.9.54-8.762 3.03-2.504-10.19-11.801.18-8.225 4.29-4.649-1.07-4.648-8.58-2.504-8.76-15.556 2.14-1.432 2.69 3.755 4.28-2.682-6.61-6.258-3.58 1.967-5.71-3.706-.09.108-2.96-6.952h-5.9l-.71 4.112-3.76-.358-12.16-24.317.72-7.689 4.83-1.073-3.58-14.304 7.69 6.079.18-17.167 6.08-6.257 9.11-.178-5.18-12.698-2.48-27.348-5.9 1.789-.13.04-.12-.064-4.39-2.311-7.6 21.808-.08.23-.24-.008-9.66-.247-8.919 2.725-.3.093-.108-.298-2.904-7.988-12.026.722-2.155 3.827-.073.128-.143.035-8.289 1.95-1.436 4.308-.066.202-.215.022-4.509.476-1.431 5.015-.05.171-.169.053-5.205 1.657.933 5.122 7.475 10.865 4.641.976.177.037.066.17 3.172 8.301 5.273-.482.145-.013.107.102 3.518 3.263.079.074.021.108.976 5.118 4.848 2.738 3.359-3.133-9.118-10.907 2.143-7.153 8.764-3.04-4.652 6.976 1.074 5.364 6.974 4.827 3.218.178-.178 5.006 3.043.718-2.865 14.304 3.225 5.363 1.07 16.63 2.5 10.729 3.4 10.729-3.94 4.291 1.25 4.113-2.14 2.861 5.54 6.436.9 10.192 7.6 8.591v-.001l9.03 10.186 49.35 33.081zM334.736 301.637l-.091-.012-.072-.059-10.178-8.349-3.65 2.015-.093.052-.104-.013-10.026-1.139.011-.069-6.688-3.472-.055-.028-.041-.048-6.149-6.934-7.982-.76-2.359 5.833 5.637 7.452.059.079.005.101.335 5.324.015.234-.22.09-9.276 3.907v3.125l2.546 2.227.232.199-2.914 3.899-.007-.026-2.534 2.846-3.421 8.81-.023.061-.042.046-2.88 3.082-1.853 4.845-.023.057-.042.05-3.13 3.438-.107.121-.163-.009-2.675-.183-.094 6.601 2.994-.092.343-.012v5.244l6.565.297.295.015.023.292.295 3.723 2.789.674.202.05.044.201.417 1.881.007.02.405 2.632.964 1.318 2.498-.65 5.526-6.537.083-.104.136-.012 6.259-.656 3.968-6.288.239-.372.291.327 2.852 3.17 2.52-1.632.985-4.428.056-.25.252-.011 6.948-.331 1.872-2.339.498-4.805.011-.104.068-.078 3.062-3.547-2.261-4.362-.041-.082.004-.087.169-3.548.011-.204.183-.084 7.384-3.355 8.555-8.392 5.711-7.557 1.068-2.448-6.198-.87zM40.125 345.315l-3.998-8.915-7.132-.61-3.961-6.388 6.185-3.481-.728-4.392 1.505-3.692-3-7.699-.636-4.936h-4.576l-2.517 2.009-8.332-3.859-7.854-.612-1.004 2.462 4.674 4.936-.533 3.926 2.49 2.304-5.627 5.161H1.753L0 323.864l5.081 7.584 8.73-.674 4.945 5.626 4.145-.61 4.586 2.348-.51 3.968 6.304 5.059 6.844-1.85z"/></g><defs><clipPath id="clip0"><path fill="#fff" d="M0 0h1100v568.493H0z"/></clipPath></defs></svg>