<svg width="184" height="80" viewBox="0 0 184 80" fill="none" xmlns="http://www.w3.org/2000/svg">
<path d="M162.518 39.762H152.453V40.714H162.518V39.762Z" fill="white"/>
<path d="M128.582 11.6537L130.695 10.6796C130.903 10.5659 131.131 10.4943 131.367 10.4687C131.602 10.4432 131.841 10.4644 132.068 10.5309C132.218 10.5846 132.355 10.6685 132.47 10.7774C132.586 10.8862 132.678 11.0176 132.741 11.1635C132.843 11.3654 132.883 11.5925 132.858 11.8172C132.833 12.0419 132.742 12.2543 132.598 12.4286C133.232 12.3843 133.686 12.5393 133.968 13.1497C134.352 13.9784 133.87 14.7058 132.842 15.1803L130.679 16.1766L128.582 11.6537ZM131.824 11.7865C131.684 11.4703 131.373 11.426 130.952 11.6221L129.965 12.0775L130.409 13.0264L131.332 12.5994C131.773 12.397 131.986 12.125 131.83 11.7897L131.824 11.7865ZM131.951 13.3332L130.793 13.8645L131.259 14.864L132.446 14.3136C132.89 14.1112 133.08 13.8329 132.925 13.4945C132.779 13.1782 132.465 13.096 131.951 13.3332Z" fill="white"/>
<path d="M134.391 9.22165L135.46 8.96546L135.916 10.9169L136.256 10.8347L137.49 8.47522L138.819 8.15894L137.211 11.0466L140.123 12.9949L138.759 13.3112L136.51 11.7582L136.142 11.8468L136.63 13.8204L135.561 14.0766L134.391 9.22165Z" fill="white"/>
<path d="M141.25 12.9442L142.16 11.1952L140.102 7.99437L141.345 7.94377L142.734 10.1577L143.826 7.8299L145.047 7.7793L142.471 12.8841L141.25 12.9442Z" fill="white"/>
<path d="M145.836 10.3507C145.877 10.0101 145.986 9.68124 146.159 9.3842C146.331 9.08716 146.562 8.82811 146.837 8.6228C147.113 8.4175 147.427 8.27022 147.762 8.18992C148.096 8.10962 148.444 8.09798 148.783 8.15571C149.147 8.18658 149.5 8.29385 149.819 8.47046C150.138 8.64708 150.417 8.88904 150.635 9.18046L149.827 9.87945C149.542 9.49089 149.116 9.2287 148.64 9.14884C148.443 9.12517 148.242 9.14125 148.051 9.19612C147.86 9.25098 147.682 9.34353 147.527 9.46826C147.373 9.593 147.244 9.7474 147.151 9.92234C147.057 10.0973 146.999 10.2892 146.981 10.4867V10.5025C146.942 10.6979 146.943 10.8991 146.983 11.0942C147.023 11.2893 147.103 11.4742 147.216 11.6381C147.33 11.8019 147.476 11.9412 147.645 12.0477C147.813 12.1542 148.002 12.2257 148.199 12.2579C148.445 12.2896 148.695 12.2708 148.933 12.2029C149.172 12.1349 149.394 12.0191 149.585 11.8625L150.179 12.6596C149.888 12.9154 149.543 13.1022 149.169 13.2057C148.795 13.3093 148.403 13.3269 148.022 13.2574C147.685 13.2145 147.36 13.1046 147.066 12.9342C146.772 12.7638 146.516 12.5363 146.312 12.2652C146.108 11.9941 145.961 11.685 145.879 11.3561C145.797 11.0272 145.783 10.6853 145.836 10.3507Z" fill="white"/>
<path d="M156.491 10.3223L157.474 10.8157L156.583 12.5837L158.4 13.4946L159.292 11.7266L160.275 12.22L158.026 16.6859L157.039 16.1925L157.931 14.3992L156.113 13.4883L155.209 15.2816L154.223 14.7882L156.491 10.3223Z" fill="white"/>
<path d="M160.545 15.2974C160.765 15.0253 161.036 14.7991 161.344 14.6317C161.651 14.4643 161.989 14.3589 162.338 14.3216C162.686 14.2843 163.038 14.3158 163.375 14.4143C163.711 14.5128 164.025 14.6764 164.297 14.8957C164.57 15.115 164.797 15.3857 164.965 15.6924C165.133 15.9992 165.239 16.3359 165.276 16.6833C165.313 17.0307 165.282 17.3821 165.183 17.7174C165.084 18.0527 164.92 18.3653 164.7 18.6373C164.251 19.1696 163.611 19.5052 162.917 19.5721C162.223 19.639 161.53 19.4317 160.987 18.9949C160.444 18.5581 160.095 17.9266 160.014 17.2358C159.933 16.5451 160.127 15.8503 160.554 15.3005L160.545 15.2974ZM163.787 17.9193C163.92 17.7654 164.021 17.5863 164.084 17.3927C164.147 17.199 164.171 16.9948 164.153 16.792C164.136 16.5891 164.078 16.3919 163.983 16.2118C163.888 16.0317 163.757 15.8724 163.599 15.7433C163.443 15.6158 163.261 15.5213 163.067 15.4654C162.872 15.4096 162.668 15.3936 162.467 15.4184C162.266 15.4433 162.073 15.5084 161.897 15.6099C161.722 15.7114 161.57 15.8471 161.449 16.009C161.314 16.1626 161.212 16.3416 161.149 16.5353C161.086 16.729 161.062 16.9335 161.079 17.1366C161.097 17.3397 161.155 17.5372 161.251 17.7173C161.346 17.8974 161.477 18.0565 161.636 18.185C161.793 18.313 161.974 18.4079 162.169 18.4639C162.363 18.52 162.567 18.5361 162.768 18.5113C162.969 18.4865 163.163 18.4212 163.338 18.3194C163.513 18.2177 163.666 18.0816 163.787 17.9193Z" fill="white"/>
<path d="M167.741 18.2705L169.2 20.0733C169.362 20.247 169.487 20.4506 169.569 20.6726C169.651 20.8945 169.689 21.1305 169.679 21.3669C169.664 21.5237 169.616 21.6755 169.539 21.8131C169.462 21.9508 169.358 22.0712 169.232 22.1671C169.06 22.3156 168.848 22.4106 168.623 22.4404C168.397 22.4702 168.168 22.4335 167.963 22.3347C168.157 22.923 168.119 23.4101 167.595 23.8308C166.882 24.4064 166.06 24.1154 165.35 23.2393L163.855 21.3922L167.741 18.2705ZM166.929 21.9299L166.13 20.9431L165.27 21.6326L166.095 22.6479C166.412 23.0274 166.729 23.1476 167.005 22.9135C167.278 22.6953 167.285 22.3695 166.929 21.9299ZM168.401 21.4333C168.655 21.2278 168.639 20.9115 168.347 20.5509L167.662 19.7064L166.84 20.3706L167.475 21.1582C167.792 21.5346 168.109 21.6769 168.385 21.4428L168.401 21.4333Z" fill="white"/>
<path d="M171.634 23.3406L172.119 24.3274L170.705 25.0169L171.092 25.8139C171.621 26.8924 171.444 27.835 170.438 28.322C169.487 28.7901 168.56 28.4422 167.989 27.272L167.133 25.5293L171.634 23.3406ZM168.887 26.8608C169.122 27.3416 169.499 27.5408 169.931 27.3321C170.343 27.1296 170.444 26.7375 170.197 26.2314L169.816 25.4502L168.503 26.0827L168.887 26.8608ZM173.696 27.5503L174.178 28.5371L169.67 30.7289L169.185 29.7421L173.696 27.5503Z" fill="white"/>
<path d="M175.857 35.0841L173.097 34.0024L170.994 36.2702L170.705 35.005L172.126 33.5312L170.201 32.8164L169.922 31.605L172.793 32.7341L174.82 30.5581L175.105 31.8232L173.757 33.1864L175.578 33.8601L175.857 35.0841Z" fill="white"/>
<path d="M176.209 39.936L176.069 42.2543C176.069 42.7278 175.882 43.1822 175.549 43.5194C175.431 43.6242 175.293 43.7039 175.143 43.754C174.993 43.804 174.834 43.8232 174.677 43.8104C174.452 43.8043 174.234 43.7332 174.049 43.6057C173.865 43.4782 173.721 43.2999 173.636 43.0925C173.379 43.6554 173.021 43.9907 172.348 43.9527C171.432 43.899 171.022 43.1304 171.079 42.0044L171.222 39.6323L176.209 39.936ZM173.132 42.0993L173.208 40.8342L172.107 40.7678L172.028 42.0709C171.999 42.5579 172.152 42.8584 172.523 42.8805C172.875 42.8995 173.097 42.675 173.132 42.0993ZM174.556 42.7319C174.873 42.754 175.086 42.5073 175.114 42.0456L175.181 40.9607L174.121 40.8975L174.061 41.9096C174.033 42.3935 174.169 42.7098 174.543 42.7319H174.556Z" fill="white"/>
<path d="M175.62 46.1731L174.554 50.2247L169.707 48.9595L169.983 47.8937L173.862 48.9089L174.37 46.9828L170.491 45.9675L170.77 44.9048L175.62 46.1731Z" fill="white"/>
<path d="M173.728 52.3721L172.084 55.7658L171.199 55.3262L172.367 52.9161L171.45 52.4797L170.425 54.6019L169.544 54.1749L170.568 52.0558L169.617 51.5972L168.44 54.0611L167.555 53.6341L169.214 50.2087L173.728 52.3721Z" fill="white"/>
<path d="M166.583 57.8028C166.729 57.4872 166.905 57.1864 167.109 56.9046C167.791 55.9873 168.67 55.7027 169.647 56.4175L171.068 57.4675L170.412 58.35L169.089 57.3727C168.613 57.0184 168.22 57.1038 167.858 57.5909C167.672 57.8393 167.519 58.1103 167.401 58.3974L169.32 59.8175L168.651 60.7031L164.629 57.7269L165.286 56.8445L166.583 57.8028Z" fill="white"/>
<path d="M165.861 63.597L165.106 64.2739L160.129 61.9682L160.985 61.2028L162.077 61.731L163.663 60.3203L163.253 59.1849L164.091 58.4353L165.861 63.597ZM163.006 62.1833L164.592 62.9423L164.002 61.2977L163.006 62.1833Z" fill="white"/>
<path d="M160.969 66.0798L162.257 65.2733L162.796 66.1304L159.288 68.3286L158.745 67.4715L160.036 66.665L157.914 63.2965L158.843 62.7114L160.969 66.0798Z" fill="white"/>
<path d="M151.906 66.0798L153.032 65.6149L155.656 68.3096L155.586 64.5617L156.683 64.1094V69.5589L155.783 69.929L151.906 66.0798Z" fill="white"/>
<path d="M151.99 71.1688L148.288 71.9058L148.098 70.9569L150.728 70.4319L150.528 69.4419L148.216 69.9005L148.022 68.9517L150.338 68.4931L150.131 67.4651L147.464 67.9775L147.273 67.0287L151.01 66.2854L151.99 71.1688Z" fill="white"/>
<path d="M146.195 72.1367H145.091V70.1599H143.058V72.1367H141.957L141.941 67.1394H143.023V69.1446H145.056V67.1394H146.16L146.195 72.1367Z" fill="white"/>
<path d="M137.315 66.3676L136.681 69.5589L139.666 66.8357L140.617 67.0286L139.615 71.9279L138.533 71.7065L139.168 68.6069L136.281 71.2479L135.25 71.0391L136.252 66.1399L137.315 66.3676Z" fill="white"/>
<path d="M131.921 64.4035L130.607 67.3829L134.097 65.3555L134.985 65.7446L132.974 70.3117L131.952 69.8752L133.221 66.9875L129.846 68.9548L128.895 68.5342L130.909 63.967L131.921 64.4035ZM131.604 71.2827L130.922 70.9854C130.922 70.7482 130.826 70.5615 130.503 70.4192C130.395 70.3489 130.266 70.3177 130.138 70.331C130.01 70.3442 129.89 70.4011 129.799 70.492L129.117 70.1915C129.45 69.5937 130.094 69.4609 130.788 69.7645C131.483 70.0681 131.803 70.6311 131.604 71.2827Z" fill="white"/>
<path d="M128.688 54.8107H150.848V49.1303H135.048V31.469H150.648V25.7854H128.688V54.8107Z" fill="white"/>
<path d="M140.684 43.0386H148.538V37.3455H135.25V37.6238C135.25 38.3351 135.391 39.0395 135.664 39.6967C135.937 40.3538 136.337 40.9509 136.842 41.4537C137.346 41.9566 137.945 42.3554 138.605 42.6273C139.264 42.8992 139.97 43.039 140.684 43.0386Z" fill="white"/>
<path d="M82.8314 24.6467C79.7497 24.6467 76.7372 25.5579 74.1748 27.265C71.6125 28.9721 69.6154 31.3985 68.4361 34.2373C67.2568 37.0761 66.9482 40.1998 67.5494 43.2134C68.1506 46.2271 69.6346 48.9953 71.8137 51.168C73.9928 53.3408 76.7691 54.8204 79.7916 55.4199C82.8141 56.0193 85.947 55.7117 88.7941 54.5358C91.6412 53.3599 94.0747 51.3687 95.7868 48.8138C97.4989 46.2589 98.4127 43.2553 98.4127 40.1826C98.4127 36.0622 96.7711 32.1106 93.8491 29.1971C90.927 26.2835 86.9638 24.6467 82.8314 24.6467ZM82.8314 49.3579C81.012 49.3579 79.2334 48.82 77.7206 47.8121C76.2078 46.8043 75.0288 45.3718 74.3325 43.6958C73.6363 42.0198 73.4541 40.1755 73.809 38.3963C74.164 36.6171 75.0401 34.9827 76.3266 33.7C77.6131 32.4172 79.2523 31.5437 81.0367 31.1897C82.8212 30.8358 84.6708 31.0175 86.3517 31.7117C88.0326 32.4059 89.4693 33.5816 90.4801 35.0899C91.4909 36.5983 92.0305 38.3716 92.0305 40.1857C92.0321 41.3913 91.7954 42.5854 91.3339 43.6997C90.8723 44.8139 90.195 45.8266 89.3406 46.6796C88.4862 47.5327 87.4716 48.2094 86.3546 48.6712C85.2377 49.1329 84.0405 49.3706 82.8314 49.3706V49.3579Z" fill="white"/>
<path d="M18.468 25.7854H12.3871L0 54.8107H6.52184L15.3498 33.2434L19.2134 42.6749H11.7304C11.7371 44.1712 12.3386 45.6037 13.403 46.6585C14.4674 47.7132 15.9078 48.3041 17.4085 48.3016H21.51L24.1778 54.8107H30.8709L18.468 25.7854Z" fill="white"/>
<path d="M56.631 25.7854L49.0528 37.9402L41.4747 25.7854H34.3945V54.8107H40.7197V35.8527L48.8847 48.213H49.0528L57.3034 35.7262V54.8107H63.7143V25.7854H56.631Z" fill="white"/>
<path d="M114.9 25.7854H101.945V54.8107H108.29L108.305 31.469H114.897C115.504 31.453 116.109 31.5585 116.674 31.7791C117.24 31.9998 117.756 32.3312 118.191 32.7538C118.626 33.1764 118.972 33.6816 119.208 34.2396C119.444 34.7977 119.566 35.3972 119.566 36.0029C119.566 36.6086 119.444 37.2082 119.208 37.7662C118.972 38.3243 118.626 38.8295 118.191 39.2521C117.756 39.6747 117.24 40.0061 116.674 40.2267C116.109 40.4474 115.504 40.5528 114.897 40.5368H108.512V40.8183C108.513 42.2539 109.087 43.63 110.106 44.6442C111.124 45.6584 112.506 46.2276 113.945 46.2268H114.897C117.584 46.1796 120.146 45.0821 122.03 43.1705C123.913 41.2589 124.969 38.6861 124.969 36.0061C124.969 33.3261 123.913 30.7533 122.03 28.8417C120.146 26.9301 117.584 25.8325 114.897 25.7854H114.9Z" fill="white"/>
<path d="M30.2768 25.9119C29.5074 25.1448 28.464 24.7139 27.3759 24.7139C26.2879 24.7139 25.2444 25.1448 24.475 25.9119C23.7057 26.6791 23.2734 27.7195 23.2734 28.8044C23.2734 29.8892 23.7057 30.9296 24.475 31.6968C25.0726 32.2936 25.8423 32.6895 26.6765 32.8291V35.2897L30.2768 31.6968C30.6579 31.317 30.9601 30.8661 31.1664 30.3698C31.3726 29.8735 31.4788 29.3416 31.4788 28.8044C31.4788 28.2671 31.3726 27.7352 31.1664 27.2389C30.9601 26.7426 30.6579 26.2917 30.2768 25.9119Z" fill="#F04E23"/>
<path d="M143.942 16.376C138.004 16.3754 132.284 18.6084 127.926 22.6289L128.617 23.3184C131.832 20.3829 135.826 18.4325 140.123 17.7002C144.419 16.968 148.837 17.4849 152.847 19.1891C156.856 20.8934 160.289 23.713 162.735 27.3108C165.18 30.9086 166.535 35.1325 166.637 39.4776C166.739 43.8226 165.584 48.105 163.31 51.8129C161.035 55.5208 157.739 58.4973 153.813 60.3867C149.888 62.2761 145.499 62.9983 141.173 62.4672C136.847 61.9361 132.765 60.174 129.417 57.3916L128.725 58.0811C131.642 60.5205 135.105 62.223 138.822 63.0441C142.539 63.8653 146.399 63.781 150.076 62.7984C153.753 61.8158 157.139 59.9639 159.946 57.3995C162.752 54.8351 164.898 51.6339 166.2 48.0671C167.502 44.5003 167.923 40.673 167.426 36.9097C166.93 33.1463 165.53 29.5578 163.347 26.4482C161.164 23.3386 158.262 20.7995 154.885 19.0462C151.509 17.2928 147.758 16.3769 143.951 16.376H143.942Z" fill="white"/>
<path d="M182.426 28.9924C182.406 28.8586 182.376 28.7264 182.337 28.597V28.5717C182.194 28.0972 181.963 27.6533 181.658 27.2623C181.299 26.7487 180.781 26.3666 180.183 26.1743C180.183 26.2502 180.833 26.6424 180.913 27.3604C180.941 27.6502 180.911 27.9427 180.824 28.2207C180.737 28.4988 180.596 28.7568 180.408 28.9797C180.23 29.2233 180.053 29.47 179.891 29.7167L179.793 29.7452C179.554 30.1029 179.375 30.4971 179.263 30.9122C179.132 31.3624 179.121 31.8387 179.231 32.2944V32.3197C179.34 32.7551 179.507 33.1741 179.726 33.5659C180.021 34.0823 180.447 34.5129 180.96 34.8152C180.979 34.7804 180.852 34.6349 180.732 34.4167C180.565 34.1663 180.476 33.8727 180.475 33.5722C180.475 32.9807 180.811 32.5253 181.188 32.0572C181.883 31.2222 182.625 30.2923 182.426 28.9924Z" fill="white"/>
<path d="M148.694 1.28296C148.968 1.38484 149.218 1.5403 149.431 1.7402C149.643 1.9401 149.813 2.18038 149.931 2.44689C150.074 2.7094 150.217 2.97508 150.372 3.2281L150.353 3.33248C150.576 3.70129 150.853 4.03494 151.175 4.32245C151.523 4.63775 151.949 4.85594 152.409 4.95501H152.431C153.04 5.10999 154.398 5.21753 155.441 4.49956C155.387 4.44263 154.712 4.68617 154.106 4.3857C153.579 4.1137 153.306 3.64876 153.053 3.08261C152.839 2.57509 152.566 2.09424 152.24 1.64985C151.953 1.2702 151.577 0.965896 151.146 0.763139C150.714 0.560382 150.24 0.465248 149.763 0.48593C149.484 0.492193 149.206 0.521816 148.932 0.574489C148.312 0.672504 147.741 0.968905 147.305 1.41897C147.336 1.44427 147.511 1.35255 147.765 1.27664C148.069 1.19023 148.391 1.19242 148.694 1.28296Z" fill="white"/>
<path d="M154.052 2.32654C154.309 2.46579 154.535 2.65474 154.717 2.8823C154.9 3.10987 155.035 3.37147 155.115 3.65177C155.219 3.93326 155.324 4.21475 155.432 4.48675L155.4 4.58796C155.573 4.97967 155.803 5.34407 156.082 5.66965C156.386 6.02662 156.779 6.2981 157.221 6.4572C157.801 6.69441 159.124 6.99171 160.266 6.42241C160.219 6.36231 159.518 6.5078 158.959 6.12826C158.525 5.76945 158.228 5.27238 158.119 4.7208C157.977 4.18867 157.774 3.67489 157.513 3.18999C157.282 2.77335 156.953 2.41908 156.554 2.15786C156.155 1.89664 155.698 1.73633 155.222 1.69081C154.946 1.65955 154.667 1.65109 154.388 1.66551C153.76 1.67574 153.152 1.89004 152.656 2.27593C152.818 2.26728 152.979 2.24184 153.135 2.20003C153.447 2.15411 153.765 2.19801 154.052 2.32654Z" fill="white"/>
<path d="M143.236 0.991901C143.521 1.05503 143.791 1.17426 144.029 1.34262C144.268 1.51097 144.47 1.72506 144.625 1.97238C144.803 2.21275 144.983 2.45629 145.171 2.68718V2.79155C145.443 3.12543 145.764 3.41744 146.122 3.65817C146.513 3.91797 146.964 4.07169 147.432 4.10413H147.464C148.098 4.17371 149.447 4.10413 150.379 3.23435C150.316 3.18691 149.681 3.52217 149.044 3.30709C148.51 3.08394 148.075 2.67777 147.816 2.16215C147.534 1.69042 147.198 1.2531 146.814 0.859063C146.476 0.522425 146.062 0.272787 145.606 0.131717C145.15 -0.00935344 144.666 -0.037614 144.197 0.0493776C143.921 0.0932519 143.649 0.160981 143.385 0.251799C142.785 0.437431 142.262 0.809936 141.891 1.31451C141.926 1.33665 142.087 1.21963 142.328 1.10893C142.613 0.984741 142.928 0.944146 143.236 0.991901Z" fill="white"/>
<path d="M126.578 5.11318C126.788 4.87893 127.063 4.7108 127.368 4.62927C127.654 4.57176 127.949 4.57179 128.236 4.62935C128.522 4.68692 128.794 4.80086 129.036 4.96453C129.299 5.11002 129.559 5.25867 129.826 5.39467L129.864 5.48956C130.249 5.68503 130.66 5.82253 131.085 5.89756C131.548 5.97683 132.024 5.93432 132.465 5.77421C133.065 5.58444 134.273 4.9582 134.774 3.79745C134.698 3.79745 134.257 4.34145 133.585 4.40787C133.007 4.41905 132.445 4.22384 131.999 3.85754C131.547 3.54203 131.061 3.27887 130.549 3.07316C130.104 2.90217 129.623 2.84162 129.149 2.89671C128.675 2.9518 128.222 3.12089 127.828 3.38944C127.594 3.54219 127.375 3.71467 127.171 3.90498C126.696 4.31747 126.369 4.87245 126.238 5.4864C126.302 5.48323 126.4 5.31244 126.578 5.11318Z" fill="white"/>
<path d="M121.873 7.85532C122.051 7.59507 122.3 7.39095 122.59 7.26703C122.866 7.16944 123.158 7.12784 123.45 7.14468C123.742 7.16151 124.028 7.23645 124.291 7.36508C124.57 7.47578 124.852 7.58648 125.131 7.68136L125.185 7.77309C125.594 7.91255 126.022 7.99037 126.454 8.00397C126.923 8.01872 127.388 7.90961 127.802 7.68769C128.367 7.41569 129.477 6.62814 129.81 5.41045C129.734 5.41045 129.372 6.02088 128.719 6.17902C128.149 6.27051 127.565 6.15851 127.069 5.86274C126.578 5.61271 126.06 5.41957 125.524 5.2871C125.062 5.18373 124.582 5.1933 124.124 5.31501C123.666 5.43671 123.244 5.66694 122.895 5.98609C122.684 6.16845 122.491 6.3696 122.317 6.58702C121.905 7.05868 121.658 7.65162 121.613 8.27598C121.655 8.26016 121.727 8.07672 121.873 7.85532Z" fill="white"/>
<path d="M158.325 3.84157C158.64 3.8425 158.948 3.93362 159.213 4.10408C159.448 4.27721 159.647 4.49576 159.796 4.74677C159.945 4.99778 160.043 5.27613 160.082 5.56531C160.149 5.85945 160.212 6.15044 160.288 6.43825L160.244 6.53314C160.356 6.94834 160.529 7.34478 160.758 7.70971C161.008 8.10862 161.357 8.43567 161.773 8.65856C162.312 8.97484 163.59 9.4556 164.789 9.04759C164.751 8.98117 164.038 9.02861 163.54 8.57316C163.144 8.15396 162.913 7.60761 162.886 7.03287C162.82 6.48659 162.691 5.94965 162.502 5.43247C162.33 4.98827 162.053 4.59224 161.694 4.27827C161.335 3.96431 160.905 3.74176 160.44 3.62966C160.171 3.55983 159.896 3.51222 159.619 3.48733C158.995 3.41028 158.363 3.53915 157.82 3.85422C157.988 3.86813 158.157 3.86389 158.325 3.84157Z" fill="white"/>
<path d="M137.794 1.4633C138.086 1.48493 138.371 1.56498 138.63 1.69866C138.89 1.83235 139.121 2.01692 139.308 2.24135C139.52 2.45326 139.729 2.6715 139.942 2.87392V2.97829C140.258 3.27152 140.616 3.51663 141.005 3.70574C141.428 3.90849 141.897 3.99787 142.365 3.9651H142.391C143.025 3.94612 144.354 3.67728 145.157 2.69996C145.09 2.66201 144.522 3.0795 143.844 2.95615C143.288 2.81121 142.801 2.47515 142.47 2.0073C142.125 1.57843 141.731 1.19101 141.296 0.852871C140.915 0.566955 140.469 0.377598 139.998 0.301029C139.527 0.224461 139.044 0.262964 138.591 0.413237C138.324 0.497426 138.066 0.603207 137.817 0.729521C137.246 0.995443 136.779 1.43963 136.484 1.99465C136.522 1.99465 136.665 1.8713 136.89 1.72898C137.159 1.55429 137.474 1.46193 137.794 1.4633Z" fill="white"/>
<path d="M182.04 31.7379C182.215 31.9996 182.311 32.3059 182.316 32.6203C182.303 32.9117 182.232 33.1976 182.107 33.4611C181.982 33.7245 181.805 33.9603 181.586 34.1543C181.38 34.3725 181.171 34.5876 180.977 34.8122L180.873 34.828C180.591 35.1532 180.358 35.5175 180.181 35.9097C179.992 36.3387 179.918 36.8099 179.969 37.276V37.2981C180.007 37.9307 180.324 39.2464 181.329 40.0119C181.364 39.9423 180.927 39.3793 181.012 38.7119C181.142 38.1507 181.468 37.654 181.932 37.3108C182.349 36.9506 182.724 36.5442 183.049 36.0994C183.322 35.7089 183.497 35.2578 183.557 34.7851C183.617 34.3124 183.562 33.8321 183.394 33.3857C183.301 33.1237 183.187 32.8699 183.052 32.6266C182.767 32.068 182.307 31.6173 181.742 31.3425C181.745 31.3836 181.888 31.5196 182.04 31.7379Z" fill="white"/>
<path d="M164.081 6.58376C164.291 6.78974 164.458 7.03597 164.571 7.30771C164.683 7.57944 164.74 7.87108 164.737 8.16517C164.759 8.48145 164.782 8.76295 164.82 9.06025L164.763 9.14565C164.814 9.5727 164.929 9.98962 165.105 10.3823C165.299 10.8092 165.601 11.1787 165.981 11.4545C166.472 11.8435 167.668 12.4951 168.915 12.2579C168.886 12.1851 168.173 12.1345 167.741 11.6253C167.41 11.1534 167.258 10.5793 167.313 10.0059C167.322 9.45563 167.268 8.9061 167.154 8.36759C167.048 7.9065 166.832 7.47783 166.524 7.11819C166.215 6.75854 165.825 6.4786 165.384 6.30226C165.127 6.19481 164.86 6.10911 164.588 6.04607C163.982 5.88511 163.339 5.92508 162.758 6.15994C162.915 6.1936 163.076 6.21161 163.237 6.2137C163.548 6.25356 163.841 6.38205 164.081 6.58376Z" fill="white"/>
<path d="M118.989 13.7159C119.193 13.6076 119.381 13.4737 119.551 13.3174C120.305 12.6371 120.77 11.6942 120.848 10.6828C121.271 10.7637 121.704 10.7818 122.133 10.7365C122.601 10.6864 123.047 10.5141 123.427 10.2368C123.947 9.89206 124.94 8.95586 125.099 7.70654C125.022 7.70654 124.75 8.37074 124.122 8.6206C123.566 8.82935 123.037 8.71865 122.447 8.52888C121.925 8.34918 121.384 8.22928 120.835 8.17148C120.358 8.12894 119.877 8.20322 119.435 8.38785C118.993 8.57249 118.602 8.86192 118.298 9.23103C118.117 9.44118 117.954 9.66658 117.812 9.90471C117.479 10.4186 117.317 11.0239 117.349 11.6348C117.178 11.6348 117.006 11.6348 116.832 11.6348L118.989 13.7159ZM117.597 11.2236C117.739 10.9405 117.959 10.7036 118.231 10.5404C118.491 10.4064 118.774 10.3253 119.066 10.302C119.357 10.2786 119.65 10.3135 119.928 10.4044C120.22 10.474 120.515 10.5436 120.807 10.6005V10.6195C120.646 11.0177 120.37 11.3591 120.014 11.6C119.493 11.8846 118.951 11.8499 118.339 11.7392C118.041 11.6917 117.733 11.6474 117.422 11.6221C117.466 11.5525 117.514 11.4007 117.597 11.2236Z" fill="white"/>
<path d="M182.602 36.6846C182.583 36.7225 182.707 36.8775 182.824 37.1147C182.961 37.3988 183.014 37.7159 182.976 38.0288C182.921 38.3161 182.808 38.5893 182.645 38.8322C182.481 39.0751 182.27 39.2827 182.025 39.4426C181.787 39.6323 181.552 39.8189 181.327 40.0119H181.222C180.897 40.2949 180.616 40.6243 180.388 40.9892C180.138 41.3864 179.999 41.8427 179.985 42.3113V42.3334C179.937 42.966 180.068 44.3102 180.959 45.2084C181.003 45.1451 180.642 44.5252 180.838 43.88C181.044 43.3409 181.435 42.8923 181.942 42.6149C182.403 42.3147 182.829 41.9635 183.211 41.568C183.536 41.2196 183.771 40.7979 183.896 40.339C184.022 39.8802 184.034 39.3978 183.931 38.9333C183.877 38.6605 183.8 38.3928 183.7 38.1331C183.498 37.5459 183.113 37.0384 182.602 36.6846Z" fill="white"/>
<path d="M178.274 21.5692C178.514 21.7724 178.692 22.0403 178.784 22.3409C178.853 22.6241 178.863 22.918 178.816 23.2053C178.769 23.4927 178.664 23.7676 178.508 24.0141C178.369 24.2829 178.229 24.5486 178.102 24.8174L178.007 24.8585C177.825 25.2485 177.702 25.6631 177.642 26.0889C177.578 26.5535 177.637 27.0268 177.814 27.4615C178.023 28.0498 178.692 29.2359 179.872 29.6913C179.872 29.6186 179.311 29.1948 179.222 28.5274C179.152 27.9391 179.387 27.4521 179.717 26.927C180.019 26.4672 180.266 25.9736 180.453 25.4563C180.609 25.0063 180.652 24.5252 180.58 24.0546C180.508 23.5839 180.321 23.138 180.037 22.7553C179.875 22.53 179.695 22.3184 179.498 22.1227C179.071 21.6636 178.505 21.356 177.887 21.2466C177.893 21.3067 178.067 21.4016 178.274 21.5692Z" fill="white"/>
<path d="M168.551 9.71192C168.73 9.94436 168.86 10.2103 168.933 10.494C169.007 10.7776 169.022 11.0732 168.979 11.3629C168.963 11.6792 168.941 11.9639 168.938 12.2612L168.868 12.3371C168.861 12.7648 168.918 13.1911 169.036 13.6022C169.169 14.0507 169.416 14.4572 169.753 14.7819C170.184 15.2342 171.282 16.0471 172.548 15.9838C172.529 15.9079 171.828 15.7561 171.476 15.1836C171.213 14.6716 171.142 14.0827 171.276 13.5231C171.364 12.9796 171.388 12.4277 171.349 11.8785C171.307 11.4039 171.15 10.9466 170.891 10.5461C170.632 10.1455 170.28 9.81364 169.864 9.57908C169.625 9.43708 169.373 9.31642 169.112 9.21852C168.535 8.97316 167.894 8.92209 167.285 9.07303C167.285 9.11098 167.498 9.12364 167.751 9.19638C168.063 9.28564 168.341 9.46504 168.551 9.71192Z" fill="white"/>
<path d="M172.544 13.4312C172.688 13.6851 172.779 13.9649 172.813 14.2544C172.846 14.5438 172.822 14.837 172.741 15.117C172.681 15.4111 172.62 15.7053 172.573 15.9994L172.494 16.0658C172.429 16.4914 172.429 16.9244 172.494 17.3499C172.561 17.8116 172.748 18.2478 173.036 18.6151C173.398 19.1243 174.371 20.0795 175.634 20.1965C175.634 20.1174 174.952 19.8802 174.682 19.2476C174.496 18.7032 174.508 18.1107 174.717 17.5745C174.885 17.0498 174.992 16.5075 175.034 15.9583C175.059 15.4826 174.968 15.0081 174.768 14.5756C174.567 14.1431 174.265 13.7655 173.886 13.4755C173.67 13.3007 173.439 13.1461 173.195 13.0137C172.657 12.6895 172.027 12.5495 171.402 12.6152C171.402 12.6563 171.605 12.6943 171.85 12.8018C172.137 12.9404 172.378 13.159 172.544 13.4312Z" fill="white"/>
<path d="M175.362 16.9769C175.631 17.1427 175.845 17.3835 175.977 17.6696C176.084 17.9406 176.136 18.2302 176.129 18.5214C176.122 18.8126 176.056 19.0994 175.936 19.3649C175.838 19.6495 175.733 19.931 175.647 20.2157L175.558 20.2694C175.433 20.6795 175.369 21.1058 175.368 21.5346C175.371 22.0021 175.496 22.4609 175.73 22.8661C176.018 23.4196 176.85 24.5013 178.083 24.7891C178.083 24.7132 177.449 24.3748 177.275 23.7264C177.164 23.162 177.258 22.5766 177.541 22.0754C177.779 21.5844 177.959 21.0675 178.077 20.5351C178.168 20.068 178.144 19.5857 178.006 19.13C177.869 18.6743 177.622 18.2588 177.287 17.9195C177.093 17.7164 176.881 17.5311 176.653 17.366C176.164 16.9737 175.561 16.7515 174.934 16.7334C174.949 16.7682 175.137 16.8378 175.362 16.9769Z" fill="white"/>
<path d="M132.471 2.68393C132.763 2.66485 133.055 2.7046 133.331 2.80079C133.607 2.89697 133.86 3.04763 134.076 3.24375C134.317 3.42719 134.555 3.61064 134.8 3.78143L134.825 3.87948C135.177 4.12741 135.566 4.32045 135.976 4.45195C136.424 4.5958 136.902 4.6198 137.363 4.52153H137.385C138.003 4.41716 139.288 3.96487 139.945 2.88319C139.875 2.85472 139.358 3.35129 138.676 3.32282C138.102 3.25452 137.572 2.98289 137.182 2.55742C136.779 2.1814 136.334 1.85341 135.856 1.5801C135.438 1.34968 134.97 1.22382 134.493 1.21336C134.016 1.20289 133.543 1.30812 133.115 1.52001C132.864 1.63965 132.623 1.78038 132.395 1.94066C131.867 2.28096 131.465 2.78411 131.25 3.37343C131.291 3.37343 131.412 3.22477 131.615 3.05714C131.858 2.85191 132.155 2.72215 132.471 2.68393Z" fill="white"/>
<path d="M163.558 73.6484C163.361 73.8949 163.098 74.0804 162.799 74.1829C162.518 74.261 162.224 74.2819 161.935 74.2445C161.646 74.207 161.367 74.1118 161.115 73.9647C160.842 73.835 160.569 73.7054 160.297 73.5883L160.249 73.4966C159.851 73.3306 159.431 73.224 159.002 73.1803C158.535 73.1339 158.064 73.2091 157.635 73.3986C157.055 73.6295 155.887 74.3474 155.469 75.5303C155.545 75.5303 155.951 74.9515 156.614 74.8377C157.189 74.7891 157.763 74.9448 158.235 75.2773C158.706 75.5627 159.21 75.792 159.735 75.9605C160.192 76.101 160.675 76.1284 161.145 76.0402C161.614 75.952 162.055 75.7509 162.428 75.4544C162.651 75.2863 162.858 75.099 163.047 74.8946C163.492 74.4522 163.781 73.877 163.868 73.2562C163.805 73.2594 163.719 73.4365 163.558 73.6484Z" fill="white"/>
<path d="M172.094 66.9337C171.977 67.2259 171.776 67.4775 171.517 67.658C171.268 67.8102 170.991 67.911 170.702 67.9545C170.413 67.9979 170.119 67.9832 169.836 67.911C169.538 67.8636 169.24 67.813 168.945 67.775L168.875 67.6991C168.446 67.6473 168.012 67.659 167.587 67.7339C167.125 67.8147 166.692 68.0166 166.334 68.319C165.836 68.7017 164.913 69.7012 164.84 70.9631C164.916 70.9631 165.141 70.2768 165.75 69.9858C166.289 69.7391 166.826 69.8119 167.428 69.9605C167.961 70.1064 168.51 70.1892 169.062 70.2072C169.539 70.2149 170.012 70.1069 170.438 69.8926C170.865 69.6784 171.233 69.3641 171.511 68.9769C171.677 68.7548 171.823 68.5188 171.949 68.2716C172.254 67.7242 172.372 67.0923 172.285 66.4719C172.206 66.619 172.142 66.7737 172.094 66.9337Z" fill="white"/>
<path d="M167.385 71.2258C167.117 71.3419 166.829 71.4031 166.537 71.4059C166.245 71.4086 165.955 71.3527 165.685 71.2416C165.396 71.1531 165.111 71.0613 164.822 70.9854L164.765 70.9C164.352 70.789 163.924 70.7389 163.496 70.7514C163.027 70.7701 162.571 70.9108 162.174 71.1594C161.628 71.4757 160.588 72.3296 160.324 73.5695C160.4 73.5695 160.718 72.9369 161.362 72.725C161.924 72.5958 162.515 72.6709 163.027 72.9369C163.536 73.1524 164.068 73.3094 164.613 73.405C165.084 73.4793 165.567 73.4385 166.019 73.2859C166.471 73.1332 166.879 72.8735 167.208 72.5289C167.404 72.3337 167.584 72.1221 167.744 71.8963C168.122 71.3972 168.327 70.7887 168.327 70.1631C168.286 70.1631 168.226 70.356 168.096 70.5869C167.927 70.8651 167.68 71.0873 167.385 71.2258Z" fill="white"/>
<path d="M178.442 58.1379C178.408 58.4499 178.285 58.7455 178.086 58.9887C177.889 59.2034 177.651 59.3767 177.386 59.4984C177.12 59.62 176.833 59.6876 176.541 59.6972C176.24 59.732 175.942 59.7636 175.647 59.811L175.558 59.7573C175.132 59.8241 174.718 59.9542 174.331 60.1431C173.909 60.3493 173.549 60.6624 173.287 61.0509C172.913 61.5538 172.304 62.7683 172.583 64.0018C172.652 63.9702 172.681 63.2585 173.185 62.8126C173.636 62.4267 174.172 62.3476 174.794 62.3255C175.345 62.3179 175.893 62.2468 176.427 62.1136C176.889 61.9907 177.313 61.7578 177.664 61.4349C178.015 61.112 178.282 60.7088 178.442 60.2602C178.541 59.9995 178.617 59.7307 178.67 59.4568C178.811 58.8467 178.75 58.2075 178.495 57.635C178.461 57.8004 178.443 57.9689 178.442 58.1379Z" fill="white"/>
<path d="M182.69 42.093C182.664 42.1246 182.766 42.2986 182.848 42.5485C182.944 42.8478 182.952 43.1684 182.871 43.472C182.777 43.7466 182.629 43.9999 182.437 44.2171C182.244 44.4343 182.01 44.6111 181.748 44.7371C181.487 44.889 181.227 45.0534 180.977 45.2021H180.875C180.517 45.4366 180.196 45.7234 179.924 46.0529C179.619 46.4152 179.418 46.852 179.34 47.318V47.3402C179.207 47.9506 179.143 49.3106 179.901 50.3227C179.955 50.2658 179.689 49.6016 179.968 48.9912C180.246 48.4867 180.696 48.0984 181.237 47.8968C181.737 47.6658 182.209 47.377 182.642 47.0365C183.013 46.7368 183.306 46.3516 183.495 45.9142C183.684 45.4768 183.764 45.0001 183.727 44.5252C183.711 44.2482 183.67 43.973 183.606 43.7029C183.487 43.0804 183.164 42.5146 182.69 42.093Z" fill="white"/>
<path d="M182.022 47.4602C182.037 47.6202 182.069 47.7781 182.117 47.9315C182.171 48.2422 182.133 48.5618 182.009 48.8518C181.879 49.1125 181.697 49.3445 181.476 49.5341C181.254 49.7237 180.996 49.867 180.718 49.9557C180.439 50.0727 180.16 50.1866 179.89 50.3099L179.792 50.2815C179.401 50.4656 179.039 50.7041 178.716 50.9899C178.369 51.3053 178.11 51.7053 177.965 52.1507V52.1633C177.746 52.7485 177.495 54.0863 178.104 55.1933C178.165 55.1459 177.993 54.4501 178.355 53.8839C178.702 53.4232 179.202 53.1013 179.766 52.9762C180.294 52.8167 180.802 52.5971 181.28 52.3215C181.689 52.076 182.032 51.735 182.28 51.3278C182.527 50.9206 182.672 50.4595 182.701 49.9841C182.724 49.7074 182.724 49.4291 182.701 49.1523C182.663 48.5302 182.425 47.9367 182.022 47.4602Z" fill="white"/>
<path d="M180.64 53.1627C180.649 53.4773 180.568 53.7878 180.406 54.0578C180.24 54.2976 180.029 54.5021 179.783 54.6591C179.537 54.8161 179.263 54.9224 178.975 54.9718C178.683 55.0477 178.388 55.1205 178.106 55.209L178.011 55.1679C177.598 55.2935 177.205 55.479 176.846 55.7183C176.459 55.9827 176.147 56.3436 175.942 56.7651C175.644 57.3155 175.21 58.6028 175.657 59.7857C175.724 59.7477 175.657 59.0361 176.088 58.5205C176.499 58.1294 177.035 57.8943 177.601 57.8563C178.145 57.7706 178.677 57.623 179.187 57.4167C179.627 57.2303 180.014 56.9404 180.316 56.5719C180.619 56.2033 180.827 55.7671 180.923 55.3008C180.984 55.0294 181.023 54.7532 181.037 54.4753C181.09 53.8512 180.94 53.2267 180.609 52.6946C180.603 52.8513 180.613 53.0082 180.64 53.1627Z" fill="white"/>
<path d="M175.578 62.7588C175.5 63.063 175.336 63.3384 175.106 63.5527C174.88 63.738 174.62 63.8766 174.34 63.9602C174.06 64.0439 173.766 64.0709 173.475 64.0398C173.158 64.0398 172.872 64.0208 172.574 64.0398L172.495 63.9734C172.064 63.9813 171.636 64.0527 171.226 64.1853C170.779 64.3301 170.378 64.591 170.065 64.9412C169.624 65.3872 168.85 66.5226 168.955 67.7656C169.028 67.7466 169.155 67.0413 169.719 66.6713C170.217 66.355 170.76 66.355 171.378 66.4151C171.926 66.4836 172.479 66.4889 173.028 66.4309C173.502 66.373 173.955 66.2007 174.347 65.929C174.74 65.6573 175.06 65.2944 175.28 64.8716C175.414 64.629 175.527 64.375 175.616 64.1125C175.841 63.5279 175.869 62.8862 175.696 62.2844C175.639 62.4376 175.599 62.5968 175.578 62.7588Z" fill="white"/>
<path d="M131.066 76.8903C130.823 76.7325 130.613 76.5279 130.45 76.2884C130.286 76.0489 130.172 75.7794 130.115 75.4955C130.026 75.2077 129.943 74.9167 129.845 74.6384L129.886 74.5403C129.745 74.1334 129.544 73.7496 129.29 73.4017C129.014 73.0234 128.643 72.7244 128.215 72.5351C127.653 72.2568 126.346 71.8646 125.176 72.3548C125.22 72.4181 125.928 72.3232 126.445 72.7407C126.866 73.1339 127.134 73.6625 127.203 74.2335C127.304 74.7779 127.469 75.3086 127.694 75.8149C127.897 76.246 128.201 76.6217 128.581 76.9098C128.962 77.1979 129.406 77.3898 129.877 77.4691C130.151 77.5218 130.429 77.5504 130.708 77.5545C131.334 77.5879 131.955 77.4169 132.475 77.0674C132.313 77.0657 132.151 77.0805 131.993 77.1117C131.669 77.1311 131.346 77.054 131.066 76.8903Z" fill="white"/>
<path d="M136.339 78.3104C136.074 78.19 135.835 78.0177 135.637 77.8037C135.439 77.5896 135.287 77.3382 135.188 77.0642C135.061 76.7891 134.937 76.5139 134.801 76.2514L134.826 76.1502C134.631 75.7665 134.38 75.4137 134.081 75.1033C133.752 74.7688 133.343 74.5247 132.891 74.3948H132.872C132.279 74.1955 130.928 73.9931 129.84 74.6383C129.891 74.6953 130.579 74.5023 131.163 74.8439C131.667 75.1602 131.908 75.6346 132.114 76.2166C132.291 76.738 132.528 77.237 132.822 77.7031C133.082 78.1027 133.435 78.4333 133.852 78.6664C134.269 78.8995 134.736 79.028 135.213 79.041C135.492 79.055 135.771 79.0444 136.048 79.0094C136.673 78.9547 137.264 78.6995 137.732 78.2819C137.7 78.2535 137.519 78.3357 137.259 78.3926C136.951 78.4538 136.632 78.4253 136.339 78.3104Z" fill="white"/>
<path d="M126.908 75.078C126.594 75.0587 126.292 74.9488 126.039 74.7617C125.817 74.5732 125.635 74.3418 125.504 74.0815C125.373 73.8212 125.296 73.5373 125.278 73.2467C125.233 72.9494 125.189 72.6521 125.132 72.358L125.186 72.2694C125.104 71.8469 124.959 71.4387 124.758 71.058C124.533 70.6455 124.205 70.2979 123.806 70.0491C123.289 69.6949 122.049 69.1287 120.824 69.4513C120.856 69.5177 121.573 69.5241 122.039 70.0111C122.401 70.4582 122.592 71.0184 122.578 71.5926C122.605 72.142 122.696 72.6864 122.848 73.2151C122.987 73.6705 123.236 74.0852 123.572 74.4236C123.908 74.7619 124.321 75.0136 124.777 75.1571C125.041 75.2475 125.313 75.3142 125.589 75.3563C126.204 75.4766 126.842 75.3944 127.406 75.1223C127.242 75.0896 127.075 75.0747 126.908 75.078Z" fill="white"/>
<path d="M158.667 76.049C158.439 76.2678 158.153 76.4161 157.842 76.476C157.553 76.514 157.258 76.4939 156.977 76.4168C156.695 76.3396 156.432 76.2071 156.202 76.0269C155.952 75.8593 155.701 75.6948 155.444 75.5398L155.412 75.4418C155.043 75.2201 154.642 75.0549 154.223 74.9515C153.768 74.8386 153.29 74.8473 152.84 74.9768H152.818C152.208 75.1223 150.955 75.6632 150.375 76.786C150.448 76.8081 150.93 76.2799 151.603 76.2609C152.179 76.2912 152.727 76.5243 153.147 76.9188C153.574 77.2673 154.04 77.5645 154.537 77.8044C154.969 78.006 155.445 78.0996 155.922 78.077C156.399 78.0544 156.863 77.9163 157.274 77.6747C157.518 77.5404 157.75 77.3848 157.966 77.2098C158.468 76.8324 158.834 76.3032 159.009 75.7011C158.968 75.7011 158.857 75.8656 158.667 76.049Z" fill="white"/>
<path d="M121.364 71.9373C121.171 71.719 121.024 71.4644 120.931 71.1885C120.837 70.9126 120.801 70.6209 120.822 70.3306C120.822 70.0301 120.822 69.7296 120.803 69.4323L120.866 69.3501C120.844 68.918 120.757 68.4917 120.61 68.085C120.449 67.6468 120.175 67.2585 119.816 66.959L118.36 68.4107C118.317 68.9221 118.332 69.4367 118.405 69.9447C118.481 70.4149 118.669 70.8598 118.955 71.2415C119.24 71.6231 119.614 71.9302 120.045 72.1365C120.294 72.2634 120.552 72.3692 120.819 72.4528C121.413 72.657 122.057 72.6636 122.656 72.4718C122.501 72.4242 122.341 72.3934 122.18 72.3801C121.871 72.3142 121.588 72.1604 121.364 71.9373Z" fill="white"/>
<path d="M152.621 78.0574C152.329 78.0553 152.04 77.9949 151.771 77.8797C151.503 77.7646 151.26 77.597 151.057 77.3869C150.832 77.1876 150.607 76.9852 150.375 76.7986V76.6974C150.039 76.4272 149.665 76.2076 149.265 76.0459C148.829 75.8714 148.354 75.8136 147.888 75.8782H147.866C147.232 75.9383 145.928 76.2989 145.195 77.33C145.265 77.3648 145.83 76.9062 146.486 76.9821C147.053 77.092 147.562 77.3991 147.923 77.8487C148.303 78.254 148.729 78.6138 149.192 78.9209C149.592 79.1801 150.05 79.3384 150.525 79.3819C151 79.4254 151.479 79.353 151.92 79.1707C152.181 79.0711 152.433 78.9483 152.672 78.8039C153.221 78.5006 153.656 78.0277 153.912 77.4565C153.874 77.4565 153.741 77.5925 153.528 77.7475C153.264 77.94 152.948 78.0481 152.621 78.0574Z" fill="white"/>
<path d="M147.22 78.9019C146.931 78.8594 146.653 78.759 146.404 78.6068C146.155 78.4547 145.939 78.2538 145.77 78.0163C145.573 77.7886 145.377 77.5609 145.174 77.3427V77.2383C144.879 76.9243 144.54 76.6547 144.168 76.4381C143.759 76.2058 143.297 76.0837 142.826 76.0839H142.804C142.17 76.0554 140.825 76.2325 139.949 77.1497C140.016 77.194 140.625 76.8176 141.278 76.9853C141.823 77.1733 142.284 77.5475 142.579 78.0416C142.893 78.4938 143.259 78.9078 143.67 79.2751C144.03 79.5888 144.461 79.8102 144.925 79.9205C145.39 80.0307 145.875 80.0263 146.338 79.9077C146.609 79.8434 146.874 79.7566 147.131 79.6484C147.718 79.4255 148.217 79.0166 148.549 78.4844C148.511 78.4844 148.362 78.5951 148.127 78.7217C147.848 78.8668 147.533 78.9294 147.22 78.9019Z" fill="white"/>
<path d="M141.756 78.9841C141.476 78.9024 141.214 78.765 140.988 78.5802C140.762 78.3955 140.576 78.1671 140.44 77.9087C140.278 77.6557 140.123 77.4027 139.945 77.1591V77.0548C139.698 76.7019 139.398 76.3884 139.057 76.1249C138.689 75.838 138.251 75.6526 137.788 75.5872H137.766C137.151 75.4733 135.783 75.4607 134.797 76.2514C134.854 76.2988 135.511 76.011 136.132 76.2704C136.678 76.5044 136.982 76.9504 137.274 77.4976C137.522 77.9898 137.827 78.4506 138.185 78.8702C138.498 79.2298 138.894 79.5082 139.338 79.6812C139.783 79.8542 140.264 79.9167 140.738 79.8633C141.016 79.8383 141.291 79.7896 141.56 79.7179C142.171 79.5778 142.72 79.2451 143.127 78.769C143.092 78.7469 142.924 78.8512 142.673 78.943C142.378 79.045 142.06 79.0592 141.756 78.9841Z" fill="white"/>
</svg>
