<svg width="128" height="80" viewBox="0 0 128 80" fill="none" xmlns="http://www.w3.org/2000/svg">
<path fill-rule="evenodd" clip-rule="evenodd" d="M87.8977 26.8042C87.7413 26.9797 87.5777 27.1632 87.4571 27.3668L87.2634 27.2561C87.0463 26.8847 86.8443 26.5471 86.6453 26.2145C86.3794 25.7699 86.1186 25.3341 85.8338 24.8378L85.2527 22.9918C84.7883 21.9747 84.5222 20.8783 84.4687 19.7613C84.3926 19.5662 84.3901 19.4422 84.3878 19.3286C84.3856 19.222 84.3836 19.1246 84.3211 18.986C84.3768 18.7909 84.436 18.6335 84.4927 18.4828L84.4927 18.4827L84.4927 18.4827L84.4927 18.4826L84.4928 18.4825C84.5674 18.2841 84.6376 18.0972 84.6901 17.8507C84.7703 17.2776 84.6805 16.6934 84.4318 16.1709C84.524 15.7186 83.8323 15.2479 83.159 15.2479C82.956 15.3125 82.8084 15.5617 82.6609 15.8109C82.6154 16.0339 82.5206 16.2636 82.4262 16.4923C82.3292 16.7275 82.2326 16.9616 82.1905 17.1862C82.0098 17.8756 81.929 18.5874 81.9507 19.2998C82.0798 20.2874 80.3089 21.2474 79.903 21.4135C79.5709 19.7216 78.9466 18.1006 78.0583 16.6231C77.9965 16.544 77.9367 16.4581 77.8771 16.3726C77.7143 16.1392 77.5531 15.908 77.3574 15.8201L75.5126 14.971C75.2758 14.8293 75.0024 14.7608 74.7268 14.7739C74.4511 14.787 74.1855 14.8813 73.9631 15.0448C73.5906 15.1617 73.4728 15.3456 73.3289 15.5703C73.234 15.7184 73.1279 15.8842 72.9301 16.0601C72.5332 16.4588 72.2196 16.9326 72.0077 17.4538C71.7184 18.7836 71.9286 20.1735 72.598 21.3581C72.7881 21.8788 73.0762 22.3582 73.4466 22.7703C73.5298 22.9249 73.65 23.0564 73.7965 23.153C73.943 23.2497 74.1112 23.3085 74.2859 23.3241C74.652 23.533 75.077 23.6141 75.4942 23.5548C75.627 23.6213 75.7452 23.6365 75.8651 23.6519C75.9783 23.6664 76.093 23.6812 76.2229 23.7395C76.477 23.9682 76.6515 24.2722 76.7209 24.6071L77.0345 26.3423C77.1732 27.4736 77.0726 28.6214 76.7394 29.7112C76.7046 29.7701 76.6728 29.8392 76.6393 29.9121C76.5308 30.1483 76.4038 30.4247 76.0937 30.5235C75.8263 30.4035 75.568 30.2835 75.5034 30.0989C74.9978 29.5983 74.5292 29.0616 74.1015 28.4929C73.1432 27.3574 72.3655 26.081 71.7956 24.7086C71.7816 24.662 71.6378 24.3461 71.4327 23.8958C70.8255 22.562 69.6814 20.0492 69.7849 19.8629C69.9935 19.4837 70.2076 19.122 70.421 18.7616C71.236 17.3851 72.0395 16.0279 72.4781 13.7896C72.4048 13.1631 72.5648 12.7261 72.719 12.3051C72.8556 11.9322 72.9875 11.5719 72.9485 11.1036C72.9601 10.8445 73.0527 10.5871 73.1434 10.3346C73.2692 9.9845 73.3916 9.64403 73.2898 9.32225C73.3294 8.55794 73.4315 8.00547 73.5534 7.34531L73.5534 7.34525L73.5535 7.34519L73.5535 7.34513L73.5535 7.34507L73.5535 7.34499L73.5535 7.34489C73.6304 6.92891 73.7151 6.47016 73.7971 5.8887C73.8082 5.64045 73.745 5.38179 73.6803 5.11689C73.5837 4.72192 73.4838 4.3131 73.6218 3.90427C73.6762 3.64325 73.4744 3.32455 73.2636 2.99161L73.2636 2.99159C73.1166 2.75943 72.9652 2.52033 72.8932 2.28903C72.9854 1.85522 72.6072 1.3568 72.2844 1.05221C72.1479 0.678742 71.634 0.440114 71.3724 0.318591L71.3621 0.313815L70.2737 0C69.8391 0.0529436 69.4757 0.0563049 69.188 0.0589662C68.7736 0.0628004 68.5161 0.0651818 68.429 0.212285C68.0704 0.365504 67.754 0.602959 67.5066 0.904532C67.319 1.14324 67.1509 1.3235 66.9988 1.48652C66.6276 1.8845 66.3521 2.17976 66.1231 2.97205C65.6506 4.08784 65.2561 5.23511 64.9425 6.40559C64.6514 7.80271 64.4939 9.22437 64.4721 10.6514C64.5743 11.3393 64.5361 11.7603 64.4978 12.1833C64.46 12.6003 64.4221 13.0191 64.5182 13.6973C64.5503 14.6325 64.6864 15.5612 64.9241 16.4662C65.047 16.8495 65.1893 17.4946 65.3299 18.1319L65.3299 18.132C65.4636 18.738 65.5957 19.3368 65.7081 19.6967C65.7716 19.9007 65.8687 20.2259 65.9908 20.6353L65.991 20.6359L65.991 20.6359L65.991 20.636L65.991 20.636C66.4168 22.0633 67.1475 24.5124 67.8271 26.4083C67.7969 26.3841 67.7645 26.362 67.7294 26.3423C67.5433 26.2322 67.3216 26.1991 67.1115 26.25C66.7304 26.1802 66.3374 26.2186 65.977 26.3608C65.359 26.5546 64.8978 26.9423 65.1469 27.7268C65.208 27.8588 65.2349 28.0041 65.2253 28.1492C65.2156 28.2944 65.1696 28.4348 65.0915 28.5575C64.5658 30.6619 63.7726 32.5725 61.7987 34.0124C61.0701 34.7247 60.1995 35.2751 59.2438 35.6276C58.2657 35.9442 57.22 35.9889 56.2185 35.7569C55.5161 35.7183 54.8302 35.5284 54.2078 35.2003C53.5854 34.8722 53.0411 34.4134 52.6121 33.8555C51.3577 32.8587 51.081 31.5572 50.9058 29.9789C50.4274 27.9485 50.2748 25.8548 50.4538 23.7764C50.6156 22.0289 51.0352 20.3151 51.699 18.6907C51.8014 18.5213 51.8351 18.3713 51.8674 18.2271C51.9019 18.0728 51.935 17.9252 52.0495 17.7677C52.1951 17.7191 52.2272 17.6106 52.2748 17.4495C52.3087 17.3351 52.3503 17.1941 52.4461 17.0293C53.2716 15.1074 54.7036 13.5091 56.5229 12.4789C56.9898 12.1493 57.5502 11.9785 58.1215 11.9918C58.6928 12.0051 59.2447 12.2017 59.6958 12.5527C59.7615 13.0049 59.7832 13.4624 59.7603 13.9188C59.6454 14.2885 59.6454 14.6844 59.7603 15.0541C59.6614 16.0661 59.6924 17.0866 59.8526 18.0907C59.9317 18.3097 59.9216 18.5287 59.9111 18.7548C59.9008 18.9766 59.8902 19.2053 59.9633 19.4475C60.0181 19.6232 60.0599 19.8062 60.1021 19.9908L60.1021 19.9908C60.2372 20.5821 60.376 21.1897 60.9594 21.6258L61.4944 21.4597L63.3391 20.8689C63.542 20.5182 63.542 20.5182 63.459 20.2598L63.459 20.2598C63.2573 19.7629 63.1812 19.224 63.2376 18.6907C63.2376 18.6324 63.2501 18.5603 63.2648 18.4754C63.3037 18.2508 63.3581 17.9371 63.2376 17.5554C63.0007 17.4703 63.0118 17.2891 63.0233 17.1015C63.0293 17.0043 63.0354 16.9052 63.007 16.817C62.9908 15.6798 63.04 14.5426 63.1546 13.4111C63.1268 13.3139 63.1382 13.2036 63.148 13.1088C63.1643 12.9515 63.1762 12.8367 62.9978 12.8943C62.9191 12.6158 62.9568 12.3942 62.9887 12.2073C63.0128 12.0658 63.0336 11.9442 62.9978 11.8328C62.9005 11.53 62.9172 11.2874 62.931 11.0865C62.9408 10.9443 62.9492 10.823 62.9148 10.716C62.9148 10.1622 62.9355 10.1645 62.9459 10.1657C62.9467 10.1657 62.9475 10.1658 62.9481 10.1656C62.956 10.1634 62.953 10.1231 62.9148 9.60839C63.1269 9.29457 62.4259 8.89768 61.808 8.80538C61.5359 8.89158 61.3219 8.93709 61.1497 8.97368C60.6214 9.08598 60.4878 9.11436 60.2861 9.97759C60.2299 10.3053 60.1975 10.2697 60.1612 10.2297C60.1258 10.1909 60.0868 10.1479 60.0186 10.4299C60.0514 10.5425 60.0366 10.6433 60.0213 10.7466C60.0065 10.8465 59.9914 10.9488 60.0186 11.0667C59.8728 10.9981 59.733 10.9813 59.5927 10.9644C59.4312 10.945 59.269 10.9255 59.0963 10.8267C58.0821 10.616 57.0377 10.5941 56.0156 10.7621C55.7555 10.8429 55.4889 10.8582 55.2167 10.8739H55.2167H55.2167C54.9292 10.8904 54.6355 10.9073 54.3369 11.0021C54.2134 11.0414 54.057 11.0798 53.8801 11.1232C53.2249 11.284 52.2893 11.5137 51.7082 12.1097C51.4995 12.3238 51.3129 12.5084 51.138 12.6814C50.6947 13.1199 50.3265 13.484 49.8635 14.0665C49.0636 15.0308 48.3622 16.0728 47.7698 17.177C46.7431 19.1502 46.0393 21.2755 45.6853 23.4718C45.6853 25.3824 45.7867 28.3083 46.6076 29.9328C46.6821 30.1647 46.8439 30.5026 47.0205 30.8713C47.2374 31.3243 47.4766 31.824 47.6037 32.231C48.4327 33.7089 49.5566 35.0001 50.9058 36.0245C52.0447 36.6624 53.2249 37.2236 54.4384 37.7044C55.7648 38.1914 57.1798 38.3896 58.589 38.2859C61.0055 38.1105 62.9701 37.769 64.6949 36.3753C65.7326 35.6568 66.6174 34.7395 67.2982 33.6764C67.979 32.6132 68.4422 31.4255 68.661 30.182C68.709 29.7639 68.8204 29.3562 68.9908 28.9728C69.1154 29.11 69.2194 29.1326 69.296 29.0098C69.2805 28.9553 69.3354 29.0726 69.427 29.268L69.4271 29.268C69.6618 29.7687 70.137 30.7822 70.2829 30.7358C70.4504 30.8941 70.6015 31.003 70.7515 31.1113L70.7515 31.1113L70.7515 31.1113L70.7515 31.1113L70.7516 31.1113L70.7516 31.1113L70.7516 31.1113C70.899 31.2176 71.0453 31.3232 71.2053 31.4741C71.9133 32.3131 72.8921 32.8779 73.9723 33.0709C75.158 33.2562 76.3673 33.2249 77.5418 32.9786L77.6525 32.8771C78.3923 32.5347 79.0915 32.1106 79.737 31.6126C79.9179 31.3304 80.046 31.0176 80.1152 30.6896C80.2974 30.555 80.4417 30.3754 80.5338 30.1683C80.626 29.9612 80.6629 29.7338 80.6409 29.5082C80.4625 29.3244 80.5468 29.0658 80.6306 28.8091C80.6941 28.6147 80.7572 28.4212 80.7055 28.2621C80.7232 27.259 80.6366 26.2568 80.4472 25.2716C80.3544 24.4923 80.1908 23.723 79.9584 22.9734C80.0193 22.8753 80.0999 22.7909 80.1952 22.7258C80.2905 22.6606 80.3983 22.616 80.5118 22.5949C80.5856 22.4703 80.6732 22.3919 80.7608 22.3134C80.8485 22.235 80.9361 22.1565 81.0099 22.0319C81.211 21.9679 81.2989 21.8902 81.3869 21.8124C81.4764 21.7333 81.5661 21.654 81.7754 21.5889L81.8861 21.9581C81.8975 22.274 81.9246 22.6369 81.9525 23.0107C81.9923 23.5435 82.0337 24.0983 82.0337 24.5701L82.8454 27.1822C83.4341 28.1115 84.2891 28.8417 85.2988 29.2774C85.693 29.4356 86.0954 29.5721 86.5041 29.6864C86.314 29.8565 86.1277 30.031 85.9454 30.2097C85.708 30.4549 85.4829 30.6694 85.2679 30.8744C84.1794 31.9118 83.3477 32.7044 82.4774 35.9877C82.4591 36.1021 82.5678 36.1371 82.6641 36.1681C82.7619 36.1995 82.8469 36.2269 82.7725 36.3292C82.6253 36.4603 82.5098 36.6231 82.4347 36.8054C82.3596 36.9877 82.3269 37.1846 82.339 37.3814C82.3162 37.7593 82.1834 37.9769 82.0747 38.155C81.7877 38.6252 81.6685 38.8205 84.1837 40.9626C84.3587 41.1192 84.5211 41.262 84.6724 41.395C85.725 42.3204 86.2421 42.7751 86.7663 44.147C87.4808 45.5677 87.9723 47.09 88.2236 48.6604C88.6489 51.0824 88.742 53.5511 88.5003 55.9982C88.4304 56.3917 88.3349 56.7802 88.2144 57.1612C88.1101 57.0447 87.9762 56.9586 87.827 56.912C87.7957 56.8226 87.7969 56.7268 87.798 56.6318C87.7993 56.5305 87.8005 56.4302 87.7624 56.3397C87.3929 55.9876 87.1539 55.1352 86.9577 54.4354C86.8454 54.0348 86.7471 53.6842 86.6464 53.5062C86.4959 53.2401 86.3972 52.9467 86.3073 52.6794L86.3073 52.6794L86.3073 52.6793L86.3073 52.6792C86.232 52.4552 86.1628 52.2497 86.0745 52.094C86.0379 51.6585 85.8989 51.2378 85.6687 50.8664C85.6977 50.4257 85.5846 50.0968 85.4704 49.7651C85.367 49.4645 85.2628 49.1617 85.2628 48.7712L85.1798 48.5958C84.981 48.1926 84.898 47.742 84.94 47.2944C84.8476 47.1466 84.7933 46.9781 84.782 46.8041C84.7707 46.6301 84.8029 46.456 84.8755 46.2975C84.8175 46.2172 84.7423 46.1973 84.6706 46.1783C84.5941 46.1581 84.5217 46.1389 84.4788 46.0483C84.5987 45.7807 84.7371 45.4576 84.6726 45.3099C84.6726 44.9659 84.7392 44.7227 84.8072 44.4746C84.9089 44.1035 85.0137 43.7214 84.9031 42.9748C84.8721 42.8972 84.9079 42.8588 84.9461 42.8177C84.9988 42.7609 85.0562 42.6991 84.9492 42.5225L84.9367 42.5018C84.7608 42.2108 84.6702 42.061 84.1745 42.061C84.1007 41.8856 83.824 41.7933 83.824 41.7933C83.0952 41.5901 82.3334 41.5337 81.5827 41.6272C81.2157 42.0843 80.9543 42.617 80.8171 43.1871C80.4768 44.1868 80.3359 45.2435 80.4021 46.2975C80.5398 47.0264 80.5398 47.7747 80.4021 48.5035C80.5043 49.6687 80.73 50.8196 81.0754 51.937C81.233 53.0596 81.599 54.1427 82.1545 55.1306C82.7808 56.3244 83.6076 57.4016 84.5988 58.315L85.6779 59.0626C85.7733 59.0217 85.8418 59.0434 85.9099 59.065C85.9801 59.0873 86.0499 59.1094 86.1483 59.0626C86.541 59.4555 87.1895 59.3776 87.7894 59.3055L87.8916 59.2933C88.1918 59.1991 88.5137 59.1991 88.8139 59.2933C89.4269 59.3835 90.0509 59.3679 90.6586 59.2472C90.9749 59.1973 91.2751 59.0735 91.5347 58.8859C91.7943 58.6983 92.006 58.4521 92.1528 58.1673C92.4054 57.6281 92.5824 57.0566 92.6786 56.469C92.6786 56.469 92.8722 56.3767 92.7892 56.2013C93.0152 55.7169 93.1197 55.1846 93.0936 54.6507C93.2504 54.5768 93.1674 54.3922 93.1674 54.3922L92.9091 53.9123C92.9549 53.7744 92.9549 53.6255 92.9091 53.4877C92.8674 53.3996 92.9888 53.1925 93.1105 52.9849C93.2309 52.7795 93.3517 52.5735 93.315 52.4816C93.1892 52.2596 93.1254 52.0077 93.1305 51.7525L93.0752 50.571C93.0475 46.9898 91.6916 44.95 91.6916 45.2084C91.5955 44.9839 91.3746 44.5856 91.1622 44.2024C91.0689 44.0341 90.9772 43.8688 90.8984 43.7224C90.8666 43.6551 90.7749 43.5905 90.6782 43.5224C90.523 43.413 90.3549 43.2945 90.4003 43.1409C89.9906 42.4029 89.3432 42.1592 88.5052 41.8439C88.0227 41.6622 87.4769 41.4568 86.877 41.1196C86.5763 40.9938 86.3196 40.7818 86.1391 40.5104L85.1208 39.2711C85.363 39.5833 81.9711 37.9546 84.774 35.4247L84.9861 35.3693C85.0778 35.2311 85.2099 35.1247 85.3643 35.0647C85.907 34.4165 86.5519 33.8615 87.2736 33.4218C87.4065 33.3428 87.5175 33.2318 87.5964 33.0987C87.9317 32.8169 88.0568 32.8104 88.2017 32.8029C88.3558 32.795 88.5323 32.7858 89.0076 32.4434C89.2453 32.2967 89.3265 32.23 89.4046 32.1659C89.5083 32.0807 89.6066 31.9999 90.0591 31.7419C90.2295 31.5991 90.4205 31.4999 90.607 31.4032C90.7941 31.3061 90.9766 31.2114 91.129 31.0774C91.4226 30.952 91.6961 30.7841 91.9407 30.5789C92.2912 29.7759 92.1436 27.9484 91.6363 27.7546C91.6087 27.7257 91.5804 27.6986 91.5513 27.6731C91.8258 27.2351 92.0579 26.771 92.2441 26.2869C92.6455 25.503 92.9136 24.6577 93.0373 23.7856C93.0373 23.7315 93.0421 23.6559 93.0474 23.5713C93.0603 23.3672 93.0764 23.1104 93.0373 22.9734C93.0025 22.9601 92.9712 22.9392 92.9455 22.9123C92.9199 22.8853 92.9006 22.8529 92.8891 22.8175C92.8776 22.7821 92.8741 22.7445 92.879 22.7076C92.884 22.6707 92.8971 22.6353 92.9174 22.6042C92.9362 22.2893 92.8928 21.9888 92.8457 21.6624L92.8457 21.6624C92.8003 21.3478 92.7514 21.0092 92.7514 20.6105L92.5485 20.6751C92.5485 20.6208 92.5589 20.5608 92.5705 20.4939C92.5983 20.3334 92.6331 20.1326 92.5485 19.8721C92.5533 19.2762 92.4469 18.6845 92.2349 18.1276L92.115 17.7584C92.1792 17.4821 92.1093 17.3221 92.0236 17.1259L92.0235 17.1258L92.0235 17.1258L92.0235 17.1257C91.9861 17.0401 91.9457 16.9475 91.9121 16.8354C91.8492 16.6369 91.7793 16.493 91.7155 16.3615C91.6012 16.1262 91.5062 15.9308 91.5062 15.534C92.0739 15.2033 92.5447 14.729 92.8713 14.1588C93.0879 13.9648 93.1495 13.8202 93.2347 13.6204C93.2873 13.4969 93.3489 13.3523 93.4616 13.1619L93.5329 13.0416C93.6712 13.872 93.9867 14.6937 94.4959 15.5064C94.9542 16.2105 95.5958 16.776 96.3516 17.142C97.1075 17.508 97.9488 17.6605 98.7849 17.5832L99.2184 17.7124C99.0247 20.7583 98.3052 23.315 97.3091 23.9242C97.0232 24.0811 95.4644 22.6227 94.542 20.7767C94.4457 20.5658 94.6364 20.1463 94.8214 19.7393C94.9198 19.5229 95.0166 19.31 95.0678 19.1338C95.1278 18.8802 95.0941 18.6135 94.973 18.3829C94.8518 18.1522 94.6514 17.9731 94.4088 17.8787C94.1661 17.7842 93.8975 17.7808 93.6524 17.8689C93.4074 17.9571 93.2025 18.131 93.0755 18.3585C92.6775 18.9204 92.7231 19.2137 92.8156 19.8087C92.8432 19.9858 92.8749 20.1896 92.9003 20.4352C92.9464 22.7796 96.1469 25.2902 96.5897 25.4286C96.9508 25.4046 97.2666 25.5167 97.5659 25.6231C97.9544 25.7611 98.3151 25.8892 98.7111 25.6963C99.5552 25.5784 100.318 25.1303 100.832 24.4503C101.97 22.9199 102.654 21.0998 102.806 19.1984C102.85 18.7006 102.951 18.2764 103.044 17.8836L103.044 17.8835L103.044 17.8834L103.044 17.8834C103.147 17.4533 103.24 17.061 103.24 16.651C103.008 16.1475 103.038 15.9049 103.064 15.6851C103.086 15.5019 103.107 15.3344 102.972 15.0449C102.719 14.9288 102.444 14.8687 102.165 14.8687C101.887 14.8687 101.611 14.9288 101.358 15.0449C100.828 14.8516 100.247 14.8516 99.7164 15.0449C99.8732 15.3957 99.3291 15.2295 99.1907 14.9526C98.789 14.8618 98.4108 14.6876 98.0806 14.4413C97.7504 14.195 97.4756 13.882 97.2739 13.5227C97.0722 13.1634 96.9481 12.7657 96.9097 12.3554C96.8713 11.9451 96.9194 11.5312 97.0508 11.1407C97.0791 10.4689 97.3179 9.82306 97.7334 9.29467C98.0412 8.47008 98.6333 7.78268 99.4029 7.35639C99.8548 6.70106 100.159 6.55338 101.082 6.88565L101.395 7.55021C101.546 7.87601 101.615 8.24047 101.682 8.59537L101.682 8.59541C101.746 8.93425 101.809 9.26439 101.939 9.54389C102.999 11.8327 103.759 14.3154 104.48 16.6673C104.825 17.7962 105.162 18.8949 105.518 19.9276C105.571 20.8712 105.755 21.803 106.062 22.6966C106.258 23.1238 106.098 23.4288 105.857 23.8898C105.78 24.0364 105.695 24.1987 105.61 24.3857C105.557 24.5286 105.533 24.6807 105.54 24.833C105.546 24.9853 105.582 25.1348 105.647 25.273C105.711 25.4112 105.802 25.5352 105.914 25.638C106.027 25.7407 106.159 25.8202 106.302 25.8717C106.977 25.9655 107.614 26.2397 108.147 26.6655H109.512C109.923 26.6174 110.307 26.4321 110.6 26.1393C110.527 25.4875 110.611 25.2428 110.699 24.9886C110.755 24.8253 110.813 24.6581 110.831 24.3764C110.56 23.7934 110.571 23.65 110.593 23.3636V23.3635C110.605 23.2011 110.621 22.9927 110.591 22.632C110.66 22.3625 110.66 22.08 110.591 21.8105C110.388 21.133 110.363 20.4147 110.517 19.7245C111.156 17.5704 111.628 15.3702 111.928 13.1436C111.942 13.0567 111.963 12.9468 111.987 12.8214C112.131 12.0673 112.382 10.7544 111.67 10.5407H111.559C111.105 10.4097 111.031 10.9121 110.961 11.3862L110.961 11.3864L110.961 11.3865L110.961 11.3866L110.961 11.3867V11.3867C110.937 11.5473 110.914 11.7046 110.877 11.8329C110.595 13.0934 110.482 13.6719 110.365 14.269C110.294 14.6295 110.222 14.9968 110.111 15.5249C109.963 16.3483 109.735 17.1552 109.429 17.9339C109.297 17.6567 108.937 16.3882 108.571 15.0958L108.571 15.0954L108.571 15.095C108.193 13.7628 107.808 12.4054 107.658 12.0821C107.337 11.3868 107.202 10.4459 107.062 9.46062C106.907 8.37952 106.745 7.24496 106.32 6.32263C105.839 5.48863 105.181 4.7703 104.393 4.2182C104.11 3.79424 103.7 3.47107 103.221 3.2952L102.834 3.48904C102.677 3.56407 102.526 3.66055 102.373 3.75834C101.923 4.0455 101.456 4.34403 100.768 4.14436L99.9931 4.52279C99.6513 4.72386 99.2489 4.79589 98.8586 4.72585C97.5844 5.23453 96.4426 6.02677 95.5197 7.04256C95.0484 7.34359 94.6887 7.79105 94.4959 8.3163C93.9502 9.32888 93.6069 10.3305 93.4929 11.3207C93.4708 11.2666 93.4389 11.217 93.3988 11.1743C93.3486 11.1209 93.2869 11.0796 93.2183 11.0538C93.1497 11.028 93.0761 11.0182 93.0032 11.0252C92.9302 11.0322 92.8599 11.0559 92.7975 11.0944C92.8252 11.1867 92.7722 11.3067 92.7191 11.4267C92.6661 11.5467 92.6131 11.6667 92.6407 11.759C92.3629 12.7149 91.729 13.5276 90.8698 14.0295L90.5009 14.1403C90.4369 13.9271 90.2654 13.76 90.1211 13.6196C90.0156 13.5169 89.9247 13.4284 89.9013 13.3465C89.7854 13.3818 89.6833 13.2353 89.5709 13.074C89.4775 12.9401 89.3771 12.796 89.2557 12.7373L89.2322 12.726C88.9732 12.601 88.7281 12.4827 88.6654 12.3035C88.5681 12.2584 88.4997 12.204 88.4408 12.1573C88.3432 12.0799 88.2719 12.0233 88.1396 12.0635C88.1142 12.0722 88.0873 12.0757 88.0605 12.0739C88.0337 12.0721 88.0076 12.065 87.9835 12.0529C87.9595 12.0409 87.9381 12.0242 87.9206 12.0039C87.9031 11.9835 87.8897 11.9599 87.8814 11.9343C87.7757 11.8861 87.6673 11.83 87.5567 11.7727C87.1175 11.5452 86.6429 11.2995 86.1566 11.4544C85.7871 11.1518 84.9772 11.2068 84.2081 11.2589C83.9213 11.2784 83.6401 11.2975 83.3895 11.2975C83.082 11.2544 82.8237 11.3796 82.5627 11.5061L82.5626 11.5061C82.4322 11.5693 82.3011 11.6328 82.1628 11.6759C81.8123 11.9897 81.4526 12.3128 81.5725 12.682C81.6183 12.8231 81.6251 12.9467 81.6309 13.0528C81.6402 13.2242 81.6471 13.3498 81.8123 13.4296C81.9199 13.7697 82.038 13.8765 82.2007 14.0238C82.3029 14.1163 82.4227 14.2248 82.5687 14.4172C83.036 14.8494 83.5984 15.1656 84.2104 15.3402C85.5023 15.9412 86.9087 16.2561 88.3334 16.2632C88.5363 16.1986 88.7484 16.134 88.8037 16.3186C88.8591 16.5032 89.1173 16.6324 89.1173 16.6324L89.4678 17.7492C90.0035 20.5634 89.6219 23.4753 88.3795 26.0562C88.3358 26.3128 88.1243 26.55 87.8977 26.8042ZM69.6005 15.7462C69.447 16.0777 69.2956 16.405 69.2407 16.8908C69.2407 17.0754 69.1484 17.7677 68.9916 17.8323C68.9657 17.8424 68.9379 17.8471 68.91 17.846C68.8822 17.8449 68.8549 17.838 68.8298 17.8259C68.8047 17.8138 68.7824 17.7966 68.7642 17.7755C68.746 17.7543 68.7324 17.7297 68.7242 17.7031C68.2252 16.2212 67.8276 14.7071 67.5343 13.1711L67.479 12.9865C67.34 12.5361 67.3685 12.4006 67.4131 12.1884C67.4425 12.0485 67.479 11.8751 67.479 11.5559L67.2484 10.8083C67.2207 9.99604 67.1931 9.19303 67.11 8.19619C67.1384 7.55875 67.2222 6.9044 67.306 6.25044C67.3859 5.62607 67.4659 5.00206 67.4974 4.39346C67.5889 4.26332 67.5924 4.10046 67.5959 3.93905C67.599 3.79137 67.6021 3.64491 67.6727 3.52584C67.7111 3.0801 67.8008 2.6403 67.9402 2.21518C68.0136 2.08653 68.0345 1.97618 68.0552 1.86704C68.076 1.75694 68.0966 1.64809 68.1707 1.52294C69.2314 0.341503 69.8771 1.90137 70.1538 2.82436C70.3533 3.28956 70.4357 3.79666 70.3936 4.30115C70.4043 4.68911 70.4182 5.0973 70.4325 5.51999L70.4325 5.52046C70.5289 8.36588 70.6474 11.868 69.997 14.2787C69.967 14.9545 69.7824 15.3533 69.6005 15.7462ZM75.6602 21.875L75.7709 22.2442L75.5495 22.3088C74.5534 22.0134 73.7048 19.2906 73.4743 18.543C73.4743 18.4993 73.4624 18.3954 73.447 18.2616L73.447 18.2615C73.3975 17.8304 73.3124 17.0878 73.4743 17.0385C73.4979 16.9941 73.5343 16.9579 73.5789 16.9346C73.6234 16.9113 73.6739 16.9021 73.7238 16.9081C73.7737 16.9141 73.8206 16.935 73.8584 16.9682C73.8961 17.0013 73.923 17.0452 73.9354 17.0939C74.034 17.1415 74.1203 17.2112 74.1875 17.2977C74.2547 17.3841 74.301 17.485 74.3228 17.5923C74.8656 18.9877 75.3124 20.4186 75.6602 21.875ZM85.6124 12.4235C86.3824 12.8069 87.1039 13.281 87.7615 13.8357H87.6877C87.9056 14.0387 88.0894 14.2756 88.2319 14.5372C87.8717 14.6022 87.5085 14.6484 87.1435 14.6756C86.3885 14.7052 85.6413 14.5127 84.9944 14.1218L84.2381 13.8634C83.9327 13.6681 83.6895 13.3895 83.5371 13.0604C83.242 12.7558 83.1866 12.5712 83.5371 12.2481C83.5609 12.1923 83.5967 12.1424 83.6418 12.102C83.687 12.0615 83.7404 12.0314 83.7985 12.0138C83.8565 11.9962 83.9177 11.9915 83.9777 12.0001C84.0377 12.0087 84.0951 12.0304 84.1459 12.0635C84.3877 12.092 84.6442 12.1693 84.9002 12.2464L84.9003 12.2464C85.1422 12.3193 85.3839 12.3921 85.6124 12.4235ZM51.7302 60.1617C51.6038 59.92 51.4873 59.6973 51.4123 59.4595L51.3293 59.0626C51.4782 59.0139 51.6147 58.9334 51.7294 58.8266C51.8441 58.7198 51.9341 58.5893 51.9934 58.4442C52.1963 58.3796 52.3992 58.3149 52.3531 58.1673C52.4861 57.9059 52.7086 57.6762 52.9265 57.4514C53.1164 57.2553 53.3027 57.063 53.423 56.8566C54.1121 56.302 54.7124 55.6452 55.2031 54.9091C55.2586 54.8155 55.3218 54.7479 55.3762 54.6898C55.4667 54.5931 55.5328 54.5225 55.4983 54.4015C55.6306 54.3519 55.7437 54.2613 55.8211 54.143C56.6835 52.9247 57.3582 51.5837 57.8226 50.1649C57.758 49.9803 57.7027 49.7865 57.9056 49.7219C58.0113 49.2688 58.0373 48.7774 58.0631 48.2909C58.0847 47.8854 58.106 47.4833 58.1731 47.1098C58.2987 45.5765 58.1072 44.0338 57.6105 42.5779L57.4906 42.2087C57.0983 41.2392 56.4025 40.4231 55.5075 39.8827C55.1314 39.7259 54.7748 39.5995 54.4178 39.473L54.4177 39.4729L54.4175 39.4729L54.4175 39.4729C54.0392 39.3388 53.6603 39.2045 53.257 39.0336C52.5842 38.7699 51.8806 38.5931 51.1632 38.5075C50.3545 38.5075 49.609 38.4265 48.8987 38.3494C48.4586 38.3016 48.032 38.2553 47.6122 38.2306C47.2809 38.2452 46.9317 38.2006 46.5766 38.1552H46.5766H46.5765H46.5765H46.5765L46.5764 38.1552C46.2593 38.1147 45.9375 38.0737 45.6199 38.0737C44.9889 38.0945 44.3657 38.2192 43.7752 38.4429C43.4453 38.5658 43.0936 38.6192 42.7422 38.5998C42.4807 38.8048 42.2693 39.0668 42.1242 39.3658L42.1242 39.3659C41.9766 39.6151 41.9766 39.6151 42.0412 39.7997C42.0367 40.6222 42.1422 41.4417 42.3548 42.2364C42.4094 42.865 42.5395 43.4848 42.7422 44.0824C42.8375 44.7408 42.9796 45.3724 43.1215 46.0025C43.2679 46.6531 43.414 47.3022 43.5077 47.9774C43.6521 48.4296 43.726 48.8417 43.8005 49.2578C43.8735 49.6656 43.9473 50.0773 44.0888 50.5341C44.2477 51.8464 44.5161 53.1432 44.8912 54.4107C44.9687 54.6519 45.002 54.9152 45.038 55.1997C45.0791 55.5248 45.1237 55.8776 45.2417 56.2567C45.3879 56.7284 45.4786 57.2002 45.5693 57.6719C45.6561 58.1232 45.7429 58.5744 45.8782 59.0257C46.2114 59.9769 46.4433 60.9608 46.5699 61.9608L48.802 69.114C48.8481 69.2617 48.8481 69.2617 49.1156 69.3817C49.238 69.366 49.3623 69.3751 49.4811 69.4084C49.5999 69.4417 49.7109 69.4985 49.8074 69.5755C50.1147 69.7223 50.4458 69.8129 50.7851 69.8432C51.1552 69.8162 51.5274 69.8379 51.8919 69.9078C52.0026 69.9539 52.1593 69.9539 52.3196 69.9539H52.3196C52.4799 69.9539 52.6436 69.9539 52.7681 70.0001L52.9803 69.9355C52.9412 69.8451 52.921 69.7478 52.921 69.6493C52.921 69.5509 52.9412 69.4535 52.9803 69.3632L54.3269 69.5109L54.6313 69.0494C54.5764 68.8436 54.5578 68.6061 54.5395 68.3728C54.5209 68.1352 54.5027 67.902 54.4468 67.7111C54.009 66.2098 53.4729 64.7391 52.8419 63.3084L52.1778 61.1855C52.0515 60.7758 51.8835 60.4548 51.7302 60.1617ZM47.7966 40.9719L47.8428 41.1196L48.4146 40.9811L51.8827 41.701C51.9876 41.6581 52.0506 41.6768 52.1151 41.696C52.1752 41.7139 52.2366 41.7322 52.3346 41.701C52.8098 41.935 53.2165 42.2879 53.5152 42.7256C53.7902 43.5898 53.8597 44.5064 53.7181 45.4023C53.46 46.9394 52.7907 48.3779 51.7812 49.565C51.291 50.3317 50.7086 51.0353 50.0472 51.6602C49.9828 51.7689 49.8762 51.8531 49.7512 51.9518C49.5898 52.0792 49.3978 52.2308 49.2263 52.4909L48.8205 52.6201L48.6083 52.5185C48.3759 51.6602 48.0415 50.8328 47.6122 50.0541L46.5515 46.6575C46.247 46.3347 46.0421 45.9309 45.9612 45.4945C45.9378 45.4165 45.8665 45.3169 45.7844 45.2022C45.6724 45.0457 45.5401 44.8609 45.4816 44.6639L44.3563 41.0918C44.5932 40.8851 44.8582 40.8466 45.1274 40.8075L45.1275 40.8075C45.267 40.7872 45.4076 40.7668 45.5461 40.7227C45.9085 40.6996 46.2721 40.6996 46.6345 40.7227C46.8776 40.7513 47.0542 40.7996 47.233 40.8486C47.4002 40.8943 47.5694 40.9406 47.7966 40.9719ZM65.2297 52.2231C65.2617 51.9896 65.3692 51.773 65.5357 51.6063C65.7023 51.4397 65.9187 51.3321 66.152 51.3001L66.4933 51.1155C66.9192 50.7459 67.4608 50.5369 68.0244 50.5247L68.4026 50.3217C68.6522 50.1908 68.8673 50.2286 69.1147 50.272C69.2512 50.296 69.3975 50.3217 69.5648 50.3217C70.0379 50.6146 70.4302 51.0215 70.7057 51.5052C70.9812 51.9889 71.1312 52.534 71.142 53.0907C71.401 52.9843 71.5357 52.7391 71.6804 52.4758C71.7366 52.3735 71.7943 52.2684 71.8614 52.1677C72.4153 51.2849 72.2594 49.8845 72.1267 48.6927C72.0804 48.2771 72.037 47.8868 72.0274 47.5527C71.9856 47.3383 71.9416 47.1247 71.8983 46.9145C71.7887 46.3827 71.6837 45.8731 71.6308 45.4298C71.6308 45.1948 71.5186 45.1578 71.3426 45.0997C71.2076 45.0551 71.035 44.9982 70.8468 44.8299L71.0497 44.2761L70.8007 43.7961C70.7028 43.5948 70.652 43.3739 70.652 43.15C70.652 42.9262 70.7028 42.7052 70.8007 42.5039L70.7085 42.3285C71.2863 42.0391 71.9109 41.8546 72.5532 41.784L73.0789 41.4978C73.3137 41.4457 73.5574 41.4504 73.79 41.5114C74.0226 41.5724 74.2373 41.688 74.4163 41.8486C74.4361 41.8911 74.5116 41.971 74.6037 42.0686L74.6038 42.0686L74.6038 42.0687L74.6038 42.0687C74.8118 42.2889 75.1046 42.5989 75.0343 42.7716C75.1022 43.1291 75.2033 43.4077 75.2979 43.6685C75.4476 44.081 75.5811 44.449 75.5416 45.0145C75.5467 45.3544 75.5744 45.6936 75.6246 46.0298C75.8722 47.5219 76.2895 49.3881 76.6435 50.9716L76.6436 50.9717L76.6436 50.9721L76.6437 50.9722L76.6438 50.9726C76.8963 52.102 77.1166 53.0874 77.2203 53.6906L77.3863 54.0044C77.4805 54.1929 77.4734 54.4454 77.4668 54.683C77.4611 54.8876 77.4557 55.0812 77.5154 55.2136C77.6478 55.5958 77.7042 56.0003 77.6814 56.4042C77.7093 56.4632 77.7185 56.5336 77.7274 56.6025C77.7451 56.7386 77.7621 56.8689 77.9213 56.8934C78.067 56.7233 78.1385 56.5198 78.2114 56.3127C78.2768 56.1267 78.3432 55.9377 78.4654 55.7674C78.4654 55.5562 78.6276 54.4237 78.7883 53.3021L78.7883 53.302L78.7883 53.3018L78.7883 53.3017C78.9436 52.2177 79.0973 51.1439 79.1019 50.9216C79.0917 50.4374 79.1413 49.9538 79.2495 49.4818C79.2579 49.4478 79.2655 49.409 79.2735 49.3675L79.2736 49.3673L79.2736 49.3671C79.3267 49.0934 79.4024 48.7038 79.9227 48.808C79.9443 48.851 79.9668 48.8944 79.9895 48.938L79.9897 48.9385L79.99 48.939L79.9901 48.9391C80.1323 49.2127 80.2777 49.4924 80.1902 49.731C80.2179 50.0217 80.2179 50.2848 80.2179 50.549V50.5491C80.2179 50.8133 80.2179 51.0786 80.2456 51.3739C80.0953 52.3571 80.0336 53.3517 80.0611 54.3459C80.1033 54.6995 80.0098 55.2281 79.9272 55.6953C79.8653 56.0453 79.8095 56.3608 79.8213 56.5427C79.7521 57.0949 79.6411 57.641 79.4892 58.1764L78.899 59.7732L78.7053 59.8747C78.1213 60.1446 77.499 60.3221 76.8606 60.4008C76.5417 60.3543 76.2395 60.2286 75.9817 60.0351C75.7239 59.8416 75.5187 59.5865 75.3848 59.2932L75.1358 58.804C74.5228 58.1382 74.1721 57.2723 74.1488 56.3673C74.0495 55.893 73.9406 55.482 73.8018 54.9584C73.6057 54.2186 73.3501 53.2539 72.9774 51.5677L72.9357 51.7582C72.677 52.944 72.433 54.0621 71.391 54.6228C71.391 54.7064 71.4137 54.8373 71.4394 54.9854C71.4704 55.1646 71.5059 55.369 71.5109 55.5458C71.6202 56.2591 71.634 56.4824 71.6482 56.7118C71.6616 56.9276 71.6753 57.1488 71.7692 57.7887C71.7888 59.3965 71.5169 60.9945 70.9667 62.5052C70.6365 63.351 70.0194 64.0535 69.2235 64.4897C68.6451 64.8194 68.0328 65.0856 67.3972 65.2834L66.5579 65.0619C66.3493 65.0078 66.1665 64.9699 65.9867 64.9325L65.9865 64.9325C65.737 64.8807 65.4929 64.8301 65.1928 64.7389C64.6843 64.624 64.2198 64.3643 63.8554 63.9913C63.6173 63.6458 63.468 63.5446 63.3289 63.4503C63.1446 63.3255 62.9782 63.2127 62.6471 62.5606C62.6146 62.4956 62.5866 62.43 62.5589 62.3652L62.5589 62.3651C62.4373 62.0806 62.3231 61.8133 61.8723 61.693L61.5587 61.0654C61.0563 59.7315 60.7458 58.3331 60.6364 56.9119C60.365 53.6439 60.2417 52.5461 59.9439 49.8925L59.9439 49.8924L59.9439 49.8923L59.9439 49.8921L59.8616 49.1587C59.8203 48.1245 59.4807 47.1244 58.8839 46.279C58.9401 46.0452 59.0733 45.8371 59.2621 45.6883C59.3635 45.4114 59.5572 45.3098 59.797 45.4021C60.0369 45.4944 61.0976 44.9222 61.0976 44.9222C61.4987 44.8379 61.9167 44.9018 62.2745 45.102C62.6322 45.3022 62.9054 45.6252 63.0437 46.0113C63.1346 46.1878 63.1387 46.3549 63.1423 46.4985C63.1449 46.6027 63.1472 46.6944 63.1821 46.7682L63.2743 46.9435C63.5516 47.5833 63.7289 48.2619 63.8001 48.9557C64.0295 49.5633 64.1723 50.2003 64.2243 50.8478L64.2329 50.8915C64.3776 51.6342 64.5246 52.3883 64.787 53.2845C64.787 53.2497 64.8106 53.2411 64.8356 53.2321C64.8768 53.2172 64.9217 53.2009 64.87 53.063L65.2297 52.2231ZM65.1006 55.6935C65.2017 56.419 65.2892 57.1514 65.3755 57.8739L65.3755 57.8741L65.3755 57.8744L65.3756 57.8746C65.4309 58.3376 65.4857 58.7966 65.5433 59.2471L65.7185 59.5978C65.9148 60.0311 65.9913 60.5093 65.9399 60.9823C66.0122 61.6758 66.1895 62.3543 66.4656 62.9944L66.7331 63.5113L66.7332 63.5113C67.1113 63.3082 67.4895 63.1052 67.554 62.8467C67.877 62.4737 68.1357 62.0495 68.3196 61.5915C68.7346 60.0905 68.8536 58.523 68.6701 56.9765C68.6639 56.6506 68.5716 56.3321 68.4026 56.0535C67.9818 56.0472 67.5635 55.9883 67.1574 55.8781C66.7098 55.8455 66.2786 55.6962 65.9065 55.4453C65.5344 55.1943 65.2343 54.8503 65.036 54.4475L64.9622 54.309C64.7777 54.4106 64.9622 54.4844 64.9622 54.4844C64.9577 54.6991 64.9966 54.8922 65.0347 55.0814C65.0752 55.2826 65.1148 55.4795 65.1006 55.6935ZM66.4841 52.6107C66.6422 52.6716 66.7081 52.8769 66.7796 53.0997C66.8165 53.2148 66.855 53.3345 66.9084 53.4414C66.9883 53.6014 67.1163 53.7591 67.2432 53.9155L67.2433 53.9156C67.3653 54.0659 67.4864 54.2152 67.5632 54.3644L67.7477 54.7059C67.8182 54.6671 67.8751 54.6687 67.9243 54.6701C68.004 54.6724 68.0632 54.674 68.1259 54.5029C68.1122 53.9798 67.9227 53.4767 67.588 53.0747C67.2532 52.6727 66.7928 52.3955 66.2812 52.2877L66.4841 52.6107ZM101.524 43.5378C101.707 42.6297 101.849 41.7078 101.991 40.7841C102.014 40.6375 102.036 40.4909 102.059 40.3442C102.053 39.6978 102.106 39.0522 102.216 38.4152C102.435 38.2631 102.425 38.0068 102.417 37.7863C102.413 37.6722 102.409 37.5677 102.437 37.4922C102.612 36.7128 102.674 36.2147 102.728 35.7806C102.802 35.1865 102.861 34.7121 103.175 33.8002C103.35 33.1602 103.594 32.5412 103.904 31.9542C104.018 31.8515 104.088 31.7285 104.154 31.6122C104.249 31.4462 104.336 31.294 104.531 31.2343C104.856 30.9145 105.263 30.6903 105.707 30.5861C106.151 30.482 106.615 30.5018 107.049 30.6435C107.274 30.8138 107.461 31.0288 107.599 31.275C107.737 31.5212 107.823 31.7933 107.851 32.0742C107.744 32.1085 107.709 32.1765 107.676 32.2397C107.647 32.2957 107.621 32.3479 107.547 32.3695C107.48 32.3835 107.411 32.3834 107.344 32.369C107.278 32.3547 107.215 32.3266 107.16 32.2865C106.864 32.2126 106.864 32.2126 106.809 32.028C106.576 32.0993 106.497 32.3067 106.42 32.5103C106.388 32.5969 106.355 32.6828 106.311 32.7572C106.327 32.9475 106.275 33.1373 106.163 33.2925C105.649 34.3219 105.232 35.3973 104.918 36.5046C104.888 36.9887 104.739 37.4579 104.485 37.8706C104.145 38.6202 103.957 39.4294 103.931 40.2519C103.938 40.2714 103.949 40.2892 103.964 40.3044C103.978 40.3196 103.995 40.3318 104.014 40.3404C104.032 40.349 104.053 40.3538 104.073 40.3544C104.094 40.3551 104.115 40.3516 104.134 40.3442C104.231 40.3752 104.305 40.4315 104.383 40.4909C104.468 40.5556 104.558 40.624 104.688 40.6673C104.884 40.9854 104.935 41.0438 105.005 41.1252C105.063 41.1926 105.135 41.2757 105.315 41.5349C105.643 41.9106 105.995 42.4218 106.353 42.9407L106.353 42.9408C106.759 43.5308 107.173 44.1308 107.565 44.5531C107.695 44.693 107.833 44.8507 107.974 45.0128L107.974 45.013C108.635 45.7706 109.38 46.625 109.844 46.2145C110.359 45.5642 110.617 43.6541 110.83 42.0802C110.937 41.286 111.033 40.5775 111.144 40.1596C111.201 40.0356 111.182 39.9461 111.159 39.8389C111.138 39.7386 111.113 39.6228 111.144 39.4489C111.144 39.4014 111.159 39.3415 111.177 39.2723C111.214 39.1262 111.262 38.9386 111.199 38.7382C111.107 38.4429 111.43 38.3413 111.642 38.4336C111.678 38.553 111.742 38.6567 111.809 38.763C111.868 38.8574 111.928 38.9539 111.971 39.0655C111.856 38.0032 111.906 36.9274 112.122 35.8769C112.301 34.5908 112.576 33.3198 112.943 32.0742C113.012 31.9126 113.219 31.5665 113.427 31.2204C113.634 30.8743 113.842 30.5281 113.911 30.3666C114.315 29.8024 114.854 29.3487 115.479 29.0467C115.748 29.0433 116.014 28.9901 116.263 28.8898C116.715 28.7305 117.202 28.7023 117.669 28.8085C118.135 28.9147 118.563 29.1509 118.901 29.4898C118.777 29.5471 118.596 29.6661 118.419 29.783C118.253 29.8921 118.09 29.9993 117.979 30.0528C117.748 30.1636 117.056 31.2896 117.121 31.5019C117.068 31.6306 117.006 31.7618 116.944 31.8946C116.693 32.4282 116.431 32.9856 116.66 33.4956C116.563 33.7691 116.489 34.05 116.438 34.3355C116.189 34.9241 116.216 35.6597 116.241 36.3393C116.258 36.7893 116.274 37.2148 116.208 37.5568C116.296 37.759 116.174 38.0619 116.051 38.3694C116.045 38.3847 116.039 38.3999 116.032 38.4151C116.058 38.7623 116.075 39.2202 116.093 39.6845C116.114 40.2325 116.136 40.7894 116.171 41.1841C116.365 41.6087 116.558 42.0333 116.171 42.4763C116.365 42.8984 116.444 43.1702 116.509 43.3909C116.606 43.7251 116.669 43.9422 117.047 44.3869C117.241 44.8115 118.265 44.5808 118.403 44.2577C118.68 43.9365 118.895 43.5674 119.039 43.1686C119.392 41.6139 119.62 40.0337 119.722 38.4428C119.802 37.8611 119.726 37.2683 119.501 36.7261C119.584 36.5603 119.601 36.3684 119.547 36.1907C119.285 35.5866 119.177 34.9269 119.233 34.2709C119.241 33.7835 119.12 33.3028 118.883 32.8772C118.735 32.5587 118.647 32.2126 118.56 31.8665C118.472 31.5204 118.384 31.1742 118.237 30.8558C118.417 30.5409 118.672 30.2751 118.98 30.082C119.287 29.8889 119.637 29.7742 119.999 29.7482C120.133 29.784 120.274 29.7918 120.412 29.7712C120.55 29.7505 120.683 29.7019 120.801 29.6282C120.866 29.6479 120.94 29.6635 121.017 29.6797C121.337 29.7467 121.709 29.8245 121.65 30.2559C122.23 30.5747 122.403 31.0894 122.582 31.6204C122.636 31.7811 122.69 31.9432 122.756 32.1019C122.87 32.6209 122.982 33.1382 123.093 33.6545C123.235 34.3133 123.377 34.9705 123.522 35.6277L123.817 36.2646C124.106 36.9031 124.37 37.6377 124.631 38.3625C124.894 39.0939 125.153 39.8154 125.431 40.418L125.819 41.2764C125.996 40.903 126.1 40.4986 126.123 40.0858C126.358 39.1165 126.462 38.0487 126.573 36.9211C126.663 36.0084 126.756 35.0566 126.925 34.0863C126.833 33.874 127.377 33.5233 127.617 33.4125C127.857 33.3017 128.032 33.6617 127.995 34.1971C127.925 34.3619 127.89 34.9277 127.856 35.4855C127.823 36.0212 127.791 36.5493 127.728 36.7076C127.729 37.4602 127.623 38.2091 127.414 38.932C127.475 39.605 127.361 40.2824 127.082 40.898C127.184 41.1103 127.082 41.4333 126.916 41.7656V41.7658C126.916 42.301 126.916 42.301 126.833 42.8363C126.827 42.8515 126.821 42.8668 126.815 42.882C126.692 43.1896 126.57 43.4924 126.658 43.6947C126.935 44.2946 126.031 46.0299 125.284 45.6514C125.226 45.6811 125.159 45.6871 125.097 45.6681C125.035 45.6492 124.983 45.6067 124.952 45.5499C124.561 45.4119 124.148 45.3462 123.734 45.3561C123.504 45.4668 123.07 45.153 122.978 44.9407L122.784 44.5161C122.548 43.5206 122.202 42.5547 121.751 41.6364L121.557 41.2118L121.419 41.5349C121.391 41.9481 121.285 42.3522 121.105 42.7255C121.18 42.8968 121.212 43.0835 121.199 43.2699C121.186 43.4563 121.129 43.6368 121.032 43.7962C120.929 44.2591 120.745 44.6998 120.487 45.0976C120.033 45.8311 119.328 46.3742 118.503 46.6256C117.678 46.8769 116.79 46.8194 116.005 46.4637C114.865 46.0157 113.91 45.1962 113.293 44.1377C112.527 42.9048 112.122 41.482 112.122 40.0304C112.084 39.8462 112.051 39.6613 112.024 39.4758C112.023 39.4852 112.022 39.4947 112.02 39.5043C112.02 39.5482 112.026 39.6147 112.032 39.6976L112.032 39.6979V39.698C112.052 39.9464 112.083 40.3423 112.02 40.7227C112.071 41.9422 111.953 43.1629 111.67 44.35L111.762 44.6454C111.879 45.0617 111.847 45.506 111.67 45.9007C111.461 46.2293 111.365 46.6789 111.271 47.1161C111.191 47.4891 111.113 47.8531 110.969 48.1251V48.2358C110.659 48.7178 110.212 49.0968 109.687 49.325C109.143 49.8695 108.764 49.8603 107.944 49.7957C107.371 49.7265 106.819 49.5379 106.323 49.2423C105.827 48.9466 105.399 48.5503 105.066 48.0789C104.549 47.4113 104.074 46.7115 103.645 45.9837C103.55 45.6964 103.378 45.4409 103.147 45.2453L103.064 44.9869C102.828 45.2001 102.814 45.312 102.78 45.5826C102.774 45.6283 102.768 45.6785 102.76 45.7345C102.682 46.1801 102.601 46.5652 102.526 46.9182C102.477 47.1501 102.431 47.3682 102.391 47.5805C102.323 48.1477 102.323 48.7209 102.391 49.2881C102.585 50.211 102.871 51.5494 103.083 52.5093C103.109 53.0605 103.247 53.6006 103.489 54.0969C103.608 54.3461 101.782 55.1214 101.598 54.9737C101.474 55.0131 101.45 55.0525 101.41 55.1169C101.384 55.1582 101.353 55.2098 101.284 55.2783L101.192 55.6752C101.139 55.6752 101.091 55.6253 101.038 55.5711C100.962 55.4933 100.878 55.4064 100.758 55.4444C100.547 55.6555 100.277 55.7972 99.9836 55.8506C99.6763 55.6093 99.3957 55.2638 99.1132 54.9159L99.1132 54.9158C98.8445 54.585 98.574 54.252 98.2773 54.0046C98.1672 53.0808 97.9601 52.1712 97.6593 51.291C97.5061 50.5565 97.3952 49.8138 97.3273 49.0665C97.2274 48.4597 97.1202 47.8944 97.0156 47.3433C96.8594 46.5197 96.7091 45.7277 96.5986 44.8761C96.4395 44.3482 96.3465 43.8025 96.3219 43.2517C96.3219 42.9948 96.2313 42.7159 96.1396 42.4339L96.1396 42.4339C96.0534 42.1686 95.9664 41.9006 95.953 41.6456C95.6631 40.8767 95.4589 40.0781 95.3442 39.2643C95.2155 40.0204 95.1503 40.7746 95.0856 41.5236L95.0856 41.5237C95.0066 42.4387 94.9282 43.346 94.7355 44.2393C94.5736 44.4624 94.4835 44.7297 94.4772 45.0054C94.4506 45.4028 94.3794 45.796 94.2651 46.1776C94.1598 46.5677 94.1435 46.7171 94.134 46.8042C94.1211 46.923 94.1208 46.9257 93.9238 47.2667C93.8725 47.3208 93.8441 47.368 93.8185 47.4105C93.7611 47.5056 93.7176 47.5778 93.4626 47.6543C93.2966 47.7097 93.1029 47.6544 92.9553 47.3313L92.817 47.0452C92.8908 46.6944 92.9276 46.5191 92.9553 46.3068C93.2776 44.8582 93.5086 43.3908 93.6471 41.9133C93.9264 39.7161 94.019 37.4991 93.9238 35.2862C93.8221 34.7976 93.8003 34.2958 93.8592 33.8002C93.8804 33.6998 93.8894 33.616 93.8969 33.5461C93.9157 33.3717 93.9252 33.2833 94.0898 33.2372C94.0898 32.9141 96.3127 32.0096 96.5156 31.945C96.8553 31.6906 97.2452 31.5112 97.6593 31.4189C97.8253 31.3727 98.0375 31.465 98.1297 31.7604C98.4153 32.0011 98.6211 32.323 98.72 32.6834C98.9695 33.2178 99.1195 33.7934 99.1627 34.3817C99.3302 35.0519 99.464 35.6864 99.5982 36.3233L99.5983 36.3234C99.745 37.0195 99.8924 37.7186 100.085 38.4705C100.135 38.7113 100.188 38.9521 100.241 39.1922L100.241 39.1923C100.365 39.7528 100.487 40.3091 100.565 40.8519C100.732 41.7423 100.923 42.5174 101.151 43.4417C101.211 43.6862 101.274 43.9412 101.339 44.2116C101.394 44.0791 101.44 43.9822 101.476 43.9068C101.562 43.725 101.589 43.6683 101.524 43.5378Z" fill="white"/>
<path fill-rule="evenodd" clip-rule="evenodd" d="M16.0641 22.0089C15.508 21.3387 14.9468 20.6647 14.3803 19.9867C13.0673 18.2957 11.8904 16.9646 10.8671 15.8072C10.5722 15.4736 10.29 15.1545 10.021 14.8453C8.67437 13.2642 7.07833 11.6578 5.19193 10.6057L5.03603 10.4886C4.71449 10.2934 4.4514 10.1509 4.2273 10.0396L4.16299 10.0201C3.52507 9.89089 3.28759 10.4144 3.13489 10.751C3.07534 10.8822 3.02868 10.9851 2.97619 11.0097C2.90214 11.1659 2.82224 11.3357 2.74039 11.5211C1.97648 13.762 1.30805 16.0106 1.25544 18.1226C1.57032 18.5204 1.95704 18.8555 2.39546 19.1103C2.81254 19.3865 3.26141 19.6114 3.73231 19.7798C4.04996 19.8637 4.95613 20.0687 5.33809 20.1409C5.46109 20.1658 5.57155 20.1673 5.67145 20.1686C5.75198 20.1698 5.82564 20.1708 5.89349 20.1838C5.9617 20.1565 5.98508 20.1468 6.00846 20.1116C6.06612 20.1989 6.10447 20.2975 6.12094 20.4009C6.13741 20.5042 6.13162 20.6099 6.10395 20.7109L6.05134 20.7792V20.7265C6.03028 20.7225 6.00851 20.7248 5.98876 20.7332C5.969 20.7415 5.95214 20.7555 5.94026 20.7733L5.60507 20.9139C4.92149 21.1997 4.28437 21.0413 3.74497 20.9071C3.66927 20.8883 3.5955 20.8699 3.52379 20.8534C3.35852 20.8068 3.18589 20.7922 3.01517 20.8104L2.82029 20.7636C2.34621 20.5944 1.89616 20.3641 1.48149 20.0784C1.20825 19.8749 0.947913 19.6546 0.701989 19.4187C0.405777 21.2964 0.16413 23.1957 0.0257682 25.1242C-0.095055 28.9383 0.193361 33.4648 1.22426 38.7039L1.29246 38.9596C1.3503 39.2505 1.40286 39.5163 1.45102 39.7598C1.80793 41.5644 1.92247 42.1435 2.14469 42.6778C2.24972 42.9303 2.37879 43.1727 2.56888 43.5298C2.87856 44.1115 3.35017 44.9974 4.1435 46.7263C4.21561 46.8708 4.28771 47.0152 4.36176 47.1597C6.37483 50.4428 12.1354 58.5746 15.2553 61.9944C15.9004 62.7047 16.5776 63.3956 17.2271 64.0584C17.7431 64.5849 18.2417 65.0936 18.693 65.5801C19.2984 66.1293 19.8992 66.657 20.4956 67.1632C20.5776 67.2345 20.636 67.3291 20.6631 67.4345C20.5761 67.6464 20.4705 67.8502 20.3474 68.0435C20.3923 68.1879 20.2773 68.4124 20.1526 68.6095C20.1526 68.6095 20.0045 68.8438 20.0395 68.9589C20.1292 69.2459 19.7238 69.2459 19.7238 69.2459C19.7015 69.7685 19.5407 70.2758 19.2581 70.7157C18.9953 71.1021 18.8424 71.5528 18.8157 72.0196C18.7907 72.3196 18.7652 72.6476 18.7385 72.9911L18.7384 72.9919C18.6902 73.6115 18.6381 74.2815 18.578 74.928C18.5112 75.1322 18.5153 75.353 18.5897 75.5546L18.6891 75.8708C18.6891 76.1009 18.7097 76.2847 18.7305 76.4694C18.7548 76.6857 18.7793 76.9033 18.7709 77.1981C18.7027 77.6919 18.6442 78.215 18.9892 78.6093L18.9899 78.6118C19.0351 78.7574 19.1325 79.0713 18.9892 79.3042C19.0123 79.4117 19.0582 79.513 19.1238 79.6012C19.1893 79.6895 19.273 79.7626 19.3692 79.8156C19.4517 79.8423 19.5125 79.8792 19.5682 79.9129C19.6797 79.9805 19.7706 80.0356 19.9733 79.9718C20.3435 79.8566 20.4585 79.6321 20.5579 79.2535C20.5996 79.1649 20.6402 79.0795 20.6799 78.9958C20.8722 78.5905 21.0452 78.2261 21.2341 77.7505C21.9493 75.6678 22.1013 73.667 22.1812 71.4379L22.1462 71.3227C22.1176 71.2328 22.1596 71.1723 22.1996 71.1146C22.236 71.0621 22.2708 71.0119 22.2494 70.9441C22.227 70.8728 22.2441 70.7806 22.2611 70.6884C22.2782 70.5961 22.2952 70.5039 22.2728 70.4327C22.1052 70.4854 22.0604 70.3409 22.1754 70.1164C22.0663 69.1756 22.1598 68.2953 22.2787 67.251C22.3264 67.3225 22.3745 67.4202 22.4304 67.5336C22.6186 67.916 22.8948 68.4769 23.5395 68.8125C23.7793 69.0209 24.0055 69.2317 24.2285 69.4396L24.2286 69.4397C24.9481 70.1105 25.6353 70.7511 26.6439 71.1802C27.6007 71.7658 28.4874 72.1133 29.493 72.1445C29.8603 72.2083 30.1438 72.1857 30.4532 72.1612L30.4534 72.1611C30.6363 72.1466 30.8283 72.1314 31.052 72.1328C31.2659 72.0796 31.4605 71.9669 31.6133 71.8076C31.766 71.6484 31.8707 71.4492 31.9153 71.2329C32.0634 70.9968 32.0108 70.825 31.8081 70.8875C31.4825 70.8689 31.1716 70.7457 30.9214 70.5361C30.8485 70.4821 30.7748 70.4283 30.7012 70.3746C30.2907 70.0754 29.8821 69.7775 29.6177 69.4333C29.4121 69.3478 29.2244 69.0678 29.0556 68.816C28.8389 68.4927 28.6534 68.2159 28.5011 68.4573C28.2307 68.2794 27.9804 68.0726 27.7547 67.8405C27.6337 67.7898 27.5525 67.6764 27.4584 67.5451C27.3858 67.4436 27.3055 67.3316 27.1934 67.2295C27.1695 67.2393 27.1439 67.2443 27.1181 67.2441C27.0923 67.2439 27.0667 67.2386 27.043 67.2284C27.0192 67.2182 26.9977 67.2034 26.9797 67.1848C26.9617 67.1663 26.9476 67.1443 26.9382 67.1202C26.2917 66.4448 25.5809 65.8342 24.816 65.2971C24.6366 65.1654 24.4529 65.0153 24.2632 64.8603L24.2632 64.8603C23.9748 64.6247 23.6726 64.3777 23.3505 64.1669C23.4129 64.0322 23.4772 63.8937 23.5454 63.7531C25.1414 56.7261 25.461 47.6067 23.9624 38.6629C22.9744 33.297 19.3536 26.5667 16.0641 22.0089ZM4.63071 18.39L4.91522 18.5071C5.03852 18.5622 5.13047 18.593 5.24833 18.6325L5.26656 18.6386C5.27674 18.642 5.28712 18.6455 5.29773 18.6491C5.30206 18.6506 5.30642 18.652 5.31082 18.6535C5.68372 18.6891 6.05981 18.6707 6.42746 18.5989C6.56556 18.5737 6.67558 18.5318 6.7822 18.4912C6.85763 18.4625 6.93135 18.4345 7.01209 18.4134C7.27725 18.2866 7.52326 18.1229 7.74288 17.9274L7.93775 17.7322C8.02071 17.6568 8.07624 17.5558 8.0956 17.4453L8.14627 17.3945C8.14887 17.3624 8.158 17.3411 8.16735 17.3193C8.17905 17.2921 8.19109 17.264 8.19109 17.213C8.19109 17.1754 8.19958 17.146 8.20614 17.1234C8.21559 17.0907 8.22101 17.0719 8.19109 17.0627C8.21255 16.9269 8.18343 16.788 8.10925 16.6723C8.11489 16.6368 8.10832 16.6005 8.09061 16.5693C8.0729 16.5381 8.04511 16.5138 8.01181 16.5005C8.09755 16.4713 8.14043 16.4283 8.15212 16.358C8.18656 16.3225 8.18474 16.3036 8.1831 16.2865C8.18177 16.2727 8.18056 16.2601 8.19889 16.2409C8.19327 16.1156 8.20507 15.9901 8.23396 15.8681C8.13399 15.7589 8.0989 15.6459 8.06335 15.5315C8.0303 15.4252 7.99685 15.3175 7.91047 15.2103C7.64747 14.9283 7.35476 14.6757 7.03743 14.4568C6.79866 14.3122 6.53378 14.216 6.25792 14.1738C6.15297 14.1618 5.99836 14.1608 5.84842 14.1598H5.84841H5.84841C5.73106 14.1591 5.61659 14.1583 5.53103 14.1523C5.19213 14.2013 4.8632 14.3041 4.55665 14.4568C4.39003 14.5199 4.22791 14.5942 4.07141 14.6794C4.06298 14.6845 4.05444 14.6897 4.04586 14.6949C3.91753 14.7725 3.77715 14.8575 3.77715 14.9819L3.67776 15.0893C3.52972 15.3117 3.44114 15.5684 3.42052 15.8349C3.39826 15.8563 3.3994 15.871 3.40061 15.8867C3.40195 15.904 3.40337 15.9224 3.37375 15.952C3.28216 16.0457 3.27047 16.116 3.32309 16.2077C3.28166 16.4713 3.31265 16.7412 3.41273 16.9885C3.54077 17.3827 3.85622 17.7113 4.17799 18.0465L4.21172 18.0816C4.36355 18.1667 4.50428 18.2703 4.63071 18.39ZM11.4217 29.0965L11.4217 29.0965C11.4696 29.0427 11.5142 28.9926 11.5235 28.9383C11.786 28.3925 11.8666 27.7767 11.7534 27.1816L11.6794 26.9454C11.6794 26.9454 11.6248 26.918 11.6131 26.879C11.6014 26.84 11.5566 26.8536 11.5137 26.8673C11.2127 26.8658 10.9156 26.7992 10.6426 26.6721C10.5133 26.6352 10.3945 26.5683 10.2958 26.4769C10.2649 26.4362 10.2396 26.4133 10.218 26.3937C10.1836 26.3626 10.1587 26.34 10.136 26.268C10.101 26.2512 10.0996 26.2246 10.0976 26.1884C10.0964 26.1659 10.095 26.1398 10.0853 26.1099C10.0599 26.0319 10.136 25.9635 10.21 25.8972C10.2392 25.8881 10.2669 25.8746 10.2945 25.8613C10.3496 25.8345 10.4042 25.808 10.4692 25.8171C10.5221 25.8171 10.5815 25.8131 10.6421 25.809C10.8046 25.798 10.9757 25.7863 11.0538 25.8503C11.1566 25.8176 11.2568 25.8695 11.3496 25.9176L11.3497 25.9177C11.373 25.9298 11.3959 25.9416 11.4182 25.9518C11.42 25.9572 11.4228 25.9622 11.4265 25.9665C11.4302 25.9708 11.4347 25.9744 11.4398 25.9769C11.4449 25.9795 11.4504 25.981 11.4561 25.9813C11.4618 25.9817 11.4674 25.981 11.4728 25.9792C11.5007 25.9706 11.5158 25.9826 11.5364 25.999C11.5489 26.0089 11.5633 26.0204 11.5839 26.0299C11.5971 26.0678 11.6489 26.0928 11.7036 26.1192L11.7086 26.1216C11.7342 26.134 11.7555 26.1645 11.7752 26.1929C11.799 26.227 11.8205 26.2579 11.845 26.2505C11.85 26.2678 11.8692 26.2865 11.8915 26.3082L11.8915 26.3082C11.9219 26.3379 11.9582 26.3733 11.9717 26.4183L12.0496 26.3949C12.2312 26.2888 12.3651 26.1169 12.4238 25.9147C12.4179 25.8952 12.4292 25.8698 12.4404 25.8445C12.4516 25.8191 12.4628 25.7937 12.4569 25.7742C12.4701 25.7661 12.485 25.7611 12.5004 25.7596C12.5158 25.7581 12.5313 25.7601 12.5458 25.7656C12.5603 25.7711 12.5734 25.7798 12.584 25.7911C12.5923 25.8 12.599 25.8103 12.6036 25.8215C12.6278 25.6123 12.7003 25.4006 12.8155 25.1867C12.8562 25.0756 12.9322 24.981 13.0318 24.9173C13.2268 24.7025 13.468 24.5349 13.7372 24.4274C13.8197 24.4422 13.9047 24.4269 13.9769 24.3844L14.1406 24.3044C14.286 24.3466 14.3847 24.2835 14.4797 24.2228C14.5121 24.2021 14.544 24.1817 14.5772 24.1658L14.659 24.1248C14.7601 24.162 14.8467 24.2303 14.9065 24.32C15.0731 24.4368 15.2121 24.5887 15.3138 24.765C15.4035 24.9601 15.4378 25.2 15.4704 25.4287C15.5001 25.637 15.5285 25.836 15.5964 25.9831C15.628 26.0514 15.7094 26.3385 15.7892 26.6203C15.8667 26.8936 15.9427 27.162 15.9705 27.2206C16.0351 27.0559 16.0835 26.8853 16.1147 26.7111C16.1382 26.5995 16.1534 26.5219 16.1683 26.4456L16.1683 26.4456L16.1683 26.4455L16.1683 26.4455C16.193 26.3192 16.2169 26.1969 16.2765 25.9304C16.2844 25.9032 16.2893 25.8699 16.2943 25.836L16.2943 25.8359L16.2943 25.8359L16.2943 25.8359C16.309 25.7356 16.3246 25.6294 16.4207 25.6571H16.4441C16.5945 25.7023 16.5414 25.9799 16.5109 26.1394L16.5109 26.1394L16.5109 26.1398C16.5058 26.1661 16.5014 26.1892 16.4986 26.2075C16.4351 26.6784 16.3354 27.1437 16.2005 27.5993C16.1678 27.7452 16.1732 27.8971 16.2161 28.0404C16.2307 28.0974 16.2307 28.1571 16.2161 28.2141C16.2224 28.2904 16.2191 28.3345 16.2164 28.3689C16.2118 28.4294 16.2095 28.4597 16.2667 28.583C16.2629 28.6426 16.2508 28.678 16.2389 28.7125C16.2204 28.7663 16.2026 28.818 16.218 28.9559C16.156 29.0178 16.075 29.057 15.9881 29.0671H15.6996C15.5872 28.9771 15.4525 28.9191 15.3099 28.8993C15.2796 28.8884 15.2518 28.8716 15.228 28.8498C15.2042 28.8281 15.185 28.8019 15.1714 28.7726C15.1578 28.7434 15.1501 28.7118 15.1488 28.6796C15.1475 28.6474 15.1526 28.6152 15.1637 28.585C15.1816 28.5455 15.1996 28.5111 15.2158 28.4801C15.2669 28.3826 15.3006 28.3181 15.2592 28.2278C15.1942 28.0388 15.1555 27.8418 15.1442 27.6422C15.069 27.4238 14.9979 27.1915 14.9249 26.9527L14.9249 26.9527C14.7727 26.4553 14.612 25.9303 14.3881 25.4463C14.3605 25.3872 14.3473 25.3173 14.3338 25.2457C14.3196 25.1706 14.3051 25.0936 14.2732 25.0247L14.2069 24.8841C14.012 24.8138 13.9477 24.8451 13.8522 24.9837C13.6896 25.0738 13.5645 25.2192 13.4995 25.3936C13.4117 25.5053 13.3613 25.6419 13.3553 25.784C13.3275 25.8666 13.3174 25.9541 13.3255 26.0408C13.3336 26.1276 13.3598 26.2117 13.4024 26.2877C13.445 26.3637 13.5031 26.4299 13.5729 26.482C13.6426 26.5341 13.7225 26.5709 13.8074 26.5901C13.8366 26.6487 13.9516 26.6838 13.9185 26.6096C14.0305 26.5688 14.1533 26.5688 14.2654 26.6096C14.3189 26.5851 14.377 26.5724 14.4359 26.5724C14.4947 26.5724 14.5529 26.5851 14.6064 26.6096C14.6347 26.6709 14.6305 26.7063 14.6258 26.745C14.6202 26.7915 14.614 26.8428 14.6629 26.9493C14.6629 27.036 14.6432 27.1189 14.6216 27.2099C14.6019 27.293 14.5806 27.3827 14.5713 27.488C14.5392 27.8901 14.3947 28.275 14.1543 28.5987C14.0456 28.7425 13.8844 28.8372 13.7061 28.8622C13.6224 28.903 13.5462 28.8759 13.4641 28.8467C13.4009 28.8242 13.3342 28.8005 13.2578 28.8056C13.1643 28.7763 12.4881 28.2454 12.4783 27.7496C12.473 27.6976 12.4663 27.6545 12.4605 27.6171L12.4605 27.6171C12.4409 27.4912 12.4313 27.4292 12.5154 27.3104C12.5422 27.2623 12.5855 27.2255 12.6373 27.2068C12.689 27.1882 12.7458 27.1889 12.7971 27.2089C12.8483 27.2289 12.8907 27.2667 12.9163 27.3155C12.9419 27.3643 12.949 27.4207 12.9363 27.4743C12.9255 27.5116 12.905 27.5566 12.8843 27.6024C12.8452 27.6885 12.8049 27.7772 12.8252 27.8218C13.0201 28.2122 13.3494 28.5206 13.4099 28.4874C13.6203 28.3586 13.7723 27.8179 13.8132 27.1737L13.7217 27.1464C13.545 27.1628 13.3673 27.1305 13.2076 27.0531C13.0479 26.9757 12.9123 26.8561 12.8155 26.7072C12.708 26.5355 12.6413 26.3618 12.6121 26.1864L12.5972 26.2114C12.5734 26.2517 12.5604 26.2823 12.5493 26.3084C12.5313 26.3507 12.5183 26.3812 12.4725 26.4222C12.4035 26.5429 12.304 26.6432 12.1841 26.7131C12.1841 26.797 12.2042 26.8383 12.2283 26.8881C12.2418 26.9159 12.2566 26.9463 12.2698 26.9883C12.2769 27.012 12.2855 27.0316 12.2934 27.0497C12.3115 27.0912 12.3263 27.1251 12.3127 27.1835L12.338 27.2616C12.3829 27.3794 12.4053 27.5045 12.4043 27.6305C12.4222 27.6856 12.4148 27.7281 12.409 27.762C12.4065 27.7761 12.4043 27.7888 12.4043 27.8003L12.4472 27.7867C12.4472 27.871 12.4575 27.9426 12.4671 28.0091C12.4771 28.0781 12.4862 28.1417 12.4823 28.2083C12.478 28.2149 12.4752 28.2223 12.4741 28.2301C12.4731 28.238 12.4738 28.2459 12.4763 28.2534C12.4787 28.2609 12.4828 28.2677 12.4882 28.2734C12.4936 28.2791 12.5002 28.2835 12.5076 28.2864C12.5159 28.3153 12.5124 28.3696 12.5097 28.4128C12.5086 28.4307 12.5076 28.4467 12.5076 28.4581C12.4815 28.6425 12.4248 28.8213 12.34 28.9871C12.3007 29.0895 12.2516 29.1877 12.1936 29.2804C12.1997 29.2857 12.2056 29.2914 12.2114 29.2975C12.3185 29.3384 12.3497 29.7249 12.2757 29.8947C12.224 29.9381 12.1662 29.9736 12.1042 30.0002C12.072 30.0285 12.0334 30.0485 11.9939 30.0691C11.9545 30.0895 11.9141 30.1105 11.8781 30.1407C11.7825 30.1952 11.7618 30.2123 11.7398 30.2303C11.7233 30.2439 11.7062 30.258 11.656 30.289C11.5555 30.3615 11.5183 30.3634 11.4857 30.3651C11.4551 30.3667 11.4286 30.368 11.3578 30.4276C11.3411 30.4558 11.3177 30.4793 11.2896 30.4959C11.1371 30.589 11.0009 30.7063 10.8862 30.8434C10.8536 30.8561 10.8257 30.8786 10.8063 30.9078L10.7615 30.9195C10.1693 31.4545 10.8859 31.799 10.8348 31.733L11.0499 31.995C11.088 32.0524 11.1423 32.0973 11.2058 32.1239C11.3326 32.1952 11.4479 32.2386 11.5498 32.277C11.7269 32.3437 11.8637 32.3953 11.9502 32.5513C11.9406 32.5838 11.9762 32.6089 12.0089 32.632L12.009 32.632C12.0294 32.6464 12.0487 32.6601 12.0555 32.6743C12.0721 32.7053 12.0915 32.7402 12.1112 32.7758C12.1561 32.8569 12.2027 32.9411 12.2231 32.9886C12.2231 32.9339 12.5095 33.3653 12.5154 34.1227L12.5271 34.3725C12.526 34.4265 12.5395 34.4797 12.566 34.5267C12.5738 34.5461 12.5483 34.5897 12.5228 34.6331C12.4971 34.677 12.4715 34.7208 12.4803 34.7395C12.49 34.7686 12.49 34.8001 12.4803 34.8293L12.5349 34.9308C12.5349 34.9308 12.5524 34.9698 12.5193 34.9854C12.5248 35.0983 12.5027 35.2109 12.455 35.3133C12.4725 35.3504 12.4316 35.3699 12.4316 35.3699C12.4113 35.4942 12.3739 35.6151 12.3205 35.7291C12.2895 35.7893 12.2447 35.8414 12.1899 35.8811C12.135 35.9207 12.0716 35.9469 12.0048 35.9575C11.8764 35.983 11.7446 35.9863 11.615 35.9672C11.5516 35.9473 11.4836 35.9473 11.4202 35.9672L11.3986 35.9698C11.2718 35.9851 11.1348 36.0015 11.0519 35.9184C11.0311 35.9283 11.0163 35.9237 11.0015 35.919C10.9871 35.9144 10.9726 35.9098 10.9525 35.9184L10.7245 35.7603C10.515 35.5672 10.3404 35.3394 10.208 35.0869C10.0907 34.878 10.0133 34.6489 9.98003 34.4115C9.90707 34.1752 9.85939 33.9318 9.83778 33.6854C9.86688 33.5313 9.86688 33.373 9.83778 33.2189C9.82379 32.996 9.85358 32.7725 9.92547 32.5611C9.95445 32.4405 10.0097 32.3279 10.0872 32.2312C10.2458 32.2114 10.4068 32.2234 10.5608 32.2664C10.5608 32.2664 10.6192 32.2859 10.6348 32.323C10.7395 32.323 10.7587 32.3546 10.7959 32.4162L10.7985 32.4206C10.8211 32.4579 10.809 32.471 10.7978 32.483C10.7898 32.4917 10.7822 32.4998 10.7888 32.5162C10.8121 32.6741 10.79 32.7549 10.7685 32.8334C10.7541 32.8859 10.7401 32.9373 10.7401 33.01C10.7537 33.0413 10.7245 33.1096 10.6991 33.1662C10.7082 33.1854 10.7235 33.1894 10.7397 33.1937C10.7548 33.1977 10.7707 33.2019 10.7829 33.2189C10.7676 33.2524 10.7608 33.2892 10.7632 33.326C10.7656 33.3628 10.777 33.3985 10.7966 33.4297C10.7877 33.5244 10.8052 33.6197 10.8472 33.7049L10.8648 33.742C10.8648 33.8246 10.8868 33.8887 10.9086 33.9522C10.9327 34.0224 10.9567 34.0919 10.9505 34.1851C10.9992 34.2637 11.0285 34.3526 11.0363 34.4447C11.0549 34.4777 11.0695 34.5211 11.0855 34.5685C11.1044 34.625 11.1253 34.6871 11.1571 34.7434C11.1784 34.781 11.1991 34.8552 11.2229 34.9399C11.2643 35.0879 11.3148 35.2681 11.3929 35.3426C11.4009 35.3617 11.4007 35.383 11.4004 35.4044C11.4002 35.4245 11.3999 35.4447 11.4065 35.4636C11.4381 35.4735 11.4663 35.4917 11.4884 35.5163C11.5138 35.4358 11.534 35.3536 11.5488 35.2704C11.5999 34.7529 11.5802 34.2308 11.4903 33.7186C11.4372 33.3865 11.3334 33.0645 11.1824 32.7641C11.0717 32.474 10.9624 32.3778 10.74 32.1821L10.74 32.1821C10.708 32.154 10.6737 32.1238 10.6368 32.0907C10.1053 31.6377 10.1305 31.5964 10.1912 31.4969C10.2141 31.4593 10.2422 31.4132 10.247 31.3333C10.2445 31.2917 10.2514 31.2501 10.2672 31.2115C10.2831 31.173 10.3075 31.1385 10.3386 31.1108C10.3543 31.0892 10.3364 31.0834 10.3157 31.0767C10.2954 31.0702 10.2724 31.0628 10.2762 31.0386C10.4601 30.3442 10.6359 30.1766 10.8658 29.9572L10.8659 29.9572L10.866 29.9571L10.866 29.957L10.8661 29.957C10.9114 29.9137 10.9589 29.8684 11.009 29.8167C11.0475 29.7789 11.0869 29.742 11.1271 29.706C11.0408 29.6818 10.9558 29.653 10.8726 29.6195C10.6593 29.5274 10.4786 29.373 10.3542 29.1764L10.1827 28.624C10.1827 28.5242 10.174 28.4069 10.1656 28.2943C10.1597 28.2152 10.154 28.1384 10.1515 28.0716L10.1282 27.9936C10.0839 28.0073 10.065 28.0241 10.0461 28.0408C10.0275 28.0573 10.0089 28.0737 9.96641 28.0873C9.95082 28.1136 9.93231 28.1302 9.91379 28.1468C9.89528 28.1634 9.87677 28.18 9.86118 28.2063C9.8372 28.2108 9.81442 28.2202 9.79429 28.234C9.77416 28.2478 9.75711 28.2656 9.74425 28.2864C9.79334 28.4449 9.82791 28.6076 9.84753 28.7724C9.88754 28.9807 9.90583 29.1927 9.9021 29.4048C9.91302 29.4385 9.89968 29.4794 9.88628 29.5205C9.86858 29.5748 9.85075 29.6294 9.88846 29.6683C9.89309 29.716 9.8853 29.7641 9.86583 29.8079C9.84636 29.8517 9.81589 29.8897 9.77738 29.9182C9.76276 29.9875 9.73569 30.0537 9.69748 30.1134C9.56109 30.2187 9.41336 30.3084 9.25706 30.3808L9.23368 30.4023C8.98553 30.4543 8.73001 30.4609 8.4795 30.4218C8.25127 30.381 8.04447 30.2615 7.89488 30.0841C7.86107 30.0522 7.83014 30.0298 7.799 30.0073C7.7673 29.9845 7.73539 29.9614 7.7 29.9279C7.66917 29.9378 7.56878 29.7234 7.51918 29.6176L7.51918 29.6175C7.49982 29.5762 7.4882 29.5514 7.49148 29.5629C7.47526 29.589 7.4532 29.5841 7.42679 29.5549C7.39073 29.636 7.36716 29.7223 7.35702 29.8108C7.31079 30.0738 7.21291 30.325 7.06907 30.5498C6.92523 30.7746 6.73828 30.9686 6.51905 31.1206C6.15463 31.4153 5.73954 31.4875 5.22897 31.5246C4.93125 31.5466 4.63228 31.5046 4.35203 31.4016C4.09563 31.3 3.84629 31.1813 3.60565 31.0464C3.32061 30.8298 3.08313 30.5567 2.90799 30.2441C2.88114 30.1581 2.83059 30.0524 2.78476 29.9566C2.74745 29.8786 2.71327 29.8072 2.69753 29.7581C2.52409 29.4146 2.50265 28.7958 2.50265 28.3918C2.57746 27.9273 2.72615 27.4778 2.94307 27.0605C3.06824 26.827 3.21644 26.6067 3.38544 26.4027C3.48327 26.2795 3.56105 26.2025 3.65472 26.1098C3.69167 26.0732 3.73109 26.0342 3.7752 25.9889C3.89796 25.8629 4.09564 25.8143 4.23408 25.7803L4.23414 25.7803L4.23423 25.7802C4.27153 25.7711 4.30453 25.763 4.33059 25.7547C4.39366 25.7346 4.45571 25.7311 4.51646 25.7276H4.51648C4.57398 25.7243 4.63031 25.721 4.68527 25.7039C4.90122 25.6684 5.12187 25.673 5.33615 25.7176C5.37265 25.7385 5.40692 25.7426 5.44105 25.7467C5.47069 25.7503 5.50023 25.7538 5.53103 25.7683C5.52528 25.7434 5.52848 25.7218 5.53159 25.7006C5.53482 25.6788 5.53797 25.6575 5.53103 25.6337C5.54543 25.574 5.55368 25.5831 5.56115 25.5913C5.56883 25.5998 5.57568 25.6073 5.58754 25.538C5.63017 25.3555 5.65838 25.3495 5.77001 25.3257C5.80639 25.318 5.85162 25.3083 5.90909 25.2901C6.03966 25.3096 6.18776 25.3936 6.14294 25.4599C6.15102 25.5688 6.15165 25.5773 6.14999 25.5778C6.14985 25.5778 6.14969 25.5778 6.14952 25.5778C6.14732 25.5775 6.14294 25.5771 6.14294 25.6942C6.1502 25.7168 6.14844 25.7425 6.14638 25.7725C6.14346 25.815 6.13993 25.8663 6.16048 25.9304C6.16803 25.9539 6.16365 25.9796 6.15856 26.0095C6.15182 26.0491 6.14384 26.0959 6.16048 26.1548C6.19816 26.1427 6.19566 26.1669 6.19222 26.2002C6.19015 26.2203 6.18774 26.2436 6.19361 26.2641C6.1694 26.5034 6.15899 26.7439 6.16243 26.9844C6.16842 27.0031 6.16713 27.024 6.16587 27.0446C6.16344 27.0842 6.1611 27.1226 6.21115 27.1406C6.2366 27.2213 6.22512 27.2876 6.2169 27.3351C6.21379 27.3531 6.21115 27.3683 6.21115 27.3806C6.19924 27.4934 6.2153 27.6074 6.25792 27.7125C6.27545 27.7671 6.27546 27.7671 6.23258 27.8413L5.84283 27.9662L5.7298 28.0014C5.60654 27.9091 5.57721 27.7806 5.54867 27.6556C5.53976 27.6166 5.53093 27.5779 5.51934 27.5407C5.5039 27.4895 5.50614 27.4411 5.50831 27.3942C5.51053 27.3464 5.51268 27.3001 5.49595 27.2538C5.46211 27.0414 5.45556 26.8256 5.47646 26.6116C5.45218 26.5334 5.45218 26.4497 5.47646 26.3715C5.48128 26.275 5.47671 26.1782 5.46282 26.0826C5.36751 26.0084 5.25091 25.9668 5.13021 25.964C5.00951 25.9612 4.8911 25.9973 4.79245 26.067C4.40806 26.2849 4.10551 26.6229 3.93109 27.0293C3.91086 27.0642 3.90206 27.094 3.89491 27.1182C3.88484 27.1522 3.87806 27.1752 3.8473 27.1855C3.82311 27.2188 3.81612 27.25 3.80882 27.2826C3.80199 27.3131 3.79489 27.3448 3.77324 27.3806C3.633 27.7242 3.54435 28.0866 3.51016 28.4562C3.47235 28.8957 3.50458 29.3385 3.60565 29.7679C3.64268 30.1017 3.70114 30.3769 3.96617 30.5877C4.05681 30.7057 4.17181 30.8027 4.30332 30.8721C4.43482 30.9415 4.57973 30.9816 4.72814 30.9898C4.93974 31.0389 5.16068 31.0294 5.36733 30.9625C5.56925 30.8879 5.75319 30.7715 5.90714 30.6209C6.32417 30.3164 6.49177 29.9123 6.60285 29.4673C6.61934 29.4413 6.62906 29.4116 6.6311 29.3809C6.63314 29.3502 6.62745 29.3195 6.61454 29.2916C6.56192 29.1257 6.65936 29.0437 6.78993 29.0027C6.86608 28.9726 6.94911 28.9645 7.02963 28.9793C7.07403 28.9685 7.12087 28.9755 7.16019 28.9988C7.16775 29.0031 7.17474 29.0079 7.18125 29.0131C7.03763 28.6121 6.88318 28.094 6.79319 27.792L6.79313 27.7918C6.76734 27.7053 6.74684 27.6365 6.73342 27.5934C6.70967 27.5173 6.68176 27.3907 6.65352 27.2625L6.65351 27.2625C6.62381 27.1277 6.59374 26.9913 6.56777 26.9102C6.51755 26.7188 6.48879 26.5224 6.48202 26.3246C6.46171 26.1812 6.46973 26.0927 6.47771 26.0045C6.48581 25.915 6.49387 25.826 6.47228 25.6805C6.47688 25.3787 6.51016 25.0781 6.57167 24.7826C6.63793 24.5351 6.72128 24.2925 6.82111 24.0565C6.86949 23.8889 6.92769 23.8265 7.00612 23.7423C7.03825 23.7079 7.07378 23.6697 7.11342 23.6193C7.16569 23.5555 7.23254 23.5053 7.3083 23.4729C7.3267 23.4418 7.3811 23.4413 7.46867 23.4404C7.52946 23.4399 7.60623 23.4392 7.69805 23.428L7.928 23.4943L7.93017 23.4953C7.98546 23.521 8.09403 23.5715 8.12288 23.6505C8.19109 23.7149 8.27099 23.8203 8.2515 23.9121C8.26671 23.961 8.2987 24.0115 8.32976 24.0606C8.3743 24.131 8.41693 24.1984 8.40545 24.2536C8.37629 24.3401 8.3974 24.4266 8.41779 24.5101C8.43147 24.5661 8.44483 24.6208 8.44248 24.6733C8.42515 24.7963 8.40724 24.8934 8.391 24.9813C8.36523 25.121 8.34367 25.2378 8.3353 25.3994C8.35681 25.4675 8.33095 25.5395 8.30437 25.6135C8.28519 25.6669 8.26564 25.7214 8.26319 25.7762C8.27143 25.8752 8.24355 25.9514 8.21469 26.0302C8.18212 26.1193 8.14831 26.2117 8.16381 26.3442C8.07114 26.8175 7.90136 27.1045 7.72917 27.3957L7.72916 27.3957L7.72915 27.3957C7.68408 27.4719 7.63883 27.5484 7.59477 27.6285C7.57291 27.6679 7.81462 28.1993 7.94293 28.4814L7.94293 28.4814L7.94295 28.4815C7.98626 28.5767 8.01664 28.6435 8.01959 28.6533C8.14 28.9436 8.30433 29.2135 8.50678 29.4536C8.59716 29.5739 8.69616 29.6874 8.803 29.7932C8.81664 29.8323 8.8712 29.8577 8.92772 29.883C8.99322 29.8622 9.02006 29.8037 9.04298 29.7538C9.05006 29.7383 9.05677 29.7237 9.06413 29.7113C9.13454 29.4808 9.15579 29.238 9.1265 28.9988L9.06023 28.6318C9.04556 28.561 9.00869 28.4967 8.955 28.4484C8.92756 28.436 8.90333 28.4329 8.87941 28.4298C8.85409 28.4266 8.82912 28.4234 8.80105 28.4093C8.71291 28.4219 8.6231 28.4047 8.54576 28.3605C8.50884 28.3572 8.47331 28.3448 8.44236 28.3243C8.41141 28.3039 8.38601 28.2761 8.36842 28.2434C8.29016 28.1562 8.22931 28.0549 8.18914 27.9448C8.04769 27.6942 8.00329 27.4003 8.06442 27.1191C8.10919 27.0089 8.17544 26.9087 8.25929 26.8243C8.30109 26.7871 8.32352 26.7521 8.34355 26.7208C8.37396 26.6732 8.39884 26.6343 8.47755 26.6096C8.52453 26.575 8.58066 26.5551 8.6389 26.5523C8.69714 26.5496 8.7549 26.5641 8.80494 26.594L9.1947 26.7736C9.23606 26.7922 9.27011 26.8411 9.3045 26.8904L9.30453 26.8905C9.31712 26.9085 9.32975 26.9267 9.3428 26.9434C9.53049 27.2559 9.66238 27.5987 9.73256 27.9565C9.8183 27.9213 10.1925 27.7183 10.1652 27.5095C10.1606 27.3588 10.1777 27.2083 10.2159 27.0625C10.2247 27.015 10.2452 26.9655 10.2657 26.9157C10.2856 26.8674 10.3056 26.8188 10.3152 26.7716C10.3464 26.7189 10.3776 26.6662 10.4205 26.6526C10.5627 26.6526 10.7089 26.7521 10.6894 26.8478C10.7419 26.9583 10.7609 27.0818 10.744 27.203C10.7329 27.2552 10.718 27.2947 10.7023 27.3366L10.7023 27.3367C10.6903 27.3685 10.6778 27.4018 10.666 27.4431C10.6792 27.4724 10.6796 27.493 10.6801 27.5156C10.6806 27.5396 10.6811 27.5658 10.6972 27.6071C10.7085 27.8433 10.7647 28.0752 10.8628 28.2903L10.9856 28.6806C11.0458 28.7856 11.1009 28.8778 11.1571 28.9718C11.1991 29.0421 11.2418 29.1135 11.2877 29.1921L11.3286 29.2155C11.3541 29.1724 11.3886 29.1336 11.4217 29.0965ZM7.47979 27C7.49138 26.8973 7.52339 26.8281 7.55582 26.758C7.59424 26.6749 7.63325 26.5905 7.63959 26.4476C7.77702 25.9378 7.75196 25.1972 7.7316 24.5954C7.72858 24.506 7.72565 24.4196 7.72338 24.3376C7.73228 24.2309 7.71488 24.1236 7.67271 24.0253C7.61425 23.8301 7.47784 23.5002 7.25373 23.75C7.23807 23.7765 7.23372 23.7995 7.22931 23.8228C7.22495 23.8459 7.22053 23.8692 7.20501 23.8964C7.17558 23.9863 7.15661 24.0793 7.1485 24.1736C7.1336 24.1988 7.13294 24.2298 7.13227 24.261C7.13154 24.2951 7.13081 24.3296 7.11147 24.3571C7.10481 24.4858 7.08792 24.6178 7.07102 24.7498L7.07102 24.7498C7.05332 24.8881 7.03561 25.0265 7.02963 25.1613C7.04716 25.3721 7.05301 25.5419 7.05886 25.7137L7.10758 25.8718C7.10758 25.9393 7.09988 25.976 7.09366 26.0056C7.08424 26.0504 7.07822 26.0791 7.10758 26.1743L7.11927 26.2134C7.18124 26.5382 7.26523 26.8584 7.37066 27.1718C7.3724 27.1774 7.37528 27.1826 7.37912 27.1871C7.38296 27.1916 7.38768 27.1952 7.39298 27.1978C7.39828 27.2003 7.40405 27.2018 7.40993 27.202C7.41582 27.2022 7.42169 27.2013 7.42718 27.1991C7.4603 27.1855 7.47979 27.0391 7.47979 27ZM8.85951 28.1321L8.83613 28.0541C8.76263 27.7461 8.66823 27.4435 8.55356 27.1484C8.54895 27.1257 8.53916 27.1043 8.52496 27.0861C8.51076 27.0678 8.49254 27.053 8.47171 27.043C8.46908 27.0327 8.46341 27.0234 8.45543 27.0164C8.44744 27.0094 8.43754 27.0049 8.427 27.0037C8.41646 27.0024 8.40578 27.0044 8.39637 27.0093C8.38696 27.0142 8.37926 27.0219 8.37427 27.0312C8.34007 27.0417 8.35806 27.1987 8.36851 27.2899C8.37175 27.3182 8.37427 27.3402 8.37427 27.3494C8.42299 27.5075 8.60228 28.0833 8.81274 28.1458L8.85951 28.1321ZM11.3929 26.3539C11.254 26.2366 11.1015 26.1364 10.9388 26.0553C10.8906 26.0486 10.8395 26.0333 10.7884 26.0178L10.7884 26.0178C10.7343 26.0015 10.6801 25.9852 10.629 25.9792C10.6183 25.9721 10.6061 25.9676 10.5935 25.9657C10.5808 25.9639 10.5678 25.9649 10.5556 25.9686C10.5433 25.9723 10.532 25.9787 10.5225 25.9873C10.513 25.9958 10.5054 26.0064 10.5004 26.0182C10.4263 26.0865 10.438 26.1255 10.5004 26.19C10.5326 26.2596 10.5839 26.3185 10.6485 26.3598L10.8083 26.4144C10.9449 26.4971 11.1028 26.5378 11.2623 26.5316C11.3394 26.5258 11.4162 26.516 11.4923 26.5023C11.4622 26.447 11.4234 26.3969 11.3773 26.3539H11.3929ZM3.71284 36.0024C3.72869 36.0527 3.75331 36.0998 3.78002 36.1509C3.81241 36.2129 3.84789 36.2807 3.87458 36.3674L4.0149 36.8163C4.14821 37.1189 4.26148 37.4299 4.35398 37.7474C4.36578 37.7878 4.36964 37.8371 4.37358 37.8874C4.37744 37.9367 4.38137 37.9869 4.39296 38.0304L4.32865 38.128L4.04413 38.0968C4.03587 38.1159 4.03161 38.1365 4.03161 38.1573C4.03161 38.1781 4.03587 38.1987 4.04413 38.2178L3.99931 38.2315C3.973 38.2217 3.93841 38.2217 3.90455 38.2217C3.87069 38.2217 3.83756 38.2217 3.81417 38.212C3.73716 38.1972 3.65853 38.1926 3.58032 38.1983C3.50865 38.1919 3.43869 38.1727 3.37375 38.1417C3.35337 38.1254 3.32993 38.1134 3.30482 38.1064C3.27972 38.0993 3.25346 38.0974 3.2276 38.1007C3.17108 38.0753 3.17108 38.0753 3.16134 38.0441L2.68974 36.5313C2.66299 36.3199 2.614 36.1118 2.54358 35.9106C2.515 35.8152 2.49666 35.7198 2.47833 35.6243C2.45916 35.5246 2.43999 35.4248 2.40912 35.325C2.38417 35.2449 2.37475 35.1703 2.36606 35.1015C2.35847 35.0414 2.35143 34.9857 2.33507 34.9347C2.25581 34.6666 2.19909 34.3924 2.16552 34.1148C2.13562 34.0182 2.12004 33.9312 2.10461 33.8449C2.08886 33.7569 2.07326 33.6698 2.04275 33.5742C2.02295 33.4314 1.99208 33.2941 1.96114 33.1565C1.93117 33.0232 1.90114 32.8897 1.881 32.7504C1.83818 32.6241 1.8107 32.493 1.79916 32.3601C1.75424 32.192 1.73196 32.0187 1.7329 31.8447C1.71925 31.8057 1.71926 31.8057 1.75044 31.753C1.7811 31.6898 1.82576 31.6343 1.881 31.591C1.95526 31.5951 2.02957 31.5838 2.09926 31.5578C2.22402 31.5105 2.3557 31.4841 2.48902 31.4797C2.5561 31.4797 2.62404 31.4884 2.69102 31.497L2.69103 31.497H2.69105H2.69107H2.69108H2.6911H2.69111H2.69112C2.76615 31.5066 2.83995 31.516 2.90995 31.5129C2.99863 31.5181 3.08873 31.5279 3.18167 31.538L3.18171 31.538L3.18176 31.538C3.33185 31.5543 3.48935 31.5715 3.66022 31.5715C3.8118 31.5896 3.96045 31.627 4.10259 31.6827C4.18781 31.7189 4.26788 31.7473 4.34783 31.7756L4.34786 31.7757C4.42329 31.8024 4.49862 31.8291 4.57809 31.8623C4.76718 31.9766 4.91419 32.1492 4.99707 32.3542L5.02241 32.4323C5.12735 32.7402 5.16782 33.0664 5.14128 33.3907C5.1271 33.4697 5.1226 33.5547 5.11805 33.6405C5.1126 33.7433 5.10709 33.8473 5.08477 33.9431C5.04189 33.9567 5.05359 33.9977 5.06723 34.0368C4.9691 34.3368 4.82655 34.6204 4.64435 34.8781C4.62799 34.9031 4.6041 34.9222 4.57614 34.9327C4.58344 34.9583 4.56947 34.9732 4.55035 34.9937C4.53885 35.006 4.52549 35.0203 4.51378 35.0401C4.41009 35.1957 4.28325 35.3346 4.13767 35.4519C4.11226 35.4955 4.07291 35.5362 4.0328 35.5777L4.03278 35.5777L4.03276 35.5777C3.98674 35.6252 3.93972 35.6738 3.91161 35.7291C3.92136 35.7603 3.87848 35.774 3.83561 35.7877C3.8231 35.8183 3.80407 35.8459 3.77984 35.8685C3.75561 35.8911 3.72676 35.9081 3.6953 35.9184L3.71284 36.0024ZM2.95867 32.1239L2.94892 32.0926C2.9009 32.086 2.86516 32.0762 2.82984 32.0666C2.79205 32.0562 2.75474 32.046 2.70338 32.0399C2.62681 32.0351 2.55 32.0351 2.47343 32.0399C2.44416 32.0493 2.41444 32.0536 2.38496 32.0579C2.32808 32.0661 2.2721 32.0743 2.22204 32.118L2.45979 32.8734C2.47216 32.9151 2.5001 32.9542 2.52377 32.9873C2.54112 33.0115 2.55617 33.0326 2.56112 33.0491C2.57821 33.1414 2.62152 33.2268 2.68584 33.295L2.90995 34.0133C3.00065 34.178 3.07131 34.353 3.12042 34.5345L3.16524 34.556L3.25098 34.5287C3.28722 34.4737 3.32779 34.4416 3.36189 34.4147C3.38829 34.3938 3.41081 34.376 3.42442 34.353C3.56417 34.2208 3.68721 34.072 3.79079 33.9099C4.00407 33.6589 4.14549 33.3546 4.20003 33.0296C4.22994 32.8401 4.21526 32.6463 4.15715 32.4635C4.09405 32.3709 4.00812 32.2963 3.90771 32.2468C3.88701 32.2534 3.87404 32.2496 3.86133 32.2458C3.84771 32.2417 3.8344 32.2378 3.81222 32.2468L3.07949 32.0946L2.95867 32.1239ZM6.69673 34.3416C6.66154 34.3769 6.63883 34.4227 6.63207 34.472L6.55607 34.6497C6.56699 34.6788 6.55751 34.6823 6.5488 34.6854C6.54352 34.6873 6.53853 34.6892 6.53853 34.6965C6.4831 34.507 6.45204 34.3475 6.42145 34.1904L6.41965 34.1812C6.40866 34.0443 6.37849 33.9096 6.33001 33.7811C6.31498 33.6344 6.27751 33.4908 6.21893 33.3555L6.19944 33.3185C6.19206 33.3029 6.19158 33.2835 6.19103 33.2614C6.19028 33.2311 6.1894 33.1957 6.17021 33.1584C6.14099 33.0767 6.08326 33.0084 6.00768 32.9661C5.9321 32.9238 5.84377 32.9102 5.75902 32.9281C5.75902 32.9281 5.53491 33.0491 5.48424 33.0296C5.43358 33.01 5.39265 33.0315 5.37122 33.0901C5.33133 33.1215 5.30319 33.1656 5.29132 33.215C5.41741 33.3938 5.48915 33.6053 5.49789 33.824L5.51527 33.9791C5.5782 34.5403 5.60423 34.7725 5.66158 35.4636C5.6847 35.7642 5.75031 36.0599 5.85646 36.342L5.92272 36.4747C6.01796 36.5002 6.04209 36.5567 6.06778 36.6169C6.07362 36.6306 6.07955 36.6445 6.08641 36.6582C6.15637 36.7961 6.19152 36.82 6.23046 36.8464C6.25985 36.8663 6.2914 36.8877 6.3417 36.9608C6.41869 37.0397 6.51682 37.0946 6.62427 37.1189C6.68765 37.1382 6.7392 37.1489 6.79189 37.1598L6.79194 37.1598L6.79197 37.1598L6.7921 37.1599C6.83007 37.1677 6.86865 37.1758 6.91269 37.1872L7.09003 37.234C7.22431 37.1922 7.35369 37.1359 7.47588 37.0662C7.64403 36.9739 7.77442 36.8254 7.84419 36.6465C7.96044 36.327 8.01788 35.9891 8.01374 35.6491C7.9939 35.5137 7.991 35.467 7.98818 35.4213C7.98518 35.3728 7.98226 35.3256 7.95917 35.1747C7.9581 35.1374 7.95062 35.0941 7.94406 35.0562C7.93863 35.0249 7.93384 34.9972 7.93384 34.9796C8.15398 34.861 8.20554 34.6245 8.26021 34.3737L8.26396 34.3566L8.26902 34.3335C8.34776 34.6901 8.40177 34.8941 8.44319 35.0505C8.47251 35.1612 8.49552 35.2482 8.51652 35.3485C8.52143 35.5399 8.59553 35.723 8.72504 35.8638L8.77765 35.9672C8.80594 36.0293 8.84929 36.0832 8.90376 36.1241C8.95823 36.1651 9.02208 36.1916 9.08946 36.2015C9.22434 36.1848 9.35583 36.1473 9.47921 36.0902L9.52013 36.0687L9.64485 35.7311C9.67693 35.6178 9.70039 35.5023 9.71501 35.3856C9.7125 35.3471 9.7243 35.2804 9.73738 35.2064C9.75484 35.1075 9.77459 34.9958 9.76568 34.921C9.75986 34.7107 9.7729 34.5004 9.80465 34.2925C9.7988 34.23 9.7988 34.1739 9.7988 34.118V34.118C9.7988 34.0621 9.7988 34.0065 9.79296 33.945C9.81143 33.8946 9.78071 33.8354 9.75066 33.7776C9.74584 33.7683 9.74103 33.759 9.73644 33.7498C9.62649 33.7278 9.61051 33.8102 9.59929 33.8681C9.59758 33.8769 9.59599 33.8851 9.59418 33.8923C9.57133 33.9922 9.56086 34.0944 9.563 34.1968C9.56205 34.2438 9.52955 34.4709 9.49675 34.7002C9.46281 34.9374 9.42854 35.1769 9.42854 35.2216C9.40271 35.2576 9.38868 35.2976 9.37486 35.3369C9.35947 35.3807 9.34436 35.4237 9.31356 35.4597C9.27992 35.4545 9.27635 35.427 9.27261 35.3982C9.27072 35.3836 9.26879 35.3687 9.26289 35.3563C9.26771 35.2709 9.25579 35.1853 9.22782 35.1045C9.2152 35.0765 9.21634 35.0355 9.21754 34.9923C9.21894 34.942 9.22043 34.8886 9.20053 34.8488L9.16545 34.7824C9.14355 34.6548 9.09699 34.4464 9.04363 34.2075C8.96882 33.8726 8.88065 33.4779 8.82832 33.1623C8.81772 33.0912 8.81185 33.0195 8.81078 32.9476C8.81914 32.828 8.79092 32.7502 8.7593 32.6629C8.7393 32.6078 8.71794 32.5489 8.7036 32.4733C8.71845 32.4367 8.65659 32.3712 8.61265 32.3246C8.59318 32.304 8.57722 32.2871 8.57303 32.2781C8.5352 32.2441 8.48985 32.2197 8.44071 32.2068C8.39156 32.1939 8.34006 32.1929 8.29046 32.2039L8.17938 32.2644C8.04368 32.2793 7.91171 32.3183 7.78963 32.3796L7.80912 32.4167C7.78844 32.4592 7.77769 32.5059 7.77769 32.5533C7.77769 32.6006 7.78844 32.6474 7.80912 32.6899L7.86173 32.7914L7.81886 32.9085C7.85863 32.9441 7.89509 32.9562 7.92362 32.9656C7.9608 32.9779 7.98451 32.9857 7.98451 33.0354C7.99568 33.1292 8.01787 33.2369 8.04102 33.3494L8.04103 33.3494L8.04103 33.3495L8.04103 33.3495L8.04109 33.3497L8.04116 33.3501C8.05026 33.3943 8.05951 33.4393 8.0683 33.4844C8.07032 33.555 8.0795 33.6376 8.08928 33.7255C8.11732 33.9775 8.15026 34.2736 8.03323 34.4603C8.01905 34.4816 8.00685 34.5039 7.99497 34.5255C7.96441 34.5812 7.93596 34.633 7.88122 34.6555C7.87894 34.5378 7.84725 34.4225 7.78904 34.3202C7.73083 34.2179 7.64795 34.1319 7.54799 34.0699C7.51264 34.0699 7.48174 34.0645 7.4529 34.0595L7.45289 34.0594C7.40064 34.0503 7.35518 34.0423 7.30244 34.0699L7.22254 34.1129C7.10346 34.1155 6.98903 34.1597 6.89904 34.2378L6.82694 34.2769C6.77764 34.2836 6.73191 34.3064 6.69673 34.3416ZM6.66287 35.6671L6.66286 35.667L6.66285 35.6669L6.66284 35.6669L6.66283 35.6668L6.66282 35.6667L6.66282 35.6667C6.6446 35.514 6.62614 35.3593 6.60479 35.206C6.6078 35.1607 6.59942 35.1191 6.59087 35.0765C6.58282 35.0365 6.57461 34.9957 6.57555 34.9503C6.57555 34.9503 6.53657 34.9347 6.57555 34.9132L6.59114 34.9425C6.63303 35.0277 6.69643 35.1004 6.77506 35.1535C6.85368 35.2066 6.94479 35.2381 7.03936 35.245C7.12516 35.2683 7.21354 35.2808 7.30244 35.2821C7.33815 35.341 7.35765 35.4084 7.35896 35.4773C7.39774 35.8044 7.37259 36.1358 7.2849 36.4533C7.24606 36.5501 7.1914 36.6398 7.12316 36.7187C7.10952 36.7734 7.02961 36.8163 6.94971 36.8593L6.8932 36.75C6.83485 36.6146 6.7974 36.4711 6.78212 36.3244C6.79297 36.2244 6.77682 36.1233 6.73535 36.0316L6.69832 35.9575C6.68616 35.8623 6.6746 35.7654 6.66294 35.6676L6.66292 35.6675L6.66291 35.6674L6.6629 35.6674L6.66289 35.6673L6.66288 35.6672L6.66287 35.6671ZM6.95954 34.6574C6.94443 34.6103 6.93051 34.5669 6.8971 34.554L6.85423 34.4857C6.96233 34.5085 7.0596 34.5671 7.13032 34.6522C7.20105 34.7372 7.24109 34.8436 7.24398 34.9542C7.23073 34.9904 7.21822 34.99 7.20139 34.9896C7.191 34.9893 7.17896 34.9889 7.16408 34.9971L7.1251 34.9249C7.10887 34.8933 7.08327 34.8618 7.05749 34.83C7.03066 34.7969 7.00363 34.7635 6.98674 34.7297C6.97546 34.7071 6.96734 34.6818 6.95954 34.6574ZM14.3991 32.0529C14.3691 32.2483 14.3391 32.4432 14.3005 32.6353C14.3142 32.6629 14.3085 32.6749 14.2902 32.7133C14.2826 32.7293 14.2729 32.7497 14.2615 32.7778C14.2476 32.7206 14.2344 32.6667 14.2216 32.615L14.2216 32.6149C14.1735 32.4195 14.1332 32.2556 14.0978 32.0673C14.0814 31.9525 14.0555 31.8348 14.0294 31.7163L14.0294 31.7163L14.0293 31.7161C14.0182 31.6654 14.007 31.6145 13.9964 31.5637C13.9557 31.4046 13.9246 31.2568 13.8936 31.1096L13.8936 31.1096L13.8936 31.1096L13.8936 31.1096L13.8936 31.1095C13.8652 30.9749 13.8369 30.8407 13.8016 30.6989C13.7924 30.5745 13.7607 30.4528 13.708 30.3398C13.6871 30.2636 13.6436 30.1955 13.5833 30.1446C13.5638 30.0821 13.519 30.0626 13.4839 30.0724C13.3964 30.0919 13.3141 30.1298 13.2423 30.1836C13.1994 30.1973 12.7297 30.3886 12.7297 30.4569C12.695 30.4667 12.693 30.4854 12.689 30.5222C12.6874 30.537 12.6855 30.5547 12.681 30.576C12.6686 30.6808 12.6732 30.7869 12.6947 30.8902C12.7148 31.3582 12.6952 31.8271 12.6362 32.2917C12.607 32.6042 12.5581 32.9145 12.4901 33.2209C12.4842 33.2657 12.4764 33.3028 12.4608 33.377L12.4901 33.4375C12.5212 33.5058 12.5622 33.5175 12.5972 33.5058C12.6511 33.4896 12.6603 33.4744 12.6724 33.4543C12.6778 33.4453 12.6838 33.4353 12.6947 33.4239C12.7363 33.3517 12.7364 33.3512 12.7391 33.326C12.7411 33.3076 12.7445 33.276 12.7668 33.1935C12.7909 33.1128 12.806 33.0297 12.8116 32.9456C12.8129 32.8873 12.832 32.8308 12.8662 32.7836C12.9069 32.5947 12.9234 32.4028 12.9401 32.2093C12.9538 32.0509 12.9676 31.8914 12.9948 31.7315C13.019 31.9036 13.0622 32.0725 13.1234 32.2351C13.1262 32.289 13.1446 32.3457 13.1628 32.4018C13.1822 32.4615 13.2013 32.5204 13.2013 32.5748C13.2065 32.6913 13.2262 32.8067 13.2598 32.9183C13.2832 33.0984 13.3149 33.2658 13.3479 33.44L13.3479 33.44L13.3479 33.44L13.3479 33.4402C13.37 33.5567 13.3927 33.6762 13.4138 33.8045C13.4281 33.9625 13.4515 34.1196 13.4839 34.2749C13.5475 34.4611 13.5912 34.6534 13.6145 34.8488C13.6772 34.9011 13.7343 34.9715 13.7911 35.0415C13.8508 35.1151 13.9101 35.1881 13.975 35.2392C14.037 35.2279 14.0941 35.1979 14.1387 35.1533C14.164 35.1452 14.1818 35.1636 14.1977 35.1801C14.2089 35.1915 14.2191 35.2021 14.2303 35.2021L14.2498 35.1181C14.2642 35.1037 14.271 35.0927 14.2764 35.084C14.2848 35.0704 14.2899 35.0621 14.316 35.0537C14.355 35.085 14.7409 34.921 14.7155 34.8683C14.6646 34.7633 14.6354 34.6491 14.6298 34.5326C14.585 34.3296 14.5246 34.0465 14.4836 33.8513C14.4693 33.7314 14.4693 33.6102 14.4836 33.4902C14.4921 33.4454 14.5018 33.3993 14.5122 33.3503L14.5122 33.3502L14.5122 33.3501L14.5123 33.3499C14.528 33.2753 14.5451 33.194 14.5616 33.0998C14.5633 33.088 14.5646 33.0774 14.5658 33.0678L14.5658 33.0677C14.5729 33.0105 14.5759 32.9868 14.6259 32.9417L14.6434 32.9964C14.6922 33.0377 14.7286 33.0918 14.7487 33.1525C14.8393 33.3064 14.9395 33.4544 15.0488 33.5956C15.1192 33.6953 15.2097 33.7791 15.3144 33.8416C15.4191 33.9042 15.5358 33.944 15.6568 33.9587C15.8302 33.9723 15.9101 33.9743 16.0251 33.8591C16.1362 33.8109 16.2304 33.7307 16.296 33.6288V33.6054C16.3265 33.5479 16.3429 33.4709 16.3598 33.392C16.3796 33.2996 16.3999 33.2045 16.4441 33.135C16.4814 33.0515 16.4883 32.9575 16.4636 32.8695L16.4441 32.807C16.504 32.556 16.5289 32.2978 16.5181 32.0399C16.5313 31.9595 16.5247 31.8757 16.5206 31.8232C16.5192 31.8056 16.5181 31.7916 16.5181 31.7823C16.5184 31.7802 16.5186 31.7782 16.5188 31.7762C16.5247 31.8155 16.5316 31.8546 16.5396 31.8935C16.5395 32.2005 16.6253 32.5014 16.7871 32.7621C16.9174 32.986 17.1192 33.1593 17.36 33.254C17.526 33.3293 17.7136 33.3414 17.8879 33.2883C18.0621 33.2351 18.2111 33.1203 18.3071 32.9651C18.3615 32.881 18.4005 32.7878 18.4221 32.6899C18.4426 32.6562 18.4548 32.618 18.4575 32.5786C18.4602 32.5392 18.4534 32.4997 18.4377 32.4635C18.4755 32.3845 18.498 32.2991 18.5039 32.2117L18.5331 32.1434L18.5741 32.2332C18.6693 32.4274 18.7425 32.6316 18.7923 32.8422L18.8333 32.932C18.8527 32.9769 18.9443 33.0432 18.9931 33.0198C19.0806 33.0177 19.1677 33.0316 19.2503 33.0608C19.2569 33.0728 19.2679 33.0818 19.281 33.0858C19.2941 33.0898 19.3083 33.0885 19.3204 33.0823C19.4783 33.1623 19.6693 32.7953 19.6108 32.6685C19.5922 32.6257 19.6179 32.5616 19.644 32.4966L19.6478 32.4869C19.6654 32.3737 19.6654 32.3737 19.6654 32.2605V32.2605C19.7005 32.1902 19.7219 32.1219 19.7005 32.077C19.7593 31.9468 19.7835 31.8036 19.7706 31.6613C19.8148 31.5084 19.8371 31.35 19.8369 31.1908C19.8502 31.1574 19.8571 31.0457 19.864 30.9324V30.9324C19.8712 30.8144 19.8785 30.6948 19.8934 30.6599C19.9012 30.5467 19.8642 30.4706 19.8135 30.494C19.7628 30.5174 19.6478 30.5916 19.6673 30.6365C19.6316 30.8417 19.6118 31.043 19.5929 31.236V31.236C19.5695 31.4744 19.5473 31.7003 19.4978 31.9052C19.4928 31.9926 19.471 32.0781 19.4335 32.157L19.3516 31.9755C19.2929 31.8481 19.2381 31.6955 19.1826 31.5409L19.1826 31.5409L19.1825 31.5408L19.1825 31.5407L19.1824 31.5405C19.1274 31.3873 19.0717 31.2321 19.0106 31.0971L18.9482 30.9625C18.9176 30.8234 18.8876 30.6844 18.8576 30.545L18.8573 30.5439C18.8339 30.4351 18.8104 30.3262 18.7865 30.2168C18.7725 30.1833 18.761 30.149 18.7495 30.115L18.7495 30.115L18.7495 30.115L18.7495 30.115C18.7118 30.0027 18.6753 29.8939 18.5526 29.8264C18.5652 29.7352 18.4867 29.7188 18.419 29.7046L18.419 29.7046C18.4027 29.7011 18.387 29.6979 18.3733 29.6937C18.3483 29.7093 18.3203 29.7196 18.2912 29.7239C18.262 29.7283 18.2323 29.7266 18.2038 29.7191C18.1273 29.7246 18.0534 29.7488 17.9885 29.7897C17.9236 29.8305 17.8697 29.8867 17.8316 29.9533C17.8628 30.0206 17.8813 30.0938 17.8998 30.167L17.8998 30.1671C17.9183 30.2403 17.9368 30.3134 17.968 30.3808C18.0182 30.4708 18.0437 30.5725 18.0421 30.6755C18.0303 30.8143 18.053 30.9538 18.1083 31.0815C18.1198 31.1191 18.1163 31.1597 18.0986 31.1947C18.1462 31.3094 18.1623 31.4348 18.1453 31.5578C18.1238 31.8942 18.0756 32.2284 18.0011 32.5572C17.9707 32.6415 17.9251 32.7196 17.8667 32.7875C17.8374 32.8558 17.6211 32.9046 17.5802 32.8148C17.5004 32.7208 17.487 32.6749 17.4665 32.6042C17.4529 32.5575 17.4361 32.5001 17.3951 32.4108C17.4769 32.3171 17.436 32.2273 17.3951 32.1375C17.3877 32.0541 17.3832 31.9363 17.3787 31.8204V31.8204L17.3787 31.8203L17.3787 31.8202V31.8201C17.3749 31.722 17.3712 31.6253 17.3658 31.5519L17.3697 31.5423C17.3958 31.4772 17.4214 31.4132 17.4029 31.3704C17.4168 31.2981 17.4135 31.2081 17.41 31.1129C17.4046 30.9692 17.3988 30.8137 17.4516 30.6892C17.4624 30.6288 17.478 30.5694 17.4984 30.5116C17.45 30.4037 17.5053 30.2858 17.5583 30.173C17.5715 30.1449 17.5845 30.1172 17.5958 30.0899C17.5822 30.045 17.7283 29.8069 17.777 29.7835C17.8005 29.7722 17.8349 29.7495 17.87 29.7264L17.87 29.7264L17.87 29.7264C17.9075 29.7017 17.9457 29.6765 17.9719 29.6644C17.9004 29.5927 17.8102 29.5428 17.7115 29.5203C17.6129 29.4979 17.5099 29.5039 17.4146 29.5375C17.3619 29.5588 17.3057 29.57 17.2489 29.5707C17.1169 29.6346 17.003 29.7305 16.9176 29.8498C16.903 29.884 16.8592 29.9572 16.8153 30.0304C16.7715 30.1036 16.7276 30.1768 16.713 30.211C16.6355 30.4744 16.5775 30.7432 16.5396 31.0152C16.494 31.2373 16.4834 31.4648 16.5077 31.6895C16.4987 31.6659 16.4859 31.6455 16.4735 31.6255C16.4594 31.603 16.4457 31.5811 16.4382 31.5558C16.3934 31.5363 16.3252 31.5578 16.3447 31.6203C16.3579 31.6626 16.3478 31.7023 16.34 31.7332C16.3362 31.7479 16.333 31.7605 16.333 31.7706C16.3264 31.8073 16.3317 31.8318 16.3362 31.853C16.341 31.8757 16.3451 31.8946 16.333 31.9209C16.3095 32.0092 16.2892 32.1591 16.2666 32.327V32.327C16.2216 32.6599 16.167 33.0638 16.0582 33.2013C15.9603 33.2882 15.8029 33.1075 15.6633 32.9472L15.6633 32.9472L15.6633 32.9472C15.6334 32.9129 15.6044 32.8796 15.5769 32.85C15.494 32.7607 15.4066 32.6338 15.3207 32.5091L15.3207 32.5091L15.3207 32.509L15.3207 32.509L15.3206 32.509L15.3206 32.5089C15.2451 32.3992 15.1707 32.2911 15.1014 32.2117C15.0634 32.1569 15.0483 32.1393 15.036 32.1251C15.0211 32.1079 15.0105 32.0955 14.9689 32.0282C14.9414 32.0191 14.9225 32.0046 14.9046 31.9909C14.8881 31.9783 14.8725 31.9664 14.8519 31.9599C14.8479 31.9615 14.8435 31.9622 14.8391 31.9621C14.8347 31.9619 14.8304 31.9609 14.8264 31.9591C14.8225 31.9573 14.8189 31.9547 14.8159 31.9515C14.8141 31.9495 14.8125 31.9473 14.8112 31.945C14.8104 31.9435 14.8097 31.942 14.8091 31.9404C14.8146 31.7664 14.8543 31.5953 14.926 31.4368C14.9798 31.3495 15.0113 31.2503 15.0176 31.1479C15.0839 30.9137 15.172 30.6863 15.2807 30.4686C15.3042 30.4358 15.3152 30.3957 15.3119 30.3554C15.3212 30.3397 15.328 30.3215 15.335 30.3032L15.335 30.3032C15.3513 30.2601 15.3679 30.2163 15.4171 30.2012C15.4288 30.2402 15.4288 30.2402 15.4911 30.2559C15.5028 30.2643 15.5161 30.2703 15.5302 30.2733C15.5443 30.2763 15.5589 30.2764 15.573 30.2734C15.5886 30.2688 15.5942 30.2578 15.6003 30.246C15.6072 30.2326 15.6146 30.2182 15.6373 30.211C15.6314 30.1516 15.6133 30.094 15.5841 30.0419C15.5549 29.9899 15.5153 29.9444 15.4678 29.9084C15.3762 29.8784 15.2781 29.8742 15.1843 29.8963C15.0905 29.9183 15.0045 29.9657 14.9357 30.0333C14.8945 30.046 14.8762 30.0782 14.8562 30.1133C14.8421 30.1378 14.8273 30.1639 14.8032 30.1856C14.7379 30.3097 14.6863 30.4406 14.6493 30.576C14.5828 30.7688 14.5704 30.8692 14.5548 30.9948C14.5435 31.0866 14.5304 31.1919 14.4934 31.3567C14.4874 31.3727 14.4882 31.3948 14.4891 31.419C14.4908 31.4656 14.4928 31.5198 14.4466 31.5519C14.4234 31.6867 14.4123 31.8232 14.4135 31.9599C14.4087 31.9909 14.4039 32.0219 14.3991 32.0529ZM6.17801 16.2936C6.15203 16.2988 6.12279 16.3301 6.09032 16.3873L6.33586 16.3405C6.33586 16.3405 6.93218 16.0555 7.10562 16.1453C7.14406 16.1677 7.21449 16.1473 7.28342 16.1274C7.36475 16.1039 7.44399 16.0811 7.46614 16.1297C7.49796 16.1269 7.52998 16.1316 7.55968 16.1433V16.1433C7.54994 16.2175 7.54994 16.2175 7.60645 16.2331C7.62028 16.2677 7.65349 16.2875 7.68866 16.3084C7.74269 16.3406 7.80133 16.3755 7.80133 16.4713C7.83373 16.6007 7.82556 16.737 7.77794 16.8616C7.76802 16.9822 7.72105 17.0968 7.64348 17.1896C7.54279 17.4535 7.471 17.522 7.2539 17.7291C7.21889 17.7625 7.1801 17.7995 7.1368 17.8415C6.98621 17.98 6.81534 18.0945 6.63013 18.1812C6.46404 18.2722 6.36582 18.2764 6.26605 18.2807C6.20544 18.2833 6.14426 18.2859 6.06693 18.308C5.92765 18.3544 5.77924 18.3665 5.63431 18.3432C5.60258 18.344 5.57094 18.3394 5.54077 18.3295C5.42216 18.2332 5.29884 18.1464 5.17771 18.0612C4.82517 17.8131 4.49122 17.5782 4.34617 17.1583C4.2278 16.9082 4.17355 16.6325 4.18833 16.3561C4.17274 16.0125 4.18248 15.6104 4.60341 15.2981C5.08865 14.9273 5.82529 15.1107 6.04355 15.1986C6.20851 15.2294 6.36937 15.2792 6.52294 15.3469C6.85555 15.4701 6.99391 15.5924 7.07502 15.6641C7.11605 15.7003 7.14243 15.7236 7.17188 15.7276C6.78955 15.8072 6.44188 16.0053 6.17801 16.2936Z" fill="white"/>
</svg>
