<svg width="184" height="80" viewBox="0 0 184 80" fill="none" xmlns="http://www.w3.org/2000/svg">
<path d="M162.52 39.7618H152.455V40.7139H162.52V39.7618Z" fill="white"/>
<path d="M128.582 11.6538L130.695 10.6797C130.903 10.566 131.131 10.4944 131.367 10.4689C131.602 10.4434 131.841 10.4645 132.068 10.531C132.218 10.5847 132.355 10.6686 132.47 10.7775C132.586 10.8863 132.678 11.0177 132.741 11.1636C132.843 11.3655 132.883 11.5927 132.858 11.8173C132.833 12.042 132.742 12.2545 132.598 12.4287C133.232 12.3844 133.686 12.5394 133.968 13.1498C134.352 13.9785 133.87 14.706 132.842 15.1804L130.679 16.1767L128.582 11.6538ZM131.824 11.7867C131.684 11.4704 131.373 11.4261 130.952 11.6222L129.965 12.0776L130.409 13.0265L131.332 12.5995C131.773 12.3971 131.986 12.1251 131.83 11.7898L131.824 11.7867ZM131.951 13.3333L130.793 13.8646L131.259 14.8641L132.446 14.3138C132.89 14.1113 133.08 13.833 132.925 13.4946C132.779 13.1783 132.465 13.0961 131.951 13.3333Z" fill="white"/>
<path d="M134.393 9.22152L135.462 8.96533L135.918 10.9168L136.258 10.8346L137.492 8.4751L138.821 8.15881L137.213 11.0465L140.125 12.9948L138.761 13.3111L136.512 11.7581L136.144 11.8467L136.632 13.8203L135.563 14.0765L134.393 9.22152Z" fill="white"/>
<path d="M141.25 12.9443L142.16 11.1953L140.102 7.99449L141.345 7.94389L142.734 10.1579L143.826 7.83003L145.047 7.77942L142.471 12.8842L141.25 12.9443Z" fill="white"/>
<path d="M145.838 10.3507C145.879 10.0101 145.988 9.68124 146.161 9.3842C146.333 9.08716 146.564 8.82811 146.839 8.6228C147.115 8.4175 147.429 8.27022 147.764 8.18992C148.098 8.10962 148.446 8.09798 148.785 8.15571C149.149 8.18658 149.502 8.29385 149.821 8.47046C150.14 8.64708 150.419 8.88904 150.637 9.18046L149.829 9.87945C149.544 9.49089 149.118 9.2287 148.642 9.14884C148.445 9.12517 148.244 9.14125 148.053 9.19612C147.862 9.25098 147.684 9.34353 147.529 9.46826C147.374 9.593 147.246 9.7474 147.153 9.92234C147.059 10.0973 147.001 10.2892 146.983 10.4867V10.5025C146.944 10.6979 146.944 10.8991 146.985 11.0942C147.025 11.2893 147.105 11.4742 147.218 11.6381C147.332 11.8019 147.478 11.9412 147.647 12.0477C147.815 12.1542 148.004 12.2257 148.201 12.2579C148.447 12.2896 148.697 12.2708 148.935 12.2029C149.174 12.1349 149.396 12.0191 149.587 11.8625L150.181 12.6596C149.89 12.9154 149.545 13.1022 149.171 13.2057C148.797 13.3093 148.405 13.3269 148.024 13.2574C147.687 13.2145 147.361 13.1046 147.068 12.9342C146.774 12.7638 146.518 12.5363 146.314 12.2652C146.11 11.9941 145.963 11.685 145.881 11.3561C145.799 11.0272 145.785 10.6853 145.838 10.3507Z" fill="white"/>
<path d="M156.493 10.3223L157.476 10.8157L156.585 12.5837L158.402 13.4946L159.294 11.7266L160.277 12.22L158.028 16.6859L157.041 16.1925L157.933 14.3992L156.115 13.4883L155.211 15.2816L154.225 14.7882L156.493 10.3223Z" fill="white"/>
<path d="M160.547 15.2975C160.767 15.0254 161.038 14.7992 161.346 14.6318C161.653 14.4644 161.991 14.359 162.34 14.3217C162.688 14.2844 163.04 14.3159 163.377 14.4144C163.713 14.5129 164.026 14.6765 164.299 14.8958C164.572 15.1151 164.799 15.3858 164.967 15.6926C165.135 15.9993 165.241 16.336 165.278 16.6834C165.315 17.0309 165.284 17.3823 165.185 17.7175C165.086 18.0528 164.922 18.3654 164.702 18.6374C164.253 19.1697 163.613 19.5053 162.919 19.5722C162.225 19.6391 161.532 19.4319 160.989 18.9951C160.446 18.5583 160.097 17.9267 160.016 17.236C159.935 16.5452 160.129 15.8504 160.556 15.3006L160.547 15.2975ZM163.789 17.9195C163.922 17.7655 164.023 17.5864 164.086 17.3928C164.149 17.1991 164.173 16.9949 164.155 16.7921C164.138 16.5893 164.08 16.392 163.985 16.2119C163.89 16.0318 163.759 15.8725 163.601 15.7434C163.444 15.6159 163.263 15.5214 163.069 15.4656C162.874 15.4097 162.67 15.3937 162.469 15.4186C162.268 15.4434 162.074 15.5085 161.899 15.61C161.724 15.7115 161.572 15.8473 161.451 16.0091C161.316 16.1627 161.214 16.3417 161.151 16.5354C161.087 16.7292 161.064 16.9337 161.081 17.1367C161.099 17.3398 161.157 17.5373 161.253 17.7174C161.348 17.8975 161.479 18.0566 161.638 18.1851C161.795 18.3131 161.976 18.408 162.171 18.4641C162.365 18.5202 162.569 18.5363 162.77 18.5114C162.971 18.4866 163.165 18.4213 163.34 18.3196C163.515 18.2178 163.668 18.0817 163.789 17.9195Z" fill="white"/>
<path d="M167.741 18.2704L169.2 20.0732C169.362 20.2468 169.487 20.4505 169.569 20.6724C169.651 20.8944 169.689 21.1304 169.679 21.3668C169.664 21.5235 169.616 21.6754 169.539 21.813C169.462 21.9506 169.358 22.0711 169.232 22.167C169.06 22.3155 168.848 22.4105 168.623 22.4403C168.397 22.4701 168.168 22.4333 167.963 22.3346C168.157 22.9229 168.119 23.41 167.595 23.8306C166.882 24.4063 166.06 24.1153 165.35 23.2392L163.855 21.3921L167.741 18.2704ZM166.929 21.9298L166.13 20.943L165.27 21.6325L166.095 22.6477C166.412 23.0273 166.729 23.1475 167.005 22.9134C167.278 22.6952 167.285 22.3694 166.929 21.9298ZM168.401 21.4332C168.655 21.2276 168.639 20.9114 168.347 20.5508L167.662 19.7063L166.84 20.3705L167.475 21.1581C167.792 21.5344 168.109 21.6768 168.385 21.4427L168.401 21.4332Z" fill="white"/>
<path d="M171.632 23.3405L172.117 24.3273L170.703 25.0168L171.09 25.8138C171.619 26.8923 171.442 27.8348 170.436 28.3219C169.485 28.79 168.558 28.4421 167.987 27.2719L167.131 25.5291L171.632 23.3405ZM168.885 26.8607C169.12 27.3414 169.497 27.5407 169.929 27.3319C170.341 27.1295 170.443 26.7373 170.195 26.2313L169.814 25.4501L168.501 26.0826L168.885 26.8607ZM173.694 27.5502L174.176 28.537L169.669 30.7288L169.183 29.742L173.694 27.5502Z" fill="white"/>
<path d="M175.859 35.084L173.099 34.0023L170.996 36.2701L170.707 35.0049L172.128 33.531L170.203 32.8162L169.924 31.6049L172.795 32.734L174.822 30.558L175.107 31.8231L173.759 33.1863L175.58 33.86L175.859 35.084Z" fill="white"/>
<path d="M176.211 39.9358L176.071 42.2542C176.071 42.7276 175.884 43.1821 175.551 43.5193C175.433 43.624 175.295 43.7038 175.145 43.7538C174.995 43.8038 174.836 43.823 174.679 43.8103C174.454 43.8042 174.236 43.7331 174.051 43.6056C173.867 43.4781 173.723 43.2998 173.638 43.0923C173.381 43.6553 173.023 43.9906 172.35 43.9526C171.434 43.8989 171.024 43.1303 171.081 42.0043L171.224 39.6322L176.211 39.9358ZM173.134 42.0992L173.21 40.8341L172.109 40.7677L172.03 42.0707C172.001 42.5578 172.154 42.8583 172.525 42.8804C172.877 42.8994 173.099 42.6748 173.134 42.0992ZM174.558 42.7318C174.875 42.7539 175.088 42.5072 175.116 42.0454L175.183 40.9606L174.123 40.8973L174.063 41.9094C174.035 42.3934 174.171 42.7096 174.545 42.7318H174.558Z" fill="white"/>
<path d="M175.62 46.173L174.554 50.2245L169.707 48.9594L169.983 47.8935L173.862 48.9088L174.37 46.9826L170.491 45.9674L170.77 44.9047L175.62 46.173Z" fill="white"/>
<path d="M173.726 52.3721L172.082 55.7658L171.197 55.3262L172.365 52.9161L171.448 52.4797L170.423 54.6019L169.542 54.1749L170.566 52.0558L169.615 51.5972L168.438 54.0611L167.553 53.6341L169.212 50.2087L173.726 52.3721Z" fill="white"/>
<path d="M166.583 57.8027C166.729 57.4871 166.905 57.1863 167.109 56.9044C167.791 55.9872 168.67 55.7026 169.647 56.4174L171.068 57.4674L170.412 58.3498L169.089 57.3725C168.613 57.0183 168.22 57.1037 167.858 57.5908C167.672 57.8392 167.519 58.1102 167.401 58.3973L169.32 59.8174L168.651 60.703L164.629 57.7268L165.286 56.8443L166.583 57.8027Z" fill="white"/>
<path d="M165.863 63.5969L165.108 64.2738L160.131 61.9681L160.987 61.2027L162.079 61.7309L163.665 60.3202L163.255 59.1848L164.093 58.4352L165.863 63.5969ZM163.008 62.1831L164.594 62.9422L164.004 61.2975L163.008 62.1831Z" fill="white"/>
<path d="M160.969 66.0798L162.257 65.2733L162.796 66.1304L159.288 68.3286L158.745 67.4715L160.036 66.665L157.914 63.2965L158.843 62.7114L160.969 66.0798Z" fill="white"/>
<path d="M151.906 66.0798L153.032 65.6149L155.656 68.3096L155.586 64.5617L156.683 64.1094V69.5589L155.783 69.929L151.906 66.0798Z" fill="white"/>
<path d="M151.99 71.1688L148.288 71.9058L148.098 70.9569L150.728 70.4319L150.528 69.4419L148.216 69.9005L148.022 68.9517L150.338 68.4931L150.131 67.4651L147.464 67.9775L147.273 67.0287L151.01 66.2854L151.99 71.1688Z" fill="white"/>
<path d="M146.195 72.1366H145.091V70.1598H143.058V72.1366H141.957L141.941 67.1393H143.023V69.1445H145.056V67.1393H146.16L146.195 72.1366Z" fill="white"/>
<path d="M137.313 66.3676L136.679 69.5589L139.664 66.8357L140.615 67.0286L139.613 71.9279L138.531 71.7065L139.166 68.6069L136.279 71.2479L135.248 71.0391L136.25 66.1399L137.313 66.3676Z" fill="white"/>
<path d="M131.921 64.4035L130.607 67.3829L134.097 65.3555L134.985 65.7446L132.974 70.3117L131.952 69.8752L133.221 66.9875L129.846 68.9548L128.895 68.5342L130.909 63.967L131.921 64.4035ZM131.604 71.2827L130.922 70.9854C130.922 70.7482 130.826 70.5615 130.503 70.4192C130.395 70.3489 130.266 70.3177 130.138 70.331C130.01 70.3442 129.89 70.4011 129.799 70.492L129.117 70.1915C129.45 69.5937 130.094 69.4609 130.788 69.7645C131.483 70.0681 131.803 70.6311 131.604 71.2827Z" fill="white"/>
<path d="M128.686 54.8106H150.846V49.1301H135.046V31.4689H150.646V25.7853H128.686V54.8106Z" fill="white"/>
<path d="M140.682 43.0387H148.536V37.3456H135.248V37.6239C135.248 38.3353 135.389 39.0396 135.662 39.6968C135.935 40.3539 136.335 40.951 136.84 41.4538C137.344 41.9567 137.943 42.3555 138.603 42.6274C139.262 42.8993 139.968 43.0391 140.682 43.0387Z" fill="white"/>
<path d="M82.8294 24.6467C79.7477 24.6467 76.7352 25.5579 74.1729 27.265C71.6105 28.9721 69.6134 31.3985 68.4341 34.2373C67.2548 37.0761 66.9462 40.1998 67.5474 43.2134C68.1487 46.2271 69.6326 48.9953 71.8117 51.168C73.9908 53.3408 76.7672 54.8204 79.7896 55.4199C82.8121 56.0193 85.945 55.7117 88.7921 54.5358C91.6393 53.3599 94.0727 51.3687 95.7848 48.8138C97.4969 46.2589 98.4108 43.2553 98.4108 40.1826C98.4108 36.0622 96.7692 32.1106 93.8471 29.1971C90.925 26.2835 86.9618 24.6467 82.8294 24.6467ZM82.8294 49.3579C81.01 49.3579 79.2315 48.82 77.7187 47.8121C76.2059 46.8043 75.0268 45.3718 74.3306 43.6958C73.6343 42.0198 73.4521 40.1755 73.8071 38.3963C74.162 36.6171 75.0382 34.9827 76.3247 33.7C77.6112 32.4172 79.2503 31.5437 81.0348 31.1897C82.8192 30.8358 84.6688 31.0175 86.3498 31.7117C88.0307 32.4059 89.4674 33.5816 90.4782 35.0899C91.489 36.5983 92.0285 38.3716 92.0285 40.1857C92.0302 41.3913 91.7935 42.5854 91.3319 43.6997C90.8704 44.8139 90.193 45.8266 89.3386 46.6796C88.4843 47.5327 87.4696 48.2094 86.3527 48.6712C85.2358 49.1329 84.0385 49.3706 82.8294 49.3706V49.3579Z" fill="white"/>
<path d="M18.468 25.7853H12.3871L0 54.8106H6.52184L15.3498 33.2432L19.2134 42.6748H11.7304C11.7371 44.1711 12.3386 45.6036 13.403 46.6584C14.4674 47.7131 15.9078 48.304 17.4085 48.3015H21.51L24.1778 54.8106H30.8709L18.468 25.7853Z" fill="white"/>
<path d="M56.631 25.7853L49.0528 37.94L41.4747 25.7853H34.3945V54.8106H40.7197V35.8526L48.8847 48.2129H49.0528L57.3034 35.7261V54.8106H63.7143V25.7853H56.631Z" fill="white"/>
<path d="M114.9 25.7853H101.945V54.8106H108.29L108.305 31.4689H114.897C115.504 31.4529 116.109 31.5583 116.674 31.779C117.24 31.9997 117.756 32.3311 118.191 32.7537C118.626 33.1763 118.972 33.6815 119.208 34.2395C119.444 34.7976 119.566 35.3971 119.566 36.0028C119.566 36.6085 119.444 37.208 119.208 37.7661C118.972 38.3241 118.626 38.8294 118.191 39.252C117.756 39.6745 117.24 40.006 116.674 40.2266C116.109 40.4473 115.504 40.5527 114.897 40.5367H108.512V40.8182C108.513 42.2538 109.087 43.6299 110.106 44.6441C111.124 45.6582 112.506 46.2275 113.945 46.2267H114.897C117.584 46.1795 120.146 45.082 122.03 43.1703C123.913 41.2587 124.969 38.6859 124.969 36.006C124.969 33.326 123.913 30.7532 122.03 28.8416C120.146 26.93 117.584 25.8324 114.897 25.7853H114.9Z" fill="white"/>
<path d="M30.2768 25.9118C29.5074 25.1447 28.464 24.7137 27.3759 24.7137C26.2879 24.7137 25.2444 25.1447 24.475 25.9118C23.7057 26.6789 23.2734 27.7194 23.2734 28.8042C23.2734 29.8891 23.7057 30.9295 24.475 31.6966C25.0726 32.2935 25.8423 32.6893 26.6765 32.8289V35.2896L30.2768 31.6966C30.6579 31.3169 30.9601 30.866 31.1664 30.3697C31.3726 29.8734 31.4788 29.3414 31.4788 28.8042C31.4788 28.267 31.3726 27.7351 31.1664 27.2388C30.9601 26.7425 30.6579 26.2916 30.2768 25.9118Z" fill="#F04E23"/>
<path d="M143.944 16.3759C138.006 16.3753 132.286 18.6083 127.928 22.6288L128.619 23.3183C131.834 20.3828 135.828 18.4323 140.125 17.7001C144.421 16.9678 148.839 17.4847 152.849 19.189C156.858 20.8933 160.291 23.7129 162.737 27.3107C165.182 30.9085 166.537 35.1324 166.639 39.4774C166.741 43.8225 165.586 48.1049 163.312 51.8128C161.037 55.5207 157.741 58.4972 153.815 60.3866C149.889 62.2759 145.501 62.9982 141.175 62.4671C136.849 61.9359 132.767 60.1739 129.419 57.3914L128.727 58.081C131.644 60.5204 135.107 62.2228 138.824 63.044C142.541 63.8652 146.401 63.7809 150.078 62.7983C153.755 61.8157 157.141 59.9637 159.947 57.3994C162.754 54.835 164.9 51.6337 166.202 48.0669C167.504 44.5001 167.925 40.6729 167.428 36.9096C166.932 33.1462 165.532 29.5577 163.349 26.4481C161.166 23.3384 158.263 20.7994 154.887 19.046C151.511 17.2927 147.76 16.3768 143.953 16.3759H143.944Z" fill="white"/>
<path d="M182.428 28.9925C182.408 28.8587 182.378 28.7266 182.339 28.5972V28.5719C182.195 28.0974 181.965 27.6534 181.66 27.2625C181.301 26.7488 180.783 26.3667 180.185 26.1744C180.185 26.2503 180.835 26.6425 180.914 27.3605C180.943 27.6503 180.913 27.9428 180.826 28.2209C180.739 28.4989 180.598 28.757 180.41 28.9799C180.232 29.2234 180.055 29.4701 179.893 29.7168L179.795 29.7453C179.556 30.103 179.377 30.4972 179.265 30.9124C179.134 31.3625 179.123 31.8389 179.233 32.2945V32.3198C179.342 32.7552 179.509 33.1742 179.728 33.566C180.023 34.0824 180.449 34.513 180.962 34.8153C180.981 34.7805 180.854 34.635 180.734 34.4168C180.567 34.1665 180.478 33.8728 180.477 33.5723C180.477 32.9809 180.813 32.5254 181.19 32.0573C181.885 31.2223 182.627 30.2924 182.428 28.9925Z" fill="white"/>
<path d="M148.692 1.28296C148.966 1.38484 149.216 1.5403 149.429 1.7402C149.641 1.9401 149.811 2.18038 149.929 2.44689C150.072 2.7094 150.215 2.97508 150.37 3.2281L150.351 3.33248C150.574 3.70129 150.851 4.03494 151.173 4.32245C151.521 4.63775 151.947 4.85594 152.407 4.95501H152.429C153.038 5.10999 154.396 5.21753 155.439 4.49956C155.385 4.44263 154.71 4.68617 154.104 4.3857C153.577 4.1137 153.304 3.64876 153.051 3.08261C152.837 2.57509 152.564 2.09424 152.239 1.64985C151.951 1.2702 151.575 0.965896 151.144 0.763139C150.712 0.560382 150.238 0.465248 149.761 0.48593C149.482 0.492193 149.204 0.521816 148.93 0.574489C148.31 0.672504 147.739 0.968905 147.303 1.41897C147.334 1.44427 147.509 1.35255 147.763 1.27664C148.067 1.19023 148.389 1.19242 148.692 1.28296Z" fill="white"/>
<path d="M154.054 2.32666C154.311 2.46591 154.537 2.65486 154.719 2.88242C154.902 3.10999 155.037 3.37159 155.117 3.65189C155.221 3.93338 155.326 4.21487 155.434 4.48688L155.402 4.58809C155.575 4.9798 155.805 5.3442 156.084 5.66977C156.388 6.02674 156.781 6.29822 157.223 6.45732C157.803 6.69453 159.126 6.99184 160.268 6.42253C160.22 6.36243 159.519 6.50792 158.961 6.12838C158.527 5.76957 158.23 5.2725 158.121 4.72093C157.979 4.18879 157.776 3.67501 157.515 3.19011C157.284 2.77347 156.955 2.41921 156.556 2.15798C156.157 1.89676 155.7 1.73645 155.224 1.69093C154.948 1.65967 154.668 1.65121 154.39 1.66563C153.762 1.67586 153.154 1.89017 152.658 2.27606C152.82 2.2674 152.981 2.24196 153.137 2.20015C153.449 2.15423 153.767 2.19813 154.054 2.32666Z" fill="white"/>
<path d="M143.236 0.991901C143.521 1.05503 143.791 1.17426 144.029 1.34262C144.268 1.51097 144.47 1.72506 144.625 1.97238C144.803 2.21275 144.983 2.45629 145.171 2.68718V2.79155C145.443 3.12543 145.764 3.41744 146.122 3.65817C146.513 3.91797 146.964 4.07169 147.432 4.10413H147.464C148.098 4.17371 149.447 4.10413 150.379 3.23435C150.316 3.18691 149.681 3.52217 149.044 3.30709C148.51 3.08394 148.075 2.67777 147.816 2.16215C147.534 1.69042 147.198 1.2531 146.814 0.859063C146.476 0.522425 146.062 0.272787 145.606 0.131717C145.15 -0.00935344 144.666 -0.037614 144.197 0.0493776C143.921 0.0932519 143.649 0.160981 143.385 0.251799C142.785 0.437431 142.262 0.809936 141.891 1.31451C141.926 1.33665 142.087 1.21963 142.328 1.10893C142.613 0.984741 142.928 0.944146 143.236 0.991901Z" fill="white"/>
<path d="M126.58 5.11306C126.79 4.87881 127.065 4.71068 127.37 4.62915C127.656 4.57164 127.951 4.57166 128.238 4.62923C128.524 4.68679 128.796 4.80074 129.038 4.96441C129.301 5.1099 129.561 5.25855 129.828 5.39455L129.866 5.48944C130.251 5.68491 130.662 5.82241 131.087 5.89744C131.55 5.97671 132.026 5.9342 132.467 5.77409C133.067 5.58432 134.275 4.95808 134.776 3.79732C134.7 3.79732 134.259 4.34133 133.587 4.40775C133.009 4.41892 132.447 4.22372 132.001 3.85742C131.549 3.5419 131.063 3.27875 130.551 3.07303C130.106 2.90204 129.625 2.84149 129.151 2.89659C128.677 2.95168 128.224 3.12077 127.829 3.38932C127.596 3.54207 127.376 3.71455 127.173 3.90486C126.698 4.31735 126.371 4.87233 126.24 5.48627C126.304 5.48311 126.402 5.31232 126.58 5.11306Z" fill="white"/>
<path d="M121.871 7.8552C122.049 7.59495 122.298 7.39083 122.588 7.26691C122.864 7.16932 123.156 7.12771 123.448 7.14455C123.74 7.16139 124.026 7.23633 124.289 7.36496C124.568 7.47566 124.85 7.58636 125.129 7.68124L125.183 7.77296C125.592 7.91243 126.02 7.99024 126.452 8.00385C126.921 8.0186 127.386 7.90949 127.8 7.68757C128.365 7.41556 129.475 6.62802 129.808 5.41033C129.732 5.41033 129.37 6.02076 128.717 6.1789C128.147 6.27039 127.563 6.15838 127.067 5.86261C126.576 5.61258 126.058 5.41945 125.523 5.28698C125.06 5.18361 124.58 5.19318 124.122 5.31488C123.664 5.43659 123.242 5.66681 122.893 5.98596C122.682 6.16833 122.489 6.36948 122.316 6.5869C121.903 7.05856 121.656 7.6515 121.611 8.27585C121.653 8.26004 121.726 8.0766 121.871 7.8552Z" fill="white"/>
<path d="M158.327 3.84169C158.642 3.84263 158.95 3.93374 159.215 4.10421C159.45 4.27733 159.649 4.49588 159.798 4.74689C159.947 4.9979 160.045 5.27625 160.084 5.56543C160.151 5.85958 160.214 6.15056 160.29 6.43838L160.246 6.53326C160.358 6.94846 160.531 7.3449 160.76 7.70983C161.009 8.10875 161.359 8.43579 161.775 8.65868C162.314 8.97497 163.592 9.45572 164.791 9.04771C164.753 8.98129 164.04 9.02873 163.542 8.57329C163.146 8.15408 162.915 7.60773 162.888 7.03299C162.822 6.48671 162.693 5.94977 162.504 5.4326C162.332 4.98839 162.055 4.59236 161.696 4.2784C161.337 3.96443 160.907 3.74188 160.442 3.62978C160.173 3.55995 159.898 3.51235 159.621 3.48745C158.997 3.4104 158.365 3.53927 157.822 3.85434C157.99 3.86825 158.159 3.86401 158.327 3.84169Z" fill="white"/>
<path d="M137.793 1.4633C138.084 1.48493 138.369 1.56498 138.629 1.69866C138.889 1.83235 139.119 2.01692 139.306 2.24135C139.518 2.45326 139.727 2.6715 139.94 2.87392V2.97829C140.256 3.27152 140.615 3.51663 141.003 3.70574C141.426 3.90849 141.895 3.99787 142.363 3.9651H142.389C143.023 3.94612 144.352 3.67728 145.155 2.69996C145.088 2.66201 144.521 3.0795 143.842 2.95615C143.286 2.81121 142.8 2.47515 142.468 2.0073C142.123 1.57843 141.729 1.19101 141.294 0.852871C140.913 0.566955 140.467 0.377598 139.996 0.301029C139.525 0.224461 139.042 0.262964 138.589 0.413237C138.322 0.497426 138.064 0.603207 137.815 0.729521C137.244 0.995443 136.777 1.43963 136.482 1.99465C136.52 1.99465 136.663 1.8713 136.888 1.72898C137.157 1.55429 137.472 1.46193 137.793 1.4633Z" fill="white"/>
<path d="M182.04 31.7378C182.215 31.9995 182.311 32.3058 182.316 32.6202C182.303 32.9115 182.232 33.1974 182.107 33.4609C181.982 33.7244 181.805 33.9602 181.586 34.1542C181.38 34.3724 181.171 34.5875 180.977 34.812L180.873 34.8278C180.591 35.153 180.358 35.5174 180.181 35.9095C179.992 36.3386 179.918 36.8097 179.969 37.2759V37.298C180.007 37.9306 180.324 39.2463 181.329 40.0117C181.364 39.9421 180.927 39.3792 181.012 38.7118C181.142 38.1506 181.468 37.6538 181.932 37.3107C182.349 36.9505 182.724 36.5441 183.049 36.0993C183.322 35.7087 183.497 35.2577 183.557 34.785C183.617 34.3122 183.562 33.832 183.394 33.3856C183.301 33.1236 183.187 32.8697 183.052 32.6265C182.767 32.0679 182.307 31.6172 181.742 31.3424C181.745 31.3835 181.888 31.5195 182.04 31.7378Z" fill="white"/>
<path d="M164.081 6.58388C164.291 6.78986 164.458 7.03609 164.571 7.30783C164.683 7.57956 164.74 7.87121 164.737 8.16529C164.759 8.48158 164.782 8.76307 164.82 9.06037L164.763 9.14577C164.814 9.57283 164.929 9.98974 165.105 10.3824C165.299 10.8094 165.601 11.1788 165.981 11.4546C166.472 11.8437 167.668 12.4952 168.915 12.258C168.886 12.1853 168.173 12.1346 167.741 11.6254C167.41 11.1536 167.258 10.5794 167.313 10.0061C167.322 9.45576 167.268 8.90622 167.154 8.36771C167.048 7.90662 166.832 7.47795 166.524 7.11831C166.215 6.75866 165.825 6.47873 165.384 6.30239C165.127 6.19493 164.86 6.10923 164.588 6.0462C163.982 5.88524 163.339 5.9252 162.758 6.16006C162.915 6.19373 163.076 6.21174 163.237 6.21383C163.548 6.25369 163.841 6.38217 164.081 6.58388Z" fill="white"/>
<path d="M118.989 13.7159C119.193 13.6076 119.381 13.4737 119.551 13.3174C120.305 12.6371 120.77 11.6942 120.848 10.6828C121.271 10.7637 121.704 10.7818 122.133 10.7365C122.601 10.6864 123.047 10.5141 123.427 10.2368C123.947 9.89206 124.94 8.95586 125.099 7.70654C125.022 7.70654 124.75 8.37074 124.122 8.6206C123.566 8.82935 123.037 8.71865 122.447 8.52888C121.925 8.34918 121.384 8.22928 120.835 8.17148C120.358 8.12894 119.877 8.20322 119.435 8.38785C118.993 8.57249 118.602 8.86192 118.298 9.23103C118.117 9.44118 117.954 9.66658 117.812 9.90471C117.479 10.4186 117.317 11.0239 117.349 11.6348C117.178 11.6348 117.006 11.6348 116.832 11.6348L118.989 13.7159ZM117.597 11.2236C117.739 10.9405 117.959 10.7036 118.231 10.5404C118.491 10.4064 118.774 10.3253 119.066 10.302C119.357 10.2786 119.65 10.3135 119.928 10.4044C120.22 10.474 120.515 10.5436 120.807 10.6005V10.6195C120.646 11.0177 120.37 11.3591 120.014 11.6C119.493 11.8846 118.951 11.8499 118.339 11.7392C118.041 11.6917 117.733 11.6474 117.422 11.6221C117.466 11.5525 117.514 11.4007 117.597 11.2236Z" fill="white"/>
<path d="M182.602 36.6844C182.583 36.7224 182.707 36.8774 182.824 37.1146C182.961 37.3986 183.014 37.7157 182.976 38.0287C182.921 38.3159 182.808 38.5892 182.645 38.8321C182.481 39.0749 182.27 39.2825 182.025 39.4424C181.787 39.6322 181.552 39.8188 181.327 40.0117H181.222C180.897 40.2948 180.616 40.6241 180.388 40.9891C180.138 41.3863 179.999 41.8426 179.985 42.3111V42.3333C179.937 42.9658 180.068 44.31 180.959 45.2083C181.003 45.145 180.642 44.5251 180.838 43.8799C181.044 43.3407 181.435 42.8922 181.942 42.6148C182.403 42.3145 182.829 41.9633 183.211 41.5679C183.536 41.2195 183.771 40.7978 183.896 40.3389C184.022 39.88 184.034 39.3977 183.931 38.9332C183.877 38.6604 183.8 38.3926 183.7 38.133C183.498 37.5458 183.113 37.0382 182.602 36.6844Z" fill="white"/>
<path d="M178.272 21.5693C178.512 21.7726 178.69 22.0404 178.782 22.341C178.851 22.6242 178.861 22.9181 178.814 23.2054C178.767 23.4928 178.662 23.7678 178.506 24.0142C178.367 24.283 178.227 24.5487 178.1 24.8175L178.005 24.8587C177.823 25.2486 177.701 25.6632 177.64 26.089C177.576 26.5536 177.635 27.0269 177.812 27.4617C178.021 28.05 178.69 29.236 179.87 29.6915C179.87 29.6187 179.309 29.1949 179.22 28.5275C179.15 27.9393 179.385 27.4522 179.715 26.9272C180.017 26.4673 180.264 25.9737 180.451 25.4564C180.607 25.0064 180.65 24.5253 180.578 24.0547C180.506 23.5841 180.319 23.1381 180.035 22.7554C179.873 22.5301 179.693 22.3185 179.496 22.1228C179.069 21.6637 178.503 21.3562 177.885 21.2467C177.891 21.3068 178.065 21.4017 178.272 21.5693Z" fill="white"/>
<path d="M168.553 9.7118C168.732 9.94424 168.862 10.2102 168.935 10.4939C169.009 10.7775 169.024 11.073 168.981 11.3628C168.965 11.6791 168.943 11.9637 168.94 12.261L168.87 12.337C168.863 12.7646 168.92 13.191 169.038 13.6021C169.171 14.0506 169.418 14.4571 169.755 14.7818C170.186 15.2341 171.284 16.047 172.55 15.9837C172.531 15.9078 171.83 15.756 171.477 15.1835C171.214 14.6714 171.144 14.0826 171.278 13.523C171.366 12.9794 171.39 12.4275 171.351 11.8783C171.309 11.4038 171.152 10.9465 170.893 10.546C170.634 10.1454 170.282 9.81352 169.866 9.57896C169.627 9.43696 169.375 9.3163 169.114 9.2184C168.537 8.97304 167.896 8.92196 167.287 9.07291C167.287 9.11086 167.5 9.12351 167.753 9.19626C168.065 9.28552 168.343 9.46492 168.553 9.7118Z" fill="white"/>
<path d="M172.542 13.4313C172.686 13.6852 172.777 13.9651 172.811 14.2545C172.844 14.5439 172.82 14.8372 172.739 15.1171C172.679 15.4113 172.618 15.7054 172.571 15.9995L172.492 16.066C172.427 16.4915 172.427 16.9245 172.492 17.3501C172.559 17.8118 172.746 18.2479 173.034 18.6152C173.396 19.1244 174.369 20.0796 175.632 20.1966C175.632 20.1175 174.95 19.8803 174.68 19.2478C174.494 18.7034 174.506 18.1108 174.715 17.5746C174.883 17.05 174.99 16.5076 175.032 15.9584C175.057 15.4828 174.966 15.0082 174.766 14.5757C174.566 14.1432 174.263 13.7657 173.884 13.4756C173.668 13.3008 173.437 13.1462 173.193 13.0138C172.655 12.6896 172.025 12.5496 171.4 12.6153C171.4 12.6564 171.603 12.6944 171.848 12.8019C172.135 12.9405 172.377 13.1591 172.542 13.4313Z" fill="white"/>
<path d="M175.36 16.9768C175.629 17.1425 175.843 17.3834 175.975 17.6695C176.082 17.9405 176.134 18.2301 176.127 18.5213C176.12 18.8125 176.054 19.0993 175.934 19.3648C175.836 19.6494 175.731 19.9309 175.645 20.2156L175.557 20.2693C175.431 20.6794 175.367 21.1057 175.366 21.5345C175.369 22.002 175.494 22.4607 175.728 22.866C176.016 23.4195 176.848 24.5012 178.082 24.789C178.082 24.7131 177.447 24.3747 177.273 23.7263C177.162 23.1619 177.256 22.5765 177.539 22.0753C177.777 21.5843 177.957 21.0674 178.075 20.535C178.166 20.0678 178.142 19.5856 178.004 19.1298C177.867 18.6741 177.62 18.2587 177.285 17.9193C177.091 17.7162 176.879 17.531 176.651 17.3658C176.162 16.9736 175.559 16.7514 174.932 16.7333C174.948 16.7681 175.135 16.8376 175.36 16.9768Z" fill="white"/>
<path d="M132.469 2.68405C132.761 2.66497 133.053 2.70472 133.329 2.80091C133.605 2.8971 133.858 3.04776 134.074 3.24387C134.315 3.42732 134.553 3.61076 134.798 3.78155L134.823 3.8796C135.175 4.12754 135.564 4.32057 135.974 4.45207C136.422 4.59592 136.9 4.61992 137.361 4.52166H137.383C138.001 4.41728 139.286 3.965 139.943 2.88331C139.873 2.85484 139.356 3.35141 138.674 3.32294C138.1 3.25464 137.57 2.98301 137.18 2.55754C136.777 2.18152 136.332 1.85354 135.854 1.58022C135.436 1.3498 134.968 1.22395 134.491 1.21348C134.014 1.20301 133.541 1.30824 133.113 1.52013C132.862 1.63977 132.621 1.7805 132.393 1.94078C131.865 2.28109 131.463 2.78423 131.248 3.37355C131.289 3.37355 131.41 3.2249 131.613 3.05727C131.856 2.85203 132.153 2.72227 132.469 2.68405Z" fill="white"/>
<path d="M163.558 73.6485C163.361 73.895 163.098 74.0805 162.799 74.1831C162.518 74.2612 162.224 74.2821 161.935 74.2446C161.646 74.2071 161.367 74.112 161.115 73.9648C160.842 73.8352 160.569 73.7055 160.297 73.5885L160.249 73.4967C159.851 73.3307 159.431 73.2241 159.002 73.1805C158.535 73.134 158.064 73.2092 157.635 73.3987C157.055 73.6296 155.887 74.3475 155.469 75.5304C155.545 75.5304 155.951 74.9516 156.614 74.8378C157.189 74.7892 157.763 74.9449 158.235 75.2774C158.706 75.5628 159.21 75.7921 159.735 75.9606C160.192 76.1011 160.675 76.1285 161.145 76.0403C161.614 75.9521 162.055 75.751 162.428 75.4545C162.651 75.2864 162.858 75.0991 163.047 74.8947C163.492 74.4524 163.781 73.8771 163.868 73.2564C163.805 73.2595 163.719 73.4366 163.558 73.6485Z" fill="white"/>
<path d="M172.092 66.9338C171.975 67.226 171.774 67.4777 171.515 67.6581C171.266 67.8103 170.989 67.9111 170.7 67.9546C170.411 67.998 170.117 67.9833 169.834 67.9111C169.536 67.8637 169.238 67.8131 168.943 67.7751L168.873 67.6992C168.444 67.6474 168.01 67.6592 167.585 67.734C167.123 67.8148 166.69 68.0167 166.332 68.3191C165.834 68.7018 164.911 69.7013 164.838 70.9633C164.914 70.9633 165.139 70.2769 165.748 69.986C166.288 69.7393 166.824 69.812 167.426 69.9606C167.959 70.1065 168.508 70.1893 169.06 70.2073C169.537 70.215 170.01 70.1071 170.436 69.8928C170.863 69.6785 171.231 69.3642 171.509 68.977C171.675 68.7549 171.821 68.5189 171.947 68.2717C172.252 67.7243 172.37 67.0924 172.283 66.472C172.204 66.6191 172.14 66.7739 172.092 66.9338Z" fill="white"/>
<path d="M167.385 71.2258C167.117 71.3419 166.829 71.4031 166.537 71.4059C166.245 71.4086 165.955 71.3527 165.685 71.2416C165.396 71.1531 165.111 71.0613 164.822 70.9854L164.765 70.9C164.352 70.789 163.924 70.7389 163.496 70.7514C163.027 70.7701 162.571 70.9108 162.174 71.1594C161.628 71.4757 160.588 72.3296 160.324 73.5695C160.4 73.5695 160.718 72.9369 161.362 72.725C161.924 72.5958 162.515 72.6709 163.027 72.9369C163.536 73.1524 164.068 73.3094 164.613 73.405C165.084 73.4793 165.567 73.4385 166.019 73.2859C166.471 73.1332 166.879 72.8735 167.208 72.5289C167.404 72.3337 167.584 72.1221 167.744 71.8963C168.122 71.3972 168.327 70.7887 168.327 70.1631C168.286 70.1631 168.226 70.356 168.096 70.5869C167.927 70.8651 167.68 71.0873 167.385 71.2258Z" fill="white"/>
<path d="M178.444 58.138C178.41 58.45 178.287 58.7456 178.088 58.9888C177.891 59.2036 177.653 59.3768 177.388 59.4985C177.122 59.6202 176.835 59.6878 176.543 59.6973C176.242 59.7321 175.944 59.7637 175.649 59.8112L175.56 59.7574C175.134 59.8243 174.72 59.9543 174.332 60.1433C173.911 60.3495 173.551 60.6625 173.289 61.051C172.915 61.5539 172.306 62.7684 172.585 64.0019C172.654 63.9703 172.683 63.2586 173.187 62.8127C173.638 62.4268 174.174 62.3478 174.796 62.3256C175.347 62.318 175.895 62.2469 176.429 62.1137C176.891 61.9908 177.315 61.7579 177.666 61.435C178.017 61.1121 178.284 60.7089 178.444 60.2603C178.543 59.9996 178.619 59.7308 178.672 59.4569C178.813 58.8468 178.751 58.2076 178.497 57.6351C178.463 57.8005 178.445 57.969 178.444 58.138Z" fill="white"/>
<path d="M182.692 42.0929C182.666 42.1245 182.768 42.2985 182.85 42.5483C182.946 42.8477 182.954 43.1683 182.872 43.4719C182.779 43.7465 182.631 43.9998 182.439 44.217C182.246 44.4342 182.012 44.611 181.75 44.737C181.489 44.8888 181.229 45.0533 180.979 45.202H180.877C180.519 45.4365 180.198 45.7233 179.926 46.0528C179.621 46.4151 179.42 46.8518 179.342 47.3179V47.34C179.209 47.9505 179.145 49.3105 179.903 50.3226C179.957 50.2656 179.691 49.6015 179.97 48.991C180.248 48.4865 180.698 48.0982 181.239 47.8967C181.739 47.6657 182.211 47.3769 182.644 47.0364C183.015 46.7367 183.308 46.3515 183.497 45.9141C183.686 45.4766 183.766 45 183.729 44.5251C183.713 44.248 183.672 43.9729 183.608 43.7028C183.489 43.0803 183.166 42.5145 182.692 42.0929Z" fill="white"/>
<path d="M182.022 47.4602C182.037 47.6202 182.069 47.7781 182.117 47.9315C182.171 48.2422 182.133 48.5618 182.009 48.8518C181.879 49.1125 181.697 49.3445 181.476 49.5341C181.254 49.7237 180.996 49.867 180.718 49.9557C180.439 50.0727 180.16 50.1866 179.89 50.3099L179.792 50.2815C179.401 50.4656 179.039 50.7041 178.716 50.9899C178.369 51.3053 178.11 51.7053 177.965 52.1507V52.1633C177.746 52.7485 177.495 54.0863 178.104 55.1933C178.165 55.1459 177.993 54.4501 178.355 53.8839C178.702 53.4232 179.202 53.1013 179.766 52.9762C180.294 52.8167 180.802 52.5971 181.28 52.3215C181.689 52.076 182.032 51.735 182.28 51.3278C182.527 50.9206 182.672 50.4595 182.701 49.9841C182.724 49.7074 182.724 49.4291 182.701 49.1523C182.663 48.5302 182.425 47.9367 182.022 47.4602Z" fill="white"/>
<path d="M180.638 53.1628C180.647 53.4774 180.566 53.7879 180.404 54.0579C180.238 54.2978 180.027 54.5022 179.781 54.6592C179.535 54.8162 179.261 54.9225 178.973 54.9719C178.681 55.0479 178.386 55.1206 178.104 55.2092L178.009 55.168C177.596 55.2937 177.203 55.4791 176.844 55.7184C176.457 55.9829 176.145 56.3437 175.94 56.7653C175.642 57.3156 175.208 58.6029 175.655 59.7858C175.722 59.7478 175.655 59.0362 176.086 58.5206C176.497 58.1295 177.033 57.8944 177.599 57.8564C178.143 57.7707 178.675 57.6232 179.185 57.4168C179.625 57.2305 180.012 56.9405 180.315 56.572C180.617 56.2034 180.825 55.7672 180.921 55.3009C180.982 55.0295 181.021 54.7533 181.035 54.4754C181.088 53.8513 180.938 53.2268 180.607 52.6947C180.601 52.8514 180.611 53.0083 180.638 53.1628Z" fill="white"/>
<path d="M175.578 62.7588C175.5 63.063 175.336 63.3384 175.106 63.5527C174.88 63.738 174.62 63.8766 174.34 63.9602C174.06 64.0439 173.766 64.0709 173.475 64.0398C173.158 64.0398 172.872 64.0208 172.574 64.0398L172.495 63.9734C172.064 63.9813 171.636 64.0527 171.226 64.1853C170.779 64.3301 170.378 64.591 170.065 64.9412C169.624 65.3872 168.85 66.5226 168.955 67.7656C169.028 67.7466 169.155 67.0413 169.719 66.6713C170.217 66.355 170.76 66.355 171.378 66.4151C171.926 66.4836 172.479 66.4889 173.028 66.4309C173.502 66.373 173.955 66.2007 174.347 65.929C174.74 65.6573 175.06 65.2944 175.28 64.8716C175.414 64.629 175.527 64.375 175.616 64.1125C175.841 63.5279 175.869 62.8862 175.696 62.2844C175.639 62.4376 175.599 62.5968 175.578 62.7588Z" fill="white"/>
<path d="M131.064 76.8904C130.821 76.7327 130.611 76.528 130.448 76.2886C130.284 76.0491 130.17 75.7795 130.113 75.4956C130.024 75.2078 129.941 74.9168 129.843 74.6385L129.884 74.5404C129.743 74.1335 129.542 73.7498 129.288 73.4018C129.012 73.0235 128.641 72.7246 128.213 72.5352C127.651 72.2569 126.344 71.8647 125.174 72.3549C125.218 72.4182 125.926 72.3233 126.443 72.7408C126.864 73.134 127.132 73.6626 127.201 74.2336C127.303 74.778 127.468 75.3087 127.692 75.8151C127.895 76.2461 128.199 76.6218 128.58 76.9099C128.96 77.198 129.404 77.3899 129.875 77.4692C130.149 77.5219 130.427 77.5505 130.706 77.5546C131.332 77.588 131.953 77.417 132.473 77.0675C132.311 77.0658 132.149 77.0806 131.991 77.1118C131.667 77.1312 131.344 77.0541 131.064 76.8904Z" fill="white"/>
<path d="M136.339 78.3105C136.074 78.1901 135.835 78.0178 135.637 77.8038C135.439 77.5897 135.287 77.3383 135.188 77.0644C135.061 76.7892 134.937 76.514 134.801 76.2515L134.826 76.1503C134.631 75.7666 134.38 75.4138 134.081 75.1034C133.752 74.7689 133.343 74.5248 132.891 74.3949H132.872C132.279 74.1957 130.928 73.9932 129.84 74.6385C129.891 74.6954 130.579 74.5025 131.163 74.844C131.667 75.1603 131.908 75.6348 132.114 76.2167C132.291 76.7381 132.528 77.2371 132.822 77.7032C133.082 78.1029 133.435 78.4334 133.852 78.6665C134.269 78.8996 134.736 79.0281 135.213 79.0411C135.492 79.0551 135.771 79.0445 136.048 79.0095C136.673 78.9549 137.264 78.6996 137.732 78.282C137.7 78.2536 137.519 78.3358 137.259 78.3927C136.951 78.4539 136.632 78.4254 136.339 78.3105Z" fill="white"/>
<path d="M126.91 75.0781C126.596 75.0588 126.294 74.9489 126.041 74.7618C125.819 74.5733 125.637 74.3419 125.506 74.0816C125.375 73.8213 125.298 73.5374 125.28 73.2468C125.235 72.9495 125.191 72.6522 125.134 72.3581L125.188 72.2695C125.105 71.847 124.961 71.4388 124.76 71.0582C124.535 70.6456 124.207 70.298 123.808 70.0492C123.291 69.695 122.051 69.1288 120.826 69.4515C120.858 69.5179 121.575 69.5242 122.041 70.0113C122.403 70.4583 122.594 71.0186 122.58 71.5927C122.607 72.1421 122.698 72.6866 122.85 73.2152C122.989 73.6706 123.238 74.0854 123.574 74.4237C123.91 74.762 124.323 75.0138 124.779 75.1572C125.043 75.2477 125.315 75.3143 125.591 75.3565C126.206 75.4767 126.844 75.3945 127.408 75.1224C127.244 75.0897 127.077 75.0749 126.91 75.0781Z" fill="white"/>
<path d="M158.669 76.049C158.441 76.2678 158.155 76.4161 157.844 76.476C157.554 76.514 157.26 76.4939 156.979 76.4168C156.697 76.3396 156.434 76.2071 156.204 76.0269C155.954 75.8593 155.703 75.6948 155.446 75.5398L155.414 75.4418C155.044 75.2201 154.644 75.0549 154.225 74.9515C153.769 74.8386 153.292 74.8473 152.842 74.9768H152.819C152.21 75.1223 150.957 75.6632 150.377 76.786C150.45 76.8081 150.932 76.2799 151.605 76.2609C152.181 76.2912 152.729 76.5243 153.149 76.9188C153.576 77.2673 154.042 77.5645 154.539 77.8044C154.971 78.006 155.447 78.0996 155.924 78.077C156.401 78.0544 156.865 77.9163 157.276 77.6747C157.52 77.5404 157.751 77.3848 157.968 77.2098C158.47 76.8324 158.836 76.3032 159.011 75.7011C158.97 75.7011 158.859 75.8656 158.669 76.049Z" fill="white"/>
<path d="M121.364 71.9374C121.171 71.7191 121.024 71.4645 120.931 71.1886C120.837 70.9127 120.801 70.621 120.822 70.3307C120.822 70.0302 120.822 69.7297 120.803 69.4324L120.866 69.3502C120.844 68.9181 120.757 68.4918 120.61 68.0851C120.449 67.6469 120.175 67.2586 119.816 66.9591L118.36 68.4108C118.317 68.9222 118.332 69.4369 118.405 69.9448C118.481 70.415 118.669 70.8599 118.955 71.2416C119.24 71.6233 119.614 71.9304 120.045 72.1367C120.294 72.2635 120.552 72.3693 120.819 72.4529C121.413 72.6571 122.057 72.6638 122.656 72.4719C122.501 72.4243 122.341 72.3936 122.18 72.3802C121.871 72.3143 121.588 72.1605 121.364 71.9374Z" fill="white"/>
<path d="M152.619 78.0575C152.327 78.0554 152.038 77.995 151.769 77.8798C151.501 77.7647 151.258 77.5971 151.055 77.387C150.83 77.1878 150.605 76.9853 150.373 76.7987V76.6975C150.037 76.4273 149.663 76.2078 149.263 76.046C148.827 75.8715 148.352 75.8137 147.886 75.8784H147.864C147.23 75.9384 145.926 76.299 145.193 77.3301C145.263 77.3649 145.828 76.9063 146.484 76.9822C147.051 77.0921 147.561 77.3992 147.921 77.8488C148.301 78.2541 148.727 78.6139 149.19 78.921C149.59 79.1803 150.048 79.3385 150.523 79.382C150.999 79.4256 151.477 79.3531 151.918 79.1709C152.179 79.0712 152.431 78.9484 152.67 78.804C153.219 78.5007 153.654 78.0279 153.91 77.4566C153.872 77.4566 153.739 77.5926 153.526 77.7476C153.263 77.9401 152.946 78.0482 152.619 78.0575Z" fill="white"/>
<path d="M147.22 78.9019C146.931 78.8594 146.653 78.759 146.404 78.6068C146.155 78.4547 145.939 78.2538 145.77 78.0163C145.573 77.7886 145.377 77.5609 145.174 77.3427V77.2383C144.879 76.9243 144.54 76.6547 144.168 76.4381C143.759 76.2058 143.297 76.0837 142.826 76.0839H142.804C142.17 76.0554 140.825 76.2325 139.949 77.1497C140.016 77.194 140.625 76.8176 141.278 76.9853C141.823 77.1733 142.284 77.5475 142.579 78.0416C142.893 78.4938 143.259 78.9078 143.67 79.2751C144.03 79.5888 144.461 79.8102 144.925 79.9205C145.39 80.0307 145.875 80.0263 146.338 79.9077C146.609 79.8434 146.874 79.7566 147.131 79.6484C147.718 79.4255 148.217 79.0166 148.549 78.4844C148.511 78.4844 148.362 78.5951 148.127 78.7217C147.848 78.8668 147.533 78.9294 147.22 78.9019Z" fill="white"/>
<path d="M141.755 78.9842C141.474 78.9025 141.213 78.7652 140.986 78.5804C140.76 78.3956 140.574 78.1672 140.438 77.9088C140.276 77.6558 140.121 77.4028 139.943 77.1592V77.0549C139.696 76.702 139.396 76.3885 139.055 76.125C138.687 75.8382 138.249 75.6527 137.786 75.5873H137.764C137.149 75.4735 135.781 75.4608 134.795 76.2515C134.852 76.299 135.509 76.0111 136.13 76.2705C136.676 76.5045 136.98 76.9505 137.272 77.4977C137.52 77.9899 137.825 78.4507 138.183 78.8703C138.496 79.23 138.892 79.5083 139.337 79.6813C139.781 79.8543 140.262 79.9168 140.736 79.8635C141.014 79.8384 141.289 79.7897 141.558 79.718C142.169 79.578 142.718 79.2452 143.125 78.7691C143.09 78.747 142.922 78.8514 142.671 78.9431C142.376 79.0451 142.058 79.0594 141.755 78.9842Z" fill="white"/>
</svg>
