<svg width="207" height="80" viewBox="0 0 207 80" fill="none" xmlns="http://www.w3.org/2000/svg">
<path d="M110.313 23.6758C106.685 12.1777 92.6557 5.52616 74.7979 5.16963C69.9973 2.46257 64.6885 0.774223 59.204 0.210352C53.7195 -0.35352 48.1774 0.219224 42.9249 1.89273C37.6724 3.56623 32.8227 6.30444 28.6795 9.9358C24.5364 13.5672 21.189 18.0135 18.8471 22.9962C4.7506 33.447 -2.68271 46.7166 0.888851 58.0811C4.68364 70.1251 19.8628 76.8435 38.9148 76.6207C47.7639 80.501 57.7193 81.0595 66.9482 78.1933C76.177 75.3271 84.0579 69.2293 89.1399 61.0224C105.301 50.2485 114.152 35.8759 110.313 23.6758Z" fill="white"/>
<path d="M90.1663 35.5305C91.0018 42.3973 89.7792 49.3572 86.6533 55.5305C83.5273 61.7039 78.6382 66.8137 72.6039 70.2141C66.5696 73.6144 59.6609 75.1528 52.7511 74.6347C45.8412 74.1166 39.2402 71.5653 33.7824 67.3032C28.3247 63.0412 24.2551 57.2597 22.088 50.6894C19.9209 44.1192 19.7536 37.0551 21.6072 30.3899C23.4609 23.7248 27.2522 17.7577 32.5021 13.243C37.752 8.72821 44.2248 5.86834 51.1024 5.02483C55.6742 4.46559 60.3116 4.81119 64.7495 6.04185C69.1875 7.2725 73.3389 9.36411 76.9668 12.1971C80.5946 15.0301 83.6276 18.549 85.8924 22.5527C88.1573 26.5564 89.6096 30.9663 90.1663 35.5305Z" fill="url(#paint0_radial)"/>
<path style="mix-blend-mode:multiply" opacity="0.26" d="M32.3858 51.3181C31.1134 40.8896 42.3303 43.3407 55.6121 41.7252C68.8938 40.1097 79.1955 35.0402 80.4568 45.4688C81.718 55.8973 71.9966 65.6573 58.726 67.2617C45.4554 68.8661 33.6581 61.7355 32.3858 51.3181Z" fill="url(#paint1_linear)"/>
<path style="mix-blend-mode:multiply" d="M78.8043 22.038C74.764 17.5034 64.7413 12.5565 57.8214 18.0493C56.5995 18.9592 55.6313 20.1662 55.009 21.5554C54.3868 22.9446 54.1312 24.4697 54.2666 25.9854C54.402 27.5011 54.9238 28.957 55.7825 30.2144C56.6412 31.4718 57.808 32.4888 59.1719 33.1685C67.0405 36.8229 66.8619 42.0817 61.8952 42.9954C55.1985 44.2432 50.656 36.7672 45.3321 40.4105C41.1802 43.2516 48.0554 49.3238 54.1717 46.8392C59.7523 44.6109 60.1764 44.5106 67.8329 47.2515C75.4895 49.9923 81.5835 49.736 84.5746 43.675C88.1908 36.5555 84.1059 27.9988 78.8043 22.038ZM62.1742 41.8366C63.6587 41.2907 64.5739 40.0763 64.2279 39.1292C63.8819 38.1822 62.3863 37.8702 60.8795 38.4162C59.3728 38.9621 58.4687 40.1765 58.8259 41.1236C59.1831 42.0706 60.6786 42.3826 62.1742 41.8366ZM56.337 11.4646C57.308 11.5872 58.1562 11.1973 58.2344 10.5845C58.3125 9.97168 57.587 9.37004 56.6272 9.24748C55.6673 9.12492 54.8079 9.51487 54.7298 10.1277C54.6516 10.7404 55.366 11.3421 56.337 11.4646ZM38.5908 42.0038C40.7449 43.2628 43.591 42.0038 43.6356 40.3548C43.6802 38.7058 41.7382 37.2463 39.2939 37.1794C36.8496 37.1126 34.8295 38.4273 34.8295 40.1208C34.8295 41.8143 36.1576 40.5999 38.5908 42.0038ZM49.618 19.9657C50.0756 15.2305 54.3949 14.9743 54.2163 12.1666C54.0378 9.35889 49.2385 8.8241 44.7182 10.4508C40.5886 11.9772 37.7648 14.7069 37.843 17.4811C37.9657 23.6313 49.1269 25.2245 49.618 19.9657ZM57.4308 39.3409C58.1339 39.0958 58.5469 38.5387 58.4353 38.0931C58.3236 37.6474 57.5759 37.4803 56.8727 37.7254C56.1695 37.9705 55.7566 38.5164 55.8682 38.9732C55.9798 39.43 56.7388 39.586 57.4531 39.3409H57.4308ZM48.3009 61.8692C42.486 59.2398 41.6824 56.1759 42.6199 53.7024C43.803 50.5271 45.8343 49.892 44.9973 48.4213C43.9369 46.5718 40.8788 49.8697 38.6912 47.8531C30.1529 36.7895 21.0455 44.1764 23.4116 53.8361C25.7607 59.1509 29.3969 63.7991 33.993 67.3622C38.5891 70.9253 44.0008 73.2914 49.7407 74.2475C39.5171 70.7825 37.843 57.4126 50.7229 66.1921C64.0047 75.2391 67.1967 70.6488 66.9847 69.0555C66.2927 64.0195 56.7722 65.7131 48.3233 61.8692H48.3009Z" fill="url(#paint2_radial)"/>
<path opacity="0.26" d="M78.2238 24.2107C79.4962 34.6281 68.2793 32.1881 54.9975 33.7925C41.7158 35.3969 31.4252 40.4775 30.1528 30.0489C28.8805 19.6204 38.613 9.8715 51.8836 8.25597C65.1541 6.64044 76.9515 13.7822 78.2238 24.2107Z" fill="url(#paint3_linear)"/>
<path d="M72.1075 53.4796C66.6944 51.073 49.9638 47.1066 39.7402 60.4765C46.4369 65.4234 55.8234 63.4402 59.2387 61.8915C64.8193 59.3735 70.1655 56.6104 74.563 57.6354C78.7037 58.8387 76.6166 62.56 76.6166 62.56C77.3966 62.2867 78.0985 61.8287 78.6622 61.2252C79.226 60.6217 79.6347 59.8907 79.8533 59.095C81.7173 58.705 82.9115 58.5267 83.7151 57.3234C80.0319 57.1563 76.8398 55.5631 72.1075 53.4796Z" fill="url(#paint4_linear)"/>
<path d="M50.3111 58.4932C50.3489 58.7494 50.3355 59.0106 50.2717 59.2616C50.2079 59.5126 50.0949 59.7485 49.9392 59.9557C49.7836 60.1629 49.5883 60.3372 49.3648 60.4687C49.1413 60.6001 48.8939 60.6861 48.6369 60.7215C48.3731 60.774 48.1013 60.7722 47.8383 60.7161C47.5752 60.66 47.3264 60.5508 47.1071 60.3954C46.8877 60.2399 46.7025 60.0413 46.5628 59.8119C46.4231 59.5824 46.3318 59.3269 46.2945 59.0609C46.2572 58.795 46.2747 58.5243 46.3459 58.2653C46.4171 58.0064 46.5406 57.7646 46.7087 57.555C46.8768 57.3454 47.0861 57.1723 47.3236 57.0462C47.5611 56.9202 47.8219 56.8438 48.0901 56.822C48.3459 56.7858 48.6063 56.8004 48.8565 56.8649C49.1066 56.9293 49.3416 57.0424 49.5479 57.1976C49.7542 57.3529 49.9278 57.5472 50.0588 57.7695C50.1897 57.9919 50.2755 58.2378 50.3111 58.4932Z" fill="white"/>
<path d="M49.3735 58.6492C49.3951 58.9076 49.3167 59.1645 49.1545 59.367C48.9922 59.5695 48.7584 59.7022 48.5011 59.7379C48.2438 59.7735 47.9826 59.7094 47.7712 59.5587C47.5598 59.4081 47.4143 59.1823 47.3645 58.9278C47.3381 58.7925 47.3395 58.6533 47.3688 58.5186C47.3981 58.3839 47.4546 58.2566 47.5348 58.1445C47.615 58.0323 47.7173 57.9377 47.8354 57.8663C47.9535 57.7949 48.0849 57.7483 48.2217 57.7294C48.3584 57.7104 48.4976 57.7195 48.6307 57.756C48.7638 57.7926 48.888 57.8558 48.9958 57.9419C49.1036 58.028 49.1927 58.1351 49.2577 58.2567C49.3226 58.3783 49.362 58.5119 49.3735 58.6492Z" fill="#303030"/>
<path d="M71.3152 61.7912C69.083 61.0002 62.1854 59.9751 58.5469 65.7019C61.4153 67.4623 65.1096 66.3481 66.4378 65.6016C68.5919 64.4095 70.6567 63.1171 72.4648 63.3733C72.6778 63.3959 72.8819 63.4708 73.0588 63.5915C73.2356 63.7121 73.3797 63.8747 73.4782 64.0646C73.5766 64.2545 73.6263 64.4659 73.6228 64.6797C73.6193 64.8935 73.5628 65.1031 73.4581 65.2897C73.7624 65.1514 74.0293 64.9429 74.2369 64.6814C74.4445 64.4198 74.5869 64.1128 74.6524 63.7856C75.3779 63.5627 75.8578 63.4513 76.148 62.9388C74.48 62.8566 72.8416 62.4676 71.3152 61.7912Z" fill="url(#paint5_linear)"/>
<path d="M62.7093 64.5432C62.7562 64.747 62.7203 64.9611 62.6094 65.1386C62.4985 65.316 62.3218 65.4425 62.1178 65.4902C61.9651 65.5259 61.8051 65.5156 61.6583 65.4605C61.5114 65.4054 61.3842 65.3081 61.2928 65.1808C61.2014 65.0534 61.15 64.9019 61.1449 64.7454C61.1399 64.5889 61.1815 64.4343 61.2645 64.3014C61.3475 64.1685 61.4682 64.0632 61.6112 63.9989C61.7543 63.9345 61.9132 63.914 62.0679 63.9398C62.2227 63.9657 62.3662 64.0368 62.4804 64.1443C62.5946 64.2517 62.6743 64.3905 62.7093 64.5432Z" fill="white"/>
<path d="M62.3414 64.6323C62.3651 64.7401 62.3449 64.853 62.2852 64.9459C62.2256 65.0389 62.1314 65.1045 62.0233 65.1281C61.9153 65.1517 61.8022 65.1315 61.7091 65.072C61.616 65.0124 61.5503 64.9184 61.5266 64.8106C61.5066 64.7029 61.5292 64.5917 61.5895 64.5003C61.6499 64.4089 61.7433 64.3444 61.8503 64.3203C61.9568 64.2971 62.0683 64.3168 62.1603 64.3752C62.2523 64.4337 62.3174 64.5261 62.3414 64.6323Z" fill="#303030"/>
<path d="M36.0462 54.6606C33.7582 53.9809 26.7937 53.3124 23.4453 59.2286C26.4142 60.8441 30.075 59.5517 31.3586 58.7384C33.4457 57.4236 35.4658 56.031 37.2851 56.1981C37.4998 56.2085 37.7085 56.2718 37.8928 56.3821C38.0771 56.4924 38.2313 56.6464 38.3417 56.8304C38.4521 57.0144 38.5153 57.2229 38.5257 57.4371C38.5361 57.6514 38.4933 57.8649 38.4012 58.0587C38.7009 57.9126 38.9596 57.6947 39.1543 57.4245C39.3491 57.1542 39.4738 56.8401 39.5173 56.51C40.2428 56.2426 40.7227 56.0978 40.9683 55.5853C39.2839 55.5887 37.6141 55.275 36.0462 54.6606Z" fill="url(#paint6_linear)"/>
<path d="M27.5639 57.8694C27.5928 57.9696 27.6016 58.0746 27.5898 58.1782C27.5779 58.2818 27.5456 58.3821 27.4948 58.4732C27.4439 58.5643 27.3756 58.6445 27.2936 58.7092C27.2116 58.7738 27.1176 58.8216 27.017 58.8499C26.8114 58.905 26.5922 58.8776 26.4066 58.7735C26.2209 58.6693 26.0835 58.4968 26.0237 58.2928C25.9688 58.0889 25.9965 57.8717 26.101 57.6882C26.2055 57.5046 26.3782 57.3696 26.5817 57.3123C26.7859 57.2575 27.0036 57.2852 27.1874 57.3895C27.3713 57.4938 27.5065 57.6662 27.5639 57.8694Z" fill="white"/>
<path d="M27.1948 57.9697C27.2099 58.0216 27.2143 58.076 27.2078 58.1297C27.2012 58.1834 27.1839 58.2353 27.1568 58.2821C27.1297 58.329 27.0934 58.3698 27.05 58.4023C27.0067 58.4348 26.9572 58.4581 26.9046 58.471C26.8533 58.4879 26.7991 58.4941 26.7453 58.489C26.6916 58.4839 26.6395 58.4678 26.5923 58.4416C26.5451 58.4155 26.5039 58.3798 26.4712 58.3369C26.4385 58.294 26.415 58.2449 26.4023 58.1925C26.3746 58.0862 26.3894 57.9733 26.4436 57.8776C26.4977 57.782 26.587 57.7111 26.6925 57.68C26.7445 57.6649 26.7991 57.6605 26.8529 57.667C26.9067 57.6735 26.9586 57.6908 27.0055 57.7179C27.0524 57.7449 27.0934 57.7812 27.1259 57.8244C27.1584 57.8677 27.1819 57.9171 27.1948 57.9697Z" fill="#303030"/>
<path d="M32.944 71.1055C31.6382 69.9357 27.263 67.3397 23.2227 70.2031C23.8782 70.9613 24.7079 71.5499 25.6408 71.9185C26.5737 72.2871 27.5822 72.4249 28.58 72.32C30.3658 72.1083 32.1292 71.8186 33.2677 72.4982C33.4054 72.5723 33.5226 72.6793 33.6088 72.8096C33.6951 72.9399 33.7478 73.0894 33.7621 73.2449C33.7765 73.4004 33.7521 73.557 33.6912 73.7009C33.6302 73.8447 33.5346 73.9712 33.4128 74.0692C33.6577 74.0599 33.8969 73.9923 34.1104 73.8722C34.324 73.752 34.5057 73.5828 34.6405 73.3784C35.1874 73.3784 35.5445 73.4787 35.8682 73.2113C34.7715 72.6958 33.7801 71.9818 32.944 71.1055Z" fill="url(#paint7_linear)"/>
<path d="M26.3595 70.5819C26.3272 70.7326 26.2391 70.8656 26.113 70.9544C25.9868 71.0432 25.8317 71.0812 25.6787 71.061C25.5631 71.0415 25.4559 70.9882 25.3708 70.9079C25.2856 70.8275 25.2262 70.7237 25.2002 70.6096C25.1743 70.4955 25.1829 70.3762 25.2249 70.267C25.2669 70.1578 25.3405 70.0635 25.4363 69.9961C25.5321 69.9287 25.6458 69.8911 25.763 69.8884C25.8801 69.8856 25.9955 69.9176 26.0944 69.9804C26.1933 70.0431 26.2713 70.1338 26.3185 70.2409C26.3657 70.348 26.38 70.4667 26.3595 70.5819Z" fill="white"/>
<path d="M26.0794 70.5263C26.0658 70.6044 26.0218 70.674 25.9571 70.7199C25.8925 70.7658 25.8123 70.7844 25.734 70.7714C25.6572 70.7578 25.5884 70.7159 25.5409 70.654C25.4935 70.5922 25.471 70.5148 25.4777 70.4372C25.4844 70.3973 25.499 70.3593 25.5207 70.3252C25.5424 70.2912 25.5707 70.2618 25.604 70.239C25.6373 70.2161 25.6748 70.2002 25.7144 70.1921C25.7539 70.184 25.7947 70.184 25.8343 70.192C25.8732 70.1959 25.9108 70.2079 25.9448 70.2273C25.9788 70.2467 26.0082 70.273 26.0314 70.3045C26.0545 70.336 26.0707 70.3721 26.079 70.4103C26.0873 70.4485 26.0874 70.488 26.0794 70.5263Z" fill="#303030"/>
<path d="M102.187 18.4727C104.542 21.3361 107.522 27.1966 102.388 32.1546C101.016 31.43 99.896 30.3078 99.1749 28.9357C98.4537 27.5635 98.1654 26.0057 98.3479 24.4669C98.5823 20.7233 98.9283 18.3502 97.4885 17.0466C95.7808 15.4534 92.0977 15.8099 92.0977 15.8099C92.5733 15.3016 93.1676 14.9188 93.8276 14.6957C93.1583 14.2074 92.6119 13.5704 92.2316 12.8351C96.0799 13.573 99.5783 15.554 102.187 18.4727Z" fill="url(#paint8_linear)"/>
<path d="M101.864 26.7176C101.617 26.7524 101.391 26.878 101.232 27.0699C101.072 27.2618 100.99 27.5061 101.001 27.7552C101.012 28.0044 101.116 28.2404 101.292 28.4173C101.468 28.5942 101.704 28.6992 101.953 28.7119C102.217 28.6947 102.463 28.5757 102.64 28.3802C102.817 28.1847 102.911 27.928 102.902 27.6646C102.898 27.5339 102.867 27.4053 102.813 27.2865C102.758 27.1676 102.68 27.0609 102.583 26.9727C102.486 26.8844 102.373 26.8164 102.249 26.7726C102.126 26.7288 101.995 26.7101 101.864 26.7176Z" fill="white"/>
<path d="M101.875 27.1966C101.75 27.2204 101.639 27.2885 101.561 27.3882C101.482 27.4879 101.443 27.6125 101.45 27.739C101.457 27.8654 101.509 27.985 101.598 28.0758C101.686 28.1666 101.804 28.2223 101.931 28.2327C102.068 28.2241 102.196 28.1621 102.288 28.06C102.38 27.9579 102.428 27.8239 102.422 27.6868C102.413 27.5498 102.351 27.4218 102.249 27.3301C102.147 27.2384 102.012 27.1905 101.875 27.1966Z" fill="#303030"/>
<path d="M5.00764 51.8083C5.47933 49.22 6.76844 46.8504 8.68635 45.0461C10.6043 43.2418 13.0503 42.0976 15.6665 41.7809C15.9121 45.4242 15.1754 47.6414 12.7869 49.9143C10.6217 52.02 7.20639 52.967 7.10594 55.3402C6.82691 57.9473 10.6328 60.3205 10.6328 60.3205C10.2561 60.5093 9.84372 60.6169 9.42258 60.6361C9.00144 60.6553 8.58099 60.5857 8.18857 60.4319C8.34482 61.2007 8.60151 61.7021 8.4341 62.2369C5.26433 59.5072 4.48306 54.382 5.00764 51.8083Z" fill="url(#paint9_linear)"/>
<path d="M12.2063 45.881C12.2928 45.9714 12.3967 46.0433 12.5118 46.0924C12.6269 46.1415 12.7508 46.1668 12.8759 46.1668C13.0011 46.1668 13.125 46.1415 13.2401 46.0924C13.3552 46.0433 13.4591 45.9714 13.5456 45.881C13.7221 45.6897 13.82 45.4392 13.82 45.1791C13.82 44.9191 13.7221 44.6685 13.5456 44.4772C13.4591 44.3869 13.3552 44.315 13.2401 44.2659C13.125 44.2167 13.0011 44.1914 12.8759 44.1914C12.7508 44.1914 12.6269 44.2167 12.5118 44.2659C12.3967 44.315 12.2928 44.3869 12.2063 44.4772C12.0273 44.6673 11.9277 44.9183 11.9277 45.1791C11.9277 45.4399 12.0273 45.6909 12.2063 45.881Z" fill="white"/>
<path d="M12.5308 45.5357C12.6241 45.6242 12.748 45.6736 12.8768 45.6736C13.0055 45.6736 13.1294 45.6242 13.2228 45.5357C13.3155 45.4401 13.3673 45.3122 13.3673 45.1792C13.3673 45.0461 13.3155 44.9182 13.2228 44.8226C13.1788 44.7728 13.1247 44.7329 13.064 44.7056C13.0034 44.6783 12.9377 44.6642 12.8712 44.6642C12.8047 44.6642 12.7389 44.6783 12.6783 44.7056C12.6177 44.7329 12.5636 44.7728 12.5196 44.8226C12.4333 44.922 12.3867 45.0497 12.3887 45.1813C12.3908 45.3128 12.4414 45.439 12.5308 45.5357Z" fill="#303030"/>
<path d="M77.6209 45.7808C75.9467 45.2906 70.9242 44.8003 68.4688 49.1233C69.3846 49.5311 70.3857 49.7116 71.3866 49.6495C72.3875 49.5874 73.3585 49.2846 74.2167 48.7668C75.7346 47.8086 77.1856 46.7947 78.5138 46.9172C78.6691 46.9272 78.8196 46.9752 78.952 47.0569C79.0845 47.1387 79.1947 47.2517 79.273 47.386C79.3513 47.5203 79.3953 47.6718 79.4011 47.8271C79.4069 47.9824 79.3743 48.1368 79.3062 48.2765C79.5203 48.1693 79.7051 48.012 79.8451 47.8179C79.985 47.6239 80.0758 47.399 80.1098 47.1624C80.6456 46.973 80.9915 46.8727 81.1701 46.4939C79.9533 46.4745 78.7504 46.2328 77.6209 45.7808Z" fill="url(#paint10_linear)"/>
<path d="M71.4496 48.1093C71.4807 48.2197 71.4783 48.3368 71.4428 48.4458C71.4072 48.5549 71.34 48.6509 71.2497 48.7218C71.1594 48.7927 71.0501 48.8352 70.9356 48.844C70.8211 48.8528 70.7065 48.8276 70.6064 48.7713C70.5063 48.7151 70.4251 48.6305 70.3732 48.5283C70.3213 48.426 70.301 48.3106 70.3148 48.1968C70.3285 48.0829 70.3759 47.9758 70.4507 47.8888C70.5256 47.8018 70.6246 47.739 70.7353 47.7082C70.8833 47.6671 71.0416 47.6862 71.1755 47.7614C71.3094 47.8366 71.4079 47.9617 71.4496 48.1093Z" fill="white"/>
<path d="M71.192 48.1873C71.2102 48.2626 71.1997 48.3419 71.1626 48.4098C71.1255 48.4778 71.0645 48.5295 70.9915 48.555C70.9527 48.5668 70.9119 48.5707 70.8716 48.5664C70.8313 48.5621 70.7923 48.5496 70.7569 48.5299C70.7216 48.5101 70.6906 48.4834 70.6658 48.4513C70.641 48.4193 70.6229 48.3825 70.6126 48.3433C70.599 48.3043 70.5935 48.2628 70.5965 48.2215C70.5996 48.1803 70.6111 48.1401 70.6304 48.1035C70.6497 48.0669 70.6764 48.0347 70.7087 48.0088C70.7411 47.983 70.7784 47.9641 70.8183 47.9533C70.8583 47.9426 70.9 47.9402 70.941 47.9463C70.9819 47.9524 71.0211 47.9669 71.0562 47.9889C71.0913 48.0108 71.1214 48.0398 71.1448 48.0739C71.1682 48.1081 71.1842 48.1467 71.192 48.1873Z" fill="#303030"/>
<path d="M97.8688 33.2242C97.813 34.706 96.842 38.9064 92.478 39.6195C92.3904 38.7657 92.5182 37.9035 92.8496 37.1116C93.181 36.3196 93.7055 35.6229 94.3754 35.0849C95.6143 34.149 96.8978 33.2688 97.1433 32.1658C97.3889 31.0628 96.2058 31.1296 96.2058 31.1296C96.3661 30.9874 96.5579 30.885 96.7655 30.8308C96.973 30.7766 97.1904 30.7721 97.4 30.8176C97.7237 30.4388 97.8911 30.2048 98.2818 30.1603C97.9324 31.1419 97.7918 32.1854 97.8688 33.2242Z" fill="url(#paint11_linear)"/>
<path d="M94.1617 37.4802C94.1088 37.4347 94.0469 37.4008 93.9801 37.3806C93.9133 37.3604 93.843 37.3543 93.7737 37.3627C93.7044 37.3711 93.6376 37.3938 93.5776 37.4294C93.5176 37.465 93.4657 37.5127 93.4252 37.5695C93.3847 37.6262 93.3565 37.6908 93.3424 37.7591C93.3283 37.8273 93.3286 37.8977 93.3433 37.9659C93.358 38.034 93.3867 38.0983 93.4277 38.1547C93.4687 38.2111 93.521 38.2584 93.5813 38.2935C93.6941 38.3661 93.8301 38.3938 93.9624 38.3711C94.0946 38.3484 94.2136 38.277 94.2956 38.1709C94.3348 38.1177 94.3625 38.0569 94.3771 37.9924C94.3916 37.928 94.3926 37.8612 94.38 37.7963C94.3674 37.7314 94.3415 37.6699 94.304 37.6155C94.2664 37.561 94.218 37.515 94.1617 37.4802Z" fill="white"/>
<path d="M94.0281 37.692C93.9698 37.6511 93.898 37.6341 93.8276 37.6444C93.7571 37.6548 93.6933 37.6918 93.6493 37.7477C93.6287 37.7749 93.6139 37.8062 93.6061 37.8394C93.5983 37.8727 93.5975 37.9072 93.6038 37.9408C93.6101 37.9743 93.6233 38.0062 93.6427 38.0344C93.662 38.0625 93.687 38.0863 93.7161 38.1042C93.7744 38.1451 93.8461 38.1621 93.9166 38.1518C93.987 38.1414 94.0509 38.1045 94.0949 38.0485C94.114 38.0207 94.1273 37.9895 94.1343 37.9565C94.1413 37.9235 94.1416 37.8895 94.1354 37.8564C94.1292 37.8233 94.1165 37.7917 94.0981 37.7635C94.0797 37.7353 94.0559 37.711 94.0281 37.692Z" fill="#303030"/>
<path d="M92.0866 17.0243C93.1743 16.7932 94.3085 16.94 95.3011 17.4406C96.2938 17.9411 97.0852 18.7652 97.5444 19.7763C96.9511 19.9859 96.3142 20.0417 95.6934 19.9384C95.0726 19.8351 94.4883 19.5761 93.9951 19.1858C93.1246 18.4727 92.2763 17.7039 91.4504 17.7151C90.6245 17.7262 90.8812 18.5507 90.8812 18.5507C90.7498 18.4649 90.6421 18.3474 90.568 18.2092C90.4938 18.071 90.4557 17.9164 90.4571 17.7597C90.1334 17.5925 89.9325 17.5034 89.832 17.2471C90.5909 17.3166 91.3561 17.241 92.0866 17.0243Z" fill="url(#paint12_linear)"/>
<path d="M95.7474 18.9406C95.7264 18.9857 95.7147 19.0346 95.7131 19.0844C95.7115 19.1341 95.72 19.1836 95.7381 19.23C95.7562 19.2764 95.7836 19.3186 95.8185 19.354C95.8534 19.3895 95.8951 19.4175 95.9411 19.4364C95.9872 19.4553 96.0366 19.4646 96.0863 19.4638C96.1361 19.463 96.1852 19.4522 96.2306 19.4319C96.2761 19.4115 96.3169 19.3822 96.3507 19.3457C96.3844 19.3091 96.4104 19.2661 96.4271 19.2192C96.4637 19.1261 96.4619 19.0223 96.4223 18.9304C96.3826 18.8386 96.3083 18.7661 96.2154 18.7289C96.171 18.7095 96.1231 18.6996 96.0747 18.6998C96.0262 18.7001 95.9784 18.7106 95.9343 18.7305C95.8901 18.7505 95.8507 18.7795 95.8185 18.8157C95.7863 18.8519 95.7621 18.8945 95.7474 18.9406Z" fill="white"/>
<path d="M95.9151 18.9964C95.9039 19.0205 95.8976 19.0466 95.8966 19.0731C95.8956 19.0997 95.8999 19.1262 95.9092 19.151C95.9186 19.1759 95.9328 19.1987 95.951 19.218C95.9692 19.2374 95.9911 19.2529 96.0153 19.2637C96.0379 19.2725 96.0621 19.2766 96.0864 19.2756C96.1106 19.2747 96.1344 19.2689 96.1563 19.2585C96.1782 19.248 96.1978 19.2332 96.2138 19.215C96.2297 19.1967 96.2418 19.1754 96.2493 19.1523C96.2605 19.1282 96.2667 19.1021 96.2677 19.0756C96.2687 19.049 96.2644 19.0225 96.2551 18.9977C96.2457 18.9728 96.2316 18.95 96.2133 18.9306C96.1951 18.9113 96.1733 18.8958 96.149 18.8849C96.1264 18.8762 96.1022 18.8721 96.078 18.8731C96.0537 18.874 96.0299 18.8798 96.008 18.8902C95.9861 18.9007 95.9666 18.9155 95.9506 18.9337C95.9346 18.952 95.9225 18.9733 95.9151 18.9964Z" fill="#303030"/>
<path d="M84.6318 11.8545C85.8595 11.5314 89.5315 11.3086 91.1722 14.6957C90.4969 14.9803 89.7598 15.0878 89.0311 15.0078C88.3025 14.9279 87.6064 14.6632 87.0091 14.2388C85.893 13.4701 84.8997 12.6344 83.951 12.7013C83.0023 12.7681 83.3371 13.7041 83.3371 13.7041C83.1778 13.6128 83.0435 13.4837 82.9462 13.3282C82.8488 13.1727 82.7914 12.9957 82.779 12.8127C82.3995 12.6456 82.1652 12.5565 82.0312 12.2668C82.9168 12.3008 83.8004 12.1607 84.6318 11.8545Z" fill="url(#paint13_linear)"/>
<path d="M89.0275 13.8711C89.0091 13.9238 89.0014 13.9796 89.0046 14.0352C89.0079 14.0909 89.0221 14.1454 89.0465 14.1955C89.0708 14.2457 89.1049 14.2906 89.1466 14.3277C89.1883 14.3647 89.237 14.3932 89.2897 14.4115C89.3425 14.4298 89.3984 14.4375 89.4541 14.4343C89.5099 14.431 89.5645 14.4168 89.6147 14.3925C89.665 14.3682 89.71 14.3342 89.7471 14.2926C89.7842 14.2509 89.8127 14.2023 89.8311 14.1497C89.8672 14.0403 89.8595 13.9211 89.8095 13.8173C89.7596 13.7134 89.6713 13.6329 89.5632 13.5926C89.5098 13.5737 89.4531 13.566 89.3965 13.57C89.34 13.5739 89.2849 13.5895 89.2346 13.6156C89.1844 13.6417 89.1401 13.6779 89.1044 13.7218C89.0688 13.7658 89.0426 13.8166 89.0275 13.8711Z" fill="white"/>
<path d="M89.2179 13.938C89.2072 13.9658 89.2023 13.9954 89.2032 14.0251C89.2042 14.0548 89.2112 14.084 89.2237 14.111C89.2361 14.138 89.2538 14.1623 89.2758 14.1823C89.2978 14.2023 89.3235 14.2178 89.3516 14.2277C89.3793 14.238 89.4088 14.2424 89.4384 14.2406C89.4679 14.2387 89.4967 14.2307 89.523 14.2171C89.5492 14.2034 89.5723 14.1844 89.5908 14.1613C89.6092 14.1382 89.6226 14.1115 89.6301 14.0829C89.6459 14.0237 89.6399 13.9608 89.6134 13.9056C89.5868 13.8504 89.5414 13.8066 89.4853 13.782C89.4575 13.7737 89.4282 13.7711 89.3994 13.7745C89.3706 13.778 89.3427 13.7873 89.3177 13.8019C89.2926 13.8165 89.2708 13.8362 89.2536 13.8596C89.2364 13.883 89.2243 13.9097 89.2179 13.938Z" fill="#303030"/>
<path d="M10.4867 39.1403C11.0001 37.8256 13.1988 34.3829 17.3173 35.1182C17.1353 35.9125 16.7526 36.647 16.2055 37.2516C15.6584 37.8562 14.9653 38.3109 14.1922 38.5721C12.797 39.0289 11.3684 39.4077 10.8438 40.3102C10.3192 41.2127 11.3572 41.5246 11.3572 41.5246C11.1691 41.6049 10.9644 41.6388 10.7603 41.6232C10.5563 41.6077 10.3591 41.5433 10.1853 41.4355C9.78351 41.6695 9.54912 41.8255 9.20312 41.7475C9.79329 40.9679 10.2289 40.083 10.4867 39.1403Z" fill="url(#paint14_linear)"/>
<path d="M15.1519 36.4886C15.1866 36.5419 15.2319 36.5876 15.2849 36.6229C15.338 36.6581 15.3976 36.6822 15.4603 36.6937C15.523 36.7052 15.5873 36.7038 15.6495 36.6896C15.7116 36.6754 15.7701 36.6487 15.8216 36.6111C15.9234 36.5356 15.9912 36.4229 16.01 36.2976C16.0288 36.1723 15.9972 36.0447 15.922 35.9426C15.8442 35.8412 15.7313 35.7724 15.6054 35.7497C15.4794 35.727 15.3495 35.7521 15.2412 35.8201C15.189 35.8563 15.145 35.903 15.1119 35.9572C15.0788 36.0113 15.0573 36.0718 15.0489 36.1347C15.0405 36.1976 15.0453 36.2615 15.0631 36.3225C15.0808 36.3834 15.111 36.44 15.1519 36.4886Z" fill="white"/>
<path d="M15.3319 36.3662C15.3704 36.4219 15.4287 36.461 15.4948 36.4755C15.561 36.49 15.6302 36.4788 15.6885 36.4442C15.7341 36.3983 15.7597 36.3362 15.7597 36.2715C15.7597 36.2068 15.7341 36.1447 15.6885 36.0988C15.6483 36.0449 15.5893 36.0081 15.5233 35.9957C15.4572 35.9833 15.3889 35.9962 15.3319 36.0319C15.3097 36.0537 15.2921 36.0797 15.28 36.1084C15.2679 36.1371 15.2617 36.168 15.2617 36.1991C15.2617 36.2302 15.2679 36.261 15.28 36.2897C15.2921 36.3184 15.3097 36.3444 15.3319 36.3662Z" fill="#303030"/>
<path d="M16.6937 58.8944C15.0865 59.2621 10.3095 59.4403 8.25586 55.2511C9.14137 54.9211 10.0934 54.8085 11.0316 54.9229C11.9699 55.0373 12.8668 55.3753 13.6467 55.9085C15.0307 56.8889 16.3365 57.9362 17.5866 57.9028C17.7344 57.9004 17.8795 57.8624 18.0094 57.7918C18.1393 57.7212 18.2501 57.6203 18.3324 57.4976C18.4147 57.375 18.466 57.2343 18.4818 57.0875C18.4977 56.9407 18.4778 56.7923 18.4237 56.6549C18.6198 56.7719 18.7851 56.9341 18.9055 57.128C19.0259 57.3218 19.098 57.5417 19.1156 57.7691C19.6067 57.9808 19.9192 58.0922 20.0755 58.471C18.9314 58.3941 17.7833 58.5378 16.6937 58.8944Z" fill="url(#paint15_linear)"/>
<path d="M11.0128 56.3542C11.0482 56.2525 11.0526 56.1426 11.0256 56.0384C10.9985 55.9341 10.9412 55.8402 10.8609 55.7684C10.7806 55.6966 10.6807 55.6502 10.574 55.6348C10.4672 55.6195 10.3584 55.636 10.261 55.6823C10.1636 55.7286 10.0821 55.8026 10.0268 55.8949C9.97142 55.9873 9.94466 56.094 9.94985 56.2015C9.95505 56.309 9.99199 56.4126 10.056 56.4993C10.12 56.5859 10.2083 56.6517 10.3096 56.6884C10.3778 56.7131 10.4501 56.724 10.5225 56.7205C10.5949 56.717 10.6658 56.6992 10.7312 56.6681C10.7967 56.637 10.8552 56.5932 10.9036 56.5393C10.9519 56.4855 10.989 56.4225 11.0128 56.3542Z" fill="white"/>
<path d="M10.7656 56.2762C10.7905 56.2038 10.7858 56.1245 10.7524 56.0556C10.719 55.9867 10.6596 55.9338 10.5874 55.9085C10.5523 55.8961 10.515 55.8907 10.4778 55.8926C10.4406 55.8945 10.4042 55.9038 10.3706 55.9199C10.3369 55.9359 10.3068 55.9584 10.2819 55.9861C10.2569 56.0138 10.2377 56.0461 10.2253 56.0812C10.2128 56.1163 10.2074 56.1535 10.2094 56.1907C10.2113 56.2279 10.2206 56.2644 10.2366 56.298C10.2527 56.3316 10.2752 56.3618 10.3028 56.3867C10.3305 56.4116 10.3628 56.4308 10.398 56.4433C10.4689 56.4688 10.5471 56.4656 10.6157 56.4344C10.6844 56.4032 10.7382 56.3464 10.7656 56.2762Z" fill="#303030"/>
<path d="M31.8379 65.8356C28.3221 67.6851 17.3284 71.0276 9.90625 62.4931C14.1921 58.8944 20.5428 59.8191 22.8867 60.7216C26.7149 62.17 30.4316 63.7855 33.3446 62.9499C33.6766 62.8514 33.9799 62.6744 34.2288 62.434C34.4777 62.1935 34.6648 61.8967 34.7744 61.5687C34.8839 61.2407 34.9126 60.8912 34.858 60.5498C34.8034 60.2083 34.6671 59.8851 34.4607 59.6074C34.9958 59.7505 35.487 60.0239 35.8902 60.4031C36.2934 60.7823 36.5961 61.2554 36.7711 61.78C38.0323 61.9695 38.8471 62.0363 39.4386 62.8051C36.9832 63.0391 34.9183 64.2201 31.8379 65.8356Z" fill="url(#paint16_linear)"/>
<path d="M17.0173 63.4067C17.0326 63.2345 17.0134 63.061 16.9609 62.8963C16.9083 62.7316 16.8235 62.579 16.7113 62.4474C16.5992 62.3157 16.4619 62.2076 16.3075 62.1294C16.153 62.0512 15.9846 62.0044 15.8119 61.9917C15.6389 61.9786 15.4651 61.9995 15.3003 62.0534C15.1354 62.1073 14.9829 62.1931 14.8512 62.3059C14.7196 62.4187 14.6115 62.5562 14.5331 62.7107C14.4548 62.8652 14.4076 63.0335 14.3945 63.2062C14.3813 63.3788 14.4023 63.5524 14.4563 63.7169C14.5103 63.8815 14.5962 64.0338 14.7092 64.1652C14.8221 64.2966 14.9599 64.4045 15.1147 64.4827C15.2694 64.5609 15.4381 64.608 15.611 64.6211C15.7835 64.6348 15.9569 64.6141 16.1213 64.5603C16.2857 64.5064 16.4377 64.4205 16.5686 64.3075C16.6994 64.1945 16.8065 64.0567 16.8835 63.9021C16.9605 63.7474 17.006 63.579 17.0173 63.4067Z" fill="white"/>
<path d="M16.4021 63.3511C16.4086 63.1722 16.3464 62.9975 16.2281 62.8629C16.1098 62.7282 15.9445 62.6438 15.7659 62.6269C15.6762 62.6177 15.5855 62.6267 15.4993 62.6534C15.4131 62.6801 15.3332 62.7239 15.2644 62.7822C15.1956 62.8405 15.1393 62.912 15.0989 62.9925C15.0585 63.073 15.0348 63.1609 15.0293 63.2508C15.0346 63.4215 15.1031 63.5842 15.2215 63.7075C15.3399 63.8307 15.4998 63.9058 15.6705 63.9183C15.8411 63.9308 16.0103 63.8797 16.1454 63.775C16.2805 63.6702 16.372 63.5192 16.4021 63.3511Z" fill="#303030"/>
<path d="M98.4363 46.4715C96.5389 45.5133 94.3067 47.5856 92.5098 47.1288C92.1659 47.035 91.845 46.872 91.5667 46.6497C91.2884 46.4274 91.0586 46.1507 90.8914 45.8364C90.4027 44.567 90.2452 43.1945 90.4338 41.8477C90.5344 41.2989 90.5344 40.7364 90.4338 40.1876C90.2003 38.8718 89.4547 37.7018 88.3599 36.9329C87.2651 36.1641 85.91 35.8589 84.5905 36.0841C83.271 36.3092 82.0944 37.0464 81.3176 38.1347C80.5408 39.2229 80.227 40.5738 80.4446 41.8923C80.5534 42.4938 80.7688 43.071 81.0808 43.5969C81.583 44.7111 83.5474 46.5049 83.246 48.4213C83.2351 48.4914 83.2351 48.5628 83.246 48.6329C83.1844 49.1526 82.9824 49.6458 82.6616 50.0597C82.3408 50.4735 81.9133 50.7925 81.4249 50.9825C80.9365 51.1725 80.4055 51.2263 79.8887 51.1383C79.372 51.0502 78.889 50.8235 78.4914 50.4824C77.0516 49.0452 75.7681 50.4824 76.8507 51.7749C78.3128 53.5798 81.2482 53.6689 83.4469 51.9643C84.0166 51.572 84.5117 51.0815 84.909 50.5159C84.909 50.5159 84.909 50.5159 84.909 50.449C84.9259 50.3963 84.9524 50.3472 84.9872 50.3042C85.2327 49.9588 85.5564 50.0256 85.5899 50.5382C85.5118 52.1871 85.0765 54.0143 83.6478 54.3709C81.9402 54.7942 82.3866 56.5992 83.9827 56.2984C84.5444 56.1954 85.0714 55.9539 85.5158 55.5959C85.9603 55.2379 86.308 54.7746 86.5274 54.2483C87.0515 53.1243 87.3256 51.9005 87.331 50.6607C87.331 49.8251 87.9449 49.7137 88.1569 50.4156C88.1687 50.4592 88.1875 50.5006 88.2127 50.5382C88.3279 50.9161 88.5093 51.2707 88.7485 51.5855C89.1014 51.9841 89.5352 52.3032 90.021 52.5218C90.5069 52.7405 91.0337 52.8535 91.5667 52.8535C92.0996 52.8535 92.6264 52.7405 93.1123 52.5218C93.5981 52.3032 94.0319 51.9841 94.3848 51.5855C95.6795 50.1705 94.0612 48.7555 92.5209 50.4713C91.4048 51.7192 90.099 51.1844 89.9762 49.3571C89.9762 48.6218 90.2552 48.3098 90.936 48.5215L91.4606 48.6886C94.1393 49.4128 95.6349 47.5745 97.1975 48.2875C98.76 49.0006 100.021 47.2737 98.4363 46.4715Z" fill="url(#paint17_radial)"/>
<path d="M88.984 42.2266C89.0802 42.531 89.0513 42.861 88.9037 43.1442C88.7562 43.4273 88.502 43.6403 88.1971 43.7363C87.8922 43.8324 87.5616 43.8036 87.278 43.6562C86.9944 43.5089 86.781 43.2552 86.6848 42.9508C86.6371 42.8001 86.6197 42.6415 86.6335 42.4841C86.6472 42.3267 86.6919 42.1735 86.765 42.0333C86.838 41.8931 86.9381 41.7687 87.0593 41.6671C87.1805 41.5655 87.3207 41.4887 87.4716 41.4411C87.6226 41.3936 87.7815 41.3762 87.9392 41.3899C88.0969 41.4037 88.2503 41.4483 88.3908 41.5212C88.5312 41.5942 88.6559 41.694 88.7577 41.815C88.8594 41.9361 88.9363 42.0759 88.984 42.2266Z" fill="white"/>
<path d="M88.4251 42.4048C88.451 42.4824 88.4612 42.5643 88.455 42.6457C88.4487 42.7272 88.4262 42.8066 88.3888 42.8793C88.3514 42.952 88.2997 43.0164 88.237 43.0689C88.1742 43.1213 88.1016 43.1607 88.0233 43.1848C87.9449 43.2096 87.8623 43.2188 87.7804 43.2119C87.6984 43.2049 87.6186 43.1819 87.5455 43.1441C87.4724 43.1063 87.4076 43.0546 87.3545 42.9918C87.3015 42.929 87.2614 42.8564 87.2364 42.7781C87.2115 42.6998 87.2023 42.6174 87.2093 42.5356C87.2163 42.4537 87.2394 42.3741 87.2772 42.3011C87.315 42.2282 87.3669 42.1634 87.4298 42.1105C87.4927 42.0575 87.5654 42.0175 87.6438 41.9926C87.7222 41.9669 87.805 41.9573 87.8871 41.9642C87.9693 41.9712 88.0493 41.9946 88.1222 42.0331C88.1951 42.0715 88.2595 42.1243 88.3116 42.1882C88.3636 42.2521 88.4022 42.3257 88.4251 42.4048Z" fill="#303030"/>
<path d="M85.2675 43.2739C85.3179 43.4238 85.3379 43.5823 85.3263 43.74C85.3148 43.8977 85.2719 44.0515 85.2003 44.1925C85.1286 44.3335 85.0296 44.4589 84.9089 44.5614C84.7882 44.6638 84.6483 44.7412 84.4974 44.7892C84.1925 44.8867 83.8613 44.8593 83.5766 44.713C83.2919 44.5668 83.0771 44.3136 82.9794 44.0093C82.8817 43.7049 82.9092 43.3743 83.0557 43.0901C83.2022 42.8059 83.4558 42.5915 83.7607 42.494C83.9102 42.4334 84.071 42.406 84.2322 42.4134C84.3933 42.4209 84.551 42.4632 84.6942 42.5373C84.8374 42.6114 84.9628 42.7157 85.0618 42.8428C85.1607 42.97 85.2309 43.1171 85.2675 43.2739Z" fill="white"/>
<path d="M84.7194 43.4521C84.7453 43.5296 84.7555 43.6115 84.7492 43.693C84.743 43.7745 84.7205 43.8539 84.683 43.9265C84.6456 43.9992 84.594 44.0637 84.5312 44.1161C84.4685 44.1686 84.3958 44.208 84.3176 44.232C84.1621 44.2817 83.9933 44.2688 83.8473 44.1959C83.7014 44.123 83.5897 43.996 83.5363 43.8421C83.4832 43.6825 83.4958 43.5084 83.5711 43.3581C83.6464 43.2077 83.7784 43.0933 83.9381 43.0399C84.0165 43.0142 84.0992 43.0045 84.1814 43.0115C84.2636 43.0184 84.3435 43.0418 84.4164 43.0803C84.4894 43.1188 84.5538 43.1715 84.6058 43.2354C84.6579 43.2993 84.6965 43.373 84.7194 43.4521Z" fill="#303030"/>
<path d="M52.2969 67.6517C53.7143 68.6656 54.6072 66.727 57.018 67.7186C58.8596 68.4985 59.0494 68.6211 59.4623 68.1308C60.1543 67.3175 61.3597 68.1308 60.3999 68.9887C59.6074 69.6572 58.8931 69.6015 57.1966 68.9887C56.7536 68.7722 56.2668 68.6597 55.7736 68.6597C55.2803 68.6597 54.7936 68.7722 54.3505 68.9887C52.5982 69.8578 52.3304 68.7102 52.3304 68.7102L52.2969 67.6517Z" fill="url(#paint18_linear)"/>
<path d="M52.0293 71.685C53.6923 70.816 54.5071 72.8994 56.9625 72.0415C58.313 71.5736 58.938 71.4287 59.2952 71.9524C59.8979 72.8326 61.1814 72.1084 60.3109 71.1948C59.4403 70.2812 58.938 70.4037 57.1299 70.8939C56.6638 71.0399 56.1725 71.0885 55.6867 71.0367C55.2009 70.985 54.731 70.834 54.3062 70.5931C52.5762 69.7686 52.2525 70.5931 52.2525 70.5931L52.0293 71.685Z" fill="url(#paint19_linear)"/>
<path d="M52.7317 69.3229C53.8646 68.8585 55.1251 68.8073 56.2921 69.178C58.1114 69.7463 59.1382 70.4482 59.8637 69.802C60.5892 69.1558 61.337 70.2253 60.4776 70.7601C58.7587 71.8743 57.6092 70.7601 55.9015 70.2142C55.36 70.0436 54.7823 70.0229 54.2299 70.1543C53.6776 70.2858 53.1713 70.5645 52.7652 70.9607C52.475 71.2504 52.7317 69.3229 52.7317 69.3229Z" fill="url(#paint20_linear)"/>
<path d="M50.812 67.0501C50.6157 67.0239 50.4168 67.0239 50.2205 67.0501C49.6628 67.1427 49.0907 67.0929 48.5575 66.9052C46.3896 66.2052 44.1371 65.8005 41.8608 65.7019C36.5034 65.4122 33.3783 66.8161 33.2667 68.6767C33.1551 70.5374 36.1351 72.2643 41.4813 72.554C43.8854 72.72 46.3008 72.5247 48.6468 71.9746C49.0719 71.8694 49.5163 71.8694 49.9414 71.9746C50.126 72.0325 50.3174 72.0663 50.5107 72.0749C50.8419 72.0932 51.1735 72.0462 51.4866 71.9366C51.7996 71.8269 52.088 71.6568 52.3351 71.4359C52.5823 71.215 52.7835 70.9477 52.9272 70.6492C53.0709 70.3507 53.1543 70.0269 53.1726 69.6962C53.1909 69.3655 53.1438 69.0345 53.034 68.722C52.9241 68.4095 52.7537 68.1217 52.5324 67.8749C52.3112 67.6282 52.0434 67.4273 51.7444 67.2839C51.4453 67.1405 51.1209 67.0572 50.7897 67.0389L50.812 67.0501Z" fill="url(#paint21_linear)"/>
<path d="M52.1635 69.6349C52.1767 69.3391 52.1014 69.046 51.9472 68.793C51.7931 68.54 51.567 68.3384 51.2978 68.214C51.0286 68.0895 50.7284 68.0479 50.4354 68.0942C50.1424 68.1405 49.8699 68.2728 49.6524 68.4742C49.4349 68.6755 49.2823 68.937 49.214 69.2251C49.1457 69.5133 49.1648 69.8153 49.2689 70.0926C49.373 70.3699 49.5573 70.6101 49.7985 70.7825C50.0397 70.955 50.3268 71.0519 50.6233 71.0611C50.8186 71.07 51.0138 71.04 51.1974 70.9729C51.381 70.9058 51.5494 70.8029 51.6928 70.6702C51.8361 70.5374 51.9516 70.3775 52.0324 70.1998C52.1132 70.0221 52.1578 69.83 52.1635 69.6349Z" fill="white"/>
<path d="M51.4599 69.6015C51.469 69.3964 51.3968 69.196 51.2589 69.0438C51.121 68.8915 50.9285 68.7997 50.7232 68.7881C50.6149 68.7708 50.5041 68.7765 50.3981 68.8047C50.292 68.833 50.1932 68.8832 50.1079 68.9522C50.0226 69.0211 49.9529 69.1072 49.9031 69.2049C49.8534 69.3026 49.8249 69.4096 49.8193 69.519C49.8138 69.6284 49.8315 69.7378 49.8711 69.8399C49.9107 69.9421 49.9715 70.0347 50.0494 70.1119C50.1273 70.189 50.2206 70.2489 50.3232 70.2877C50.4259 70.3265 50.5356 70.3432 50.6451 70.3368C50.8505 70.3459 51.0513 70.2739 51.2038 70.1362C51.3563 69.9985 51.4483 69.8064 51.4599 69.6015Z" fill="#303030"/>
<path d="M99.4199 37.1015C100.279 36.6001 99.4869 35.6865 100.536 34.6949C101.384 33.915 101.485 33.8481 101.34 33.525C101.083 32.968 101.808 32.5446 101.998 33.2465C102.188 33.9484 101.998 34.1712 101.228 34.8843C101.009 35.059 100.833 35.2812 100.713 35.5342C100.593 35.7871 100.532 36.064 100.536 36.3439C100.536 37.458 99.9222 37.3243 99.9222 37.3243L99.4199 37.1015Z" fill="url(#paint22_linear)"/>
<path d="M101.406 38.2935C101.406 37.1794 102.623 37.3019 102.779 35.8312C102.857 35.0179 102.924 34.6614 103.281 34.5945C103.884 34.5054 103.828 33.6697 103.147 33.9037C102.467 34.1377 102.4 34.4162 102.221 35.4636C102.187 35.7385 102.096 36.0033 101.954 36.2412C101.812 36.479 101.621 36.6847 101.395 36.8451C100.547 37.547 100.926 37.9593 100.926 37.9593L101.406 38.2935Z" fill="url(#paint23_linear)"/>
<path d="M101.395 38.1154C101.027 36.9344 101.908 36.589 101.272 35.2854C100.915 34.5723 100.781 34.2492 101.038 33.993C101.484 33.603 101.038 32.9568 100.569 33.4805C100.1 34.0041 100.234 34.3272 100.569 35.2965C100.687 35.5421 100.753 35.8095 100.763 36.0818C100.773 36.3541 100.726 36.6254 100.625 36.8786C100.301 37.9037 100.803 37.9928 100.803 37.9928L101.395 38.1154Z" fill="url(#paint24_linear)"/>
<path d="M100.379 37.3465C100.417 36.6495 100.697 35.9875 101.171 35.4748C101.908 34.6726 102.511 34.3606 102.354 33.7812C102.198 33.2019 102.924 33.135 102.991 33.7032C103.136 34.8174 102.287 35.1739 101.607 35.9316C101.386 36.1681 101.235 36.4605 101.17 36.7769C101.105 37.0933 101.129 37.4214 101.238 37.7254C101.316 37.9259 100.379 37.3465 100.379 37.3465Z" fill="url(#paint25_linear)"/>
<path d="M99.0058 37.3577C98.9245 37.4379 98.8533 37.5277 98.7937 37.6251C98.613 37.885 98.3665 38.0926 98.0794 38.2267C97.0898 38.7603 96.1585 39.3951 95.3003 40.1208C93.0681 42.1708 92.3426 43.9869 93.0681 44.7891C93.7935 45.5913 95.6686 45.0677 97.9232 43.0065C98.7961 42.1844 99.5476 41.2428 100.155 40.2099C100.278 39.9918 100.45 39.805 100.658 39.664C100.752 39.609 100.842 39.5456 100.926 39.4746C101.208 39.2175 101.377 38.8588 101.395 38.4775C101.413 38.0962 101.278 37.7234 101.02 37.4412C100.763 37.159 100.404 36.9905 100.022 36.9728C99.6396 36.955 99.2662 37.0895 98.9835 37.3465L99.0058 37.3577Z" fill="url(#paint26_linear)"/>
<path d="M100.402 37.6809C100.211 37.5845 99.99 37.563 99.7835 37.6208C99.577 37.6785 99.3996 37.8112 99.2861 37.9928C99.2159 38.0904 99.1671 38.2016 99.1428 38.3193C99.1184 38.4369 99.1191 38.5583 99.1447 38.6756C99.1704 38.793 99.2204 38.9037 99.2916 39.0005C99.3628 39.0973 99.4536 39.1781 99.558 39.2377C99.6625 39.2973 99.7783 39.3343 99.898 39.3464C100.018 39.3585 100.139 39.3453 100.253 39.3078C100.367 39.2703 100.472 39.2092 100.562 39.1285C100.651 39.0479 100.722 38.9495 100.77 38.8396C100.824 38.7397 100.857 38.6301 100.868 38.5172C100.879 38.4044 100.866 38.2905 100.832 38.1824C100.798 38.0744 100.742 37.9743 100.668 37.8881C100.594 37.802 100.504 37.7315 100.402 37.6809Z" fill="white"/>
<path d="M100.189 38.0373C100.139 38.008 100.084 37.9891 100.027 37.9817C99.9701 37.9743 99.9122 37.9785 99.8568 37.9942C99.8015 38.0098 99.7499 38.0365 99.7053 38.0726C99.6606 38.1088 99.6238 38.1536 99.597 38.2044C99.5674 38.2546 99.5483 38.3103 99.5408 38.3681C99.5332 38.4258 99.5374 38.4845 99.553 38.5406C99.5686 38.5968 99.5954 38.6492 99.6317 38.6948C99.668 38.7404 99.7131 38.7782 99.7644 38.8061C99.8673 38.8598 99.9869 38.8724 100.099 38.8413C100.211 38.8103 100.307 38.7379 100.367 38.6389C100.396 38.588 100.415 38.5317 100.421 38.4735C100.428 38.4153 100.423 38.3563 100.406 38.3001C100.39 38.2439 100.362 38.1916 100.324 38.1464C100.287 38.1013 100.241 38.0641 100.189 38.0373Z" fill="#303030"/>
<path d="M133.761 36.94L133.46 35.2687L132.757 30.5224L132.244 26.2106L132.11 25.0185V24.8959H131.317H130.659H130.558L130.022 26.1995C129.676 26.946 129.208 27.9598 128.56 29.2634L127.165 31.9597L126.674 32.8733L126.172 31.9151L124.833 29.2411L123.661 26.7342L122.835 24.8959H122.098H121.406H121.272L121.082 26.5782L120.58 30.5001L120.29 32.5724L119.777 35.6921L119.564 36.8063V36.9734H119.732H120.491H121.306H121.44V35.8592L121.674 32.9513L121.931 30.5893L122.042 29.6422L122.522 30.5781L124.475 34.6114L125.201 36.1489L125.524 36.94V37.0291H125.96H126.295H126.395L126.964 35.6587L128.371 32.6839L129.487 30.645L129.978 29.6199L130.067 30.5558L130.346 32.9067L130.569 35.8481L130.636 36.8954V37.018H132.277H133.639L133.761 36.94ZM142.177 37.1405C143.921 37.1988 145.619 36.5752 146.909 35.4024C147.542 34.8078 148.039 34.084 148.367 33.2803C148.694 32.4767 148.844 31.612 148.807 30.7453C148.822 29.771 148.624 28.8051 148.226 27.9153C147.918 27.2452 147.459 26.6545 146.887 26.1883C145.631 25.1664 144.041 24.6428 142.422 24.7176C140.664 24.6355 138.944 25.2479 137.634 26.4223C136.995 27.0183 136.491 27.7446 136.158 28.5521C135.825 29.3596 135.67 30.2292 135.703 31.1018C135.673 31.934 135.822 32.763 136.142 33.5322C136.462 34.3014 136.944 34.9926 137.556 35.5584C138.842 36.6478 140.492 37.2128 142.177 37.1405ZM139.498 27.7259C139.769 27.2149 140.176 26.7885 140.675 26.4937C141.173 26.1988 141.743 26.0469 142.322 26.0546C142.924 26.0393 143.519 26.1896 144.041 26.4892C144.473 26.7602 144.821 27.146 145.045 27.6033C145.556 28.5941 145.806 29.6984 145.771 30.8121C145.789 31.9747 145.517 33.1236 144.978 34.1546C144.719 34.6637 144.32 35.0889 143.828 35.3808C143.336 35.6727 142.771 35.8193 142.199 35.8035H142.11C141.579 35.8068 141.058 35.6641 140.603 35.3913C140.148 35.114 139.765 34.732 139.487 34.2771L139.375 34.344L139.487 34.2771C138.942 33.3194 138.69 32.2232 138.762 31.124C138.708 29.9467 138.962 28.7757 139.498 27.7259ZM159.387 26.6786C159.261 26.35 159.058 26.0559 158.796 25.8206C157.977 25.1489 156.928 24.8213 155.872 24.907H154.421H152.97H151.608H151.463L151.519 25.7204C151.519 26.2329 151.575 26.8345 151.575 27.7259V29.8093V32.5167L151.508 34.7451V36.1266V36.8508V36.9845H153.093H154.398H154.454L154.398 36.0375L154.331 34.5668V31.8705H154.979C158.003 31.8705 159.622 30.6116 159.622 28.1716C159.641 27.6634 159.562 27.1563 159.387 26.6786ZM154.543 30.5001H154.365V29.8873V28.4612V27.1688L154.421 26.3555H154.889C156.006 26.3555 156.541 26.9126 156.575 28.1716C156.597 29.7314 155.939 30.4667 154.543 30.5001ZM168.249 24.7065C166.474 24.6364 164.734 25.2192 163.361 26.3443C162.702 26.943 162.185 27.6805 161.847 28.5033C161.509 29.3262 161.359 30.2138 161.408 31.1018C161.383 31.9716 161.527 32.8378 161.832 33.6532C162.084 34.2815 162.464 34.8506 162.948 35.3244C163.49 35.8712 164.14 36.2998 164.856 36.5834C165.826 36.9519 166.855 37.1407 167.892 37.1405C168.917 37.1602 169.935 36.9706 170.883 36.5834L171.296 36.3829H171.352L171.531 35.6253L171.754 34.8119V34.7117L171.43 34.5557H171.352L170.783 35.0124C170.067 35.5717 169.181 35.8704 168.272 35.8592C167.534 35.8638 166.812 35.6506 166.196 35.2464C165.577 34.8317 165.108 34.2305 164.856 33.5307C164.535 32.7033 164.376 31.822 164.388 30.9346C164.341 29.7771 164.653 28.6334 165.28 27.659C165.588 27.184 166.012 26.7948 166.512 26.5278C167.012 26.2608 167.571 26.1248 168.138 26.1326C168.547 26.1124 168.957 26.1761 169.34 26.3198C169.724 26.4635 170.075 26.6842 170.37 26.9682C170.526 27.1354 170.727 27.3471 170.95 27.6145H171.263L171.52 26.4335L171.743 25.5867V25.4641L170.973 25.1967C170.099 24.8797 169.178 24.7139 168.249 24.7065ZM184.02 36.9622L183.161 35.8481L181.966 34.0988L180.125 31.4137L179.187 29.9542L179.745 29.308L181.364 27.503L182.647 26.1326L183.864 24.8848L182.379 24.9516H181.263H181.241L180.549 25.9655C180.214 26.4557 179.712 27.0796 179.064 27.8596L177.948 29.2077L177.167 30.0879V29.2634L177.234 27.3359V26.0212L177.301 25.0853V24.9405H177.156H175.772H174.421H174.276L174.332 26.0546V27.3693V29.3748V32.7173V34.3774V35.8592V36.8731V37.018H175.906H177.212H177.357L177.268 35.8258C177.214 35.3301 177.192 34.8314 177.201 34.3328V32.0043L177.714 32.7841L178.752 34.4108C179.232 35.135 179.578 35.681 179.779 36.0375L180.303 36.94V37.0068H182.078L184.02 36.9622ZM186.542 36.9622H186.643L187.011 35.681C187.179 35.1796 187.335 34.6782 187.502 34.2214L187.748 33.5752L188.54 33.486C188.912 33.4655 189.285 33.4655 189.656 33.486C190.125 33.486 190.527 33.486 190.772 33.486L191.587 33.5752L191.799 34.2437L192.335 35.7144L192.681 36.8285V36.9177H194.21H196.063L195.349 35.4581C194.366 33.3487 193.362 30.9532 192.335 28.2718L191.543 26.1215L191.085 24.8736H190.237H189.656H189.556L189.121 26.1215L188.272 28.3498C187.156 31.0572 186.174 33.4304 185.192 35.5361L184.478 36.9622H185.594H186.542ZM188.563 31.5029L189.4 29.4083L189.679 28.7397L189.947 29.4083L190.795 31.5029L190.996 32.0153H190.616C190.338 32.0337 190.058 32.0337 189.779 32.0153C189.411 32.0153 189.076 32.0153 188.763 32.0153L188.362 31.9597L188.563 31.5029ZM206.487 35.837C206.487 35.4693 206.487 34.823 206.487 33.8983V27.5476C206.487 26.79 206.487 26.1772 206.487 25.7538H206.365H206.487L206.554 25.0519V24.8959L205.115 24.9516L202.536 24.8959C199.456 24.8959 198.161 26.5226 198.15 28.4723C198.188 29.169 198.447 29.8354 198.891 30.3745C199.335 30.9136 199.939 31.2972 200.617 31.4694L197.983 35.7478L197.112 36.862H199.054H200.505H200.583L201.13 35.7478L203.496 31.4806H203.697V33.8314C203.697 34.5891 203.697 35.2353 203.697 35.7701L203.63 36.706V36.8508H205.17H206.51H206.666L206.487 35.837ZM203.719 30.3999H203.284C202.965 30.4466 202.64 30.4206 202.333 30.3238C202.026 30.2271 201.744 30.062 201.51 29.8411C201.276 29.6202 201.095 29.3492 200.981 29.0485C200.867 28.7477 200.822 28.4251 200.851 28.1047C200.851 26.8123 201.967 26.1883 203.228 26.1772H203.719V30.3999ZM131.016 41.9759V40.8618V40.7169H129.52H128.125H122.712H121.35H119.955H119.81L119.91 41.9314C119.91 42.4216 119.91 43.3241 119.91 44.6611V46.4103C119.91 47.5245 119.91 48.427 119.91 49.1289L119.81 51.5243V52.6385V52.7721H121.294H122.701H122.846L122.768 51.5577C122.768 50.867 122.701 50.1539 122.701 49.4297V45.5524V44.8616V43.3686V42.4996L123.516 42.3325H127.143L128.025 42.4662V47.9479V49.4743V51.5131V52.6273V52.761H129.632H130.915H131.06L130.993 51.4129L130.927 49.0174V46.4215V44.6723C131.016 43.469 131.016 42.5664 131.016 41.9759ZM139.666 40.8618V40.7615H139.554C139.307 40.809 139.057 40.8351 138.806 40.8395C138.57 40.8414 138.334 40.8152 138.103 40.7615H137.991V40.8841C136.541 44.9173 134.833 48.7612 133.159 52.6941L133.058 52.9393L133.304 52.8724C133.554 52.8216 133.808 52.7954 134.063 52.7944C134.325 52.8024 134.587 52.8323 134.844 52.8836H134.956V52.7833C135.871 50.0202 136.954 47.2794 138.092 44.5163C139.085 47.3017 140.235 50.087 141.061 52.7721V52.8836H141.172C141.669 52.8224 142.168 52.7926 142.668 52.7944C143.172 52.7954 143.675 52.8252 144.175 52.8836H144.398L144.32 52.6831C142.746 48.7167 141.172 44.8282 139.71 40.8284L139.666 40.8618ZM153.059 44.2043L152.267 42.0539L151.809 40.8061H150.961H150.38H150.28L149.845 42.0539L148.996 44.2823C147.88 46.9897 146.887 49.3628 145.916 51.4686L145.202 52.8948H146.318H147.188H147.289L147.657 51.6134C147.813 51.1121 147.981 50.6107 148.137 50.165L148.383 49.5077L149.186 49.4185C149.558 49.3979 149.93 49.3979 150.302 49.4185C150.771 49.4185 151.173 49.4185 151.418 49.4185L152.244 49.5077L152.456 50.1762L152.992 51.6468L153.327 52.761V52.8501H154.856H156.709L155.994 51.3906C155.157 49.2291 154.164 46.8448 153.137 44.1486L153.059 44.2043ZM151.296 47.9479C151.013 47.9664 150.73 47.9664 150.447 47.9479C150.079 47.9479 149.744 47.9479 149.443 47.9479L149.03 47.8921L149.242 47.3908L150.068 45.3073L150.358 44.6276L150.626 45.3073L151.463 47.3908L151.675 47.9033L151.296 47.9479ZM169.555 42.0317L169.622 40.9175V40.7727H168.138H166.72H166.575L166.664 41.9982L166.72 43.3686V45.4299L165.772 45.5079C165.359 45.5079 164.856 45.5079 164.287 45.5079C163.718 45.5079 163.171 45.5079 162.725 45.5079L161.709 45.4299V44.8616V43.3686V41.9982L161.776 40.8841V40.7392H161.631H160.258H158.885H158.919L158.986 41.9537C158.986 42.4439 159.041 43.3463 159.041 44.6833V46.4326C159.041 47.5467 159.041 48.4492 159.041 49.1511L158.919 51.5689V52.7944H160.392H161.809H161.954L161.876 51.58C161.876 50.8892 161.798 50.1762 161.798 49.452V47.2237L162.758 47.1345C163.071 47.1345 163.584 47.1345 164.287 47.1345L165.805 47.2013H166.81V47.9144V49.4408V51.4797L166.754 52.5939V52.7276H168.35H169.644H169.79L169.711 51.3794V48.9952V46.388V44.6388C169.589 43.4689 169.6 42.5664 169.633 41.9759L169.555 42.0317ZM179.712 51.2792V51.1232L178.395 51.2235C177.736 51.2235 177.122 51.2904 176.576 51.2904H175.761V47.4353H176.609C177.301 47.4353 177.893 47.4353 178.428 47.5022L179.444 47.5802H179.6L179.544 46.6666V45.909V45.753L178.428 45.831C177.837 45.831 177.223 45.8978 176.598 45.8978H175.716V42.4328H176.497L178.506 42.4996L179.522 42.5665H179.667V41.6306V40.8952V40.7392L178.551 40.8395C178.06 40.8395 177.234 40.8395 176.084 40.8395C175.303 40.8395 174.756 40.8395 174.421 40.8395L172.825 40.7281L172.915 41.7532L172.97 43.2238V50.3099C172.97 50.945 172.97 51.4909 172.915 51.9365L172.837 52.7944V52.9504L174.433 52.8279H176.497L178.439 52.8948L179.556 52.9616H179.701V52.048L179.712 51.2792ZM190.326 42.3659V41.5526V40.8841V40.7392H188.842C187.726 40.7949 186.688 40.8284 185.828 40.8284C184.969 40.8284 184.02 40.8284 182.826 40.7392H181.475H181.33V40.8841V41.5749V42.2099V42.3659L182.569 42.2879H183.931H184.589V46.0872V49.4297L184.533 51.658L184.478 52.7721V52.917H186.007H187.38H187.525L187.446 51.6357V49.4074V46.065V42.2099H187.993H189.333L190.449 42.2768L190.326 42.3659ZM197.971 44.2154L197.168 42.0651L196.721 40.8172H195.873H195.293H195.192L194.746 42.0651L193.909 44.2934C192.793 47.0008 191.799 49.374 190.828 51.4797L190.17 52.7944H191.286H192.145H192.257L192.625 51.5131C192.782 51.0118 192.938 50.5104 193.105 50.0647L193.351 49.4074L194.143 49.3183C194.515 49.298 194.888 49.298 195.259 49.3183C195.717 49.3183 196.119 49.3183 196.375 49.3183L197.19 49.4074L197.413 50.0759L197.949 51.5466L198.284 52.6608V52.7499H199.813H201.655L200.951 51.2904C200.07 49.2292 199.099 46.8448 198.05 44.1486L197.971 44.2154ZM196.197 47.959C195.918 47.9773 195.638 47.9773 195.36 47.959C194.991 47.959 194.657 47.959 194.355 47.959L193.942 47.9033L194.154 47.4019L194.98 45.3184L195.259 44.6388L195.527 45.3184L196.375 47.4019L196.587 47.9144L196.197 47.959Z" fill="white"/>
<defs>
<radialGradient id="paint0_radial" cx="0" cy="0" r="1" gradientUnits="userSpaceOnUse" gradientTransform="translate(33.5142 23.7262) rotate(-6.89925) scale(57.5649 57.4671)">
<stop stop-color="#A2DEF9"/>
<stop offset="0.09" stop-color="#70D4F7"/>
<stop offset="0.16" stop-color="#4ACCF5"/>
<stop offset="0.22" stop-color="#33C7F4"/>
<stop offset="0.26" stop-color="#2AC5F4"/>
<stop offset="0.33" stop-color="#23ACDD"/>
<stop offset="0.57" stop-color="#0A558B"/>
<stop offset="0.68" stop-color="#00326B"/>
<stop offset="0.76" stop-color="#00366F"/>
<stop offset="0.85" stop-color="#00417D"/>
<stop offset="0.94" stop-color="#005393"/>
<stop offset="1" stop-color="#0063A5"/>
</radialGradient>
<linearGradient id="paint1_linear" x1="82.6787" y1="37.4213" x2="85.8407" y2="63.5531" gradientUnits="userSpaceOnUse">
<stop offset="0.06" stop-color="white"/>
<stop offset="0.39" stop-color="#93939E"/>
<stop offset="0.83" stop-color="#00001B"/>
</linearGradient>
<radialGradient id="paint2_radial" cx="0" cy="0" r="1" gradientUnits="userSpaceOnUse" gradientTransform="translate(41.7159 23.0965) scale(43.3945 43.3185)">
<stop offset="0.63" stop-color="#2A75BB"/>
<stop offset="0.72" stop-color="#2871B7"/>
<stop offset="0.8" stop-color="#2467AC"/>
<stop offset="0.88" stop-color="#1B5599"/>
<stop offset="0.95" stop-color="#103C7F"/>
<stop offset="1" stop-color="#07286A"/>
</radialGradient>
<linearGradient id="paint3_linear" x1="29.1496" y1="24.6237" x2="77.091" y2="18.8025" gradientUnits="userSpaceOnUse">
<stop offset="0.06" stop-color="white"/>
<stop offset="0.17" stop-color="#E2F0F8"/>
<stop offset="0.41" stop-color="#98C9E6"/>
<stop offset="0.77" stop-color="#228BC9"/>
<stop offset="0.86" stop-color="#0079C1"/>
</linearGradient>
<linearGradient id="paint4_linear" x1="60.6019" y1="50.5681" x2="62.5504" y2="64.5274" gradientUnits="userSpaceOnUse">
<stop offset="0.36" stop-color="#ED135E"/>
<stop offset="0.43" stop-color="#E7125B"/>
<stop offset="0.52" stop-color="#D51153"/>
<stop offset="0.63" stop-color="#B90E46"/>
<stop offset="0.75" stop-color="#910A33"/>
<stop offset="0.87" stop-color="#5E051B"/>
<stop offset="1" stop-color="#240000"/>
</linearGradient>
<linearGradient id="paint5_linear" x1="66.6443" y1="61.0288" x2="67.8969" y2="66.5831" gradientUnits="userSpaceOnUse">
<stop offset="0.36" stop-color="#00BDF2"/>
<stop offset="0.45" stop-color="#00B7EC"/>
<stop offset="0.58" stop-color="#00A8DC"/>
<stop offset="0.72" stop-color="#008EC1"/>
<stop offset="0.88" stop-color="#006A9B"/>
<stop offset="1" stop-color="#004878"/>
</linearGradient>
<linearGradient id="paint6_linear" x1="30.4025" y1="53.3962" x2="31.9434" y2="58.8846" gradientUnits="userSpaceOnUse">
<stop offset="0.36" stop-color="#8D5FA7"/>
<stop offset="0.47" stop-color="#8A5DA3"/>
<stop offset="0.57" stop-color="#815798"/>
<stop offset="0.66" stop-color="#714C86"/>
<stop offset="0.76" stop-color="#5B3D6C"/>
<stop offset="0.85" stop-color="#3F2A4A"/>
<stop offset="0.94" stop-color="#1D1322"/>
<stop offset="1"/>
</linearGradient>
<linearGradient id="paint7_linear" x1="29.9619" y1="69.2456" x2="29.2714" y2="73.3439" gradientUnits="userSpaceOnUse">
<stop offset="0.36" stop-color="#ED135E"/>
<stop offset="0.48" stop-color="#E9135C"/>
<stop offset="0.58" stop-color="#DE1157"/>
<stop offset="0.69" stop-color="#CC0E4E"/>
<stop offset="0.79" stop-color="#B20B41"/>
<stop offset="0.89" stop-color="#900631"/>
<stop offset="0.99" stop-color="#68011E"/>
<stop offset="1" stop-color="#62001B"/>
</linearGradient>
<linearGradient id="paint8_linear" x1="93.6491" y1="24.3778" x2="105.326" y2="18.3" gradientUnits="userSpaceOnUse">
<stop offset="0.36" stop-color="#BA0449"/>
<stop offset="0.5" stop-color="#B60447"/>
<stop offset="0.64" stop-color="#AB0341"/>
<stop offset="0.77" stop-color="#990238"/>
<stop offset="0.89" stop-color="#7F012A"/>
<stop offset="1" stop-color="#62001B"/>
</linearGradient>
<linearGradient id="paint9_linear" x1="2178.35" y1="5273.6" x2="2061.4" y2="5230.17" gradientUnits="userSpaceOnUse">
<stop offset="0.36" stop-color="#BA0449"/>
<stop offset="0.5" stop-color="#B60447"/>
<stop offset="0.64" stop-color="#AB0341"/>
<stop offset="0.77" stop-color="#990238"/>
<stop offset="0.89" stop-color="#7F012A"/>
<stop offset="1" stop-color="#62001B"/>
</linearGradient>
<linearGradient id="paint10_linear" x1="73.7241" y1="43.1116" x2="74.8415" y2="47.0915" gradientUnits="userSpaceOnUse">
<stop stop-color="#FCAF17"/>
<stop offset="0.17" stop-color="#FBA818"/>
<stop offset="0.41" stop-color="#F8961B"/>
<stop offset="0.7" stop-color="#F47720"/>
<stop offset="0.77" stop-color="#F36E21"/>
</linearGradient>
<linearGradient id="paint11_linear" x1="90.9472" y1="39.9267" x2="94.1529" y2="43.1264" gradientUnits="userSpaceOnUse">
<stop offset="0.2" stop-color="#88C540"/>
<stop offset="0.34" stop-color="#84C03E"/>
<stop offset="0.49" stop-color="#77B339"/>
<stop offset="0.66" stop-color="#619C30"/>
<stop offset="0.83" stop-color="#447C24"/>
<stop offset="1" stop-color="#205616"/>
</linearGradient>
<linearGradient id="paint12_linear" x1="2188.82" y1="717.039" x2="2186.29" y2="696.569" gradientUnits="userSpaceOnUse">
<stop offset="0.36" stop-color="#BA0449"/>
<stop offset="0.5" stop-color="#B60447"/>
<stop offset="0.64" stop-color="#AB0341"/>
<stop offset="0.77" stop-color="#990238"/>
<stop offset="0.89" stop-color="#7F012A"/>
<stop offset="1" stop-color="#62001B"/>
</linearGradient>
<linearGradient id="paint13_linear" x1="2529.8" y1="760.332" x2="2518.74" y2="721.945" gradientUnits="userSpaceOnUse">
<stop offset="0.36" stop-color="#BA0449"/>
<stop offset="0.5" stop-color="#B60447"/>
<stop offset="0.64" stop-color="#AB0341"/>
<stop offset="0.77" stop-color="#990238"/>
<stop offset="0.89" stop-color="#7F012A"/>
<stop offset="1" stop-color="#62001B"/>
</linearGradient>
<linearGradient id="paint14_linear" x1="1637.55" y1="1686.68" x2="1612.9" y2="1641.71" gradientUnits="userSpaceOnUse">
<stop offset="0.36" stop-color="#BA0449"/>
<stop offset="0.5" stop-color="#B60447"/>
<stop offset="0.64" stop-color="#AB0341"/>
<stop offset="0.77" stop-color="#990238"/>
<stop offset="0.89" stop-color="#7F012A"/>
<stop offset="1" stop-color="#62001B"/>
</linearGradient>
<linearGradient id="paint15_linear" x1="17.3275" y1="60.3431" x2="19.1047" y2="66.5339" gradientUnits="userSpaceOnUse">
<stop offset="0.36" stop-color="#00BDF2"/>
<stop offset="0.45" stop-color="#00B8EC"/>
<stop offset="0.57" stop-color="#02A9DC"/>
<stop offset="0.7" stop-color="#0490C1"/>
<stop offset="0.85" stop-color="#076E9B"/>
<stop offset="1" stop-color="#0A436C"/>
</linearGradient>
<linearGradient id="paint16_linear" x1="15.4478" y1="52.0249" x2="18.8826" y2="62.3906" gradientUnits="userSpaceOnUse">
<stop offset="0.36" stop-color="#FCAF17"/>
<stop offset="0.6" stop-color="#FCAD17"/>
<stop offset="0.73" stop-color="#FBA519"/>
<stop offset="0.84" stop-color="#F9971B"/>
<stop offset="0.93" stop-color="#F6831E"/>
<stop offset="1" stop-color="#F36E21"/>
</linearGradient>
<radialGradient id="paint17_radial" cx="0" cy="0" r="1" gradientUnits="userSpaceOnUse" gradientTransform="translate(80.5785 43.1736) scale(12.467 12.4452)">
<stop offset="0.06" stop-color="#8D5FA7"/>
<stop offset="0.26" stop-color="#895BA4"/>
<stop offset="0.46" stop-color="#7E4F99"/>
<stop offset="0.65" stop-color="#6A3C88"/>
<stop offset="0.84" stop-color="#4F2170"/>
<stop offset="1" stop-color="#330457"/>
</radialGradient>
<linearGradient id="paint18_linear" x1="56.7834" y1="67.0927" x2="56.2423" y2="69.8479" gradientUnits="userSpaceOnUse">
<stop offset="0.2" stop-color="#88C540"/>
<stop offset="0.33" stop-color="#7FBB3C"/>
<stop offset="0.54" stop-color="#66A132"/>
<stop offset="0.82" stop-color="#3E7622"/>
<stop offset="1" stop-color="#205616"/>
</linearGradient>
<linearGradient id="paint19_linear" x1="49.2474" y1="62.6855" x2="49.0041" y2="59.978" gradientUnits="userSpaceOnUse">
<stop offset="0.2" stop-color="#88C540"/>
<stop offset="0.38" stop-color="#85C23F"/>
<stop offset="0.53" stop-color="#7CB83B"/>
<stop offset="0.66" stop-color="#6CA735"/>
<stop offset="0.79" stop-color="#558F2B"/>
<stop offset="0.91" stop-color="#387020"/>
<stop offset="1" stop-color="#205616"/>
</linearGradient>
<linearGradient id="paint20_linear" x1="56.5537" y1="68.7014" x2="56.903" y2="71.521" gradientUnits="userSpaceOnUse">
<stop offset="0.2" stop-color="#88C540"/>
<stop offset="0.46" stop-color="#86C33F"/>
<stop offset="0.6" stop-color="#7EBB3C"/>
<stop offset="0.71" stop-color="#72AD37"/>
<stop offset="0.81" stop-color="#5F9A30"/>
<stop offset="0.89" stop-color="#488126"/>
<stop offset="0.97" stop-color="#2B621B"/>
<stop offset="1" stop-color="#205616"/>
</linearGradient>
<linearGradient id="paint21_linear" x1="3803.29" y1="3634.86" x2="3799.36" y2="3679.08" gradientUnits="userSpaceOnUse">
<stop offset="0.2" stop-color="#88C540"/>
<stop offset="0.33" stop-color="#7FBB3C"/>
<stop offset="0.54" stop-color="#66A132"/>
<stop offset="0.82" stop-color="#3E7622"/>
<stop offset="1" stop-color="#205616"/>
</linearGradient>
<linearGradient id="paint22_linear" x1="114.482" y1="20.6353" x2="115.774" y2="21.5775" gradientUnits="userSpaceOnUse">
<stop offset="0.16" stop-color="#00BDF2"/>
<stop offset="0.29" stop-color="#00BAEF"/>
<stop offset="0.41" stop-color="#00B2E4"/>
<stop offset="0.51" stop-color="#00A5D3"/>
<stop offset="0.61" stop-color="#0091BB"/>
<stop offset="0.7" stop-color="#00799B"/>
<stop offset="0.8" stop-color="#005A75"/>
<stop offset="0.89" stop-color="#003647"/>
<stop offset="0.97" stop-color="#000D13"/>
<stop offset="1" stop-color="#000002"/>
</linearGradient>
<linearGradient id="paint23_linear" x1="96.4104" y1="44.1934" x2="94.9632" y2="43.6691" gradientUnits="userSpaceOnUse">
<stop offset="0.16" stop-color="#00BDF2"/>
<stop offset="0.3" stop-color="#00BAEF"/>
<stop offset="0.42" stop-color="#00B2E4"/>
<stop offset="0.53" stop-color="#00A3D3"/>
<stop offset="0.64" stop-color="#008EBB"/>
<stop offset="0.74" stop-color="#00749B"/>
<stop offset="0.84" stop-color="#005375"/>
<stop offset="0.93" stop-color="#002D48"/>
<stop offset="1" stop-color="#000F24"/>
</linearGradient>
<linearGradient id="paint24_linear" x1="-12212.8" y1="-5885.69" x2="-12215.7" y2="-5882.42" gradientUnits="userSpaceOnUse">
<stop offset="0.16" stop-color="#00BDF2"/>
<stop offset="0.29" stop-color="#00BAEF"/>
<stop offset="0.41" stop-color="#00B2E4"/>
<stop offset="0.51" stop-color="#00A5D3"/>
<stop offset="0.61" stop-color="#0091BB"/>
<stop offset="0.7" stop-color="#00799B"/>
<stop offset="0.8" stop-color="#005A75"/>
<stop offset="0.89" stop-color="#003647"/>
<stop offset="0.97" stop-color="#000D13"/>
<stop offset="1" stop-color="#000002"/>
</linearGradient>
<linearGradient id="paint25_linear" x1="100.84" y1="35.2421" x2="102.378" y2="35.7498" gradientUnits="userSpaceOnUse">
<stop offset="0.36" stop-color="#00BDF2"/>
<stop offset="0.55" stop-color="#00BBF0"/>
<stop offset="0.64" stop-color="#00B5E8"/>
<stop offset="0.71" stop-color="#00AADB"/>
<stop offset="0.77" stop-color="#009AC8"/>
<stop offset="0.83" stop-color="#0085B0"/>
<stop offset="0.88" stop-color="#006C92"/>
<stop offset="0.93" stop-color="#004E6E"/>
<stop offset="0.97" stop-color="#002C46"/>
<stop offset="1" stop-color="#000F24"/>
</linearGradient>
<linearGradient id="paint26_linear" x1="-2211.73" y1="-24582.2" x2="-2194.08" y2="-24558.7" gradientUnits="userSpaceOnUse">
<stop offset="0.36" stop-color="#00BDF2"/>
<stop offset="0.45" stop-color="#00B8EC"/>
<stop offset="0.57" stop-color="#02A9DC"/>
<stop offset="0.7" stop-color="#0490C1"/>
<stop offset="0.85" stop-color="#076E9B"/>
<stop offset="1" stop-color="#0A436C"/>
</linearGradient>
</defs>
</svg>
