<svg width="293" height="180" viewBox="0 0 293 180" fill="none" xmlns="http://www.w3.org/2000/svg">
<path d="M0 2.00001C0 0.895436 0.89543 0 2 0H291C292.105 0 293 0.895431 293 2V180H0V2.00001Z" fill="#FF6347"/>
<path d="M146.999 52.5C124.082 52.5 105.332 67.5 105.332 85.8333C105.332 94.5833 109.499 102.917 116.999 108.75C116.999 111.25 115.332 117.917 105.332 127.5C105.332 127.5 119.915 127.5 132.415 117.083C136.999 118.333 141.999 119.167 146.999 119.167C169.915 119.167 188.665 104.167 188.665 85.8333C188.665 67.5 169.915 52.5 146.999 52.5ZM151.165 102.5H142.832V94.1667H151.165V102.5ZM158.665 81.6667C157.415 83.3333 155.749 84.1667 154.082 85C152.832 85.8333 152.415 86.25 151.999 87.0833C151.165 87.9167 151.165 88.75 151.165 90H142.832C142.832 87.9167 143.249 86.6667 144.082 85.4167C144.915 84.5833 146.582 83.3333 148.665 82.0833C149.915 81.6667 150.749 80.8333 151.165 80C151.582 79.1667 151.999 77.9167 151.999 77.0833C151.999 75.8333 151.582 75 150.749 74.1667C149.915 73.3333 148.665 72.9167 147.415 72.9167C146.165 72.9167 145.332 73.3333 144.499 73.75C143.665 74.1667 143.249 75 143.249 76.25H134.915C135.332 73.3333 136.582 70.8333 138.665 69.1667C140.749 67.5 143.665 67.0833 147.415 67.0833C151.165 67.0833 154.499 67.9167 156.582 69.5833C158.665 71.25 159.915 73.75 159.915 76.6667C160.332 78.3333 159.915 80 158.665 81.6667Z" fill="#001037"/>
</svg>
