<svg width="304" height="216" viewBox="0 0 304 216" fill="none" xmlns="http://www.w3.org/2000/svg">
<path opacity="0.3" d="M2 214.841L16.3062 170.426L28.4243 183.131L35.4441 174.929L52.7347 176.79L59.085 189.001L65.8396 160.294L78.102 149.573L91.732 163.671L106.376 155.914L122.128 111.324L149.712 119.977L184.607 111.324L208.811 127.647L234.534 129.49L243.71 107.946L255.409 102.273L278.045 82.0538L298.217 4.50305" stroke="white" stroke-width="3"/>
<circle cx="17.4327" cy="171.115" r="4.50304" fill="#FF6347"/>
<circle cx="52.9991" cy="175.733" r="4.50304" fill="#FF6347"/>
<circle cx="60.2101" cy="191.379" r="4.50304" fill="#FF6347"/>
<circle cx="65.839" cy="160.984" r="4.50304" fill="#FF6347"/>
<circle cx="28.6886" cy="182.373" r="4.50304" fill="#FF6347"/>
<circle cx="36.5694" cy="174.493" r="4.50304" fill="#FF6347"/>
<circle cx="78.3683" cy="149.837" r="4.50304" fill="#FF6347"/>
<circle cx="91.7316" cy="164.361" r="4.50304" fill="#FF6347"/>
<circle cx="106.376" cy="155.122" r="4.50304" fill="#FF6347"/>
<circle cx="123.253" cy="111.45" r="4.50304" fill="#FF6347"/>
<circle cx="184.044" cy="111.45" r="4.50304" fill="#FF6347"/>
<circle cx="208.812" cy="128.337" r="4.50304" fill="#FF6347"/>
<circle cx="244.835" cy="109.199" r="4.50304" fill="#FF6347"/>
<circle cx="278.609" cy="81.0547" r="4.50304" fill="#FF6347"/>
<circle cx="150.241" cy="120.242" r="4.50304" fill="#FF6347"/>
<circle cx="235.327" cy="128.697" r="4.50304" fill="#FF6347"/>
<circle cx="254.882" cy="102.273" r="4.50304" fill="#FF6347"/>
<circle cx="298.747" cy="4.50304" r="4.50304" fill="#FF6347"/>
</svg>
