<svg width="72" height="48" viewBox="0 0 72 48" fill="none" xmlns="http://www.w3.org/2000/svg">
<g clip-path="url(#clip0)">
<path d="M35.8789 -0.0700684C15.9789 -0.0700684 -0.121094 10.5499 -0.121094 23.6599C-0.121094 36.7699 15.9989 47.3899 35.8789 47.3899C55.7589 47.3899 71.8789 36.7699 71.8789 23.6599C71.8789 10.5499 55.7689 -0.0700684 35.8789 -0.0700684ZM35.8789 44.5499C18.3689 44.5499 4.16888 35.1899 4.16888 23.6599C4.16888 12.1299 18.3689 2.77991 35.8789 2.77991C53.3889 2.77991 67.5789 12.1299 67.5789 23.6599C67.5789 35.1899 53.3889 44.5399 35.8789 44.5399V44.5499Z" fill="#183562"/>
<path d="M14.3906 33.1201V32.6201H57.8506V33.1201H14.3906Z" fill="#183562"/>
<path d="M26.2114 39.6199V36.9499L25.4114 37.7299L25.1914 37.5299L26.0814 36.6399H26.5414V39.6399L26.2114 39.6199Z" fill="#183562"/>
<path d="M30.59 38.8099C30.59 39.1299 30.78 39.3099 31.36 39.3099H32.43C33.01 39.3099 33.19 39.1599 33.19 38.7899V38.0899C33.12 38.1999 32.96 38.3899 32.46 38.3899H31.36C30.56 38.3899 30.27 38.1399 30.27 37.6199V37.5399C30.27 36.9399 30.57 36.6599 31.38 36.6599H32.38C33.16 36.6599 33.47 36.9699 33.47 37.5099V38.8399C33.47 39.4099 33.16 39.6699 32.39 39.6699H31.34C30.62 39.6699 30.25 39.4299 30.25 38.8599L30.59 38.8099ZM31.36 36.9099C30.68 36.9099 30.57 37.1499 30.57 37.4799V37.5899C30.57 37.8799 30.73 38.0899 31.35 38.0899H32.43C33.11 38.0899 33.19 37.8099 33.19 37.4599C33.19 37.1099 32.99 36.9099 32.41 36.9099H31.36Z" fill="#183562"/>
<path d="M40.3095 36.6399V36.9199L37.6295 39.6199H37.1995L39.8695 36.9399H36.7695V36.6399H40.3095Z" fill="#183562"/>
<path d="M45.5586 38.6699H45.9886V38.9699H45.5986V39.6199H45.2886V38.9699H42.8086V38.6599L45.2686 36.6599H45.5986L45.5586 38.6699ZM45.2486 36.9899L43.2486 38.6699H45.2486V36.9899Z" fill="#183562"/>
<path d="M14.9901 16.8999H23.0701C25.5401 16.8999 26.6302 17.6799 26.6302 19.6599C26.6224 20.1226 26.5789 20.5839 26.5002 21.0399C25.9502 24.0399 24.5501 25.2499 21.6401 25.2499H16.3601L15.7502 28.7499H12.9102L14.9901 16.8999ZM21.5002 22.8999C23.0702 22.8999 23.7301 22.0399 23.7301 20.4499C23.7301 19.6799 23.3401 19.2699 22.1401 19.2699H17.4201L16.7601 22.8999H21.5002Z" fill="#183562"/>
<path d="M36.5581 28.7501H31.3481C28.7081 28.7501 27.5781 27.92 27.5781 25.98C27.5812 25.5502 27.6247 25.1217 27.7081 24.7L28.3481 20.98C28.9281 17.73 30.2481 16.76 33.4681 16.76H38.6781C41.1181 16.76 42.3681 17.38 42.3681 19.51C42.357 20.0037 42.3035 20.4955 42.2081 20.98L41.5581 24.7C41.0381 27.66 39.8681 28.7501 36.5581 28.7501ZM30.5081 25.16C30.5081 26.16 31.0481 26.39 32.4481 26.39H36.1981C38.0081 26.39 38.4881 26 38.7781 24.39L39.3381 21.2401C39.3925 20.9733 39.4226 20.7022 39.4281 20.4301C39.4281 19.4301 38.8281 19.11 37.4281 19.11H33.7881C32.0181 19.11 31.4381 19.5601 31.1481 21.2501L30.5881 24.41C30.5399 24.6573 30.5131 24.9082 30.5081 25.16Z" fill="#183562"/>
<path d="M47.3219 21.3199H48.9919L54.9219 16.8999H59.1919L51.1919 22.4399L57.3319 28.7499H53.1719L48.5719 23.6699H46.8919L46.0019 28.7499H43.1719L45.2519 16.8999H48.0919L47.3219 21.3199Z" fill="#183562"/>
</g>
<defs>
<clipPath id="clip0">
<rect width="72" height="48" fill="white"/>
</clipPath>
</defs>
</svg>
