<svg width="24" height="24" viewBox="0 0 24 24" fill="none" xmlns="http://www.w3.org/2000/svg">
<g clip-path="url(#clip0)">
<path d="M12.0224 24.0372C5.395 24.0372 0 18.6659 0 12.0384C0 5.41098 5.395 0.0371094 12.0224 0.0371094C18.6499 0.0371094 24.0474 5.40844 24.0474 12.0359C24.0474 18.6633 18.6499 24.0372 12.0224 24.0372ZM2.80739 12.3301C2.81755 14.7209 3.82673 17.061 5.81798 18.8559C7.90066 20.7354 10.4541 21.5921 13.2716 21.1959C15.1579 20.9318 16.8613 20.1156 18.2701 18.7847C20.197 16.9662 21.2163 14.7277 21.2332 12.0795C21.2603 7.00651 17.1153 2.8479 12.0559 2.83774C6.97615 2.83097 2.81417 6.95572 2.80739 12.3301Z" fill="#962F2C"/>
<path d="M11.4502 9.06897C10.5121 9.28909 9.81115 9.84109 9.32349 10.6505C8.81891 11.4903 9.00178 13.0989 9.60796 13.9049C10.1938 14.6804 10.9626 15.0732 11.9142 15.1138C13.2247 15.168 14.3592 14.5009 14.8536 13.3461C15.3853 12.1033 15.1855 10.9586 14.2813 9.94607C13.8614 9.47535 13.3026 9.24168 12.7134 9.07236C12.7167 8.05303 12.7168 7.03032 12.7201 6.01099C13.9156 6.12951 14.9992 6.55282 15.9102 7.32833C18.4975 9.53292 18.8835 12.9905 17.0379 15.6049C15.0365 18.436 11.1691 18.9676 8.46671 16.9764C5.80155 15.0122 5.30374 11.3752 6.93602 8.84208C7.85715 7.41299 9.11015 6.5088 10.7492 6.12274C10.9795 6.06856 11.2132 6.04824 11.4468 6.01099C11.4434 7.02693 11.4468 8.04626 11.4502 9.06897Z" fill="#962F2C"/>
<path d="M12.0662 5.50305C12.6572 5.50305 13.1364 5.02394 13.1364 4.43292C13.1364 3.84191 12.6572 3.36279 12.0662 3.36279C11.4752 3.36279 10.9961 3.84191 10.9961 4.43292C10.9961 5.02394 11.4752 5.50305 12.0662 5.50305Z" fill="#96302D"/>
</g>
<defs>
<clipPath id="clip0">
<rect width="24" height="24" fill="white"/>
</clipPath>
</defs>
</svg>
