<?xml version="1.0" encoding="utf-8"?>
<svg xmlns="http://www.w3.org/2000/svg" xmlns:xlink="http://www.w3.org/1999/xlink">
  <symbol fill="none" viewBox="0 0 24 24" id="chevron-left">
    <path d="M15 18l-6-6 6-6" stroke-width="2" stroke-linecap="round" stroke-linejoin="round"></path>
  </symbol>
  <symbol fill="none" viewBox="0 0 24 24" id="chevron-right">
    <path d="M9 18l6-6-6-6" stroke-width="2" stroke-linecap="round" stroke-linejoin="round"></path>
  </symbol>

  <symbol fill="none" stroke="none" viewBox="0 0 50 50" id="star-stop-w">
    <path d="M44.836 30.316l5.163-5.313-5.163-5.316 1.816-7.187-7.132-2.02-2.02-7.13-7.184 1.814L25 0l-5.313 5.164L12.5 3.35l-2.02 7.129-7.132 2.02 1.815 7.187L0 25.003l5.163 5.313L3.348 37.5l7.131 2.023 2.02 7.13 7.188-1.817L25 50l5.316-5.164 7.183 1.816 2.02-7.129 7.133-2.023-1.816-7.184z" fill="tomato"></path>
    <path d="M17.264 34.402c4.13 4.13 10.845 4.13 14.976 0 4.13-4.13 4.13-10.845 0-14.976-4.131-4.13-10.846-4.13-14.976 0-4.13 4.13-4.13 10.824 0 14.976zm1.504-13.493c3.304-3.304 8.663-3.304 11.989 0 3.304 3.305 3.304 8.664 0 11.99-3.305 3.303-8.664 3.303-11.99 0-3.304-3.305-3.304-8.686 0-11.99z" fill="#fff"></path>
    <path d="M24.763 33.258a6.346 6.346 0 006.354-6.354 6.346 6.346 0 00-6.354-6.355v6.355h-6.355a6.346 6.346 0 006.355 6.354zM27.94 12.5h-6.354v2.118h6.355V12.5z" fill="#fff"></path>
  </symbol>
  <symbol fill="none" stroke="none" viewBox="0 0 50 50" id="star-top-text">
    <path d="M44.836 30.316l5.163-5.313-5.163-5.316 1.816-7.187-7.132-2.02-2.02-7.13-7.184 1.814L25 0l-5.313 5.164L12.5 3.35l-2.02 7.129-7.132 2.02 1.815 7.187L0 25.003l5.163 5.313L3.348 37.5l7.131 2.023 2.02 7.13 7.188-1.817L25 50l5.316-5.164 7.183 1.816 2.02-7.129 7.133-2.023-1.816-7.184z" fill="tomato"></path>
    <path d="M12.993 29.5c-.05.05-.11.097-.18.141a4.801 4.801 0 00-.141.104l-.575-.576c.079-.06.141-.113.189-.16.157-.157.234-.322.23-.495-.006-.176-.124-.416-.353-.721-.226-.308-.611-.734-1.155-1.277l-.613-.613 2.225-2.225 3.06 3.06-.736.735-2.54-2.541-.826.825.425.424c.581.581.977 1.084 1.188 1.508.213.421.29.772.23 1.052-.056.276-.199.53-.428.759zm.287-6.482l.735-.736 2.093 2.094-.773-3.413.736-.736 3.059 3.06-.735.735-2.126-2.126.806 3.446-.736.735-3.06-3.06zm5.73-.658l.066-.065a.538.538 0 00.165-.458c-.02-.182-.139-.427-.359-.735-.22-.308-.572-.704-1.056-1.188l-.721-.721 2.225-2.225 2.536 2.536.448-.448 1.235 1.235-.66.66-.712-.712-1.984 1.985.711.712-.66.66-1.235-1.235zm2.125-2.116l-2.022-2.022-.83.83.378.377c.795.795 1.241 1.445 1.338 1.951l1.137-1.136zm-.922-4.159l2.333-2.334.524.524-1.599 1.598.703.702 1.442-1.442.524.523-1.443 1.443.787.787 1.646-1.645.523.523-2.38 2.38-3.06-3.059zm2.877-2.877l1.226-1.226c.298-.298.554-.514.768-.646.217-.135.416-.19.599-.165.182.02.364.12.547.302l.58.58c.2.2.314.402.339.603.028.198-.028.415-.17.65-.138.233-.366.508-.683.826l-.406.405.995.995-.736.735-3.059-3.06zm2.762.358c.192-.192.305-.349.34-.471.031-.126-.008-.244-.118-.354l-.49-.49c-.1-.1-.204-.13-.311-.085-.104.04-.26.165-.467.372l-.457.458 1.037 1.037.466-.467zM11.526 35.379l1.046-1.047 2.942 1.433-1.442-2.932.985-.985 3.06 3.06-.666.664-2.262-2.263-.014.014 1.49 3.036-.59.59-3.06-1.467-.018.02 2.262 2.262-.674.674-3.059-3.06zm5-5.001l.896-.895 4.162 1.956-.745.745-1.08-.533-1.116 1.118.537 1.074-.726.726-1.928-4.19zm2.583.943l-1.537-.763-.018.018.763 1.537.792-.792zm-.245-3.281l.735-.735 2.093 2.093-.773-3.413.736-.735 3.06 3.06-.736.735-2.126-2.127.806 3.446-.736.736-3.059-3.06zm1.075-1.725c-.311.311-.615.48-.91.505a.957.957 0 01-.778-.297l.59-.59c.15.12.28.18.39.184.114 0 .227-.056.34-.17.113-.113.168-.224.165-.334 0-.113-.06-.245-.179-.396l.59-.59c.22.22.318.48.296.778-.025.296-.193.599-.504.91zm6.837.026a3.544 3.544 0 01-.816.636c-.182.108-.35.178-.504.213a1.066 1.066 0 01-.495-.024 1.056 1.056 0 01-.49-.292l-1.343-1.343c-.616-.616-.451-1.397.494-2.343.242-.242.6-.531 1.075-.868l.552.552a5.895 5.895 0 00-1.094.83c-.116.116-.204.21-.264.282-.056.07-.107.151-.15.245-.098.198-.06.384.113.557l1.3 1.3c.277.277.668.163 1.174-.343.217-.217.477-.568.778-1.051l.556.556a6.94 6.94 0 01-.886 1.093zm-1.646-4.566l.735-.735 1.207 1.206a.922.922 0 00.259-.41c.031-.138.024-.331-.024-.58l-.254-1.404.825-.825.259 1.579c.04.242.057.443.047.603-.01.154-.052.316-.127.486l.01.01c.194-.12.392-.183.593-.19.205-.009.45.029.736.114l1.541.457-.825.825-1.4-.4a1.586 1.586 0 00-.462-.076.64.64 0 00-.33.075c-.097.054-.206.14-.325.26l1.33 1.329-.736.735-3.06-3.059zm3.088-3.089l.736-.735 2.093 2.093-.773-3.413.735-.736 3.06 3.06-.736.735-2.126-2.126.806 3.446-.735.735-3.06-3.059zm5.796-2.797l-2.579-.42.849-.848 1.673.362-.367-1.668.848-.849.42 2.579 2.692.429-.854.853-1.782-.387.382 1.787-.848.849-.434-2.687zM18.549 38.962l2.696-2.696 3.06 3.06-.736.735-2.54-2.541-1.226 1.225 2.54 2.541-.735.736-3.06-3.06zm3.356-3.356l1.225-1.225c.299-.299.555-.514.769-.646.217-.135.416-.19.598-.165.183.019.365.12.547.302l.58.58c.201.2.314.402.34.603.028.198-.029.415-.17.65-.139.233-.366.508-.684.825l-.405.406.995.994-.736.736-3.06-3.06zm2.762.359c.192-.192.305-.35.34-.472.031-.126-.008-.243-.118-.353l-.49-.49c-.101-.101-.205-.13-.312-.085-.103.04-.259.165-.466.372l-.458.457 1.037 1.037.467-.466zm4.681-1.589a3.598 3.598 0 01-1.06.768 1.12 1.12 0 01-.665.119 1.087 1.087 0 01-.608-.326l-1.34-1.339a1.164 1.164 0 01-.306-.504 1.156 1.156 0 01-.019-.547c.035-.154.101-.32.198-.5.098-.179.202-.333.312-.461a5.832 5.832 0 01.73-.722c.116-.097.258-.195.425-.292a2.01 2.01 0 01.532-.212c.16-.035.33-.028.51.019.185.047.36.152.523.316l1.338 1.338c.17.17.27.362.302.575.035.211.005.426-.09.646-.17.396-.43.77-.782 1.122zm-.514-.532c.104-.104.187-.194.25-.27.063-.08.12-.17.174-.268a.444.444 0 00.062-.278.448.448 0 00-.137-.26l-1.344-1.343c-.144-.144-.304-.188-.48-.132-.18.054-.392.203-.637.448s-.396.456-.452.632c-.057.176-.011.338.136.485l1.344 1.344a.447.447 0 00.26.137.483.483 0 00.287-.071c.097-.054.185-.11.264-.17.078-.066.17-.15.273-.255zm1.733-1.827l.066-.066a.538.538 0 00.165-.458c-.02-.182-.139-.427-.359-.735-.22-.308-.572-.704-1.055-1.188l-.722-.721 2.225-2.225 2.536 2.536.448-.448 1.235 1.235-.66.66-.712-.712-1.984 1.985.712.712-.66.66-1.235-1.235zm2.126-2.117l-2.023-2.022-.83.83.378.377c.795.795 1.241 1.445 1.339 1.951l1.136-1.136zm-.113-4.97l.897-.895 4.162 1.956-.745.745-1.08-.533-1.117 1.117.538 1.075-.726.726-1.928-4.19zm2.584.943l-1.537-.764-.018.02.763 1.536.792-.792zm2.051-1.457a2.377 2.377 0 01-.118-.73c.01-.204.074-.404.193-.599l-.01-.01a1.212 1.212 0 01-.466.118c-.145 0-.338-.026-.58-.08l-1.504-.334.816-.816 1.334.325c.248.06.43.085.547.076.12-.013.23-.07.33-.17l-1.221-1.22.721-.722 1.221 1.22c.1-.1.156-.208.165-.324.013-.12-.011-.304-.07-.552l-.326-1.334.816-.816.334 1.504c.054.242.08.435.08.58a1.228 1.228 0 01-.117.467l.009.01a1.2 1.2 0 01.594-.19c.204-.009.45.029.735.114l1.542.457-.816.816-1.4-.401a2.686 2.686 0 00-.462-.104.512.512 0 00-.287.043 1.038 1.038 0 00-.302.226l1.343 1.343-.72.722-1.344-1.344a1.037 1.037 0 00-.227.302.512.512 0 00-.042.287c.01.104.044.258.104.462l.4 1.4-.815.816-.457-1.542z" fill="#fff"></path>
  </symbol>

  <symbol fill="none" stroke="none" viewBox="0 0 83 62" id="quote">
    <g opacity=".1" clip-path="url(#clip0)">
      <path d="M33.261 0v24.625c0 19-12.431 34.236-29.929 37.7L.017 55.157c8.1-3.055 13.31-14.472 13.31-21.839H0V0h33.261zm50.228 0v24.625c0 19-12.487 34.24-29.986 37.7l-3.318-7.167C58.291 52.1 63.5 40.684 63.5 33.318H50.228V0h33.261z" fill="#fff"></path>
    </g>
    <defs>
      <clipPath id="clip0">
        <path fill="#fff" d="M0 0h83v62H0z"></path>
      </clipPath>
    </defs>
  </symbol>

  <symbol fill="none" viewBox="0 0 24 24" id="arrow-right">
    <path d="M4 12h16m-6-6l6 6-6 6" stroke-width="2" stroke-linecap="round" stroke-linejoin="round"></path>
  </symbol>

  <symbol fill="none" viewBox="0 0 24 24" id="burger">
    <path d="M3 12h18M3 6h18M3 18h18" stroke-width="2" stroke-linecap="round" stroke-linejoin="round"></path>
  </symbol>

  <symbol fill="none" viewBox="0 0 24 24" id="envelope">
    <path clip-rule="evenodd" d="M4 4h16c1.1 0 2 .9 2 2v12c0 1.1-.9 2-2 2H4c-1.1 0-2-.9-2-2V6c0-1.1.9-2 2-2z" stroke-width="2" stroke-linecap="round" stroke-linejoin="round"></path>
    <path d="M22 6l-10 7L2 6" stroke-width="2" stroke-linecap="round" stroke-linejoin="round"></path>
  </symbol>

  <symbol stroke="none" viewBox="0 0 30 30" id="fb">
    <path fill-rule="evenodd" clip-rule="evenodd" d="M5 0a5 5 0 00-5 5v20a5 5 0 005 5h20a5 5 0 005-5V5a5 5 0 00-5-5H5zm12.068 16.606V25.5h-3.574v-8.894H10.5v-3.467h2.995V10.58c0-2.967 1.808-4.58 4.455-4.58 1.265 0 2.352.09 2.673.134v3.11h-1.836c-1.443 0-1.72.677-1.72 1.684v2.21H20.5l-.445 3.468h-2.986z"></path>
  </symbol>

  <symbol fill="none" viewBox="0 0 24 24" id="globe">
    <path clip-rule="evenodd" d="M12 22c5.523 0 10-4.477 10-10S17.523 2 12 2 2 6.477 2 12s4.477 10 10 10z" stroke-width="2" stroke-linecap="round" stroke-linejoin="round"></path>
    <path d="M2 12h20" stroke-width="2" stroke-linecap="round" stroke-linejoin="round"></path>
    <path clip-rule="evenodd" d="M12 2a15.3 15.3 0 014 10 15.3 15.3 0 01-4 10 15.3 15.3 0 01-4-10 15.3 15.3 0 014-10v0z" stroke-width="2" stroke-linecap="round" stroke-linejoin="round"></path>
  </symbol>

  <symbol stroke="none" viewBox="0 0 30 30" id="insta">
    <path d="M8.7 0h12.6C26.1 0 30 3.9 30 8.7v12.6c0 4.8-3.9 8.7-8.7 8.7H8.7C3.9 30 0 26.1 0 21.3V8.7C0 3.9 3.9 0 8.7 0zm-.3 3A5.397 5.397 0 003 8.4v13.2C3 24.585 5.415 27 8.4 27h13.2c2.985 0 5.4-2.415 5.4-5.4V8.4C27 5.415 24.585 3 21.6 3H8.4zm14.475 2.25a1.876 1.876 0 11-.001 3.751 1.876 1.876 0 01.001-3.751zM15 7.5c4.14 0 7.5 3.36 7.5 7.5 0 4.14-3.36 7.5-7.5 7.5-4.14 0-7.5-3.36-7.5-7.5 0-4.14 3.36-7.5 7.5-7.5zm0 3c-2.49 0-4.5 2.01-4.5 4.5s2.01 4.5 4.5 4.5 4.5-2.01 4.5-4.5-2.01-4.5-4.5-4.5z"></path>
  </symbol>

  <symbol fill="none" viewBox="0 0 24 24" id="search">
    <path clip-rule="evenodd" d="M10.5 18a7.5 7.5 0 100-15 7.5 7.5 0 000 15z" stroke-width="2" stroke-linecap="round" stroke-linejoin="round"></path>
    <path d="M21 21l-5.2-5.2" stroke-width="2" stroke-linecap="round" stroke-linejoin="round"></path>
  </symbol>

  <symbol stroke="none" viewBox="0 0 30 30" id="vk">
    <path d="M19.605 0h-9.21C1.995 0 0 1.995 0 10.395v9.21C0 28.005 1.995 30 10.395 30h9.21C28.005 30 30 28.005 30 19.605v-9.21C30 1.995 28.005 0 19.605 0zm4.62 21.405h-2.19c-.825 0-1.08-.675-2.535-2.16-1.32-1.245-1.89-1.425-2.205-1.425-.435 0-.57.12-.57.75v1.965c0 .525-.165.855-1.56.855-2.31 0-4.875-1.41-6.675-4.005-2.715-3.81-3.45-6.69-3.45-7.26 0-.315.105-.615.735-.615H7.98c.555 0 .765.24.975.84 1.08 3.15 2.88 5.85 3.615 5.85.285 0 .405-.135.405-.825V12.15c-.075-1.47-.87-1.605-.87-2.13 0-.27.21-.51.555-.51h3.435c.465 0 .63.24.63.81v4.335c0 .465.195.63.345.63.27 0 .51-.165 1.005-.675 1.575-1.755 2.7-4.47 2.7-4.47.15-.315.39-.615.975-.615h2.145c.66 0 .81.345.66.81-.27 1.275-2.94 5.04-2.91 5.04-.24.375-.33.54 0 .975.225.315.99.975 1.5 1.56.93 1.065 1.65 1.95 1.845 2.565.165.615-.135.93-.765.93z"></path>
  </symbol>

  <symbol stroke="none" viewBox="0 0 30 30" id="yd">
    <path d="M17.893 17.893C15.536 20.325 15.364 23.357 15.16 30c6.193 0 10.468-.021 12.675-2.164C29.979 25.629 30 21.15 30 15.16c-6.643.214-9.675.375-12.107 2.732zM0 15.16c0 5.989.021 10.468 2.164 12.675C4.371 29.979 8.646 30 14.84 30c-.214-6.643-.375-9.675-2.732-12.107C9.675 15.536 6.643 15.364 0 15.16zM14.84 0C8.656 0 4.37.021 2.163 2.164.021 4.371 0 8.85 0 14.84c6.643-.214 9.675-.375 12.107-2.732C14.464 9.675 14.636 6.643 14.84 0zm3.053 12.107C15.536 9.675 15.364 6.643 15.16 0c6.193 0 10.468.021 12.675 2.164C29.979 4.371 30 8.85 30 14.84c-6.643-.214-9.675-.375-12.107-2.732z"></path>
  </symbol>

  <symbol fill="none" viewBox="0 0 24 24" id="close">
    <path d="M18 6L6 18M6 6l12 12" stroke-width="2" stroke-linecap="round" stroke-linejoin="round"></path>
  </symbol>

   <symbol fill="none"  viewBox="0 0 24 24" id="download">
    <path d="M3 17v3a2 2 0 002 2h14a2 2 0 002-2v-3M8 12l4 4 4-4M12 2v14"  stroke-width="2" stroke-linecap="round" stroke-linejoin="round"></path>
  </symbol>
  <symbol fill="none"  viewBox="0 0 32 32" id="loader">
    <path d="M16 2.667V8m0 16v5.333M6.573 6.573l3.774 3.774m11.306 11.306l3.774 3.774M2.667 16H8m16 0h5.333m-22.76 9.427l3.774-3.774m11.306-11.306l3.774-3.774" stroke-width="2" stroke-linecap="round" stroke-linejoin="round"></path>
  </symbol>

  <symbol fill="none" stroke="none" viewBox="0 0 24 24" id="excel">
    <path d="M16.2 17h-2L12 13.2 9.8 17h-2l3.2-5-3.2-5h2l2.2 3.8L14.2 7h2L13 12l3.2 5zM19 3H5c-1.11 0-2 .89-2 2v14c0 1.1.9 2 2 2h14c1.1 0 2-.9 2-2V5a2 2 0 00-2-2z" fill="#1D6F42"></path>
  </symbol>
  <symbol fill="none" stroke="none" viewBox="0 0 24 24" id="file">
    <path d="M6 4h6.616L19 9.745V19.2c0 .345-.346.8-1 .8H6c-.654 0-1-.455-1-.8V4.8c0-.345.346-.8 1-.8z" fill="#fff" stroke="#007AC2" stroke-width="2" stroke-linecap="round" stroke-linejoin="round"></path>
    <mask id="a" fill="#fff">
      <path fill-rule="evenodd" clip-rule="evenodd" d="M12 4v5.3a1 1 0 001 1h6"></path>
    </mask>
    <path fill-rule="evenodd" clip-rule="evenodd" d="M12 4v5.3a1 1 0 001 1h6" fill="#fff"></path>
    <path d="M14 4a2 2 0 10-4 0h4zm5 8.3a2 2 0 000-4v4zM10 4v5.3h4V4h-4zm3 8.3h6v-4h-6v4zm-3-3a3 3 0 003 3v-4a1 1 0 011 1h-4z" fill="#007AC2" mask="url(#a)"></path>
  </symbol>
  <symbol stroke="none" fill="none" viewBox="0 0 24 24" id="jpeg">
    <path d="M8.5 13.5l2.5 3 3.5-4.5 4.5 6H5l3.5-4.5zM21 19V5a2 2 0 00-2-2H5c-1.1 0-2 .9-2 2v14c0 1.1.9 2 2 2h14c1.1 0 2-.9 2-2z" fill="#007AC2"></path>
  </symbol>
  <symbol stroke="none" fill="none" viewBox="0 0 24 24" id="pdf">
    <path d="M19 3c1.1 0 2 .9 2 2v14c0 1.1-.9 2-2 2H5a2 2 0 01-2-2V5c0-1.11.89-2 2-2h14zm-8.41 7.08c-.02.05-.29 1.76-2.09 4.69 0 0-3.5 1.81-2.67 3.17.67 1.06 2.32-.04 3.73-2.67 0 0 1.82-.64 4.23-.82 0 0 3.86 1.74 4.38-.11.52-1.84-3.05-1.44-3.67-1.25 0 0-2.04-1.34-2.5-3.2 0 0 1.13-3.94-.62-3.89-1.75.05-1.09 3.12-.79 4.08zm.81 1.05c.03 0 .47 1.2 1.89 2.45 0 0-2.33.46-3.39.92 0 0 1-1.75 1.5-3.37zm3.92 2.71c.58-.15 2.32.16 2.26.48-.08.33-2.26-.48-2.26-.48zM8.26 15.7c-.53 1.21-1.43 1.98-1.66 1.97-.23-.01.7-1.6 1.66-1.97zm3.14-6.94c-.01-.05-.37-2.19 0-2.15.54.06 0 2.1 0 2.15z" fill="#F40F02"></path>
  </symbol>
  <symbol stroke="none" fill="none" viewBox="0 0 24 24" id="word">
    <path d="M15.5 17H14l-2-7.5-2 7.5H8.5L6.1 7h1.7l1.54 7.5L11.3 7h1.4l1.97 7.5L16.2 7h1.7l-2.4 10zM19 3H5c-1.11 0-2 .89-2 2v14c0 1.1.9 2 2 2h14c1.1 0 2-.9 2-2V5a2 2 0 00-2-2z" fill="#2F5C98"></path>
  </symbol>

  <symbol stroke="none" viewBox="0 0 22 26" id="play">
    <path d="M21 11.268c1.333.77 1.333 2.694 0 3.464L3 25.124c-1.333.77-3-.192-3-1.732V2.608C0 1.068 1.667.106 3 .876l18 10.392z"></path>
  </symbol>

  <symbol stroke="none" viewBox="0 0 12 12" id="link">
    <path fill-rule="evenodd" clip-rule="evenodd" d="M6.27 1.255a3.167 3.167 0 014.478 4.478l-.008.008-1.5 1.5A3.167 3.167 0 014.465 6.9a.667.667 0 011.068-.798 1.833 1.833 0 002.764.198l1.496-1.496A1.833 1.833 0 007.2 2.21l-.856.852a.667.667 0 01-.94-.946l.86-.855.007-.007z"></path>
    <path fill-rule="evenodd" clip-rule="evenodd" d="M2.76 4.759a3.167 3.167 0 014.776.342.667.667 0 11-1.068.798 1.833 1.833 0 00-2.765-.198L2.208 7.197A1.833 1.833 0 004.8 9.789l.85-.85a.667.667 0 11.943.942l-.855.855-.008.009a3.167 3.167 0 01-4.478-4.478l.008-.008 1.5-1.5z"></path>
  </symbol>

  <symbol stroke="none" viewBox="0 0 10 8" id="angle-arrow-down">
    <path d="M4.178 6.814a1 1 0 001.644 0l3.287-4.745A1 1 0 008.287.5H1.713a1 1 0 00-.822 1.57l3.287 4.744z"></path>
  </symbol>

  <symbol fill="none" viewBox="0 0 24 24" id="list">
    <path d="M17 10H3m18-4H3m18 8H3m14 4H3" stroke-width="2" stroke-linecap="round" stroke-linejoin="round"></path>
  </symbol>

  <symbol stroke="none" viewBox="0 0 24 24" id="group">
    <path d="M12 5.5C12.9283 5.5 13.8185 5.86875 14.4749 6.52513C15.1313 7.1815 15.5 8.07174 15.5 9C15.5 9.92826 15.1313 10.8185 14.4749 11.4749C13.8185 12.1313 12.9283 12.5 12 12.5C11.0717 12.5 10.1815 12.1313 9.52513 11.4749C8.86875 10.8185 8.5 9.92826 8.5 9C8.5 8.07174 8.86875 7.1815 9.52513 6.52513C10.1815 5.86875 11.0717 5.5 12 5.5ZM5 8C5.56 8 6.08 8.15 6.53 8.42C6.38 9.85 6.8 11.27 7.66 12.38C7.16 13.34 6.16 14 5 14C4.20435 14 3.44129 13.6839 2.87868 13.1213C2.31607 12.5587 2 11.7956 2 11C2 10.2044 2.31607 9.44129 2.87868 8.87868C3.44129 8.31607 4.20435 8 5 8ZM19 8C19.7956 8 20.5587 8.31607 21.1213 8.87868C21.6839 9.44129 22 10.2044 22 11C22 11.7956 21.6839 12.5587 21.1213 13.1213C20.5587 13.6839 19.7956 14 19 14C17.84 14 16.84 13.34 16.34 12.38C17.2 11.27 17.62 9.85 17.47 8.42C17.92 8.15 18.44 8 19 8ZM5.5 18.25C5.5 16.18 8.41 14.5 12 14.5C15.59 14.5 18.5 16.18 18.5 18.25V20H5.5V18.25ZM0 20V18.5C0 17.11 1.89 15.94 4.45 15.6C3.86 16.28 3.5 17.22 3.5 18.25V20H0ZM24 20H20.5V18.25C20.5 17.22 20.14 16.28 19.55 15.6C22.11 15.94 24 17.11 24 18.5V20Z"></path>
  </symbol>
</svg>