<svg width="148" height="30" viewBox="0 0 148 30" fill="none" xmlns="http://www.w3.org/2000/svg">
<path d="M0 23.6121V0H3.69537C5.83891 0 7.40702 0.139185 8.3984 0.41686C9.80696 0.791268 10.9265 1.4872 11.7583 2.50325C12.5901 3.5207 13.006 4.71839 13.006 6.09911C13.006 6.99755 12.8163 7.81457 12.4393 8.54669C12.0611 9.2795 11.4454 9.96638 10.5935 10.6087C12.0209 11.2831 13.065 12.1258 13.7247 13.137C14.3856 14.1482 14.7148 15.3431 14.7148 16.7245C14.7148 18.0523 14.3743 19.2598 13.692 20.3517C13.0098 21.4436 12.1302 22.2592 11.0521 22.7993C9.97531 23.3393 8.48763 23.6093 6.58905 23.6093H0V23.6121ZM4.47441 4.28621V9.2621H5.45317C6.54382 9.2621 7.35298 9.03244 7.88324 8.57174C8.41225 8.11103 8.67613 7.48609 8.67613 6.69342C8.67613 5.95505 8.42479 5.36977 7.92218 4.93691C7.41963 4.50335 6.65563 4.28621 5.62907 4.28621H4.47441ZM4.47441 13.2748V19.3259H5.59644C7.45476 19.3259 8.70751 19.0907 9.35333 18.6188C9.99921 18.1477 10.3234 17.4629 10.3234 16.5651C10.3234 15.5477 9.94392 14.7467 9.18498 14.1579C8.42728 13.5699 7.16704 13.2748 5.40419 13.2748H4.47441Z" fill="white"/>
<path d="M16.8711 6.14844H21.2336V12.6825L27.2397 6.14844H32.5647L24.8234 14.6568L32.6614 23.6106H26.8765L21.6922 17.4426L21.2336 17.9924V23.6106H16.8711V6.14844Z" fill="white"/>
<path d="M34.1523 6.14844H38.6104L43.125 17.1051L48.108 6.14844H52.5786L41.6913 29.9999H37.1856L40.7602 22.3079L34.1523 6.14844Z" fill="white"/>
<path d="M71.536 9.67893L67.9044 11.6853C67.222 10.9685 66.5486 10.4716 65.8815 10.1925C65.2143 9.91345 64.4343 9.77565 63.5378 9.77565C61.907 9.77565 60.5865 10.2642 59.5785 11.2427C58.5698 12.2191 58.0662 13.4717 58.0662 15C58.0662 16.4858 58.5511 17.6988 59.5224 18.6376C60.4923 19.5778 61.7663 20.0489 63.3445 20.0489C65.2975 20.0489 66.8174 19.3801 67.9044 18.0405L71.3448 20.4073C69.4798 22.8424 66.8493 24.0603 63.4512 24.0603C60.3946 24.0603 57.9997 23.1514 56.2677 21.3315C54.5365 19.511 53.6719 17.3828 53.6719 14.9422C53.6719 13.2518 54.0931 11.6943 54.9348 10.2705C55.7765 8.84798 56.9501 7.72824 58.4583 6.91539C59.9658 6.10255 61.652 5.69543 63.5156 5.69543C65.242 5.69543 66.7911 6.04061 68.1656 6.73028C69.5394 7.42412 70.6624 8.40608 71.536 9.67893Z" fill="white"/>
<path d="M75.1289 23.6121V0H78.8242C80.9677 0 82.5355 0.139185 83.5268 0.41686C84.9346 0.791268 86.0555 1.4872 86.8868 2.50325C87.7188 3.5207 88.1345 4.71839 88.1345 6.09911C88.1345 6.99755 87.9447 7.81457 87.5664 8.54669C87.1896 9.2795 86.5751 9.96638 85.7222 10.6087C87.1494 11.2831 88.1941 12.1258 88.8536 13.137C89.5145 14.1482 89.845 15.3431 89.845 16.7245C89.845 18.0523 89.5041 19.2598 88.8211 20.3517C88.1387 21.4436 87.2588 22.2592 86.1823 22.7993C85.105 23.3393 83.6176 23.6093 81.72 23.6093H75.1289V23.6121ZM79.6029 4.28621V9.2621H80.5804C81.6715 9.2621 82.4814 9.03244 83.0121 8.57174C83.5407 8.11103 83.8046 7.48609 83.8046 6.69342C83.8046 5.95505 83.5538 5.36977 83.0509 4.93691C82.5486 4.50335 81.7845 4.28621 80.7578 4.28621H79.6029ZM79.6029 13.2748V19.3259H80.7252C82.5832 19.3259 83.8365 19.0907 84.4822 18.6188C85.1278 18.1477 85.4521 17.4629 85.4521 16.5651C85.4521 15.5477 85.0738 14.7467 84.3152 14.1579C83.5573 13.5699 82.2944 13.2748 80.534 13.2748H79.6029Z" fill="white"/>
<path d="M95.2215 23.612H92.9062V6.14844H97.1558V16.405L106.055 6.14844H108.148V23.6106H103.898V13.5635L95.2215 23.612Z" fill="white"/>
<path d="M128.41 23.6121H123.969L119.619 12.599L115.189 23.6121H110.762L118.177 6.14917H120.989L128.41 23.6121Z" fill="white"/>
<path d="M148 23.6121H143.559L139.207 12.599L134.778 23.6121H130.352L137.768 6.14917H140.58L148 23.6121Z" fill="white"/>
</svg>
