<svg width="202" height="60" viewBox="0 0 202 60" fill="none" xmlns="http://www.w3.org/2000/svg">
<path d="M185.914 0H16.0951C15.4761 0 14.8645 3.49245e-10 14.2471 0.00319499C13.7303 0.00619498 13.2177 0.01491 12.6959 0.0222449C11.5624 0.0340976 10.4315 0.122709 9.31319 0.287309C8.19641 0.455492 7.11462 0.772566 6.10439 1.22781C5.0954 1.6869 4.17346 2.28344 3.37202 2.99579C2.56636 3.70614 1.89478 4.5272 1.38311 5.42742C0.870026 6.32584 0.514251 7.28858 0.328074 8.28239C0.140127 9.27494 0.0389914 10.2789 0.0255741 11.2854C0.00990891 11.7453 0.00825461 12.2067 0 12.6667V47.3379C0.00825461 47.8037 0.00990891 48.2549 0.0255741 48.7208C0.0389955 49.7272 0.140131 50.7311 0.328074 51.7236C0.513737 52.718 0.869533 53.6813 1.38311 54.5801C1.89455 55.4774 2.56622 56.2951 3.37202 57.0015C4.17042 57.717 5.09296 58.314 6.10439 58.7696C7.11461 59.226 8.19629 59.545 9.31319 59.7158C10.4317 59.879 11.5625 59.9677 12.6959 59.9809C13.2177 59.9911 13.7303 59.997 14.2471 59.997C14.8645 60 15.4761 60 16.0951 60H185.914C186.521 60 187.137 60 187.744 59.997C188.258 59.997 188.786 59.9911 189.3 59.9809C190.431 59.9684 191.56 59.8797 192.676 59.7158C193.797 59.5438 194.882 59.2249 195.897 58.7696C196.908 58.3137 197.83 57.7168 198.627 57.0015C199.431 56.2923 200.104 55.4752 200.622 54.5801C201.132 53.6807 201.484 52.7174 201.667 51.7236C201.855 50.731 201.96 49.7273 201.98 48.7208C201.987 48.2549 201.987 47.8037 201.987 47.3379C202 46.793 202 46.251 202 45.6972V14.3043C202 13.755 202 13.2101 201.987 12.6667C201.987 12.2067 201.987 11.7453 201.98 11.2853C201.96 10.2788 201.855 9.27502 201.667 8.28233C201.483 7.28909 201.131 6.32643 200.622 5.42736C199.58 3.62298 197.928 2.15423 195.897 1.22767C194.882 0.773544 193.797 0.456554 192.676 0.287174C191.56 0.121849 190.431 0.0332065 189.3 0.0220349C188.786 0.014715 188.258 0.00592498 187.744 0.00299999C187.137 0 186.521 0 185.914 0Z" fill="#A6A6A6"/>
<path d="M14.2558 58.6876C13.7415 58.6876 13.2396 58.6817 12.7293 58.6715C11.6722 58.6593 10.6176 58.5775 9.57409 58.4269C8.60107 58.278 7.65848 58.001 6.77741 57.605C5.90442 57.2123 5.10818 56.6975 4.41919 56.0801C3.72024 55.47 3.13832 54.7624 2.69651 53.9854C2.24983 53.2033 1.94071 52.3649 1.7799 51.4996C1.60624 50.5698 1.51228 49.6296 1.49883 48.6871C1.48813 48.3707 1.47412 47.3174 1.47412 47.3174V12.6667C1.47412 12.6667 1.48904 11.6296 1.49892 11.3249C1.51179 10.3839 1.6052 9.4452 1.77834 8.51682C1.93945 7.6491 2.24882 6.80835 2.69574 6.02367C3.13592 5.24715 3.71461 4.53902 4.40935 3.92676C5.10332 3.30867 5.90211 2.79115 6.77658 2.39306C7.65563 1.99838 8.59644 1.72334 9.56748 1.57715C10.6144 1.425 11.6727 1.34274 12.7335 1.33106L14.2566 1.31274H187.736L189.277 1.33179C190.328 1.34289 191.377 1.42442 192.414 1.57568C193.395 1.72371 194.346 2.00067 195.235 2.39745C196.987 3.19972 198.412 4.46898 199.312 6.02733C199.751 6.80659 200.056 7.64048 200.215 8.50071C200.39 9.4367 200.488 10.3828 200.509 11.3315C200.513 11.7563 200.513 12.2126 200.513 12.6667C200.527 13.2292 200.527 13.7646 200.527 14.3044V45.6973C200.527 46.2422 200.527 46.774 200.513 47.3101C200.513 47.7979 200.513 48.2447 200.507 48.7046C200.487 49.6364 200.391 50.5656 200.218 51.4849C200.061 52.3565 199.753 53.2013 199.307 53.9899C198.862 54.7585 198.283 55.46 197.592 56.0684C196.903 56.6891 196.105 57.207 195.23 57.6022C194.344 58.0012 193.394 58.2792 192.414 58.4269C191.371 58.5783 190.316 58.6601 189.259 58.6715C188.765 58.6817 188.247 58.6876 187.744 58.6876L185.914 58.6906L14.2558 58.6876Z" fill="black"/>
<path d="M37.2578 30.4511C37.2907 27.9064 38.6285 25.5559 40.8026 24.2231C39.4248 22.2609 37.1999 21.0615 34.799 20.9866C32.2731 20.7222 29.8243 22.4938 28.5371 22.4938C27.225 22.4938 25.2433 21.0128 23.1092 21.0566C20.3013 21.1471 17.7471 22.7004 16.381 25.1484C13.4718 30.171 15.6418 37.5525 18.4285 41.6124C19.8228 43.6005 21.4522 45.8211 23.5844 45.7424C25.6708 45.6561 26.4501 44.4157 28.9686 44.4157C31.4637 44.4157 32.1948 45.7424 34.3702 45.6923C36.609 45.6561 38.0196 43.6955 39.3649 41.6886C40.3667 40.2721 41.1375 38.7065 41.6489 37.0499C38.9899 35.9284 37.2609 33.3302 37.2578 30.4511Z" fill="white"/>
<path d="M33.1491 18.3165C34.3699 16.8552 34.9712 14.9769 34.8256 13.0806C32.9606 13.2759 31.2379 14.1647 30.0007 15.57C28.7791 16.9564 28.1602 18.7703 28.2804 20.612C30.1703 20.6314 31.9648 19.7854 33.1491 18.3165Z" fill="white"/>
<path d="M63.6313 40.7097H56.5113L54.8014 45.7444H51.7856L58.5296 27.1175H61.6629L68.4069 45.7444H65.3397L63.6313 40.7097ZM57.2487 38.3865H62.8925L60.1103 30.2156H60.0324L57.2487 38.3865Z" fill="white"/>
<path d="M82.972 38.9549C82.972 43.1751 80.7069 45.8865 77.2886 45.8865C75.5217 45.9787 73.8574 45.0558 73.0037 43.5105H72.939V50.2371H70.1436V32.1639H72.8494V34.4227H72.9008C73.7925 32.8871 75.4586 31.9646 77.2372 32.0218C80.6936 32.0218 82.972 34.7464 82.972 38.9549ZM80.0987 38.9549C80.0987 36.2054 78.6738 34.3978 76.4998 34.3978C74.3639 34.3978 72.9273 36.2435 72.9273 38.9549C72.9273 41.6912 74.3639 43.5237 76.4998 43.5237C78.6738 43.5237 80.0987 41.7293 80.0987 38.9549Z" fill="white"/>
<path d="M97.9613 38.9549C97.9613 43.1751 95.6961 45.8865 92.2779 45.8865C90.511 45.9787 88.8467 45.0558 87.9929 43.5105H87.9282V50.2371H85.1328V32.1639H87.8386V34.4227H87.89C88.7817 32.887 90.4478 31.9646 92.2264 32.0218C95.6829 32.0218 97.9613 34.7464 97.9613 38.9549ZM95.088 38.9549C95.088 36.2054 93.6631 34.3978 91.489 34.3978C89.3532 34.3978 87.9165 36.2435 87.9165 38.9549C87.9165 41.6912 89.3532 43.5237 91.489 43.5237C93.6631 43.5237 95.088 41.7293 95.088 38.9549Z" fill="white"/>
<path d="M107.868 40.5545C108.075 42.4016 109.875 43.6145 112.334 43.6145C114.69 43.6145 116.385 42.4016 116.385 40.736C116.385 39.2902 115.363 38.4246 112.942 37.8313L110.521 37.2497C107.091 36.4236 105.498 34.824 105.498 32.2283C105.498 29.0144 108.307 26.8069 112.295 26.8069C116.242 26.8069 118.948 29.0144 119.039 32.2283H116.217C116.049 30.3694 114.508 29.2473 112.256 29.2473C110.004 29.2473 108.463 30.3826 108.463 32.0349C108.463 33.3518 109.447 34.1267 111.855 34.7199L113.913 35.2238C117.745 36.1276 119.337 37.6628 119.337 40.3874C119.337 43.8722 116.554 46.0548 112.126 46.0548C107.984 46.0548 105.187 43.9235 105.006 40.5543L107.868 40.5545Z" fill="white"/>
<path d="M125.37 28.95V32.1638H127.96V34.3713H125.37V41.8581C125.37 43.0212 125.889 43.5632 127.027 43.5632C127.335 43.5578 127.642 43.5363 127.947 43.4987V45.693C127.435 45.7884 126.915 45.8316 126.394 45.8219C123.637 45.8219 122.562 44.7892 122.562 42.1554V34.3713H120.582V32.1638H122.562V28.95H125.37Z" fill="white"/>
<path d="M129.46 38.9548C129.46 34.6819 131.984 31.9968 135.919 31.9968C139.868 31.9968 142.379 34.6818 142.379 38.9548C142.379 43.2395 139.881 45.9128 135.919 45.9128C131.959 45.9128 129.46 43.2395 129.46 38.9548ZM139.531 38.9548C139.531 36.0237 138.184 34.2937 135.919 34.2937C133.654 34.2937 132.308 36.0369 132.308 38.9548C132.308 41.8977 133.654 43.6145 135.919 43.6145C138.184 43.6145 139.531 41.8977 139.531 38.9548Z" fill="white"/>
<path d="M144.684 32.164H147.35V34.4755H147.415C147.787 32.9875 149.154 31.9634 150.691 32.0219C151.013 32.0208 151.334 32.0557 151.648 32.1259V34.7333C151.242 34.6094 150.818 34.5525 150.392 34.5649C149.571 34.5316 148.775 34.8582 148.215 35.459C147.655 36.0597 147.386 36.8744 147.48 37.6894V45.7445H144.684V32.164Z" fill="white"/>
<path d="M164.537 41.7556C164.161 44.2209 161.753 45.9128 158.673 45.9128C154.711 45.9128 152.252 43.2658 152.252 39.0193C152.252 34.7595 154.724 31.9968 158.555 31.9968C162.323 31.9968 164.693 34.5779 164.693 38.6955V39.6506H155.074V39.8191C154.984 40.8301 155.334 41.8309 156.035 42.5669C156.736 43.3028 157.72 43.7031 158.737 43.6657C160.094 43.7925 161.373 43.0157 161.882 41.7556L164.537 41.7556ZM155.087 37.7024H161.896C161.946 36.7939 161.615 35.9055 160.981 35.2512C160.347 34.5969 159.467 34.2361 158.555 34.2556C157.636 34.2501 156.752 34.6111 156.101 35.2584C155.45 35.9056 155.085 36.7855 155.087 37.7024Z" fill="white"/>
<path d="M56.8982 13.0964C58.085 13.0114 59.2474 13.4617 60.0655 14.3232C60.8835 15.1846 61.2711 16.3666 61.1215 17.5436C61.1215 20.403 59.5717 22.0466 56.8982 22.0466H53.6562V13.0964H56.8982ZM55.0503 20.7808H56.7425C57.5906 20.8314 58.4164 20.4982 58.9906 19.8737C59.5648 19.2492 59.8263 18.4 59.7025 17.5618C59.8173 16.7271 59.5521 15.8849 58.9793 15.2655C58.4065 14.6462 57.5861 14.3145 56.7425 14.3612H55.0503V20.7808Z" fill="white"/>
<path d="M62.6958 18.6664C62.5797 17.4558 63.1618 16.2841 64.1981 15.6428C65.2344 15.0015 66.5457 15.0015 67.582 15.6428C68.6183 16.2841 69.2005 17.4558 69.0843 18.6664C69.2027 19.8784 68.621 21.0523 67.5838 21.695C66.5466 22.3376 65.2335 22.3376 64.1963 21.695C63.1591 21.0523 62.5775 19.8784 62.6958 18.6664ZM67.7094 18.6664C67.7094 17.2023 67.0498 16.3461 65.8923 16.3461C64.7303 16.3461 64.0767 17.2023 64.0767 18.6664C64.0767 20.1423 64.7304 20.9919 65.8923 20.9919C67.0498 20.9919 67.7094 20.1364 67.7094 18.6664Z" fill="white"/>
<path d="M77.5767 22.0466H76.19L74.7901 17.072H74.6844L73.2903 22.0466H71.9168L70.0498 15.2922H71.4057L72.619 20.4462H72.7189L74.1115 15.2922H75.3939L76.7864 20.4462H76.8922L78.0997 15.2922H79.4364L77.5767 22.0466Z" fill="white"/>
<path d="M81.0068 15.2923H82.2936V16.3653H82.3935C82.7409 15.5753 83.5526 15.0921 84.4148 15.162C85.0824 15.1119 85.7366 15.3673 86.1927 15.856C86.6488 16.3447 86.8573 17.0137 86.7593 17.6742V22.0466H85.4225V18.0089C85.4225 16.9234 84.9495 16.3836 83.9609 16.3836C83.5081 16.3626 83.0686 16.5398 82.7578 16.8688C82.4469 17.1978 82.2956 17.6458 82.3436 18.0953V22.0467H81.0068V15.2923Z" fill="white"/>
<path d="M88.8892 12.6555H90.2259V22.0466H88.8892V12.6555Z" fill="white"/>
<path d="M92.0835 18.6665C91.9674 17.4558 92.5497 16.2841 93.586 15.6428C94.6224 15.0015 95.9338 15.0015 96.9701 15.6428C98.0065 16.2841 98.5888 17.4558 98.4727 18.6665C98.5909 19.8786 98.0092 21.0525 96.9719 21.6951C95.9346 22.3377 94.6215 22.3377 93.5843 21.6951C92.547 21.0525 91.9653 19.8786 92.0835 18.6665ZM97.097 18.6665C97.097 17.2024 96.4374 16.3463 95.2799 16.3463C94.118 16.3463 93.4643 17.2024 93.4643 18.6666C93.4643 20.1424 94.118 20.992 95.2799 20.992C96.4375 20.992 97.097 20.1365 97.097 18.6665Z" fill="white"/>
<path d="M99.8804 20.1364C99.8804 18.9206 100.788 18.2197 102.4 18.1201L104.234 18.0146V17.4316C104.234 16.7182 103.761 16.3154 102.848 16.3154C102.101 16.3154 101.584 16.5886 101.436 17.0662H100.142C100.278 15.906 101.373 15.1619 102.909 15.1619C104.607 15.1619 105.565 16.0049 105.565 17.4316V22.0466H104.278V21.0974H104.173C103.736 21.7906 102.958 22.1957 102.138 22.1579C101.563 22.2175 100.99 22.0318 100.56 21.6467C100.129 21.2616 99.8826 20.7129 99.8804 20.1364ZM104.234 19.5593V18.9946L102.58 19.1001C101.648 19.1623 101.224 19.4787 101.224 20.0742C101.224 20.6821 101.753 21.0358 102.48 21.0358C102.911 21.0793 103.341 20.9467 103.671 20.6683C104.002 20.39 104.205 19.9898 104.234 19.5593Z" fill="white"/>
<path d="M107.322 18.6665C107.322 16.5322 108.423 15.1802 110.134 15.1802C110.998 15.1405 111.807 15.6022 112.211 16.3652H112.311V12.6555H113.648V22.0466H112.367V20.9795H112.261C111.827 21.7361 111.007 22.19 110.134 22.1579C108.411 22.158 107.322 20.8059 107.322 18.6665ZM108.703 18.6665C108.703 20.0991 109.38 20.9612 110.513 20.9612C111.64 20.9612 112.336 20.0867 112.336 18.6724C112.336 17.2647 111.632 16.3777 110.513 16.3777C109.388 16.3777 108.703 17.2456 108.703 18.6665H108.703Z" fill="white"/>
<path d="M119.178 18.6664C119.062 17.4558 119.644 16.2841 120.681 15.6428C121.717 15.0015 123.028 15.0015 124.064 15.6428C125.101 16.2841 125.683 17.4558 125.567 18.6664C125.685 19.8784 125.103 21.0523 124.066 21.695C123.029 22.3376 121.716 22.3376 120.679 21.695C119.642 21.0523 119.06 19.8784 119.178 18.6664ZM124.192 18.6664C124.192 17.2023 123.532 16.3461 122.375 16.3461C121.213 16.3461 120.559 17.2023 120.559 18.6664C120.559 20.1423 121.213 20.9919 122.375 20.9919C123.532 20.9919 124.192 20.1364 124.192 18.6664Z" fill="white"/>
<path d="M127.36 15.2923H128.647V16.3653H128.747C129.094 15.5753 129.906 15.0921 130.768 15.162C131.436 15.1119 132.09 15.3673 132.546 15.856C133.002 16.3447 133.211 17.0137 133.113 17.6742V22.0466H131.776V18.0089C131.776 16.9234 131.303 16.3836 130.314 16.3836C129.862 16.3626 129.422 16.5398 129.111 16.8688C128.8 17.1978 128.649 17.6458 128.697 18.0953V22.0467H127.36V15.2923Z" fill="white"/>
<path d="M140.666 13.6106V15.323H142.134V16.4458H140.666V19.9189C140.666 20.6264 140.959 20.9363 141.624 20.9363C141.795 20.9357 141.965 20.9254 142.134 20.9055V22.0158C141.894 22.0587 141.651 22.0814 141.407 22.0839C139.92 22.0839 139.328 21.5625 139.328 20.2602V16.4457H138.253V15.3229H139.328V13.6106H140.666Z" fill="white"/>
<path d="M143.959 12.6555H145.284V16.3777H145.39C145.754 15.5808 146.58 15.0969 147.456 15.1677C148.119 15.1317 148.765 15.3927 149.216 15.8797C149.667 16.3666 149.877 17.0288 149.788 17.6858V22.0466H148.45V18.0146C148.45 16.9358 147.946 16.3894 147.002 16.3894C146.537 16.3513 146.078 16.5199 145.75 16.8501C145.421 17.1802 145.255 17.6383 145.296 18.1018V22.0466H143.96L143.959 12.6555Z" fill="white"/>
<path d="M157.583 20.223C157.208 21.4971 155.972 22.3202 154.648 22.1771C153.745 22.2009 152.877 21.8275 152.274 21.1562C151.672 20.4848 151.396 19.5833 151.519 18.6908C151.399 17.7958 151.674 16.8928 152.273 16.2158C152.872 15.5387 153.737 15.1543 154.642 15.162C156.527 15.162 157.664 16.446 157.664 18.567V19.0321H152.881V19.1068C152.839 19.608 153.01 20.1038 153.354 20.4722C153.697 20.8405 154.18 21.0474 154.685 21.0418C155.339 21.1201 155.975 20.7966 156.296 20.2229L157.583 20.223ZM152.881 18.0462H156.302C156.336 17.5878 156.174 17.1364 155.857 16.8032C155.539 16.47 155.096 16.286 154.635 16.2965C154.168 16.2906 153.718 16.4731 153.388 16.8026C153.058 17.132 152.875 17.5805 152.881 18.0462H152.881Z" fill="white"/>
</svg>
