<svg width="1440" height="160" viewBox="0 0 1440 160" fill="none" xmlns="http://www.w3.org/2000/svg">
<mask id="mask0" mask-type="alpha" maskUnits="userSpaceOnUse" x="0" y="0" width="1440" height="160">
<rect width="1440" height="160" fill="url(#paint0_linear)"/>
</mask>
<g mask="url(#mask0)">
<path opacity="0.1" fill-rule="evenodd" clip-rule="evenodd" d="M956.067 22.2385L902.628 -66.4434C899.77 -71.1466 895.744 -75.0328 890.94 -77.7256C886.136 -80.4184 880.718 -81.8265 875.209 -81.8137H834.827H748L923.239 318H990.761L1166 -82H1079.73H1038.98C1033.53 -81.9139 1028.2 -80.4397 1023.48 -77.7173C1018.76 -74.9948 1014.82 -71.1142 1012.02 -66.4434L956.067 22.2385ZM886.028 37.2361L956.067 154.516L1027.13 37.2361L956.067 198.298L886.028 37.2361ZM584.067 178.238L530.628 89.5566C527.77 84.8534 523.744 80.9672 518.94 78.2744C514.136 75.5816 508.718 74.1735 503.209 74.1863H462.827H376L551.239 474H618.761L794 74H707.733H666.977C661.53 74.0861 656.195 75.5603 651.479 78.2827C646.762 81.0052 642.819 84.8858 640.025 89.5566L584.067 178.238ZM514.028 193.236L584.067 310.516L655.133 193.236L584.067 354.298L514.028 193.236ZM77.9875 -122.106L-37.3284 -313.437C-43.497 -323.584 -52.1849 -331.968 -62.5508 -337.778C-72.9166 -343.588 -84.609 -346.626 -96.4958 -346.598H-183.637H-371L7.14774 516H152.852L531 -347H344.844H256.898C245.144 -346.814 233.632 -343.634 223.454 -337.76C213.275 -331.886 204.768 -323.514 198.737 -313.437L77.9875 -122.106ZM-73.1508 -89.748L77.9875 163.283L231.34 -89.748L77.9875 257.743L-73.1508 -89.748ZM584.067 -221.762L530.628 -310.443C527.77 -315.147 523.744 -319.033 518.94 -321.726C514.136 -324.418 508.718 -325.827 503.209 -325.814H462.827H376L551.239 74H618.761L794 -326H707.733H666.977C661.53 -325.914 656.195 -324.44 651.479 -321.717C646.762 -318.995 642.819 -315.114 640.025 -310.443L584.067 -221.762ZM514.028 -206.764L584.067 -89.4839L655.133 -206.764L584.067 -45.7019L514.028 -206.764ZM1522.84 221.805L1427.59 63.7296C1422.5 55.3462 1415.32 48.4191 1406.76 43.6191C1398.2 38.8192 1388.54 36.3092 1378.72 36.3321H1306.75H1152L1464.33 749H1584.67L1897 36H1743.25H1670.61C1660.9 36.1535 1651.39 38.7812 1642.98 43.634C1634.58 48.4868 1627.55 55.4039 1622.57 63.7296L1522.84 221.805ZM1398.01 248.538L1522.84 457.59L1649.5 248.538L1522.84 535.631L1398.01 248.538Z" fill="white"/>
</g>
<defs>
<linearGradient id="paint0_linear" x1="195.556" y1="25.9898" x2="254.988" y2="366.707" gradientUnits="userSpaceOnUse">
<stop stop-color="#2A3275"/>
<stop offset="0.994792" stop-color="#0094FF"/>
</linearGradient>
</defs>
</svg>
