<svg width="244" height="194" viewBox="0 0 244 194" fill="none" xmlns="http://www.w3.org/2000/svg">
<path fill-rule="evenodd" clip-rule="evenodd" d="M91.4998 11C91.4998 10.4478 91.0521 10 90.4998 10C89.9475 10 89.4998 10.4478 89.4998 11V32H87.4688L89.4998 34.0103V56H87.4688L89.4998 58.0103V80H87.4688L89.4998 82.0103V104H87.4688L89.4998 106.01V130.332L64.9998 126.508V124.469L63.2516 126.235L30.9998 121.202V118.969L29.0856 120.903L4.15399 117.012L2.99982 116.832V118V142H0.96875L3.99982 145L7.03088 142H4.99982V119.168L28.8869 122.896L30.9998 125.031V123.226L62.6603 128.167L64.9998 130.531V128.532L90.3456 132.488L90.3575 132.49L115 136.034V138.031L116.73 136.283L178 145.094V147.031L179.678 145.335L216 150.559V152.531L217.709 150.805L239 153.866V172H236.969L240 175L243.031 172H241V153V152.134L240.142 152.01L218.388 148.882L216 146.469V148.538L180.428 143.423L178 140.969V143.073L117.359 134.352L115 131.969V134.013L91.4998 130.634V106.01L93.5309 104H91.4998V82.0103L93.5309 80H91.4998V58.0103L93.5309 56H91.4998V34.0103L93.5309 32H91.4998V11Z" fill="#0094FF"/>
<path fill-rule="evenodd" clip-rule="evenodd" d="M106.155 0.512119C105.609 0.426914 105.097 0.800083 105.012 1.34574C104.927 1.89139 105.3 2.40287 105.846 2.48819L130 6.26224V8.53128L131.945 6.5662L153 9.85599V23.0002H150.969L153 25.0104V47.0002H150.969L153 49.0104V71.0002H150.969L153 73.0104V95.0002H150.969L153 97.0104V119H150.969L153 121.01V143H150.969L153 145.01V167H150.969L153 169.01V191H150.969L154 194L157.031 191H155V169.01L157.031 167H155V145.01L157.031 143H155V121.01L157.031 119H155V97.0104L157.031 95.0002H155V73.0104L157.031 71.0002H155V49.0104L157.031 47.0002H155V25.0104L157.031 23.0002H155V9.00016V8.14432L154.155 8.01212L132.071 4.56156L130 2.46903V4.23795L106.155 0.512119Z" fill="#15CF74"/>
</svg>
