<svg width="202" height="60" viewBox="0 0 202 60" fill="none" xmlns="http://www.w3.org/2000/svg">
<path d="M194.519 0H7.48148C3.34957 0 0 3.35786 0 7.5V52.5C0 56.6421 3.34957 60 7.48148 60H194.519C198.65 60 202 56.6421 202 52.5V7.5C202 3.35786 198.65 0 194.519 0Z" fill="black"/>
<path d="M194.519 1.2C197.989 1.2 200.803 4.02061 200.803 7.5V52.5C200.803 55.9794 197.989 58.8 194.519 58.8H7.48148C4.01068 58.8 1.19704 55.9794 1.19704 52.5V7.5C1.19704 4.02061 4.01068 1.2 7.48148 1.2H194.519ZM194.519 0H7.48148C3.34957 0 0 3.35786 0 7.5V52.5C0 56.6421 3.34957 60 7.48148 60H194.519C198.65 60 202 56.6421 202 52.5V7.5C202 3.35786 198.65 0 194.519 0Z" fill="#A6A6A6"/>
<path d="M70.9544 15.3602C71.0058 16.472 70.6002 17.5564 69.8322 18.3602C68.974 19.2539 67.777 19.7393 66.5404 19.6952C64.6436 19.6803 62.9405 18.527 62.2186 16.7685C61.4967 15.0101 61.8966 12.9892 63.2335 11.6402C64.1022 10.7512 65.2993 10.2625 66.5404 10.2902C67.1729 10.2881 67.7992 10.4157 68.3808 10.6652C68.9222 10.8841 69.4042 11.2285 69.7873 11.6702L68.9943 12.4652C68.3888 11.7432 67.4799 11.3487 66.5404 11.4002C65.596 11.3955 64.6904 11.7768 64.0326 12.4561C63.3748 13.1354 63.0214 14.054 63.054 15.0002C63.0339 16.43 63.8739 17.7314 65.1831 18.2991C66.4923 18.8667 68.0136 18.589 69.0392 17.5952C69.4996 17.095 69.7651 16.4454 69.7873 15.7652H66.5404V14.6852H70.8946C70.9345 14.908 70.9545 15.1338 70.9544 15.3602Z" fill="white" stroke="white" stroke-width="0.2"/>
<path d="M77.8073 11.61H73.7673V14.46H77.4482V15.54H73.7673V18.39H77.8073V19.5H72.5703V10.5H77.8073V11.61Z" fill="white" stroke="white" stroke-width="0.2"/>
<path d="M82.7152 19.5H81.5631V11.61H79.0493V10.5H85.2889V11.61H82.7152V19.5Z" fill="white" stroke="white" stroke-width="0.2"/>
<path d="M89.688 19.5V10.5H90.8401V19.5H89.688Z" fill="white" stroke="white" stroke-width="0.2"/>
<path d="M95.9579 19.5H94.8058V11.61H92.292V10.5H98.4567V11.61H95.9579V19.5Z" fill="white" stroke="white" stroke-width="0.2"/>
<path d="M110.142 18.33C108.321 20.1453 105.38 20.1453 103.559 18.33C101.794 16.4568 101.794 13.5281 103.559 11.655C104.43 10.7756 105.615 10.281 106.851 10.281C108.087 10.281 109.272 10.7756 110.142 11.655C111.915 13.5251 111.915 16.4598 110.142 18.33ZM104.412 17.58C105.76 18.9263 107.941 18.9263 109.29 17.58C110.614 16.1162 110.614 13.8837 109.29 12.42C107.941 11.0736 105.76 11.0736 104.412 12.42C103.087 13.8837 103.087 16.1162 104.412 17.58Z" fill="white" stroke="white" stroke-width="0.2"/>
<path d="M113.09 19.5V10.5H114.497L118.866 17.505V15.765V10.5H120.018V19.5H118.821L114.257 12.165V13.905V19.5H113.09Z" fill="white" stroke="white" stroke-width="0.2"/>
<path d="M101.958 32.6247C98.4496 32.6413 95.6175 35.5027 95.6284 39.0196C95.6395 42.5365 98.4894 45.3801 101.998 45.3746C105.506 45.3692 108.347 42.5166 108.347 38.9997C108.372 37.2963 107.705 35.6558 106.501 34.454C105.296 33.2522 103.657 32.592 101.958 32.6247ZM101.958 42.8697C100.377 42.9806 98.8884 42.1112 98.2051 40.6774C97.5218 39.2436 97.7823 37.5367 98.8619 36.3733C99.9415 35.2098 101.621 34.8262 103.097 35.4058C104.573 35.9855 105.545 37.4107 105.549 38.9997C105.598 39.9937 105.244 40.9653 104.568 41.694C103.891 42.4227 102.95 42.8466 101.958 42.8697ZM88.0273 32.6247C84.5171 32.633 81.6775 35.4908 81.683 39.0097C81.6885 42.5286 84.537 45.3775 88.0472 45.3747C91.5574 45.3719 94.4015 42.5186 94.4015 38.9997C94.4261 37.2963 93.7599 35.6558 92.5554 34.454C91.351 33.2522 89.7114 32.592 88.0123 32.6247H88.0273ZM88.0273 42.8697C86.4452 42.9868 84.9527 42.1218 84.2646 40.6889C83.5765 39.2559 83.8329 37.5469 84.911 36.3803C85.989 35.2136 87.6693 34.8269 89.147 35.4053C90.6248 35.9836 91.5991 37.4094 91.6034 38.9997C91.6521 39.9937 91.2982 40.9653 90.6221 41.694C89.9459 42.4227 89.0048 42.8466 88.0123 42.8697H88.0273ZM71.4333 34.5897V37.2897H77.8973C77.796 38.5614 77.2687 39.7614 76.4011 40.6947C75.0933 42.0301 73.2836 42.7492 71.4184 42.6747C67.4518 42.6747 64.2362 39.4512 64.2362 35.4747C64.2362 31.4983 67.4518 28.2747 71.4184 28.2747C73.2406 28.2449 75.0002 28.9408 76.3113 30.2097L78.2116 28.3047C76.4234 26.4895 73.9781 25.4776 71.4333 25.4997C67.8108 25.3584 64.4013 27.2152 62.5481 30.3388C60.6949 33.4624 60.6949 37.3521 62.5481 40.4756C64.4013 43.5992 67.8108 45.456 71.4333 45.3147C74.0246 45.4321 76.5398 44.4202 78.3313 42.5397C79.8989 40.8131 80.7359 38.5434 80.6655 36.2097C80.6703 35.6412 80.6202 35.0735 80.5159 34.5147L71.4333 34.5897ZM139.231 36.6897C138.432 34.3335 136.265 32.7163 133.784 32.6247C132.13 32.6215 130.548 33.3048 129.414 34.5125C128.28 35.7202 127.695 37.3445 127.799 38.9997C127.762 40.6937 128.414 42.3298 129.605 43.5321C130.796 44.7344 132.423 45.3996 134.113 45.3747C136.239 45.3862 138.229 44.3269 139.41 42.5547L137.24 41.0547C136.582 42.1556 135.394 42.828 134.113 42.8247C132.787 42.8754 131.564 42.108 131.031 40.8897L139.545 37.3647L139.231 36.6897ZM130.552 38.8197C130.491 37.8825 130.808 36.9599 131.433 36.2601C132.058 35.5603 132.938 35.1421 133.874 35.0997C134.86 35.0345 135.791 35.5657 136.238 36.4497L130.552 38.8197ZM123.639 44.9997H126.437V26.2497H123.639V44.9997ZM119.06 34.0497H118.956C118.103 33.0937 116.883 32.548 115.604 32.5497C112.208 32.7148 109.539 35.5234 109.539 38.9322C109.539 42.341 112.208 45.1496 115.604 45.3147C116.888 45.3364 118.115 44.7871 118.956 43.8147H119.045V44.7297C119.045 47.1747 117.744 48.4797 115.649 48.4797C114.222 48.4462 112.957 47.5513 112.447 46.2147L110.008 47.2347C110.947 49.5249 113.179 51.0145 115.649 50.9998C118.926 50.9998 121.634 49.0647 121.634 44.3547V32.9997H119.06V34.0497ZM115.858 42.8697C113.858 42.693 112.323 41.0132 112.323 38.9997C112.323 36.9863 113.858 35.3065 115.858 35.1297C116.825 35.1795 117.731 35.6184 118.37 36.347C119.01 37.0755 119.329 38.0321 119.255 38.9997C119.337 39.9718 119.02 40.9354 118.375 41.6664C117.731 42.3974 116.816 42.8322 115.843 42.8697H115.858ZM152.338 26.2497H145.65V44.9997H148.448V37.8897H152.353C154.527 38.0463 156.605 36.9725 157.74 35.1072C158.874 33.2419 158.874 30.8976 157.74 29.0323C156.605 27.167 154.527 26.0932 152.353 26.2497H152.338ZM152.338 35.2497H148.433V28.8597H152.398C154.171 28.8597 155.607 30.3002 155.607 32.0772C155.607 33.8542 154.171 35.2947 152.398 35.2947L152.338 35.2497ZM169.59 32.5497C167.509 32.425 165.551 33.5504 164.608 35.4147L167.092 36.4497C167.592 35.5252 168.59 34.984 169.635 35.0697C170.353 34.9857 171.074 35.1942 171.637 35.6483C172.199 36.1024 172.556 36.7641 172.628 37.4847V37.6797C171.729 37.2027 170.727 36.9554 169.71 36.9597C167.032 36.9597 164.323 38.4597 164.323 41.1747C164.377 42.3443 164.9 43.4425 165.774 44.2194C166.647 44.9964 167.797 45.386 168.962 45.2997C170.397 45.403 171.774 44.7128 172.553 43.4997H172.643V44.9997H175.336V37.7847C175.336 34.4997 172.852 32.5947 169.665 32.5947L169.59 32.5497ZM169.246 42.8247C168.333 42.8247 167.062 42.3597 167.062 41.2347C167.062 39.7347 168.648 39.2397 170.054 39.2397C170.943 39.2177 171.822 39.4353 172.598 39.8697C172.404 41.5488 171.007 42.8285 169.321 42.8697L169.246 42.8247ZM185.152 32.9997L181.95 41.1297H181.86L178.538 32.9997H175.546L180.528 44.3697L177.685 50.6847H180.603L188.264 32.9997H185.152ZM159.999 44.9997H162.797V26.2497H159.999V44.9997Z" fill="white"/>
<path d="M15.6214 11.3101C15.1337 11.8967 14.8875 12.6478 14.9331 13.4101V46.5901C14.8875 47.3524 15.1337 48.1034 15.6214 48.6901L15.7261 48.7951L34.2652 30.2251V29.7901L15.7261 11.2051L15.6214 11.3101Z" fill="url(#paint0_linear)"/>
<path d="M40.3995 36.4201L34.2646 30.2251V29.7901L40.3995 23.5801L40.5341 23.6551L47.8809 27.8401C49.9758 29.0251 49.9758 30.9751 47.8809 32.1751L40.5641 36.3451L40.3995 36.4201Z" fill="url(#paint1_linear)"/>
<path d="M40.5798 36.33L34.2654 30L15.6216 48.69C16.5025 49.4663 17.8098 49.5041 18.7339 48.78L40.5948 36.33" fill="url(#paint2_linear)"/>
<path d="M40.5801 23.6701L18.7192 11.2201C17.7952 10.496 16.4878 10.5338 15.6069 11.3101L34.2658 30.0001L40.5801 23.6701Z" fill="url(#paint3_linear)"/>
<path opacity="0.2" d="M40.4002 36.1948L18.7189 48.5698C17.8317 49.2348 16.6136 49.2348 15.7263 48.5698L15.6216 48.6748L15.7263 48.7798C16.6119 49.4498 17.8333 49.4498 18.7189 48.7798L40.5798 36.3298L40.4002 36.1948Z" fill="black"/>
<path opacity="0.12" d="M15.6214 48.4799C15.1337 47.8932 14.8875 47.1422 14.9331 46.3799V46.6049C14.8875 47.3672 15.1337 48.1182 15.6214 48.7049L15.7261 48.5999L15.6214 48.4799Z" fill="black"/>
<path opacity="0.12" d="M47.8814 31.95L40.3999 36.195L40.5346 36.33L47.8814 32.16C48.7299 31.7604 49.3006 30.9366 49.3777 30C49.2071 30.8473 48.6545 31.5674 47.8814 31.95Z" fill="black"/>
<path opacity="0.25" d="M18.7186 11.4299L47.8814 28.0499C48.6545 28.4325 49.2071 29.1527 49.3777 29.9999C49.3006 29.0633 48.7299 28.2395 47.8814 27.8399L18.7186 11.2199C16.6237 10.0349 14.918 11.0249 14.918 13.4249V13.6499C14.9629 11.2349 16.6387 10.2449 18.7186 11.4299Z" fill="white"/>
<defs>
<linearGradient id="paint0_linear" x1="26.7302" y1="13.0651" x2="10.7982" y2="28.9577" gradientUnits="userSpaceOnUse">
<stop stop-color="#00A0FF"/>
<stop offset="0.01" stop-color="#00A1FF"/>
<stop offset="0.26" stop-color="#00BEFF"/>
<stop offset="0.51" stop-color="#00D2FF"/>
<stop offset="0.76" stop-color="#00DFFF"/>
<stop offset="1" stop-color="#00E3FF"/>
</linearGradient>
<linearGradient id="paint1_linear" x1="50.6192" y1="30.0001" x2="14.4238" y2="30.0001" gradientUnits="userSpaceOnUse">
<stop stop-color="#FFE000"/>
<stop offset="0.41" stop-color="#FFBD00"/>
<stop offset="0.78" stop-color="#FFA500"/>
<stop offset="1" stop-color="#FF9C00"/>
</linearGradient>
<linearGradient id="paint2_linear" x1="37.1533" y1="35.9655" x2="9.93674" y2="63.1029" gradientUnits="userSpaceOnUse">
<stop stop-color="#FF3A44"/>
<stop offset="1" stop-color="#C31162"/>
</linearGradient>
<linearGradient id="paint3_linear" x1="10.9235" y1="8.41808" x2="23.0716" y2="20.5361" gradientUnits="userSpaceOnUse">
<stop stop-color="#32A071"/>
<stop offset="0.07" stop-color="#2DA771"/>
<stop offset="0.48" stop-color="#15CF74"/>
<stop offset="0.8" stop-color="#06E775"/>
<stop offset="1" stop-color="#00F076"/>
</linearGradient>
</defs>
</svg>
