<svg width="144" height="68" viewBox="0 0 144 68" fill="none" xmlns="http://www.w3.org/2000/svg">
<path fill-rule="evenodd" clip-rule="evenodd" d="M3.65399 0.511963L2.49982 0.331787V1.5V9H0.46875L2.49982 11.0103V21H0.46875L3.49982 24L6.53088 21H4.49982V11.0103L6.53088 9H4.49982V2.66821L24.4121 5.77588L27.074 8.65955L27.1823 6.20825L49.3062 9.66113L52.074 12.6595L52.1865 10.1107L74.3106 13.5636L77.0027 16.4799L77.1122 14.0007L88.9998 15.8561V29.7255L87.1211 31.585H88.9998V48.9897L86.9688 51H88.9998V67C88.9998 67.5522 89.4475 68 89.9998 68C90.5521 68 90.9998 67.5522 90.9998 67V51H93.0309L90.9998 48.9897V31.585H93.1832L90.9998 29.424V16.1594L110.133 19.001L110.02 21.5688L112.427 19.3417L130.134 21.9714L130.02 24.5688L132.455 22.3162L139.5 23.3624V31H137.469L139.5 33.0103V40H137.469L140.5 43L143.531 40H141.5V33.0103L143.531 31H141.5V22.5V21.6376L140.647 21.5109L131.815 20.1992L130.287 18.5126L130.223 19.9628L111.846 17.2335L110.287 15.5126L110.222 16.9923L90.154 14.012L90.1467 14.0109L77.2009 11.9905L77.2701 10.4236L75.7872 11.7698L52.2753 8.10022L52.3414 6.60327L50.9246 7.88953L27.271 4.19788L27.3414 2.60327L25.8322 3.97339L3.65399 0.511963Z" fill="#15CF74"/>
</svg>
