<?xml version="1.0" encoding="utf-8"?>
<svg xmlns="http://www.w3.org/2000/svg">

<symbol viewBox="0 0 24 24" fill="none" id="activity">
  <path d="M22 11h-4l-3 9L9 2l-3 9H2" stroke-width="2" stroke-linecap="round" stroke-linejoin="round"></path>
</symbol>

<symbol viewBox="0 0 24 24" fill="none" id="alert-triangle">
    <path fill-rule="evenodd" clip-rule="evenodd" d="M10.29 4.86L1.82 19a2 2 0 0 0 1.71 3h16.94a2 2 0 0 0 1.71-3L13.71 4.86a2 2 0 0 0-3.42 0z" stroke="#A6A6A6" stroke-width="2" stroke-linecap="round" stroke-linejoin="round"></path>
    <path d="M12 10v4" stroke="#A6A6A6" stroke-width="2" stroke-linecap="round" stroke-linejoin="round"></path>
    <circle cx="12" cy="18" r="1" fill="#A6A6A6"></circle>
  </symbol>

  <symbol viewBox="0 0 13 22" fill="none" id="arr-left">
    <path d="M11 20l-9-9 9-9" stroke="#fff" stroke-width="3" stroke-linecap="round" stroke-linejoin="round"></path>
  </symbol>

  <symbol viewBox="0 0 13 22" fill="none" id="arr-right">
    <path d="M2 20l9-9-9-9" stroke="#fff" stroke-width="3" stroke-linecap="round" stroke-linejoin="round"></path>
  </symbol>

  <symbol viewBox="0 0 24 16" id="battery-g">
    <path fill-rule="evenodd" clip-rule="evenodd" d="M24 8c0 1.262-.977 2.286-2.182 2.286v2.282c0 1.895-1.465 3.432-3.272 3.432H3.272C1.465 16 0 14.466 0 12.568V3.432C0 1.537 1.465 0 3.272 0h15.274c1.807 0 3.272 1.534 3.272 3.432v2.282C23.023 5.714 24 6.738 24 8zM2.182 3.432v9.136c0 .635.488 1.146 1.09 1.146h15.274c.601 0 1.09-.513 1.09-1.146V3.432c0-.635-.487-1.146-1.09-1.146H3.272c-.601 0-1.09.513-1.09 1.146zm1.09 1.136c0-.63.484-1.14 1.09-1.14h2.184c.602 0 1.09.512 1.09 1.14v6.864c0 .63-.483 1.14-1.09 1.14H4.363c-.602 0-1.09-.512-1.09-1.14V4.568zm5.455 0c0-.63.484-1.14 1.09-1.14h2.184c.602 0 1.09.512 1.09 1.14v6.864c0 .63-.484 1.14-1.09 1.14H9.817c-.602 0-1.09-.512-1.09-1.14V4.568zm5.455 0c0-.63.483-1.14 1.09-1.14h2.184c.602 0 1.09.512 1.09 1.14v6.864c0 .63-.484 1.14-1.09 1.14h-2.184c-.602 0-1.09-.512-1.09-1.14V4.568z"></path>
  </symbol>

  <symbol viewBox="0 0 34 17" id="battery">
    <path d="M34 5.455a1 1 0 0 0-1-1h-1.15a1 1 0 0 1-1-1V1a1 1 0 0 0-1-1H1a1 1 0 0 0-1 1v15a1 1 0 0 0 1 1h28.85a1 1 0 0 0 1-1v-2.49a1 1 0 0 1 1-1H33a1 1 0 0 0 1-1V5.454zm-4.796 9.906H2.646a1 1 0 0 1-1-1V2.604a1 1 0 0 1 1-1H28.24a1 1 0 0 1 1 1v12.72c0 .02-.016.037-.036.037z"
      fill="#000"></path>
    <path d="M8.124 3.243H3.292v10.478h4.832V3.243zm6.478 0H9.771v10.478h4.831V3.243zm6.478 0h-4.83v10.478h4.831V3.243zm6.478 0h-4.832v10.478h4.832V3.243z" fill="#06E775"></path>
  </symbol>

  <symbol viewBox="0 0 24 24" id="close">
    <path d="M18 6L6 18M6 6l12 12" stroke="#fff" stroke-width="2" stroke-linecap="round" stroke-linejoin="round"></path>
  </symbol>

  <symbol viewBox="0 0 40 36" id="cloud">
    <path fill-rule="evenodd" clip-rule="evenodd" d="M16 27v6.992a2 2 0 1 1-4 0V27h-1C4.925 27 0 22.075 0 16S4.925 5 11 5c2.084-3.02 5.56-5 9.5-5 5.503 0 10.104 3.866 11.234 9.03A9 9 0 0 1 31 27h-3v6.992a2 2 0 1 1-4 0V27h-2v6.992a2 2 0 1 1-4 0V27h-2zM4 16a7 7 0 0 0 7 7h20a5 5 0 0 0 .412-9.983h-1.78c-.555 0-1.117-.436-1.254-.974l-.552-2.158a7.504 7.504 0 0 0-8.3-5.822A7.502 7.502 0 0 0 13 11.5a2 2 0 1 1-4 0c0-.778.077-1.537.224-2.272A7.002 7.002 0 0 0 4 16z"></path>
  </symbol>

  <symbol viewBox="0 0 24 24" fill="none" id="cube">
    <path fill-rule="evenodd" clip-rule="evenodd" d="M12.89 1.45l8 4A2 2 0 0 1 22 7.24v9.53a2 2 0 0 1-1.11 1.79l-8 4a2 2 0 0 1-1.79 0l-8-4a2 2 0 0 1-1.1-1.8V7.24a2 2 0 0 1 1.11-1.79l8-4a2 2 0 0 1 1.78 0z" stroke="#fff" stroke-width="2" stroke-linecap="round"
      stroke-linejoin="round"></path>
    <path d="M2.32 6.16L12 11l9.68-4.84M12 22.76V11M7 3.5l10 5" stroke="#fff" stroke-width="2" stroke-linecap="round" stroke-linejoin="round"></path>
  </symbol>

  <symbol viewBox="0 0 59 68" fill="none" id="e-counter">
    <path d="M2 0a2 2 0 0 0-2 2v64a2 2 0 0 0 2 2h55a2 2 0 0 0 2-2V2a2 2 0 0 0-2-2H2zm1.933 5.984a2 2 0 0 1 2-2h47.134a2 2 0 0 1 2 2v56.032a2 2 0 0 1-2 2H5.933a2 2 0 0 1-2-2V51.93h3.934v7.969h43.266V8.102H7.867v7.968H3.933V5.984zm7.867 6.102h35.4v43.828H11.8V12.086zm17.7 3.38L15.992 35.993h27.016L29.5 15.467zm-25.567 4.59h3.934v3.984H3.933v-3.984zM29.5 22.65l6.158 9.358H23.341L29.5 22.65zM3.933 28.023h3.934v11.954H3.933V28.024zm11.8 11.954v3.984h27.534v-3.984H15.733zm-11.8 3.984h3.934v3.984H3.933v-3.984zm11.8 3.984v3.985h27.534v-3.985H15.733z"
      fill="#333"></path>
  </symbol>

  <symbol viewBox="0 0 62 51" fill="none" id="e-panel">
    <path d="M2 3v45a1 1 0 0 0 1 1h56a1 1 0 0 0 1-1V3a1 1 0 0 0-1-1H3a1 1 0 0 0-1 1z" stroke="#333" stroke-width="3"></path>
    <path d="M50.985 19.511h.5v-2h-3.998v2h3.498zm-3.498 2.499v.5h3.998v-1.999h-3.998v1.499zm3.998-10.001v-.5h-3.998v5.002h3.998v-4.502zm.5 11.501h-4.998a.5.5 0 0 1-.5-.5V11.009a.5.5 0 0 1 .5-.5h4.998a.5.5 0 0 1 .5.5V23.01c0 .277-.223.5-.5.5zm-9.998-7.002h.5v-2h-3.998v2h3.498zm-3.498 5.502v.5h3.998v-5.002h-3.998v4.502zm3.998-10.001v-.5h-3.998v1.999h3.998v-1.499zm.5 11.501h-4.998a.499.499 0 0 1-.5-.5V11.009a.5.5 0 0 1 .5-.5h4.998a.5.5 0 0 1 .5.5V23.01a.5.5 0 0 1-.5.5zm-10-3.999h.5v-2h-3.998v2h3.498zm-3.498 2.499v.5h3.998v-1.999h-3.998v1.499zm3.998-10.001v-.5h-3.998v5.002h3.998v-4.502zm.5 11.501h-4.998a.499.499 0 0 1-.5-.5V11.009a.5.5 0 0 1 .5-.5h4.998a.5.5 0 0 1 .5.5V23.01a.5.5 0 0 1-.5.5zM20.49 16.008v.5h3.499v-.5h.5v-1.5H20.49v1.5zm0 6.002v.5h3.998v-5.002H20.49v4.502zm4-10.001v-.5h-4v1.999h4v-1.499zm.498 11.501H19.99a.5.5 0 0 1-.5-.5V11.009a.5.5 0 0 1 .5-.5h4.998a.5.5 0 0 1 .5.5V23.01c0 .277-.223.5-.5.5zM11.49 19.011v.5h3.499v-.5h.5v-1.5H11.49v1.5zm0 2.999v.5h3.998v-1.999H11.49v1.499zm4-10.001v-.5h-4v5.002h4v-4.502zm.498 11.501H10.99a.5.5 0 0 1-.5-.5V11.009a.5.5 0 0 1 .5-.5h4.998a.5.5 0 0 1 .5.5V23.01c0 .277-.223.5-.5.5zm34.992 9h.5v-2h-3.997v2h3.498zm-3.497 5.502v.5h3.998V33.51h-3.998v4.502zm3.998-10.001v-.5h-3.998v1.999h3.998v-1.499zm.5 11.501h-4.998a.5.5 0 0 1-.5-.5V27.011a.5.5 0 0 1 .5-.5h4.998c.277 0 .5.223.5.5v12.001a.5.5 0 0 1-.5.5zm-9.994-3.995h.5v-2h-4v2h3.5zm-3.5 2.499v.5h4v-1.999h-4v1.499zm4-10.001v-.5h-4v5.002h4v-4.502zm.5 11.501h-5a.5.5 0 0 1-.5-.5V27.015a.5.5 0 0 1 .5-.5h5a.5.5 0 0 1 .5.5v12.001c0 .277-.223.5-.5.5zm-9.998-7.002h.5v-2h-4v2h3.5zm-3.5 5.502v.5h4v-5.002h-4v4.502zm4-10.001v-.5h-4v1.999h4v-1.499zm.5 11.501h-5a.499.499 0 0 1-.5-.5V27.015a.5.5 0 0 1 .5-.5h5a.5.5 0 0 1 .5.5v12.001a.5.5 0 0 1-.5.5zm-10-3.999h.5v-2h-4v2h3.5zm-3.5 2.499v.5h4v-1.999h-4v1.499zm4-10.001v-.5h-4v5.002h4v-4.502zm.5 11.501h-5a.499.499 0 0 1-.5-.5V27.015a.5.5 0 0 1 .5-.5h5a.5.5 0 0 1 .5.5v12.001a.5.5 0 0 1-.5.5zm-9.999-7.002h.5v-2h-4v2h3.5zm-3.5 5.502v.5h4v-5.002h-4v4.502zm4-10.001v-.5h-4v1.999h4v-1.499zm.5 11.501h-5a.5.5 0 0 1-.5-.5V27.015a.5.5 0 0 1 .5-.5h5a.5.5 0 0 1 .5.5v12.001c0 .277-.223.5-.5.5z"
      fill="#000" stroke="#333"></path>
  </symbol>

  <symbol viewBox="0 0 75 95" fill="none" id="e-tower">
    <path d="M74.321 68.181c0-.017-.004-.033-.005-.05a1.464 1.464 0 0 0-.069-.375c-.007-.025-.013-.05-.022-.073a1.48 1.48 0 0 0-.195-.36c-.014-.02-.031-.037-.047-.057a1.499 1.499 0 0 0-.311-.294c-.002 0-.003-.002-.004-.003l-.003-.002-.006-.004-21.346-14.484-2.67-14.491h15.335v1.342c0 .825.672 1.493 1.5 1.493.829 0 1.5-.668 1.5-1.493v-2.834c0-.03-.006-.057-.008-.086a.897.897 0 0 0-.01-.089 1.483 1.483 0 0 0-.105-.417l-.008-.014a1.485 1.485 0 0 0-.233-.36c-.015-.017-.028-.035-.044-.052a1.5 1.5 0 0 0-.342-.268c-.012-.007-.019-.018-.03-.024L47.112 24.268l-2.605-14.13h4.873v1.808c0 .824.672 1.492 1.5 1.492s1.5-.668 1.5-1.492V9.11c0-.08-.012-.156-.024-.233.012-.076.024-.153.024-.233 0-.824-.672-1.492-1.5-1.492H38.66v-5.66c0-.825-.67-1.493-1.5-1.493-.828 0-1.5.668-1.5 1.492v5.66H23.443c-.828 0-1.5.669-1.5 1.493 0 .08.012.157.024.233a1.478 1.478 0 0 0-.024.233v2.835c0 .824.672 1.492 1.5 1.492.829 0 1.5-.668 1.5-1.492v-1.808h4.873L27.127 24.72 7.874 35.186c-.012.006-.02.017-.031.024a1.491 1.491 0 0 0-.342.268c-.016.017-.029.036-.044.053a1.484 1.484 0 0 0-.232.357l-.008.016a1.48 1.48 0 0 0-.106.417l-.01.09c0 .028-.008.055-.008.085v2.834c0 .825.672 1.493 1.5 1.493.829 0 1.5-.668 1.5-1.493v-1.342h14.588l-2.672 14.49L.663 66.964a.15.15 0 0 1-.003.003l-.005.003-.006.005a1.502 1.502 0 0 0-.309.292c-.016.02-.033.037-.047.057-.081.11-.146.23-.194.359-.01.025-.016.05-.024.075a1.47 1.47 0 0 0-.068.374c0 .017-.005.033-.005.05l-.002.02v2.836c0 .824.671 1.492 1.5 1.492S3 71.861 3 71.037v-1.343h15.836l-4.34 23.544v.003a1.488 1.488 0 0 0-.023.307c.001.033.008.065.011.097.007.07.015.14.031.21.01.037.024.073.036.11.02.061.04.121.069.18.019.04.042.077.064.115.02.033.033.067.055.099.012.017.028.028.04.045.015.019.024.04.04.06.03.035.068.064.102.097.034.033.066.068.103.098.055.045.114.08.174.117.038.023.074.05.114.069a1.5 1.5 0 0 0 .224.082c.032.01.062.025.095.033.11.025.224.04.34.04h42.38c.117 0 .232-.015.343-.04.036-.01.069-.025.104-.036.074-.024.147-.047.217-.081.041-.02.079-.048.119-.072.058-.036.116-.072.17-.116.037-.031.071-.067.106-.102.03-.03.066-.056.094-.09.018-.021.03-.046.046-.069.014-.018.032-.032.045-.05.019-.03.03-.06.048-.09.022-.038.044-.076.063-.116.027-.059.049-.118.068-.178.012-.037.025-.074.034-.112.016-.068.025-.136.03-.204.004-.035.01-.068.01-.102a1.48 1.48 0 0 0-.017-.252c-.003-.017 0-.034-.004-.052l-4.34-23.544h15.836v1.343c0 .824.672 1.492 1.5 1.492s1.5-.668 1.5-1.492v-2.835l-.002-.021zm-37.16 23.834H20.764L36.89 80.878l16.563 11.137H37.162zm0-81.877h2.12l-2.12 2.284-2.12-2.284h2.12zm7.32 44.667l-7.538 3.721-7.29-3.72h14.829zM28.294 51.82l9.09-6.185 8.783 6.185H28.293zm11.73-7.982l6.795-4.624 1.994 10.814-8.789-6.19zm3.283-5.85l-5.895 4.011-5.695-4.011h11.59zm-12.243-2.985L37.16 30.9l6.1 4.103H31.062zm8.776-5.905l4.55-3.06 1.288 6.988-5.838-3.928zm.697-4.071l-3.375 2.27-3.374-2.27h6.749zm-8.218-2.985l4.843-5.22 4.844 5.22h-9.687zm6.885-7.42l2.571-2.77 1.274 6.914-3.845-4.144zm-4.083 0l-3.845 4.144 1.274-6.914 2.57 2.77zm-5.294 12.003a1.48 1.48 0 0 0 .36-.418l4.297 2.891-5.837 3.928 1.18-6.401zM27.593 38.74l7.178 5.056-9.274 6.31 2.096-11.366zm6.01 21.436l-10.96 5.41 1.855-10.057 9.104 4.647zm13.142 9.518h1.077L36.867 77.26l-11.251-7.566h21.129zM27.578 66.71h-.462l9.805-4.84 9.483 4.84H27.578zm6.646 12.375L18.103 90.22l3.604-19.551 12.517 8.417zm5.31-.032L52.51 70.09l3.722 20.19-16.699-11.228zm.728-18.832l9.559-4.719 1.953 10.594-11.512-5.876zm20.343-25.218H49.092l-1.282-6.955 12.794 6.955zM26.43 28.501l-1.199 6.502H14.467l11.963-6.502zM6.362 66.71l14.886-10.102-1.862 10.102H6.362zm48.575 0l-1.862-10.102L67.962 66.71H54.937z"
      fill="#333"></path>
  </symbol>

  <symbol viewBox="0 0 20 21" id="facebook">
    <path d="M10 .04C4.5.04 0 4.548 0 10.1c0 5.02 3.66 9.187 8.44 9.94v-7.028H5.9V10.1h2.54V7.881c0-2.52 1.49-3.905 3.78-3.905 1.09 0 2.23.19 2.23.19v2.48h-1.26c-1.24 0-1.63.774-1.63 1.567V10.1h2.78l-.45 2.912h-2.33v7.028c5.52 0 8.44-4.397 8.44-9.94C20 4.548 15.5.04 10 .04z"></path>
  </symbol>

  <symbol viewBox="0 0 24 24" fill="none" id="home">
    <path fill-rule="evenodd" clip-rule="evenodd" d="M3 9l9-7 9 7v11a2 2 0 0 1-2 2H5a2 2 0 0 1-2-2V9z" stroke="#fff" stroke-width="2" stroke-linecap="round" stroke-linejoin="round"></path>
    <path d="M9 22V12h6v10" stroke="#fff" stroke-width="2" stroke-linecap="round" stroke-linejoin="round"></path>
  </symbol>

  <symbol viewBox="0 0 20 20" id="instagram">
    <path d="M5.8 0h8.4C17.4 0 20 2.6 20 5.8v8.4c0 3.2-2.6 5.8-5.8 5.8H5.8C2.6 20 0 17.4 0 14.2V5.8C0 2.6 2.6 0 5.8 0zm-.2 2C3.61 2 2 3.61 2 5.6v8.8C2 16.39 3.61 18 5.6 18h8.8c1.99 0 3.6-1.61 3.6-3.6V5.6C18 3.61 16.39 2 14.4 2H5.6zm9.65 1.5a1.25 1.25 0 1 1 0 2.5 1.25 1.25 0 0 1 0-2.5zM10 5c2.76 0 5 2.24 5 5s-2.24 5-5 5-5-2.24-5-5 2.24-5 5-5zm0 2c-1.66 0-3 1.34-3 3s1.34 3 3 3 3-1.34 3-3-1.34-3-3-3z"></path>
  </symbol>

  <symbol viewBox="0 0 24 24" fill="none" id="list">
    <path d="M8 6h13M8 12h13M8 18h13M4 6H3m1 6H3m1 6H3" stroke-width="2" stroke-linecap="round" stroke-linejoin="round"></path>
  </symbol>

  <symbol viewBox="0 0 102 20" id="medium">
    <path d="M51.18 17.768c0 .352 0 .432.238.648l1.33 1.312v.056h-5.895v-2.52A4.1 4.1 0 0 1 42.945 20c-3.03 0-5.23-2.4-5.23-6.816 0-4.136 2.373-6.896 5.704-6.896a3.478 3.478 0 0 1 3.426 2.144v-5.56a.692.692 0 0 0-.269-.672L45.31.968V.912l5.87-.696v17.552zm-4.327-.8V8.672a2.198 2.198 0 0 0-1.756-.832c-1.432 0-2.817 1.312-2.817 5.208 0 3.648 1.195 4.936 2.682 4.936a2.366 2.366 0 0 0 1.89-1.016h.001zm8.236 2.816v-11.2a.758.758 0 0 0-.237-.672l-1.306-1.36v-.056h5.895v11.36c0 .352 0 .432.237.648l1.297 1.232v.056l-5.886-.008zM54.876 2.4c0-1.326 1.062-2.4 2.373-2.4 1.31 0 2.373 1.075 2.373 2.4S58.56 4.8 57.25 4.8c-1.31 0-2.373-1.075-2.373-2.4zm20.467 15.344c0 .352 0 .456.237.672l1.33 1.312v.056h-5.926v-2.872A4.295 4.295 0 0 1 66.925 20c-2.627 0-4.035-1.936-4.035-5.6 0-1.768 0-3.704.055-5.88a.684.684 0 0 0-.237-.648l-1.305-1.32v-.056h5.846V13.8c0 2.4.349 4 1.836 4a2.372 2.372 0 0 0 1.914-1.208v-8a.756.756 0 0 0-.237-.672L69.45 6.552v-.056h5.894v11.248zm20.064 2.04c0-.432.08-5.936.08-7.2 0-2.4-.373-4.056-2.042-4.056a2.643 2.643 0 0 0-2.097 1.152c.168.748.247 1.513.238 2.28 0 1.664-.056 3.784-.08 5.904a.685.685 0 0 0 .238.648l1.33 1.232v.056h-5.95c0-.4.079-5.936.079-7.2 0-2.44-.372-4.056-2.018-4.056a2.37 2.37 0 0 0-1.962 1.184v8.16c0 .352 0 .432.237.648l1.298 1.232v.056h-5.886v-11.2a.756.756 0 0 0-.238-.672l-1.305-1.4v-.056h5.894v2.848c.547-1.88 2.288-3.144 4.225-3.064 1.962 0 3.291 1.104 3.853 3.2a4.593 4.593 0 0 1 4.43-3.2c2.627 0 4.114 1.96 4.114 5.664 0 1.768-.055 3.784-.079 5.904a.643.643 0 0 0 .269.648l1.298 1.232v.056h-5.926zM21.361 18.04l1.749 1.688v.056h-8.869v-.056l1.78-1.688a.684.684 0 0 0 .238-.648V6.6c0-.456 0-1.072.078-1.6l-5.98 15h-.072L4.09 6.2c-.134-.344-.174-.368-.26-.6v9.048a3.17 3.17 0 0 0 .292 1.768l2.492 3.312v.056H0v-.056l2.492-3.32a3.183 3.183 0 0 0 .293-1.76v-10c.04-.492-.106-.98-.411-1.368L.609.968V.912h6.33l5.3 11.688L16.907.912h6.195v.056l-1.74 1.96a.692.692 0 0 0-.27.672v13.792a.644.644 0 0 0 .27.648zm6.94-5.408v.056c0 3.424 1.748 4.8 3.797 4.8a4.307 4.307 0 0 0 4.035-2.472h.055C35.476 18.4 33.403 20 30.302 20c-3.347 0-6.504-2.04-6.504-6.768 0-4.968 3.165-6.952 6.662-6.952 2.817 0 5.815 1.344 5.815 5.664v.688H28.3zm0-.688h3.9v-.696c0-3.52-.72-4.456-1.804-4.456-1.314 0-2.113 1.4-2.113 5.152h.016z"></path>
  </symbol>

  <symbol viewBox="0 0 33 20" id="meduza">
    <path d="M13.52 5.226V18.12L19.431 20V5.226h3.803V18.12L29.113 20l3.838-5.226h-3.803V2.056L23.27 0l-3.838 4.53V2.056L13.554 0 9.716 4.53V2.056L3.838 0 0 5.226h3.803V18.12L9.716 20V5.226h3.803z"></path>
  </symbol>

  <symbol viewBox="0 0 18 18" fill="none" id="pdf-file">
    <path d="M8.43 7.94c-.23.74-.56 1.53-1.01 2.4-.2.38-.42.74-.5 1.04l.11-.04c1.27-.49 2.47-.77 3.34-.93-.15-.1-.29-.21-.41-.32-.6-.51-1.12-1.25-1.53-2.15zm6.48 3.81c-.17.19-.47.3-.91.3-.76 0-2-.23-3-.74-1.72.19-3 .42-4.03.75-.05.02-.11.04-.18.07-1.24 2.12-2.16 3.07-2.97 3.07-.16 0-.32-.04-.44-.11l-.48-.31-.03-.05a.908.908 0 0 1-.05-.54c.11-.53.68-1.37 1.88-2.12.19-.14.49-.3.89-.49.3-.52.62-1.13.96-1.8.51-1.03.83-2.05 1.08-2.93v-.01c-.37-1.21-.59-1.94-.22-3.27.09-.38.42-.77.79-.77h.24c.23 0 .45.08.61.24.66.66.35 2.27.02 3.6-.02.06-.03.11-.04.14.4 1.13.97 2.04 1.6 2.56.26.2.55.4.87.58.45-.05.88-.07 1.29-.07 1.24 0 1.99.22 2.28.69.1.16.15.35.12.55-.01.25-.1.48-.28.66zM16 0H2C.89 0 0 .89 0 2v14c0 1.1.9 2 2 2h14c1.1 0 2-.9 2-2V2a2 2 0 0 0-2-2zm-1.5 11.04c-.1-.1-.5-.35-1.9-.35-.07 0-.14 0-.23.1.73.32 1.44.51 1.9.51.07 0 .13-.01.19-.02h.04c.05-.02.08-.03.09-.13-.02-.03-.04-.07-.09-.11zM5.33 12.5c-.21.12-.38.23-.48.31-.71.65-1.16 1.31-1.21 1.69.45-.15 1.04-.81 1.69-2zm3.02-6.91l.05-.04c.07-.32.1-.6.16-.82l.03-.16c.1-.57.08-.86-.09-1.1l-.15-.05c-.02.03-.05.08-.07.12-.17.42-.16 1.15.07 2.05z" fill="#D0021B"></path>
  </symbol>

  <symbol viewBox="0 0 30 30" fill="none" id="play">
    <path d="M12 19.198v-7.289a.5.5 0 0 1 .768-.422l6.478 4.108a.5.5 0 0 1-.047.871l-6.479 3.18a.5.5 0 0 1-.72-.448z" fill="#fff"></path>
    <circle cx="15" cy="15" r="14.5" stroke="#fff"></circle>
  </symbol>

  <symbol viewBox="0 0 16 2" id="minus">
    <path fill-rule="evenodd" clip-rule="evenodd" d="M0 1a1 1 0 0 1 1-1h14a1 1 0 1 1 0 2H1a1 1 0 0 1-1-1z"></path>
  </symbol>

  <symbol viewBox="0 0 16 16" id="plus">
    <path fill-rule="evenodd" clip-rule="evenodd" d="M9 1a1 1 0 1 0-2 0v6H1a1 1 0 0 0 0 2h6v6a1 1 0 1 0 2 0V9h6a1 1 0 1 0 0-2H9V1z"></path>
  </symbol>

  <symbol viewBox="0 0 44 41" id="service-1">
    <path fill-rule="evenodd" clip-rule="evenodd" d="M23 27.002a3 3 0 0 1-3.42 2.97l-.862 4.486c-.597 3.107-3.554 5.544-6.718 5.544a6 6 0 0 1-6-5.995v-12.24c-3.578-1.673-6-5.297-6-9.765C0 5.272 5.505.452 12.17 1.34l19.574 2.61L41.257.145A2 2 0 0 1 44 2.002v20a2 2 0 0 1-2.743 1.857l-9.513-3.805-10.526 1.403-.505 2.63A3.001 3.001 0 0 1 23 27.002zm-13 7.005a2 2 0 0 0 2 1.995c1.248 0 2.555-1.078 2.79-2.3l2.248-11.687-4.867.649c-.74.098-1.466.127-2.171.09v11.253zm24-17.36l6 2.4V4.957l-6 2.4v9.292zm-4-8.894L11.642 5.305C7.375 4.736 4 7.691 4 12.002c0 4.314 3.37 7.266 7.642 6.697L30 16.25V7.753z"></path>
  </symbol>

  <symbol viewBox="0 0 40 39" id="service-2">
    <path fill-rule="evenodd" clip-rule="evenodd" d="M28 18.98V8.218a3 3 0 1 1 4 0V18.98h4c2.21 0 4 1.788 4 3.996v8.008a4.002 4.002 0 0 1-4 3.996h-2a4 4 0 0 1-8 0H14a4 4 0 0 1-8 0H4c-2.21 0-4-1.79-4-3.997v-8.007a4.002 4.002 0 0 1 4-3.996h24zm-24 4v8h32v-8H4zm4 4c0-1.104.902-2 2.008-2h7.983a2 2 0 1 1 0 4H10.01a2 2 0 0 1-2.009-2zm30.649-15.977a2 2 0 1 1-3.458-2.011A5.963 5.963 0 0 0 36 5.98a5.964 5.964 0 0 0-.784-2.97 2 2 0 1 1 3.473-1.982A9.963 9.963 0 0 1 40 5.98c0 1.786-.47 3.509-1.351 5.022zm-17.324-10a2 2 0 0 1 3.468 1.994c-.517.9-.793 1.92-.793 2.984 0 1.098.294 2.149.843 3.069a2 2 0 1 1-3.435 2.05A9.962 9.962 0 0 1 20 5.98c0-1.768.461-3.474 1.325-4.976zm-8 0a2 2 0 0 1 3.468 1.994c-.517.9-.793 1.92-.793 2.984 0 1.098.294 2.149.843 3.069a2 2 0 1 1-3.435 2.05A9.962 9.962 0 0 1 12 5.98c0-1.768.461-3.474 1.325-4.976z"></path>
  </symbol>

  <symbol viewBox="0 0 40 40" id="service-3">
    <path fill-rule="evenodd" clip-rule="evenodd" d="M4 24v4h32v-4H22a2 2 0 0 1-4 .002L4 24zM36 4H4v16h32V4zM25.333 36h4.662c1.107 0 2.005.888 2.005 2 0 1.105-.897 2-2.005 2h-19.99A1.998 1.998 0 0 1 8 38c0-1.105.897-2 2.005-2h4.662l.666-4H1.997A1.995 1.995 0 0 1 0 29.998V2.002C0 .896.892 0 1.997 0h36.006C39.106 0 40 .89 40 2.002v27.996A1.998 1.998 0 0 1 38.003 32H24.667l.666 4z"></path>
  </symbol>

  <symbol viewBox="0 0 46 39" id="service-4">
    <path fill-rule="evenodd" clip-rule="evenodd" d="M35.252 4.598c.777-2.18 2-3.235 3.843-4.002C40.52.003 42.165 0 43.62 0c1.94 0 2.56 1.398 2.338 2.481-.223 1.083-1.217 1.473-2.338 1.473-.847 0-1.88-.031-2.529.18-.649.21-1.677.711-2.068 1.809-.504 1.413-.034 2.751 1.2 4.072a8.735 8.735 0 0 0 1.517 1.283c.527.32.854.844.94 1.41.024.072 3.278 16.328 3.278 16.328.208 1.04-.456 1.891-1.488 1.953l-4.124.003 1.516 6.07C42.13 38.132 41.446 39 40.34 39H1.368C.26 39-.285 38.176.15 37.161l5.4-13.532a3.003 3.003 0 0 1 2.555-5.427c2.752-4.133 8.086-7.229 12.866-7.229h14.97c-1.154-1.91-1.512-4.067-.69-6.375zm-14.28 10.38c-3.916 0-8.717 3.165-10.26 6.769l-2.07 5.242h29.701l3.129.028-.807-4.032H28.987a6.01 6.01 0 0 1-6.008-6.006v-2.002h-2.008zm6.01 2.001c0 1.102.9 2.002 2.005 2.002h10.878l-.8-4.004H26.981v2.002zm4.002 16.015a2.002 2.002 0 0 1-2.001-2.002H24.98a2.001 2.001 0 1 1-4.002 0h-4.002a2.002 2.002 0 1 1-4.003 0H6.935l-1.477 4.004 31.764.01-1.003-4.014h-3.234a2.002 2.002 0 0 1-2.001 2.002z"></path>
  </symbol>

  <symbol viewBox="0 0 48 38" id="service-5">
    <path fill-rule="evenodd" clip-rule="evenodd" d="M30.983 6c2.89 0 4.522-.81 5.387-2.108.286-.43.653-1.25.653-1.877 0-1.105.88-2.007 1.985-2.015a2.002 2.002 0 0 1 2.015 1.993 6.57 6.57 0 0 1-.17 1.393 7.99 7.99 0 0 1-1.154 2.723c-1.634 2.452-4.532 3.892-8.715 3.892-3.672 0-4.738.978-4.943 3.999H36c6.627 0 12 5.373 12 12s-5.373 12-12 12a11.97 11.97 0 0 1-8.944-4h-6.112A11.97 11.97 0 0 1 12 38C5.373 38 0 32.627 0 26s5.373-12 12-12h10.038c.32-5.173 2.739-8 8.945-8zM15.991 24a2 2 0 1 1 0 4H14v1.991a2 2 0 1 1-4 0V28H8.009a2 2 0 1 1 0-4H10v-1.991a2 2 0 1 1 4 0V24h1.992zm2.5 6.744c.367-.41 1.107-.744 1.666-.744h7.686c.553 0 1.302.336 1.667.744l.526.588A7.968 7.968 0 0 0 36 34a8 8 0 1 0 0-16H12a8 8 0 1 0 0 16c2.31 0 4.452-.979 5.964-2.668l.526-.588zM38 30a2 2 0 1 1 0-4 2 2 0 0 1 0 4zm-5-4a2 2 0 1 1 0-4 2 2 0 0 1 0 4z"></path>
  </symbol>

  <symbol viewBox="0 0 44 40" id="service-6">
    <path fill-rule="evenodd" clip-rule="evenodd" d="M34 12h5.998A3.995 3.995 0 0 1 44 15.99v16.02A3.997 3.997 0 0 1 39.998 36H34v2.006A2 2 0 0 1 31.995 40h-19.99A2 2 0 0 1 10 38.006V36H4.002A3.995 3.995 0 0 1 0 32.01V15.99A3.997 3.997 0 0 1 4.002 12H11V1.994C11 .893 11.902 0 13 0h19c1.104 0 2 .895 2 1.994V12zM10 28a2.001 2.001 0 0 1-.009-4H34.01c1.1 0 1.991.888 1.991 2a2 2 0 0 1-1.991 2L34 32h6V16H4v16h6v-4zm4 0v8h16v-8H14zm-4-6a2 2 0 1 1 0-4 2 2 0 0 1 0 4zm5-18v8h15V4H15z"></path>
  </symbol>

  <symbol viewBox="0 0 44 42" id="service-7">
    <path fill-rule="evenodd" clip-rule="evenodd" d="M40 28v9.995A2 2 0 0 1 38.003 40H36a2 2 0 0 1-1.998 2h-2.004A1.994 1.994 0 0 1 30 40H10a2 2 0 0 1-1.998 2H5.998A1.994 1.994 0 0 1 4 40H1.997A2 2 0 0 1 0 37.995v-16A5.997 5.997 0 0 1 6 16v-5.003A2.998 2.998 0 0 1 9 8h22c1.655 0 3 1.347 3 2.997V16c3.314 0 6 2.683 6 5.994l2.002.006c1.103 0 1.998.888 1.998 2 0 2.728-4 4-4 4zM30 16v-4H10v4h20zm6 20V21.994A1.996 1.996 0 0 0 34 20H6c-1.105 0-2 .894-2 1.994V36h32zM8 30c0-1.105.897-2 2.005-2h19.99c1.107 0 2.005.888 2.005 2 0 1.105-.897 2-2.005 2h-19.99A1.998 1.998 0 0 1 8 30zM18 1.998a2 2 0 0 1 4 0v2.004A1.994 1.994 0 0 1 20 6a2 2 0 0 1-2-1.998V1.998zm-8 0a2 2 0 0 1 4 0v2.004A1.994 1.994 0 0 1 12 6a2 2 0 0 1-2-1.998V1.998zm16 0a2 2 0 0 1 4 0v2.004A1.994 1.994 0 0 1 28 6a2 2 0 0 1-2-1.998V1.998z"></path>
  </symbol>

  <symbol viewBox="0 0 44 40" id="service-8">
    <path d="M4 26v2h36v-2H4zm0-4h36V4H4v18zm14 12.144A57.767 57.767 0 0 1 22 34c1.307 0 2.644.05 4 .144V32h-8v2.144zm-4 .395V32H3.009A2.998 2.998 0 0 1 0 29.003V2.997A3.001 3.001 0 0 1 3.009 0H40.99A2.998 2.998 0 0 1 44 2.997v26.006A3 3 0 0 1 40.991 32H30v2.539a84.6 84.6 0 0 1 8.095 1.427l.39.094a2 2 0 0 1-.97 3.88c-.053-.013-.163-.04-.329-.078-.281-.066-.61-.14-.98-.219a78.728 78.728 0 0 0-3.535-.67C29.021 38.365 25.376 38 22 38c-3.376 0-7.021.364-10.671.973-1.281.213-2.47.442-3.535.67a56.865 56.865 0 0 0-1.309.297 2 2 0 1 1-.97-3.88l.39-.094c.304-.07.656-.15 1.05-.234A84.6 84.6 0 0 1 14 34.539z"></path>
  </symbol>

  <symbol viewBox="0 0 44 28" id="service-9">
    <path fill-rule="evenodd" clip-rule="evenodd" d="M44 14a4 4 0 0 1-4 4v3.993A6.003 6.003 0 0 1 34 28H6a6 6 0 0 1-6-6.007V6.007A6.003 6.003 0 0 1 6 0h28a6 6 0 0 1 6 6.007V10a4 4 0 0 1 4 4zM4 6.007v15.986A2 2 0 0 0 6 24h28c1.103 0 2-.898 2-2.007V6.007A2 2 0 0 0 34 4H6c-1.103 0-2 .898-2 2.007zm2 1.987C6 6.893 6.887 6 7.998 6h4.004C13.105 6 14 6.895 14 7.994v12.012A1.991 1.991 0 0 1 12.002 22H7.998A1.997 1.997 0 0 1 6 20.006V7.994zm10 0C16 6.893 16.887 6 17.998 6h4.004C23.105 6 24 6.895 24 7.994v12.012A1.991 1.991 0 0 1 22.002 22h-4.004A1.997 1.997 0 0 1 16 20.006V7.994zm10 0C26 6.893 26.887 6 27.998 6h4.004C33.105 6 34 6.895 34 7.994v12.012A1.991 1.991 0 0 1 32.002 22h-4.004A1.997 1.997 0 0 1 26 20.006V7.994z"></path>
  </symbol>

  <symbol viewBox="0 0 24 24" fill="none" id="shield">
    <path fill-rule="evenodd" clip-rule="evenodd" d="M12 22s8-4 8-10V4l-8-2-8 2v8c0 6 8 10 8 10z" stroke="#fff" stroke-width="2" stroke-linecap="round" stroke-linejoin="round"></path>
  </symbol>

  <symbol viewBox="0 0 53 53" id="solar-energy">
    <path d="M12.422 25.672l-2.485 4.14h2.485v-4.14zm2.484 4.141h-2.484v4.14l2.484-4.14z" fill="#fff"></path>
    <path d="M48.86 22.36h-9.938a2.492 2.492 0 0 0-2.484 2.484v18.218a2.492 2.492 0 0 0 2.484 2.485h2.484v2.484a.828.828 0 0 0 .828.828h.828v.828H27.328V18.22h1.656a.828.828 0 0 0 .828-.828v-2.485h14.079a.856.856 0 0 0 .629-.281.835.835 0 0 0 .19-.663L43.055 2.368a.828.828 0 0 0-.82-.712H10.766a.828.828 0 0 0-.82.712L8.29 13.962a.833.833 0 0 0 .19.663.859.859 0 0 0 .63.281h14.078v2.485a.828.828 0 0 0 .828.828h1.656v31.468H13.25v-9.109h3.313v-1.656h-1.657v-1.656h5.797a2.492 2.492 0 0 0 2.485-2.485v-9.937a2.492 2.492 0 0 0-2.485-2.485H4.141a2.491 2.491 0 0 0-2.485 2.485v9.937a2.492 2.492 0 0 0 2.485 2.485h5.796v1.656H8.281v1.656h3.313v9.938a.828.828 0 0 0 .828.828H43.89a.828.828 0 0 0 .828-.828v-1.657h.828a.828.828 0 0 0 .828-.828v-2.484h2.484a2.492 2.492 0 0 0 2.485-2.484v-18.22a2.492 2.492 0 0 0-2.485-2.484zM4.14 35.61a.828.828 0 0 1-.827-.829v-9.937a.828.828 0 0 1 .828-.828h16.562a.828.828 0 0 1 .828.828v9.937a.828.828 0 0 1-.828.828H4.141zm7.454 3.312v-1.656h1.656v1.656h-1.656zM42.938 13.25H34.69l-.29-2.484h8.182l.356 2.484zm-.596-4.14H34.21l-.298-2.485h8.074l.356 2.484zm-.828-5.797l.24 1.656h-8.033l-.19-1.657h7.983zm-20.372 0h10.716l.199 1.656H20.943l.199-1.657zm-.39 3.312h11.495l.29 2.484H20.463l.29-2.484zM18.31 13.25h-8.248l.356-2.484H18.6l-.29 2.484zm.48-4.14h-8.132l.356-2.485h8.074l-.298 2.484zm.489-4.141h-8.033l.24-1.657h7.983l-.19 1.657zm.695 8.281l.29-2.484h12.472l.29 2.484H19.974zm4.87 3.313v-1.657h3.312v1.656h-3.312zm19.875 30.64h-1.657v-1.656h1.657v1.656zm4.968-4.14a.828.828 0 0 1-.828.828h-9.937a.828.828 0 0 1-.828-.828v-18.22a.828.828 0 0 1 .828-.827h9.937a.828.828 0 0 1 .828.828v18.218z"></path>
    <path d="M35.61 45.547l-3.313-2.484v1.656H30.64V39.75h-1.657v5.797a.828.828 0 0 0 .828.828h2.485v1.656l3.312-2.484zm-18.22 0l3.313 2.484v-1.656h2.485a.828.828 0 0 0 .828-.828V39.75h-1.657v4.969h-1.656v-1.657l-3.312 2.485z"></path>
  </symbol>

  <symbol viewBox="0 0 94 30" id="spin-arrow">
    <path d="M79.44 3.475C70.757 1.245 59.233 0 46.94 0 34.65 0 23.125 1.245 14.443 3.475 5.072 5.913 0 9.285 0 12.968c0 6.328 15.365 11.464 37.415 12.709l-2.228 1.037c-.845.415-1.076 1.193-.461 1.815.384.363.999.571 1.613.571.384 0 .769-.052 1.076-.208l6.991-3.267c.538-.26.845-.675.845-1.09 0-.415-.307-.83-.845-1.089l-6.991-3.009c-.922-.363-2.075-.207-2.69.415-.537.623-.306 1.4.615 1.816l.922.415c-20.359-1.4-32.42-6.121-32.42-10.115 0-4.876 17.67-10.374 43.1-10.374s43.1 5.446 43.1 10.374c0 4.565-14.06 8.87-32.729 10.063-1.076.052-1.844.674-1.767 1.4.077.727 1.076 1.245 2.074 1.194 21.666-1.35 36.186-6.433 36.186-12.605.077-3.735-4.994-7.107-14.367-9.545z"></path>
  </symbol>

  <symbol viewBox="0 0 24 24" fill="none" id="sun">
    <path fill-rule="evenodd" clip-rule="evenodd" d="M12 17a5 5 0 1 0 0-10 5 5 0 0 0 0 10z" stroke="#fff" stroke-width="2" stroke-linecap="round" stroke-linejoin="round"></path>
    <path d="M12 1v2m0 18v2M4.22 4.22l1.42 1.42m12.72 12.72l1.42 1.42M1 12h2m18 0h2M4.22 19.78l1.42-1.42M18.36 5.64l1.42-1.42" stroke="#fff" stroke-width="2" stroke-linecap="round" stroke-linejoin="round"></path>
  </symbol>

  <symbol viewBox="0 0 40 20" id="techcrunch">
    <path d="M20 0v6.667h-6.667V20H6.667V6.667H0V0h20zm6.667 0H40v6.667H26.667V0zM40 13.333V20H20V6.667h6.667v6.666H40z" ></path>
  </symbol>

  <symbol viewBox="0 0 19 16" id="telegram">
    <path d="M6.78 14.65l.28-4.23 7.68-6.92c.34-.31-.07-.46-.52-.19L4.74 9.3.64 8c-.88-.25-.89-.86.2-1.3L16.81.54c.73-.33 1.43.18 1.15 1.3l-2.72 12.81c-.19.91-.74 1.13-1.5.71L9.6 12.3l-1.99 1.93c-.23.23-.42.42-.83.42z"></path>
  </symbol>
  
  <symbol viewBox="0 0 36 40" id="tree">
    <path d="M22.586 16.586a2 2 0 1 1 2.828 2.828L20 24.828V30h4.008C26.257 29.64 28 27.201 28 25c0-.249-.12-1.094-.12-1.094-.075-.565.256-1.22.736-1.491l.326-.184A5.997 5.997 0 0 0 32 17c0-3.32-2.694-6-6.062-6h-.76a1.166 1.166 0 0 1-1.13-.999l-.095-.753A6.001 6.001 0 0 0 18 4c-3.032 0-5.597 2.269-6.02 5.278l-.103.74a1.17 1.17 0 0 1-1.13.982H10a6 6 0 0 0-2.942 11.23l.326.185c.478.27.81.938.737 1.49 0 0-.121.846-.121 1.095a5.003 5.003 0 0 0 3.516 4.777s.487.225 1.262.225L16 30V15.997c0-1.103.888-1.997 2-1.997a2 2 0 0 1 2 1.997v3.175l2.586-2.586zM20 34v4.003A1.994 1.994 0 0 1 18 40a2 2 0 0 1-2-1.997V34h-3.06c-1.282-.01-2.12-.12-3.023-.43C6.713 32.468 4 28.97 4 25c-2.204-1.694-4-4.351-4-8 0-4.964 3.618-9.084 8.36-9.866C8.806 4 12.96 0 18 0c4.495 0 8.347 2.981 9.585 7.139C31.677 7.659 36 11.465 36 17c0 3.649-2.144 6.904-4 8 0 3.969-2.534 7.316-6.326 8.674 0 0-.884.322-1.653.326H20z"></path>
  </symbol>

  <symbol viewBox="0 0 512 512" id="twitter">
    <path d="M512 97.248c-19.04 8.352-39.328 13.888-60.48 16.576 21.76-12.992 38.368-33.408 46.176-58.016-20.288 12.096-42.688 20.64-66.56 25.408C411.872 60.704 384.416 48 354.464 48c-58.112 0-104.896 47.168-104.896 104.992 0 8.32.704 16.32 2.432 23.936-87.264-4.256-164.48-46.08-216.352-109.792-9.056 15.712-14.368 33.696-14.368 53.056 0 36.352 18.72 68.576 46.624 87.232-16.864-.32-33.408-5.216-47.424-12.928v1.152c0 51.008 36.384 93.376 84.096 103.136-8.544 2.336-17.856 3.456-27.52 3.456-6.72 0-13.504-.384-19.872-1.792 13.6 41.568 52.192 72.128 98.08 73.12-35.712 27.936-81.056 44.768-130.144 44.768-8.608 0-16.864-.384-25.12-1.44C46.496 446.88 101.6 464 161.024 464c193.152 0 298.752-160 298.752-298.688 0-4.64-.16-9.12-.384-13.568 20.832-14.784 38.336-33.248 52.608-54.496z"></path>
  </symbol>

  <symbol viewBox="0 0 20 20" id="vk">
    <path d="M13.07 0H6.93C1.33 0 0 1.33 0 6.93v6.14C0 18.67 1.33 20 6.93 20h6.14c5.6 0 6.93-1.33 6.93-6.93V6.93C20 1.33 18.67 0 13.07 0zm3.08 14.27h-1.46c-.55 0-.72-.45-1.69-1.44-.88-.83-1.26-.95-1.47-.95-.29 0-.38.08-.38.5v1.31c0 .35-.11.57-1.04.57-1.54 0-3.25-.94-4.45-2.67-1.81-2.54-2.3-4.46-2.3-4.84 0-.21.07-.41.49-.41h1.47c.37 0 .51.16.65.56.72 2.1 1.92 3.9 2.41 3.9.19 0 .27-.09.27-.55V8.1c-.05-.98-.58-1.07-.58-1.42 0-.18.14-.34.37-.34h2.29c.31 0 .42.16.42.54v2.89c0 .31.13.42.23.42.18 0 .34-.11.67-.45 1.05-1.17 1.8-2.98 1.8-2.98.1-.21.26-.41.65-.41h1.43c.44 0 .54.23.44.54-.18.85-1.96 3.36-1.94 3.36-.16.25-.22.36 0 .65.15.21.66.65 1 1.04.62.71 1.1 1.3 1.23 1.71.11.41-.09.62-.51.62z"></path>
  </symbol>

  <symbol viewBox="0 0 40 36" id="wind">
    <path fill-rule="evenodd" clip-rule="evenodd" d="M32 20a8 8 0 1 1-8 8 2 2 0 1 1 4 0 4 4 0 1 0 4-4H10.005A2.002 2.002 0 0 1 8 22c0-1.112.898-2 2.005-2H32zm-12-8H1.99A2 2 0 0 0 0 14c0 1.112.891 2 1.99 2H20a8 8 0 1 0-8-8 2 2 0 1 0 4 0 4 4 0 1 1 4 4zM0 30a2 2 0 0 1 1.99-2h16.02A1.99 1.99 0 0 1 20 30a2 2 0 0 1-1.99 2H1.99A1.99 1.99 0 0 1 0 30zm0-8a2 2 0 0 1 1.998-2h2.004a2 2 0 0 1 0 4H1.998A1.994 1.994 0 0 1 0 22z"></path>
  </symbol>

  <symbol viewBox="0 0 20 14" id="youtube">
    <path d="M8 10l5.19-3L8 4v6zm11.56-7.83c.13.47.22 1.1.28 1.9.07.8.1 1.49.1 2.09L20 7c0 2.19-.16 3.8-.44 4.83-.25.9-.83 1.48-1.73 1.73-.47.13-1.33.22-2.65.28-1.3.07-2.49.1-3.59.1L10 14c-4.19 0-6.8-.16-7.83-.44-.9-.25-1.48-.83-1.73-1.73-.13-.47-.22-1.1-.28-1.9-.07-.8-.1-1.49-.1-2.09L0 7c0-2.19.16-3.8.44-4.83.25-.9.83-1.48 1.73-1.73C2.64.31 3.5.22 4.82.16c1.3-.07 2.49-.1 3.59-.1L10 0c4.19 0 6.8.16 7.83.44.9.25 1.48.83 1.73 1.73z"></path>
  </symbol>

  <symbol viewBox="0 0 24 24" fill="none" id="zap">
    <path fill-rule="evenodd" clip-rule="evenodd" d="M13 2L3 14h9l-1 8 10-12h-9l1-8z" stroke="#fff" stroke-width="2" stroke-linecap="round" stroke-linejoin="round"></path>
  </symbol>

  <symbol viewBox="0 0 24 24" id="zap-g">
    <path fill-rule="evenodd" clip-rule="evenodd" d="M13 2L3 14h9l-1 8 10-12h-9l1-8z" stroke-width="2" stroke-linecap="round" stroke-linejoin="round"></path>
  </symbol>

  <symbol viewBox="0 0 24 24" id="sunpan">
    <path d="M23.844 15.905l.054-.067.036-.062a.545.545 0 0 0 .048-.078.259.259 0 0 1 0-.072v-.084a.764.764 0 0 0-.054-.49l-2.126-4.676a.744.744 0 0 0-.162-.352L17.346.462a.741.741 0 0 0-.09-.145.219.219 0 0 0-.048-.056.635.635 0 0 0-.06-.073l-.06-.044-.078-.056h-.054l-.101-.05h-.048a.959.959 0 0 0-.12-.034H.844a.92.92 0 0 0-.173 0 .979.979 0 0 0-.33.128L.287.177.21.238.156.3a.704.704 0 0 0-.054.067L.066.428a.352.352 0 0 0-.048.078.338.338 0 0 1 0 .073v.083a.765.765 0 0 0 .054.491l6.582 14.55c.035.068.077.132.126.19l.036.04c.05.055.109.104.174.145.058.032.12.059.185.078h.054c.075.017.151.028.228.033h3.594v6.137H7.21a.933.933 0 0 0-.635.245.809.809 0 0 0-.263.592c0 .222.095.435.263.592A.933.933 0 0 0 7.21 24h9.584a.933.933 0 0 0 .635-.245.809.809 0 0 0 .263-.592.809.809 0 0 0-.263-.592.933.933 0 0 0-.635-.245H12.9V16.19h10.43a.905.905 0 0 0 .324-.128l.06-.05.077-.056.054-.05zm-5.318-1.362l-1.456-3.19h3.27l1.456 3.19h-3.27zm-5.223 0l-1.45-3.19h3.27l1.438 3.19h-3.258zm-5.223 0l-1.45-3.19H9.9l1.45 3.19H8.08zM5.474 1.623l1.456 3.19H3.66l-1.474-3.19h3.288zm5.223 0l1.45 3.19h-3.27l-1.45-3.19h3.27zm5.223 0l1.45 3.19H14.1l-1.45-3.19h3.27zm-1.06 4.864h3.27l1.426 3.191h-3.247l-1.449-3.19zm-.497 3.191h-3.27l-1.456-3.19h3.27l1.456 3.19zM7.69 6.488l1.449 3.19H5.87l-1.45-3.19h3.27z"></path>
  </symbol>


  <symbol viewBox="0 0 24 24" fill="none" id="moon-g">
    <path fill-rule="evenodd" clip-rule="evenodd" d="M21 12.79A9 9 0 1 1 11.21 3 7 7 0 0 0 21 12.79z" stroke-width="2" stroke-linecap="round" stroke-linejoin="round"></path>
  </symbol>

  <symbol viewBox="0 0 24 24" id="sun-g">
    <path d="M0 0h24v24H0V0z" fill="#fff"></path>
    <path fill-rule="evenodd" clip-rule="evenodd" d="M12 0a1 1 0 0 1 1 1v2a1 1 0 1 1-2 0V1a1 1 0 0 1 1-1zM6 12a6 6 0 1 1 12 0 6 6 0 0 1-12 0zm6-4a4 4 0 1 0 0 8 4 4 0 0 0 0-8zm1 13a1 1 0 1 0-2 0v2a1 1 0 1 0 2 0v-2zM3.513 3.513a1 1 0 0 1 1.414 0l1.42 1.42a1 1 0 1 1-1.414 1.414l-1.42-1.42a1 1 0 0 1 0-1.414zm15.554 14.14a1 1 0 0 0-1.414 1.414l1.42 1.42a1 1 0 0 0 1.414-1.414l-1.42-1.42zM0 12a1 1 0 0 1 1-1h2a1 1 0 1 1 0 2H1a1 1 0 0 1-1-1zm21-1a1 1 0 1 0 0 2h2a1 1 0 1 0 0-2h-2zM6.347 17.653a1 1 0 0 1 0 1.414l-1.42 1.42a1 1 0 0 1-1.414-1.414l1.42-1.42a1 1 0 0 1 1.414 0zm14.14-12.726a1 1 0 0 0-1.414-1.414l-1.42 1.42a1 1 0 1 0 1.414 1.414l1.42-1.42z"></path>
  </symbol>

</svg>