<svg width="142" height="563" viewBox="0 0 142 563" fill="none" xmlns="http://www.w3.org/2000/svg">
<path d="M86.5 4.298V11.768H83.908C83.764 11.768 83.638 11.894 83.638 12.038V13.73C83.638 13.874 83.764 14 83.908 14H91.522C91.666 14 91.792 13.874 91.792 13.73V12.038C91.792 11.894 91.666 11.768 91.522 11.768H89.092V1.922C89.092 1.778 88.984 1.652 88.822 1.652H87.598C87.418 1.652 87.202 1.706 87.022 1.76L83.944 2.822C83.728 2.894 83.674 3.038 83.674 3.218V4.874C83.674 5.198 83.8 5.234 84.052 5.162L86.5 4.298ZM102.837 7.88C102.837 3.722 101.199 1.562 98.193 1.562C95.169 1.562 93.531 3.722 93.531 7.88C93.531 12.02 95.169 14.18 98.193 14.18C101.199 14.18 102.837 12.02 102.837 7.88ZM100.263 7.88C100.263 9.248 100.083 10.256 99.705 10.922C99.363 11.516 98.859 11.822 98.193 11.822C97.509 11.822 97.005 11.516 96.663 10.922C96.285 10.256 96.087 9.248 96.087 7.88C96.087 6.548 96.285 5.504 96.681 4.838C97.023 4.244 97.527 3.938 98.193 3.938C98.877 3.938 99.363 4.244 99.705 4.838C100.083 5.504 100.263 6.53 100.263 7.88ZM113.63 7.88C113.63 3.722 111.992 1.562 108.986 1.562C105.962 1.562 104.324 3.722 104.324 7.88C104.324 12.02 105.962 14.18 108.986 14.18C111.992 14.18 113.63 12.02 113.63 7.88ZM111.056 7.88C111.056 9.248 110.876 10.256 110.498 10.922C110.156 11.516 109.652 11.822 108.986 11.822C108.302 11.822 107.798 11.516 107.456 10.922C107.078 10.256 106.88 9.248 106.88 7.88C106.88 6.548 107.078 5.504 107.474 4.838C107.816 4.244 108.32 3.938 108.986 3.938C109.67 3.938 110.156 4.244 110.498 4.838C110.876 5.504 111.056 6.53 111.056 7.88ZM88.534 30.668C88.75 30.668 88.876 30.578 88.984 30.38L90.496 27.86V31.73C90.496 31.874 90.622 32 90.766 32H92.548C92.692 32 92.818 31.874 92.818 31.73V24.026C92.818 23.864 92.692 23.756 92.548 23.756H90.748C90.532 23.756 90.406 23.774 90.262 24.026L87.994 27.986L85.69 24.026C85.564 23.774 85.42 23.756 85.204 23.756H83.44C83.278 23.756 83.17 23.864 83.17 24.026V31.73C83.17 31.874 83.278 32 83.44 32H85.222C85.366 32 85.492 31.874 85.492 31.73V27.86L86.986 30.38C87.094 30.578 87.22 30.668 87.454 30.668H88.534ZM100.522 30.668C100.738 30.668 100.864 30.578 100.972 30.38L102.484 27.86V31.73C102.484 31.874 102.61 32 102.754 32H104.536C104.68 32 104.806 31.874 104.806 31.73V24.026C104.806 23.864 104.68 23.756 104.536 23.756H102.736C102.52 23.756 102.394 23.774 102.25 24.026L99.9823 27.986L97.6783 24.026C97.5523 23.774 97.4083 23.756 97.1923 23.756H95.4283C95.2663 23.756 95.1583 23.864 95.1583 24.026V31.73C95.1583 31.874 95.2663 32 95.4283 32H97.2103C97.3543 32 97.4803 31.874 97.4803 31.73V27.86L98.9743 30.38C99.0823 30.578 99.2083 30.668 99.4423 30.668H100.522Z" fill="#0094FF"/>
<path d="M4.298 340.5L11.768 340.5L11.768 343.092C11.768 343.236 11.894 343.362 12.038 343.362L13.73 343.362C13.874 343.362 14 343.236 14 343.092L14 335.478C14 335.334 13.874 335.208 13.73 335.208L12.038 335.208C11.894 335.208 11.768 335.334 11.768 335.478L11.768 337.908L1.922 337.908C1.778 337.908 1.652 338.016 1.652 338.178L1.652 339.402C1.652 339.582 1.706 339.798 1.76 339.978L2.822 343.056C2.894 343.272 3.038 343.326 3.218 343.326L4.874 343.326C5.198 343.326 5.234 343.2 5.162 342.948L4.298 340.5ZM7.88 324.163C3.722 324.163 1.562 325.801 1.562 328.807C1.562 331.831 3.722 333.469 7.88 333.469C12.02 333.469 14.18 331.831 14.18 328.807C14.18 325.801 12.02 324.163 7.88 324.163ZM7.88 326.737C9.248 326.737 10.256 326.917 10.922 327.295C11.516 327.637 11.822 328.141 11.822 328.807C11.822 329.491 11.516 329.995 10.922 330.337C10.256 330.715 9.248 330.913 7.88 330.913C6.548 330.913 5.504 330.715 4.838 330.319C4.244 329.977 3.938 329.473 3.938 328.807C3.938 328.123 4.244 327.637 4.838 327.295C5.504 326.917 6.53 326.737 7.88 326.737ZM8.402 321.92C8.69 321.938 8.762 321.902 8.816 321.65L9.05 320.462C9.104 320.3 9.086 320.192 8.906 320.084C8.654 319.94 8.42 319.742 8.222 319.4C8.024 319.13 7.898 318.734 7.898 318.248C7.898 317.654 8.078 317.204 8.456 316.862C8.798 316.556 9.338 316.394 10.004 316.394C10.652 316.394 11.156 316.592 11.516 316.916C11.948 317.276 12.146 317.834 12.146 318.446C12.146 319.652 11.786 320.264 11.228 321.092C11.138 321.218 11.156 321.344 11.318 321.434L12.776 322.118C12.938 322.208 13.064 322.154 13.154 322.01C13.784 321.128 14.18 320.084 14.18 318.446C14.18 316.988 13.712 315.764 12.866 314.972C12.146 314.288 11.156 313.874 9.986 313.874C8.798 313.874 7.808 314.198 7.106 314.792C6.296 315.44 5.864 316.484 5.864 317.888C5.864 318.194 5.9 318.482 5.972 318.752C6.062 319.04 6.152 319.31 6.26 319.49L3.992 319.31L3.992 314.774C3.992 314.63 3.866 314.504 3.704 314.504L2.012 314.504C1.868 314.504 1.742 314.63 1.742 314.774L1.742 321.2C1.742 321.362 1.868 321.47 2.012 321.488L8.402 321.92ZM7.88 302.577C3.722 302.577 1.562 304.215 1.562 307.221C1.562 310.245 3.722 311.883 7.88 311.883C12.02 311.883 14.18 310.245 14.18 307.221C14.18 304.215 12.02 302.577 7.88 302.577ZM7.88 305.151C9.248 305.151 10.256 305.331 10.922 305.709C11.516 306.051 11.822 306.555 11.822 307.221C11.822 307.905 11.516 308.409 10.922 308.751C10.256 309.129 9.248 309.327 7.88 309.327C6.548 309.327 5.504 309.129 4.838 308.733C4.244 308.391 3.938 307.887 3.938 307.221C3.938 306.537 4.244 306.051 4.838 305.709C5.504 305.331 6.53 305.151 7.88 305.151ZM12.668 290.653C12.668 290.437 12.578 290.311 12.38 290.203L9.86 288.691L13.73 288.691C13.874 288.691 14 288.565 14 288.421L14 286.639C14 286.495 13.874 286.369 13.73 286.369L6.026 286.369C5.864 286.369 5.756 286.495 5.756 286.639L5.756 288.439C5.756 288.655 5.774 288.781 6.026 288.925L9.986 291.193L6.026 293.497C5.774 293.623 5.756 293.767 5.756 293.983L5.756 295.747C5.756 295.909 5.864 296.017 6.026 296.017L13.73 296.017C13.874 296.017 14 295.909 14 295.747L14 293.965C14 293.821 13.874 293.695 13.73 293.695L9.86 293.695L12.38 292.201C12.578 292.093 12.668 291.967 12.668 291.733L12.668 290.653ZM12.668 278.665C12.668 278.449 12.578 278.323 12.38 278.215L9.86 276.703L13.73 276.703C13.874 276.703 14 276.577 14 276.433L14 274.651C14 274.507 13.874 274.381 13.73 274.381L6.026 274.381C5.864 274.381 5.756 274.507 5.756 274.651L5.756 276.451C5.756 276.667 5.774 276.793 6.026 276.937L9.986 279.205L6.026 281.509C5.774 281.635 5.756 281.779 5.756 281.995L5.756 283.759C5.756 283.921 5.864 284.029 6.026 284.029L13.73 284.029C13.874 284.029 14 283.921 14 283.759L14 281.977C14 281.833 13.874 281.707 13.73 281.707L9.86 281.707L12.38 280.213C12.578 280.105 12.668 279.979 12.668 279.745L12.668 278.665Z" fill="#0094FF"/>
<path d="M58 68.5V549M58 68.5H140L138.5 549H58M58 68.5V57M58 549V561" stroke="url(#paint0_linear)" stroke-width="3"/>
<circle cx="71" cy="142" r="1.5" fill="black" stroke="url(#paint1_linear)"/>
<circle cx="71" cy="207" r="1.5" fill="black" stroke="url(#paint2_linear)"/>
<circle cx="127" cy="142" r="1.5" fill="black" stroke="url(#paint3_linear)"/>
<circle cx="127" cy="207" r="1.5" fill="black" stroke="url(#paint4_linear)"/>
<path opacity="0.3" d="M57 45V8H77" stroke="black"/>
<path opacity="0.3" d="M141 45V8H121" stroke="black"/>
<path opacity="0.3" d="M46 57L9 57L8.99999 258" stroke="black"/>
<path opacity="0.3" d="M46 562L9 562L8.99999 360" stroke="black"/>
<path d="M65 137V212H133V137H65Z" stroke="url(#paint5_linear)" stroke-width="3"/>
<path d="M65 342V485H133V342H65Z" stroke="url(#paint6_linear)" stroke-width="3"/>
<path d="M73 150.5V147H125V150.5M73 150.5H125M73 150.5V155.5M125 150.5V155.5M125 155.5H73M125 155.5V160.5M73 155.5V160.5M73 160.5H125M73 160.5V165.5M125 160.5V165.5M73 165.5H125M73 165.5V170.5M125 165.5V170.5M73 170.5H125M73 170.5V176M125 170.5V176M73 176H125M73 176V181.5M125 176V181.5M73 181.5H125M73 181.5V187M125 181.5V187M73 187H125M73 187V192.5M125 187V192.5M73 192.5H125M73 192.5V198M125 192.5V198M73 198V202H125V198M73 198H125" stroke="url(#paint7_linear)" stroke-width="3"/>
<defs>
<linearGradient id="paint0_linear" x1="69.1358" y1="138.868" x2="182.53" y2="150.62" gradientUnits="userSpaceOnUse">
<stop stop-color="#2A3275"/>
<stop offset="0.994792" stop-color="#0094FF"/>
</linearGradient>
<linearGradient id="paint1_linear" x1="69.5432" y1="140.65" x2="73.5203" y2="143.183" gradientUnits="userSpaceOnUse">
<stop stop-color="#2A3275"/>
<stop offset="0.994792" stop-color="#0094FF"/>
</linearGradient>
<linearGradient id="paint2_linear" x1="69.5432" y1="205.65" x2="73.5203" y2="208.183" gradientUnits="userSpaceOnUse">
<stop stop-color="#2A3275"/>
<stop offset="0.994792" stop-color="#0094FF"/>
</linearGradient>
<linearGradient id="paint3_linear" x1="125.543" y1="140.65" x2="129.52" y2="143.183" gradientUnits="userSpaceOnUse">
<stop stop-color="#2A3275"/>
<stop offset="0.994792" stop-color="#0094FF"/>
</linearGradient>
<linearGradient id="paint4_linear" x1="125.543" y1="205.65" x2="129.52" y2="208.183" gradientUnits="userSpaceOnUse">
<stop stop-color="#2A3275"/>
<stop offset="0.994792" stop-color="#0094FF"/>
</linearGradient>
<linearGradient id="paint5_linear" x1="74.2346" y1="149.183" x2="145.507" y2="190.344" gradientUnits="userSpaceOnUse">
<stop stop-color="#2A3275"/>
<stop offset="0.994792" stop-color="#0094FF"/>
</linearGradient>
<linearGradient id="paint6_linear" x1="74.2346" y1="365.228" x2="161.291" y2="391.598" gradientUnits="userSpaceOnUse">
<stop stop-color="#2A3275"/>
<stop offset="0.994792" stop-color="#0094FF"/>
</linearGradient>
<linearGradient id="paint7_linear" x1="80.0617" y1="155.934" x2="133.398" y2="188.055" gradientUnits="userSpaceOnUse">
<stop stop-color="#2A3275"/>
<stop offset="0.994792" stop-color="#0094FF"/>
</linearGradient>
</defs>
</svg>
