<svg width="622" height="566" viewBox="0 0 622 566" fill="none" xmlns="http://www.w3.org/2000/svg">
<mask id="mask0" mask-type="alpha" maskUnits="userSpaceOnUse" x="121" y="154" width="148" height="53">
<path fill-rule="evenodd" clip-rule="evenodd" d="M140.886 170.074L137.779 164.913C137.613 164.639 137.379 164.413 137.1 164.257C136.821 164.1 136.506 164.018 136.185 164.019H133.838H128.791L138.978 187.287H142.903L153.09 164.008H148.075H145.706C145.389 164.013 145.079 164.099 144.805 164.257C144.53 164.416 144.301 164.641 144.139 164.913L140.886 170.074ZM136.814 170.947L140.886 177.773L145.017 170.947L140.886 180.321L136.814 170.947Z" fill="black"/>
<path fill-rule="evenodd" clip-rule="evenodd" d="M171.897 168.302C170.197 168.298 168.549 168.883 167.233 169.958C165.917 171.032 165.014 172.53 164.678 174.196C164.342 175.862 164.594 177.592 165.391 179.093C166.188 180.594 167.48 181.772 169.048 182.427C170.617 183.081 172.363 183.172 173.991 182.684C175.618 182.195 177.026 181.158 177.974 179.748C178.923 178.338 179.353 176.642 179.192 174.951C179.031 173.259 178.288 171.676 177.09 170.47C176.411 169.783 175.602 169.237 174.711 168.865C173.819 168.493 172.863 168.301 171.897 168.302ZM171.897 187.58C169.137 187.578 166.464 186.62 164.333 184.868C162.201 183.116 160.743 180.679 160.206 177.973C159.67 175.266 160.088 172.457 161.39 170.025C162.692 167.592 164.798 165.686 167.347 164.632C169.897 163.577 172.733 163.439 175.373 164.241C178.013 165.043 180.293 166.736 181.825 169.031C183.357 171.325 184.047 174.08 183.775 176.826C183.504 179.572 182.289 182.138 180.338 184.089C179.231 185.199 177.915 186.079 176.466 186.679C175.017 187.278 173.464 187.584 171.897 187.58ZM243.855 187.288V182.696H252.974C253.605 182.696 254.211 182.445 254.657 181.999C255.103 181.552 255.354 180.947 255.354 180.316C255.351 179.686 255.099 179.083 254.654 178.638C254.208 178.193 253.604 177.943 252.974 177.941H250.16C249.229 177.967 248.302 177.806 247.433 177.467C246.565 177.129 245.773 176.62 245.105 175.97C244.437 175.32 243.906 174.543 243.544 173.685C243.181 172.826 242.994 171.904 242.994 170.972C242.994 170.04 243.181 169.117 243.544 168.259C243.906 167.4 244.437 166.623 245.105 165.974C245.773 165.324 246.565 164.815 247.433 164.476C248.302 164.138 249.229 163.977 250.16 164.003H258.607V168.595H250.16C249.839 168.579 249.517 168.629 249.215 168.742C248.914 168.854 248.638 169.027 248.405 169.249C248.171 169.471 247.986 169.739 247.859 170.035C247.732 170.331 247.667 170.65 247.667 170.972C247.667 171.294 247.732 171.613 247.859 171.909C247.986 172.205 248.171 172.472 248.405 172.694C248.638 172.917 248.914 173.089 249.215 173.202C249.517 173.314 249.839 173.364 250.16 173.349H252.974C254.789 173.4 256.512 174.156 257.778 175.458C259.044 176.759 259.752 178.503 259.752 180.318C259.752 182.134 259.044 183.878 257.778 185.179C256.512 186.481 254.789 187.237 252.974 187.288H243.855ZM223.254 187.288V168.595H216.596V164.003H234.541V168.595H227.867V187.288H223.254ZM192.774 187.288V164.003H197.366V182.696H209.527V187.288H192.774ZM171.875 168.313C173.574 168.309 175.222 168.894 176.539 169.968C177.855 171.043 178.758 172.541 179.094 174.207C179.429 175.872 179.177 177.603 178.381 179.104C177.584 180.605 176.291 181.783 174.723 182.438C173.155 183.092 171.408 183.183 169.781 182.695C168.153 182.206 166.745 181.169 165.797 179.758C164.849 178.348 164.418 176.653 164.58 174.962C164.741 173.27 165.483 171.687 166.681 170.481C167.36 169.794 168.169 169.248 169.06 168.876C169.952 168.504 170.909 168.312 171.875 168.313ZM171.875 187.591C169.116 187.589 166.443 186.63 164.311 184.878C162.18 183.127 160.721 180.69 160.185 177.983C159.648 175.277 160.067 172.468 161.369 170.036C162.671 167.603 164.776 165.697 167.326 164.642C169.875 163.588 172.712 163.45 175.352 164.252C177.991 165.054 180.272 166.747 181.804 169.041C183.336 171.336 184.025 174.091 183.754 176.837C183.482 179.583 182.267 182.149 180.316 184.1C179.211 185.206 177.898 186.082 176.453 186.679C175.008 187.277 173.46 187.583 171.897 187.58L171.875 187.591Z" fill="black"/>
<path d="M158.234 196.96C158.321 196.911 158.381 196.927 158.413 196.987L158.684 197.486C158.694 197.514 158.694 197.545 158.684 197.573C158.674 197.602 158.655 197.626 158.63 197.643C158.229 197.883 157.769 198.007 157.302 198.001C157.043 198.009 156.786 197.966 156.545 197.872C156.303 197.779 156.083 197.638 155.898 197.458C155.564 197.097 155.378 196.623 155.378 196.13C155.378 195.638 155.564 195.163 155.898 194.802C156.069 194.636 156.272 194.506 156.495 194.421C156.717 194.336 156.955 194.298 157.194 194.309C157.454 194.292 157.716 194.339 157.954 194.447C158.192 194.555 158.4 194.719 158.56 194.927C158.811 195.35 158.925 195.84 158.885 196.331C158.887 196.346 158.885 196.362 158.88 196.376C158.875 196.391 158.866 196.404 158.855 196.415C158.845 196.426 158.831 196.434 158.817 196.439C158.802 196.445 158.787 196.446 158.771 196.445H156.483C156.509 196.621 156.589 196.786 156.711 196.916C156.803 197.002 156.911 197.069 157.03 197.113C157.148 197.157 157.274 197.176 157.4 197.171C157.692 197.177 157.98 197.104 158.234 196.96ZM157.898 195.805C157.894 195.636 157.833 195.474 157.725 195.344C157.655 195.273 157.57 195.217 157.476 195.182C157.383 195.146 157.283 195.131 157.183 195.138C157.083 195.135 156.984 195.151 156.891 195.186C156.798 195.222 156.713 195.275 156.641 195.344C156.533 195.476 156.465 195.636 156.445 195.805H157.898Z" fill="black"/>
<path d="M162.68 194.758C162.822 194.616 162.991 194.506 163.178 194.433C163.364 194.36 163.564 194.327 163.764 194.335C164.141 194.319 164.51 194.442 164.8 194.682C164.939 194.825 165.047 194.995 165.117 195.182C165.187 195.369 165.218 195.568 165.206 195.767V197.789C165.207 197.804 165.205 197.819 165.199 197.833C165.194 197.848 165.186 197.86 165.175 197.871C165.164 197.882 165.151 197.89 165.137 197.896C165.123 197.901 165.108 197.904 165.093 197.903H164.269C164.239 197.901 164.211 197.889 164.19 197.868C164.168 197.847 164.156 197.819 164.155 197.789V196.049C164.176 195.812 164.113 195.576 163.976 195.382C163.916 195.32 163.843 195.272 163.763 195.241C163.682 195.21 163.596 195.197 163.51 195.203C162.908 195.203 162.685 195.745 162.685 196.287V197.827C162.678 197.852 162.664 197.874 162.643 197.889C162.622 197.905 162.597 197.913 162.572 197.914H161.78C161.75 197.914 161.721 197.902 161.7 197.88C161.678 197.859 161.666 197.83 161.666 197.8V194.52C161.666 194.49 161.678 194.461 161.7 194.439C161.721 194.418 161.75 194.406 161.78 194.406H162.539C162.569 194.406 162.598 194.418 162.62 194.439C162.641 194.461 162.653 194.49 162.653 194.52V194.758H162.68Z" fill="black"/>
<path d="M170.753 196.96C170.839 196.911 170.899 196.927 170.931 196.987L171.203 197.486C171.212 197.514 171.212 197.545 171.202 197.573C171.193 197.602 171.174 197.626 171.148 197.643C170.747 197.883 170.287 198.007 169.82 198.001C169.561 198.009 169.302 197.966 169.06 197.873C168.818 197.78 168.597 197.639 168.41 197.458C168.079 197.096 167.895 196.622 167.895 196.13C167.895 195.639 168.079 195.165 168.41 194.802C168.583 194.636 168.787 194.507 169.01 194.422C169.234 194.337 169.473 194.298 169.712 194.309C169.972 194.294 170.232 194.343 170.47 194.451C170.708 194.558 170.916 194.722 171.078 194.927C171.329 195.35 171.443 195.84 171.403 196.331C171.404 196.346 171.401 196.362 171.396 196.377C171.39 196.391 171.381 196.404 171.37 196.415C171.358 196.426 171.345 196.434 171.33 196.439C171.315 196.444 171.299 196.446 171.284 196.445H168.974C169 196.623 169.082 196.788 169.207 196.916C169.299 197.003 169.407 197.07 169.526 197.114C169.644 197.158 169.77 197.177 169.896 197.171C170.196 197.181 170.492 197.108 170.753 196.96ZM170.411 195.805C170.415 195.714 170.4 195.623 170.366 195.538C170.332 195.454 170.281 195.377 170.215 195.314C170.15 195.251 170.071 195.203 169.985 195.172C169.899 195.142 169.808 195.13 169.717 195.138C169.516 195.132 169.321 195.206 169.175 195.344C169.067 195.475 169 195.636 168.985 195.805H170.411Z" fill="black"/>
<path d="M175.182 196.195V197.822C175.175 197.853 175.157 197.88 175.13 197.897C175.104 197.914 175.072 197.92 175.041 197.914H174.276C174.261 197.915 174.246 197.912 174.232 197.907C174.218 197.901 174.205 197.893 174.194 197.882C174.184 197.871 174.175 197.859 174.17 197.844C174.164 197.83 174.162 197.815 174.163 197.8V194.52C174.162 194.505 174.164 194.49 174.17 194.476C174.175 194.461 174.184 194.448 174.194 194.438C174.205 194.427 174.218 194.419 174.232 194.413C174.246 194.408 174.261 194.405 174.276 194.406H175.041C175.071 194.406 175.1 194.418 175.121 194.439C175.143 194.461 175.155 194.49 175.155 194.52V194.731C175.26 194.604 175.392 194.502 175.543 194.433C175.693 194.364 175.857 194.331 176.022 194.336C176.336 194.325 176.642 194.429 176.884 194.628C176.91 194.646 176.927 194.672 176.934 194.702C176.941 194.732 176.937 194.764 176.922 194.791L176.667 195.398C176.658 195.413 176.646 195.425 176.632 195.434C176.618 195.444 176.602 195.45 176.585 195.453C176.568 195.456 176.551 195.456 176.534 195.452C176.518 195.448 176.502 195.441 176.488 195.431C176.305 195.304 176.088 195.235 175.865 195.23C175.328 195.23 175.182 195.713 175.182 196.195Z" fill="black"/>
<path d="M181.579 198.727C181.72 198.561 181.792 198.347 181.78 198.13V197.789C181.516 197.928 181.221 197.995 180.923 197.984C180.708 197.991 180.494 197.955 180.293 197.879C180.092 197.803 179.908 197.687 179.752 197.539C179.575 197.357 179.435 197.14 179.342 196.903C179.249 196.665 179.204 196.412 179.21 196.157C179.197 195.667 179.369 195.191 179.693 194.823C179.848 194.664 180.035 194.539 180.241 194.455C180.447 194.371 180.668 194.33 180.891 194.335C181.204 194.341 181.508 194.441 181.764 194.623V194.52C181.764 194.504 181.767 194.489 181.773 194.475C181.779 194.461 181.788 194.448 181.799 194.437C181.81 194.427 181.823 194.418 181.838 194.413C181.852 194.408 181.867 194.405 181.883 194.406H182.636C182.652 194.405 182.667 194.408 182.682 194.413C182.696 194.418 182.709 194.427 182.72 194.437C182.732 194.448 182.74 194.461 182.747 194.475C182.753 194.489 182.756 194.504 182.756 194.52V198C182.773 198.256 182.733 198.512 182.639 198.75C182.546 198.988 182.4 199.202 182.214 199.377C181.84 199.649 181.384 199.781 180.923 199.751C180.436 199.759 179.956 199.628 179.541 199.372C179.516 199.355 179.498 199.33 179.488 199.302C179.478 199.274 179.478 199.243 179.487 199.215L179.79 198.635C179.797 198.619 179.808 198.605 179.822 198.595C179.836 198.584 179.852 198.577 179.869 198.574C179.885 198.57 179.903 198.571 179.92 198.576C179.936 198.581 179.951 198.59 179.964 198.602C180.251 198.801 180.591 198.908 180.939 198.911C181.053 198.925 181.168 198.916 181.278 198.884C181.388 198.853 181.491 198.799 181.579 198.727ZM181.78 196.927V195.474C181.577 195.312 181.329 195.217 181.07 195.203C180.968 195.2 180.867 195.219 180.774 195.258C180.68 195.297 180.596 195.356 180.527 195.43C180.362 195.642 180.277 195.905 180.289 196.173C180.269 196.445 180.352 196.714 180.522 196.927C180.591 197.001 180.675 197.059 180.769 197.097C180.862 197.135 180.963 197.153 181.064 197.149C181.319 197.147 181.569 197.07 181.78 196.927Z" fill="black"/>
<path d="M188.052 198.12C187.914 198.552 187.667 198.942 187.337 199.253C187.125 199.437 186.878 199.576 186.61 199.66C186.342 199.744 186.06 199.771 185.781 199.741C185.756 199.741 185.733 199.731 185.716 199.714C185.698 199.697 185.689 199.673 185.689 199.649V198.868C185.688 198.856 185.69 198.843 185.694 198.832C185.698 198.82 185.705 198.81 185.714 198.801C185.723 198.792 185.733 198.786 185.745 198.781C185.756 198.777 185.768 198.775 185.781 198.776C185.84 198.776 185.9 198.776 186.019 198.776C186.228 198.781 186.432 198.716 186.599 198.591C186.742 198.47 186.862 198.323 186.952 198.158L185.325 194.552C185.325 194.482 185.325 194.39 185.423 194.39H186.372C186.413 194.383 186.456 194.392 186.491 194.415C186.526 194.438 186.551 194.474 186.561 194.515L187.467 196.889L188.226 194.515C188.226 194.422 188.307 194.39 188.416 194.39H189.288C189.408 194.39 189.408 194.482 189.381 194.552L188.052 198.12Z" fill="black"/>
<path d="M197.377 196.932C197.377 196.764 197.242 196.705 197.047 196.618C196.851 196.531 196.553 196.434 196.304 196.314C196.124 196.238 195.973 196.108 195.871 195.942C195.769 195.776 195.721 195.582 195.735 195.387C195.735 194.742 196.233 194.335 197.144 194.335C197.56 194.319 197.974 194.412 198.342 194.606C198.357 194.612 198.369 194.621 198.38 194.632C198.39 194.643 198.398 194.656 198.403 194.671C198.407 194.685 198.409 194.701 198.407 194.716C198.405 194.731 198.399 194.745 198.391 194.758L198.109 195.3C198.082 195.36 198.033 195.371 197.974 195.338C197.732 195.197 197.457 195.12 197.177 195.116C196.971 195.116 196.813 195.187 196.813 195.36C196.813 195.534 196.976 195.593 197.155 195.664C197.334 195.734 197.627 195.832 197.871 195.956C198.047 196.027 198.198 196.15 198.302 196.309C198.405 196.468 198.458 196.656 198.451 196.846C198.451 197.491 197.909 197.973 196.992 197.973C196.549 197.996 196.107 197.895 195.718 197.68C195.648 197.643 195.632 197.588 195.664 197.539L195.946 196.943C195.952 196.929 195.961 196.917 195.973 196.907C195.984 196.897 195.997 196.89 196.012 196.886C196.026 196.882 196.042 196.881 196.056 196.883C196.071 196.886 196.085 196.891 196.098 196.9C196.356 197.076 196.659 197.173 196.971 197.182C197.226 197.209 197.377 197.117 197.377 196.932Z" fill="black"/>
<path d="M202.37 196.542C202.363 196.68 202.389 196.818 202.446 196.943C202.481 197.006 202.534 197.057 202.597 197.09C202.661 197.122 202.733 197.136 202.804 197.128C202.988 197.123 203.164 197.054 203.303 196.932C203.373 196.878 203.444 196.889 203.466 196.932L203.737 197.475C203.75 197.501 203.752 197.532 203.743 197.56C203.734 197.589 203.714 197.613 203.688 197.626C203.345 197.85 202.943 197.966 202.533 197.957C202.367 197.972 202.199 197.95 202.042 197.891C201.886 197.833 201.744 197.741 201.628 197.621C201.428 197.334 201.33 196.989 201.351 196.64V195.203H200.966C200.935 195.203 200.904 195.19 200.882 195.168C200.86 195.146 200.847 195.115 200.847 195.084V194.542C200.847 194.526 200.85 194.511 200.856 194.497C200.862 194.483 200.871 194.47 200.882 194.459C200.893 194.448 200.907 194.44 200.921 194.435C200.936 194.429 200.951 194.427 200.966 194.428H201.351V193.718C201.35 193.702 201.353 193.687 201.358 193.672C201.364 193.658 201.372 193.645 201.383 193.634C201.393 193.622 201.406 193.613 201.42 193.607C201.434 193.601 201.45 193.598 201.465 193.598H202.251C202.267 193.598 202.283 193.6 202.298 193.606C202.313 193.611 202.326 193.62 202.337 193.631C202.348 193.643 202.357 193.656 202.363 193.671C202.369 193.686 202.371 193.702 202.37 193.718V194.406H203.341C203.356 194.405 203.372 194.408 203.386 194.413C203.401 194.419 203.414 194.427 203.425 194.437C203.436 194.448 203.445 194.461 203.451 194.475C203.457 194.489 203.46 194.505 203.46 194.52V195.062C203.461 195.078 203.458 195.094 203.453 195.109C203.447 195.123 203.438 195.137 203.427 195.148C203.416 195.159 203.402 195.168 203.387 195.174C203.373 195.18 203.357 195.182 203.341 195.181H202.37V196.542Z" fill="black"/>
<path d="M207.949 194.336C208.308 194.351 208.654 194.47 208.945 194.68C209.236 194.89 209.459 195.181 209.587 195.517C209.714 195.852 209.74 196.218 209.661 196.568C209.583 196.918 209.403 197.237 209.144 197.486C208.886 197.735 208.56 197.903 208.207 197.968C207.854 198.034 207.49 197.994 207.159 197.854C206.829 197.714 206.547 197.481 206.348 197.182C206.149 196.883 206.042 196.532 206.041 196.174C206.034 195.924 206.08 195.677 206.174 195.446C206.269 195.215 206.41 195.007 206.59 194.834C206.769 194.661 206.983 194.527 207.217 194.442C207.451 194.356 207.7 194.32 207.949 194.336ZM207.949 197.149C208.146 197.165 208.343 197.12 208.514 197.022C208.685 196.923 208.823 196.776 208.909 196.598C208.994 196.42 209.025 196.221 208.995 196.025C208.966 195.83 208.879 195.648 208.744 195.504C208.61 195.359 208.435 195.258 208.243 195.214C208.05 195.17 207.849 195.186 207.665 195.258C207.482 195.33 207.324 195.456 207.213 195.62C207.102 195.783 207.043 195.976 207.044 196.174C207.031 196.299 207.046 196.425 207.086 196.544C207.126 196.664 207.191 196.773 207.277 196.865C207.362 196.957 207.467 197.031 207.582 197.08C207.698 197.128 207.823 197.152 207.949 197.149Z" fill="black"/>
<path d="M213.674 196.195V197.822C213.668 197.852 213.649 197.88 213.623 197.897C213.596 197.914 213.564 197.92 213.533 197.914H212.747C212.732 197.915 212.717 197.912 212.703 197.907C212.688 197.901 212.676 197.893 212.665 197.882C212.654 197.871 212.646 197.859 212.64 197.844C212.635 197.83 212.632 197.815 212.633 197.8V194.52C212.632 194.505 212.635 194.49 212.64 194.475C212.646 194.461 212.654 194.448 212.665 194.438C212.676 194.427 212.688 194.419 212.703 194.413C212.717 194.408 212.732 194.405 212.747 194.406H213.533C213.563 194.406 213.592 194.418 213.614 194.439C213.635 194.461 213.647 194.49 213.647 194.52V194.731C213.752 194.604 213.885 194.502 214.035 194.433C214.185 194.364 214.349 194.331 214.514 194.336C214.829 194.326 215.137 194.43 215.382 194.628C215.405 194.647 215.422 194.674 215.429 194.703C215.436 194.733 215.433 194.764 215.42 194.791L215.16 195.398C215.15 195.412 215.138 195.425 215.124 195.434C215.11 195.444 215.094 195.45 215.077 195.453C215.06 195.456 215.043 195.456 215.027 195.452C215.01 195.448 214.994 195.441 214.981 195.431C214.797 195.304 214.58 195.234 214.357 195.23C213.82 195.23 213.674 195.713 213.674 196.195Z" fill="black"/>
<path d="M218.239 195.398C218.163 195.441 218.109 195.441 218.071 195.36L217.87 194.877C217.861 194.865 217.854 194.85 217.851 194.835C217.848 194.819 217.849 194.803 217.853 194.788C217.857 194.773 217.865 194.759 217.876 194.747C217.886 194.735 217.899 194.726 217.914 194.72C218.349 194.466 218.846 194.333 219.35 194.335C219.555 194.322 219.76 194.35 219.953 194.419C220.146 194.488 220.323 194.596 220.473 194.737C220.693 194.998 220.803 195.334 220.782 195.674V197.81C220.78 197.841 220.767 197.87 220.745 197.891C220.723 197.913 220.693 197.924 220.662 197.924H219.985C219.969 197.925 219.953 197.923 219.939 197.917C219.924 197.912 219.91 197.904 219.899 197.893C219.887 197.883 219.878 197.87 219.871 197.856C219.864 197.842 219.861 197.826 219.86 197.81V197.751H219.827C219.547 197.927 219.22 198.014 218.889 198C218.591 198.01 218.3 197.909 218.071 197.718C217.955 197.62 217.864 197.496 217.803 197.357C217.742 197.218 217.713 197.068 217.718 196.916C217.72 196.719 217.784 196.528 217.899 196.368C218.015 196.209 218.177 196.09 218.364 196.027C218.813 195.863 219.285 195.769 219.762 195.75V195.674C219.774 195.532 219.736 195.39 219.654 195.273C219.598 195.218 219.53 195.176 219.456 195.15C219.382 195.124 219.304 195.114 219.226 195.121C218.878 195.128 218.539 195.223 218.239 195.398ZM219.741 197.106V196.433C219.274 196.433 218.656 196.509 218.656 196.889C218.656 197.133 218.895 197.247 219.198 197.247C219.388 197.248 219.575 197.199 219.741 197.106Z" fill="black"/>
<path d="M225.818 198.727C225.959 198.561 226.031 198.347 226.019 198.13V197.789C225.756 197.929 225.46 197.996 225.162 197.984C224.948 197.99 224.735 197.954 224.535 197.878C224.335 197.802 224.152 197.687 223.997 197.539C223.818 197.357 223.678 197.141 223.585 196.903C223.492 196.666 223.448 196.412 223.454 196.157C223.443 195.667 223.618 195.19 223.942 194.823C224.097 194.662 224.283 194.536 224.49 194.452C224.696 194.368 224.918 194.328 225.141 194.335C225.454 194.341 225.758 194.441 226.013 194.623V194.52C226.013 194.489 226.025 194.46 226.047 194.439C226.068 194.418 226.097 194.406 226.127 194.406H226.886C226.916 194.406 226.945 194.418 226.967 194.439C226.988 194.46 227 194.489 227 194.52V198C227.019 198.256 226.98 198.512 226.886 198.751C226.792 198.989 226.646 199.203 226.458 199.377C226.085 199.649 225.628 199.782 225.168 199.751C224.68 199.759 224.201 199.627 223.785 199.372C223.761 199.355 223.742 199.33 223.732 199.302C223.723 199.274 223.722 199.243 223.731 199.215L224.035 198.635C224.043 198.62 224.055 198.607 224.069 198.597C224.083 198.587 224.099 198.58 224.116 198.577C224.133 198.574 224.151 198.574 224.168 198.579C224.184 198.583 224.2 198.591 224.213 198.602C224.498 198.8 224.837 198.908 225.184 198.911C225.297 198.925 225.411 198.916 225.52 198.884C225.629 198.853 225.731 198.799 225.818 198.727ZM226.019 196.927V195.474C225.816 195.311 225.568 195.216 225.309 195.203C225.207 195.2 225.106 195.219 225.013 195.258C224.919 195.297 224.835 195.356 224.766 195.43C224.601 195.642 224.516 195.905 224.528 196.173C224.508 196.445 224.591 196.714 224.761 196.927C224.831 197 224.915 197.058 225.008 197.096C225.102 197.134 225.202 197.152 225.303 197.149C225.553 197.145 225.796 197.068 226.003 196.927H226.019Z" fill="black"/>
<path d="M232.682 196.959C232.763 196.911 232.828 196.927 232.861 196.987L233.126 197.485C233.138 197.514 233.139 197.545 233.129 197.574C233.119 197.603 233.099 197.628 233.072 197.643C232.672 197.884 232.211 198.008 231.744 198C231.485 198.009 231.228 197.965 230.987 197.872C230.745 197.779 230.525 197.638 230.34 197.458C230.008 197.095 229.824 196.622 229.824 196.13C229.824 195.638 230.008 195.164 230.34 194.802C230.511 194.636 230.714 194.507 230.937 194.422C231.16 194.337 231.397 194.299 231.635 194.308C231.897 194.293 232.158 194.342 232.397 194.449C232.636 194.557 232.845 194.721 233.007 194.926C233.256 195.35 233.368 195.841 233.327 196.331C233.329 196.346 233.327 196.361 233.322 196.376C233.317 196.391 233.308 196.404 233.297 196.415C233.286 196.426 233.273 196.434 233.258 196.439C233.244 196.444 233.228 196.446 233.213 196.444H230.882C230.907 196.622 230.989 196.788 231.115 196.916C231.206 197.002 231.313 197.07 231.43 197.113C231.548 197.157 231.673 197.177 231.798 197.171C232.107 197.186 232.413 197.112 232.682 196.959ZM232.34 195.805C232.344 195.714 232.329 195.623 232.295 195.538C232.261 195.454 232.21 195.377 232.144 195.314C232.079 195.251 232 195.202 231.914 195.172C231.828 195.142 231.737 195.13 231.646 195.138C231.445 195.132 231.25 195.206 231.104 195.344C230.996 195.475 230.929 195.635 230.914 195.805H232.34Z" fill="black"/>
<path d="M171.918 163.71C169.559 163.71 167.253 164.409 165.292 165.72C163.33 167.031 161.802 168.893 160.899 171.073C159.996 173.252 159.76 175.65 160.22 177.964C160.68 180.278 161.816 182.403 163.484 184.071C165.152 185.739 167.278 186.875 169.591 187.335C171.905 187.795 174.303 187.559 176.482 186.656C178.662 185.754 180.525 184.225 181.835 182.264C183.146 180.302 183.845 177.996 183.845 175.637C183.845 172.474 182.589 169.44 180.352 167.203C178.115 164.967 175.081 163.71 171.918 163.71ZM171.918 183.086C170.446 183.083 169.009 182.644 167.787 181.823C166.564 181.003 165.613 179.839 165.052 178.479C164.491 177.118 164.347 175.621 164.636 174.178C164.926 172.735 165.636 171.411 166.679 170.371C167.721 169.332 169.048 168.625 170.492 168.34C171.935 168.055 173.431 168.204 174.79 168.769C176.15 169.333 177.311 170.288 178.127 171.513C178.944 172.737 179.379 174.176 179.378 175.648C179.377 176.626 179.184 177.595 178.808 178.499C178.433 179.402 177.883 180.223 177.19 180.914C176.497 181.605 175.675 182.152 174.77 182.525C173.866 182.898 172.897 183.088 171.918 183.086Z" fill="black"/>
</mask>
<g mask="url(#mask0)">
<rect x="121" y="154" width="165.975" height="59.0135" fill="url(#paint0_linear)"/>
</g>
<path d="M171.47 10.58C171.47 11.426 170.93 12.254 169.4 12.254C167.852 12.254 167.366 11.372 167.366 10.58C167.366 9.788 167.942 9.14 169.292 8.6C170.588 9.14 171.47 9.698 171.47 10.58ZM171.002 4.802C171.002 5.36 170.732 5.936 169.562 6.512C168.788 6.152 167.816 5.666 167.816 4.694C167.816 3.74 168.644 3.452 169.436 3.452C170.264 3.452 171.002 3.92 171.002 4.802ZM171.614 7.538C172.46 7.016 173.486 6.314 173.486 4.694C173.486 2.444 171.236 1.58 169.382 1.58C167.348 1.58 165.314 2.498 165.314 4.676C165.314 6.224 166.34 6.944 167.258 7.538C166.088 8.114 164.828 9.014 164.828 10.796C164.828 12.83 166.412 14.18 169.4 14.18C172.316 14.18 173.972 12.794 173.972 10.742C173.972 9.05 172.874 8.312 171.614 7.538ZM184.837 7.88C184.837 3.722 183.199 1.562 180.193 1.562C177.169 1.562 175.531 3.722 175.531 7.88C175.531 12.02 177.169 14.18 180.193 14.18C183.199 14.18 184.837 12.02 184.837 7.88ZM182.263 7.88C182.263 9.248 182.083 10.256 181.705 10.922C181.363 11.516 180.859 11.822 180.193 11.822C179.509 11.822 179.005 11.516 178.663 10.922C178.285 10.256 178.087 9.248 178.087 7.88C178.087 6.548 178.285 5.504 178.681 4.838C179.023 4.244 179.527 3.938 180.193 3.938C180.877 3.938 181.363 4.244 181.705 4.838C182.083 5.504 182.263 6.53 182.263 7.88ZM195.63 7.88C195.63 3.722 193.992 1.562 190.986 1.562C187.962 1.562 186.324 3.722 186.324 7.88C186.324 12.02 187.962 14.18 190.986 14.18C193.992 14.18 195.63 12.02 195.63 7.88ZM193.056 7.88C193.056 9.248 192.876 10.256 192.498 10.922C192.156 11.516 191.652 11.822 190.986 11.822C190.302 11.822 189.798 11.516 189.456 10.922C189.078 10.256 188.88 9.248 188.88 7.88C188.88 6.548 189.078 5.504 189.474 4.838C189.816 4.244 190.32 3.938 190.986 3.938C191.67 3.938 192.156 4.244 192.498 4.838C192.876 5.504 193.056 6.53 193.056 7.88ZM207.554 12.668C207.77 12.668 207.896 12.578 208.004 12.38L209.516 9.86V13.73C209.516 13.874 209.642 14 209.786 14H211.568C211.712 14 211.838 13.874 211.838 13.73V6.026C211.838 5.864 211.712 5.756 211.568 5.756H209.768C209.552 5.756 209.426 5.774 209.282 6.026L207.014 9.986L204.71 6.026C204.584 5.774 204.44 5.756 204.224 5.756H202.46C202.298 5.756 202.19 5.864 202.19 6.026V13.73C202.19 13.874 202.298 14 202.46 14H204.242C204.386 14 204.512 13.874 204.512 13.73V9.86L206.006 12.38C206.114 12.578 206.24 12.668 206.474 12.668H207.554ZM219.542 12.668C219.758 12.668 219.884 12.578 219.992 12.38L221.504 9.86V13.73C221.504 13.874 221.63 14 221.774 14H223.556C223.7 14 223.826 13.874 223.826 13.73V6.026C223.826 5.864 223.7 5.756 223.556 5.756H221.756C221.54 5.756 221.414 5.774 221.27 6.026L219.002 9.986L216.698 6.026C216.572 5.774 216.428 5.756 216.212 5.756H214.448C214.286 5.756 214.178 5.864 214.178 6.026V13.73C214.178 13.874 214.286 14 214.448 14H216.23C216.374 14 216.5 13.874 216.5 13.73V9.86L217.994 12.38C218.102 12.578 218.228 12.668 218.462 12.668H219.542Z" fill="#0094FF"/>
<path d="M566.5 5.298V12.768H563.908C563.764 12.768 563.638 12.894 563.638 13.038V14.73C563.638 14.874 563.764 15 563.908 15H571.522C571.666 15 571.792 14.874 571.792 14.73V13.038C571.792 12.894 571.666 12.768 571.522 12.768H569.092V2.922C569.092 2.778 568.984 2.652 568.822 2.652H567.598C567.418 2.652 567.202 2.706 567.022 2.76L563.944 3.822C563.728 3.894 563.674 4.038 563.674 4.218V5.874C563.674 6.198 563.8 6.234 564.052 6.162L566.5 5.298ZM582.837 8.88C582.837 4.722 581.199 2.562 578.193 2.562C575.169 2.562 573.531 4.722 573.531 8.88C573.531 13.02 575.169 15.18 578.193 15.18C581.199 15.18 582.837 13.02 582.837 8.88ZM580.263 8.88C580.263 10.248 580.083 11.256 579.705 11.922C579.363 12.516 578.859 12.822 578.193 12.822C577.509 12.822 577.005 12.516 576.663 11.922C576.285 11.256 576.087 10.248 576.087 8.88C576.087 7.548 576.285 6.504 576.681 5.838C577.023 5.244 577.527 4.938 578.193 4.938C578.877 4.938 579.363 5.244 579.705 5.838C580.083 6.504 580.263 7.53 580.263 8.88ZM593.63 8.88C593.63 4.722 591.992 2.562 588.986 2.562C585.962 2.562 584.324 4.722 584.324 8.88C584.324 13.02 585.962 15.18 588.986 15.18C591.992 15.18 593.63 13.02 593.63 8.88ZM591.056 8.88C591.056 10.248 590.876 11.256 590.498 11.922C590.156 12.516 589.652 12.822 588.986 12.822C588.302 12.822 587.798 12.516 587.456 11.922C587.078 11.256 586.88 10.248 586.88 8.88C586.88 7.548 587.078 6.504 587.474 5.838C587.816 5.244 588.32 4.938 588.986 4.938C589.67 4.938 590.156 5.244 590.498 5.838C590.876 6.504 591.056 7.53 591.056 8.88ZM568.534 31.668C568.75 31.668 568.876 31.578 568.984 31.38L570.496 28.86V32.73C570.496 32.874 570.622 33 570.766 33H572.548C572.692 33 572.818 32.874 572.818 32.73V25.026C572.818 24.864 572.692 24.756 572.548 24.756H570.748C570.532 24.756 570.406 24.774 570.262 25.026L567.994 28.986L565.69 25.026C565.564 24.774 565.42 24.756 565.204 24.756H563.44C563.278 24.756 563.17 24.864 563.17 25.026V32.73C563.17 32.874 563.278 33 563.44 33H565.222C565.366 33 565.492 32.874 565.492 32.73V28.86L566.986 31.38C567.094 31.578 567.22 31.668 567.454 31.668H568.534ZM580.522 31.668C580.738 31.668 580.864 31.578 580.972 31.38L582.484 28.86V32.73C582.484 32.874 582.61 33 582.754 33H584.536C584.68 33 584.806 32.874 584.806 32.73V25.026C584.806 24.864 584.68 24.756 584.536 24.756H582.736C582.52 24.756 582.394 24.774 582.25 25.026L579.982 28.986L577.678 25.026C577.552 24.774 577.408 24.756 577.192 24.756H575.428C575.266 24.756 575.158 24.864 575.158 25.026V32.73C575.158 32.874 575.266 33 575.428 33H577.21C577.354 33 577.48 32.874 577.48 32.73V28.86L578.974 31.38C579.082 31.578 579.208 31.668 579.442 31.668H580.522Z" fill="#0094FF"/>
<path d="M484.298 341.5L491.768 341.5L491.768 344.092C491.768 344.236 491.894 344.362 492.038 344.362L493.73 344.362C493.874 344.362 494 344.236 494 344.092L494 336.478C494 336.334 493.874 336.208 493.73 336.208L492.038 336.208C491.894 336.208 491.768 336.334 491.768 336.478L491.768 338.908L481.922 338.908C481.778 338.908 481.652 339.016 481.652 339.178L481.652 340.402C481.652 340.582 481.706 340.798 481.76 340.978L482.822 344.056C482.894 344.272 483.038 344.326 483.218 344.326L484.874 344.326C485.198 344.326 485.234 344.2 485.162 343.948L484.298 341.5ZM487.88 325.163C483.722 325.163 481.562 326.801 481.562 329.807C481.562 332.831 483.722 334.469 487.88 334.469C492.02 334.469 494.18 332.831 494.18 329.807C494.18 326.801 492.02 325.163 487.88 325.163ZM487.88 327.737C489.248 327.737 490.256 327.917 490.922 328.295C491.516 328.637 491.822 329.141 491.822 329.807C491.822 330.491 491.516 330.995 490.922 331.337C490.256 331.715 489.248 331.913 487.88 331.913C486.548 331.913 485.504 331.715 484.838 331.319C484.244 330.977 483.938 330.473 483.938 329.807C483.938 329.123 484.244 328.637 484.838 328.295C485.504 327.917 486.53 327.737 487.88 327.737ZM488.402 322.92C488.69 322.938 488.762 322.902 488.816 322.65L489.05 321.462C489.104 321.3 489.086 321.192 488.906 321.084C488.654 320.94 488.42 320.742 488.222 320.4C488.024 320.13 487.898 319.734 487.898 319.248C487.898 318.654 488.078 318.204 488.456 317.862C488.798 317.556 489.338 317.394 490.004 317.394C490.652 317.394 491.156 317.592 491.516 317.916C491.948 318.276 492.146 318.834 492.146 319.446C492.146 320.652 491.786 321.264 491.228 322.092C491.138 322.218 491.156 322.344 491.318 322.434L492.776 323.118C492.938 323.208 493.064 323.154 493.154 323.01C493.784 322.128 494.18 321.084 494.18 319.446C494.18 317.988 493.712 316.764 492.866 315.972C492.146 315.288 491.156 314.874 489.986 314.874C488.798 314.874 487.808 315.198 487.106 315.792C486.296 316.44 485.864 317.484 485.864 318.888C485.864 319.194 485.9 319.482 485.972 319.752C486.062 320.04 486.152 320.31 486.26 320.49L483.992 320.31L483.992 315.774C483.992 315.63 483.866 315.504 483.704 315.504L482.012 315.504C481.868 315.504 481.742 315.63 481.742 315.774L481.742 322.2C481.742 322.362 481.868 322.47 482.012 322.488L488.402 322.92ZM487.88 303.577C483.722 303.577 481.562 305.215 481.562 308.221C481.562 311.245 483.722 312.883 487.88 312.883C492.02 312.883 494.18 311.245 494.18 308.221C494.18 305.215 492.02 303.577 487.88 303.577ZM487.88 306.151C489.248 306.151 490.256 306.331 490.922 306.709C491.516 307.051 491.822 307.555 491.822 308.221C491.822 308.905 491.516 309.409 490.922 309.751C490.256 310.129 489.248 310.327 487.88 310.327C486.548 310.327 485.504 310.129 484.838 309.733C484.244 309.391 483.938 308.887 483.938 308.221C483.938 307.537 484.244 307.051 484.838 306.709C485.504 306.331 486.53 306.151 487.88 306.151ZM492.668 291.653C492.668 291.437 492.578 291.311 492.38 291.203L489.86 289.691L493.73 289.691C493.874 289.691 494 289.565 494 289.421L494 287.639C494 287.495 493.874 287.369 493.73 287.369L486.026 287.369C485.864 287.369 485.756 287.495 485.756 287.639L485.756 289.439C485.756 289.655 485.774 289.781 486.026 289.925L489.986 292.193L486.026 294.497C485.774 294.623 485.756 294.767 485.756 294.983L485.756 296.747C485.756 296.909 485.864 297.017 486.026 297.017L493.73 297.017C493.874 297.017 494 296.909 494 296.747L494 294.965C494 294.821 493.874 294.695 493.73 294.695L489.86 294.695L492.38 293.201C492.578 293.093 492.668 292.967 492.668 292.733L492.668 291.653ZM492.668 279.665C492.668 279.449 492.578 279.323 492.38 279.215L489.86 277.703L493.73 277.703C493.874 277.703 494 277.577 494 277.433L494 275.651C494 275.507 493.874 275.381 493.73 275.381L486.026 275.381C485.864 275.381 485.756 275.507 485.756 275.651L485.756 277.451C485.756 277.667 485.774 277.793 486.026 277.937L489.986 280.205L486.026 282.509C485.774 282.635 485.756 282.779 485.756 282.995L485.756 284.759C485.756 284.921 485.864 285.029 486.026 285.029L493.73 285.029C493.874 285.029 494 284.921 494 284.759L494 282.977C494 282.833 493.874 282.707 493.73 282.707L489.86 282.707L492.38 281.213C492.578 281.105 492.668 280.979 492.668 280.745L492.668 279.665Z" fill="#0094FF"/>
<path d="M2 551V68C2 62.4772 6.47715 58 12 58H378C383.523 58 388 62.4772 388 68V551C388 556.523 383.523 561 378 561H336.5V564.5H318L315 561H64L62 564.5H43.5V561H12C6.47715 561 2 556.523 2 551Z" stroke="url(#paint1_linear)" stroke-width="3"/>
<path d="M538 69.5V550M538 69.5H620L618.5 550H538M538 69.5V58M538 550V562" stroke="url(#paint2_linear)" stroke-width="3"/>
<circle cx="551" cy="143" r="1.5" fill="black" stroke="url(#paint3_linear)"/>
<circle cx="551" cy="208" r="1.5" fill="black" stroke="url(#paint4_linear)"/>
<circle cx="607" cy="143" r="1.5" fill="black" stroke="url(#paint5_linear)"/>
<circle cx="607" cy="208" r="1.5" fill="black" stroke="url(#paint6_linear)"/>
<path opacity="0.3" d="M1 46V9H149" stroke="black"/>
<path opacity="0.3" d="M537 46V9H557" stroke="black"/>
<path opacity="0.3" d="M388 46V9H240" stroke="black"/>
<path opacity="0.3" d="M621 46V9H601" stroke="black"/>
<path opacity="0.3" d="M526 58L489 58L489 259" stroke="black"/>
<path opacity="0.3" d="M526 563L489 563L489 361" stroke="black"/>
<path d="M545 138V213H613V138H545Z" stroke="url(#paint7_linear)" stroke-width="3"/>
<path d="M545 343V486H613V343H545Z" stroke="url(#paint8_linear)" stroke-width="3"/>
<path d="M553 151.5V148H605V151.5M553 151.5H605M553 151.5V156.5M605 151.5V156.5M605 156.5H553M605 156.5V161.5M553 156.5V161.5M553 161.5H605M553 161.5V166.5M605 161.5V166.5M553 166.5H605M553 166.5V171.5M605 166.5V171.5M553 171.5H605M553 171.5V177M605 171.5V177M553 177H605M553 177V182.5M605 177V182.5M553 182.5H605M553 182.5V188M605 182.5V188M553 188H605M553 188V193.5M605 188V193.5M553 193.5H605M553 193.5V199M605 193.5V199M553 199V203H605V199M553 199H605" stroke="url(#paint9_linear)" stroke-width="3"/>
<defs>
<linearGradient id="paint0_linear" x1="143.54" y1="163.586" x2="198.65" y2="262.316" gradientUnits="userSpaceOnUse">
<stop stop-color="#2A3275"/>
<stop offset="0.994792" stop-color="#0094FF"/>
</linearGradient>
<linearGradient id="paint1_linear" x1="54.4198" y1="140.274" x2="491.045" y2="352.228" gradientUnits="userSpaceOnUse">
<stop stop-color="#2A3275"/>
<stop offset="0.994792" stop-color="#0094FF"/>
</linearGradient>
<linearGradient id="paint2_linear" x1="549.136" y1="139.868" x2="662.53" y2="151.62" gradientUnits="userSpaceOnUse">
<stop stop-color="#2A3275"/>
<stop offset="0.994792" stop-color="#0094FF"/>
</linearGradient>
<linearGradient id="paint3_linear" x1="549.543" y1="141.65" x2="553.52" y2="144.183" gradientUnits="userSpaceOnUse">
<stop stop-color="#2A3275"/>
<stop offset="0.994792" stop-color="#0094FF"/>
</linearGradient>
<linearGradient id="paint4_linear" x1="549.543" y1="206.65" x2="553.52" y2="209.183" gradientUnits="userSpaceOnUse">
<stop stop-color="#2A3275"/>
<stop offset="0.994792" stop-color="#0094FF"/>
</linearGradient>
<linearGradient id="paint5_linear" x1="605.543" y1="141.65" x2="609.52" y2="144.183" gradientUnits="userSpaceOnUse">
<stop stop-color="#2A3275"/>
<stop offset="0.994792" stop-color="#0094FF"/>
</linearGradient>
<linearGradient id="paint6_linear" x1="605.543" y1="206.65" x2="609.52" y2="209.183" gradientUnits="userSpaceOnUse">
<stop stop-color="#2A3275"/>
<stop offset="0.994792" stop-color="#0094FF"/>
</linearGradient>
<linearGradient id="paint7_linear" x1="554.235" y1="150.183" x2="625.507" y2="191.344" gradientUnits="userSpaceOnUse">
<stop stop-color="#2A3275"/>
<stop offset="0.994792" stop-color="#0094FF"/>
</linearGradient>
<linearGradient id="paint8_linear" x1="554.235" y1="366.228" x2="641.291" y2="392.598" gradientUnits="userSpaceOnUse">
<stop stop-color="#2A3275"/>
<stop offset="0.994792" stop-color="#0094FF"/>
</linearGradient>
<linearGradient id="paint9_linear" x1="560.062" y1="156.934" x2="613.398" y2="189.055" gradientUnits="userSpaceOnUse">
<stop stop-color="#2A3275"/>
<stop offset="0.994792" stop-color="#0094FF"/>
</linearGradient>
</defs>
</svg>
