<svg width="339" height="444" viewBox="0 0 339 444" fill="none" xmlns="http://www.w3.org/2000/svg">
<mask id="mask0" mask-type="alpha" maskUnits="userSpaceOnUse" x="105" y="85" width="129" height="47">
<path fill-rule="evenodd" clip-rule="evenodd" d="M122.535 99.2665L119.839 94.7872C119.695 94.5497 119.492 94.3534 119.25 94.2174C119.007 94.0814 118.734 94.0102 118.456 94.0109H116.419H112.038L120.879 114.205H124.286L133.127 94.0015H128.775H126.718C126.444 94.0058 126.174 94.0803 125.936 94.2178C125.698 94.3553 125.5 94.5513 125.359 94.7872L122.535 99.2665ZM119.002 100.024L122.535 105.948L126.121 100.024L122.535 108.159L119.002 100.024Z" fill="black"/>
<path fill-rule="evenodd" clip-rule="evenodd" d="M149.449 97.728C147.974 97.7244 146.544 98.2323 145.401 99.165C144.259 100.098 143.475 101.398 143.184 102.843C142.892 104.289 143.111 105.791 143.803 107.093C144.494 108.396 145.616 109.418 146.977 109.987C148.338 110.555 149.854 110.634 151.266 110.21C152.679 109.786 153.901 108.885 154.724 107.662C155.547 106.438 155.92 104.967 155.78 103.499C155.64 102.03 154.996 100.656 153.956 99.61C153.367 99.0135 152.665 98.54 151.891 98.2169C151.118 97.8939 150.287 97.7277 149.449 97.728ZM149.449 114.459C147.054 114.458 144.734 113.626 142.885 112.105C141.035 110.585 139.769 108.47 139.303 106.121C138.838 103.772 139.201 101.334 140.331 99.2233C141.461 97.1121 143.288 95.458 145.501 94.5428C147.713 93.6275 150.175 93.5078 152.466 94.2039C154.757 94.9 156.736 96.369 158.066 98.3605C159.396 100.352 159.994 102.743 159.758 105.126C159.523 107.509 158.468 109.736 156.775 111.429C155.814 112.393 154.672 113.157 153.415 113.677C152.157 114.197 150.81 114.463 149.449 114.459ZM211.9 114.205V110.22H219.814C220.362 110.22 220.887 110.002 221.275 109.615C221.662 109.228 221.88 108.702 221.88 108.155C221.877 107.608 221.659 107.084 221.272 106.698C220.885 106.312 220.361 106.095 219.814 106.094H217.372C216.564 106.116 215.759 105.976 215.005 105.683C214.252 105.389 213.565 104.947 212.985 104.383C212.405 103.819 211.944 103.145 211.63 102.4C211.315 101.655 211.153 100.854 211.153 100.045C211.153 99.2364 211.315 98.4359 211.63 97.6908C211.944 96.9457 212.405 96.2713 212.985 95.7074C213.565 95.1436 214.252 94.7017 215.005 94.4078C215.759 94.114 216.564 93.9742 217.372 93.9968H224.703V97.982H217.372C217.093 97.9687 216.814 98.0122 216.552 98.1099C216.29 98.2075 216.051 98.3573 215.848 98.5502C215.646 98.7431 215.485 98.9751 215.375 99.2321C215.265 99.4891 215.208 99.7657 215.208 100.045C215.208 100.325 215.265 100.601 215.375 100.858C215.485 101.115 215.646 101.347 215.848 101.54C216.051 101.733 216.29 101.883 216.552 101.981C216.814 102.078 217.093 102.122 217.372 102.108H219.814C221.389 102.152 222.885 102.809 223.983 103.938C225.082 105.068 225.696 106.581 225.696 108.157C225.696 109.732 225.082 111.246 223.983 112.375C222.885 113.505 221.389 114.161 219.814 114.205H211.9ZM194.021 114.205V97.982H188.243V93.9968H203.817V97.982H198.025V114.205H194.021ZM167.568 114.205V93.9968H171.554V110.22H182.107V114.205H167.568ZM149.43 97.7374C150.905 97.7338 152.335 98.2417 153.478 99.1744C154.62 100.107 155.404 101.407 155.695 102.853C155.987 104.298 155.768 105.8 155.076 107.103C154.385 108.405 153.263 109.428 151.902 109.996C150.541 110.564 149.025 110.643 147.613 110.219C146.2 109.795 144.978 108.895 144.155 107.671C143.332 106.447 142.959 104.976 143.099 103.508C143.239 102.04 143.883 100.666 144.923 99.6194C145.512 99.0229 146.214 98.5494 146.988 98.2263C147.761 97.9033 148.592 97.7371 149.43 97.7374ZM149.43 114.469C147.036 114.467 144.716 113.635 142.866 112.115C141.016 110.594 139.75 108.479 139.285 106.13C138.819 103.782 139.182 101.344 140.312 99.2327C141.442 97.1215 143.269 95.4674 145.482 94.5522C147.695 93.6369 150.156 93.5172 152.447 94.2133C154.739 94.9094 156.718 96.3784 158.047 98.3699C159.377 100.361 159.975 102.752 159.739 105.135C159.504 107.518 158.45 109.746 156.756 111.439C155.797 112.398 154.657 113.159 153.404 113.677C152.15 114.196 150.806 114.462 149.449 114.459L149.43 114.469Z" fill="black"/>
<path d="M137.592 122.6C137.667 122.557 137.719 122.571 137.747 122.623L137.983 123.056C137.991 123.081 137.991 123.108 137.982 123.132C137.974 123.157 137.957 123.178 137.935 123.192C137.587 123.401 137.188 123.508 136.783 123.503C136.558 123.51 136.335 123.473 136.126 123.392C135.916 123.311 135.725 123.189 135.564 123.033C135.274 122.719 135.113 122.307 135.113 121.88C135.113 121.452 135.274 121.041 135.564 120.727C135.712 120.583 135.889 120.47 136.082 120.396C136.275 120.323 136.482 120.29 136.689 120.299C136.915 120.284 137.142 120.325 137.348 120.419C137.555 120.512 137.736 120.655 137.874 120.835C138.092 121.202 138.191 121.628 138.157 122.054C138.158 122.067 138.157 122.081 138.152 122.093C138.148 122.106 138.14 122.118 138.131 122.127C138.122 122.137 138.11 122.144 138.097 122.148C138.085 122.153 138.071 122.154 138.058 122.153H136.072C136.095 122.306 136.164 122.449 136.27 122.562C136.35 122.637 136.444 122.695 136.546 122.733C136.649 122.771 136.758 122.788 136.867 122.783C137.121 122.788 137.371 122.725 137.592 122.6ZM137.3 121.597C137.296 121.451 137.243 121.31 137.15 121.197C137.089 121.136 137.015 121.087 136.934 121.057C136.853 121.026 136.766 121.013 136.679 121.019C136.593 121.016 136.507 121.03 136.426 121.061C136.345 121.091 136.271 121.138 136.209 121.197C136.115 121.312 136.056 121.451 136.039 121.597H137.3Z" fill="black"/>
<path d="M141.45 120.689C141.573 120.566 141.72 120.47 141.882 120.406C142.044 120.343 142.217 120.315 142.391 120.322C142.718 120.308 143.038 120.415 143.29 120.623C143.411 120.747 143.505 120.895 143.565 121.057C143.626 121.219 143.652 121.392 143.643 121.564V123.319C143.643 123.332 143.641 123.346 143.637 123.358C143.632 123.37 143.625 123.381 143.615 123.391C143.606 123.4 143.595 123.407 143.583 123.412C143.57 123.417 143.557 123.419 143.544 123.418H142.829C142.803 123.417 142.778 123.406 142.76 123.388C142.742 123.37 142.731 123.345 142.73 123.319V121.809C142.749 121.604 142.694 121.398 142.575 121.23C142.523 121.176 142.459 121.135 142.39 121.108C142.32 121.081 142.245 121.07 142.17 121.075C141.648 121.075 141.455 121.545 141.455 122.016V123.352C141.449 123.374 141.436 123.393 141.418 123.406C141.4 123.42 141.378 123.427 141.356 123.428H140.669C140.643 123.428 140.618 123.417 140.599 123.399C140.581 123.38 140.57 123.355 140.57 123.329V120.482C140.57 120.456 140.581 120.431 140.599 120.412C140.618 120.394 140.643 120.383 140.669 120.383H141.328C141.354 120.383 141.379 120.394 141.398 120.412C141.416 120.431 141.427 120.456 141.427 120.482V120.689H141.45Z" fill="black"/>
<path d="M148.456 122.599C148.531 122.557 148.583 122.571 148.611 122.623L148.847 123.056C148.855 123.08 148.855 123.107 148.847 123.132C148.838 123.157 148.822 123.178 148.8 123.192C148.452 123.401 148.052 123.508 147.647 123.503C147.422 123.51 147.198 123.472 146.987 123.392C146.777 123.311 146.585 123.189 146.424 123.032C146.136 122.717 145.976 122.306 145.976 121.879C145.976 121.453 146.136 121.041 146.424 120.727C146.573 120.583 146.75 120.47 146.944 120.397C147.138 120.323 147.345 120.29 147.553 120.298C147.779 120.286 148.005 120.329 148.211 120.422C148.417 120.515 148.598 120.657 148.738 120.835C148.957 121.202 149.055 121.628 149.021 122.053C149.022 122.067 149.019 122.081 149.014 122.093C149.009 122.106 149.002 122.117 148.992 122.127C148.982 122.136 148.97 122.143 148.957 122.148C148.944 122.152 148.931 122.154 148.917 122.152H146.913C146.935 122.307 147.006 122.45 147.115 122.562C147.195 122.637 147.289 122.695 147.391 122.733C147.494 122.772 147.603 122.788 147.713 122.783C147.973 122.791 148.23 122.728 148.456 122.599ZM148.16 121.597C148.163 121.518 148.15 121.439 148.121 121.366C148.091 121.292 148.047 121.226 147.99 121.171C147.933 121.116 147.865 121.074 147.79 121.048C147.716 121.022 147.636 121.012 147.557 121.018C147.383 121.013 147.214 121.078 147.087 121.197C146.993 121.311 146.935 121.45 146.922 121.597H148.16Z" fill="black"/>
<path d="M152.3 121.936V123.347C152.295 123.374 152.279 123.398 152.256 123.413C152.233 123.428 152.205 123.433 152.178 123.427H151.514C151.501 123.428 151.488 123.426 151.476 123.421C151.464 123.416 151.452 123.409 151.443 123.4C151.434 123.391 151.427 123.379 151.422 123.367C151.417 123.355 151.415 123.342 151.416 123.328V120.482C151.415 120.469 151.417 120.456 151.422 120.443C151.427 120.431 151.434 120.42 151.443 120.411C151.452 120.401 151.464 120.394 151.476 120.389C151.488 120.384 151.501 120.382 151.514 120.383H152.178C152.204 120.383 152.229 120.393 152.248 120.412C152.266 120.431 152.277 120.456 152.277 120.482V120.665C152.368 120.555 152.483 120.466 152.613 120.406C152.744 120.347 152.886 120.318 153.03 120.322C153.301 120.313 153.567 120.403 153.778 120.576C153.8 120.591 153.815 120.614 153.821 120.64C153.827 120.666 153.824 120.694 153.811 120.717L153.589 121.244C153.581 121.257 153.571 121.267 153.559 121.275C153.546 121.284 153.532 121.289 153.518 121.292C153.503 121.294 153.488 121.294 153.474 121.291C153.46 121.287 153.446 121.281 153.434 121.272C153.275 121.163 153.087 121.102 152.893 121.098C152.427 121.098 152.3 121.517 152.3 121.936Z" fill="black"/>
<path d="M157.852 124.133C157.974 123.989 158.037 123.804 158.027 123.616V123.319C157.798 123.44 157.541 123.498 157.283 123.489C157.097 123.495 156.911 123.464 156.736 123.398C156.562 123.331 156.402 123.231 156.267 123.103C156.113 122.944 155.992 122.756 155.911 122.55C155.83 122.344 155.791 122.124 155.796 121.903C155.785 121.478 155.934 121.065 156.215 120.746C156.35 120.608 156.512 120.499 156.691 120.426C156.87 120.353 157.062 120.318 157.255 120.322C157.527 120.327 157.791 120.414 158.012 120.571V120.482C158.012 120.469 158.015 120.455 158.02 120.443C158.026 120.431 158.033 120.42 158.043 120.411C158.053 120.401 158.064 120.394 158.077 120.389C158.089 120.385 158.103 120.383 158.116 120.383H158.77C158.783 120.383 158.797 120.385 158.809 120.389C158.822 120.394 158.833 120.401 158.843 120.411C158.853 120.42 158.86 120.431 158.865 120.443C158.871 120.455 158.873 120.469 158.873 120.482V123.503C158.888 123.724 158.854 123.947 158.772 124.153C158.691 124.36 158.565 124.546 158.403 124.698C158.079 124.933 157.683 125.048 157.283 125.023C156.86 125.03 156.444 124.915 156.083 124.693C156.062 124.678 156.046 124.657 156.037 124.633C156.029 124.608 156.029 124.582 156.036 124.557L156.3 124.053C156.306 124.04 156.315 124.028 156.327 124.019C156.339 124.009 156.353 124.003 156.368 124C156.382 123.998 156.398 123.998 156.412 124.003C156.426 124.007 156.439 124.015 156.45 124.025C156.699 124.197 156.994 124.291 157.297 124.293C157.396 124.306 157.496 124.298 157.591 124.27C157.687 124.243 157.776 124.196 157.852 124.133ZM158.027 122.571V121.31C157.85 121.17 157.635 121.088 157.41 121.075C157.322 121.072 157.235 121.089 157.153 121.123C157.072 121.157 156.999 121.208 156.94 121.273C156.796 121.456 156.722 121.684 156.733 121.917C156.716 122.153 156.788 122.386 156.935 122.571C156.995 122.635 157.068 122.686 157.149 122.719C157.23 122.752 157.318 122.768 157.405 122.764C157.627 122.763 157.843 122.696 158.027 122.571Z" fill="black"/>
<path d="M163.47 123.606C163.35 123.981 163.136 124.32 162.849 124.59C162.665 124.75 162.451 124.87 162.218 124.943C161.986 125.015 161.741 125.039 161.499 125.013C161.478 125.013 161.457 125.005 161.442 124.99C161.427 124.975 161.419 124.954 161.419 124.933V124.256C161.418 124.245 161.42 124.234 161.423 124.224C161.427 124.214 161.433 124.205 161.441 124.197C161.448 124.19 161.457 124.184 161.467 124.18C161.477 124.176 161.488 124.175 161.499 124.176C161.551 124.176 161.602 124.176 161.706 124.176C161.887 124.18 162.064 124.124 162.209 124.016C162.333 123.91 162.437 123.782 162.515 123.639L161.104 120.51C161.104 120.449 161.104 120.369 161.188 120.369H162.012C162.048 120.363 162.085 120.371 162.115 120.391C162.145 120.411 162.167 120.442 162.176 120.477L162.962 122.538L163.621 120.477C163.621 120.397 163.691 120.369 163.785 120.369H164.543C164.646 120.369 164.646 120.449 164.623 120.51L163.47 123.606Z" fill="black"/>
<path d="M171.563 122.576C171.563 122.43 171.445 122.378 171.276 122.303C171.107 122.228 170.848 122.143 170.631 122.039C170.476 121.973 170.344 121.86 170.256 121.716C170.167 121.572 170.126 121.404 170.137 121.235C170.137 120.675 170.57 120.322 171.361 120.322C171.722 120.307 172.081 120.389 172.401 120.557C172.413 120.562 172.424 120.57 172.433 120.579C172.442 120.589 172.449 120.6 172.453 120.613C172.457 120.626 172.458 120.639 172.456 120.652C172.455 120.665 172.45 120.678 172.443 120.689L172.198 121.159C172.175 121.211 172.132 121.221 172.081 121.192C171.871 121.07 171.632 121.003 171.389 121C171.21 121 171.074 121.061 171.074 121.211C171.074 121.362 171.215 121.414 171.37 121.475C171.525 121.536 171.779 121.621 171.991 121.729C172.144 121.79 172.275 121.897 172.365 122.035C172.455 122.173 172.501 122.336 172.495 122.5C172.495 123.06 172.024 123.479 171.229 123.479C170.844 123.499 170.461 123.411 170.123 123.225C170.062 123.192 170.048 123.145 170.076 123.103L170.321 122.585C170.326 122.573 170.334 122.563 170.344 122.554C170.354 122.545 170.365 122.539 170.378 122.536C170.391 122.532 170.404 122.531 170.417 122.533C170.43 122.535 170.442 122.54 170.453 122.548C170.676 122.7 170.939 122.785 171.21 122.792C171.431 122.816 171.563 122.736 171.563 122.576Z" fill="black"/>
<path d="M175.897 122.237C175.89 122.357 175.913 122.476 175.962 122.585C175.993 122.64 176.038 122.684 176.094 122.712C176.149 122.741 176.211 122.752 176.273 122.745C176.433 122.741 176.586 122.681 176.706 122.576C176.767 122.529 176.828 122.538 176.847 122.576L177.082 123.046C177.094 123.07 177.096 123.096 177.088 123.121C177.08 123.146 177.063 123.166 177.04 123.178C176.742 123.373 176.393 123.473 176.038 123.465C175.893 123.478 175.748 123.459 175.612 123.408C175.476 123.358 175.353 123.278 175.252 123.173C175.078 122.925 174.994 122.625 175.012 122.322V121.075H174.678C174.651 121.075 174.624 121.064 174.605 121.045C174.585 121.025 174.574 120.999 174.574 120.971V120.501C174.574 120.488 174.577 120.474 174.582 120.462C174.588 120.45 174.595 120.439 174.605 120.429C174.615 120.42 174.626 120.413 174.639 120.408C174.651 120.404 174.665 120.401 174.678 120.402H175.012V119.786C175.011 119.772 175.013 119.759 175.018 119.746C175.023 119.734 175.03 119.723 175.039 119.713C175.048 119.703 175.06 119.695 175.072 119.69C175.084 119.685 175.097 119.682 175.111 119.682H175.793C175.807 119.682 175.821 119.684 175.833 119.689C175.846 119.694 175.858 119.701 175.868 119.711C175.878 119.721 175.885 119.733 175.89 119.745C175.895 119.758 175.897 119.772 175.897 119.786V120.383H176.739C176.752 120.383 176.766 120.385 176.778 120.389C176.791 120.394 176.802 120.401 176.812 120.411C176.821 120.42 176.829 120.431 176.834 120.443C176.84 120.455 176.842 120.469 176.842 120.482V120.953C176.843 120.966 176.841 120.98 176.836 120.993C176.831 121.006 176.823 121.018 176.814 121.027C176.804 121.037 176.792 121.045 176.779 121.05C176.766 121.055 176.753 121.057 176.739 121.056H175.897V122.237Z" fill="black"/>
<path d="M180.738 120.322C181.049 120.335 181.35 120.439 181.602 120.621C181.855 120.803 182.049 121.056 182.159 121.347C182.27 121.638 182.292 121.955 182.224 122.259C182.156 122.563 182 122.84 181.775 123.056C181.551 123.273 181.268 123.418 180.962 123.475C180.656 123.531 180.339 123.497 180.053 123.376C179.766 123.254 179.521 123.051 179.348 122.792C179.176 122.533 179.083 122.229 179.082 121.917C179.076 121.701 179.116 121.486 179.198 121.286C179.28 121.085 179.403 120.905 179.558 120.754C179.714 120.604 179.9 120.488 180.103 120.414C180.306 120.34 180.522 120.308 180.738 120.322ZM180.738 122.764C180.909 122.777 181.08 122.739 181.228 122.653C181.377 122.568 181.496 122.44 181.571 122.285C181.645 122.131 181.672 121.958 181.646 121.789C181.621 121.619 181.545 121.461 181.428 121.336C181.312 121.21 181.16 121.123 180.993 121.085C180.826 121.046 180.651 121.06 180.492 121.123C180.332 121.185 180.196 121.295 180.099 121.436C180.003 121.578 179.952 121.746 179.952 121.917C179.942 122.026 179.954 122.135 179.989 122.239C180.024 122.342 180.08 122.437 180.155 122.517C180.229 122.597 180.319 122.661 180.42 122.703C180.52 122.746 180.629 122.767 180.738 122.764Z" fill="black"/>
<path d="M185.707 121.936V123.348C185.701 123.375 185.685 123.398 185.662 123.413C185.639 123.428 185.611 123.433 185.584 123.428H184.902C184.889 123.428 184.876 123.426 184.864 123.422C184.851 123.417 184.84 123.41 184.831 123.4C184.821 123.391 184.814 123.38 184.809 123.367C184.805 123.355 184.803 123.342 184.803 123.329V120.482C184.803 120.469 184.805 120.456 184.809 120.444C184.814 120.431 184.821 120.42 184.831 120.411C184.84 120.402 184.851 120.394 184.864 120.39C184.876 120.385 184.889 120.383 184.902 120.383H185.584C185.611 120.383 185.636 120.394 185.654 120.412C185.673 120.431 185.683 120.456 185.683 120.482V120.666C185.774 120.555 185.889 120.466 186.02 120.407C186.15 120.347 186.293 120.318 186.436 120.322C186.709 120.314 186.977 120.404 187.189 120.576C187.209 120.593 187.224 120.616 187.23 120.641C187.236 120.667 187.233 120.694 187.222 120.718L186.996 121.245C186.988 121.257 186.977 121.268 186.965 121.276C186.953 121.284 186.939 121.29 186.924 121.292C186.91 121.295 186.895 121.295 186.881 121.291C186.866 121.288 186.853 121.282 186.841 121.273C186.681 121.163 186.493 121.102 186.3 121.099C185.834 121.099 185.707 121.517 185.707 121.936Z" fill="black"/>
<path d="M189.668 121.244C189.602 121.282 189.555 121.282 189.522 121.211L189.348 120.793C189.34 120.782 189.335 120.769 189.332 120.756C189.329 120.742 189.33 120.728 189.334 120.715C189.337 120.702 189.344 120.69 189.353 120.68C189.362 120.669 189.373 120.661 189.386 120.656C189.764 120.435 190.195 120.32 190.633 120.322C190.81 120.31 190.988 120.335 191.156 120.395C191.324 120.455 191.477 120.549 191.607 120.67C191.798 120.897 191.894 121.189 191.875 121.484V123.338C191.874 123.365 191.862 123.39 191.843 123.408C191.824 123.427 191.798 123.437 191.772 123.437H191.183C191.17 123.438 191.156 123.436 191.143 123.431C191.131 123.426 191.119 123.419 191.109 123.41C191.099 123.401 191.091 123.39 191.085 123.377C191.079 123.365 191.076 123.352 191.075 123.338V123.286H191.047C190.804 123.44 190.52 123.515 190.233 123.503C189.974 123.511 189.721 123.424 189.522 123.258C189.422 123.173 189.343 123.066 189.29 122.945C189.237 122.824 189.212 122.693 189.217 122.562C189.218 122.391 189.273 122.225 189.374 122.087C189.474 121.948 189.615 121.845 189.777 121.79C190.166 121.648 190.576 121.567 190.99 121.55V121.484C191.001 121.361 190.967 121.238 190.896 121.136C190.848 121.089 190.789 121.052 190.725 121.029C190.661 121.007 190.592 120.998 190.525 121.004C190.223 121.01 189.929 121.093 189.668 121.244ZM190.972 122.727V122.143C190.567 122.143 190.031 122.209 190.031 122.538C190.031 122.75 190.238 122.849 190.501 122.849C190.666 122.85 190.828 122.808 190.972 122.727Z" fill="black"/>
<path d="M196.246 124.133C196.368 123.989 196.431 123.804 196.42 123.616V123.319C196.192 123.441 195.936 123.499 195.677 123.489C195.491 123.494 195.306 123.463 195.133 123.397C194.959 123.33 194.8 123.23 194.665 123.103C194.511 122.945 194.389 122.757 194.308 122.551C194.228 122.345 194.189 122.124 194.195 121.903C194.185 121.478 194.337 121.064 194.618 120.745C194.752 120.606 194.914 120.496 195.093 120.423C195.272 120.35 195.465 120.316 195.658 120.322C195.93 120.327 196.194 120.414 196.416 120.571V120.482C196.416 120.456 196.426 120.431 196.445 120.412C196.463 120.394 196.488 120.383 196.515 120.383H197.173C197.2 120.383 197.225 120.394 197.243 120.412C197.262 120.431 197.272 120.456 197.272 120.482V123.503C197.288 123.724 197.254 123.947 197.173 124.154C197.092 124.361 196.965 124.547 196.802 124.698C196.478 124.934 196.082 125.049 195.682 125.022C195.259 125.029 194.842 124.915 194.482 124.693C194.461 124.678 194.445 124.657 194.436 124.633C194.428 124.608 194.427 124.581 194.435 124.557L194.698 124.053C194.706 124.04 194.716 124.029 194.728 124.02C194.741 124.012 194.755 124.006 194.769 124.003C194.784 124 194.799 124.001 194.814 124.005C194.829 124.009 194.842 124.015 194.854 124.025C195.101 124.197 195.395 124.291 195.696 124.293C195.794 124.305 195.893 124.297 195.988 124.27C196.082 124.242 196.17 124.196 196.246 124.133ZM196.42 122.571V121.31C196.245 121.169 196.029 121.087 195.804 121.075C195.716 121.072 195.629 121.089 195.547 121.123C195.466 121.157 195.393 121.208 195.334 121.272C195.19 121.456 195.116 121.684 195.127 121.917C195.11 122.153 195.182 122.386 195.329 122.571C195.389 122.635 195.462 122.685 195.543 122.718C195.625 122.751 195.712 122.767 195.799 122.764C196.016 122.761 196.227 122.694 196.406 122.571H196.42Z" fill="black"/>
<path d="M202.203 122.6C202.274 122.557 202.33 122.571 202.358 122.623L202.589 123.056C202.599 123.08 202.6 123.108 202.591 123.133C202.583 123.158 202.565 123.179 202.542 123.192C202.194 123.402 201.795 123.51 201.389 123.503C201.165 123.51 200.941 123.472 200.732 123.391C200.523 123.311 200.332 123.188 200.17 123.032C199.882 122.718 199.723 122.306 199.723 121.88C199.723 121.453 199.882 121.042 200.17 120.727C200.319 120.583 200.495 120.471 200.689 120.398C200.882 120.324 201.088 120.29 201.295 120.299C201.522 120.286 201.749 120.328 201.956 120.421C202.163 120.514 202.345 120.656 202.485 120.835C202.702 121.203 202.799 121.629 202.763 122.054C202.764 122.067 202.763 122.081 202.758 122.093C202.754 122.106 202.747 122.117 202.737 122.127C202.728 122.136 202.716 122.144 202.704 122.148C202.691 122.153 202.677 122.154 202.664 122.153H200.641C200.663 122.307 200.734 122.45 200.843 122.562C200.922 122.637 201.015 122.695 201.117 122.733C201.219 122.771 201.327 122.788 201.436 122.783C201.704 122.796 201.97 122.732 202.203 122.6ZM201.907 121.597C201.91 121.518 201.897 121.439 201.868 121.366C201.838 121.293 201.794 121.226 201.737 121.171C201.68 121.117 201.612 121.075 201.537 121.048C201.462 121.022 201.383 121.012 201.304 121.019C201.13 121.014 200.961 121.078 200.834 121.197C200.74 121.311 200.682 121.45 200.669 121.597H201.907Z" fill="black"/>
<path d="M149.468 93.7427C147.42 93.7427 145.419 94.3498 143.717 95.4872C142.015 96.6246 140.688 98.2413 139.904 100.133C139.121 102.024 138.916 104.105 139.315 106.113C139.715 108.121 140.701 109.966 142.148 111.413C143.596 112.861 145.44 113.847 147.448 114.246C149.456 114.646 151.538 114.441 153.429 113.657C155.32 112.874 156.937 111.547 158.075 109.845C159.212 108.143 159.819 106.141 159.819 104.094C159.819 101.349 158.728 98.7157 156.787 96.7745C154.846 94.8333 152.213 93.7427 149.468 93.7427ZM149.468 110.559C148.19 110.556 146.943 110.175 145.882 109.463C144.821 108.751 143.996 107.741 143.509 106.56C143.022 105.379 142.897 104.08 143.148 102.828C143.399 101.576 144.016 100.426 144.921 99.524C145.825 98.6222 146.977 98.0087 148.23 97.7611C149.483 97.5135 150.781 97.6429 151.961 98.133C153.14 98.6231 154.148 99.4518 154.857 100.515C155.565 101.577 155.943 102.826 155.942 104.103C155.941 104.953 155.773 105.793 155.448 106.577C155.122 107.362 154.645 108.074 154.043 108.673C153.442 109.273 152.728 109.748 151.943 110.072C151.158 110.395 150.317 110.561 149.468 110.559Z" fill="black"/>
</mask>
<g mask="url(#mask0)">
<rect x="105.277" y="85.3159" width="144.046" height="51.2163" fill="url(#paint0_linear)"/>
</g>
<path d="M2 428.541V12C2 6.47715 6.47714 2 12 2H327C332.523 2 337 6.47717 337 12V428.541C337 434.064 332.523 438.541 327 438.541H292.304V441.579H276.249L273.645 438.541H55.8083L54.0725 441.579H38.0168V438.541H12C6.47715 438.541 2 434.064 2 428.541Z" stroke="url(#paint1_linear)" stroke-width="3"/>
<defs>
<linearGradient id="paint0_linear" x1="124.839" y1="93.6353" x2="172.668" y2="179.321" gradientUnits="userSpaceOnUse">
<stop stop-color="#2A3275"/>
<stop offset="0.994792" stop-color="#0094FF"/>
</linearGradient>
<linearGradient id="paint1_linear" x1="47.4938" y1="73.4037" x2="426.43" y2="257.353" gradientUnits="userSpaceOnUse">
<stop stop-color="#2A3275"/>
<stop offset="0.994792" stop-color="#0094FF"/>
</linearGradient>
</defs>
</svg>
