<svg width="232" height="136" viewBox="0 0 232 136" fill="none" xmlns="http://www.w3.org/2000/svg">
<g opacity="0.3">
<circle cx="4" cy="36" r="4" fill="#BCBCBC"/>
<circle cx="68" cy="36" r="4" fill="#BCBCBC"/>
<circle cx="4" cy="100" r="4" fill="#BCBCBC"/>
<circle cx="132" cy="100" r="4" fill="#BCBCBC"/>
<circle cx="68" cy="100" r="4" fill="#BCBCBC"/>
<circle cx="196" cy="100" r="4" fill="#BCBCBC"/>
<circle cx="4" cy="68" r="4" fill="#BCBCBC"/>
<circle cx="132" cy="68" r="4" fill="#BCBCBC"/>
<circle cx="68" cy="68" r="4" fill="#BCBCBC"/>
<circle cx="196" cy="68" r="4" fill="#BCBCBC"/>
<circle cx="4" cy="4" r="4" fill="#BCBCBC"/>
<circle cx="4" cy="132" r="4" fill="#BCBCBC"/>
<circle cx="132" cy="132" r="4" fill="#BCBCBC"/>
<circle cx="68" cy="4" r="4" fill="#BCBCBC"/>
<circle cx="68" cy="132" r="4" fill="#BCBCBC"/>
<circle cx="196" cy="132" r="4" fill="#BCBCBC"/>
<circle cx="36" cy="36" r="4" fill="#BCBCBC"/>
<circle cx="36" cy="100" r="4" fill="#BCBCBC"/>
<circle cx="164" cy="100" r="4" fill="#BCBCBC"/>
<circle cx="100" cy="100" r="4" fill="#BCBCBC"/>
<circle cx="228" cy="100" r="4" fill="#BCBCBC"/>
<circle cx="36" cy="68" r="4" fill="#BCBCBC"/>
<circle cx="164" cy="68" r="4" fill="#BCBCBC"/>
<circle cx="100" cy="68" r="4" fill="#BCBCBC"/>
<circle cx="228" cy="68" r="4" fill="#BCBCBC"/>
<circle cx="36" cy="4" r="4" fill="#BCBCBC"/>
<circle cx="36" cy="132" r="4" fill="#BCBCBC"/>
<circle cx="164" cy="132" r="4" fill="#BCBCBC"/>
<circle cx="100" cy="132" r="4" fill="#BCBCBC"/>
<circle cx="228" cy="132" r="4" fill="#BCBCBC"/>
</g>
</svg>
