<svg width="297" height="168" viewBox="0 0 297 168" fill="none" xmlns="http://www.w3.org/2000/svg">
<path d="M73.544 137.978H74.2881H75.172L75.7068 137.768L76.4509 138.094H76.9161L77.2416 138.675L77.0091 139.257L76.1486 139.675L76.2185 140.257H76.7068L76.8443 140.978L77.1423 141.642L77.7843 142.284L78.2198 142.72L78.4033 143.499L79.0451 144.141L78.4033 145.012L77.8072 145.608H76.7984L75.7668 145.677L75.2397 145.15L74.8727 144.405H74.4029L73.9099 144.898H73.1077L72.2136 144.004L72.0417 143.488L71.3652 142.812V141.642L70.7922 141.069H69.7378L68.8665 141.39L68.5455 140.703L67.6746 140.015L66.8949 139.602L65.8405 140.107L64.8777 140.244L64.0983 140.015L63.5481 138.96L62.7685 138.272L62.2183 139.19H61.6224V138.456L62.1726 137.906L61.8057 137.126L61.3473 135.934L61.1639 134.696L60.4761 133.871L59.3757 133.458L59.055 132.679L58.4588 132.083L57.3585 132.267H56.7164V131.395L56.3956 130.478L55.2721 130.272L54.6991 130.845L53.6447 131.212L52.7275 130.707H51.7647L51.3063 131.395H50.3435H49.2888L49.0596 131.9L48.4635 132.495L48.3719 133.366L47.2487 133.161L46.5838 132.495V131.578L46.882 130.684L46.4003 130.203H45.6209L45.5879 129.284L45.0289 128.725L44.901 128.038H44.246L43.8149 127.607L43.6232 126.68L42.9682 126.441L42.6328 126.776L42.0257 126.201L42.8565 125.402L42.7286 124.124L41.6422 123.07L40.7157 123.102V122.559L40.1086 122.239L39.0863 122.111L38.7988 121.025L38.8624 120.226L39.1977 119.891L38.8305 118.948L39.4758 118.656L39.9176 118.632L40.3713 118.179L41.1735 117.749L42.0804 117.19L42.3363 116.725H43.1035L43.1968 115.284L42.8246 114.609L42.9874 113.4L42.8246 112.679L43.7781 111.656L44.2199 111.865L44.7431 111.505L45.15 111.098V110.738H45.6732L46.3827 110.028L46.9406 109.889L47.3824 109.447L47.2198 109.028V108.586L46.4754 107.982V107.145L46.995 106.621L47.759 106.46L48.3218 105.897L49.2467 105.736L50.2519 105.414L51.4384 105.274L52.0216 104.691L52.2629 103.726L52.7855 103.203L53.429 103.846H54.3539L54.7159 102.921H55.6408L56.7266 103.163L58.134 102.8L58.6566 102.278H59.461L59.7826 103.042L60.2855 103.544H61.1498L61.4615 103.856L62.1754 103.142L63.2813 102.76L63.7437 103.223L64.2865 102.64H65.5734L65.7343 100.468L66.2771 99.8449L66.5788 99.5433V98.6988L67.222 98.3772L66.2168 97.3316L66.6993 96.8892L67.5678 97.2752L69.1989 95.6441L69.6918 95.2202L70.0357 95.3349L70.9069 96.3665L70.7463 96.8708L71.1589 97.0771L71.2439 97.7739L70.6808 98.3371V99.2619L69.7961 99.4627V100.066L69.1931 100.669V101.353L69.6753 101.835V102.519L69.8764 103.243L69.595 103.887L69.9166 104.208L70.4395 103.565L70.7611 102.64L71.5655 102.439L72.4101 102.841L72.9327 103.364L73.6565 102.68L74.0386 103.062L74.2598 103.565L74.9434 103.484L75.3657 103.062H76.1095L76.8099 102.785V102.235L76.3459 101.771L76.7756 100.928L77.704 101.444L78.0308 101.117L78.3574 101.444L78.8044 100.997L79.389 101.204L79.6297 101.582L79.5265 102.166L80.0079 102.751L80.5925 102.545L81.5897 102.992L82.2431 103.645L82.9652 103.267L83.7905 103.576L84.2549 103.112L84.719 103.267L85.0458 103.593L85.5099 103.439L85.785 102.854H86.2664L87.3324 103.576L88.364 104.126L89.5331 104.573L91.1149 104.814V105.536L90.1865 106.018V106.946L89.6707 108.218L88.7422 109.044L88.0545 110.075L87.4355 110.694H86.6446L85.8881 111.348V112.517L86.4727 113.445L86.1632 114.477L85.6991 114.941V115.268L86.1976 115.784L85.6303 116.351L85.0628 116.815L84.2719 116.643L83.4466 117.193L83.481 117.64L83.8422 118.001L83.3435 118.5L82.9996 118.844L82.4494 118.019H81.8304L81.349 118.809L81.1427 119.669L80.3862 120.047H79.4921L79.217 119.772L78.9076 120.391V121.182L78.5466 121.543L77.9458 122.209L78.5348 123.024L79.5991 123.793H80.2558L80.7986 124.585L81.3812 124.003L81.5672 124.77L81.3578 125.468L80.7997 126.491V127.049L79.7648 127.293L79.1485 127.91L78.1951 127.561V126.933L77.6837 126.421L76.9395 126.049L76.2419 125.84L75.2419 126.584L75.4279 127.468L75.8697 127.91L76.0091 129.142L76.5907 130.072L77.7301 130.188L78.2184 129.863L79.3348 130.212L79.6602 131.212V132.095H79.1254L78.7997 131.653L78.0325 131.723V132.048L77.323 132.292L76.3813 133.234V133.746L75.7767 134.56V135.351H75.2884L74.6606 136.49L74.5443 137.165L73.8232 137.49L73.544 137.978Z" fill="#F0F0F0" stroke="#BCBCBC"/>
<path d="M26.547 97.5585L26.7761 96.6416L27.0512 95.6328L26.3635 94.9451L26.8221 94.6243L26.7761 93.8447L27.0512 92.7443L27.5555 91.5523L27.9225 90.5436L28.8394 90.2685L29.1604 89.5807L30.0314 88.8473L30.811 88.7783L31.4299 89.5348L31.705 88.7554H32.3468L32.6219 88.274L32.8742 87.7238L32.9658 86.761L33.3784 86.3484L33.4478 85.7753L34.1583 85.1792L34.4337 85.7751L34.8488 86.1902H35.6494L36.0496 86.5904L36.7464 86.5459L37.2801 86.8721H38.2587L38.7775 87.391L39.4152 87.4652L39.8006 87.0798H40.5714L41.0608 86.5904H41.6685L42.1727 86.8424C42.1727 86.8424 42.4099 87.213 42.5433 87.213C42.6767 87.213 42.7064 87.8801 42.7064 87.8801H43.3589L43.8038 88.4138H44.3969L44.5154 88.0284L44.9008 88.4138C44.9008 88.4138 45.5234 88.7103 45.6422 88.7103C45.7611 88.7103 46.2945 89.0069 46.2945 89.0069L46.7096 89.244L47.2433 89.4517L47.9847 89.3034L48.6369 89.5109L48.3998 90.282L48.3997 91.2012L48.9646 91.0984L49.8091 91.0181L50.2916 91.5006L51.4377 92.2849L51.88 91.8426L52.7444 92.7069V94.5165L53.8305 95.6023L54.8357 95.16L55.9616 94.8785L56.9671 95.3209L57.892 94.8785L58.495 96.1654L59.6812 96.3866L60.5863 97.2914L60.9079 98.1761L62.5969 99.0608L63.2203 99.9656L63.6423 99.5433L64.6478 99.7846L65.2106 98.8999L66.2764 99.8448L65.7336 100.468L65.5727 102.64H64.2858L63.743 103.223L63.2806 102.76L62.1747 103.142L61.4608 103.856L61.1491 103.544H60.2848L59.7819 103.042L59.4603 102.278H58.6559L58.1332 102.8L56.7258 103.163L55.64 102.921H54.7152L54.3531 103.846H53.4283L52.7848 103.203L52.2621 103.726L52.0209 104.691L51.4377 105.274L50.2512 105.414L49.246 105.736L48.3211 105.897L47.7583 106.46L46.9943 106.621L46.4747 107.145V107.982L46.9168 108.284L47.2191 108.586V109.028L47.3817 109.447L46.9399 109.889L46.382 110.028L46.1027 110.307L45.6725 110.738H45.1493V111.098L44.7424 111.505L44.2192 111.865L43.7774 111.656L43.2541 112.249L42.8239 112.679L42.9867 113.4L42.8239 114.609L43.1961 115.284L43.1028 116.725H42.3356L42.0797 117.19L41.1727 117.749L40.3706 118.179L39.9169 118.632L39.4751 118.656L38.8298 118.948L39.197 119.891L38.8617 120.226H37.9351L37.2323 119.843L37.0724 119.331L36.4015 119.203L35.7627 119.779H34.4527L34.1174 120.881L33.0467 121.951H31.8646L31.4492 122.366H30.8104L30.4905 121.919H29.6963V121.34L29.3436 120.988L28.5643 120.621V119.658L27.964 118.982L27.8306 118.833L27.5555 117.778L26.8677 117.365L26.1343 116.54L26.4094 115.577L26.1343 114.156L25.2631 113.514L24.2543 112.735L23.9336 111.68L23.2458 111.13L23.0164 110.488L23.6125 109.8L24.0711 108.792V107.829L23.5666 106.912L23.0623 106.132L23.5209 105.766L23.796 105.078H24.3462L24.7589 104.711L25.0796 103.473L25.1715 102.74L24.8045 101.823L24.3003 101.318L23.6125 101.227L23.1083 100.676L22.6956 100.08L22.0767 100.607L21.5953 100.126L21.1826 99.4385L21.5953 98.7048L22.4662 97.8336L23.0623 97.1459L23.2915 96.3206L23.9792 96.2749L24.4838 96.8251L24.7589 97.5129L25.6758 97.8336L26.547 97.5585Z" fill="#F4644D" stroke="#BCBCBC"/>
<path d="M86.6082 135.293L88.1672 135.247L89.2216 135.568H90.001L90.8722 136.027L91.7891 135.843L92.3165 135.316H92.7979L93.9899 135.935H95.2278L96.2366 135.751L97.0619 136.21L98.0707 135.935H99.2167L99.767 135.155L100.776 135.247L101.693 135.797H102.839L103.252 136.622H104.077V136.072L104.335 135.539L104.799 135.075V134.456L105.177 134.387L105.659 133.906L105.848 133.424V132.616L106.501 131.963L107 131.464L107.877 131.31L108.203 130.983V130.364L107.516 129.986L107.292 129.453L106.862 129.023L106.243 128.713V128.198L106.965 127.854L106.656 126.925L106.725 126.203L107.275 125.653L107.687 124.965L108.375 124.484L109.097 125.206L108.65 125.653V126.203L109.269 126.409L110.06 126.65L110.576 126.891L111.161 127.269H111.917L112.398 126.822L113.189 127.235L113.877 127.441H114.978L115.889 127.011L116.628 126.272L117.041 125.687L118.341 124.927L118.482 123.967L119.724 123.063L121.249 122.64L121.164 121.2L121.7 119.873L122.237 118.8L123.705 118.574L124.806 119.054H126.387L126.783 119.647L128.251 119.816L129.394 119.379L130.453 120.437L131.329 120.212L132.543 120.833L132.882 119.704L134.689 118.941L136.383 120.184L137.428 119.139L139.065 118.433L139.743 117.304L138.444 116.739L137.286 115.977L137.281 114.569L138.369 113.491L138.758 113.102L138.827 112.07L139.492 111.405V110.259L138.804 109.296L139.263 108.425L139.928 107.577L140.547 106.958L140.226 106.224L140.409 105.261L140.226 104.161L139.698 104.688L139.171 104.161L138.117 103.932L137.887 102.969L138.346 102.51L138.254 101.456L137.842 100.63L137.292 100.08H136.741L136.237 99.1634L136.65 98.8423V98.017L136.329 97.4668V97.0083L136.948 96.4352L136.558 95.6328L135.549 95.0366V94.3949L135.137 93.9822L135.526 93.2945L135.377 92.4576L134.93 92.0106L134.953 91.2769L135.595 91.4145L135.767 90.8527L136.26 90.3597L136.558 89.4885L136.191 88.8008H136.535L136.787 88.1359L136.352 87.0814V86.3709L135.641 86.2333L135.664 85.3392L135.114 85.8666L134.839 85.5915L134.288 86.0729L133.99 85.775L133.876 85.1789L133.005 85.0413L132.432 84.4683L132.306 83.9753L131.904 83.5742L131.858 82.7261L132.695 82.0956L133.372 81.4194L133.715 80.8692H134.632V79.2874L134.724 78.187L133.738 77.6368L133.475 77.0982L133.257 77.3161L132.97 76.7087L133.211 76.4679L133.601 76.0781L134.472 75.9406L134.38 75.4592L134.816 75.0237L134.655 74.4276L134.014 74.0837L133.395 73.9233L133.051 73.5794L132.867 73.0752H132.432L132.386 72.525L131.858 73.0524L131.927 73.5797L132.111 74.1756L131.561 74.6801L130.827 73.9464L130.368 73.4878L129.405 74.1299L129.726 75.1384L130.414 75.8261V76.1931L131.24 76.6058L131.767 77.1328L132.065 77.8437V78.3939L131.285 77.6599L130.575 76.9494L129.864 77.3848L129.314 76.9265L128.351 76.1931V75.3678V74.2212L129.177 73.3962L129.36 72.2042V70.8744L129.589 69.9116H128.856L128.535 70.5993L128.856 71.3789L128.489 72.3418L127.939 73.2127H126.976L125.829 74.3591L125.096 75.0927L125.761 75.7574L125.646 76.6971L125.921 77.5686L126.242 78.5771L125.325 79.4943L124.913 80.686L124.271 81.695L124.408 83.1619L123.858 83.712L123.996 84.5836H124.821L125.188 85.0875L125.875 84.7668L126.403 84.2397L127.045 84.8815L128.168 85.2713L128.535 85.638L129.131 86.1879L129.589 87.1051L129.268 87.8385L129.543 88.71L129.268 89.3058L128.535 89.5353L128.626 90.3606V90.9108L129.016 91.3003L130.048 91.5985V92.24L128.993 92.0111L128.076 91.094V90.4062L128.03 89.3058L128.764 88.5722L128.214 87.1507L127.778 86.7153L127.48 85.8215L126.426 85.959H125.463L124.844 86.578L124.225 87.197L124.317 88.0679L124.546 89.0308L124.271 90.1311L123.698 90.7044L122.987 91.415L122.575 91.8277V92.7905L121.658 93.2947L120.511 93.6158L120.236 93.8909H119.64C119.64 93.8909 118.975 94.1888 119.159 94.3723C119.342 94.5558 118.998 95.1747 118.998 95.1747H118.173L117.623 94.3951L116.843 94.4411L115.927 93.7993L115.239 93.4782L114.551 92.4238V91.5526L115.239 91.7817L115.72 92.2631L116.477 92.7445L117.165 92.2862L118.311 92.5154L118.953 92.1487L119.64 91.1399L120.832 89.9479L121.841 89.6728L122.025 87.9763L123.033 87.197L123.171 86.4633L122.369 85.6608L122.025 84.446L122.391 83.5748L122.896 81.8326L123.217 79.861L124.134 78.4855L124.363 77.2476L124.638 75.6886L123.858 75.0009L124.225 73.8089L125.532 72.5022L125.738 70.8288L126.197 70.3702L125.784 68.8112H124.821L124.271 68.261H123.171L122.62 67.4817L121.749 67.9402L121.245 69.0406L120.786 70.141L120.19 71.4706L119.411 72.2499L119.067 72.5938L118.081 73.0752L117.165 73.3962L116.66 74.038L116.339 74.9552L116.935 75.1384V75.8261L116.523 76.3763L116.294 77.4767V78.2104L115.377 78.669L114.941 79.1042L115.423 80.0901L116.294 80.6863L116.11 81.9701L116.615 83.1621L117.348 83.3913L116.294 84.3541V85.317L115.377 85.8671L114.735 84.8586V83.9415L113.956 82.887L113.222 81.7407L112.145 80.6632L111.785 79.9298L111.411 80.4799L110.689 81.2021L111.136 81.6263L111.228 81.9701L111.572 82.0849V83.6438H111.136L110.93 84.1481L110.563 84.3316L110.494 84.8358L110.424 85.1794L111.341 85.638V86.2341L110.493 86.578L111.204 87.2886L110.103 87.8388L109.278 88.6641H108.407L108.086 89.6728H106.527L105.06 89.9939L103.593 90.8192V91.8279L102.391 91.782L101.499 91.9193L101.017 92.4694L100.158 92.9165L99.2979 93.7762L98.507 93.8793V93.1572L97.9224 92.9509L97.2173 93.6559L96.2715 94.6017L95.8589 95.3926L96.0308 96.3898L94.9304 97.0776L94.8273 97.9029L93.8988 98.4874L93.2799 99.6566L93.4518 100.448L93.0735 101.17V101.789L91.9388 102.923L91.7837 103.731L91.3536 104.161L91.1129 104.815V105.537L90.1845 106.018V106.947L89.6687 108.219L88.7402 109.044L88.0525 110.076L87.4335 110.695H86.6426L85.8861 111.348V112.517L86.4707 113.446L86.1612 114.477L85.6971 114.941V115.268L86.1956 115.784L85.6283 116.351L85.0608 116.815L84.2699 116.644L83.4446 117.194L83.479 117.641L83.8402 118.002L83.3415 118.5L82.9976 118.844L82.4474 118.019H81.8284L81.347 118.81L81.1407 119.67L80.3842 120.048H79.4901L79.215 119.773L78.9055 120.392V121.183L78.5446 121.544L77.9438 122.209L78.5328 123.024L79.5971 123.794H80.2538L80.7965 124.586L81.3792 124.003L81.5652 124.771L81.3558 125.468L80.7976 126.492V127.049L79.7627 127.294L79.1465 127.91L78.193 127.562V126.933L77.6816 126.422L76.9375 126.05L76.2399 125.841L75.2399 126.585L75.4258 127.468L75.8677 127.91L76.0071 129.143L76.5887 130.073L77.7281 130.189L78.2164 129.863L79.3328 130.212L79.6582 131.212V132.096H79.1234L78.7977 131.654L78.0305 131.723V132.049L77.321 132.293L76.3793 133.235V133.747L75.7747 134.56V135.351H75.2864L74.6586 136.491L74.5422 137.165L73.8212 137.491L73.542 137.979H75.17L75.7048 137.769L76.4489 138.095H76.9141L77.2396 138.676L77.0071 139.257L76.1466 139.676L76.2165 140.257H76.7048L76.8423 140.978L77.209 140.015L78.1262 140.244L78.9055 140.015L79.2266 139.19L78.9055 138.044L79.6849 137.723L80.8772 137.677L81.6565 138.456H82.2983L82.8716 137.883L82.2526 137.264L81.7481 136.76L81.2439 136.439L81.8856 135.797L81.5649 135.109L81.8856 134.101H82.8485L83.9032 134.651L84.6366 135.293L85.4619 135.064L86.6082 135.293ZM131.75 71.4989L131.292 71.9566L130.793 72.3729L131.251 72.7057L131.625 72.3729H132.208L132.748 71.8733L132.249 71.3743L131.75 71.4989ZM130.252 66.8806L129.878 67.2134L130.127 67.5878L130.626 67.255L131.251 67.4214L131.084 67.047L130.252 66.8806ZM128.338 68.5449L128.13 69.0857L128.463 69.3771L128.837 68.9193L128.338 68.5449ZM123.886 65.8404L123.428 66.1733L123.595 66.548L123.262 67.0055L123.345 67.2968L124.094 67.5048L124.801 67.1719L125.218 67.2137V66.7975L124.552 66.6311L124.885 66.2567L124.51 65.7158L124.053 65.8823L123.886 65.8404Z" fill="#F0F0F0" stroke="#BCBCBC"/>
<path d="M151.083 34.5615L150.98 35.2493L150.361 35.5244L149.433 36.1433V37.003L149.811 37.3813L149.312 37.8799L148.986 38.516L149.433 39.135L149.605 39.754L150.395 40.4417L151.118 39.754H151.599L152.321 39.3413L153.181 39.0662L152.94 38.2409V37.2093L153.456 36.7623L153.026 36.3325L152.149 35.4556L151.84 34.7678L151.083 34.5615ZM148.504 34.9742L147.782 35.0086L147.473 35.318L147.713 35.5587L147.971 35.8166L148.504 35.318V34.9742ZM139.907 35.6963L139.564 35.7651L139.34 35.9886L139.684 36.3325L140.148 36.1777L140.423 35.9026L139.907 35.6963ZM153.76 39.4181L152.844 39.7094C152.844 39.7094 152.304 39.8344 152.179 39.8759C152.054 39.9175 151.43 40.1258 151.43 40.1258L151.139 40.7501L150.972 41.2906L150.597 41.7484L150.723 42.2895L150.015 42.8305L150.348 43.1217L150.847 42.9552L151.263 43.5376L151.305 44.0781L151.68 44.5359L152.637 44.6192L152.761 45.1602L153.427 44.7444L153.76 45.2849L154.675 45.618L155.549 45.2016L155.966 44.6192L155.633 43.9535L155.091 43.2039L155.508 42.9127L155.674 42.2056L155.466 41.4147L155.549 40.6244L154.55 40.0839L154.176 40.5416L153.843 41.166L153.552 41.0408L153.76 40.2504V39.4181ZM148.47 40.201L148.573 40.9575V41.4389L149.329 41.6452L149.639 41.9547L150.103 41.4905L150.361 40.82L149.914 40.4761L149.054 40.2698L148.47 40.201ZM136.409 41.0827L136.16 41.3325L136.451 41.4986L136.909 41.8317L137.033 41.4153L136.409 41.0827ZM158.046 42.3308L157.63 42.3727L157.047 43.0798L157.089 43.7042L156.839 44.12L157.005 45.2435L156.506 45.7432L156.548 46.8662L156.298 47.8231L156.09 48.7805L156.465 48.9885L157.255 48.3641L157.713 48.0729L158.753 47.5324L159.585 47.4491L160.626 46.6582L161.125 45.7013L160.792 44.869L160.418 44.2447L159.918 44.4532L159.419 43.579L159.044 43.2045L158.587 43.7455L158.295 44.5359V43.954L158.337 42.9133L158.046 42.3308ZM162.373 46.5749L161.957 46.8248L162.539 47.116L162.955 47.4072L163.413 47.2826L163.288 46.7415L162.831 46.8662L162.373 46.5749ZM160.929 49.3248L160.196 50.1039L159.37 50.7003L158.683 52.3966L158.453 53.1305V54.2309L158.82 54.506L158.912 55.2851H158.591L157.537 55.6064H156.528L156.803 56.1103L157.353 56.523L157.766 57.0732L156.849 56.89L155.932 57.0732L155.794 57.8071L154.373 57.7615L153.8 58.3342V57.6696L154.235 56.8443L153.41 56.9818L153.181 57.4858L152.172 57.6234L150.98 57.8985L150.521 58.3573L151.346 58.6324L151.071 58.9532L149.833 59.3202L149.398 59.7554L147.679 60.0079L147.197 60.4893L145.936 60.9707L145.432 62.0249L144.148 61.9792L144.195 62.667L144.836 62.7127L144.195 63.2172L143.736 63.8587L144.126 64.2488L143.873 64.8215L144.24 65.2342L143.69 65.3717C143.69 65.3717 143.69 64.684 143.346 65.0279L142.819 65.5555L143.277 66.0138L143.828 66.1976L144.286 66.8853L143.828 67.3436H142.957L141.764 67.8481H139.976V68.1232L138.876 67.7106H136.721L135.804 68.5359L136.034 69.6819L136.4 70.0489L135.987 70.9661L135.712 72.0665L136.079 72.4329L136.721 73.4876L137.592 73.8084L137.546 74.4504L138.051 75.1382L137.867 75.8716H136.629L135.827 75.0694L135.528 74.7712L135.85 73.8546L134.658 73.2125L134.039 72.5935L133.282 72.708L132.365 72.5248L132.411 73.075H132.847L133.031 73.5789L133.42 73.969L133.993 74.0835L134.635 74.4273L134.796 75.0237L134.36 75.4589L134.452 75.9404L133.58 76.0779L132.95 76.7087L133.236 77.3158L133.42 77.0639L133.718 77.6371L134.704 78.1873L134.612 79.2877V80.8695H133.695L133.351 81.4197L132.675 82.0956L131.838 82.7264L131.884 83.5743L132.285 83.9756L132.411 84.4683L132.984 85.0416L133.856 85.1792L133.97 85.7756L134.269 86.0732L134.819 85.5918C134.819 85.5918 135.019 85.9415 135.094 85.8669C135.168 85.7924 135.644 85.3398 135.644 85.3398L135.621 86.2339L136.332 86.3714V87.0817L136.767 88.1365L136.515 88.8011H136.171L136.538 89.4888L136.24 90.3603L135.747 90.853L135.575 91.4145L134.933 91.277L134.91 92.0109L135.357 92.4579L135.506 93.2945L135.116 93.9823L135.529 94.3949V95.037L136.538 95.6328L136.928 96.435L136.308 97.0083V97.4666L136.629 98.0168V98.8421L136.217 99.1634L136.721 100.08H137.271L137.821 100.63L138.234 101.456L138.326 102.51L137.867 102.969L138.096 103.931L139.151 104.161L139.678 104.688L140.206 104.161L140.389 105.261L140.206 106.224L140.526 106.957L139.907 107.576L139.243 108.425L138.784 109.296L139.472 110.259V111.405L138.807 112.07L138.738 113.101L138.348 113.491L137.271 114.568L137.285 115.976L138.443 116.738L139.742 117.303L139.064 118.432L137.427 119.138L136.382 120.183L134.688 118.941L132.881 119.703L132.542 120.833L131.328 120.212L130.453 120.437L129.394 119.379L128.25 119.816L126.782 119.647L126.387 119.054H124.806L123.705 118.574L122.236 118.799L121.163 121.2L121.248 122.64L119.723 123.063L118.481 123.967L118.34 124.927L117.04 125.687L116.627 126.271L115.888 127.011L114.977 127.44H113.876L113.189 127.234L112.398 126.821L112.088 127.268H111.16L110.575 126.89L110.06 126.649L109.269 126.409L108.65 126.202V125.652L109.097 125.205L108.375 124.483L107.687 124.964L107.368 125.496L106.724 126.202L106.655 126.924L106.965 127.853L106.243 128.197V128.713L106.862 129.022L107.291 129.452L107.515 129.985L108.203 130.363V130.982L107.876 131.309L106.999 131.464L105.847 132.616V133.424L105.658 133.905L105.177 134.386L104.798 134.455V135.074L104.334 135.539L104.076 136.071V136.622L104.764 136.943L105.131 138.089L104.901 138.731V139.602L104.328 140.175L104.581 140.977L105.589 141.253L106.506 140.702L107.171 141.367L106.873 142.445L107.79 142.72L108.294 142.215L109.12 142.72H110.037V143.361L108.937 143.866L108.661 145.104H109.441L110.403 144.646L110.908 145.379L112.008 144.783L113.292 144.416L114.048 143.66L114.759 143.637L115.722 143.591L116.41 142.903H117.235L117.465 143.545L116.914 144.279H116.272V145.104L117.052 145.425L117.625 145.998L118.152 147.121L118.656 147.625L119.436 148.405L119.986 150.239V151.752L120.719 152.44V153.54L121.499 154.915L121.729 156.108L122.049 157.162L122.645 158.354L123.654 158.171L124.158 157.116L124.892 156.887L125.396 157.483V158.171L125.901 158.675L126.451 159.225L127.459 159.042L127.918 159.501L129.064 159.317L129.638 158.744H130.807L131.368 159.306L132.228 159.684L132.87 160.28L133.053 161.38L133.833 161.885L134.199 162.71L135.162 163.306V164.406L136.4 164.727L137.5 165.094L138.693 164.636L139.403 163.925L139.655 164.865L140.16 165.782L140.573 166.469L141.902 166.699L142.498 166.103L143.644 165.461L145.02 165.507L145.776 164.75L146.854 164.498L147.037 163.535H147.954L148.871 162.618L150.384 161.655H151.576L151.897 160.692H152.906L153.708 159.89L154.694 160.326L155.473 161.105L156.711 160.601L157.766 160.922L158.637 161.793L159.37 162.526L160.7 162.985L161.617 163.26L162.901 163.031L164.139 163.352H165.469H166.34L167.371 162.32L168.449 161.61V160.509L167.646 159.707V158.675L167.073 157.988L167.257 156.795L167.876 156.177L168.449 155.007L169.159 154.297L169.181 154.275L169.125 153.427L168.678 152.98L168.514 152.198L169.004 151.708V150.9L169.537 150.367L170.741 149.163L171.067 148.836L171.48 148.424L172.116 148.819L171.979 149.438L172.838 149.851L173.354 150.332L174.489 150.676L175.005 151.192L175.589 151.501L176.243 152.155L177.721 151.845L178.271 152.43L178.959 153.015H179.681V153.668L180.197 154.493H180.954H181.504L181.745 155.318L182.776 154.734H183.533V153.393L184.599 152.327L185.837 150.848L186.456 149.266L188.089 147.633L189.929 145.415L190.204 142.148L190.857 139.982L189.86 139.672L189.344 137.196L188.897 135.168L189.241 134.514L189.722 134.033L188.931 133.483L188.175 133.242L187.9 132.004L189.344 130.938H190.066V130.01L190.754 129.7L191.751 130.044L192.783 129.666V128.772L193.505 128.256L193.883 128.669H195.052L195.74 128.187L196.17 128.617L197.597 128.909L198.182 128.325L198.801 128.669L199.712 127.757H200.417V125.952L201.242 125.539L201.758 124.473L202.617 124.68L203.03 125.092L202.033 126.021L202.858 126.09L203.546 125.711L204.578 125.986L204.99 125.195L205.712 124.748L205.884 123.854L205.558 123.528V122.96L204.818 123.27L203.494 121.946L203.855 121L203.443 120.588L203.787 119.797L203.46 119.47L204.251 118.679L204.99 118.731L205.42 119.161H205.987L206.532 118.749L206.528 118.745L206.685 118.244L205.382 116.94L205.01 115.91L204.437 115.852V115.194L203.822 114.521L203.32 114.02H202.59V114.721L201.946 115.366L200.944 115.222V114.564L200.514 114.192V113.361L199.626 113.246L198.595 112.759L197.622 112.874L196.648 112.731L196.104 113.389L195.832 114.292L195.187 114.936L195.445 115.824L195.102 116.855L194.243 117.714V119.318L193.04 120.148V121.093L192.524 120.377V119.575L191.923 118.974L191.35 119.231L191.207 119.976L189.689 120.548H188.973L188.687 121.407L188.229 122.095L187.241 122.166L186.139 121.064L186.024 118.773L186.167 117.399V116.11L186.338 114.965V113.848L185.537 113.504L184.964 113.303L184.878 112.759L184.613 112.137L184.09 111.614V110.998L184.448 110.641L184.549 109.795L184.047 109.295H183.389L182.673 108.951V108.292L182.959 108.006L182.645 107.691L182.387 106.689L181.814 105.658L181.127 105.171L180.354 105.4L179.609 105.457V104.57L180.225 104.398V103.81L179.581 103.167L179.552 102.623L178.879 102.58L178.378 103.081L177.748 102.795L176.917 103.11L176.516 102.623H176.087L175.714 102.995H174.97L174.483 102.767V101.85L174.769 101.563V100.962L174.54 100.275L175.085 99.4159L175.4 98.5283L174.455 97.5827L174.197 96.3227L173.394 95.8929V95.0912L173.71 94.8048L173.394 94.49V93.7453L172.536 93.4014L172.278 93.6593L172.02 92.8862L172.45 92.4563L172.908 91.7116L173.595 91.5112L173.337 89.736L173.137 88.5905V87.9887L172.335 86.5283L172.249 85.0099L171.447 84.4662L171.103 83.664L170.856 83.0472L170.856 82.6689L171.819 82.2907L172.816 80.8808L173.504 80.6745L174.433 80.9496L174.708 80.3306V79.5741L174.192 79.0583L174.433 78.1642L175.12 77.9235V77.2014L175.086 76.2729L175.842 75.7571L176.719 74.8803L176.908 74.2436H177.287L177.218 73.3151H176.496L175.842 72.0772V70.9424L175.258 70.3578L174.02 69.4638V68.9824L173.091 68.6385L172.766 67.9551L172.924 67.0331L172.534 66.643L172.126 66.0288L171.919 65.4975L172.234 65.1654L172.326 64.7254L171.96 64.4347L171.842 63.6298H171.291L170.604 63.6755L170.649 64.4094L170.604 64.7764L171.154 64.8221L171.498 65.1659L171.062 66.0143L170.329 66.2894L169.549 66.931C169.549 66.931 169.411 67.7563 168.999 67.7563C168.586 67.7563 167.853 67.9857 167.853 67.9857L167.027 68.4897L167.211 69.4068L166.385 69.7738L166.615 68.9485L166.798 67.7563L167.555 66.9997L167.898 65.9681L168.999 65.693L169.274 64.2719L169.962 63.5841L170.237 62.3V61.8417L171.154 60.7413L171.681 60.2137L172.117 59.3196L172.575 58.6781V57.7609L173.102 57.2338L172.529 56.2484L171.612 55.7439L171.245 55.3775L172.162 55.5607L172.254 54.5979L171.635 53.9789L171.154 53.4975L170.833 53.8644L170.282 53.4056L169.824 52.489L169.297 51.9613L168.586 52.3052L168.059 51.7781L167.119 52.4428H166.202L165.193 52.9929L165.606 53.4056L165.377 54.1852C165.377 54.1852 164.643 53.8639 164.368 53.8639C164.093 53.8639 164.139 53.268 164.139 53.268L164.735 52.6716L164.07 52.007H163.176L162.889 52.2934L161.434 52.2133L162.03 51.4337L162.74 50.7234L162.534 49.7831L161.846 49.875L160.929 49.3248ZM164.163 50.278L163.996 50.5278L164.371 50.7777L164.537 50.4865L164.163 50.278ZM146.853 52.6502L146.645 52.9827L146.936 53.2326L147.311 52.6915L146.853 52.6502ZM153.802 52.8167L153.386 53.3153L152.844 53.4405L153.344 53.815L153.843 53.3153L153.802 52.8167ZM139.873 57.8759L139.65 58.0994L139.942 58.3573L140.423 58.2198L139.873 57.8759ZM138.989 60.3061L138.531 60.6801L138.781 61.1797L139.197 61.0965L138.989 60.3061ZM142.568 64.0505L142.068 64.3004C142.068 64.3004 142.276 64.9248 142.276 64.8414C142.276 64.7581 142.65 64.6749 142.65 64.6749L142.568 64.0505ZM138.823 65.757L138.739 66.2142H139.446L139.821 66.5887L139.863 65.9644L139.446 65.8816L138.823 65.757ZM134.246 69.9586L133.871 70.0838L133.58 70.4583L133.746 70.9575L134.037 71.332L134.454 70.8747L134.62 70.3337L134.246 69.9586ZM169.709 153.76L169.694 153.775L169.709 153.76Z" fill="#F0F0F0" stroke="#BCBCBC"/>
<path d="M262.154 1.0003C262.135 0.997792 262.109 1.01104 262.075 1.04543C261.799 1.32052 261.02 1.54995 261.02 1.54995L260.195 2.696H259.874L258.773 3.10865L258.131 3.75072L257.673 4.39225L257.581 5.21754L257.077 5.17187V5.58451L257.811 5.76773L256.939 6.36413L256.664 7.18942L257.489 7.41831L258.773 7.51018L259.874 7.28076V7.83095L258.773 8.42735L258.154 9.04632L257.214 8.33547L256.16 8.65678L255.426 7.92283L254.785 8.2898L253.775 8.74812L252.95 9.61961L251.391 10.0779L250.566 11.2696L249.42 11.7285L248.48 12.6682L247.563 13.5854L246.577 14.1582L245.202 14.7546L244.491 15.4654L242.932 17.0241L241.534 18.377L241.167 19.7063L240.388 20.8529L240.113 21.6782L240.388 22.4572H239.746L239.012 22.8699L238.921 23.8327L238.096 24.2454L237.866 25.1169V25.6208H238.783L239.058 26.2629L240.204 26.0792L241.763 26.7669L242.268 26.8588L242.543 27.5922L242.313 28.3261L241.397 28.555L240.388 29.0139L239.654 29.289H238.6L237.912 28.6012L238.577 27.9361L237.705 27.0651L237.224 27.5465L236.72 28.4631L237.362 29.3803L237.178 29.9305L237.637 30.3888L237.362 31.4892L236.216 32.3145V33.2317L235.619 33.8275H234.931L234.519 34.6071V36.1202L233.648 36.9911V37.6332L234.084 38.0689H233.189L232.364 38.7336L231.218 39.2381L229.934 37.954L229.315 37.335L228.054 37.4038L226.541 37.6332L225.67 38.6879L224.707 39.6507L223.561 41.347V42.6768L222.644 43.8228L221.773 44.6943L220.81 44.74L219.939 44.2812L218.701 44.9689C218.701 44.9689 218.976 46.1612 218.838 46.0236C218.701 45.8861 217.967 45.1065 217.967 45.1065L217.325 45.8404H216.317C216.317 45.8404 215.698 45.6338 215.996 45.3359C216.294 45.0379 216.684 44.5106 216.684 44.5106L215.858 43.9147L214.483 44.5106L213.52 44.9694L213.107 46.1155L212.924 46.7576L213.199 48.2244V49.0959L212.42 49.8293L212.649 48.0412L211.778 47.7661L211.09 48.4538L210.31 48.8208L210.632 47.5829C210.632 47.5829 211.503 47.2616 211.503 46.9865C211.503 46.7114 211.319 46.5281 211.319 46.5281L209.99 47.124L208.293 47.7661L207.926 48.8202L206.643 49.4623H205.771L205.175 50.0582L206.138 50.6546L206.276 51.2961L205.267 52.2133V53.1761L205.817 53.5425L206.276 52.3508L206.597 52.6259V53.6344L207.376 54.0471L208.064 54.7348L208.385 54.9186L207.697 55.6063L206.826 55.5601L206.321 56.1103L205.932 56.5004L207.009 56.9818V57.6695L206.001 57.3944L205.13 57.4401L203.937 57.7152L203.295 58.9075L203.525 60.0992H202.379L201.37 60.3743L200.728 59.7327L199.582 59.5952V60.4205L200.178 61.0163V61.6584L200.453 62.3462L200.911 63.8592L200.82 64.7301L199.765 64.18L199.353 64.5926L198.39 64.4094L197.702 63.9505L196.808 63.0565L195.868 63.0796V62.3462C195.868 62.3462 195.455 61.7044 195.455 61.9335C195.455 62.1627 194.951 62.3918 194.951 62.3918L194.309 61.7498L194.676 61.3833L195.272 61.1996V60.1911L194.814 59.7322L193.942 60.2824V59.4114L193.415 58.8838H192.888L193.254 57.7609L192.154 57.3939L191.833 57.7152L190.825 56.9356C190.825 56.9356 190.733 57.3713 190.389 57.3713C190.045 57.3713 190.091 58.2192 190.091 58.2192L189.724 58.4943L189.357 58.0816L188.99 58.1735L188.807 58.7237L188.074 58.2192L187.592 57.7378L187.019 58.1735L186.469 57.6233L186.331 58.1735L186.148 59.2277L186.836 60.2824L186.973 61.199C186.973 61.199 187.203 62.0243 186.973 62.0243C186.744 62.0243 185.735 62.2081 185.735 62.2081L184.773 63.0334L183.81 63.3998L183.26 62.5288L183.122 63.0328L183.076 63.3998H181.655L180.898 62.6433L181.219 62.322L180.875 61.7949L179.5 62.2075L177.758 62.5283L176.611 63.1247L175.763 63.9726L175.327 64.4094L175.97 65.0052H175.327L174.777 64.2262V63.309L174.296 62.8276L173.723 63.6303L173.539 64.1805L172.622 63.8135L171.843 63.6303L171.962 64.4357L172.327 64.7258L172.236 65.1659L171.92 65.4979L172.128 66.0293L172.535 66.6435L172.925 67.0335L172.767 67.9555L173.093 68.639L174.021 68.9828V69.4643L175.259 70.3583L175.844 70.9429V72.0777L176.497 73.3156H177.219L177.288 74.2441H176.91L176.721 74.8808L175.844 75.7576L175.087 76.2734L175.122 77.924L174.434 78.1647L174.193 79.0588L174.709 79.5746V80.3311L174.434 80.9501L173.505 80.675L172.818 80.8813L171.821 82.2912L170.858 82.6694V83.0477L171.105 83.6645L171.449 84.4667L172.25 85.0109L172.336 86.5288L173.139 87.9892V88.5904L173.339 89.7359L173.597 91.5117L172.91 91.7121L172.451 92.4568L172.021 92.8866L172.279 93.6598L172.537 93.4019L173.396 93.7458V94.4905L173.712 94.8059L173.396 95.0922V95.8939L174.198 96.3237L174.456 97.5837L175.401 98.5288L175.086 99.4164L174.542 100.276L174.771 100.963V101.565L174.484 101.851V102.768L174.972 102.996H175.716L176.089 102.624H176.518L176.919 103.111L177.75 102.796L178.38 103.082L178.881 102.581L179.553 102.624L179.583 103.168L180.227 103.813V104.4L179.611 104.572V105.459L180.356 105.402L181.129 105.173L181.816 105.66L182.389 106.691L182.647 107.693L182.962 108.008L182.676 108.295V108.953L183.392 109.297H184.051L184.552 109.798L184.452 110.643L184.093 111.001V111.617L184.616 112.139L184.881 112.762L184.967 113.306L185.54 113.507L186.342 113.85V114.967L186.17 116.113V117.401L186.027 118.776L186.141 121.067L187.244 122.169L188.232 122.097L188.69 121.41L188.976 120.551H189.692L191.21 119.978L191.353 119.234L191.926 118.976L192.528 119.577V120.38L193.043 121.096V120.15L194.246 119.32V117.716L195.105 116.857L195.449 115.826L195.191 114.938L195.835 114.294L196.107 113.392L196.651 112.733L197.625 112.877L198.599 112.762L199.629 113.249L200.518 113.364V114.194L200.947 114.567V115.225L201.949 115.368L202.594 114.724V114.022H203.324L203.825 114.524L204.441 115.196V115.856L205.014 115.912L205.386 116.944L205.987 117.545L206.689 118.247L206.532 118.748L206.533 118.749L205.989 119.16H205.421L204.992 118.731L204.252 118.679L203.461 119.47L203.788 119.797L203.444 120.588L203.857 121L203.496 121.946L204.82 123.27L205.559 122.96V123.528L205.886 123.854L205.714 124.748L204.992 125.195L204.579 125.986L203.547 125.711L202.86 126.089L202.034 126.021L203.032 125.092L202.619 124.68L201.759 124.473L201.243 125.539L200.418 125.952V127.757H199.713L198.802 128.668L198.183 128.325L197.598 128.909L196.171 128.617L195.742 128.187L195.054 128.668H193.885L193.506 128.256L192.784 128.772V129.666L191.753 130.044L190.755 129.7L190.068 130.01V130.938H189.346L187.901 132.004L188.176 133.242L188.933 133.483L189.724 134.033L189.242 134.514L188.899 135.168L189.346 137.196L189.861 139.672L190.859 139.982L190.205 142.148L189.93 145.415L188.09 147.633L186.457 149.266L185.838 150.848L184.6 152.327L183.534 153.393V154.734H182.778L181.746 155.318L181.505 154.493H180.955H180.199L179.683 153.668V153.014H178.961L178.273 152.43L177.723 151.845L176.244 152.155L175.591 151.501L175.006 151.192L174.49 150.676L173.356 150.332L172.84 149.851L171.98 149.438L172.118 148.819L171.482 148.424L171.069 148.836L170.742 149.163L169.539 150.367L169.006 150.9V151.708L168.516 152.198L168.679 152.98L169.126 153.427L169.183 154.287L169.711 153.76L170.765 154.539H172.553L173.447 155.433L174.754 155.09H175.9L177.092 155.548L177.941 156.396L178.606 157.794L179.316 158.505L180.439 158.987L182.09 159.124L183.236 158.803L184.428 158.528L185.506 157.45H186.813L188.921 157.152L189.564 157.565L191.168 157.794H192.91L193.552 158.436L193.919 159.124L195.157 159.537L196.532 159.353H198.412L199.742 158.94H201.209L201.782 158.368L202.906 157.244L204.373 156.556L205.427 155.823L206.23 155.02L206.62 153.668L208.27 152.017L209.416 151.513L210.287 151.834L211.25 152.338L212.534 151.605L213.451 151.054L214.689 151.284L216.385 151.421L217.898 150.871L218.792 149.977L219.411 148.533L220.374 148.258V146.974L219.961 146.561L219.274 145.232L219.778 143.948V142.71L220.053 140.738L220.42 139.959L220.053 138.492L219.411 137.85L218.838 137.277L218.127 137.85L217.623 137.208L217.99 136.291L218.494 134.778L219.205 134.067L220.649 133.219L220.644 133.211L221.36 132.495L222.919 131.349H224.065L225.12 130.982L226.495 131.212L227.596 130.615H228.559L230.392 130.799L230.943 131.349L231.86 131.762L232.227 132.725L233.235 133L233.969 133.733L235.023 134.558L235.482 135.659L236.583 135.842C236.583 135.842 237.453 136.529 237.453 136.713C237.453 136.897 238.233 137.355 238.233 137.355L238.898 138.02L239.471 139.143L240.847 139.418L242.222 138.914L242.726 138.41H243.964L245.294 138.226L246.165 138.455L247.219 138.73L247.746 138.203L248.733 138.456L249.328 139.052L250.062 139.693V140.748L250.704 140.977L251.575 141.481H252.446L252.676 140.656L253.501 140.381L254.464 139.831L255.427 139.052L255.06 137.905L255.885 136.851L256.618 135.659L256.893 134.742L257.994 134.146H258.773L258.957 134.742L259.621 135.407L260.194 135.98V136.989L259.506 137.677L260.423 138.64L260.653 139.648L261.157 140.519L260.974 141.253L261.616 142.123L261.708 143.178L262.166 144.187L261.799 145.15L262.533 146.296L262.12 147.121L261.456 147.786L260.699 147.534L259.965 147.901L259.324 148.543V149.46L258.819 149.964L258.246 150.537L258.269 151.431L259.094 151.706L259.965 152.577L260.378 153.632L260.882 154.136L261.868 155.122L262.35 156.2V157.116L261.799 158.217L261.478 159.271L261.845 159.638L262.716 159.684V158.951V158.492L263.106 158.102L263.358 157.208L263.175 156.428L263.358 155.282V154.824L263.954 155.42L264.344 155.81V154.962L264.688 154.182L265.032 154.526V155.145L265.697 155.42L266.659 154.87L267.805 154.411H268.402L269.09 153.127L269.685 151.844L270.603 150.331V149.276L270.694 147.075L270.419 145.379L270.694 143.728V141.528V139.74L270.969 138.822V137.08L270.694 135.292L270.419 133.962L270.052 132.495L269.548 131.165L269.594 129.47L269.09 127.819L269.365 126.168V124.243L268.654 123.532L267.806 122.226L267.576 121.584L266.934 120.483L266.017 119.566L265.788 118.787L265.33 118.328L264.16 117.159L263.221 115.807L262.625 113.972L262.487 112.23L262.029 111.359L261.593 110.924L260.745 111.038L260.057 110.35L259.874 109.755H259.049H258.269L258.544 109.25L258.865 108.929L259.301 108.494L258.727 107.92C258.727 107.92 258.085 108.195 257.856 108.195C257.627 108.195 256.573 108.379 256.573 108.379L256.137 107.943L255.152 107.829H253.959L252.951 108.058L252.446 108.562L251.621 109.021L252.125 109.938L252.538 110.717L252.973 111.153L252.859 111.909L252.354 111.543L252.034 111.818L251.529 112.506V112.964L250.612 113.331V112.734V111.909L250.337 111.634L250.062 111.726L249.512 111.313V110.855L249.008 111.405V112.093L249.65 112.368V113.101L249.168 113.583L248.618 113.033L248.182 112.23V111.634L247.632 111.359L247.173 110.901L246.509 111.565L245.912 112.162H245.156L244.617 112.7H243.918L243.506 111.772L243.873 110.763V109.617L244.56 108.47V107.187L244.973 105.628V104.39V103.29L244.514 102.785V101.227L244.789 100.08V98.4294V97.1915L245.339 96.2749L244.697 95.6328L244.285 94.5781L244.514 93.1113L245.202 92.4235L244.468 90.9562L244.606 89.4431L245.385 87.8844L246.165 87.1048L246.898 85.8669L247.563 85.2017L248.595 84.1706H249.649L250.429 83.6661L250.154 83.391L249.787 82.7952L250.337 82.2906H250.887L251.529 81.6948L252.24 80.9839L251.942 79.998L252.905 80.365L253.5 79.7229L252.996 79.2189L252.767 78.3474L252.996 77.6597L253.592 77.0638L254.326 76.8806L254.968 76.101L256.251 75.5051V75.0925L257.123 74.9549L257.948 74.6336L258.292 74.9775L257.535 75.23L257.352 75.8259V76.4217C257.352 76.4217 257.971 76.6281 257.764 76.8344C257.558 77.0407 258.636 76.7887 258.636 76.7887L258.957 75.9178V74.9549L259.828 74.5885L259.965 73.9007L259.644 72.2958L261.02 72.067V70.829L261.753 70.5996L261.799 69.7286H261.112L260.722 70.1182L260.195 70.5996L259.599 70.6915L258.957 70.0494V69.2241L258.2 68.4676L257.948 66.6564V65.2809L257.123 63.9973L257.26 62.7132L256.435 62.163L256.389 60.146L256.893 59.5496L257.306 58.0365V57.3031H258.544L258.911 56.2027L258.544 55.1937L259.828 56.3859L260.195 57.165L260.653 57.6239L261.341 58.3116L261.341 57.165L262.166 57.5777L262.533 58.4948L262.854 57.4401L262.762 55.6977L262.303 54.5973V53.1305L261.73 52.5582L262.165 51.9404L262.578 51.986L262.67 51.3902H261.753L260.996 50.6337L260.194 49.8309L259.644 49.3269L259.919 48.593V47.6302L260.927 47.08L261.638 46.3697L261.937 46.6679L261.065 47.4926V48.5473L262.028 49.1432L262.67 49.9685L263.197 50.4961L263.77 50.7024H264.366L264.963 51.8485L265.513 52.3987V53.1783V53.8198L265.191 54.9202L265.238 55.8374L265.788 56.2957L266.338 57.9925L266.796 59.1385L267.209 60.5602L267.576 62.0732L268.447 63.2193L268.997 64.9161L269.227 66.3829L269.685 67.7584L269.341 68.1022L268.928 68.5149L269.364 69.2714L269.043 69.9591L268.653 70.3492V70.7388L269.502 70.922L270.281 72.0224L270.418 73.0771L271.06 73.7191V74.682L271.978 75.6448L273.307 76.9719C273.307 76.9719 273.697 77.866 273.904 78.0723L275.142 78.8976L276.425 79.5854L278.397 80.1817L279.314 80.365L280.139 80.9152L280.644 81.6029L282.385 82.5201L283.898 83.1616L285.503 83.8955L286.329 84.7208H287.246L287.91 85.3855L288.759 85.8212H290.088L290.593 86.509V85.5918L290.363 84.3539L289.905 82.4282L289.722 80.9608L288.85 80.1355L287.658 78.9438L286.879 78.6225L286.421 76.9719L286.787 76.1467V75.3214L287.796 75.1838V74.6336L286.466 74.3129L286.077 73.9228L285.274 73.6251L284.357 72.204L284.036 70.3696L284.495 69.3611L285.274 68.8566L285.824 68.4902L285.503 67.6649L284.586 66.9309L283.028 67.1147L282.363 66.4495L281.515 66.2432L280.552 64.6388L280.277 63.5384L281.194 63.2633L281.56 62.3919L280.666 61.4978H279.91L279.44 61.9679L278.259 61.7041L277.067 60.8788L276.838 59.8241L275.646 58.6324L275.325 59.3201L274.889 59.7553V60.1454L275.233 60.9245H273.949L273.193 60.168L271.932 59.5033L271.794 58.4948L271.611 57.2107L270.74 56.3397L270.098 55.6977L269.548 55.1475L268.86 54.0014L269.365 53.4969V52.3052H269.915L270.763 51.4568L269.915 51.0673V50.1958L269.41 48.8665L269.96 48.8203L270.603 49.4623L271.474 49.875V49.141L270.694 47.9493V47.2616L271.061 45.978L270.557 45.4735L271.52 44.098L272.116 42.7225L273.262 42.3561L274.087 42.7687L274.867 42.081L274.362 41.5764L273.583 40.7049L273.124 38.8712V37.5413L272.253 36.7623L271.795 35.3406L271.565 33.8738L271.107 32.7734L270.831 31.4892V29.8387L270.511 28.3718L269.731 27.1796L270.075 26.8357L268.998 26.1254L269.273 25.7128H270.236L270.831 24.4286L271.749 24.0622V23.0993L271.084 22.4342L270.74 21.632L270.006 22.1822L269.502 21.7695L268.906 21.8609L268.424 22.3423H267.622L267.393 22.778H266.567V22.136L265.559 22.1822L265.009 22.2735L264.321 22.2278L264.046 22.6862L263.473 23.2595L262.487 23.282L261.937 23.6947V24.5662L261.341 24.795L260.882 24.3373L261.616 23.4658H261.112L260.332 23.7865L260.653 23.0531L261.616 22.6405H262.303L263.037 21.4482L262.854 20.3941L262.487 19.0642L261.731 18.3077L261.02 17.5969L260.607 18.0095L260.562 17.1386H259.874L258.865 17.4137L258.246 16.7947V16.1757L257.444 16.0382L257.719 15.7631L258.131 15.5793L257.787 15.2355L257.856 14.8003L258.315 15.0754L258.819 15.488H259.69L260.286 15.0291L260.882 15.488L261.639 14.7315V13.5623L261.295 12.8746L262.075 11.728H262.946L263.633 12.0031L264.596 11.6823L265.101 10.5819L266.063 9.52722L267.118 9.43588L267.53 8.24362L266.751 8.01473V7.64776H267.714L267.393 6.91435V6.31795L266.889 6.96002L266.384 7.09757L265.788 6.1804L264.94 5.33255V5.81397L263.863 5.40132L263.358 5.90531L262.533 5.76776L263.588 5.08002V4.11718C263.588 4.11718 263.863 3.29189 263.588 3.56699C263.313 3.84209 262.625 3.84209 262.625 3.84209L263.129 2.78791L262.67 2.32906L262.075 1.82507C262.075 1.82507 262.285 1.01786 262.154 1.00032L262.154 1.0003ZM238.296 8.33601L237.978 8.66913L237.28 9.03342L236.712 9.60242L236.765 10.5803L236.522 10.8232L236.643 11.6119L237.098 12.2792L237.568 13.3716L238.296 13.5231L238.789 13.0298L239.161 12.355L238.752 11.9155L239.358 11.0354L239.252 10.0801V8.94262L238.661 8.47248L238.296 8.33601ZM200.031 31.3877L199.781 31.8454L200.052 32.1157L200.364 31.8454L200.031 31.3877ZM206.648 34.8828L205.733 35.2992L205.254 35.8606L204.734 36.3808H204.526L204.131 35.902L203.486 36.5468L203.049 36.9841L202.737 37.2963L202.113 37.0046L202.197 37.3377L202.405 37.6289L202.862 38.2946L203.757 38.6068L204.318 38.0453H205.067L205.816 37.7541L206.502 37.4414L206.94 37.0046V36.4227L207.314 35.3825L206.648 34.8828ZM201.198 38.0453L200.657 38.2119H199.325L198.888 38.6487L198.202 39.1269L197.703 38.6277L196.496 39.0022L196.579 39.7512L196.891 40.0634L197.349 40.5206L197.661 40.8328L197.203 41.2073L196.579 40.6668L196.247 40.9994L195.789 40.5416L194.749 40.7495L194.291 40.5002L194.083 41.0407L194.415 41.3739L193.791 41.707V42.4973L194.291 42.9965L194.166 43.5789H194.623L195.206 44.1619L195.039 44.8276L195.789 45.2016L196.787 45.2435L197.203 45.6593H197.952L198.826 45.41V44.7443L198.285 44.2446L198.576 43.9534L199.013 44.3902L199.783 42.9965L200.511 42.2685L200.823 42.5806L201.489 41.9149L201.697 41.2906L200.948 41.0407L200.449 41.5404L199.825 41.0826L199.075 40.6249L198.326 40.0838L198.576 39.5433L198.972 39.1478L199.284 40.2085L199.762 40.6872L200.573 40.8328L201.073 40.6249H201.489L201.905 40.209L201.697 39.3348H201.031L201.198 38.5858V38.0453ZM192.668 44.0781L193.105 44.5154L193.375 45.4928H193.916V44.9522L193.708 44.4945L193.333 44.12L192.668 44.0781ZM204.069 45.3262L203.548 45.8049L203.07 46.2837L202.592 46.7624L202.862 47.4072L203.32 47.8649L203.028 48.5306L203.278 48.7805L203.653 47.9896L204.61 47.7817L205.442 47.4485L206.565 46.7828L205.983 45.7012H205.192L204.069 45.3262ZM201.863 45.4933L201.364 45.5347L200.989 45.8678L201.281 46.6995L201.76 47.1783L202.155 46.4083V45.7845L201.863 45.4933ZM196.91 49.4043L196.66 49.6122L197.118 49.8202L197.7 50.2779L197.95 49.9448L197.7 49.5709L196.91 49.4043ZM272.832 53.809L272.356 54.0874V54.9599L272.277 55.753L272.753 56.0705L273.07 56.4671L273.11 57.1811L273.745 57.4191L273.586 56.7051L273.308 56.1501L273.586 55.2372V54.1266L272.832 53.809ZM291.676 56.07L291.161 56.1887L290.645 56.546L290.923 56.8233L291.299 56.4466L291.676 56.07ZM289.256 58.2127L288.502 58.5303L287.788 58.2525L287.232 58.4508L287.51 59.0455H288.462H289.414L290.01 58.4508L289.256 58.2127ZM173.361 60.5967L172.903 60.68L172.134 61.4499V61.9695H172.779L172.986 62.4692L173.528 62.2194L174.152 61.5956V60.5967H173.361ZM290.526 87.489L290.287 88.203L289.911 88.5797L290.347 89.016L290.605 89.5516L290.526 90.2657L290.486 91.178L290.902 91.5944L291.358 91.3365V90.3845L291.775 89.968L291.438 89.1551L290.883 88.5996L290.922 87.8855L290.526 87.489ZM292.231 93.677V94.2723L292.628 94.4706L292.906 94.1138L292.231 93.677ZM258.075 102.643V103.239L258.313 103.913L258.63 103.834L259.395 104.102L259.921 104.628V104.925L260.456 105.46L260.297 106.254L259.385 105.976V106.572L259.107 107.365L260.218 107.722L260.773 108.753L261.804 109.785V110.379L262.756 111.689L263.47 111.768L264.661 112.284L266.168 112.958L266.723 113.87L267.596 115.06L268.588 116.052L269.778 117.242L271.246 119.265L271.921 120.693L272.714 120.931L273.547 121.407L274.34 122.161L274.975 123.391L275.491 124.065L276.245 124.819L277.038 125.612V126.366L278.228 127.476L278.902 128.151L279.418 128.786L280.053 128.27L279.576 127.239L278.942 126.604L278.744 125.811L279.061 124.997H280.072L280.529 124.541C280.529 124.541 281.6 125.057 281.798 125.057C281.997 125.057 281.798 124.581 281.798 124.581L281.243 123.867L280.31 123.331L279.775 123.867L278.902 123.827L278.545 123.073H277.871L277.276 122.478H276.244L275.57 122.042L274.777 121.248L274.261 120.733C274.261 120.733 274.101 119.622 274.221 119.503C274.34 119.384 273.705 118.67 273.705 118.67L273.031 117.638V117.163L273.19 116.567L273.031 115.735H273.626L274.38 115.497L274.776 115.1L274.935 114.584L273.824 114.148L273.189 113.632L272.198 113.037L271.047 112.442L270.174 111.688L268.826 110.935L267.834 110.062L266.802 109.665L266.048 109.467L264.878 108.257L264.264 107.642L263.867 106.571L263.391 105.897H262.796L261.686 105.183L261.448 104.548L260.456 104.349L259.9 103.794L259.622 103.159L259.107 102.921L258.075 102.643ZM295.842 105.261L295.444 105.3V106.173V106.887H296L295.842 106.213V105.776V105.261ZM248.356 107.761L247.602 107.92L247.206 108.356V108.911V109.506L247.88 109.229L248.238 109.586L248.634 109.189L248.793 108.395L248.356 107.761ZM295.543 111.271L295.008 111.806L294.849 112.481L295.126 113.115L294.929 114.146L295.444 114.266L295.722 113.631L295.563 112.759L295.682 112.005L295.543 111.271ZM294.452 116.567L294.254 116.765L294.413 117.44L294.73 116.963L294.452 116.567ZM293.341 118.551L293.143 119.582L293.401 119.839L293.183 120.613L293.262 121.803L293.739 122.002L293.897 121.367L293.659 120.098L294.095 119.662L294.016 118.748L293.341 118.551ZM292.945 124.422L292.151 124.54L292.31 125.373L292.389 126.167L292.707 126.286V125.651L292.945 125.135V124.422ZM294.889 125.017V125.373L295.405 125.651V125.056L294.889 125.017Z" fill="#F0F0F0" stroke="#BCBCBC"/>
<path d="M61.3443 58.0357L61.459 57.1875L62.8574 55.7892H65.1957L65.9291 54.5053V52.0295L67.3964 51.2958L69.3221 50.333L70.6517 50.8375H71.4313L72.0731 51.4793L72.8604 50.9305L72.6689 51.8919L73.4483 51.8L74.5487 51.846V52.5797L74.7781 53.405L74.2736 53.0839L73.7465 52.5566L73.2651 53.038L73.4942 53.9092V54.7804L74.2738 55.1931L74.8697 55.7889V56.7518L75.5346 57.0728V58.1504L76.2911 58.9069L76.6578 60.1905V61.5203L76.4287 62.6663L76.7038 63.3084L76.7266 64.7067L77.5291 65.5092L77.4831 66.5177L77.2996 68.1683L76.4974 69.5668L75.2823 70.7817H73.9985L72.5773 71.0568L71.3394 70.5985L69.9867 69.8419L69.1386 68.9936V67.7556L68.2674 66.8847L67.8547 65.9218L67.5337 65.0047L66.9379 63.9962L66.6168 62.2996L65.975 62.0245L66.1813 60.9929L66.7084 60.4659L66.0666 59.8238L65.7687 60.6262L65.3329 61.0617L65.5164 62.0705L65.5393 63.2396L65.035 63.7439L65.6999 64.4088L65.5164 65.4176L64.8746 66.8387L63.7514 67.1826L62.8574 68.0767L62.5132 69.7044L61.6651 70.5525L62.3528 72.7076L61.6882 73.8768L62.6279 74.8168L63.6367 75.8253L64.783 75L65.0122 73.854L64.416 73.2578L64.5079 72.249V71.4697L65.2873 70.6444H66.0666L66.3417 72.7076L66.594 74.0603L67.3964 74.8624L67.9007 75.9172L69.2074 76.3067L69.5972 75.9172L69.2762 75.1375L70.0555 74.4957L70.1015 72.8911L71.5229 73.1203L72.8524 72.616L73.9528 73.2119L75.1907 72.8223H76.0388L76.5662 73.3494L77.3456 74.5417L76.7038 75.1835V76.1923L77.2768 75.4814L78.0792 74.6794L79.1796 74.4501L80.0965 73.1203V71.9742L80.4632 71.1946L81.6552 70.5987V69.8653L82.8015 69.1776V68.0313L82.618 66.9309H83.3974L83.6497 67.5039L84.6813 68.5355L85.4606 69.7278V71.3321L85.1855 72.1577L84.7729 72.5701L84.0851 71.8823L83.1223 71.6535L81.6552 72.1574V73.3497L82.0219 74.4501V75.3672L83.0764 75.6423L84.0851 76.1007L85.2315 75.5505V74.7252L86.4235 74.4501L87.5698 75.0003L87.3863 74.2669L89.1744 74.5876L90.1372 74.4044L91.8794 74.6333H92.8882L93.3925 75.5505H93.851V74.7252L95.3181 74.2669H96.098L96.4191 75.4586H95.5478L95.2727 76.2839L94.585 76.5133L95.6394 77.4761H96.3731L97.7486 76.8803L99.0553 77.1323L100.477 78.5537L100.958 78.0723H101.921L103.136 77.6825L103.618 78.1639L103.48 78.8059L102.746 79.3102V80.0896L103.618 80.8232L103.686 79.9751L104.076 79.5853L104.993 79.8145V79.081L105.864 78.9435L106.048 77.8431L105.91 76.5133L106.735 76.1007L107.446 75.8943L108.294 76.7427L108.661 76.3758L109.601 77.5449L110.678 78.6225L111.55 79.4937L111.763 79.9289L111.389 80.4791L110.942 80.9261L110.667 81.2012L111.114 81.6254L111.205 81.9693L111.549 82.084V82.7946V83.6427H111.114L110.907 84.1469L110.541 84.3304L110.403 85.1785L111.32 85.6369V86.233L110.472 86.5769L111.182 87.2874L110.082 87.8376L109.257 88.6629H108.386L108.065 89.6717H106.506L105.039 89.9927L103.572 90.818V91.8268L102.379 91.7809L101.497 91.9184L101.015 92.4686L100.156 92.9156L99.296 93.7753L98.5051 93.8785V93.1563L97.9205 92.95L97.2158 93.6548L96.27 94.6006L95.8573 95.3915L96.0293 96.3887L94.9289 97.0764L94.8257 97.9017L93.8973 98.4863L93.2783 99.6555L93.4502 100.446L93.072 101.168V101.787L91.9372 102.922L91.7826 103.73L91.3526 104.16L91.1119 104.814L89.5301 104.573L88.361 104.126L87.3293 103.576L86.2633 102.853H85.7819L85.5068 103.438L85.0427 103.593L84.7159 103.266L84.2518 103.111L83.7875 103.576L82.9622 103.266L82.2401 103.644L81.5867 102.991L80.5895 102.544L80.0049 102.75L79.5235 102.166L79.6267 101.581L79.3859 101.203L78.8014 100.997L78.3543 101.444L78.0278 101.117L77.701 101.444L76.7725 100.928L76.3428 101.77L76.8069 102.234V102.785L76.1065 103.061H75.3627L74.9404 103.484L74.2568 103.564L74.0356 103.061L73.6535 102.679L72.9297 103.363L72.407 102.84L71.5625 102.438L70.7581 102.639L70.4365 103.564L69.9136 104.207L69.592 103.886L69.8734 103.242L69.6723 102.518V101.835L69.1901 101.352V100.669L69.7931 100.065V99.4621L70.6778 99.2613V98.3364L71.2409 97.7733L71.1559 97.0764L70.7433 96.8701L70.9039 96.3659L70.4569 95.9188L70.2849 95.7469L70.0327 95.3343L69.6888 95.2196L69.1958 95.6435L68.1882 96.6514L67.5648 97.2745L66.6963 96.8886L66.2138 97.3309L67.219 98.3765L66.5758 98.6981V99.5427L66.274 99.8442L65.2083 98.8992L64.6455 99.784L63.64 99.5427L63.218 99.965L62.5946 99.0602L61.6698 98.5372L60.9055 98.1755L60.584 97.2907L59.6789 96.386L58.4927 96.1648L57.8897 94.8779L56.9648 95.3202L55.9593 94.8779L54.8334 95.1593L53.8282 95.6017L52.7421 94.5159V93.5508V92.7063L51.8777 91.8419L51.4354 92.2843L50.2893 91.5L49.8068 91.0175L48.9623 91.0978L48.3972 91.2007V90.2813L48.6343 89.5105L47.9821 89.3028L47.2407 89.4511L46.2919 89.0065L45.5208 88.71L44.8983 88.4131L44.5129 88.028L44.3943 88.4134H43.8012L43.3563 87.8794H42.7041L42.541 87.2123L42.1704 86.8418L41.6662 86.5898H41.0585L40.5691 87.0792H39.7983L39.4126 87.4646L38.7749 87.3903L38.2561 86.8715H37.2778L36.7439 86.5452L36.047 86.5898L35.6468 86.1895H34.8463L34.4309 85.7744L34.1555 85.1785L33.4449 85.7747L33.3761 86.3477L32.9635 86.7603L32.8719 87.7232L32.6196 88.2734L32.3445 88.7548H31.7027L31.4276 89.5341L30.8087 88.7776L30.029 88.8467V87.2874L29.2497 86.554L28.3785 86.3246L28.6536 85.6369L28.883 84.9035L28.2409 84.2614L27.8283 83.3448L27.9658 82.7027L28.8371 81.8317L29.3413 80.9146L29.1121 80.0893L29.8458 79.9061L30.9462 79.2183V78.2555L31.4045 77.7053L32.5508 77.6593L33.0551 77.0632L33.101 76.3755L34.0639 76.0088L34.8432 74.9543L35.8979 75L36.8148 74.4498L38.0528 74.7249L38.2363 74.0372L38.6489 73.6245L39.4283 73.9912L40.0701 74.679L41.0788 75L41.4455 75.8253L41.8125 76.7425L42.3627 76.1923L42.2708 74.8624L41.4455 74.1288V72.5701L42.1792 72.3866L42.4084 72.1574L41.3999 71.7448L40.8037 71.057H45.0012L51.0739 71.0111L52.9996 70.3234V69.1314L53.3206 66.1053H54.6045L55.7049 65.2341V64.0421L56.5301 63.7211V62.1621L57.2636 62.1164L58.8685 60.8326L59.6478 61.1993L61.3443 58.0357ZM64.1349 69.3759L63.9685 69.6254L64.2598 70.0001L64.6342 69.6254L64.1349 69.3759ZM102.914 69.9583H102.456L101.957 69.2095L101.666 69.3759L100.792 68.5438L100.126 67.8365L100.376 67.0874L101.042 66.8794L101.291 66.4635L100.833 66.0891L100.875 65.0902L100.584 65.0071L100.292 64.258L99.6685 64.2165L99.1692 63.5092L99.3356 62.5937L100.001 61.6785L100.792 61.7616L101.042 62.0529L101.333 62.1778L101.457 61.6367L102.415 61.3456L103.164 60.555L102.664 60.0141L103.33 59.5979L104.079 59.8892L104.287 59.2651V58.6409H105.244L105.702 59.0986L106.18 58.6202L106.284 58.1834L107.324 57.9751L106.971 57.6216L106.076 57.3094V56.9768L107.116 56.6852L108.198 56.3941L108.739 55.8533H109.446V55.354L110.445 55.3122L109.904 54.7714L110.778 54.7298L111.111 55.0627L111.069 54.2305L111.485 53.8143L111.027 53.2735L111.319 52.8157L111.818 53.315H112.442V52.6908L113.358 53.0237L113.815 52.5244L114.273 51.9835H114.856L115.854 51.526L116.562 51.7756H117.602L118.288 51.0889L119.1 51.1514L119.474 51.6925H120.348L120.764 52.1084L121.513 51.9002H122.553L123.24 51.2138L124.051 50.777L125.133 50.3607H126.131L126.714 51.2763V52.2749L125.84 53.0655L125.05 53.8143L124.01 53.8977L122.761 54.48L121.638 54.0641L121.097 54.6049L119.807 54.5634H118.143L117.518 55.2291H116.229L115.272 55.77L115.563 56.4357L114.897 56.6852L114.107 56.6021H113.399L113.316 57.0599L112.567 56.8516V57.6007L111.818 58.1416L111.194 58.5993V57.8921L110.695 58.3498L110.82 59.182H110.32L109.966 58.8282V59.2235V59.8477L109.602 59.4835L109.135 59.9514L108.739 60.347H108.198L107.782 60.8878L107.241 61.8031H106.367L105.66 62.3857V63.1764L104.953 63.4677L104.703 64.2999L104.12 64.8822V65.9227L103.829 66.6715L104.203 67.7531L103.871 68.8351L104.328 69.5426L104.536 70.2915L104.287 70.5412L103.58 70.8741V70.333L102.914 69.9583ZM129.419 29.059L129.075 29.1621L129.35 29.5404V29.8842H129.832V29.2309L129.419 29.059ZM129.316 31.9819L129.075 32.3601L128.181 32.532L127.597 32.8415L128.044 33.0479L127.837 33.5293L128.215 33.6324H128.972L129.574 33.0305L130.021 32.5835L129.866 31.9131L129.316 31.9819ZM126.462 31.3629L126.273 31.5519L126.634 31.9131L127.287 31.6724V31.1222H126.909L126.462 31.3629ZM125.963 32.4459L125.465 31.8787L125.086 32.2569L124.811 32.8071V33.4949L125.396 33.598L125.533 34.0107L126.255 33.8388L126.72 33.3744L127.064 33.0305L127.253 32.4633H126.737L125.963 32.4459ZM123.917 34.836L123.694 35.0594V35.4893H124.158L124.33 34.9391L123.917 34.836ZM122.954 33.0822L122.714 32.8415H121.957V33.3573L121.544 33.77L121.785 34.0107L122.61 33.8388L122.92 34.1482L123.642 33.9763L123.848 33.4949L124.364 33.6668L124.089 33.0479L123.625 32.5835L122.954 33.0822ZM126.771 27.3396L126.565 27.7523L126.926 28.1132L127.27 27.7693L126.771 27.3396ZM126.015 28.3024H125.465V28.9214L126.049 29.506V29.9874L126.565 29.7467L126.255 29.0933L126.015 28.3024ZM122.576 30.0906H122.095L121.991 30.1937L122.387 30.589L122.576 30.0906ZM122.989 30.8815L122.662 31.208L122.989 31.5692L123.367 31.5348L122.989 30.8815ZM123.298 29.3684V29.8155H123.78L123.676 29.2997L123.298 29.3684ZM123.969 30.4859V30.8815H124.364L124.055 30.572L123.969 30.4859ZM124.364 31.3973L124.536 31.5692L124.846 31.2597L124.364 31.3973ZM124.846 29.5748V30.0562L125.258 30.0906V29.5748H124.846ZM124.227 28.6119L124.467 29.059L124.691 28.8353L124.467 28.6119H124.227ZM119.791 31.5004L119.533 31.7582L119.98 32.2052L120.478 32.2226V31.3973L120.135 30.9502L119.791 31.5004ZM120.925 30.9502L121.097 31.4317H121.441V31.019L120.925 30.9502ZM119 28.1993L118.656 28.5432V28.9214L118.261 29.3167L117.556 28.8183L116.971 29.1277V29.5404L116.249 29.0246L115.699 29.2309L115.871 30.0562L116.386 29.8842V30.4344L116.937 30.572L117.435 30.0732L118.14 29.7811L118.725 29.953H119.584L120.203 29.3341L119.619 28.7495L120.014 28.3539L119.344 27.9586L119 28.1993ZM117.04 27.3396H116.283L115.836 26.8926L115.527 27.5115L115.922 27.9069L116.077 28.3712L116.971 28.0617L117.28 28.3712L117.865 28.1305L118.106 28.3712V27.8554L117.71 27.4598H117.349L117.04 27.3396ZM117.71 30.9673H117.418L117.521 31.3973L118.14 31.4317L117.71 30.9673ZM117.831 31.8787L117.521 32.1882L117.762 32.4289L118.346 32.5664L117.968 32.1882L117.831 31.8787ZM120.341 27.4428V27.8898H120.685L121.029 27.5459L120.341 27.4428ZM11.2422 71.4284L11.9558 71.5885L12.5673 71.4138L12.8003 70.9624L13.3535 71.0496L13.8707 71.5668L13.8925 72.2732L14.3147 72.4042L14.4022 72.9577L15.0575 73.074L15.203 72.5497L14.8465 72.1932L15.1521 71.8873L15.3488 72.084L15.9749 72.6078V73.3945L15.8875 74.079L16.2514 74.6759L16.6156 74.9232L16.7466 75.8118L16.4264 76.4814L14.8974 77.2533L12.5819 74.501L11.2422 71.4284ZM105.827 72.4133L105.161 72.7461L104.662 72.9126L104.787 73.9945L104.87 74.5772L105.328 74.7018L105.494 75.5755L106.368 75.6589L106.659 74.9516L106.243 74.2443L106.285 73.4537L105.827 72.4133ZM91.0973 68.7936L90.1821 69.0431L89.641 69.7506L89.225 70.2915L89.5161 71.0818L90.1821 71.3319L90.806 71.5811L91.3887 71.1652L92.0959 71.2898L92.4703 70.4163L91.888 69.6673L91.8461 69.0431L91.0973 68.7936Z" fill="#F0F0F0" stroke="#BCBCBC"/>
<path d="M31.3487 147.645L31.4114 146.857L31.187 146.268L30.686 146.095L30.3833 145.626L29.7518 145.177L29.7571 144.123L29.3657 143.554L29.2404 142.849L28.7446 142.348V141.806L28.3898 141.341L27.9253 140.866L27.5809 140.219L27.9044 139.603L27.607 138.784L27.1634 138.346L27.0277 137.772L26.5945 137.265L26.5058 136.597L25.984 136.384L25.1594 136.524L24.7993 136.159L24.5958 135.559L24.2096 135.689L23.7504 135.689L23.5521 135.095L23.0198 134.828L22.6962 134.473L22.1848 134.484L21.7934 134.891L21.1463 134.974L20.9114 134.594L20.5409 134.468L20.2121 134.865L20.2069 135.413L19.8311 135.966L20.1756 136.263L20.4469 136.811L20.0712 137.412L20.5148 137.86L19.7529 138.445L19.2728 138.575L19.4502 139.243L19.2206 139.723L18.5213 140.595L17.6237 140.59L17.2323 140L16.9713 139.447H16.5225L16.0633 139.906L15.4109 140.005L14.8525 140.564L15.0874 141.482L15.7867 142.547L16.0894 143.606L17.1122 144.305L17.7906 144.624L18.2029 145.704L18.9805 146.341L18.7926 147.259L19.4397 147.849L19.6224 149.315L20.2643 149.962L21.2767 150.098L21.8456 150.677L22.0021 151.152L22.7849 151.241L23.0145 152.071L23.6982 152.807L23.432 153.595L23.0093 154.273L23.6616 155.098L24.0165 156.047L24.0217 156.658L24.7628 157.154L24.8359 158.26L25.3473 159.768L25.483 160.64L26.4954 160.88L27.56 160.509L28.2802 160.833L29.3918 160.327L29.2978 158.855L29.4805 157.67L29.2039 156.115L29.1987 154.826L30.2111 153.172L30.6703 152.765V152.441L31.1974 151.919L31.6358 150.239L31.3592 149.362L30.8791 148.882L30.8738 148.136L31.3487 147.645Z" fill="#F0F0F0" stroke="#BCBCBC"/>
<path d="M5.74189 119.753L5.49213 119.534L5.1772 119.284L4.94524 119.115L4.73078 118.971L3.88003 118.95L3.38493 119.007L2.96653 118.765L2.5551 118.638L2.31801 118.489L1.95539 118.815L2.0042 119.269L2.35984 119.453L2.77127 119.581L3.00836 120.241L3.05718 120.751L2.93166 121.163L2.99442 121.73L2.82009 122.262L2.23432 122.553L1.9275 122.872L1.4812 122.922L1.14648 123.468L1.32779 124.135L1.49515 124.631L2.15762 125.071L2.88285 124.993L3.30822 124.773L3.94976 124.475L4.41698 124.603L5.01669 124.993L5.19443 125.325L5.35922 125.534L5.66531 125.813L6.36905 126.056L7.09528 126.068L7.91419 126.057L8.24863 126.748L8.43916 127.248L9.40095 127.869L10.3371 128.047L10.6688 127.508L11.4527 127.629L10.7052 126.873L10.6212 126.569L10.4844 126.338L10.34 126.183L9.50642 126.05L8.58988 125.548L7.93736 124.537L8.34412 123.934L8.53428 123.055L8.42596 122.256L8.31054 122.146L8.04952 121.951L8.00058 121.805L8.1994 120.936L7.734 120.47L7.71665 119.749L7.18052 119.661L7.09174 120.02L6.65042 119.98L6.07491 120.075L5.74189 119.753Z" fill="#F0F0F0" stroke="#BCBCBC" stroke-linecap="round"/>
<path fill-rule="evenodd" clip-rule="evenodd" d="M2.30505 118.317L2.61488 118.512L3.02376 118.639L3.41615 118.865L3.87572 118.812L4.77599 118.835L5.02589 119.002L5.26237 119.175L5.58211 119.429L5.83689 119.652L6.1226 119.928L6.64726 119.841L6.98838 119.873L7.07929 119.504L7.85324 119.633L7.87202 120.412L8.35227 120.892L8.14513 121.798L8.16809 121.867L8.40125 122.041L8.5576 122.19L8.67565 123.061L8.4748 123.99L8.104 124.539L8.68838 125.444L9.55347 125.919L10.41 126.055L10.597 126.255L10.7507 126.515L10.8301 126.802L11.8453 127.829L10.7399 127.658L10.4064 128.2L9.35072 128L8.32849 127.339L8.12405 126.802L7.83036 126.196L7.09692 126.206L6.34672 126.194L5.59548 125.934L5.26003 125.629L5.08071 125.401L4.91393 125.09L4.36182 124.73L3.96388 124.622L3.37062 124.897L2.92498 125.127L2.12477 125.214L1.38168 124.72L1.19797 124.175L1 123.447L1.40093 122.793L1.86465 122.741L2.15357 122.441L2.70915 122.165L2.85626 121.716L2.79366 121.15L2.91949 120.738L2.87491 120.271L2.66685 119.692L2.30922 119.582L1.87717 119.357L1.81294 118.76L2.30505 118.317ZM2.33462 118.661L2.1015 118.871L2.1349 119.181L2.41413 119.326L2.87935 119.47L3.14548 120.211L3.19853 120.766L3.07332 121.176L3.13624 121.745L2.93468 122.36L2.31874 122.666L1.994 123.004L1.56514 123.052L1.29663 123.49L1.46127 124.095L1.61229 124.543L2.19413 124.929L2.84437 124.859L3.24948 124.65L3.93931 124.33L4.4758 124.476L5.12311 124.897L5.31182 125.25L5.46208 125.441L5.73879 125.693L6.39505 125.919L7.09731 125.931L8.00168 125.919L8.37686 126.693L8.55349 127.157L9.45483 127.74L10.2715 127.894L10.6014 127.358L11.0638 127.43L10.584 126.945L10.4953 126.623L10.3755 126.421L10.2736 126.312L9.46303 126.183L8.49505 125.652L7.77438 124.536L8.21711 123.88L8.39656 123.05L8.29798 122.322L8.22349 122.251L7.93462 122.036L7.8597 121.812L8.05019 120.979L7.59965 120.529L7.58371 119.867L7.28541 119.817L7.19876 120.169L6.65724 120.119L6.03089 120.222L5.65054 119.854L5.40581 119.64L5.09569 119.394L4.86824 119.228L4.68923 119.108L3.88801 119.088L3.35736 119.149L2.91295 118.893L2.49898 118.764L2.33462 118.661Z" fill="#BCBCBC" stroke="#BCBCBC" stroke-linecap="round"/>
<path d="M14.858 140.565L14.3538 140.473L13.9871 140.015L13.5285 139.373L12.9324 139.465L12.5657 138.365L12.7032 136.256L12.5197 134.696L12.153 133.917L11.6944 133.23L11.786 131.854L11.2358 131.35L10.8691 130.616L11.1442 129.791L10.9151 128.874L11.4193 128.369L11.9695 128.278L12.7032 129.195L13.3909 129.424L13.712 128.736L14.4913 128.415L15.5458 128.369H16.096L16.7837 128.599L16.9213 127.453L16.5546 126.765L16.738 126.168L17.2882 126.26L17.7925 126.627L18.3427 127.131L18.7553 126.719L19.3971 126.994L20.4516 127.131L21.2309 127.453L21.4144 126.627L20.8642 126.215L20.0849 126.031L19.5803 125.527L19.0301 125.343L19.7179 124.61L20.7267 124.151L21.5979 124.518L22.3772 124.197L23.1109 124.977L24.2113 126.168L25.2198 125.16L25.9075 124.747L25.7243 123.738L26.3661 123.097L27.0079 123.189L26.9623 122.455L28.6585 122.226L28.9795 121.446L29.3462 120.988L29.6989 121.34V121.92H30.4931L30.813 122.367H31.4518L31.8672 121.951H33.0493L34.12 120.881L34.4553 119.779H35.7653L36.4041 119.204L37.0751 119.332L37.2349 119.843L37.9378 120.226H38.8643L38.8007 121.025L39.0882 122.111L40.1105 122.239L40.7176 122.559V123.102L41.6441 123.07L42.7305 124.124L42.8584 125.402L42.0276 126.201L42.6348 126.776L42.9701 126.441L43.6251 126.68L43.8168 127.607L44.2479 128.038H44.9029L45.0308 128.725L45.5898 129.284L45.6228 130.203L45.3018 130.937L44.7059 131.372H43.8119L43.101 132.083L42.5052 132.679V133.504L41.7256 133.826L40.9005 133.779L40.3044 134.376L39.5702 134.881L39.8681 135.775L40.533 136.44L40.2579 137.632L39.6618 138.228L40.2579 138.595L41.1292 139.42L41.6793 139.97L41.4502 141.162L41.7025 142.721V143.982L41.221 144.463L40.7624 143.959L40.0747 143.868L40.1663 144.693L40.5561 145.495L41.1292 146.068L40.6706 146.527L39.8912 146.619H39.2494H38.7452H38.3325C38.3325 146.619 37.7823 146.687 37.3469 146.687C36.9114 146.687 37.003 146.343 37.003 146.343L36.3152 146.16L35.9945 145.839L35.1692 145.701V146.342L34.5274 146.617L33.7478 147.534H32.8768L31.914 147.809L31.3522 147.66L31.4138 146.864L31.1893 146.284L30.6933 146.097L30.3879 145.623L29.7636 145.18L29.7566 144.116L29.3661 143.543L29.2554 142.857L28.7451 142.347L28.7473 141.809L28.3746 141.318L27.9264 140.869L27.5845 140.22L27.9086 139.598L27.609 138.782L27.1779 138.347L27.0423 137.794L26.5944 137.259L26.5086 136.594L25.9785 136.384L25.1636 136.531L24.8063 136.167L24.5997 135.56L24.2219 135.689L23.7459 135.69L23.557 135.095L23.035 134.836L22.6905 134.464L22.1809 134.487L21.8001 134.876L21.1437 134.967L20.9144 134.599L20.5411 134.478L20.2238 134.865L20.2176 135.423L19.8308 135.97L20.1825 136.255L20.4483 136.812L20.0789 137.409L20.5159 137.865L19.7456 138.445L19.2786 138.584L19.4579 139.234L19.2262 139.726L18.5016 140.599L17.6332 140.593L17.2441 140.007L16.9761 139.451L16.5311 139.444L16.0629 139.904L15.4139 140.004L14.858 140.565Z" fill="#F0F0F0" stroke="#BCBCBC"/>
<path fill-rule="evenodd" clip-rule="evenodd" d="M36.3609 119.055L37.1799 119.211L37.3477 119.748L37.9709 120.088H39.0113L38.9378 121.012L39.1955 121.986L40.1505 122.105L40.8533 122.475V122.959L41.696 122.93L42.8605 124.06L43 125.455L42.225 126.2L42.6303 126.584L42.933 126.281L43.7424 126.577L43.9413 127.538L44.303 127.9H45.0153L45.1564 128.657L45.7235 129.225L45.7595 130.229L45.4111 131.026L44.749 131.509H43.867L42.6408 132.735V133.596L41.7472 133.964L40.9524 133.92L40.3909 134.481L39.7315 134.935L39.9865 135.7L40.6823 136.396L40.3812 137.701L39.8803 138.202L40.3403 138.484L41.2246 139.322L41.8263 139.924L41.588 141.164L41.8381 142.709V144.038L41.2144 144.662L40.6926 144.088L40.2289 144.027L40.2985 144.654L40.6679 145.414L41.3218 146.068L40.7322 146.657L39.8974 146.756H38.339L38.3223 146.758C38.3061 146.76 38.2825 146.762 38.253 146.765C38.1938 146.772 38.1105 146.781 38.0134 146.789C37.8199 146.807 37.5688 146.824 37.345 146.824C37.2187 146.824 37.1159 146.799 37.0357 146.75C36.9536 146.7 36.9058 146.631 36.8806 146.562C36.8656 146.521 36.8589 146.481 36.8566 146.447L36.2422 146.283L35.9265 145.967L35.3049 145.863V146.433L34.6094 146.731L33.8095 147.671H32.8942L31.9135 147.951L31.2044 147.763L31.2723 146.884L31.0813 146.39L30.6004 146.209L30.2848 145.719L29.6247 145.251L29.6175 144.158L29.2333 143.595L29.1248 142.922L28.6054 142.403L28.6077 141.854L28.2688 141.408L27.8125 140.951L27.4274 140.22L27.7567 139.588L27.4883 138.857L27.0515 138.416L26.9145 137.858L26.4613 137.316L26.3806 136.692L25.9623 136.526L25.1145 136.679L24.6843 136.241L24.512 135.734L24.2431 135.826L23.6434 135.828L23.4417 135.192L22.9494 134.948L22.6311 134.604L22.2394 134.622L21.8636 135.005L21.0723 135.115L20.8223 134.714L20.5861 134.637L20.3589 134.915L20.3528 135.466L20.0155 135.943L20.2914 136.168L20.6029 136.82L20.25 137.39L20.7204 137.881L19.8067 138.569L19.4452 138.677L19.6022 139.246L19.3413 139.8L18.5639 140.737L17.5572 140.73L17.1224 140.075L16.8871 139.587L16.5845 139.582L16.1258 140.032L15.4779 140.133L14.9028 140.713L14.2766 140.599L13.8754 140.098L13.4639 139.521L12.8367 139.618L12.4248 138.382L12.5632 136.259L12.3838 134.734L12.031 133.985L11.5522 133.267L11.6425 131.91L11.1223 131.433L10.7188 130.626L10.9992 129.785L10.7609 128.831L11.3514 128.24L12.0246 128.128L12.7833 129.076L13.3163 129.254L13.6081 128.629L14.4594 128.279L15.5409 128.231H16.1164L16.6654 128.414L16.7776 127.479L16.4044 126.779L16.6401 126.012L17.341 126.13L17.8778 126.52L18.3366 126.94L18.722 126.555L19.4319 126.859L20.4854 126.997L21.1302 127.263L21.259 126.684L20.8028 126.341L20.0134 126.155L19.5042 125.647L18.7811 125.405L19.6343 124.495L20.7226 124.001L21.5966 124.368L22.4106 124.033L23.2101 124.883L24.2134 125.969L25.1326 125.05L25.7533 124.678L25.5742 123.691L26.3156 122.95L26.8583 123.028L26.8151 122.335L28.5596 122.1L28.858 121.375L29.3329 120.781L29.8346 121.283V121.782H30.5619L30.8819 122.229H31.393L31.8084 121.813H32.9905L33.9965 120.807L34.3515 119.641H35.7106L36.3609 119.055ZM36.4435 119.351L35.8163 119.916H34.5554L34.2397 120.953L33.1044 122.088H31.9223L31.5069 122.504H30.7405L30.4205 122.057H29.5595V121.397L29.3558 121.193L29.0973 121.516L28.7536 122.351L27.1056 122.573L27.1538 123.348L26.4128 123.242L25.8706 123.784L26.058 124.816L25.3032 125.269L24.2055 126.366L23.0089 125.071L23.008 125.07L22.3401 124.36L21.5954 124.666L20.7269 124.301L19.7977 124.723L19.2754 125.28L19.6527 125.406L20.1526 125.905L20.9219 126.087L21.566 126.57L21.3278 127.642L20.414 127.265L19.3586 127.127L18.7848 126.881L18.345 127.321L17.7034 126.733L17.2317 126.39L16.8322 126.323L16.701 126.75L17.0611 127.426L16.8983 128.782L16.0717 128.506H15.5469L14.5195 128.551L13.812 128.842L13.4618 129.593L12.6193 129.312L11.9106 128.426L11.4835 128.497L11.0655 128.915L11.2855 129.796L11.0158 130.605L11.3456 131.265L11.9258 131.797L11.8329 133.192L12.2712 133.849L12.6518 134.658L12.8394 136.252L12.7028 138.346L13.0243 139.311L13.5893 139.224L14.0949 139.932L14.4272 140.347L14.8095 140.417L15.3462 139.875L15.9962 139.774L16.4739 139.305L17.0613 139.315L17.362 139.938L17.7055 140.456L18.4355 140.461L19.1073 139.651L19.3099 139.221L19.1083 138.49L19.6808 138.32L20.3075 137.848L19.904 137.426L20.2899 136.803L20.0698 136.342L19.6424 135.995L20.0787 135.378L20.0849 134.815L20.4923 134.317L21.0027 134.483L21.2113 134.818L21.7328 134.745L22.1187 134.352L22.7461 134.323L23.1169 134.724L23.6686 134.997L23.8446 135.552L24.1969 135.551L24.6836 135.384L24.9246 136.093L25.2089 136.382L25.9908 136.241L26.6327 136.496L26.7238 137.201L27.1664 137.73L27.3005 138.276L27.7259 138.706L28.0568 139.608L27.7379 140.219L28.0366 140.786L28.4766 141.227L28.8832 141.762L28.881 142.289L29.3822 142.79L29.4951 143.49L29.892 144.072L29.8988 145.108L30.4873 145.526L30.7824 145.984L31.2935 146.176L31.5514 146.843L31.4963 147.556L31.9107 147.666L32.8557 147.396H33.6823L34.4417 146.503L35.0298 146.251V145.538L36.0587 145.71L36.3845 146.036L37.1694 146.246L37.1344 146.377C37.1345 146.377 37.1345 146.376 37.1344 146.377C37.1344 146.377 37.1344 146.377 37.1344 146.377C37.1343 146.377 37.1339 146.379 37.1335 146.382C37.1326 146.387 37.1315 146.394 37.1309 146.404C37.1298 146.425 37.1316 146.448 37.1389 146.468C37.1452 146.485 37.1561 146.502 37.1793 146.516C37.2045 146.531 37.2535 146.549 37.345 146.549C37.5566 146.549 37.7983 146.532 37.9888 146.515C38.0837 146.507 38.1651 146.498 38.2228 146.492C38.2516 146.489 38.2744 146.486 38.29 146.484L38.3077 146.482L38.3122 146.482L38.3133 146.482L38.3136 146.482L38.3221 146.48H39.8813L40.6052 146.395L40.9327 146.068L40.4406 145.575L40.0303 144.731L39.9167 143.708L40.8285 143.829L41.2239 144.264L41.563 143.925V142.732L41.3086 141.16L41.5286 140.015L41.0313 139.518L40.1718 138.704L39.4395 138.254L40.1309 137.562L40.38 136.483L39.746 135.849L39.4051 134.826L40.2142 134.269L40.8449 133.638L41.7002 133.686L42.3658 133.412V132.621L43.753 131.234H44.6592L45.1888 130.847L45.4824 130.176L45.4524 129.343L44.9015 128.792L44.7867 128.175H44.189L43.6886 127.675L43.504 126.783L43.0034 126.6L42.6355 126.968L41.8265 126.201L42.713 125.349L42.5967 124.187L41.5885 123.209L40.5782 123.244V122.641L40.0667 122.372L38.9771 122.236L38.6599 121.037L38.7135 120.363H37.9008L37.1183 119.937L36.9665 119.451L36.4435 119.351Z" fill="#BCBCBC"/>
<path d="M37.1344 146.377L37.1694 146.246L36.3845 146.036L36.0587 145.71L35.0298 145.538V146.251L34.4417 146.503L33.6823 147.396H32.8557L31.9107 147.666L31.4963 147.556L31.5514 146.843L31.2935 146.176L30.7824 145.984L30.4873 145.526L29.8988 145.108L29.892 144.072L29.4951 143.49L29.3822 142.79L28.881 142.289L28.8832 141.762L28.4766 141.227L28.0366 140.786L27.7379 140.219L28.0568 139.608L27.7259 138.706L27.3005 138.276L27.1664 137.73L26.7238 137.201L26.6327 136.496L25.9908 136.241L25.2089 136.382L24.9245 136.093L24.6836 135.384L24.1969 135.551L23.8446 135.552L23.6686 134.997L23.1169 134.724L22.7461 134.323L22.1187 134.352L21.7328 134.745L21.2113 134.818L21.0027 134.483L20.4923 134.317L20.0849 134.815L20.0787 135.378L19.6424 135.995L20.0698 136.342L20.2899 136.803L19.904 137.426L20.3075 137.848L19.6808 138.32L19.1083 138.49L19.3099 139.221L19.1073 139.651L18.4355 140.461L17.7055 140.456L17.362 139.938L17.0613 139.315L16.4739 139.305L15.9962 139.774L15.3462 139.875L14.8095 140.417L14.4272 140.347L14.0949 139.932L13.5893 139.224L13.0243 139.311L12.7028 138.346L12.8394 136.252L12.6518 134.658L12.2712 133.849L11.8329 133.192L11.9258 131.797L11.3456 131.265L11.0158 130.605L11.2855 129.796L11.0655 128.915L11.4835 128.497L11.9106 128.426L12.6193 129.312L13.4618 129.593L13.812 128.842L14.5195 128.551L15.5469 128.506H16.0717L16.8983 128.782L17.0611 127.426L16.701 126.75L16.8322 126.323L17.2317 126.39L17.7034 126.733L18.345 127.321L18.7848 126.881L19.3586 127.127L20.414 127.265L21.3278 127.642L21.566 126.57L20.9219 126.087L20.1526 125.905L19.6527 125.406L19.2754 125.28L19.7977 124.723L20.7269 124.301L21.5954 124.666L22.3401 124.36L23.008 125.07L23.0089 125.071L24.2055 126.366L25.3032 125.269L26.058 124.816L25.8706 123.784L26.4128 123.242L27.1538 123.348L27.1056 122.573L28.7536 122.351L29.0973 121.516L29.3558 121.193L29.5595 121.397V122.057H30.4205L30.7405 122.504H31.5069L31.9223 122.088H33.1044L34.2397 120.953L34.5554 119.916H35.8163L36.4435 119.351L36.9665 119.451L37.1183 119.937L37.9008 120.363H38.7135L38.6599 121.037L38.9771 122.236L40.0667 122.372L40.5782 122.641V123.244L41.5885 123.209L42.5967 124.187L42.713 125.349L41.8265 126.201L42.6355 126.968L43.0034 126.6L43.504 126.783L43.6886 127.675L44.189 128.175H44.7867L44.9015 128.792L45.4524 129.343L45.4824 130.176L45.1888 130.847L44.6592 131.234H43.753L42.3658 132.621V133.412L41.7002 133.686L40.8449 133.638L40.2142 134.269L39.4051 134.826L39.746 135.849L40.38 136.483L40.1309 137.562L39.4395 138.254L40.1718 138.704L41.0313 139.518L41.5286 140.015L41.3086 141.16L41.563 142.732V143.925L41.2239 144.264L40.8285 143.829L39.9167 143.708L40.0303 144.731L40.4406 145.575L40.9327 146.068L40.6052 146.395L39.8813 146.48H38.3221L38.3136 146.482L38.3133 146.482L38.3122 146.482L38.3077 146.482L38.29 146.484C38.2744 146.486 38.2516 146.489 38.2228 146.492C38.1651 146.498 38.0837 146.507 37.9888 146.515C37.7983 146.532 37.5566 146.549 37.345 146.549C37.2535 146.549 37.2045 146.531 37.1793 146.516C37.1561 146.502 37.1452 146.485 37.1389 146.468C37.1316 146.448 37.1298 146.425 37.1309 146.404C37.1315 146.394 37.1326 146.387 37.1335 146.382C37.1339 146.379 37.1343 146.377 37.1344 146.377ZM37.1344 146.377C37.1345 146.376 37.1345 146.377 37.1344 146.377ZM37.1344 146.377C37.1344 146.377 37.1344 146.377 37.1344 146.377ZM36.3609 119.055L37.1799 119.211L37.3477 119.748L37.9709 120.088H39.0113L38.9378 121.012L39.1955 121.986L40.1505 122.105L40.8533 122.475V122.959L41.696 122.93L42.8605 124.06L43 125.455L42.225 126.2L42.6303 126.584L42.933 126.281L43.7424 126.577L43.9413 127.538L44.303 127.9H45.0153L45.1564 128.657L45.7235 129.225L45.7595 130.229L45.4111 131.026L44.749 131.509H43.867L42.6408 132.735V133.596L41.7472 133.964L40.9524 133.92L40.3909 134.481L39.7315 134.935L39.9865 135.7L40.6823 136.396L40.3812 137.701L39.8803 138.202L40.3402 138.484L41.2246 139.322L41.8263 139.924L41.588 141.164L41.8381 142.709V144.038L41.2144 144.662L40.6926 144.088L40.2289 144.027L40.2985 144.654L40.6679 145.414L41.3218 146.068L40.7322 146.657L39.8974 146.756H38.339L38.3223 146.758C38.3061 146.76 38.2825 146.762 38.253 146.765C38.1938 146.772 38.1105 146.781 38.0134 146.789C37.8199 146.807 37.5688 146.824 37.345 146.824C37.2187 146.824 37.1159 146.799 37.0357 146.75C36.9536 146.7 36.9058 146.631 36.8806 146.562C36.8656 146.521 36.8589 146.481 36.8566 146.447L36.2422 146.283L35.9265 145.967L35.3049 145.863V146.433L34.6094 146.731L33.8095 147.671H32.8942L31.9135 147.951L31.2044 147.763L31.2723 146.884L31.0813 146.39L30.6004 146.209L30.2848 145.719L29.6247 145.251L29.6175 144.158L29.2333 143.595L29.1248 142.922L28.6054 142.403L28.6077 141.854L28.2688 141.408L27.8125 140.951L27.4274 140.22L27.7567 139.588L27.4883 138.857L27.0515 138.416L26.9145 137.858L26.4613 137.316L26.3806 136.692L25.9624 136.526L25.1145 136.679L24.6843 136.241L24.512 135.734L24.2431 135.826L23.6434 135.828L23.4417 135.192L22.9494 134.948L22.6311 134.604L22.2394 134.622L21.8636 135.005L21.0723 135.115L20.8223 134.714L20.5861 134.637L20.3589 134.915L20.3528 135.466L20.0155 135.943L20.2914 136.168L20.6029 136.82L20.25 137.39L20.7204 137.881L19.8067 138.569L19.4452 138.677L19.6022 139.246L19.3413 139.8L18.5639 140.737L17.5572 140.73L17.1224 140.075L16.8871 139.587L16.5845 139.582L16.1258 140.032L15.4779 140.133L14.9028 140.713L14.2766 140.599L13.8754 140.098L13.4639 139.521L12.8367 139.618L12.4248 138.382L12.5632 136.259L12.3838 134.734L12.031 133.985L11.5522 133.267L11.6425 131.91L11.1223 131.433L10.7188 130.626L10.9992 129.785L10.7609 128.831L11.3514 128.24L12.0246 128.128L12.7833 129.076L13.3163 129.254L13.6081 128.629L14.4594 128.279L15.5409 128.231H16.1164L16.6654 128.414L16.7776 127.479L16.4044 126.779L16.6401 126.012L17.341 126.13L17.8778 126.52L18.3366 126.94L18.722 126.555L19.4319 126.859L20.4854 126.997L21.1302 127.263L21.259 126.684L20.8028 126.341L20.0134 126.155L19.5042 125.647L18.7811 125.405L19.6343 124.495L20.7226 124.001L21.5966 124.368L22.4106 124.033L23.2101 124.883L24.2134 125.969L25.1326 125.05L25.7533 124.678L25.5742 123.691L26.3156 122.95L26.8583 123.028L26.8151 122.335L28.5596 122.1L28.858 121.375L29.3329 120.781L29.8346 121.283V121.782H30.5619L30.8819 122.229H31.393L31.8084 121.813H32.9905L33.9965 120.807L34.3515 119.641H35.7106L36.3609 119.055Z" stroke="#BCBCBC"/>
</svg>
