<svg id="Layer_1" xmlns="http://www.w3.org/2000/svg" viewBox="0 0 255.1 141.7"><style>.Arched_x0020_Green{fill:url(#SVGID_1_);stroke:#fff;stroke-width:.25;stroke-miterlimit:1}.st0{fill-rule:evenodd;clip-rule:evenodd;fill:#fff}</style><linearGradient id="SVGID_1_" gradientUnits="userSpaceOnUse" x1="-1231.884" y1="-620.299" x2="-1231.177" y2="-621.006"><stop offset="0" stop-color="#6bae5f"/><stop offset=".983" stop-color="#192a1a"/></linearGradient><path class="st0" d="M110.1 70.1c-.4-.1-.7-.3-1-.6-.3-.3-.5-.6-.7-.9-.2-.3-.2-.7-.2-1.1v-1.4h2.1v2.2h2.1v-1.9c0-.3-.1-.5-.3-.7-.2-.2-.5-.3-.8-.3-.4 0-.9-.1-1.2-.2-.4-.2-.7-.4-1-.6-.3-.3-.5-.5-.7-.9-.2-.3-.2-.7-.2-1.1v-1c0-.4.1-.7.2-1.1.2-.4.4-.7.7-.9.3-.3.6-.5 1-.6.4-.2.8-.2 1.2-.2.4 0 .9.1 1.3.2s.7.3 1 .6c.3.3.5.6.7.9.2.3.2.7.2 1.1v1h-2.1v-1.8h-2.1v1.8c0 .2.1.5.3.6.2.2.5.3.7.3.4 0 .9.1 1.2.2.4.2.7.4 1 .6.3.3.5.5.7.9.2.3.2.7.2 1.1v1c0 .4-.1.7-.2 1.1-.2.3-.4.6-.7.9-.3.3-.6.5-1 .6-.4.1-.8.2-1.3.2-.3.2-.7.1-1.1 0M123.4 60.7c-.2-.3-.4-.6-.7-.9-.3-.3-.6-.4-1-.6-.4-.1-.8-.2-1.2-.2h-3.2v13c0 .2.1.5.2.7.1.2.3.4.5.6.2.2.4.3.7.4.3.1.5.1.8.1v-3.7h1.1c.4 0 .8-.1 1.2-.2.4-.2.7-.4 1-.6.3-.3.5-.5.7-.9.2-.4.2-.7.2-1.1v-5.6c-.1-.3-.2-.7-.3-1zm-1.9 7.6h-2.1v-7.4h2.1v7.4zM132.8 60.7c-.2-.3-.4-.6-.7-.9-.3-.3-.6-.4-1-.6-.4-.1-.8-.2-1.2-.2h-1.1v-3.7h-2.1v14.9h3.2c.4 0 .8-.1 1.2-.2.4-.2.7-.4 1-.6.3-.3.5-.5.7-.9.2-.3.3-.7.3-1.1v-5.6c-.1-.4-.2-.8-.3-1.1zm-1.9 7.6h-2.2v-7.4h2.2v7.4zM140.3 59.2c.4.1.7.3 1 .6.3.3.5.6.7.9.2.3.2.7.2 1.1v8.4h-2.1v-9.3H138v9.3h-2.1V59h3.2c.5 0 .9.1 1.2.2M148.2 64.6h3.2v-2.9c0-.4-.1-.8-.2-1.1-.2-.4-.4-.6-.7-.9-.3-.2-.6-.4-1-.6-.4-.1-.8-.2-1.2-.2-.4 0-.9.1-1.2.2-.4.1-.7.3-1 .6-.3.3-.5.6-.7.9-.2.4-.2.7-.2 1.1v5.8c0 .4.1.7.2 1.1.2.3.4.6.7.9.3.3.6.5 1 .6.4.1.8.2 1.2.2.4 0 .9-.1 1.2-.2.4-.1.7-.3 1-.6.3-.3.5-.5.7-.9.2-.4.2-.7.2-1.1v-1h-2.1v1.9h-2.1v-3.8h1zm-1.1-3.7h2.1v1.8h-2.1v-1.8zM158.3 70.1c-.4.1-.8.2-1.2.2-.4 0-.8-.1-1.2-.2-.4-.1-.7-.3-1-.6-.3-.3-.5-.5-.7-.9-.2-.3-.3-.7-.3-1.1V59h2.2v9.3h2.1V59h2.1v9.3h2.2V59h2.1v11.1h-3.2c-.8 0-1.5-.2-2.1-.7-.3.4-.6.6-1 .7M168.9 70.1c-.4-.1-.7-.3-1-.6-.3-.3-.5-.6-.7-.9-.2-.3-.2-.7-.2-1.1v-1.4h2.1v2.2h2.1v-1.9c0-.3-.1-.5-.3-.7-.2-.2-.5-.3-.8-.3-.4 0-.9-.1-1.2-.2-.4-.2-.7-.4-1-.6-.3-.3-.5-.5-.7-.9-.2-.3-.2-.7-.2-1.1v-1c0-.4.1-.7.2-1.1.2-.4.4-.7.7-.9.3-.3.6-.5 1-.6.4-.2.8-.2 1.2-.2.4 0 .9.1 1.3.2s.7.3 1 .6c.3.3.5.6.7.9.2.3.2.7.2 1.1v1h-2.1v-1.8h-2.1v1.8c0 .2.1.5.3.6.2.2.5.3.7.3.4 0 .8.1 1.2.2.4.2.7.4 1 .6.3.3.5.5.7.9.2.3.2.7.2 1.1v1c0 .4-.1.7-.2 1.1-.2.3-.4.6-.7.9-.3.3-.6.5-1 .6-.4.1-.8.2-1.3.2-.3.2-.7.1-1.1 0"/><g><path class="st0" d="M101.5 46.3c-1.1 0-2 .9-2 2s.9 2 2 2 2-.9 2-2-.9-2-2-2zm0 3c-.5 0-1-.4-1-1 0-.5.4-1 1-1 .5 0 1 .4 1 1-.1.6-.5 1-1 1zM87.2 67.1l-4.4-4.4c.2-.3.3-.7.3-1 0-1.1-.9-2-2-2s-2 .9-2 2 .9 2 2 2h.4l4 4.1v2.6h1.8l-.1-3.3zm-6.1-4.6c-.5 0-1-.4-1-1 0-.5.4-1 1-1 .5 0 1 .4 1 1s-.5 1-1 1z"/><path class="st0" d="M91 64l-8-8.2c.1-.2.2-.5.2-.8 0-1.1-.9-2-2-2s-2 .9-2 2 .9 2 2 2c.2 0 .5 0 .7-.1l7.6 7.6v5.7h1.8L91 64zm-9.9-8.1c-.5 0-1-.4-1-1 0-.5.4-1 1-1 .5 0 1 .4 1 1s-.5 1-1 1z"/><path class="st0" d="M94.9 60.8l-11.8-12c0-.2.1-.3.1-.5 0-1.1-.9-2-2-2s-2 .9-2 2 .9 2 2 2c.3 0 .7-.1 1-.2l11.1 11.2v8.9h1.8l-.2-9.4zM81.1 49.3c-.5 0-1-.4-1-1 0-.5.4-1 1-1 .5 0 1 .4 1 1s-.5 1-1 1z"/><path class="st0" d="M98.6 58l-8.9-8.9c.1-.2.1-.5.1-.7 0-1.1-.9-2-2-2s-2 .9-2 2 .9 2 2 2c.3 0 .5-.1.8-.2l8.3 8.4v11.6h1.7V58zm-10.7-8.7c-.5 0-1-.4-1-1 0-.5.4-1 1-1 .5 0 1 .4 1 1s-.5 1-1 1z"/><path class="st0" d="M102.5 55.1l-6-6c.1-.2.1-.5.1-.7 0-1.1-.9-2-2-2s-2 .9-2 2 .9 2 2 2c.3 0 .5 0 .7-.1l5.4 5.4v14.6h1.7l.1-15.2zm-7-6.2l-.3.3c-.1.1-.3.1-.5.1-.5 0-1-.4-1-1 0-.5.4-1 1-1 .5 0 1 .4 1 1-.1.2-.1.4-.2.6zM81.1 66.2c-1.1 0-2 .9-2 2s.9 2 2 2 2-.9 2-2-.9-2-2-2zm0 3c-.5 0-1-.4-1-1 0-.5.4-1 1-1 .5 0 1 .4 1 1 0 .5-.5 1-1 1z"/></g></svg>