<svg id="Слой_1" data-name="Слой 1" xmlns="http://www.w3.org/2000/svg" viewBox="0 0 284.56 84.86"><defs><style>.cls-1{fill:#003c77}</style></defs><title>динамо</title><path class="cls-1" d="M129.52 100.07a33 33 0 0 0-8.23-20.27 41.13 41.13 0 0 0-19.69-12.37l-.3-.09.1-.25a17.83 17.83 0 0 0 1.49-6.84 13.48 13.48 0 0 0-1.89-7.11 6.44 6.44 0 0 0-5-3.24c-3.67 0-6.77 1.73-9.19 5.05a26.83 26.83 0 0 0-4.25 10.76v.19h-.23a35.33 35.33 0 0 0-18.17 7.89 27.28 27.28 0 0 0-8.86 13.42 16.87 16.87 0 0 0-.23 8.79 12.16 12.16 0 0 0 4.62 6.75 10.86 10.86 0 0 0 16.87-5.67l.28-1.13h-1.17a6.75 6.75 0 0 1-4.88-1.71c-1.37-1.34-2.05-3.4-2-6.14 0-7.44 5.05-13.88 12.78-16.41l.42-.14v.39a22 22 0 0 0 .13 2.28v.13c0 .35.08.69.11 1l.65 5.94-.17.09c-1.65.85-3.34 1.65-5.14 2.49h-.08l-1.64.78-.52.25.08 6.93 1.24-.58A47.67 47.67 0 0 0 83 87.56l.46-.32.05.5c.12 1.23.26 2.52.38 3.8a100.76 100.76 0 0 1-.85 25.71 20.71 20.71 0 0 1-2.29 6.91l-.12.23-.28-.1-2.45-.88c-3.71-1.36-7.22-2.64-10-2.71h-.47a9.66 9.66 0 0 0-4.74 1.21 5.62 5.62 0 0 0-2.83 4.09 6.31 6.31 0 0 0 1.53 5.37c1.87 2.11 5.26 3.42 8.87 3.42h1.08a20.72 20.72 0 0 0 2.83-.43 20.33 20.33 0 0 0 8.49-4.36l.17-.14.2.1c4.27 2.09 9.81 4.49 14.81 4.49h.52A31.59 31.59 0 0 0 121.17 124a33.91 33.91 0 0 0 8.35-23.93zM94.58 57.63a2.52 2.52 0 0 1 .71.1c1.86.53 2.29 2.7 1.68 8.29v.29l-.34-.06a49 49 0 0 0-8.15-.72H88l.12-.34c1.27-3.48 3.68-7.56 6.46-7.56zm-3.26 13.06c1.05.11 2.13.27 3.19.49l.4.08-.18.31a20.86 20.86 0 0 1-4.65 5.2 29.41 29.41 0 0 1-2.44 1.78l-.41.28-.09-.44a22.62 22.62 0 0 1-.46-4.28v-.63c0-.87.07-1.76.17-2.63v-.23h.26a24 24 0 0 1 4.21.07zm-4.59 55.18a61.6 61.6 0 0 0 8.81-15.19 165.79 165.79 0 0 0 6.33-18l.28-.93-.95-.2c-5.8-1.21-10-4-12.31-8.3l-.1-.17L89 83c1.14-1 2.27-2 3.36-3.13a50.44 50.44 0 0 0 6.13-7.37l.14-.21.25.09c11.21 4 17.17 14 16.8 28.21-.36 13.27-6.89 22.44-18.41 25.85a16.05 16.05 0 0 1-4.47.6 25.45 25.45 0 0 1-5.86-.75l-.43-.1zm-8.66 1.9a10.22 10.22 0 0 1-5.37 2.79 9.54 9.54 0 0 1-1.75.16h-.09l-.44-.08h-.08c-1.58-.24-3.29-.71-3.45-3.31v-.08c.33-1.12 1.08-2.28 4.11-2.41h.41c1.34 0 3.36.9 6.6 2.55l.33.17zM171.29 76.61a2.8 2.8 0 0 0-.26-.94 6.25 6.25 0 0 0-.71-1.25 5.71 5.71 0 0 0-1-1.09 1.59 1.59 0 0 0-1-.43h-25.81l1.61 5.93h2.6v30.91h-4.57v9.36l7.59 4.05V116h17.35v7.19l7.59-5v-8.43h-3.39zm-7.75 2.22v31h-9.15v-31z" transform="translate(-54.57 -49.9)"/><path class="cls-1" d="M172.96 41.24h-8.66V22.86h-7.66l-3.48 5.62h3.56v36.88h7.44V46.98h9.15v18.38h7.58v-42.5h-7.93v18.38z"/><path class="cls-1" d="M239.34 78.38H243l-.76 1.2v35.69h7.44V96.89h9.16v18.38h7.58V72.76h-23.61zm19.13.58v12.18h-8.65V79zM334.62 79l-.15-.45h2.14l2.51-5.6h-27.68l-.57.69v36.12h.63l-.6.19.07.26c0 .15.1.31.16.48l.1.31a6.49 6.49 0 0 0 .32.82c.12.25.2.42.25.5a6.79 6.79 0 0 0 .64.91l.82 1c.22.26.48.55.79.86l.18.19h19.51l1.1-.69V79.57c-.05-.11-.12-.31-.22-.57zm-7.2.12v30.34h-8.56V79.07z" transform="translate(-54.57 -49.9)"/><path class="cls-1" d="M234.76 44.66l-10-21.8h-6.19l-2.71 5.17h2.77v37.33h7.44v-21.9l8.69 18.32 8.69-18.32v21.9h7.43v-42.5h-6.13l-9.99 21.8zM133.31 45.11V22.99h-7.9l-3.48 5.61h3.54v36.76h6.33l10.36-21.84v21.84h7.41V22.99h-6.11l-10.15 22.12zM142.91 9.92h-1.45l-1.21 2.15-1.19-2.15h-1.46l1.94 3.26-2.07 3.42h1.46l1.32-2.32 1.34 2.32h1.46l-2.08-3.42 1.94-3.26z"/><path class="cls-1" d="M203.74 60.4a2.49 2.49 0 0 0-.81-.48 3.08 3.08 0 0 0-2 0 2.4 2.4 0 0 0-.8.47 2.08 2.08 0 0 0-.53.74 2.4 2.4 0 0 0-.18.94v2.17a2.42 2.42 0 0 0 .19 1 2 2 0 0 0 .53.73 2.44 2.44 0 0 0 .8.46 3 3 0 0 0 1 .16 2.91 2.91 0 0 0 1-.16 2.54 2.54 0 0 0 .8-.46 2.09 2.09 0 0 0 .55-.73 2.32 2.32 0 0 0 .2-1v-2.15a2.3 2.3 0 0 0-.19-.94 2.13 2.13 0 0 0-.56-.75zm-.54 1.79v2a1.48 1.48 0 0 1-.1.58 1.16 1.16 0 0 1-.27.37 1.18 1.18 0 0 1-.4.21 1.76 1.76 0 0 1-1 0 1 1 0 0 1-.39-.21 1 1 0 0 1-.26-.37 1.46 1.46 0 0 1-.1-.58v-2a1.45 1.45 0 0 1 .1-.57 1.06 1.06 0 0 1 .26-.38 1 1 0 0 1 .38-.22 1.73 1.73 0 0 1 .51-.07 1.67 1.67 0 0 1 .51.08 1 1 0 0 1 .39.22 1.12 1.12 0 0 1 .27.38 1.45 1.45 0 0 1 .1.56zM210.73 63.38a1.31 1.31 0 0 0-.35-.35 1.74 1.74 0 0 0 .25-.27 2.78 2.78 0 0 0 .41-.83l.64-2.09h-1.22l-.62 1.92a1.46 1.46 0 0 1-.21.44.81.81 0 0 1-.23.22.73.73 0 0 1-.26.1 1.4 1.4 0 0 1-.27 0h-.77v-2.7h-1.24v6.68h1.24v-2.84h.81a1.17 1.17 0 0 1 .31 0 .72.72 0 0 1 .26.11.8.8 0 0 1 .23.23 1.72 1.72 0 0 1 .19.45l.59 2h1.3l-.68-2.29a3.1 3.1 0 0 0-.38-.78zM217.76 63.38a1.32 1.32 0 0 0-.35-.35 1.32 1.32 0 0 0 .25-.27 2.58 2.58 0 0 0 .4-.83l.65-2.09h-1.23l-.62 1.92a1.57 1.57 0 0 1-.21.43.82.82 0 0 1-.24.23.7.7 0 0 1-.25.1h-1.05v-2.7h-1.25v6.68h1.25v-2.84h.82a1.18 1.18 0 0 1 .3 0 .74.74 0 0 1 .26.11.8.8 0 0 1 .22.23 1.66 1.66 0 0 1 .2.45l.59 2h1.3l-.68-2.29a3.22 3.22 0 0 0-.36-.78z" transform="translate(-54.57 -49.9)"/><path class="cls-1" d="M166.37 16.6h4.6v-1.16h-3.35v-1.6h2.86v-1.16h-2.86V11.1h3.35V9.92h-4.6v6.68zM174.97 13.55l-.48.77v-4.4h-1.24v6.68h1.1l2.25-3.5.6-.96v4.46h1.24V9.92h-1.12l-2.35 3.63z"/><path class="cls-1" d="M229.15 59.48a1.53 1.53 0 0 0 .47.34 1.67 1.67 0 0 0 .71.14 1.6 1.6 0 0 0 .71-.14 1.44 1.44 0 0 0 .45-.34 1.29 1.29 0 0 0 .26-.45 2.76 2.76 0 0 0 .09-.42v-.23h-1.08v.21a.33.33 0 0 1 0 .11.42.42 0 0 1-.08.12.49.49 0 0 1-.15.1.51.51 0 0 1-.38 0 .48.48 0 0 1-.14-.1.39.39 0 0 1-.09-.14.49.49 0 0 1 0-.13v-.17h-1v.21a1.66 1.66 0 0 0 .07.45 1.33 1.33 0 0 0 .16.44z" transform="translate(-54.57 -49.9)"/><path class="cls-1" d="M184.66 12.64h-2.53V9.92h-1.25v6.68h1.25v-2.79h2.53v2.79h1.26V9.92h-1.26v2.72zM193.47 9.92h1.25v6.68h-1.25z"/><path class="cls-1" d="M247.19 63.05a2.1 2.1 0 0 0-.63-.46 1.94 1.94 0 0 0-.84-.18h-1.53v-2.59h-1.25v6.68h2.8a2 2 0 0 0 .88-.18 1.85 1.85 0 0 0 .62-.48 2.09 2.09 0 0 0 .36-.67 2.28 2.28 0 0 0 .12-.73 2 2 0 0 0-.14-.74 2.37 2.37 0 0 0-.39-.65zm-3 .54h1.36a1.2 1.2 0 0 1 .39.06.76.76 0 0 1 .29.16.81.81 0 0 1 .2.27.88.88 0 0 1 .07.37.85.85 0 0 1-.25.65.92.92 0 0 1-.66.24h-1.39z" transform="translate(-54.57 -49.9)"/><path class="cls-1" d="M198.94 13.55l-.49.77v-4.4h-1.24v6.68h1.11l2.25-3.5.59-.95v4.45h1.25V9.92h-1.12l-2.35 3.63z"/><path class="cls-1" d="M253.11 59.48a1.39 1.39 0 0 0 .47.35 1.68 1.68 0 0 0 .71.14 1.58 1.58 0 0 0 .71-.14 1.43 1.43 0 0 0 .46-.34 1.25 1.25 0 0 0 .25-.45 2.08 2.08 0 0 0 .09-.43v-.22h-1.08v.21a.37.37 0 0 1 0 .11.39.39 0 0 1-.09.13.42.42 0 0 1-.14.09.51.51 0 0 1-.38 0 .59.59 0 0 1-.14-.1.36.36 0 0 1-.08-.13.27.27 0 0 1 0-.12v-.18h-1.05v.21a1.49 1.49 0 0 0 .08.45 1.32 1.32 0 0 0 .19.42zM267.32 63.38A1.23 1.23 0 0 0 267 63a1.44 1.44 0 0 0 .25-.27 2.88 2.88 0 0 0 .4-.83l.65-2.09H267l-.61 1.92a1.41 1.41 0 0 1-.21.44.83.83 0 0 1-.23.22.73.73 0 0 1-.26.1h-1.05v-2.7h-1.24v6.71h1.24v-2.84h.82a1.19 1.19 0 0 1 .3 0 .75.75 0 0 1 .27.11.78.78 0 0 1 .22.23 1.65 1.65 0 0 1 .2.45l.59 2h1.3l-.68-2.29a3.25 3.25 0 0 0-.34-.78zM271.21 62.72a8.86 8.86 0 0 1-.08 1.24 3.09 3.09 0 0 1-.22.79 1.59 1.59 0 0 1-.35.5 2.24 2.24 0 0 1-.51.35l-.18.09.54 1.07.17-.07a3 3 0 0 0 .8-.48 2.53 2.53 0 0 0 .6-.77 4.09 4.09 0 0 0 .35-1.12 8.94 8.94 0 0 0 .12-1.54V61h1.76v5.5h1.26v-6.68h-4.27zM280 63.38l-1.3-3.56h-1.31l1.96 5.18v.11c-.09.19-.16.25-.19.26a.55.55 0 0 1-.26.06h-.72v1.2h.82a1.47 1.47 0 0 0 .47-.07 1.13 1.13 0 0 0 .45-.28 2.26 2.26 0 0 0 .37-.49 4.44 4.44 0 0 0 .34-.75l2-5.16h-1.28zM289.12 63.71a1.93 1.93 0 0 0-1.88-1.3h-1.54V61h2.91v-1.18h-4.16v6.68h2.81a2 2 0 0 0 .88-.18 1.86 1.86 0 0 0 .62-.48 1.94 1.94 0 0 0 .36-.66 2.29 2.29 0 0 0 .12-.73 2.37 2.37 0 0 0-.12-.74zm-3.41-.12h1.36a1.29 1.29 0 0 1 .39.06.74.74 0 0 1 .28.16.72.72 0 0 1 .19.27 1 1 0 0 1-.18 1 .94.94 0 0 1-.67.24h-1.38zM180.21 129.39a2.33 2.33 0 0 1-.84.43 2.53 2.53 0 0 1-1.58 0 1.51 1.51 0 0 1-.54-.31 1.5 1.5 0 0 1-.39-.54 1.83 1.83 0 0 1-.16-.82v-2.81a2 2 0 0 1 .15-.83 1.53 1.53 0 0 1 .38-.53 1.65 1.65 0 0 1 .55-.31 2.53 2.53 0 0 1 1.59.05 2.34 2.34 0 0 1 .78.41l.26.22.93-1.46-.21-.17a3.63 3.63 0 0 0-1.25-.66 4.71 4.71 0 0 0-2.79 0 3.34 3.34 0 0 0-1.14.65 3.23 3.23 0 0 0-.79 1 3 3 0 0 0-.3 1.35v3.28a3.15 3.15 0 0 0 .29 1.37 3 3 0 0 0 .79 1 3.5 3.5 0 0 0 1.14.64 4.21 4.21 0 0 0 1.34.22 4.78 4.78 0 0 0 1.55-.25 4.16 4.16 0 0 0 1.17-.62l.21-.17-.89-1.45zM186.24 122l-3.34 9.59h1.9l.69-2h3.14l.71 2h1.91l-3.37-9.59zm1.8 5.86h-2l.58-1.74.39-1.25z" transform="translate(-54.57 -49.9)"/><path class="cls-1" d="M144 75.97h-3.61v-3.88h-1.81v9.59h1.81v-4H144v4h1.83v-9.59H144v3.88z"/><path class="cls-1" d="M208.63 127.08a2.06 2.06 0 0 0-.49-.5 2.09 2.09 0 0 0 .35-.38 3.92 3.92 0 0 0 .58-1.2l.93-3h-1.78l-.89 2.77a2.1 2.1 0 0 1-.3.61 1.21 1.21 0 0 1-.34.33 1.08 1.08 0 0 1-.35.14 2.55 2.55 0 0 1-.39 0h-1.09V122H203v9.59h1.81v-4.09H206a2.58 2.58 0 0 1 .43 0 1.34 1.34 0 0 1 .37.15 1.31 1.31 0 0 1 .33.34 2.63 2.63 0 0 1 .28.64l.85 2.9h1.88l-1-3.29a4.44 4.44 0 0 0-.51-1.16z" transform="translate(-54.57 -49.9)"/><path class="cls-1" d="M157.22 73.8h2.59v7.88h1.83V73.8h2.58v-1.71h-7v1.71zM166.3 77.1h4.36v1.58h-4.36zM173.25 81.68h1.8v-7.89h3.61v7.89h1.83v-9.59h-7.24v9.59zM183.2 81.68h6.6v-1.69H185v-2.27h4.11v-1.68H185v-2.25h4.8v-1.7h-6.6v9.59zM191.68 73.8h2.6v7.88h1.83V73.8h2.58v-1.71h-7.01v1.71zM200.89 81.68h6.6v-1.69h-4.8v-2.27h4.11v-1.68h-4.11v-2.25h4.8v-1.7h-6.6v9.59z"/><path class="cls-1" d="M270.62 123a2.67 2.67 0 0 0-.89-.71 2.78 2.78 0 0 0-1.27-.27h-4v9.59h1.81V128h2.22a2.57 2.57 0 0 0 1.21-.27 2.77 2.77 0 0 0 .89-.7 3 3 0 0 0 .55-.95 3 3 0 0 0 .2-1.06 3.34 3.34 0 0 0-.17-1.06 2.84 2.84 0 0 0-.55-.96zm-4.37.72h2a1.32 1.32 0 0 1 .94.34 1.24 1.24 0 0 1 .36.95 1.21 1.21 0 0 1-.36.94 1.31 1.31 0 0 1-.95.34h-2zM279.11 126.62a2.84 2.84 0 0 0-.91-.68 3 3 0 0 0-1.25-.25h-2.19v-2h4.17V122h-6v9.59h4a2.81 2.81 0 0 0 1.26-.27 2.56 2.56 0 0 0 .89-.69 2.84 2.84 0 0 0 .52-1 3.33 3.33 0 0 0 .17-1.06 3 3 0 0 0-.18-1 2.68 2.68 0 0 0-.48-.95zm-4.34.78h1.94a1.8 1.8 0 0 1 .56.09 1 1 0 0 1 .41.23 1 1 0 0 1 .27.37 1.21 1.21 0 0 1 .1.52 1.18 1.18 0 0 1-.36.93 1.31 1.31 0 0 1-.95.33h-2zM285.15 127.06l-1.86-5.06h-1.9l2.77 7.36-.05.16c-.12.25-.21.33-.28.37a.74.74 0 0 1-.36.09h-1.07v1.74h1.29a2.18 2.18 0 0 0 .69-.11 1.63 1.63 0 0 0 .64-.41 2.92 2.92 0 0 0 .53-.71 6.26 6.26 0 0 0 .48-1.08l2.83-7.41H287zM296.87 123a2.82 2.82 0 0 0-.89-.7 2.78 2.78 0 0 0-1.26-.27h-4v9.59h1.81V128h2.23a2.6 2.6 0 0 0 1.21-.27 2.78 2.78 0 0 0 .89-.7 3.14 3.14 0 0 0 .56-.95 3.11 3.11 0 0 0 .19-1.06 3.2 3.2 0 0 0-.17-1.05 2.93 2.93 0 0 0-.57-.97zm-4.38.73h2a1.29 1.29 0 0 1 .94.34 1.24 1.24 0 0 1 .36.95 1.19 1.19 0 0 1-.36.94 1.3 1.3 0 0 1-.95.34h-2z" transform="translate(-54.57 -49.9)"/><path class="cls-1" d="M245.23 72.09v9.59h1.81v-7.89h4.8v-1.7h-6.61z"/></svg>