<svg id="Слой_1" data-name="Слой 1" xmlns="http://www.w3.org/2000/svg" viewBox="0 0 188.17 92.59"><defs><style>.cls-1,.cls-2{fill:#007dc5;fill-rule:evenodd}.cls-2{fill:#fff}</style></defs><title>лого газпром экспорт</title><path class="cls-1" d="M78.48 29.43c-2-8.59-6.88-15.58-7.56-16.72a58 58 0 0 0-7 14.62 52.94 52.94 0 0 0-1.74 21.07 58.22 58.22 0 0 0 3.57 13.51A47.29 47.29 0 0 0 71 71.25a50.58 50.58 0 0 0 8.6-21.93c.85-6 .89-11.3-1.07-19.9zm-7.56 39.69a23.47 23.47 0 0 1-2.6-10.62A22.3 22.3 0 0 1 71 48a24 24 0 0 1 2.49 10 22.73 22.73 0 0 1-2.56 11.08zm7-25.1a47 47 0 0 1-1 8.81 54.59 54.59 0 0 0-1.04-12.53 54.39 54.39 0 0 0-5-13.52A54.07 54.07 0 0 0 66 40.27a63.35 63.35 0 0 0-1.14 12.67A62.76 62.76 0 0 1 64 40.66a54.2 54.2 0 0 1 1.79-11.13 59.79 59.79 0 0 1 5.1-12.23 54.71 54.71 0 0 1 5.17 12.05A53.64 53.64 0 0 1 77.91 44z" transform="translate(-27.29 -12.7)"/><path class="cls-1" d="M74.25 73.26H59.33v10A9 9 0 0 1 72.1 96h-.05a18 18 0 1 1-12.72-30.69V41.23a32 32 0 1 0 23.38 53.92V73.26z" transform="translate(-27.29 -12.7)"/><path class="cls-1" d="M59.4 28.34h11.8v3.97h-5.61v28.07H59.4V28.34z"/><path class="cls-1" d="M105.47 61l1.06-16h.35l1.06 16zm-6.84 12h6l.57-8.51h2.92l.57 8.51h6.05l-3.22-32h-9.72l-3.22 32zm25.02-11.14v6a1 1 0 0 0 1 1.06 1 1 0 0 0 1-1.06v-7.42c0-1-.18-2.1-2.48-2.1h-2.57v-3.53h2.6c1.77 0 2.39-.42 2.39-2.38v-6.37a1 1 0 0 0-1-1 1 1 0 0 0-1 1v5.23h-6.18v-4.53c0-2.24.27-5.72 4.59-5.72h5.13c4.33 0 4.6 3.48 4.6 5.72v5.13c0 3.48-2.34 4.44-4.2 4.34v.32c4.15-.1 4.2 3.2 4.2 4.35v6.45c0 2.24-.26 5.73-4.6 5.73H122c-4.33 0-4.59-3.48-4.59-5.73v-5.49z" transform="translate(-27.29 -12.7)"/><path class="cls-1" d="M108.55 28.34h14.31v32.04h-6.18V32.31h-1.94v28.07h-6.19V28.34z"/><path class="cls-1" d="M160.4 58.66V45h.79c.67 0 1.15.59 1.15 1.6v10.46c0 1-.48 1.59-1.15 1.59zm-6.18 14.42h6.18v-10.9h3.53c4.33 0 4.6-3.48 4.6-5.73v-9.7c0-2.24-.27-5.72-4.6-5.72h-9.71v32zm26.5-5.19a1 1 0 0 1-1 1.06 1 1 0 0 1-1-1.06V46.06a1 1 0 0 1 1-1 1 1 0 0 1 1 1v21.83zm-8.13-.54c0 2.24.26 5.73 4.59 5.73h5.12c4.33 0 4.59-3.48 4.59-5.73V46.76c0-2.24-.27-5.72-4.59-5.72h-5.12c-4.33 0-4.59 3.48-4.59 5.72v20.6z" transform="translate(-27.29 -12.7)"/><path class="cls-1" d="M179.76 28.34h8.04v32.04h-6.19v-20.1h-.22l-3.18 20.1h-4.95l-3.18-20.1h-.22v20.1h-6.18V28.34h8.03l4.02 22.52 4.03-22.52zm8.41 42.09H59.24v22.08h128.93V70.43z"/><path class="cls-2" d="M92.52 91.6V91c0-2.23 1.41-3.79 4.13-3.79s4.15 1.58 4.15 3.79v5.78c0 3.16-1.43 4.54-4.11 4.54s-4.17-1.28-4.17-4.43v-.66h2.57v.94c0 1.33.32 2.08 1.56 2.08 1 0 1.52-.83 1.52-2.16v-2.31H96v-2.07h2.16V91.6c0-1.41-.28-2.29-1.52-2.29s-1.56.89-1.56 2.29z" transform="translate(-27.29 -12.7)"/><path class="cls-2" d="M85.75 80.67l3.12-5.88h2.91l-3.44 5.88 3.55 7.67h-2.87l-2.26-5.4-1.01 1.33v4.07h-2.57V74.79h2.57v5.88z"/><path class="cls-2" d="M133.75 91.9v-.3c0-1.71-.43-2.29-1.52-2.29s-1.56.58-1.56 2.29V97c0 1.77.45 2.35 1.54 2.35s1.54-.6 1.54-2.35v-.73h2.57v.58c0 2.46-.88 4.56-4.09 4.56-3.38 0-4.19-2.12-4.19-4.52V91.9c0-3.17 1.42-4.66 4.22-4.66 2.63 0 4.05 1.48 4.05 4v.68z" transform="translate(-27.29 -12.7)"/><path class="cls-2" d="M127.25 74.79v13.55h-2.58V76.86h-3.39v11.48h-2.58V74.79h8.55z"/><path class="cls-2" d="M168.62 87.25c2.61 0 4.36 1.18 4.36 4.64v4.91c0 3.45-1.75 4.56-4.36 4.56s-4.41-1.14-4.41-4.56v-4.92c0-3.42 1.84-4.64 4.41-4.64zm-1.78 4.34v5.54c0 1.41.56 2.18 1.78 2.18s1.73-.75 1.73-2.18v-5.5c0-1.45-.62-2.31-1.73-2.31s-1.78.83-1.78 2.27zm18.37 9.41h-2.57V87.49h4.86c2.2 0 3.57 1.78 3.57 4s-1.41 4.07-3.61 4.07h-2.25V101zm0-7.53h1.3a1.77 1.77 0 0 0 1.93-2 1.75 1.75 0 0 0-1.93-2h-1.3v4z" transform="translate(-27.29 -12.7)"/><path class="cls-2" d="M178.62 88.34h-2.58V76.86h-3.19v-2.07h8.96v2.07h-3.19v11.48z"/></svg>