<svg xmlns="http://www.w3.org/2000/svg" viewBox="0 0 100 125" fill="#006da2"><title>groups</title><circle cx="10.6" cy="16.3" r="2.5"/><path d="M12.4 19.5H8.8c-1.4 0-2.5 1.1-2.6 2.5v5.2c0 1.2.9 2.3 2.1 2.5v5.6c0 1 .8 1.9 1.9 1.9h.8c1 0 1.9-.8 1.9-1.9v-5.7c1.2-.2 2.1-1.3 2.1-2.5v-5.2c0-1.2-1.2-2.4-2.6-2.4z"/><circle cx="25" cy="16.3" r="2.5"/><path d="M26.8 19.5h-3.6c-1.4 0-2.5 1.1-2.5 2.5v5.2c0 1.2.9 2.3 2.1 2.5v5.6c0 1 .8 1.9 1.9 1.9h.8c1 0 1.9-.8 1.9-1.9v-5.7c1.2-.2 2.1-1.3 2.1-2.5v-5.2c-.2-1.2-1.3-2.4-2.7-2.4z"/><circle cx="39.3" cy="16.3" r="2.5"/><path d="M41.1 19.5h-3.6c-1.4 0-2.5 1.1-2.5 2.5v5.2c0 1.2.9 2.3 2.1 2.5v5.6c0 1 .8 1.9 1.9 1.9h.8c1 0 1.9-.8 1.9-1.9v-5.7c1.2-.2 2.1-1.3 2.1-2.5v-5.2c-.2-1.2-1.3-2.4-2.7-2.4z"/><circle cx="53.6" cy="16.3" r="2.5"/><path d="M55.4 19.5h-3.6c-1.4 0-2.5 1.1-2.5 2.5v5.2c0 1.2.9 2.3 2.1 2.5v5.6c0 1 .8 1.9 1.9 1.9h.7c1 0 1.9-.8 1.9-1.9v-5.7c1.2-.2 2.1-1.3 2.1-2.5v-5.2c0-1.2-1.2-2.4-2.6-2.4z"/><circle cx="67.9" cy="16.3" r="2.5"/><path d="M69.8 19.5h-3.6c-1.4 0-2.5 1.1-2.5 2.5v5.2c0 1.2.9 2.3 2.1 2.5v5.6c0 1 .8 1.9 1.9 1.9h.8c1 0 1.9-.8 1.9-1.9v-5.7c1.2-.2 2.1-1.3 2.1-2.5v-5.2c-.2-1.2-1.3-2.4-2.7-2.4z"/><circle cx="82.3" cy="16.3" r="2.5"/><path d="M84.1 19.5h-3.6c-1.4 0-2.6 1.1-2.6 2.5v5.2c0 1.2.9 2.3 2.1 2.5v5.6c0 1 .8 1.9 1.9 1.9h.8c1 0 1.9-.8 1.9-1.9v-5.7c1.2-.2 2.1-1.3 2.1-2.5v-5.2c-.1-1.2-1.2-2.4-2.6-2.4z"/><circle cx="17.7" cy="32.7" r="2.5"/><path d="M19.5 36h-3.6c-1.4 0-2.6 1.1-2.6 2.5v5.2c0 1.2.9 2.3 2.1 2.5v5.6c0 1 .8 1.9 1.9 1.9h.8c1 0 1.9-.9 1.9-1.9v-5.6c1.2-.2 2.1-1.3 2.1-2.5v-5.2c-.1-1.4-1.2-2.5-2.6-2.5z"/><circle cx="32" cy="32.7" r="2.5"/><path d="M33.8 36h-3.6c-1.4 0-2.5 1.1-2.5 2.5v5.2c0 1.2.9 2.3 2.1 2.5v5.6c0 1 .8 1.9 1.9 1.9h.8c1 0 1.9-.8 1.9-1.9v-5.7c1.2-.2 2.1-1.3 2.1-2.5v-5.2c-.1-1.3-1.3-2.4-2.7-2.4z"/><circle cx="46.4" cy="32.7" r="2.5"/><path d="M48.2 36h-3.6c-1.4 0-2.6 1.1-2.6 2.5v5.2c0 1.2.9 2.3 2.1 2.5v5.6c0 1 .8 1.9 1.9 1.9h.9c1 0 1.9-.8 1.9-1.9v-5.6c1.2-.2 2.1-1.3 2.1-2.5v-5.2c-.2-1.4-1.3-2.5-2.7-2.5z"/><circle cx="60.7" cy="32.7" r="2.5"/><path d="M62.5 36h-3.6c-1.4 0-2.5 1.1-2.5 2.5v5.2c0 1.2.9 2.3 2.1 2.5v5.6c0 1 .8 1.9 1.9 1.9h.8c1 0 1.9-.9 1.9-1.9v-5.6c1.2-.2 2.1-1.3 2.1-2.5v-5.2c-.2-1.4-1.3-2.5-2.7-2.5z"/><circle cx="75.1" cy="32.7" r="2.5"/><path d="M76.8 36h-3.6c-1.4 0-2.6 1.1-2.6 2.5v5.2c0 1.2.9 2.3 2.1 2.5v5.6c0 1 .8 1.9 1.9 1.9h.8c1 0 1.9-.8 1.9-1.9v-5.7c1.2-.2 2.1-1.3 2.1-2.5v-5.2c0-1.3-1.2-2.4-2.6-2.4z"/><circle cx="89.4" cy="32.7" r="2.5"/><path d="M91.2 36h-3.6c-1.4 0-2.6 1.1-2.6 2.5v5.2c0 1.2.9 2.3 2.1 2.5v5.6c0 1 .8 1.9 1.9 1.9h.9c1 0 1.9-.8 1.9-1.9v-5.6c1.2-.2 2.1-1.3 2.1-2.5v-5.2c-.2-1.4-1.3-2.5-2.7-2.5z"/><circle cx="10.6" cy="48.8" r="2.5"/><path d="M12.4 52H8.8c-1.4 0-2.5 1.1-2.6 2.5v5.2c0 1.2.9 2.3 2.1 2.5v5.6c0 1 .8 1.9 1.9 1.9h.8c1 0 1.9-.8 1.9-1.9v-5.6C14.1 62 15 61 15 59.7v-5.2c0-1.4-1.2-2.5-2.6-2.5z"/><circle cx="25" cy="48.8" r="2.5"/><path d="M26.8 52h-3.6c-1.4 0-2.5 1.1-2.5 2.5v5.2c0 1.2.9 2.3 2.1 2.5v5.6c0 1 .8 1.9 1.9 1.9h.8c1 0 1.9-.8 1.9-1.9v-5.6c1.2-.2 2.1-1.3 2.1-2.5v-5.2c-.2-1.4-1.3-2.5-2.7-2.5z"/><circle cx="39.3" cy="48.8" r="2.5"/><path d="M41.1 52h-3.6c-1.4 0-2.5 1.1-2.5 2.5v5.2c0 1.2.9 2.3 2.1 2.5v5.6c0 1 .8 1.9 1.9 1.9h.8c1 0 1.9-.8 1.9-1.9v-5.6c1.2-.2 2.1-1.3 2.1-2.5v-5.2c-.2-1.4-1.3-2.5-2.7-2.5z"/><circle cx="53.6" cy="48.8" r="2.5"/><path d="M55.4 52h-3.6c-1.4 0-2.5 1.1-2.5 2.5v5.2c0 1.2.9 2.3 2.1 2.5v5.6c0 1 .8 1.9 1.9 1.9h.7c1 0 1.9-.8 1.9-1.9v-5.6C57.1 62 58 61 58 59.7v-5.2c0-1.4-1.2-2.5-2.6-2.5z"/><circle cx="67.9" cy="48.8" r="2.5"/><path d="M69.8 52h-3.6c-1.4 0-2.5 1.1-2.5 2.5v5.2c0 1.2.9 2.3 2.1 2.5v5.6c0 1 .8 1.9 1.9 1.9h.8c1 0 1.9-.8 1.9-1.9v-5.6c1.2-.2 2.1-1.3 2.1-2.5v-5.2c-.2-1.4-1.3-2.5-2.7-2.5z"/><circle cx="82.3" cy="48.8" r="2.5"/><path d="M84.1 52h-3.6c-1.4 0-2.6 1.1-2.6 2.5v5.2c0 1.2.9 2.3 2.1 2.5v5.6c0 1 .8 1.9 1.9 1.9h.8c1 0 1.9-.8 1.9-1.9v-5.6c1.2-.2 2.1-1.3 2.1-2.5v-5.2c-.1-1.4-1.2-2.5-2.6-2.5z"/><circle cx="17.7" cy="65.2" r="2.5"/><path d="M19.5 68.5h-3.6c-1.4 0-2.6 1.1-2.6 2.6v5.2c0 1.2.9 2.3 2.1 2.5v5.6c0 1 .8 1.9 1.9 1.9h.8c1 0 1.9-.8 1.9-1.9v-5.7c1.2-.2 2.1-1.3 2.1-2.5V71c0-1.4-1.2-2.5-2.6-2.5z"/><circle cx="32" cy="65.2" r="2.5"/><path d="M33.8 68.5h-3.6c-1.4 0-2.5 1.1-2.5 2.6v5.2c0 1.2.9 2.3 2.1 2.5v5.6c0 1 .8 1.9 1.9 1.9h.8c1 0 1.9-.8 1.9-1.9v-5.7c1.2-.2 2.1-1.3 2.1-2.5V71c-.1-1.4-1.2-2.5-2.7-2.5.1 0 .1 0 0 0z"/><circle cx="46.4" cy="65.2" r="2.5"/><path d="M48.2 68.5h-3.6c-1.4 0-2.6 1.1-2.6 2.5v5.2c0 1.2.9 2.3 2.1 2.5v5.6c0 1 .8 1.9 1.9 1.9h.9c1 0 1.9-.8 1.9-1.9v-5.7c1.2-.2 2.1-1.3 2.1-2.5V71c-.2-1.4-1.3-2.5-2.7-2.5z"/><circle cx="60.7" cy="65.2" r="2.5"/><path d="M62.5 68.5h-3.6c-1.4 0-2.6 1.1-2.6 2.5v5.2c0 1.2.9 2.3 2.1 2.5v5.6c0 1 .8 1.9 1.9 1.9h.8c1 0 1.9-.8 1.9-1.9v-5.7c1.2-.2 2.1-1.3 2.1-2.5V71c0-1.4-1.2-2.5-2.6-2.5z"/><circle cx="75.1" cy="65.2" r="2.5"/><path d="M76.8 68.5h-3.6c-1.4 0-2.6 1.1-2.6 2.5v5.2c0 1.2.9 2.3 2.1 2.5v5.6c0 1 .8 1.9 1.9 1.9h.8c1 0 1.9-.8 1.9-1.9v-5.7c1.2-.2 2.1-1.3 2.1-2.5V71c0-1.4-1.1-2.5-2.6-2.5z"/><circle cx="89.4" cy="65.2" r="2.5"/><path d="M91.2 68.5h-3.6c-1.4 0-2.6 1.1-2.6 2.5v5.2c0 1.2.9 2.3 2.1 2.5v5.6c0 1 .8 1.9 1.9 1.9h.9c1 0 1.9-.8 1.9-1.9v-5.7c1.2-.2 2.1-1.3 2.1-2.5V71c-.2-1.4-1.3-2.5-2.7-2.5z"/></svg>