<svg id="Слой_1" xmlns="http://www.w3.org/2000/svg" xmlns:xlink="http://www.w3.org/1999/xlink" viewBox="0 0 100 125"><style>.st0{display:none}.st1{display:inline}.st2{enable-background:new}.st3{fill:none;stroke:#fff;stroke-miterlimit:10}.st3,.st4,.st5{display:inline}.st4{fill:none}.st5{stroke:#fff;stroke-miterlimit:10}.st6,.st7{display:none;fill:#fff}.st7{display:inline;stroke:#000;stroke-width:.5;stroke-miterlimit:10}.st8{clip-path:url(#SVGID_2_)}.st9{stroke:#fff;stroke-width:.5;stroke-linecap:round;stroke-linejoin:round;stroke-miterlimit:10}.st10,.st9{fill:#fff}</style><path class="st6" d="M94.9 61c0 12-20.3 22.1-45.1 22.1S4.8 73 4.8 61l.1-24c0-11 20.1-18.2 44.9-18.2 24.9 0 44.9 7.2 44.9 18.2l.2 24zM6.7 36.2c.5.5 1.3 1.1 2.3 1.9.5.3 1.1.7 1.8 1.1.7.4 1.4.7 2.2 1.2.8.4 1.6.8 2.6 1.1.9.3 1.9.7 2.9 1.1 2 .7 4.3 1.3 6.7 1.9 2.4.6 5 1 7.6 1.4 2.7.3 5.4.7 8.2.8a123.53 123.53 0 0 0 17.2 0c2.8-.1 5.6-.5 8.3-.8 2.7-.4 5.2-.8 7.6-1.4 2.4-.5 4.7-1.2 6.7-1.9 1-.3 2-.7 2.9-1.1.9-.4 1.8-.8 2.5-1.2.8-.4 1.5-.8 2.2-1.2.6-.4 1.2-.8 1.8-1.1 1-.8 1.8-1.4 2.2-1.9l.7-.7s-.3.2-.8.6c-.3.2-.6.5-1 .7-.4.3-.9.6-1.4.9-.5.3-1.2.6-1.8 1-.7.3-1.4.6-2.2 1-.8.3-1.7.6-2.6.9-.9.3-1.9.6-2.9.9-2 .5-4.3 1.1-6.7 1.5-2.4.5-4.9.8-7.6 1.1-2.6.3-5.4.5-8.1.6-2.8.2-5.6.2-8.4.2-5.7 0-11.3-.3-16.6-.9-2.6-.3-5.2-.7-7.6-1.1l-1.8-.3c-.6-.1-1.1-.3-1.7-.4-1.1-.2-2.2-.5-3.2-.8-1-.3-2-.6-2.9-.9-.9-.3-1.8-.6-2.6-.9-.8-.3-1.5-.6-2.2-1-.7-.3-1.3-.7-1.8-.9-1-.5-1.9-1-2.5-1.4-.4-.5-.7-.7-.7-.7l.7.7z"/><g class="st0"><path class="st7" d="M21 9L9 21M22 10L10 22M23 11L11 23M24 12L12 24M25 13L13 25M26 14L14 26M20 8L8 20M19 7L7 19M18 6L6 18M17 5L5 17M16 4L4 16"/></g><path class="st6" d="M7 41h86v27H7z"/><g class="st0 st1"><defs><path id="SVGID_1_" d="M6.4 38v25.2C21.2 89.7 83.2 83.7 93 64c0-9.9-.1-15.2-.1-25.7C74.2 52.3 26 52.8 6.4 38z"/></defs><use xlink:href="#SVGID_1_" overflow="visible" fill="#fff"/><clipPath id="SVGID_2_"><use xlink:href="#SVGID_1_" overflow="visible"/></clipPath><g class="st8"><path class="st9" d="M78.5 41.3h-.6c-.3 0-.7.4-.9.6l-1.5 1.2-3 2.4c-2.1 1.7-4.3 3.3-6.4 5-4.1 3.3-8.2 6.6-12.2 10.1-4 3.4-8 6.9-11.9 10.5-1.9 1.7-3.8 3.5-5.7 5.2-.9.9-1.9 1.8-2.8 2.6-.5.4-.9.9-1.4 1.3-.4.4-1 0-1.4.4M74.6 41.6c-2.1.5-3.8 2.2-5.5 3.5-2.1 1.5-4.1 3.1-6.2 4.6-4.2 3.2-8.4 6.4-12.4 9.8-8 6.7-15.5 13.9-23.2 20.9M70.5 41.7c-4.2 2.3-8.2 5.2-12.1 8.1-4 2.9-7.9 6-11.8 9.1-7.9 6.5-15.3 13.6-22.8 20.5M81.3 41c-3.6 3.4-7.4 6.4-11.2 9.5-3.9 3.2-7.7 6.6-11.6 9.9-7.9 6.6-15.3 13.8-22.9 20.7M65.8 42.2C57.4 47.1 49.5 52.9 41.9 59c-3.9 3.2-7.6 6.5-11.4 9.9-3.6 3.2-6.7 6.8-10.5 9.9M84.4 40.5c-2.9 3.6-6.7 6.6-10.1 9.6-3.8 3.3-7.6 6.7-11.3 10-7.9 6.9-15.5 14.1-23.1 21.2M87.5 39.9c-6.4 7.7-14 14.4-21.3 21.1-3.9 3.6-7.7 7.2-11.6 10.8-1.9 1.8-3.9 3.6-5.8 5.4-1 .9-1.9 1.8-2.9 2.7-.6.6-1.5 1.9-2.5 1.7M93.2 38.2c-1.5 4.3-4 8.1-6.6 11.8-2.9 4-6.1 7.8-9.5 11.4-3.4 3.6-6.8 7.2-10.2 10.7-1.7 1.7-3.5 3.4-5.3 5.1-.8.8-1.5 1.6-2.2 2.4-.6.6-1.9 1.4-1.9 2.2M62.3 42.2c-.9 0-1.6.4-2.3.9-.9.6-1.9 1.2-2.9 1.7-2.1 1.3-4.2 2.6-6.3 4-4.1 2.7-7.9 5.7-11.7 8.7C31.3 63.9 24 70.9 17 78.1M57.8 42.3c-1.9-.1-3.5 1.5-5 2.4-2 1.1-4 2.3-5.9 3.6-4 2.6-7.8 5.6-11.5 8.6-7.7 6.2-14.6 13.2-21.3 20.4"/><path class="st9" d="M91.7 38.5c-.6 2.1-2 4-3.3 5.8-1.4 2-2.9 3.9-4.4 5.7-3.2 3.8-6.6 7.3-10.1 10.8-3.7 3.7-7.3 7.4-11 11.1-1.8 1.8-3.6 3.7-5.5 5.4-.9.8-1.8 1.6-2.6 2.5-.8.8-1.4 1.8-2.6 1.8"/><path class="st9" d="M89.5 39.6c-1 2-2.5 3.8-4 5.5-1.6 1.8-3.2 3.7-4.9 5.5-3.5 3.7-7.2 7.1-10.9 10.7L58.6 72.1c-1.8 1.8-3.7 3.5-5.5 5.3-.9.9-1.9 1.8-2.8 2.6-.5.4-.9.9-1.4 1.3-.4.3-.8.2-1.2.3M94.1 37.6c-1.5 8.7-7.5 16.2-13.1 22.8-3.1 3.7-6.3 7.2-9.6 10.7-1.7 1.8-3.4 3.5-5 5.3-.9.9-1.8 1.9-2.6 2.8-.4.5-.9.9-1.3 1.4-.4.5-.7.5-1.3.6M53.1 42.5c-.9 0-1.7.4-2.4.8-.9.6-1.9 1.1-2.8 1.6-2 1.2-4 2.3-6 3.6-4 2.6-7.8 5.7-11.5 8.7-3.7 3-7.2 6.3-10.6 9.7-1.6 1.6-3 3.4-4.6 5.1-1.3 1.4-3.3 2.8-3.6 4.8"/><path class="st9" d="M94 39.9c.4.8 0 1.5-.2 2.3-.3 1-.5 2-.9 3-.7 1.9-1.5 3.7-2.5 5.4-2.1 3.7-4.5 7.3-7.1 10.7-2.6 3.4-5.3 6.7-8.2 9.9-3 3.3-6.1 6.5-9 9.8M48.7 42.5c-4 1.2-7.7 3.7-11.2 6-3.8 2.5-7.3 5.2-10.7 8.1-3.3 2.8-6.5 5.8-9.5 9-1.5 1.6-2.9 3.3-4.3 5-.7.8-1.4 1.7-2.1 2.5-.6.7-1.6 1.5-1.5 2.5"/><path class="st9" d="M44.3 42.5c-1.8 0-3.4 1.3-4.9 2.1-1.9 1-3.7 2.1-5.5 3.3-3.5 2.3-6.8 4.8-9.9 7.6-3.1 2.8-6.2 5.7-8.9 8.9-1.4 1.6-2.8 3.3-4 5.1-.6.9-1.2 1.7-1.8 2.6-.3.4-.6.7-.9 1.1-.4.4-.4.8-.5 1.3"/><path class="st9" d="M39.6 42.5c-1.7.1-3.1 1.2-4.5 2-1.7.9-3.4 1.9-5 3-3.1 2.1-6.1 4.4-8.9 6.9-2.8 2.6-5.5 5.4-7.9 8.3-2.5 3-5.3 6.4-6.7 10.2M93.8 44.6c-.4 3.5-2.2 6.8-3.8 9.9-1.7 3.1-3.6 6.1-5.7 8.9C80 69.3 75 74.7 70.2 80.3"/><path class="st9" d="M35.1 42.3c-3.4.9-6.4 3.1-9.2 5-2.9 2-5.6 4.2-8.2 6.6-2.5 2.4-4.8 5.2-6.9 8-1 1.4-2 2.9-2.9 4.4-.4.7-.8 1.5-1.1 2.2-.4.8-.4 1.7-.9 2.4M93.8 47.7c-.1 3-1.7 6-3 8.7-1.4 2.8-3 5.6-4.8 8.2-3.5 5.4-7.6 10.5-11.9 15.3"/><path class="st9" d="M31 42.2c-3 .8-5.7 2.6-8.2 4.4-2.6 1.9-5.1 4-7.3 6.3-4.3 4.5-8.5 9.5-9.6 15.7M93.8 50.7c-.3 2.7-1.4 5.3-2.5 7.8s-2.4 4.9-3.8 7.2c-2.9 4.8-6.4 9-9.6 13.5"/><path class="st9" d="M26.9 42c-2.6.5-4.9 2.3-7 3.8-2.2 1.6-4.3 3.4-6.1 5.4-1.9 2-3.6 4.2-5 6.6-.8 1.2-1.5 2.5-2 3.8-.5 1.2-1.2 2.9-.7 4.2M93.8 53.7c-.3 4.6-2.8 9.1-4.9 13.1-2.2 4.1-4.9 7.9-7.6 11.7"/><path class="st9" d="M23 41.7c-2.3.6-4.2 2.1-6 3.5-1.7 1.4-3.4 2.9-4.8 4.5-1.5 1.6-2.8 3.4-3.8 5.3-1.1 2-2.5 4.5-2.4 6.8M93.8 57.1c-.5 3.7-2.1 7.4-3.7 10.8-1.7 3.5-3.7 6.7-5.7 10"/><path class="st9" d="M19.5 41.4c-3.4 1.2-6.4 4.1-8.7 6.9-1.2 1.4-2.2 2.9-3 4.5-.4.8-.8 1.5-1.1 2.4-.3.8-.8 1.8-.8 2.8M93.8 60.4c-.5 3-1.5 5.9-2.7 8.7-1.1 2.7-2.3 5.5-4.1 7.9"/><path class="st9" d="M15.7 41.1c-2.4 1.5-4.5 3.5-6.2 5.8C7.9 49.1 6 52.2 6 55M12.7 40.8c-1.8 1.3-3.3 2.9-4.5 4.8-1.1 1.8-2.3 4.1-2.3 6.3M93.8 63.5c-.4 4.4-2.5 8.7-4.3 12.6M10.5 40.2c-2.3 1.9-4.6 5.3-4.6 8.4M93.8 66.5c-.1 3-1.5 5.9-2.4 8.8M8.3 39.8c-1.1 1.8-2.3 3.5-2.4 5.8M7.1 38.5c-.4 1.3-1.2 2.5-1.2 4M93.8 70.2c-.1 1.4-.6 2.6-.9 4M94 71.2c.2.4.1.9.1 1.4M94 58.2c.3.4.1.9.1 1.4M94 55.1c.3.4.1.9.1 1.4M94 68c.3.4.1.8.1 1.2M94 61.3c.3.4.1.8.1 1.2M94 64.7c.3.4.1.8.1 1.2M94 42.9c.3.3.1.7.1 1.1M94 52.1c.3.3.1.7.1 1.1M94 46c.3.3.1.7.1 1.1M94 49c.3.3.1.7.1 1.1"/></g></g><path class="st10" d="M94.9 61c0 12-20.3 22.1-45.1 22.1S4.8 73 4.8 61l.1-24c0-11 20.1-18.2 44.9-18.2 24.9 0 44.9 7.2 44.9 18.2l.2 24zM6.7 36.2c.5.5 1.3 1.1 2.3 1.9.5.3 1.1.7 1.8 1.1.7.4 1.4.7 2.2 1.2.8.4 1.6.8 2.6 1.1.9.3 1.9.7 2.9 1.1 2 .7 4.3 1.3 6.7 1.9 2.4.6 5 1 7.6 1.4 2.7.3 5.4.7 8.2.8a123.53 123.53 0 0 0 17.2 0c2.8-.1 5.6-.5 8.3-.8 2.7-.4 5.2-.8 7.6-1.4 2.4-.5 4.7-1.2 6.7-1.9 1-.3 2-.7 2.9-1.1.9-.4 1.8-.8 2.5-1.2.8-.4 1.5-.8 2.2-1.2.6-.4 1.2-.8 1.8-1.1 1-.8 1.8-1.4 2.2-1.9l.7-.7s-.3.2-.8.6c-.3.2-.6.5-1 .7-.4.3-.9.6-1.4.9-.5.3-1.2.6-1.8 1-.7.3-1.4.6-2.2 1-.8.3-1.7.6-2.6.9-.9.3-1.9.6-2.9.9-2 .5-4.3 1.1-6.7 1.5-2.4.5-4.9.8-7.6 1.1-2.6.3-5.4.5-8.1.6-2.8.2-5.6.2-8.4.2-5.7 0-11.3-.3-16.6-.9-2.6-.3-5.2-.7-7.6-1.1l-1.8-.3c-.6-.1-1.1-.3-1.7-.4-1.1-.2-2.2-.5-3.2-.8-1-.3-2-.6-2.9-.9-.9-.3-1.8-.6-2.6-.9-.8-.3-1.5-.6-2.2-1-.7-.3-1.3-.7-1.8-.9-1-.5-1.9-1-2.5-1.4-.4-.5-.7-.7-.7-.7l.7.7zm47 24.1c-3.8 3.2-7.7 6.6-11.9 10.5l-1.1 1c-1.5 1.4-3.1 2.8-4.6 4.3-.9.9-1.9 1.8-2.8 2.7l-.7.7c.2 0 .4.1.6.1l.5-.5c.9-.9 1.9-1.8 2.8-2.6 1.5-1.4 3.1-2.8 4.6-4.3l1.1-1c4.2-3.9 8.1-7.3 11.9-10.5 4.7-4 8.6-7.2 12.2-10.1 1.5-1.2 3.1-2.4 4.6-3.6-.4.1-.7.1-1.1.2l-3.9 3c-3.6 2.9-7.5 6.1-12.2 10.1zm-3.3-1c-5.5 4.6-10.8 9.5-16 14.2-1.8 1.7-3.6 3.3-5.5 5 .2.1.4.1.6.2 1.8-1.6 3.5-3.2 5.3-4.8 5.2-4.7 10.5-9.6 16-14.2 3.6-3 7.5-6.1 12.4-9.8.9-.7 1.8-1.3 2.7-2-.3 0-.7.1-1 .1-.7.5-1.3 1-2 1.5-5 3.7-8.9 6.8-12.5 9.8zm-3.9-.6C40.2 63.9 34.1 69.5 28.2 75c-.9.9-1.8 1.7-2.8 2.6.2.1.4.1.5.2.9-.8 1.7-1.6 2.6-2.4 5.8-5.4 11.9-11.1 18.2-16.2 3.2-2.6 7.4-5.9 11.8-9.1.5-.4 1.1-.8 1.6-1.2.2-.1.3-.2.5-.3-.3 0-.7.1-1 .1-.5.3-.9.7-1.4 1-4.4 3.1-8.6 6.4-11.7 9zm23.4-8.4c-2.6 2.2-5.3 4.4-7.8 6.6-1.3 1.1-2.5 2.2-3.8 3.3-5.2 4.4-10.2 9.1-15.1 13.6-2.2 2.1-4.6 4.2-6.9 6.3.2 0 .4.1.6.1l6.6-6c4.9-4.5 9.9-9.2 15.1-13.6 1.3-1.1 2.5-2.2 3.8-3.3 2.5-2.2 5.2-4.4 7.8-6.6.8-.7 1.6-1.3 2.4-2l3.6-3c-.4.1-.7.2-1.1.3-.9.8-1.9 1.5-2.8 2.3-.8.7-1.6 1.4-2.4 2zM30.4 68.7c-1.5 1.3-2.9 2.7-4.3 4.1-1.2 1.2-2.4 2.4-3.6 3.5.2.1.3.1.5.2 1.2-1.1 2.3-2.3 3.5-3.4 1.4-1.4 2.8-2.8 4.3-4.1 4-3.6 7.5-6.8 11.4-9.9 4.8-3.9 9.4-7.3 13.8-10.4h-.9c-4.2 2.9-8.6 6.2-13.2 10-4 3.2-7.6 6.5-11.5 10zM74.1 50c-2.7 2.4-5.5 4.8-8.2 7.2-1 .9-2.1 1.9-3.1 2.8-5 4.4-10 9-14.8 13.5-2.5 2.4-5.2 4.8-7.8 7.2.2 0 .4 0 .7.1 2.5-2.3 5-4.6 7.4-6.9 4.8-4.4 9.8-9 14.7-13.4 1-.9 2.1-1.9 3.1-2.8 2.7-2.4 5.4-4.8 8.2-7.2.5-.5 1.1-.9 1.6-1.4 1.8-1.5 3.6-3.1 5.3-4.7-.4.1-.7.3-1.1.4-1.5 1.4-3 2.7-4.5 4-.4.2-1 .7-1.5 1.2zm-4.9 7.9c-1.1 1-2.1 1.9-3.2 2.9-3.1 2.9-6.3 5.8-9.3 8.7l-2.3 2.2c-1.9 1.8-3.9 3.6-5.8 5.4-1 .9-1.9 1.8-2.9 2.7l-.4.4-.7.7h.7l.4-.4c.1-.2.3-.3.4-.4 1-.9 1.9-1.8 2.9-2.7 1.9-1.8 3.9-3.6 5.8-5.4l2.3-2.2c3-2.8 6.2-5.8 9.3-8.7 1.1-1 2.1-2 3.2-2.9 5.5-5 11.1-10.1 16.1-15.8-.4.2-.7.3-1.1.5-4.9 5.4-10.2 10.3-15.4 15zm7.7 3.3l-.4.5c-3.2 3.4-6.5 6.9-9.8 10.2-1 1-2 2-3 2.9-.7.7-1.5 1.4-2.2 2.1-.5.5-1 1-1.4 1.5-.3.3-.5.6-.8.9l-.6.6c-.2.2-.4.3-.6.5.3 0 .6-.1.9-.1l.1-.1c.3-.2.5-.4.7-.6.3-.3.5-.6.8-.9.4-.5.9-1 1.4-1.5.7-.7 1.5-1.4 2.2-2.1 1-.9 2-1.9 3-2.9 3.3-3.4 6.6-6.9 9.8-10.3l.4-.5C80.7 57.9 84 54 86.9 50 89 47.2 91 43.7 93 39.8v-1.4c-2 4.4-4.2 8.3-6.6 11.5-2.9 4-6.2 7.8-9.5 11.3zM19.6 75.1c.2.1.3.2.5.2 6.7-6.7 13-12.5 19.2-17.5 4.2-3.4 8-6.3 11.7-8.7 0-.1 0-.1.1-.1h-.9c-3.5 2.4-7.2 5.1-11.3 8.4-6.2 5.1-12.6 10.9-19.3 17.7zm-2.5-1.4c.1.1.3.2.4.3 5.1-5.3 11.2-11.4 18-16.9 3.2-2.6 6.9-5.5 10.9-8.2h-.8c-3.8 2.6-7.4 5.4-10.4 7.8-6.8 5.6-13 11.7-18.1 17zm71.2-29.5c-1.3 1.9-2.8 3.7-4.4 5.7-3.2 3.8-6.7 7.4-10 10.8-3.3 3.3-7.1 7.2-11 11.1l-1.6 1.6-3.9 3.9c-.4.3-.7.7-1.1 1-.5.5-1 .9-1.5 1.4-.2.2-.4.4-.5.6l-.6.6h.7c.1-.1.1-.2.2-.2.2-.2.3-.4.5-.5.5-.5 1-1 1.5-1.4.4-.3.8-.7 1.1-1 1.3-1.3 2.7-2.6 3.9-3.9l1.6-1.6c3.9-3.9 7.8-7.8 11-11.1 3.3-3.4 6.8-7 10.1-10.8 1.7-2 3.1-3.9 4.4-5.8.2-.3.4-.5.6-.8 1-1.4 2.1-2.9 2.6-4.6-.2.2-.5.3-.7.5-.6 1.3-1.4 2.6-2.3 3.8-.3.1-.5.4-.6.7zm-3.7 1.6c-1.3 1.5-2.7 3.1-4.1 4.6-2.8 3-5.9 5.9-8.8 8.7-.7.7-1.4 1.3-2.1 2-2.8 2.7-5.5 5.4-8.2 8l-2.9 2.8c-1.8 1.8-3.6 3.5-5.5 5.3-.9.9-1.9 1.8-2.8 2.6L49 81h.7c.3-.3.6-.5.9-.8.9-.9 1.8-1.8 2.8-2.6 1.9-1.8 3.7-3.5 5.5-5.3l2.9-2.8c2.7-2.6 5.5-5.4 8.2-8 .7-.7 1.4-1.3 2.1-2 2.9-2.8 6-5.7 8.8-8.7 1.4-1.5 2.8-3.1 4.1-4.6l.8-.9c1.3-1.4 2.5-2.9 3.4-4.5-.3.2-.6.3-.9.5-.9 1.3-1.9 2.5-2.9 3.7l-.8.8zM71.2 71c-1.1 1.2-2.2 2.3-3.3 3.5l-1.7 1.8c-.9.9-1.8 1.9-2.6 2.8-.2.2-.4.5-.6.7.3 0 .5-.1.8-.1l.2-.2c.9-.9 1.8-1.9 2.6-2.8l1.7-1.8c1.1-1.2 2.2-2.3 3.3-3.5 3.5-3.7 6.7-7.2 9.6-10.7 4.7-5.5 9.3-11.3 11.7-17.8v-1.5c-2.2 6.8-7 12.9-12.1 18.9-3 3.5-6.1 7-9.6 10.7zm-51.6-4.1c-1 1-1.9 2.1-2.8 3.1-.6.7-1.2 1.3-1.8 2l-.3.3c.1.1.3.2.4.3l.2-.2c.6-.7 1.2-1.3 1.8-2 .9-1 1.8-2.1 2.8-3.1 3.5-3.6 7.1-6.8 10.6-9.7 4.2-3.4 7.7-6.2 11.5-8.7l.1-.1c-.3 0-.5 0-.8-.1-3.6 2.4-7.1 5.1-11.1 8.4-3.5 2.9-7.1 6.2-10.6 9.8zm70.5-16.4c-1.9 3.5-4.2 7-7.1 10.6-2.8 3.6-5.5 6.8-8.2 9.8-1.3 1.4-2.6 2.8-3.8 4.1-1.1 1.2-2.3 2.5-3.4 3.7.3-.1.6-.1.8-.2 1-1.1 2-2.2 3-3.2 1.3-1.4 2.6-2.8 3.8-4.2 2.7-3 5.4-6.2 8.2-9.9 2.9-3.7 5.2-7.2 7.1-10.7 1-1.8 1.8-3.5 2.4-5.1v-1.6c-.1.3-.2.7-.3 1-.6 2-1.4 3.8-2.5 5.7zm-73 15c-1.5 1.6-2.9 3.3-4.3 5l-.2.2c.1.1.3.2.4.3l.2-.2c1.4-1.7 2.8-3.4 4.3-5 2.7-2.9 5.8-5.9 9.5-9 3.7-3.2 7.2-5.8 10.7-8.1l.5-.3c-.3 0-.5 0-.8-.1-3.5 2.3-7 5-10.7 8.1-3.8 3.2-6.9 6.2-9.6 9.1zm-2.3-1.3c-1.5 1.7-2.8 3.3-3.9 4.9.1.1.2.2.4.3 1.1-1.6 2.4-3.2 3.9-4.9 2.4-2.8 5.3-5.6 8.9-8.9 3-2.7 6.3-5.2 9.9-7.5.1 0 .2-.1.2-.1-.2 0-.5-.1-.7-.1-3.5 2.3-6.8 4.8-9.7 7.4-3.7 3.3-6.5 6.1-9 8.9zm6.2-10c-2.7 2.5-5.4 5.3-8 8.3-1.1 1.4-2.5 3-3.7 4.8.1.1.2.3.3.4 1.3-1.8 2.6-3.5 3.8-4.9 2.5-3.1 5.2-5.8 7.9-8.3 2.8-2.5 5.8-4.8 8.9-6.9l.6-.3c-.2 0-.5-.1-.7-.1 0 0-.1 0-.1.1-3.2 2-6.2 4.4-9 6.9zm63.1 9.1c-3.4 4.7-7.3 9.1-11 13.4-.3.3-.6.7-.9 1l.9-.3c.1-.1.2-.3.3-.4 3.7-4.3 7.6-8.7 11-13.4 2.3-3.2 4.2-6.1 5.8-9 1-1.9 2-3.8 2.7-5.7v-1.5c-.7 2.3-1.9 4.6-3.1 7-1.5 2.8-3.4 5.7-5.7 8.9zM25.8 47.2c-3.2 2.2-5.8 4.4-8.2 6.7-2.4 2.3-4.7 5-6.9 8-1 1.4-1.9 2.7-2.6 4 .1.1.2.3.3.4.8-1.3 1.6-2.7 2.7-4.1 2.2-3 4.5-5.7 6.9-8 2.3-2.3 5-4.4 8.1-6.6l.2-.2c.3-.2.7-.5 1-.7-.2 0-.4-.1-.7-.1-.2.2-.4.3-.6.5l-.2.1zm64.7 9c-1.4 2.8-3 5.5-4.8 8.2-2.5 3.9-5.5 7.7-8.7 11.6.3-.1.6-.3 1-.4 3-3.6 5.7-7.3 8.1-10.9 1.8-2.7 3.4-5.5 4.8-8.3l.4-.7c.6-1.1 1.1-2.2 1.6-3.4v-1.4c-.5 1.6-1.3 3.2-2.1 4.6l-.3.7zm-75.2-3.4C12 56.2 8.8 59.9 7 64.3c.1.2.2.3.3.5 1.8-4.4 5-8.2 8.4-11.7 2.3-2.4 4.8-4.6 7.3-6.3l1.2-.9c-.2-.1-.4-.1-.6-.2l-.9.6c-2.6 1.9-5 4-7.4 6.5zm72 12.8c-1.8 3-3.9 5.8-5.9 8.6.3-.2.7-.3 1-.5 1.9-2.5 3.7-5.1 5.4-7.8 1.4-2.4 2.7-4.8 3.8-7.3.5-1.2 1-2.3 1.5-3.5v-1.5c-.5 1.6-1.2 3.2-1.9 4.8-1.2 2.4-2.5 4.8-3.9 7.2zM6.2 63.4c.2-.6.5-1.1.7-1.6l.1-.1c.5-1.2 1.1-2.3 2-3.7 1.5-2.4 3.2-4.5 5-6.5 1.8-2 3.9-3.8 6.1-5.4l.5-.3c.3-.2.5-.4.8-.6-.2-.1-.4-.1-.6-.2-.2.1-.3.2-.5.4l-.5.3c-2.2 1.6-4.3 3.5-6.2 5.5-1.9 2-3.6 4.2-5 6.6-.9 1.4-1.5 2.6-2 3.7m79.1 10.2c.4-.2.7-.5 1.1-.7.8-1.3 1.6-2.6 2.3-4 1.3-2.3 2.8-5.2 3.9-8.3V57c-1 3.6-2.8 7.1-4.3 9.7-1 1.7-2 3.4-3 5zM12 49.6c-1.5 1.7-2.8 3.5-3.9 5.4-.6 1.1-1.3 2.3-1.8 3.7v1.8c.4-1.9 1.4-3.8 2.2-5.3 1-1.8 2.3-3.6 3.8-5.3 1.4-1.5 3-3 4.8-4.5l1.5-1.2c-.2-.1-.4-.1-.6-.2-.4.3-.8.6-1.2 1-1.8 1.5-3.4 3-4.8 4.6zm77.4 19.2c.4-.4.8-.8 1.1-1.2.9-1.9 1.8-3.9 2.5-6v-1.7c-.7 2.7-1.9 5.4-3.1 7.9-.2.3-.4.6-.5 1zM10.6 48.1c-1.2 1.4-2.2 2.9-3 4.5-.4.8-.8 1.6-1.1 2.4-.1.1-.1.3-.2.4v1.4c.1-.4.3-.8.4-1.2.1-.2.1-.3.2-.5.3-.8.7-1.6 1-2.3.8-1.5 1.8-3 3-4.4 1.8-2.2 3.6-3.8 5.3-5-.2-.1-.4-.1-.5-.2-1.6 1.2-3.3 2.8-5.1 4.9zM93 64v-1l-.6 2.1c.2-.4.4-.7.6-1.1zM9.3 46.7c-1.4 1.9-2.3 3.6-2.9 5.1v1.8c.4-1.9 1.5-4.1 3.3-6.6 1.2-1.7 2.7-3.2 4.5-4.5-.2-.1-.3-.2-.5-.2-1.8 1.3-3.2 2.8-4.4 4.4zM8 45.5c-.7 1.2-1.3 2.3-1.7 3.2v1.8c.3-1.4 1-3 2.1-4.7 1-1.6 2.3-3 3.7-4.2-.2-.1-.3-.2-.5-.3-1.3 1.2-2.6 2.6-3.6 4.2zm-1.6 0v1.7c.5-2.4 2.3-4.9 4-6.5-.2-.1-.3-.2-.4-.3-1.4 1.3-2.8 3.1-3.6 5.1zm2.1-5.6c.1-.1 0-.3-.1-.3-.1-.1-.3 0-.3.1l-.2.3c-.6.9-1.1 1.8-1.6 2.8v1.6c.3-1.5 1.1-2.7 2-4.1l.2-.4zM6 41.2c0-.4.5-.8.7-1.3.2-.4.4-.8.6-1.3-.1-.1-.2-.2-.4-.3h-.1c-.1.4-.4.9-.6 1.3"/></svg>