<svg width="579" height="226" fill="none" xmlns="http://www.w3.org/2000/svg"><g clip-path="url(#clip0)" fill="#0070EB"><path fill-rule="evenodd" clip-rule="evenodd" d="M492.746 108.286l31.007-.136a.802.802 0 0 1 .324.065.8.8 0 0 1 .272.188l5.123 5.409a.81.81 0 0 1 .216.559v79.616h-1.617v-79.336l-4.662-4.896-30.356.126-5.132 4.941v61.233h-1.635v-61.576a.8.8 0 0 1 .289-.622l5.574-5.409a.818.818 0 0 1 .597-.225v.063zm15.241 115.912h10.507v.811h11.194a.809.809 0 0 1-.813.811h-41.776a.813.813 0 0 1-.813-.811h21.683l.018-.811z"/><path fill-rule="evenodd" clip-rule="evenodd" d="M497.272 224.99a.813.813 0 0 1-.813.812h-3.19a.813.813 0 0 1-.813-.812h4.816zm-1.636-48.909V137.45h-1.553v38.631h-1.636v-39.442a.807.807 0 0 1 .502-.75.814.814 0 0 1 .311-.062h3.19a.814.814 0 0 1 .813.812v39.442h-1.627zm9.568 7.267V137.45h-1.526v45.898h-.389v-7.267h-1.247v-39.442a.807.807 0 0 1 .502-.75.814.814 0 0 1 .311-.062h3.19a.814.814 0 0 1 .813.812v46.709h-1.654zm.814 42.481h-3.19a.813.813 0 0 1-.813-.812h4.825a.824.824 0 0 1-.245.571.811.811 0 0 1-.577.232v.009zm6.396-1.632h1.554V137.45h-1.554v86.747zm2.376 1.632h-3.189a.814.814 0 0 1-.813-.811v-88.352a.809.809 0 0 1 .813-.812h3.189a.814.814 0 0 1 .813.812v88.352a.812.812 0 0 1-.813.802v.009zm7.951-31.843V137.45h-1.554v56.536h-1.636v-57.347a.807.807 0 0 1 .502-.75.814.814 0 0 1 .311-.062h3.19a.814.814 0 0 1 .813.812v57.347h-1.626zm.813 31.843h-3.19a.813.813 0 0 1-.813-.812h4.825a.798.798 0 0 1-.245.571.82.82 0 0 1-.577.232v.009zm-29.471-96.131h1.554V116.58h-1.554v13.118zm2.376 1.631h-3.189a.813.813 0 0 1-.813-.811V115.76a.814.814 0 0 1 .813-.812h3.18a.815.815 0 0 1 .813.812v14.731a.815.815 0 0 1-.813.829l.009.009zm7.219-1.631h1.553V116.58h-1.553v13.118zm2.376 1.631h-3.19a.813.813 0 0 1-.813-.811V115.76a.811.811 0 0 1 .813-.812h3.19a.811.811 0 0 1 .813.812v14.731a.823.823 0 0 1-.244.599.824.824 0 0 1-.605.23l.036.009zm6.36-1.631h1.554V116.58h-1.554v13.118zm2.376 1.631h-3.189a.813.813 0 0 1-.813-.811V115.76a.814.814 0 0 1 .813-.812h3.189a.814.814 0 0 1 .813.812v14.731a.814.814 0 0 1-.232.585.796.796 0 0 1-.581.244v.009zm6.397-1.631h1.554V116.58h-1.554v13.118zm2.376 1.631h-3.189a.813.813 0 0 1-.813-.811V115.76a.814.814 0 0 1 .813-.812h3.18a.815.815 0 0 1 .813.812v14.731a.815.815 0 0 1-.813.829l.009.009zm-26.544-23.179h21.945v-2.191h-21.945v2.191zm22.758 1.605h-23.581a.81.81 0 0 1-.813-.811v-3.823a.813.813 0 0 1 .813-.811h23.581a.813.813 0 0 1 .813.811v3.823a.814.814 0 0 1-.813.811z"/><path fill-rule="evenodd" clip-rule="evenodd" d="M555.762 194.798h-36.446v29.39h18.91v.757a.811.811 0 0 0 .813.812h17.853a.83.83 0 0 1-.307.063h-38.091a.811.811 0 0 1-.813-.812v-31.022a.815.815 0 0 1 .813-.811h38.082a.815.815 0 0 1 .813.811v21.421h-1.636l.009-20.609z"/><path fill-rule="evenodd" clip-rule="evenodd" d="M547.279 215.408v-18.103a.811.811 0 0 1 .813-.812h4.093a.814.814 0 0 1 .813.812v18.103h-1.635v-17.301h-2.457v17.292l-1.627.009zm-8.421-12.793v-5.31a.814.814 0 0 1 .814-.812h4.092a.814.814 0 0 1 .813.812v5.31a.81.81 0 0 1-.813.811h-4.092a.81.81 0 0 1-.575-.238.808.808 0 0 1-.239-.573zm1.636-4.508v3.678h2.457v-3.678h-2.457zm-10.001 4.508v-5.31a.814.814 0 0 1 .813-.812h4.093a.811.811 0 0 1 .813.812v5.31a.81.81 0 0 1-.813.811h-4.093a.81.81 0 0 1-.813-.811zm1.635-4.508v3.678h2.457v-3.678h-2.457zm6.73 14.046v-5.31a.814.814 0 0 1 .814-.812h4.092a.814.814 0 0 1 .813.812v5.31a.81.81 0 0 1-.813.811h-4.092a.81.81 0 0 1-.575-.238.808.808 0 0 1-.239-.573zm1.636-4.508v3.678h2.457v-3.678h-2.457zm-10.001 4.508v-5.31a.814.814 0 0 1 .813-.812h4.093a.811.811 0 0 1 .813.812v5.31a.81.81 0 0 1-.813.811h-4.093a.81.81 0 0 1-.813-.811zm1.635-4.508v3.678h2.457v-3.678h-2.457zm-1.635 14.046v-5.31a.809.809 0 0 1 .813-.812h4.093a.813.813 0 0 1 .813.812v5.31a.815.815 0 0 1-.813.811h-4.093a.813.813 0 0 1-.813-.811zm1.635-4.508v3.678h2.457v-3.678h-2.457zm-9.993-14.568v-5.31a.811.811 0 0 1 .813-.812h4.093a.814.814 0 0 1 .813.812v5.31a.81.81 0 0 1-.813.811h-4.093a.813.813 0 0 1-.813-.811zm1.636-4.508v3.678h2.493v-3.678h-2.493zm-1.636 14.046v-5.31a.811.811 0 0 1 .813-.812h4.093a.814.814 0 0 1 .813.812v5.31a.81.81 0 0 1-.813.811h-4.093a.813.813 0 0 1-.813-.811zm1.636-4.508v3.678h2.493v-3.678h-2.493zm-1.636 14.046v-5.31a.813.813 0 0 1 .813-.812h4.093a.814.814 0 0 1 .813.812v5.31a.81.81 0 0 1-.813.811h-4.093a.815.815 0 0 1-.813-.811zm1.636-4.508v3.678h2.493v-3.678h-2.493zm42.562 8.583h-27.294a.811.811 0 0 1-.813-.812v-8.727a.81.81 0 0 1 .813-.811h27.294a.81.81 0 0 1 .813.811v8.727a.814.814 0 0 1-.813.812zm-26.517-1.632h25.659v-7.095h-25.659v7.095zm-122.24 1.019a.813.813 0 0 1-.795.613h-26.264a.815.815 0 0 1-.795-.613h27.854zm-27.872-106.509V94.518a.812.812 0 0 1 .813-.811h26.264a.813.813 0 0 1 .813.811v24.126h-1.635V95.33H391.33v23.314h-1.626z"/><path fill-rule="evenodd" clip-rule="evenodd" d="M383.072 117.869h14.899a.814.814 0 0 1 .813.811v14.272h-1.635v-13.496h-13.254v13.46h-1.636v-14.272a.81.81 0 0 1 .813-.811v.036zm15.676 107.284a.808.808 0 0 1-.795.613h-14.881a.81.81 0 0 1-.795-.613h16.471zm24.656-105.697h-13.245v78.326h-1.635v-79.138a.81.81 0 0 1 .813-.811h14.88a.81.81 0 0 1 .813.811v79.138h-1.635v-78.326h.009zm1.608 105.697a.806.806 0 0 1-.795.613h-14.88a.812.812 0 0 1-.795-.613h16.47z"/><path fill-rule="evenodd" clip-rule="evenodd" d="M423.404 141.12h-13.245v3.516h13.245v-3.516zm-14.067-1.614h14.88a.813.813 0 0 1 .813.811v5.148a.813.813 0 0 1-.813.811h-14.88a.813.813 0 0 1-.814-.811v-5.148c0-.215.086-.421.239-.573a.81.81 0 0 1 .575-.238zm14.067 17.22h-13.245v3.516h13.245v-3.516zm-14.067-1.632h14.88a.815.815 0 0 1 .813.811v5.148a.813.813 0 0 1-.813.811h-14.88a.813.813 0 0 1-.814-.811v-5.139a.804.804 0 0 1 .5-.758.825.825 0 0 1 .314-.062zm14.067 17.246h-13.245v3.516h13.245v-3.516zm-14.067-1.632h14.88a.81.81 0 0 1 .813.811v5.148a.813.813 0 0 1-.813.812h-14.88a.815.815 0 0 1-.814-.812v-5.148a.814.814 0 0 1 .814-.811zm14.067 17.238h-13.245v3.516h13.245v-3.516zm-14.067-1.632h14.88a.813.813 0 0 1 .813.812v5.148a.81.81 0 0 1-.813.811h-14.88a.81.81 0 0 1-.575-.238.808.808 0 0 1-.239-.573v-5.148a.814.814 0 0 1 .814-.812zM394.475 88.55h18.34a.812.812 0 0 1 .813.812v5.148a.808.808 0 0 1-.813.811h-18.34a.813.813 0 0 1-.813-.811v-5.148a.807.807 0 0 1 .502-.75.812.812 0 0 1 .311-.061zm17.527 1.633h-16.741v3.516h16.705l.036-3.516z"/><path fill-rule="evenodd" clip-rule="evenodd" d="M400.555 78.894h6.189a.818.818 0 0 1 .751.501.808.808 0 0 1 .062.31v9.657a.812.812 0 0 1-.813.81h-6.189a.813.813 0 0 1-.813-.81v-9.647a.808.808 0 0 1 .502-.75.81.81 0 0 1 .311-.062v-.009zm5.376 1.632h-4.518v8.024h4.518v-8.024zM237.758 37.225h3.912v-6.689a.812.812 0 0 1 .813-.811h31.513a.813.813 0 0 1 .814.811v6.68h4.571a.813.813 0 0 1 .813.812v126.28h-1.635V38.848h-4.572a.816.816 0 0 1-.813-.811V31.32h-29.868V38a.81.81 0 0 1-.814.812h-3.921v104.526h-1.635V38.037a.813.813 0 0 1 .813-.812h.009zm42.463 187.784a.81.81 0 0 1-.813.811h-41.65a.815.815 0 0 1-.813-.811h43.276z"/><path fill-rule="evenodd" clip-rule="evenodd" d="M243.757 45.123h4.716a.813.813 0 0 1 .813.811v97.368h-1.635V46.755h-3.081v96.583h-1.635V45.971a.812.812 0 0 1 .813-.812l.009-.036zm5.529 179.886a.81.81 0 0 1-.813.811h-4.716a.815.815 0 0 1-.813-.811h6.342zm10.833-50.586V46.755h-3.09v127.668h-1.626V45.934a.808.808 0 0 1 .502-.75.81.81 0 0 1 .311-.061h4.716a.81.81 0 0 1 .813.811v118.374h-.406v10.115h-1.22zm1.635 50.586a.81.81 0 0 1-.813.811h-4.725a.813.813 0 0 1-.813-.811h6.351zm6.93-179.886h4.716a.814.814 0 0 1 .813.811v118.374h-1.635V46.755h-3.081v117.553h-1.626V45.934a.808.808 0 0 1 .502-.75.81.81 0 0 1 .311-.061zm5.511 179.886a.815.815 0 0 1-.813.811h-4.698a.813.813 0 0 1-.813-.811h6.324zM260.923 12.144v18.392a.812.812 0 0 1-.813.811h-3.081a.813.813 0 0 1-.813-.811V12.144a.808.808 0 0 1 .813-.811h3.063a.816.816 0 0 1 .813.811h.018zm-1.635 17.58v-16.76h-1.428v16.76h1.428zm-44.424 63.118a68.278 68.278 0 0 1-26.445-16.228 76.145 76.145 0 0 1-15.991-24.117v119.51l-1.636-.902V48.287a.814.814 0 0 1 1.581-.288c4.217 11.04 9.939 20.185 17.166 27.434a66.788 66.788 0 0 0 26.31 16.038.823.823 0 0 1 .614.794v51.072h-1.635V92.851l.036-.01zm1.635 132.167a.81.81 0 0 1-.813.811h-44.072a.814.814 0 0 1-.813-.811h45.698z"/><path fill-rule="evenodd" clip-rule="evenodd" d="M171.615 99.397a.817.817 0 0 1-.578-1.393.817.817 0 0 1 .578-.24h33.058a.817.817 0 0 1 .578 1.394.817.817 0 0 1-.578.239h-33.058zm0 8.626a.817.817 0 0 1-.818-.815.816.816 0 0 1 .818-.816h44.062a.815.815 0 1 1 0 1.631h-44.062zm0 8.62a.817.817 0 0 1-.578-1.393.817.817 0 0 1 .578-.239h44.062a.815.815 0 1 1 0 1.632h-44.062zm0 8.627a.815.815 0 1 1 0-1.631h44.062a.815.815 0 1 1 0 1.631h-44.062zm0 8.62a.817.817 0 0 1-.578-1.393.817.817 0 0 1 .578-.239h44.062a.815.815 0 1 1 0 1.632h-44.062zm0 8.618a.817.817 0 0 1-.578-1.393.817.817 0 0 1 .578-.239h44.062a.815.815 0 1 1 0 1.632h-44.062zm0 8.628a.817.817 0 0 1-.578-1.393.817.817 0 0 1 .578-.239h28.649v1.632h-28.649zm0 8.619a.817.817 0 0 1-.578-1.393.817.817 0 0 1 .578-.239h28.649v1.632h-28.649zm0 8.6a.817.817 0 0 1-.818-.815.816.816 0 0 1 .818-.816h28.649v1.631h-28.649z"/><path d="M200.255 175.369h-21.837v1.632h21.837v-1.632zm0 8.628h-21.837v1.632h21.837v-1.632zm0 8.619h-21.837v1.632h21.837v-1.632zm0 8.618h-21.837v1.632h21.837v-1.632z"/><path fill-rule="evenodd" clip-rule="evenodd" d="M205.531 225.009a.817.817 0 0 1-1.635 0h1.635zm-1.635-81.672V98.585a.816.816 0 0 1 1.395-.578c.154.153.24.361.24.578v44.752h-1.635zm-21.413 81.672a.814.814 0 0 1-.817.815.817.817 0 0 1-.818-.815h1.635zm-1.635-19.339V82.212a.817.817 0 0 1 1.635 0V205.67h-1.635z"/><path fill-rule="evenodd" clip-rule="evenodd" d="M170.883 66.39a.82.82 0 0 1 .118-.897.825.825 0 0 1 .56-.276.822.822 0 0 1 .786.452c5.737 11.512 12.224 19.031 19.461 24.26 7.236 5.23 15.277 8.186 24.086 10.566a.816.816 0 0 1 .574.997.814.814 0 0 1-.998.572c-8.972-2.425-17.166-5.41-24.62-10.818-7.454-5.41-14.103-13.046-19.967-24.856z"/><path fill-rule="evenodd" clip-rule="evenodd" d="M171.615 90.777a.817.817 0 1 1 0-1.632h18.25a.817.817 0 0 1 .578 1.393.817.817 0 0 1-.578.24h-18.25zm0-8.627a.817.817 0 0 1-.578-1.394.817.817 0 0 1 .578-.238h9.812a.817.817 0 0 1 .578 1.392.817.817 0 0 1-.578.24h-9.812zm204.167 50.765v-64.46h-2.9a.813.813 0 0 1-.814-.812V58.51L359.42 40.03l-12.766 18.653v8.961a.813.813 0 0 1-.813.811h-2.901v69.519h-1.635v-70.32a.812.812 0 0 1 .813-.812h2.9v-8.475a.805.805 0 0 1 .308-.64c4.469-6.527 8.938-13.057 13.407-19.59a.82.82 0 0 1 .673-.357.814.814 0 0 1 .673.356l13.552 19.744a.806.806 0 0 1 .091.902v8.114h2.9a.814.814 0 0 1 .813.811v65.272l-1.653-.063zm1.635 92.238a.81.81 0 0 1-.813.811h-34.486a.81.81 0 0 1-.813-.811h36.112z"/><path fill-rule="evenodd" clip-rule="evenodd" d="M345.841 59.178a.816.816 0 1 1 0-1.632h27.104a.817.817 0 0 1 .578 1.393.817.817 0 0 1-.578.239h-27.104zm0 9.277a.816.816 0 1 1 0-1.632h27.041a.816.816 0 1 1 0 1.632h-27.041zm14.392-29.859a.817.817 0 0 1-1.635 0V.82a.816.816 0 0 1 1.395-.577c.154.153.24.36.24.577v37.775zm-12.188 33.628h5.764a.813.813 0 0 1 .813.811v9.24a.808.808 0 0 1-.813.812h-5.764a.814.814 0 0 1-.813-.811v-9.241a.808.808 0 0 1 .502-.75.814.814 0 0 1 .311-.061zm4.942 1.631h-4.129v7.61h4.129v-7.61zm11.926-1.631h5.764a.813.813 0 0 1 .814.811v9.24a.813.813 0 0 1-.814.811h-5.764a.816.816 0 0 1-.813-.81v-9.241a.808.808 0 0 1 .502-.75.814.814 0 0 1 .311-.061zm4.942 1.631h-4.129v7.61h4.129v-7.61z"/><path fill-rule="evenodd" clip-rule="evenodd" d="M358.543 67.634a.817.817 0 0 1 1.636 0v65.272h-1.636V67.634zm-10.498 19.222h5.764a.812.812 0 0 1 .813.81v9.242a.808.808 0 0 1-.813.811h-5.764a.815.815 0 0 1-.813-.811v-9.241a.807.807 0 0 1 .502-.75.816.816 0 0 1 .311-.061zm4.942 1.631h-4.129v7.61h4.129v-7.61zm11.926-1.631h5.764a.82.82 0 0 1 .575.237.808.808 0 0 1 .239.574v9.24a.81.81 0 0 1-.814.812h-5.764a.813.813 0 0 1-.813-.811v-9.241a.807.807 0 0 1 .502-.75.816.816 0 0 1 .311-.061zm4.942 1.631h-4.129v7.61h4.129v-7.61zm-21.81 13.677h5.764a.814.814 0 0 1 .813.811v9.241a.814.814 0 0 1-.813.812h-5.764a.815.815 0 0 1-.813-.812v-9.241a.81.81 0 0 1 .813-.811zm4.942 1.632h-4.129v7.609h4.129v-7.609zm11.926-1.632h5.764a.814.814 0 0 1 .814.811v9.241a.814.814 0 0 1-.814.812h-5.764a.811.811 0 0 1-.813-.812v-9.241a.81.81 0 0 1 .813-.811zm4.942 1.632h-4.129v7.609h4.129v-7.609zm-21.81 13.667h5.764a.81.81 0 0 1 .813.811v9.241a.809.809 0 0 1-.813.812h-5.764a.815.815 0 0 1-.813-.812v-9.232a.81.81 0 0 1 .813-.811v-.009zm4.942 1.632h-4.129v7.609h4.129v-7.609zm11.926-1.632h5.764a.81.81 0 0 1 .575.238.808.808 0 0 1 .239.573v9.241a.814.814 0 0 1-.814.812h-5.764a.813.813 0 0 1-.813-.812v-9.232a.81.81 0 0 1 .813-.811v-.009zm4.942 1.632h-4.129v7.609h4.129v-7.609zm-46.637 51.127v-94.87l-37.775 21.051v67.905h-1.635V95.925a.815.815 0 0 1 .425-.712l39.346-21.926a.816.816 0 0 1 1.16.254.814.814 0 0 1 .114.423v96.258h-1.635zm1.536 54.787a.819.819 0 0 1-.723.433h-39.41a.819.819 0 0 1-.723-.433h40.892-.036z"/><path fill-rule="evenodd" clip-rule="evenodd" d="M324.031 103.715a.815.815 0 1 1 0 1.632h-7.129a.817.817 0 0 1-.578-1.393.817.817 0 0 1 .578-.239h7.129zm-18.341 0a.815.815 0 1 1 0 1.632h-21.069a.817.817 0 1 1 0-1.632h21.069zm18.341 7.086a.815.815 0 1 1 0 1.632h-7.129a.817.817 0 0 1-.578-1.393.817.817 0 0 1 .578-.239h7.129zm-18.341 0a.815.815 0 1 1 0 1.632h-21.069a.817.817 0 1 1 0-1.632h21.069zm18.341 7.068a.817.817 0 1 1 0 1.632h-7.129a.817.817 0 0 1-.578-1.393.817.817 0 0 1 .578-.239h7.129zm-18.341 0a.817.817 0 1 1 0 1.632h-21.069a.817.817 0 1 1 0-1.632h21.069zm18.341 7.095a.815.815 0 1 1 0 1.632h-7.129a.817.817 0 0 1-.578-1.393.817.817 0 0 1 .578-.239h7.129zm-18.341 0a.815.815 0 1 1 0 1.632h-21.069a.817.817 0 1 1 0-1.632h21.069zm18.341 7.077a.817.817 0 1 1 0 1.632h-7.129a.817.817 0 0 1-.578-1.393.817.817 0 0 1 .578-.239h7.129zm-18.341.009a.815.815 0 1 1 0 1.632h-21.069a.817.817 0 1 1 0-1.632h21.069zm18.341 7.077a.815.815 0 1 1 0 1.632h-7.129a.817.817 0 0 1-.578-1.393.817.817 0 0 1 .578-.239h7.129zm-18.341 0a.815.815 0 1 1 0 1.632h-21.069a.817.817 0 1 1 0-1.632h21.069zm18.341 7.087a.815.815 0 1 1 0 1.632h-7.129a.817.817 0 0 1-.578-1.393.817.817 0 0 1 .578-.239h7.129zm-18.341 0a.815.815 0 1 1 0 1.632h-21.069a.817.817 0 1 1 0-1.632h21.069zm18.341 7.077a.817.817 0 1 1 0 1.632h-7.129a.817.817 0 0 1-.578-1.393.817.817 0 0 1 .578-.239h7.129zm-18.341.009a.815.815 0 1 1 0 1.632h-21.069a.817.817 0 1 1 0-1.632h21.069zm18.341 7.077a.815.815 0 1 1 0 1.632h-7.129a.817.817 0 0 1-.578-1.393.817.817 0 0 1 .578-.239h7.129zm-18.341 0a.815.815 0 1 1 0 1.632h-21.069a.817.817 0 1 1 0-1.632h21.069zm18.341 7.077a.817.817 0 1 1 0 1.632h-7.129a.817.817 0 0 1-.578-1.393.817.817 0 0 1 .578-.239h7.129zm-34.748-73.665a.816.816 0 0 1-1.635 0V63.136a.816.816 0 0 1 1.396-.577c.153.153.239.36.239.577V93.79zm48.155 43.363h16.263v-4.246a.81.81 0 0 1 .813-.811h48.516a.813.813 0 0 1 .813.811v64.867h-1.626v-64.01h-46.836v4.246a.815.815 0 0 1-.813.811h-16.263v31.437h-1.68v-32.284a.813.813 0 0 1 .813-.812v-.009zm4.671 87.216h45.653v.812h16.081a.814.814 0 0 1-.813.811h-65.592a.815.815 0 0 1-.813-.811v-.181h5.493l-.009-.631z"/><path fill-rule="evenodd" clip-rule="evenodd" d="M345.569 141.931h5.132a.813.813 0 0 1 .813.811v82.411a.814.814 0 0 1-.813.811h-5.132a.813.813 0 0 1-.813-.811v-82.411a.81.81 0 0 1 .813-.811zm4.319 1.631h-3.496v80.815h3.496v-80.815zm6.325-1.631h5.131a.813.813 0 0 1 .813.811v82.411a.814.814 0 0 1-.813.811h-5.131a.814.814 0 0 1-.814-.811v-82.411a.81.81 0 0 1 .814-.811zm4.318 1.631h-3.496v80.815h3.496v-80.815zm6.37-1.631h5.131a.813.813 0 0 1 .813.811v82.411a.814.814 0 0 1-.813.811h-5.131a.814.814 0 0 1-.814-.811v-82.411a.81.81 0 0 1 .814-.811zm4.318 1.631h-3.496v80.815h3.496v-80.815zm6.36-1.631h5.132a.814.814 0 0 1 .813.811v82.411a.81.81 0 0 1-.813.811h-5.132a.81.81 0 0 1-.813-.811v-82.411a.813.813 0 0 1 .813-.811zm4.319 1.631h-3.497v80.815h3.497v-80.815zm6.37-1.631h5.131a.814.814 0 0 1 .813.812v54.994h-1.662v-54.183h-3.496v54.219h-1.32v27.38h6.451a.809.809 0 0 1-.813.811h-5.132a.813.813 0 0 1-.813-.811v-82.41a.803.803 0 0 1 .248-.584.8.8 0 0 1 .593-.228zm57.524 82.266h19.244v.793h10.634a.814.814 0 0 1-.814.812h-39.391a.81.81 0 0 1-.795-.64h11.122v-.992.027zm-11.14-26.415V52.722a.812.812 0 0 1 .813-.81h39.409a.813.813 0 0 1 .814.81v130.626h-1.636V53.525h-37.765v144.248l-1.635.009z"/><path fill-rule="evenodd" clip-rule="evenodd" d="M455.17 59.9l-15.766 137.882h-1.68l16.596-145.15a.81.81 0 0 1 .814-.81.813.813 0 0 1 .813.811l14.943 130.724h-1.635L455.17 59.899zm-9.378 164.297h19.244v.794h10.634a.808.808 0 0 1-.239.573.81.81 0 0 1-.575.238h-39.481a.81.81 0 0 1-.705-.631h11.122v-.974z"/><path fill-rule="evenodd" clip-rule="evenodd" d="M440.967 44.041h28.378a.814.814 0 0 1 .813.812v7.861a.813.813 0 0 1-.813.812h-28.378a.813.813 0 0 1-.813-.812v-7.87a.808.808 0 0 1 .502-.75.81.81 0 0 1 .311-.062v.01zm27.592 1.632H441.78v6.239h26.779v-6.239z"/><path fill-rule="evenodd" clip-rule="evenodd" d="M454.185 18.067h1.97a.813.813 0 0 1 .813.811v25.965a.812.812 0 0 1-.813.812h-1.97a.816.816 0 0 1-.813-.812V18.88a.813.813 0 0 1 .813-.812zm1.157 1.632h-.335v24.342h.335V19.699z"/><path d="M465.036 214.902h-19.244v1.632h19.244v-1.632zm0-12.639h-19.244v1.632h19.244v-1.632z"/><path fill-rule="evenodd" clip-rule="evenodd" d="M439.883 191.255a.82.82 0 0 1-.818-.816.816.816 0 0 1 .818-.816h25.153v1.632h-25.153zm.985-12.64a.817.817 0 0 1-.578-1.393.817.817 0 0 1 .578-.239h28.613a.817.817 0 0 1 .578 1.393.817.817 0 0 1-.578.239h-28.613zm1.988-12.639a.817.817 0 0 1-.578-1.393.817.817 0 0 1 .578-.239h24.628a.815.815 0 1 1 0 1.632h-24.628zm.921-12.64a.817.817 0 0 1-.578-1.393.817.817 0 0 1 .578-.239h22.786a.817.817 0 0 1 .578 1.393.817.817 0 0 1-.578.239h-22.786zm1.427-12.64a.815.815 0 1 1 0-1.632h19.931a.817.817 0 0 1 .578 1.393.817.817 0 0 1-.578.239h-19.931zm1.446-12.649a.817.817 0 0 1-.578-1.393.817.817 0 0 1 .578-.239h17.04a.817.817 0 1 1 0 1.632h-17.04zm1.445-12.64a.815.815 0 1 1 0-1.632h14.149a.817.817 0 0 1 .578 1.393.817.817 0 0 1-.578.239h-14.149zm1.446-12.639a.817.817 0 0 1-.578-1.393.817.817 0 0 1 .578-.239h11.258a.815.815 0 1 1 0 1.632h-11.258zm-60.957 121.601h56.367v-25.776h-56.367v25.776zm57.199 1.632h-58.012a.814.814 0 0 1-.813-.812v-27.407a.81.81 0 0 1 .813-.811h58.021a.815.815 0 0 1 .813.811v27.371a.818.818 0 0 1-.813.848h-.009z"/><path fill-rule="evenodd" clip-rule="evenodd" d="M392.595 205.247h48.363v-2.993h-48.363v2.993zm49.177 1.632h-49.99a.813.813 0 0 1-.813-.812v-4.625a.81.81 0 0 1 .813-.811h49.999a.813.813 0 0 1 .813.811v4.616a.813.813 0 0 1-.813.812l-.009.009zm-49.177 7.455h3.452v-2.993h-3.452v2.993zm4.265 1.632h-5.087a.814.814 0 0 1-.813-.811v-4.616a.813.813 0 0 1 .813-.811h5.087a.813.813 0 0 1 .813.811v4.616a.836.836 0 0 1-.053.317.812.812 0 0 1-.751.521l-.009-.027zm40.647-1.632h3.451v-2.993h-3.451v2.993zm4.264 1.632h-5.086a.813.813 0 0 1-.813-.811v-4.616a.809.809 0 0 1 .813-.811h5.086a.813.813 0 0 1 .813.811v4.616a.799.799 0 0 1-.225.588.818.818 0 0 1-.579.25l-.009-.027zm-26.716-1.632h3.451v-2.993h-3.451v2.993zm4.265 1.632h-5.087a.814.814 0 0 1-.813-.811v-4.616a.813.813 0 0 1 .813-.811h5.087a.813.813 0 0 1 .813.811v4.616a.809.809 0 0 1-.496.774.802.802 0 0 1-.317.064v-.027zm-15.494-1.632h3.451v-2.993h-3.451v2.993zm4.264 1.632h-5.086a.813.813 0 0 1-.814-.811v-4.616a.81.81 0 0 1 .814-.811h5.086a.813.813 0 0 1 .813.811v4.616a.799.799 0 0 1-.225.588.818.818 0 0 1-.579.25l-.009-.027zm18.196-1.632h3.451v-2.993h-3.451v2.993zm4.264 1.632h-5.086a.813.813 0 0 1-.814-.811v-4.616a.81.81 0 0 1 .814-.811h5.086a.813.813 0 0 1 .813.811v4.616a.81.81 0 0 1-.813.838v-.027zm34.477-33.439h42.96a.814.814 0 0 1 .813.812v41.642a.809.809 0 0 1-.813.812h-42.96a.815.815 0 0 1-.813-.812v-41.633a.813.813 0 0 1 .813-.812v-.009zm42.138 1.632h-41.316v40.011h41.325l-.009-40.011z"/><path fill-rule="evenodd" clip-rule="evenodd" d="M471.152 188.586a.817.817 0 0 1-.578-1.393.817.817 0 0 1 .578-.239h10.842a.817.817 0 0 1 .578 1.393.817.817 0 0 1-.578.239h-10.842zm0 5.671a.817.817 0 0 1-.578-1.393.817.817 0 0 1 .578-.239h10.842a.817.817 0 0 1 .578 1.393.817.817 0 0 1-.578.239h-10.842zm0 5.652a.817.817 0 0 1-.578-1.393.817.817 0 0 1 .578-.239h10.842a.817.817 0 0 1 .578 1.393.817.817 0 0 1-.578.239h-10.842zm0 5.707a.817.817 0 0 1-.578-1.393.817.817 0 0 1 .578-.239h10.842a.817.817 0 0 1 .578 1.393.817.817 0 0 1-.578.239h-10.842zm0 5.671a.817.817 0 0 1-.578-1.393.817.817 0 0 1 .578-.239h10.842a.817.817 0 0 1 .578 1.393.817.817 0 0 1-.578.239h-10.842zm0 5.68a.817.817 0 0 1-.578-1.393.817.817 0 0 1 .578-.239h10.842a.817.817 0 0 1 .578 1.393.817.817 0 0 1-.578.239h-10.842zm0 5.679a.817.817 0 0 1-.818-.815.816.816 0 0 1 .818-.816h10.842a.817.817 0 0 1 .818.816.815.815 0 0 1-.818.815h-10.842zm19.877-34.06a.817.817 0 1 1 0-1.632h10.841a.817.817 0 0 1 .578 1.393.817.817 0 0 1-.578.239h-10.841zm0 5.671a.817.817 0 1 1 0-1.632h10.841a.817.817 0 0 1 .578 1.393.817.817 0 0 1-.578.239h-10.841zm0 5.652a.815.815 0 1 1 0-1.632h10.841a.817.817 0 0 1 .578 1.393.817.817 0 0 1-.578.239h-10.841zm0 5.707a.815.815 0 1 1 0-1.632h10.841a.817.817 0 0 1 .578 1.393.817.817 0 0 1-.578.239h-10.841zm0 5.671a.815.815 0 1 1 0-1.632h10.841a.817.817 0 0 1 .578 1.393.817.817 0 0 1-.578.239h-10.841zm0 5.68a.817.817 0 1 1 0-1.632h10.841a.817.817 0 0 1 .578 1.393.817.817 0 0 1-.578.239h-10.841zm0 5.679a.814.814 0 1 1 0-1.631h10.841a.817.817 0 0 1 .818.816.817.817 0 0 1-.818.815h-10.841zm-6.397-40.118h17.808v-5.635h-17.808v5.635zm18.63 1.632h-19.461a.814.814 0 0 1-.813-.812v-7.266a.809.809 0 0 1 .813-.811h19.443a.813.813 0 0 1 .813.811v7.266a.811.811 0 0 1-.795.812zM85.46 132.889h-1.14a.815.815 0 0 1-.813-.812v-12.73h-.903v12.73a.811.811 0 0 1-.814.812H57.1v30.833a.809.809 0 0 1-.814.811h-16.09v32.735a.811.811 0 0 1-.813.812h-3.497a.815.815 0 0 1-.813-.812v-3.444h-9.125v3.444a.811.811 0 0 1-.813.812H21.52v10.692h-1.645v-11.495a.813.813 0 0 1 .814-.811h3.613v-3.444a.811.811 0 0 1 .814-.812h10.769a.815.815 0 0 1 .813.812v3.444h1.897v-32.744a.81.81 0 0 1 .814-.812h16.054v-30.833a.81.81 0 0 1 .813-.811h24.701v-12.73a.811.811 0 0 1 .814-.811h2.53a.822.822 0 0 1 .751.5c.04.099.061.204.061.311v12.73h1.139a.81.81 0 0 1 .813.811v45.79H85.46v-44.978zm-25.298 91.299h16.489V225h10.435a.813.813 0 0 1-.813.811H20.69a.814.814 0 0 1-.814-.811h40.286v-.812z"/><path fill-rule="evenodd" clip-rule="evenodd" d="M67.96 146.222h-6.668a.822.822 0 0 1-.751-.501.809.809 0 0 1-.063-.31v-7.618a.811.811 0 0 1 .814-.812h6.676a.815.815 0 0 1 .813.812v7.618a.807.807 0 0 1-.238.574.823.823 0 0 1-.575.237h-.009zm-5.855-1.631h5.041v-5.987h-5.041v5.987zm5.855 13.451h-6.668a.815.815 0 0 1-.814-.812v-7.627a.809.809 0 0 1 .814-.811h6.676a.81.81 0 0 1 .813.811v7.618a.81.81 0 0 1-.813.812l-.009.009zm-5.855-1.632h5.041v-5.995h-5.041v5.995zm20.165-10.188h-6.677a.823.823 0 0 1-.751-.501.807.807 0 0 1-.062-.31v-7.618a.811.811 0 0 1 .813-.812h6.677a.815.815 0 0 1 .813.812v7.618a.807.807 0 0 1-.238.574.822.822 0 0 1-.575.237zm-5.854-1.631h5.04v-5.987h-5.04v5.987zm5.854 13.451h-6.677a.815.815 0 0 1-.813-.812v-7.627a.809.809 0 0 1 .813-.811h6.677a.81.81 0 0 1 .813.811v7.618a.81.81 0 0 1-.813.812v.009zm-5.854-1.632h5.04v-5.995h-5.04v5.995zm-8.456 13.451h-6.668a.815.815 0 0 1-.814-.811v-7.618a.81.81 0 0 1 .814-.812h6.676a.815.815 0 0 1 .813.812v7.618a.809.809 0 0 1-.813.811h-.009zm-5.855-1.632h5.041v-5.995h-5.041v5.995zm5.855 13.451h-6.668a.814.814 0 0 1-.814-.811v-7.618a.811.811 0 0 1 .814-.812h6.676a.815.815 0 0 1 .813.812v7.618a.811.811 0 0 1-.813.811h-.009zm-5.855-1.604h5.041v-5.996h-5.041v5.996zm20.165-10.215h-6.677a.815.815 0 0 1-.813-.811v-7.618a.81.81 0 0 1 .813-.812h6.677a.815.815 0 0 1 .813.812v7.618a.809.809 0 0 1-.813.811zm-5.854-1.632h5.04v-5.995h-5.04v5.995zm.244 13.451h-1.067a.814.814 0 0 1-.813-.811v-7.618a.811.811 0 0 1 .813-.812h6.677a.815.815 0 0 1 .813.812v4.625h-1.635v-3.814h-5.041v6.014h.243l.01 1.604zm-8.7 12.361h-6.668a.815.815 0 0 1-.814-.812v-7.618a.813.813 0 0 1 .814-.811h6.676a.814.814 0 0 1 .813.811v7.618a.811.811 0 0 1-.813.812h-.009zm-5.855-1.632h5.041v-6.022h-5.041v6.022zm14.555 1.632h-1.067a.815.815 0 0 1-.813-.812v-7.618a.813.813 0 0 1 .813-.811h1.066v1.587h-.243v5.995h.243v1.659zm-8.7 12.36h-6.668a.81.81 0 0 1-.814-.811v-7.618a.81.81 0 0 1 .814-.812h6.676a.815.815 0 0 1 .813.812v7.618a.807.807 0 0 1-.502.749.81.81 0 0 1-.31.062h-.01zm-5.855-1.632h5.041v-5.995h-5.041v5.995zm14.555 1.632h-1.067a.81.81 0 0 1-.813-.811v-7.618a.81.81 0 0 1 .813-.812h1.066v1.632h-.243v5.995h.243v1.614zm-8.7 12.369h-6.668a.814.814 0 0 1-.814-.811v-7.618a.811.811 0 0 1 .814-.812h6.676a.815.815 0 0 1 .813.812v7.6a.809.809 0 0 1-.813.811l-.009.018zm-5.855-1.632h5.041v-5.995h-5.041v5.995zm14.555 1.632h-1.067a.814.814 0 0 1-.813-.811v-7.618a.811.811 0 0 1 .813-.812h1.066v1.632h-.243v5.995h.243v1.614zm-23.003-37.09h-6.676a.814.814 0 0 1-.814-.811v-7.618a.811.811 0 0 1 .814-.812h6.676a.815.815 0 0 1 .813.812v7.618a.811.811 0 0 1-.813.811zm-5.854-1.604h5.041v-5.996h-5.041v5.996zm5.854 13.965h-6.676a.815.815 0 0 1-.814-.812v-7.618a.813.813 0 0 1 .814-.811h6.676a.814.814 0 0 1 .813.811v7.618a.811.811 0 0 1-.813.812zm-5.854-1.632h5.041v-6.022h-5.041v6.022zm5.854 13.992h-6.676a.81.81 0 0 1-.814-.811v-7.618a.81.81 0 0 1 .814-.812h6.676a.815.815 0 0 1 .813.812v7.618a.807.807 0 0 1-.502.749.81.81 0 0 1-.31.062zm-5.854-1.632h5.041v-5.995h-5.041v5.995zm-21.413 4.02v-6.085a.811.811 0 0 1 .813-.811h6.668a.814.814 0 0 1 .813.811v6.076h-1.617v-5.265h-5.042v5.265l-1.635.009zm12.215-11.512a.814.814 0 0 1 .818-.816.818.818 0 0 1 .817.816v11.513h-1.635v-11.513zm1.59 27.731a.814.814 0 0 1-.817.816.819.819 0 0 1-.818-.816h1.635zm41.56-92.119a.818.818 0 0 1-.817-.816.814.814 0 0 1 .817-.816h2.53a.818.818 0 0 1 .818.816.816.816 0 0 1-.818.816h-2.53zm-26.291 30.832a.816.816 0 0 1 1.396-.577c.154.153.24.361.24.577v42.499a.814.814 0 0 1-.818.816.819.819 0 0 1-.818-.816v-42.499zm193.723-19.572h-48.11v61.522h-1.635v-62.333a.813.813 0 0 1 .813-.812H250a.814.814 0 0 1 .813.812v26.884h-1.635v-26.073h.009zm-32.028 79.661h10.525v1.199h23.021a.822.822 0 0 1-.723.433h-49.718a.819.819 0 0 1-.723-.433h17.618v-1.199z"/><path fill-rule="evenodd" clip-rule="evenodd" d="M204.05 152.506a.817.817 0 1 1 0-1.632h7.273a.817.817 0 1 1 0 1.632h-7.273zm11.627 0a.817.817 0 0 1-.578-1.393.817.817 0 0 1 .578-.239h7.273a.817.817 0 0 1 .578 1.393.817.817 0 0 1-.578.239h-7.273zm11.637 0a.817.817 0 0 1-.578-1.393.817.817 0 0 1 .578-.239h7.273a.817.817 0 0 1 .578 1.393.817.817 0 0 1-.578.239h-7.273zm11.646 0a.817.817 0 0 1-.578-1.393.817.817 0 0 1 .578-.239h7.228a.817.817 0 1 1 0 1.632h-7.228zm-34.91 6.608a.815.815 0 1 1 0-1.632h7.273a.817.817 0 1 1 0 1.632h-7.273zm11.627 0a.817.817 0 0 1-.578-1.393.817.817 0 0 1 .578-.239h7.273a.817.817 0 0 1 .578 1.393.817.817 0 0 1-.578.239h-7.273zm11.637 0a.817.817 0 0 1-.578-1.393.817.817 0 0 1 .578-.239h7.273a.817.817 0 0 1 .578 1.393.817.817 0 0 1-.578.239h-7.273zm11.646 0a.817.817 0 0 1-.578-1.393.817.817 0 0 1 .578-.239h7.228a.817.817 0 1 1 0 1.632h-7.228zm-34.91 6.609a.817.817 0 1 1 0-1.632h7.273a.815.815 0 1 1 0 1.632h-7.273zm11.627 0a.817.817 0 0 1-.578-1.393.817.817 0 0 1 .578-.239h7.273a.817.817 0 0 1 .578 1.393.817.817 0 0 1-.578.239h-7.273zm11.637 0a.817.817 0 0 1-.578-1.393.817.817 0 0 1 .578-.239h7.273a.817.817 0 0 1 .578 1.393.817.817 0 0 1-.578.239h-7.273zm11.646 0a.817.817 0 0 1-.578-1.393.817.817 0 0 1 .578-.239h7.228a.815.815 0 1 1 0 1.632h-7.228zm-34.91 6.608a.815.815 0 1 1 0-1.632h7.273a.817.817 0 1 1 0 1.632h-7.273zm11.627 0a.817.817 0 0 1-.578-1.393.817.817 0 0 1 .578-.239h7.273a.817.817 0 0 1 .578 1.393.817.817 0 0 1-.578.239h-7.273zm11.637 0a.817.817 0 0 1-.578-1.393.817.817 0 0 1 .578-.239h.37v1.632h-.37zm-23.264 6.608a.814.814 0 1 1 0-1.631h7.273a.815.815 0 1 1 0 1.631h-7.273zm11.627 0a.817.817 0 0 1-.818-.815.816.816 0 0 1 .818-.816h7.273a.817.817 0 0 1 .818.816.815.815 0 0 1-.818.815h-7.273zm11.637 0a.817.817 0 0 1-.818-.815.817.817 0 0 1 .818-.816h.37v1.631h-.37zm-23.264 6.609a.817.817 0 1 1 0-1.632h7.273a.817.817 0 1 1 0 1.632h-7.273zm11.627 0a.817.817 0 0 1-.578-1.393.817.817 0 0 1 .578-.239h7.273a.817.817 0 0 1 .578 1.393.817.817 0 0 1-.578.239h-7.273zm11.637 0a.817.817 0 0 1-.578-1.393.817.817 0 0 1 .578-.239h.37v1.632h-.37zm-23.264 6.608a.815.815 0 1 1 0-1.632h7.273a.817.817 0 1 1 0 1.632h-7.273zm11.627 0a.817.817 0 0 1-.578-1.393.817.817 0 0 1 .578-.239h7.273a.817.817 0 0 1 .578 1.393.817.817 0 0 1-.578.239h-7.273zm11.637 0a.817.817 0 0 1-.578-1.393.817.817 0 0 1 .578-.239h.37v1.632h-.37zm-23.264 6.609a.817.817 0 1 1 0-1.632h7.273a.815.815 0 1 1 0 1.632h-7.273zm11.627 0a.817.817 0 0 1-.578-1.393.817.817 0 0 1 .578-.239h7.273a.817.817 0 0 1 .578 1.393.817.817 0 0 1-.578.239h-7.273zm11.637 0a.817.817 0 0 1-.578-1.393.817.817 0 0 1 .578-.239h.37v1.632h-.37zm-23.264 6.608a.817.817 0 1 1 0-1.632h7.273a.817.817 0 1 1 0 1.632h-7.273zm11.627 0a.817.817 0 0 1-.578-1.393.817.817 0 0 1 .578-.239h7.273a.817.817 0 0 1 .578 1.393.817.817 0 0 1-.578.239h-7.273zm11.637 0a.817.817 0 0 1-.578-1.393.817.817 0 0 1 .578-.239h.37v1.632h-.37zm-10.155 4.977h5.791a.817.817 0 0 1 .818.816.815.815 0 0 1-.818.815h-5.791v-1.631zm10.155 1.631a.817.817 0 0 1-.818-.815.817.817 0 0 1 .818-.816h.37v1.631h-.37zm-10.155 4.977h5.791a.817.817 0 0 1 .578 1.393.817.817 0 0 1-.578.239h-5.791v-1.632zm10.155 1.632a.817.817 0 0 1-.578-1.393.817.817 0 0 1 .578-.239h.37v1.632h-.37z"/><path fill-rule="evenodd" clip-rule="evenodd" d="M341.305 171.06h-24.24v3.381a.815.815 0 0 1-.813.811H253.56a.813.813 0 0 1-.813-.811v-3.381h-24.241v53.191h112.799V171.06zm-25.053-1.632h25.875a.814.814 0 0 1 .813.812v54.787a.81.81 0 0 1-.813.811H227.684a.813.813 0 0 1-.813-.811v-54.805a.811.811 0 0 1 .813-.812h25.876a.811.811 0 0 1 .813.812v3.38h61.048v-3.38a.817.817 0 0 1 .241-.577.811.811 0 0 1 .581-.235l.009.018z"/><path fill-rule="evenodd" clip-rule="evenodd" d="M262.161 173.765h45.463v-8.61h-45.463v8.61zm46.303 1.632h-47.116a.814.814 0 0 1-.813-.812v-10.278a.814.814 0 0 1 .813-.811h47.116a.815.815 0 0 1 .813.811v10.242a.813.813 0 0 1-.813.811v.037zm-71.312 11.891h6.415v-6.211h-6.415v6.211zm7.228 1.632h-8.05a.813.813 0 0 1-.813-.811v-7.835a.81.81 0 0 1 .813-.811h8.05a.81.81 0 0 1 .813.811v7.835a.799.799 0 0 1-.225.597.815.815 0 0 1-.588.25v-.036zm-7.228 12.847h6.415v-6.212h-6.415v6.212zm7.228 1.632h-8.05a.813.813 0 0 1-.813-.812v-7.834a.813.813 0 0 1 .813-.812h8.05a.814.814 0 0 1 .813.812v7.861a.815.815 0 0 1-.813.785zm-7.228 12.81h6.415v-6.211h-6.415v6.211zm7.228 1.632h-8.05a.813.813 0 0 1-.813-.811v-7.835a.815.815 0 0 1 .813-.811h8.05a.813.813 0 0 1 .813.811v7.844a.812.812 0 0 1-.813.802zm9.731-25.432h6.812v-11.287h-6.812v11.287zm7.625 1.632h-8.447a.814.814 0 0 1-.813-.811v-12.92a.814.814 0 0 1 .813-.811h8.447a.814.814 0 0 1 .813.811v12.92a.814.814 0 0 1-.813.811zm-7.625 22.169h6.812v-11.287h-6.812v11.287zm7.625 1.632h-8.447a.814.814 0 0 1-.813-.812v-12.919a.81.81 0 0 1 .813-.811h8.447a.813.813 0 0 1 .813.811v12.928a.809.809 0 0 1-.813.803zm6.135-25.433h6.812v-11.287h-6.812v11.287zm7.625 1.632h-8.448a.813.813 0 0 1-.813-.811v-12.92a.813.813 0 0 1 .813-.811h8.448a.815.815 0 0 1 .813.811v12.92a.81.81 0 0 1-.777.811h-.036zm-7.625 22.169h6.812v-11.287h-6.812v11.287zm7.625 1.632h-8.448a.813.813 0 0 1-.813-.812v-12.919a.812.812 0 0 1 .813-.811h8.448a.814.814 0 0 1 .813.811v12.928a.812.812 0 0 1-.777.803h-.036zm6.198-25.433h6.812v-11.287h-6.812v11.287zm7.625 1.632h-8.438a.815.815 0 0 1-.813-.811v-12.92a.81.81 0 0 1 .813-.811h8.447a.814.814 0 0 1 .814.811v12.92a.814.814 0 0 1-.814.811h-.009zm-7.625 22.169h6.812v-11.287h-6.812v11.287zm7.625 1.632h-8.438a.815.815 0 0 1-.813-.812v-12.919a.815.815 0 0 1 .813-.811h8.447a.813.813 0 0 1 .814.811v12.928a.814.814 0 0 1-.814.803h-.009zm6.171-25.433h6.812v-11.287h-6.812v11.287zm7.626 1.632h-8.448a.815.815 0 0 1-.813-.811v-12.92a.81.81 0 0 1 .813-.811h8.439a.813.813 0 0 1 .813.811v12.92a.813.813 0 0 1-.813.811h.009zm-7.626 22.169h6.812v-11.287h-6.812v11.287zm7.626 1.632h-8.448a.815.815 0 0 1-.813-.812v-12.919a.815.815 0 0 1 .813-.811h8.439a.812.812 0 0 1 .813.811v12.928a.81.81 0 0 1-.242.568.81.81 0 0 1-.571.235h.009zm6.17-25.433h6.812v-11.287h-6.812v11.287zm7.625 1.632h-8.447a.814.814 0 0 1-.814-.811v-12.92a.814.814 0 0 1 .814-.811h8.447a.815.815 0 0 1 .813.811v12.92a.81.81 0 0 1-.813.811zm-7.625 22.169h6.812v-11.287h-6.812v11.287zm7.625 1.632h-8.447a.814.814 0 0 1-.814-.812v-12.919a.812.812 0 0 1 .814-.811h8.447a.814.814 0 0 1 .813.811v12.928a.809.809 0 0 1-.813.803zm10.218-30.554h6.415v-6.211h-6.415v6.211zm7.228 1.632h-8.05a.813.813 0 0 1-.813-.811v-7.835a.81.81 0 0 1 .813-.811h8.05a.81.81 0 0 1 .813.811v7.835a.806.806 0 0 1-.487.78.823.823 0 0 1-.317.067l-.009-.036zm-7.228 12.847h6.415v-6.212h-6.415v6.212zm7.228 1.632h-8.05a.813.813 0 0 1-.813-.812v-7.834a.813.813 0 0 1 .813-.812h8.05a.814.814 0 0 1 .813.812v7.861a.814.814 0 0 1-.804.785h-.009zm-7.228 12.81h6.415v-6.211h-6.415v6.211zm7.228 1.632h-8.05a.813.813 0 0 1-.813-.811v-7.835a.815.815 0 0 1 .813-.811h8.05a.813.813 0 0 1 .813.811v7.844a.809.809 0 0 1-.804.802h-.009zM156.346 162.64l17.32 9.105h4.761a.815.815 0 0 1 .813.812v33.114h-1.635v-32.303h-4.138a.827.827 0 0 1-.38-.099l-17.12-9.015-6.451 3.407v-1.803l6.053-3.182a.81.81 0 0 1 .759 0l.018-.036zm22.885 62.369a.815.815 0 0 1-.813.811h-44.903a.815.815 0 0 1-.813-.811h16.814v-.812h26.968v.812h2.747z"/><path fill-rule="evenodd" clip-rule="evenodd" d="M155.975 167.913a4.525 4.525 0 0 1 4.274 2.781 4.508 4.508 0 0 1-1.048 4.982 4.511 4.511 0 0 1-3.217 1.342 4.516 4.516 0 0 1-3.216-1.342l-.045-.054a4.507 4.507 0 0 1 3.271-7.718l-.019.009zm2.069 2.48a2.928 2.928 0 0 0-4.954 2.039c-.018.76.262 1.496.78 2.054a2.936 2.936 0 0 0 4.077-.061 2.912 2.912 0 0 0 .061-4.068l.036.036zm-8.528 10.945h2.475a.81.81 0 0 1 .813.811v4.454a.81.81 0 0 1-.813.811h-2.475v-1.631h1.653v-2.822h-1.653v-1.623zm0 11.008h2.475a.813.813 0 0 1 .813.811v4.454a.81.81 0 0 1-.813.811h-2.475v-1.632h1.653v-2.831h-1.653v-1.613zm0 11.008h2.475a.813.813 0 0 1 .813.811v4.454a.805.805 0 0 1-.238.573.807.807 0 0 1-.575.238h-2.475v-1.632h1.653v-2.831h-1.653v-1.613zm0 10.98h2.475a.81.81 0 0 1 .813.811v4.454a.809.809 0 0 1-.813.811h-2.475v-1.568h1.653v-2.831h-1.653v-1.677zm10.417-32.996h11.212a.813.813 0 0 1 .813.811v4.454a.815.815 0 0 1-.813.811h-11.212a.825.825 0 0 1-.575-.237.805.805 0 0 1-.238-.574v-4.454a.805.805 0 0 1 .238-.573.807.807 0 0 1 .575-.238zm10.363 1.623h-9.55v2.831h9.55v-2.831zm-10.363 9.385h11.212a.815.815 0 0 1 .813.811v4.454a.81.81 0 0 1-.813.811h-11.212a.807.807 0 0 1-.575-.238.805.805 0 0 1-.238-.573v-4.454a.805.805 0 0 1 .238-.574.814.814 0 0 1 .575-.237zm10.363 1.632h-9.55v2.83h9.55v-2.83zm-10.363 9.376h11.212a.813.813 0 0 1 .813.811v4.454a.805.805 0 0 1-.238.573.81.81 0 0 1-.575.238h-11.212a.807.807 0 0 1-.575-.238.805.805 0 0 1-.238-.573v-4.454a.81.81 0 0 1 .813-.811zm10.363 1.631h-9.55v2.831h9.55v-2.831zm-10.363 9.349h11.212a.813.813 0 0 1 .813.811v4.454a.813.813 0 0 1-.813.811h-11.212a.825.825 0 0 1-.575-.237.8.8 0 0 1-.238-.574v-4.454a.805.805 0 0 1 .238-.573.807.807 0 0 1 .575-.238zm10.363 1.659h-9.55v2.849h9.55v-2.849zm46.863 9.827h-40.656a.813.813 0 0 1-.814-.811v-19.338a.814.814 0 0 1 .814-.812h40.656a.815.815 0 0 1 .813.812v19.338a.813.813 0 0 1-.813.811zm-39.843-1.631h39.057v-17.707h-39.03l-.027 17.707z"/><path fill-rule="evenodd" clip-rule="evenodd" d="M183.585 205.67a.818.818 0 0 1 1.636 0v18.753a.814.814 0 0 1-.818.815.816.816 0 0 1-.818-.815V205.67zm24.864 0a.814.814 0 0 1 .818-.816.817.817 0 0 1 .818.816v18.753a.818.818 0 0 1-1.636 0V205.67zm-78.024 18.527h18.296V96.024h-46.637v76.37h-1.636v-77.19a.807.807 0 0 1 .502-.75.82.82 0 0 1 .311-.061h48.255a.816.816 0 0 1 .813.811v129.823a.815.815 0 0 1-.813.811h-48.255a.815.815 0 0 1-.813-.811h29.977v-.83z"/><path fill-rule="evenodd" clip-rule="evenodd" d="M106.953 94.428h36.898V82.582h-36.898v11.846zm37.711 1.632h-38.515a.814.814 0 0 1-.813-.811V81.807a.812.812 0 0 1 .813-.812h38.533a.813.813 0 0 1 .813.811V95.24a.809.809 0 0 1-.831.784v.036z"/><path fill-rule="evenodd" clip-rule="evenodd" d="M105.526 81.23l19.217-26.334a.806.806 0 0 1 .655-.33.816.816 0 0 1 .655.33l19.262 26.397a.81.81 0 0 1-.181 1.136.805.805 0 0 1-.479.154h-38.506a.813.813 0 0 1-.614-1.353h-.009zm19.876-24.477L107.739 80.96h35.326l-17.663-24.207z"/><path fill-rule="evenodd" clip-rule="evenodd" d="M126.215 55.373a.816.816 0 0 1-1.395.577.813.813 0 0 1-.24-.577V22.602a.817.817 0 0 1 1.635 0v32.771zm-12.477 117.021v-62.639a5.232 5.232 0 0 0-.993-3.147v-.054a2.841 2.841 0 0 0-4.753.054 5.247 5.247 0 0 0-.993 3.156v62.684h-1.636v-62.693a7.76 7.76 0 0 1 1.473-4.67 4.196 4.196 0 0 1 3.506-1.941 4.201 4.201 0 0 1 3.541 1.878l.045.063a7.76 7.76 0 0 1 1.437 4.67v62.684l-1.627-.045zm15.052 0v-62.639a5.226 5.226 0 0 0-.994-3.147v-.054a2.842 2.842 0 0 0-3.738-.9 2.837 2.837 0 0 0-1.014.954 5.255 5.255 0 0 0-.994 3.156v62.684h-1.635v-62.693a7.754 7.754 0 0 1 1.473-4.67 4.203 4.203 0 0 1 7.047-.063l.045.063a7.76 7.76 0 0 1 1.473 4.67v62.684l-1.663-.045zm15.061 52.615V109.755a5.226 5.226 0 0 0-.994-3.147v-.054a2.842 2.842 0 0 0-3.738-.9 2.837 2.837 0 0 0-1.014.954 5.255 5.255 0 0 0-.994 3.156v115.245h-1.635V109.755a7.754 7.754 0 0 1 1.473-4.67 4.203 4.203 0 0 1 7.047-.063l.045.063a7.76 7.76 0 0 1 1.473 4.67v115.254h-1.663zM76.66 177.056h53.765a.825.825 0 0 1 .575.237.825.825 0 0 1 .238.574v47.142a.813.813 0 0 1-.813.811H76.659a.814.814 0 0 1-.813-.811v-47.142a.807.807 0 0 1 .238-.574.824.824 0 0 1 .575-.237zm52.979 1.631H77.472v45.511h52.167v-45.511z"/><path fill-rule="evenodd" clip-rule="evenodd" d="M96.21 177.055h33.429v-3.849H96.21v3.849zm34.215 1.632H95.388a.814.814 0 0 1-.813-.811v-5.482a.807.807 0 0 1 .502-.749.81.81 0 0 1 .311-.062h35.037a.807.807 0 0 1 .575.238.81.81 0 0 1 .238.573v5.482a.815.815 0 0 1-.813.811zm-12.956 9.358h5.322v-4.886h-5.322v4.886zm6.135 1.632h-6.957a.811.811 0 0 1-.813-.811v-6.518a.811.811 0 0 1 .813-.812h6.957a.815.815 0 0 1 .813.812v6.518a.81.81 0 0 1-.804.802l-.009.009zm-22.722-1.632h5.312v-4.886h-5.312v4.886zm6.134 1.632h-6.948a.81.81 0 0 1-.813-.811v-6.518a.81.81 0 0 1 .813-.812h6.984a.815.815 0 0 1 .813.812v6.518a.812.812 0 0 1-.813.802l-.036.009zm10.453 9.277h5.322v-4.887h-5.322v4.887zm6.135 1.631h-6.957a.814.814 0 0 1-.813-.811v-6.518a.813.813 0 0 1 .813-.812h6.957a.815.815 0 0 1 .813.812v6.518a.81.81 0 0 1-.804.811h-.009zm-22.722-1.631h5.312v-4.887h-5.312v4.887zm6.134 1.631h-6.948a.814.814 0 0 1-.813-.811v-6.518a.811.811 0 0 1 .813-.812h6.984a.815.815 0 0 1 .813.812v6.518a.82.82 0 0 1-.238.574.82.82 0 0 1-.575.237h-.036zm10.453 9.286h5.322v-4.886h-5.322v4.886zm6.135 1.632h-6.957a.814.814 0 0 1-.813-.811v-6.518a.811.811 0 0 1 .813-.812h6.957a.815.815 0 0 1 .813.812v6.554a.81.81 0 0 1-.804.775h-.009zm-22.722-1.632h5.312v-4.886h-5.312v4.886zm6.134 1.632h-6.948a.814.814 0 0 1-.813-.811v-6.518a.81.81 0 0 1 .813-.812h6.984a.815.815 0 0 1 .813.812v6.554a.808.808 0 0 1-.813.775h-.036zm10.453 9.286h5.322v-4.886h-5.322v4.886zm6.135 1.632h-6.957a.814.814 0 0 1-.813-.811v-6.518a.811.811 0 0 1 .813-.812h6.957a.815.815 0 0 1 .813.812v6.518a.799.799 0 0 1-.225.588.818.818 0 0 1-.579.25l-.009-.027zm-22.722-1.631h5.312v-4.887h-5.312v4.887zm6.17 1.659h-6.947a.81.81 0 0 1-.814-.812v-6.518a.812.812 0 0 1 .814-.811h6.947a.82.82 0 0 1 .752.5c.04.099.061.204.061.311v6.518a.808.808 0 0 1-.501.75.815.815 0 0 1-.312.062zm-16.994-44.582a.814.814 0 0 1 .818-.816.818.818 0 0 1 .817.816v47.142a.816.816 0 0 1-.817.815.818.818 0 0 1-.818-.815v-47.142zM60.162 225.82H11.9a.814.814 0 0 1-.814-.811v-16.228a.813.813 0 0 1 .814-.811h48.263a.822.822 0 0 1 .751.501.805.805 0 0 1 .062.31v16.228a.805.805 0 0 1-.238.574.822.822 0 0 1-.575.237zm-47.46-1.631H59.35v-14.587H12.712l-.01 14.587z"/><path fill-rule="evenodd" clip-rule="evenodd" d="M.822 225.82a.819.819 0 0 1-.818-.816.816.816 0 0 1 .818-.816h577.365a.817.817 0 0 1 .578 1.393.817.817 0 0 1-.578.239H.822zM101.631 69.086H63.469l-.235-.208a5.09 5.09 0 0 1-1.174-6.151 5.1 5.1 0 0 1 2.391-2.295 5.115 5.115 0 0 1 3.3-.344c-.119-1.504.317-3 1.225-4.206a6.218 6.218 0 0 1 8.041-1.659 6.197 6.197 0 0 1 2.796 3.377 3.494 3.494 0 0 1 2.426.4 3.482 3.482 0 0 1 1.657 2.26 6.816 6.816 0 0 1 3.976-.478 5.012 5.012 0 0 1 1.84-2.375 5.03 5.03 0 0 1 7.583 2.375 4.933 4.933 0 0 1 2.394.342 6.5 6.5 0 0 1 2.331 1.55 5.187 5.187 0 0 1 1.391 2.705 5.922 5.922 0 0 1-1.147 4.409l-.244.36-.389-.062zm-9.197-1.632h8.755a4.15 4.15 0 0 0 .659-2.858 3.602 3.602 0 0 0-.957-1.803 4.859 4.859 0 0 0-1.744-1.163 2.616 2.616 0 0 0-1.997-.127.786.786 0 0 1-1.174-.577 3.389 3.389 0 0 0-1.17-1.981 3.402 3.402 0 0 0-5.507 1.981c0 .578-.398.902-1.039.632a5.216 5.216 0 0 0-4.635.793c-.686.568-1.644.198-1.274-.847a1.854 1.854 0 0 0-.655-1.95 1.864 1.864 0 0 0-2.055-.151.713.713 0 0 1-1.175-.577 4.564 4.564 0 0 0-2.045-3.08 4.586 4.586 0 0 0-6.54 1.754 4.563 4.563 0 0 0-.223 3.688c.46 1.01-.434 1.352-1.202.965a3.484 3.484 0 0 0-4.525.769 3.466 3.466 0 0 0 .18 4.577l28.323-.045zM38.28 145.51H15.639l-.235-.207a4.146 4.146 0 0 1-1-4.905 4.155 4.155 0 0 1 1.838-1.898 4.177 4.177 0 0 1 2.613-.41 5.018 5.018 0 0 1 3.155-4.809 5.036 5.036 0 0 1 5.609 1.311c.415.462.74.997.957 1.578a2.92 2.92 0 0 1 2.205.586c.439.348.768.814.949 1.343v.099a5.509 5.509 0 0 1 7.386 3.658 5.48 5.48 0 0 1-.06 3.059l-.18.577-.596.018zm-22.018-1.632h21.376a3.86 3.86 0 0 0-1.834-3.897 3.887 3.887 0 0 0-4.31.21c-.686.811-1.698.252-1.273-.848.07-.235.07-.485 0-.721a1.276 1.276 0 0 0-1.088-.853 1.268 1.268 0 0 0-.71.141c-.497.333-1.156.261-1.175-.577a3.391 3.391 0 0 0-2.827-2.787 3.405 3.405 0 0 0-2.655.711 3.382 3.382 0 0 0-1.05 3.825c.497 1.163-.262 1.406-1.201.965a2.53 2.53 0 0 0-3.883 2.191 2.52 2.52 0 0 0 .666 1.649l-.036-.009zM335.216 26.497h-43.521l-.235-.208a5.087 5.087 0 0 1 1.218-8.446 5.115 5.115 0 0 1 3.3-.344c-.119-1.504.317-3 1.224-4.205a6.22 6.22 0 0 1 8.042-1.659 6.2 6.2 0 0 1 2.795 3.376 3.493 3.493 0 0 1 3.984 2.299c.04.118.073.239.1.36a6.816 6.816 0 0 1 3.975-.477 5.03 5.03 0 0 1 9.414 0 2.92 2.92 0 0 1 2.205.586c.438.348.768.814.948 1.343v.1a5.516 5.516 0 0 1 5.778 1.038 5.484 5.484 0 0 1 1.55 5.65l-.181.578-.596.009zm-14.591-1.632h13.949a3.864 3.864 0 0 0-1.834-3.897 3.881 3.881 0 0 0-4.309.21.798.798 0 0 1-.959.058.79.79 0 0 1-.315-.906 1.281 1.281 0 0 0-.443-1.316 1.277 1.277 0 0 0-1.382-.126.752.752 0 0 1-1.175-.577 3.399 3.399 0 0 0-6.677 0 .652.652 0 0 1-.309.66.659.659 0 0 1-.73-.03 5.214 5.214 0 0 0-4.634.794c-.579.577-1.545.126-1.274-.847a1.852 1.852 0 0 0-.656-1.95 1.861 1.861 0 0 0-2.055-.151.72.72 0 0 1-1.069-.188.721.721 0 0 1-.105-.389 4.579 4.579 0 0 0-7.39-2.789 4.561 4.561 0 0 0-1.419 5.151c.37.694-.334 1.722-1.202.965a3.484 3.484 0 0 0-4.525.769 3.467 3.467 0 0 0 .18 4.577l28.333-.018zM226.311 78.39h-22.659l-.235-.207a4.152 4.152 0 0 1 .838-6.803 4.174 4.174 0 0 1 2.613-.41 5.007 5.007 0 0 1 3.156-4.809 5.032 5.032 0 0 1 5.608 1.311c.416.461.74.997.958 1.578a2.904 2.904 0 0 1 3.162 1.938v.1a5.512 5.512 0 0 1 5.782 1.071 5.49 5.49 0 0 1 1.509 5.672l-.181.577-.551-.018zm-22.018-1.632h21.368a3.863 3.863 0 0 0-1.834-3.897 3.885 3.885 0 0 0-4.31.21c-.687.811-1.699.252-1.274-.848a1.272 1.272 0 0 0-1.825-1.442c-.497.333-1.156.261-1.174-.577a3.39 3.39 0 0 0-2.828-2.787 3.404 3.404 0 0 0-3.543 1.797c-.216.42-.343.88-.371 1.353a3.41 3.41 0 0 0 .209 1.386c.497 1.163-.262 1.406-1.201.964a2.533 2.533 0 0 0-3.295.514 2.525 2.525 0 0 0 .078 3.327zm220.014-21.772h-22.65l-.235-.207a4.151 4.151 0 0 1 .839-6.802 4.172 4.172 0 0 1 2.613-.41 5 5 0 0 1 .814-2.905 5.032 5.032 0 0 1 7.949-.603c.416.462.741.997.958 1.578a2.905 2.905 0 0 1 3.162 1.911v.1a5.514 5.514 0 0 1 5.824 1.055 5.473 5.473 0 0 1 1.494 5.715l-.18.577-.588-.009zm-22.017-1.632h21.367a3.863 3.863 0 0 0-1.834-3.897 3.881 3.881 0 0 0-4.31.21c-.686.811-1.698.252-1.274-.848a1.272 1.272 0 0 0-1.825-1.442c-.496.334-1.156.261-1.174-.577a3.39 3.39 0 0 0-2.828-2.787 3.402 3.402 0 0 0-3.542 1.798 3.381 3.381 0 0 0-.162 2.738c.497 1.163-.262 1.406-1.202.965a2.533 2.533 0 0 0-3.295.513 2.526 2.526 0 0 0-.588 1.679c.015.612.252 1.197.667 1.648zm153.084 41.228h-38.145l-.234-.208a5.089 5.089 0 0 1 1.217-8.446 5.115 5.115 0 0 1 3.3-.344c-.119-1.504.317-3 1.225-4.206a6.218 6.218 0 0 1 8.041-1.659 6.192 6.192 0 0 1 2.795 3.377 3.497 3.497 0 0 1 2.427.4 3.482 3.482 0 0 1 1.657 2.26 6.807 6.807 0 0 1 3.975-.478 5.016 5.016 0 0 1 6.323-3.025 5.014 5.014 0 0 1 3.091 2.998 4.936 4.936 0 0 1 2.395.342c.88.342 1.676.871 2.331 1.55a5.194 5.194 0 0 1 1.391 2.706 5.923 5.923 0 0 1-1.147 4.408l-.244.36-.398-.035zm-9.233-1.632h8.754a4.15 4.15 0 0 0 .66-2.858 3.604 3.604 0 0 0-.958-1.803 4.837 4.837 0 0 0-1.744-1.163 2.615 2.615 0 0 0-1.996-.126.788.788 0 0 1-1.175-.577 3.399 3.399 0 0 0-6.676 0c0 .577-.398.901-1.039.63a5.22 5.22 0 0 0-4.635.794c-.687.568-1.645.198-1.274-.847a1.852 1.852 0 0 0-.656-1.95 1.862 1.862 0 0 0-2.055-.151.713.713 0 0 1-1.174-.577 4.563 4.563 0 0 0-2.045-3.08 4.588 4.588 0 0 0-6.541 1.754 4.57 4.57 0 0 0-.223 3.688c.461 1.01-.434 1.352-1.202.965a3.483 3.483 0 0 0-4.525.769 3.467 3.467 0 0 0 .18 4.577l28.324-.045z"/></g><defs><clipPath id="clip0"><path fill="#fff" d="M0 0h579v226H0z"/></clipPath></defs></svg>