<svg xmlns="http://www.w3.org/2000/svg" width="124.4" height="80.042"><path d="M32.451 23.601c1.877-6.825 6.177-12.064 9.229-15.092 1.77-1.756 1.869-4.574.192-6.419l-.512-.563C39.961-.012 37.692-.457 35.85.51-.744 19.719-.287 45.772.074 50.195c-.025.488-.074.97-.074 1.465 0 15.675 12.707 28.382 28.382 28.382S56.765 67.335 56.765 51.66c0-14.291-10.571-26.081-24.314-28.059zm67.635 0c1.877-6.825 6.177-12.064 9.229-15.092 1.77-1.756 1.869-4.574.192-6.419l-.512-.563c-1.399-1.539-3.668-1.984-5.509-1.017-36.595 19.209-36.138 45.262-35.777 49.685-.025.488-.074.97-.074 1.465 0 15.675 12.707 28.382 28.383 28.382 15.675 0 28.382-12.707 28.382-28.382 0-14.291-10.571-26.081-24.314-28.059z" fill="#F7FAFF"/></svg>