<svg width="15" height="16" viewBox="0 0 15 16" fill="none" xmlns="http://www.w3.org/2000/svg">
<path d="M1.6125 15.1329L2.6025 13.7154C1.0125 12.328 0 10.2846 0 8C0 3.83789 3.36 0.459943 7.5 0.459943C8.835 0.459943 10.08 0.806786 11.1675 1.41753L12.1575 0L13.3875 0.867106L12.3975 2.28464C13.9875 3.67201 15 5.71536 15 8C15 12.1621 11.64 15.5401 7.5 15.5401C6.165 15.5401 4.92 15.1932 3.8325 14.5825L2.8425 16L1.6125 15.1329ZM7.5 1.96795C4.185 1.96795 1.5 4.66729 1.5 8C1.5 9.77191 2.25 11.3629 3.4725 12.4713L10.2975 2.66164C9.465 2.21678 8.5125 1.96795 7.5 1.96795ZM7.5 14.032C10.815 14.032 13.5 11.3327 13.5 8C13.5 6.22809 12.75 4.63714 11.5275 3.52875L4.7025 13.3384C5.535 13.7832 6.4875 14.032 7.5 14.032Z" fill="#0B91DB"/>
</svg>
