<svg width="52" height="43" viewBox="0 0 52 43" fill="none" xmlns="http://www.w3.org/2000/svg">
<path d="M31.3651 34.7306C32.7303 34.7306 33.8413 33.6176 33.8413 32.2499H38.7936C40.1589 32.2499 41.2698 31.1368 41.2698 29.7691V20.6729C41.2698 19.3052 40.1589 18.1922 38.7936 18.1922H35.4921C35.2255 18.1922 34.9754 18.3212 34.8202 18.5387L31.7538 22.8395L30.2277 18.6371C29.8018 17.4603 28.4886 16.5383 27.2381 16.5383H14.0317C12.7813 16.5383 11.4681 17.4603 11.0413 18.6371L9.51517 22.8403L6.44883 18.5387C6.29448 18.3212 6.04438 18.1922 5.77778 18.1922H2.47619C1.11098 18.1922 0 19.3052 0 20.6729V29.7691C0 31.1368 1.11098 32.2499 2.47619 32.2499H7.42857C7.42857 33.6176 8.53955 34.7306 9.90476 34.7306H18.1587V36.3845H8.25397C7.79752 36.3845 7.42857 36.7541 7.42857 37.2114V42.1729C7.42857 42.6302 7.79752 42.9999 8.25397 42.9999H33.0159C33.4723 42.9999 33.8413 42.6302 33.8413 42.1729V37.2114C33.8413 36.7541 33.4723 36.3845 33.0159 36.3845H23.1111V34.7306H31.3651ZM35.9171 19.846H38.7936C39.2493 19.846 39.619 20.2165 39.619 20.6729V29.7691C39.619 30.2256 39.2493 30.596 38.7936 30.596H33.8413V25.6345C33.8413 24.9308 33.5441 24.2998 33.0637 23.8483L35.9171 19.846ZM2.47619 30.596C2.02057 30.596 1.65079 30.2256 1.65079 29.7691V20.6729C1.65079 20.2165 2.02057 19.846 2.47619 19.846H5.3527L8.20279 23.8434C7.72902 24.2957 7.42857 24.9283 7.42857 25.6345V30.596H2.47619ZM9.07936 32.2499V25.6345C9.07936 25.178 9.44914 24.8076 9.97987 24.8076C10.3274 24.8076 10.6369 24.5901 10.7549 24.2634L12.5923 19.2027C12.7837 18.6734 13.4697 18.1922 14.0317 18.1922H27.2381C27.8002 18.1922 28.4861 18.6734 28.6776 19.2027L30.5149 24.2634C30.633 24.5901 31.0176 24.8076 31.3651 24.8076C31.8207 24.8076 32.1905 25.178 32.1905 25.6345V32.2499C32.1905 32.7063 31.8207 33.0768 31.3651 33.0768H22.2857H18.9841H9.90476C9.44914 33.0768 9.07936 32.7063 9.07936 32.2499ZM32.1905 41.346H9.07936V38.0383H18.9841H22.2857H32.1905V41.346ZM21.4603 36.3845H19.8095V34.7306H21.4603V36.3845Z" fill="url(#paint0_linear)"/>
<path d="M13.4933 24.8077H27.7768C28.0459 24.8077 28.2985 24.6762 28.4528 24.4555C28.6072 24.2338 28.6435 23.9519 28.5518 23.698L27.3517 20.3903C27.2329 20.0628 26.9233 19.8462 26.5767 19.8462H14.6934C14.3459 19.8462 14.0364 20.0637 13.9176 20.3903L12.7174 23.698C12.6258 23.9519 12.663 24.2338 12.8165 24.4555C12.9717 24.6762 13.2234 24.8077 13.4933 24.8077ZM15.2712 21.5H25.9981L26.5981 23.1539H14.6711L15.2712 21.5Z" fill="url(#paint1_linear)"/>
<path d="M13.2067 26.4614C11.8415 26.4614 10.7305 27.5745 10.7305 28.9422C10.7305 30.3099 11.8415 31.423 13.2067 31.423C14.5719 31.423 15.6828 30.3099 15.6828 28.9422C15.6828 27.5745 14.5719 26.4614 13.2067 26.4614ZM13.2067 29.7691C12.751 29.7691 12.3813 29.3987 12.3813 28.9422C12.3813 28.4857 12.751 28.1153 13.2067 28.1153C13.6623 28.1153 14.0321 28.4857 14.0321 28.9422C14.0321 29.3987 13.6623 29.7691 13.2067 29.7691Z" fill="url(#paint2_linear)"/>
<path d="M25.5869 28.9422C25.5869 30.3099 26.6979 31.423 28.0631 31.423C29.4283 31.423 30.5393 30.3099 30.5393 28.9422C30.5393 27.5745 29.4283 26.4614 28.0631 26.4614C26.6979 26.4614 25.5869 27.5745 25.5869 28.9422ZM28.8885 28.9422C28.8885 29.3987 28.5187 29.7691 28.0631 29.7691C27.6075 29.7691 27.2377 29.3987 27.2377 28.9422C27.2377 28.4857 27.6075 28.1153 28.0631 28.1153C28.5187 28.1153 28.8885 28.4857 28.8885 28.9422Z" fill="url(#paint3_linear)"/>
<path d="M24.3495 30.5962C24.3495 30.1389 23.9805 29.7693 23.5241 29.7693H17.7463C17.2899 29.7693 16.9209 30.1389 16.9209 30.5962C16.9209 31.0535 17.2899 31.4231 17.7463 31.4231H23.5241C23.9805 31.4231 24.3495 31.0535 24.3495 30.5962Z" fill="url(#paint4_linear)"/>
<path d="M18.9836 27.2885C18.5272 27.2885 18.1582 27.6581 18.1582 28.1154C18.1582 28.5727 18.5272 28.9423 18.9836 28.9423H22.2852C22.7416 28.9423 23.1106 28.5727 23.1106 28.1154C23.1106 27.6581 22.7416 27.2885 22.2852 27.2885H18.9836Z" fill="url(#paint5_linear)"/>
<path d="M49.5245 29.7692V7.42163C50.5207 6.66583 51.1753 5.48002 51.1753 4.13462C51.1753 1.85479 49.3239 0 47.0483 0C45.7053 0 44.5217 0.65575 43.7673 1.65385H22.7965C22.2154 1.14612 21.4659 0.826923 20.6356 0.826923C18.8147 0.826923 17.334 2.31042 17.334 4.13462C17.334 5.67104 18.3897 6.95525 19.8102 7.32488V9.5799L18.4012 10.9915C18.246 11.1469 18.1594 11.357 18.1594 11.5769V13.2308C18.1594 13.6881 18.5283 14.0577 18.9848 14.0577C19.4412 14.0577 19.8102 13.6881 19.8102 13.2308V11.9193L20.6356 11.0923L21.461 11.9193V13.2308C21.461 13.6881 21.8299 14.0577 22.2864 14.0577C22.7428 14.0577 23.1118 13.6881 23.1118 13.2308V11.5769C23.1118 11.357 23.0243 11.1469 22.8699 10.9923L21.461 9.58073V7.32571C21.9636 7.19423 22.416 6.94864 22.7965 6.61621H43.7673C43.9976 6.92135 44.2667 7.19092 44.5721 7.42246V29.7692C43.2069 29.7692 42.0959 30.8823 42.0959 32.25V36.3846H40.4451C39.0799 36.3846 37.9689 37.4977 37.9689 38.8654V40.5192C37.9689 41.887 39.0799 43 40.4451 43H49.5245C50.8897 43 52.0006 41.887 52.0006 40.5192V32.25C52.0006 30.8823 50.8897 29.7692 49.5245 29.7692ZM47.0483 1.65385C48.4135 1.65385 49.5245 2.76688 49.5245 4.13462C49.5245 5.50235 48.4135 6.61538 47.0483 6.61538C45.6831 6.61538 44.5721 5.50235 44.5721 4.13462C44.5721 2.76688 45.6831 1.65385 47.0483 1.65385ZM18.9848 4.13462C18.9848 3.22335 19.7252 2.48077 20.6356 2.48077C21.5452 2.48077 22.2864 3.22335 22.2864 4.13462C22.2864 5.04588 21.5452 5.78846 20.6356 5.78846C19.7252 5.78846 18.9848 5.04588 18.9848 4.13462ZM23.82 4.96154C23.8885 4.6961 23.9372 4.42238 23.9372 4.13462C23.9372 3.84685 23.8885 3.57313 23.82 3.30769H43.0047C42.9502 3.57479 42.9213 3.85098 42.9213 4.13462C42.9213 4.41825 42.9502 4.69444 43.0055 4.96154H23.82ZM46.2229 8.18488C46.4895 8.23946 46.7652 8.26923 47.0483 8.26923C47.3314 8.26923 47.6071 8.24029 47.8737 8.18488V29.7692H46.2229V8.18488ZM50.3499 40.5192C50.3499 40.9757 49.9801 41.3462 49.5245 41.3462H40.4451C39.9895 41.3462 39.6197 40.9757 39.6197 40.5192V38.8654C39.6197 38.4089 39.9895 38.0385 40.4451 38.0385H42.9213C43.3777 38.0385 43.7467 37.6688 43.7467 37.2115V32.25C43.7467 31.7935 44.1165 31.4231 44.5721 31.4231H45.3975H48.6991H49.5245C49.9801 31.4231 50.3499 31.7935 50.3499 32.25V40.5192Z" fill="url(#paint6_linear)"/>
<defs>
<linearGradient id="paint0_linear" x1="2.55451e-07" y1="29.8122" x2="41.2698" y2="29.8122" gradientUnits="userSpaceOnUse">
<stop stop-color="#0B91DB"/>
<stop offset="1" stop-color="#006EB7"/>
</linearGradient>
<linearGradient id="paint1_linear" x1="12.668" y1="22.335" x2="28.6015" y2="22.335" gradientUnits="userSpaceOnUse">
<stop stop-color="#0B91DB"/>
<stop offset="1" stop-color="#006EB7"/>
</linearGradient>
<linearGradient id="paint2_linear" x1="10.7305" y1="28.9503" x2="15.6828" y2="28.9503" gradientUnits="userSpaceOnUse">
<stop stop-color="#0B91DB"/>
<stop offset="1" stop-color="#006EB7"/>
</linearGradient>
<linearGradient id="paint3_linear" x1="25.5869" y1="28.9503" x2="30.5393" y2="28.9503" gradientUnits="userSpaceOnUse">
<stop stop-color="#0B91DB"/>
<stop offset="1" stop-color="#006EB7"/>
</linearGradient>
<linearGradient id="paint4_linear" x1="16.9209" y1="30.5989" x2="24.3495" y2="30.5989" gradientUnits="userSpaceOnUse">
<stop stop-color="#0B91DB"/>
<stop offset="1" stop-color="#006EB7"/>
</linearGradient>
<linearGradient id="paint5_linear" x1="18.1582" y1="28.1181" x2="23.1106" y2="28.1181" gradientUnits="userSpaceOnUse">
<stop stop-color="#0B91DB"/>
<stop offset="1" stop-color="#006EB7"/>
</linearGradient>
<linearGradient id="paint6_linear" x1="17.334" y1="21.57" x2="52.0006" y2="21.57" gradientUnits="userSpaceOnUse">
<stop stop-color="#0B91DB"/>
<stop offset="1" stop-color="#006EB7"/>
</linearGradient>
</defs>
</svg>
