<svg width="52" height="38" viewBox="0 0 52 38" fill="none" xmlns="http://www.w3.org/2000/svg">
<path fill-rule="evenodd" clip-rule="evenodd" d="M34.2821 3.65943V7.7336H32.5137V16.8237L31.4099 16.6558L28.897 5.66449C29.457 5.30176 29.8272 4.67577 29.8272 3.96571C29.8272 2.84778 28.9078 1.9381 27.7749 1.9381H14.3144C13.1821 1.9381 12.2627 2.84834 12.2627 3.96571C12.2627 4.0828 12.2728 4.19759 12.2921 4.30929H12.2627V12.3777C11.9268 12.3547 11.5878 12.343 11.2461 12.343V14.028C18.3468 14.028 24.1213 19.7363 24.1213 26.7529C24.1213 27.7947 23.995 28.8331 23.7418 29.8402L23.479 30.8848H32.5423C32.5233 31.0852 32.5137 31.2882 32.5137 31.4934C32.5137 35.0812 35.4678 38 39.0966 38C42.7265 38 45.6773 35.0818 45.6773 31.4934C45.6773 31.2882 45.6676 31.0852 45.6487 30.8849H48.8848V29.1238C50.6642 28.7155 52.0002 27.1159 52.0002 25.1402C52.0002 23.2715 50.6642 21.6855 48.8848 21.2797V19.3143L37.7512 17.6205V7.7336H35.9872V4.27185L38.6909 1.08266L37.3858 0L34.2821 3.65943ZM47.1803 29.2004H45.2553C44.3155 26.7419 41.9101 24.9891 39.0966 24.9891C36.284 24.9891 33.8767 26.7419 32.9361 29.2004H25.6163C25.7083 28.6701 25.7702 28.134 25.8018 27.5955H31.5583V18.3839L47.1803 20.7586V29.2004ZM29.8532 25.9105H25.8018C25.6343 23.0537 24.621 20.4177 23.0065 18.2439H29.8532V25.9105ZM29.6412 16.5589H21.5417C20.7768 15.8043 19.9277 15.133 19.0098 14.5601V5.99499H27.2254L29.6412 16.5589ZM17.3047 5.99499V13.6466C16.253 13.1699 15.1345 12.8133 13.9672 12.5946V5.99485H14.2899L14.3144 5.99499H17.3047ZM27.7849 4.30929C27.9706 4.30399 28.121 4.1516 28.121 3.96571C28.121 3.7765 27.9652 3.62367 27.7749 3.62367H14.3144C14.1213 3.62367 13.9678 3.7765 13.9678 3.96571C13.9678 4.1516 14.1159 4.30399 14.3043 4.30929H27.7849ZM0 26.7531C0 32.9552 5.10558 38.0001 11.3798 38.0001C17.6574 38.0001 22.7624 32.9552 22.7624 26.7531C22.7624 20.5511 17.6574 15.5039 11.3798 15.5039C5.10558 15.5039 0 20.5511 0 26.7531ZM1.70564 26.7537C1.70564 21.4798 6.04478 17.19 11.3798 17.19C16.7148 17.19 21.0579 21.4798 21.0579 26.7537C21.0579 32.0259 16.7153 36.3157 11.3803 36.3157C6.04535 36.3157 1.70564 32.0259 1.70564 26.7537ZM4.45996 26.7529C4.45996 30.5226 7.56307 33.5897 11.3799 33.5897C15.1968 33.5897 18.3005 30.5231 18.3005 26.7529C18.3005 22.9809 15.1962 19.9138 11.3799 19.9138C7.56364 19.9138 4.45996 22.9815 4.45996 26.7529ZM6.16446 26.7534C6.16446 23.9119 8.50568 21.5993 11.3799 21.5993C14.2576 21.5993 16.5954 23.9113 16.5954 26.7534C16.5954 29.5933 14.2576 31.9053 11.3799 31.9053C8.50568 31.9053 6.16446 29.5933 6.16446 26.7534ZM39.0967 34.5236C37.4052 34.5236 36.0332 33.1655 36.0332 31.4956C36.0332 29.8252 37.4052 28.4677 39.0967 28.4677C40.7859 28.4677 42.1613 29.8252 42.1613 31.4956C42.1613 33.1661 40.7864 34.5236 39.0967 34.5236ZM39.0967 30.1527C38.3478 30.1527 37.7394 30.755 37.7394 31.4956C37.7394 32.2357 38.3478 32.8381 39.0967 32.8381C39.8467 32.8381 40.4562 32.2357 40.4562 31.4956C40.4568 30.755 39.8467 30.1527 39.0967 30.1527ZM9.71484 26.7535C9.71484 27.587 10.4042 28.2655 11.2466 28.2655C12.0923 28.2655 12.7783 27.587 12.7783 26.7535C12.7783 25.9188 12.0923 25.2398 11.2466 25.2398C10.4042 25.2398 9.71484 25.9188 9.71484 26.7535ZM34.2187 31.4934C34.2187 28.836 36.407 26.6741 39.0966 26.6741C41.7851 26.6741 43.9728 28.836 43.9722 31.4934C43.9722 34.153 41.7851 36.315 39.0966 36.315C36.407 36.315 34.2187 34.153 34.2187 31.4934ZM36.0467 17.36L34.2187 17.0823V9.41861H36.0467V17.36ZM39.9502 21.614H38.2451V24.1449H39.9502V21.614ZM41.7119 21.614H43.4159V24.1449H41.7119V21.614ZM48.8852 27.3582V23.0471C49.7116 23.4009 50.294 24.2356 50.2934 25.264C50.2934 26.1983 49.7116 27.0094 48.8852 27.3582Z" fill="url(#paint0_linear)"/>
<defs>
<linearGradient id="paint0_linear" x1="3.2187e-07" y1="19.0619" x2="52.0002" y2="19.0619" gradientUnits="userSpaceOnUse">
<stop stop-color="#0B91DB"/>
<stop offset="1" stop-color="#006EB7"/>
</linearGradient>
</defs>
</svg>
