<svg width="21" height="52" viewBox="0 0 21 52" fill="none" xmlns="http://www.w3.org/2000/svg">
<path d="M18.2212 0H1.9416C0.883677 0.0124461 0.0248923 0.87123 0 1.92915V4.45572C0.0124461 4.97846 0.236477 5.4763 0.622307 5.83724L5.10292 10.0316V17.8353L4.26903 18.495C3.73384 18.9181 3.64672 19.7022 4.06989 20.2374C4.30637 20.5361 4.66731 20.7104 5.05314 20.6979C5.06558 20.6979 5.09047 20.6979 5.09047 20.6979V24.2949L4.25658 24.9545C3.7214 25.3777 3.63428 26.1618 4.05744 26.697C4.29392 26.9957 4.65486 27.1699 5.04069 27.1575C5.05314 27.1575 5.09047 27.1575 5.09047 27.1575V30.7544L4.25658 31.4141C3.7214 31.8372 3.63428 32.6213 4.05744 33.1565C4.29392 33.4552 4.65486 33.6295 5.04069 33.617C5.05314 33.617 5.09047 33.617 5.09047 33.617V37.214L4.25658 37.8736C3.7214 38.2968 3.63428 39.0809 4.05744 39.6161C4.29392 39.9148 4.65486 40.089 5.04069 40.0766C5.05314 40.0766 5.07803 40.0766 5.07803 40.0766V41.5577L10.0565 52L15.0349 41.5577V32.3724L15.8688 31.7128C16.404 31.2772 16.4787 30.4931 16.0431 29.9579C15.7942 29.6592 15.4208 29.4849 15.0349 29.4974V25.9004L15.8688 25.2408C16.404 24.8052 16.4787 24.0211 16.0431 23.4859C15.7942 23.1872 15.4208 23.0129 15.0349 23.0254V19.4284L15.8688 18.7688C16.404 18.3332 16.4787 17.5491 16.0431 17.0139C15.7942 16.7152 15.4208 16.5409 15.0349 16.5534V12.9564L15.8688 12.2968C16.404 11.8612 16.4787 11.0771 16.0431 10.5419C15.7942 10.2432 15.4208 10.0689 15.0349 10.0814V10.0191L19.5156 5.8248C19.9014 5.46386 20.1254 4.97846 20.1379 4.45572V1.92915C20.1379 0.87123 19.2791 0.0124461 18.2212 0ZM12.5706 41.0474L10.0814 46.2872L7.59215 41.0474V38.4461L12.5706 34.4011V41.0474ZM12.5706 31.19L7.59215 35.235V31.9617L12.5706 27.9167V31.19ZM12.5706 24.718L7.59215 28.763V25.4897L12.5706 21.4447V24.718ZM12.5706 18.246L7.59215 22.291V19.0177L12.5706 14.9727V18.246ZM17.6735 4.19435L12.5706 8.94878V11.7741L7.59215 15.8191V8.94878L2.48923 4.19435V2.48923H17.6735V4.19435Z" fill="url(#paint0_linear)"/>
<defs>
<linearGradient id="paint0_linear" x1="1.24649e-07" y1="26.0847" x2="20.1379" y2="26.0847" gradientUnits="userSpaceOnUse">
<stop stop-color="#0B91DB"/>
<stop offset="1" stop-color="#006EB7"/>
</linearGradient>
</defs>
</svg>
