<svg width="62" height="34" viewBox="0 0 62 34" fill="none" xmlns="http://www.w3.org/2000/svg">
<path d="M1.37777 29.1278H3.25292C3.62561 30.6251 4.95516 31.741 6.5458 31.741C8.13713 31.741 9.46668 30.6251 9.83937 29.1278H11.3356C11.7083 30.6251 13.0379 31.741 14.6285 31.741C16.5071 31.741 18.035 30.1914 18.035 28.2871C18.035 26.3827 16.5064 24.8339 14.6285 24.8339C12.938 24.8339 11.5416 26.0922 11.2771 27.7312H9.89792C9.63339 26.0922 8.23702 24.8339 6.5458 24.8339C4.85527 24.8339 3.4589 26.0922 3.19437 27.7312H1.37777V27.1474H0V29.7123H1.37777V29.1278ZM14.6278 26.2298C15.7466 26.2298 16.6566 27.1523 16.6566 28.2864C16.6566 29.4211 15.7466 30.3436 14.6278 30.3436C13.8053 30.3436 13.0985 29.8422 12.7802 29.1272H14.6891C15.0701 29.1272 15.378 28.815 15.378 28.4288C15.378 28.0427 15.0701 27.7305 14.6891 27.7305H12.6838C12.9249 26.8681 13.7006 26.2298 14.6278 26.2298ZM6.5458 26.2298C7.47373 26.2298 8.24942 26.8674 8.49053 27.7305H6.77933C6.39838 27.7305 6.09045 28.0427 6.09045 28.4288C6.09045 28.815 6.39838 29.1272 6.77933 29.1272H8.39408C8.07582 29.8429 7.36902 30.3436 6.5458 30.3436C5.42705 30.3436 4.51703 29.4211 4.51703 28.2864C4.51703 27.153 5.42705 26.2298 6.5458 26.2298Z" fill="url(#paint0_linear)"/>
<path d="M60.6221 26.8625V27.4463H58.7477C58.3743 25.9498 57.0454 24.8339 55.4541 24.8339C53.8635 24.8339 52.5346 25.9498 52.1612 27.4463H50.665C50.2916 25.9498 48.9627 24.8339 47.3721 24.8339C45.4928 24.8339 43.9648 26.3834 43.9648 28.2871C43.9648 30.1921 45.4935 31.741 47.3721 31.741C49.0626 31.741 50.459 30.4826 50.7235 28.8429H52.1027C52.3672 30.4826 53.7636 31.741 55.4541 31.741C57.1453 31.741 58.5417 30.4826 58.8062 28.8429H60.6221V29.4274H61.9999V26.8625H60.6221ZM47.3728 30.3443C46.2533 30.3443 45.3433 29.4218 45.3433 28.2871C45.3433 27.153 46.2533 26.2305 47.3728 26.2305C48.1953 26.2305 48.9021 26.7312 49.2204 27.4463H47.3115C46.9305 27.4463 46.6226 27.7584 46.6226 28.1446C46.6226 28.5308 46.9305 28.8429 47.3115 28.8429H49.3175C49.0757 29.7061 48.3 30.3443 47.3728 30.3443ZM55.4541 30.3443C54.5262 30.3443 53.7505 29.7061 53.5101 28.8429H55.2212C55.6022 28.8429 55.9101 28.5308 55.9101 28.1446C55.9101 27.7584 55.6022 27.4463 55.2212 27.4463H53.6065C53.9248 26.7312 54.6316 26.2305 55.4541 26.2305C56.5735 26.2305 57.4836 27.153 57.4836 28.2871C57.4836 29.4218 56.5735 30.3443 55.4541 30.3443Z" fill="url(#paint1_linear)"/>
<path d="M19.6294 1.39664H15.8164V0H19.6294V1.39664ZM29.1939 0H25.3816V1.39664H29.1939V0ZM36.2412 0H32.4289V1.39664H36.2412V0ZM45.8064 0H41.9934V1.39664H45.8064V0Z" fill="url(#paint2_linear)"/>
<path d="M3.78528 23.9589H18.3532L20.2669 27.0294H26.0267L28.1657 23.9589H34.2037L36.3421 27.0294H42.1087L44.0211 23.9589H58.4443C58.8252 23.9589 59.1332 23.6467 59.1332 23.2605C59.1332 22.8744 58.8252 22.5622 58.4443 22.5622H54.2462L50.487 13.5874L52.4613 10.4142L53.2907 4.83879L49.8105 2.22986H12.7367L9.07868 4.83879L9.90879 10.4142L12.1697 14.0434L8.60128 22.5622H3.78459C3.40364 22.5622 3.0957 22.8744 3.0957 23.2605C3.0957 23.6467 3.40432 23.9589 3.78528 23.9589ZM12.1132 22.5622L14.2715 17.4093L17.4831 22.5622H12.1132ZM50.7363 22.5622H44.8918L48.3865 16.9512L50.7363 22.5622ZM44.5894 20.4309V7.88697L47.7307 15.387L44.5894 20.4309ZM43.2116 22.5622H39.5089V6.23544H43.2116V22.5622ZM38.1311 22.5622H34.4283V6.23544H38.1311V22.5622ZM33.0506 22.5622H29.3478V6.23544H33.0506V22.5622ZM27.97 22.5622H24.2666V6.23544H27.97V22.5622ZM22.8888 22.5622H19.186V6.23544H22.8888V22.5622ZM17.8083 20.47L14.9266 15.8458L17.8083 8.96588V20.47ZM25.3137 25.6334H21.026L19.9831 23.9596H26.4806L25.3137 25.6334ZM41.3489 25.6334H37.0571L35.8915 23.9596H42.3919L41.3489 25.6334ZM52.2333 22.5622L45.3947 6.23474H45.9107L52.7493 22.5622H52.2333ZM51.1421 9.91629L49.8318 12.0224L47.4076 6.23474H51.6904L51.1421 9.91629ZM13.1727 3.62581H49.362L50.9768 4.83809H46.3743C46.3667 4.83809 46.3591 4.83809 46.3516 4.83809H11.4733L13.1727 3.62581ZM11.228 9.91629L10.6803 6.23544H15.4412L12.8255 12.4798L11.228 9.91629ZM16.9382 6.23544H17.4542L10.6156 22.5629H10.0989L16.9382 6.23544Z" fill="url(#paint3_linear)"/>
<path d="M61.3109 32.6034H0.688886C0.307932 32.6034 0 32.9155 0 33.3017C0 33.6879 0.307932 34 0.688886 34H61.3109C61.6918 34 61.9998 33.6879 61.9998 33.3017C61.9998 32.9155 61.6918 32.6034 61.3109 32.6034Z" fill="url(#paint4_linear)"/>
<defs>
<linearGradient id="paint0_linear" x1="1.11633e-07" y1="28.2987" x2="18.035" y2="28.2987" gradientUnits="userSpaceOnUse">
<stop stop-color="#0B91DB"/>
<stop offset="1" stop-color="#006EB7"/>
</linearGradient>
<linearGradient id="paint1_linear" x1="43.9648" y1="28.2987" x2="61.9999" y2="28.2987" gradientUnits="userSpaceOnUse">
<stop stop-color="#0B91DB"/>
<stop offset="1" stop-color="#006EB7"/>
</linearGradient>
<linearGradient id="paint2_linear" x1="15.8164" y1="0.700597" x2="45.8064" y2="0.700621" gradientUnits="userSpaceOnUse">
<stop stop-color="#0B91DB"/>
<stop offset="1" stop-color="#006EB7"/>
</linearGradient>
<linearGradient id="paint3_linear" x1="3.0957" y1="14.67" x2="59.1332" y2="14.67" gradientUnits="userSpaceOnUse">
<stop stop-color="#0B91DB"/>
<stop offset="1" stop-color="#006EB7"/>
</linearGradient>
<linearGradient id="paint4_linear" x1="3.83765e-07" y1="33.304" x2="61.9998" y2="33.3041" gradientUnits="userSpaceOnUse">
<stop stop-color="#0B91DB"/>
<stop offset="1" stop-color="#006EB7"/>
</linearGradient>
</defs>
</svg>
