<svg width="52" height="40" viewBox="0 0 52 40" fill="none" xmlns="http://www.w3.org/2000/svg">
<path d="M17.68 39.9355H50.375V38.3028H47.9375V30.1396H44.6875V25.5355L46.0444 26.0122C46.1454 26.0477 46.2523 26.0628 46.3591 26.0566C46.4659 26.0504 46.5705 26.0231 46.6668 25.9763C46.7629 25.9295 46.8489 25.8641 46.9199 25.7838C46.9909 25.7035 47.0454 25.61 47.0803 25.5085L48.6688 20.8791C48.7391 20.675 48.726 20.4511 48.6323 20.2566C48.5386 20.0621 48.3721 19.9129 48.1691 19.8416L27.4016 12.5477C27.1124 12.3854 26.7973 12.2749 26.4704 12.2212L11.7 7.03261L11.9665 6.25792C11.9806 6.21581 11.9914 6.17269 11.999 6.12894L12.8359 1.23832C12.8691 1.0473 12.8335 0.850649 12.7355 0.683573C12.6376 0.516498 12.4836 0.389913 12.3013 0.326486C11.0378 -0.103198 9.66864 -0.102628 8.40555 0.328107C7.14246 0.758843 6.05583 1.59574 5.31375 2.70934C3.32924 5.66165 2.15239 9.08638 1.90125 12.64C1.8335 13.6051 1.994 14.5726 2.36963 15.4634C2.74525 16.3543 3.32535 17.1432 4.0625 17.7657V21.9763H1.625V29.3232H4.0625V34.2212H1.625V39.9355H17.68ZM19.695 38.3028L24.7812 14.7755C24.8468 14.5006 25.0028 14.2559 25.224 14.0813C25.4452 13.9066 25.7186 13.812 26 13.813C26.0547 13.8186 26.109 13.8278 26.1625 13.8408L26.65 14.013C26.7874 14.0941 26.9076 14.2015 27.0037 14.3293C27.0997 14.457 27.1698 14.6025 27.2098 14.7575L32.305 38.3028H19.695ZM46.3125 38.3028H41.4375V31.7722H46.3125V38.3028ZM43.0625 30.1396H39.8125V38.3028H33.9674L30.0982 20.4081L43.0625 24.9649V30.1396ZM45.8112 24.2008L44.6875 23.8065V21.9763C44.6875 21.7598 44.6019 21.5521 44.4495 21.3991C44.2972 21.246 44.0905 21.16 43.875 21.16C43.6595 21.16 43.4528 21.246 43.3005 21.3991C43.1481 21.5521 43.0625 21.7598 43.0625 21.9763V23.2359L29.6928 18.5395L28.8803 14.7967L46.8682 21.1142L45.8112 24.2008ZM23.9411 13.0612C23.5778 13.436 23.3216 13.902 23.1993 14.4106L22.8313 16.1289L10.1091 11.662L11.1702 8.57547L23.9411 13.0612ZM6.6625 3.62445C7.07032 3.01377 7.62095 2.51286 8.26616 2.16561C8.91137 1.81836 9.63149 1.63535 10.3634 1.63261C10.6135 1.63246 10.8631 1.65431 11.1093 1.69791L10.4097 5.78526L9.90112 7.26526L8.49062 11.3665L8.06163 12.6146L5.824 17.0228C5.07409 16.6083 4.45862 15.986 4.05094 15.2299C3.64325 14.4738 3.46056 13.6158 3.52462 12.7583C3.75546 9.48995 4.83759 6.34002 6.6625 3.62445ZM3.25 23.6089H6.5V27.6906H3.25V23.6089ZM5.6875 29.3232H8.125V21.9763H5.6875V18.7363C5.76875 18.7698 5.85 18.8179 5.93125 18.8465C6.11651 18.9118 6.31906 18.9076 6.50143 18.8345C6.68381 18.7614 6.83367 18.6245 6.92331 18.4489L9.53469 13.3061C9.55145 13.2733 9.5661 13.2395 9.57856 13.2049L22.4802 17.7363L18.0326 38.3028H8.125V34.2212H5.6875V29.3232ZM3.25 38.3028V35.8538H6.5V38.3028H3.25Z" fill="url(#paint0_linear)"/>
<path d="M21.8262 36.6702H30.1738L28.0873 26.058H23.9127L21.8262 36.6702ZM26.7515 27.6906L28.1962 35.0376H23.8062L25.2509 27.6906H26.7515Z" fill="url(#paint1_linear)"/>
<defs>
<linearGradient id="paint0_linear" x1="1.625" y1="20.0351" x2="50.375" y2="20.0351" gradientUnits="userSpaceOnUse">
<stop stop-color="#0B91DB"/>
<stop offset="1" stop-color="#006EB7"/>
</linearGradient>
<linearGradient id="paint1_linear" x1="21.8262" y1="31.3814" x2="30.1738" y2="31.3814" gradientUnits="userSpaceOnUse">
<stop stop-color="#0B91DB"/>
<stop offset="1" stop-color="#006EB7"/>
</linearGradient>
</defs>
</svg>
