<svg width="52" height="52" viewBox="0 0 52 52" fill="none" xmlns="http://www.w3.org/2000/svg">
<path d="M15.4598 20.2057C15.4598 30.47 15.4598 40.735 15.4598 51C15.4598 51.5523 15.0121 52 14.4598 52C12.2988 52 10.1378 52 7.97686 52C7.42457 52 6.97686 51.5523 6.97684 51C6.97653 40.7357 6.97142 30.4707 6.96632 20.2057H0.999999C0.447714 20.2057 0 19.758 0 19.2057C0 17.0541 0 14.9021 0 12.7506C0 12.5264 0.181721 12.3447 0.405885 12.3447L10.6328 0.283799C10.8535 0.0223896 11.2255 -0.0835261 11.5402 0.0734696L40.3257 12.3447C43.3321 12.3447 46.3385 12.3447 49.3448 12.3447C49.8971 12.3447 50.3448 12.7924 50.3448 13.3447V19.2057C50.3448 19.758 49.8971 20.2057 49.3448 20.2057C46.3903 20.2057 43.4353 20.2057 40.4808 20.2057V26.1716C41.749 26.5614 42.514 27.8655 42.2271 29.1597L48.6874 32.7969H51C51.5523 32.7969 52 33.2447 52 33.7969V35.7218C52 36.2741 51.5523 36.7218 51 36.7218H28.4564C27.9041 36.7218 27.4564 36.2741 27.4564 35.7218V33.7969C27.4564 33.2447 27.9041 32.7969 28.4564 32.7969H30.6861L37.2262 29.1492C36.9461 27.8572 37.7097 26.5599 38.9748 26.1716V20.2057C31.1364 20.2057 23.2981 20.2057 15.4598 20.2057ZM41.4907 30.4615C40.5064 31.3952 38.9401 31.3922 37.9589 30.4555L33.7608 32.7969H45.6391L41.4907 30.4615ZM28.9624 34.2993V35.2195H50.4939V34.2993H28.9624ZM39.7278 27.5612C39.148 27.5612 38.6751 28.033 38.6751 28.6114C38.6751 29.1913 39.1465 29.6615 39.7278 29.6615C40.3099 29.6615 40.7806 29.1921 40.7806 28.6114C40.7806 28.0315 40.3092 27.5612 39.7278 27.5612ZM2.37432 12.3447H6.97686L9.54847 3.88418L2.37432 12.3447ZM12.3693 2.05657L15.2753 12.3447H15.4598C22.4366 12.3447 29.4135 12.3447 36.3904 12.3447L12.3693 2.05657ZM6.96406 14.804L2.68758 18.7034H6.96556L6.96406 14.804ZM1.50607 17.7554L5.79158 13.847H1.50607V17.7554ZM48.8388 14.792L44.5495 18.7034H48.8388V14.792ZM43.368 17.7554L47.6535 13.847H43.368V17.7554ZM37.5764 13.847L41.8619 17.7554V13.847H37.5764ZM40.6804 18.7034L36.3911 14.792V18.7034H40.6804ZM34.885 14.792L30.5958 18.7034H34.885V14.792ZM29.4143 17.7554L33.6998 13.847H29.4143V17.7554ZM23.6227 13.847L27.9082 17.7554V13.847H23.6227ZM26.7267 18.7034L22.4374 14.792V18.7034H26.7267ZM20.9313 14.792L16.642 18.7034H20.9313V14.792ZM15.4605 17.7554L19.7461 13.847H15.4605V17.7554ZM9.66895 13.847L13.9545 17.7554V13.847H9.66895ZM12.773 18.7034L8.48368 14.792V18.7034H12.773ZM8.70507 12.3447H13.7143L11.2187 3.50785L8.70507 12.3447ZM8.48368 24.1171L12.773 20.2057H8.48368V24.1171ZM13.9545 21.1537L9.66895 25.0621H13.9545V21.1537ZM9.66895 26.5644L13.9545 30.4728V26.5644H9.66895ZM12.773 31.4208L8.48368 27.5094V31.4208H12.773ZM8.48368 36.8345L12.773 32.9231H8.48368V36.8345ZM13.9545 33.8711L9.66895 37.7795H13.9545V33.8711ZM9.66895 39.2818L13.9545 43.1902V39.2818H9.66895ZM12.773 44.1382L8.48368 40.2268V44.1382H12.773ZM8.48368 49.5519L12.773 45.6405H8.48368V49.5519ZM13.9545 46.5885L9.66895 50.4969H13.9545V46.5885Z" fill="url(#paint0_linear)"/>
<defs>
<linearGradient id="paint0_linear" x1="3.21869e-07" y1="26.0847" x2="52" y2="26.0847" gradientUnits="userSpaceOnUse">
<stop stop-color="#0B91DB"/>
<stop offset="1" stop-color="#006EB7"/>
</linearGradient>
</defs>
</svg>
