<svg width="52" height="31" viewBox="0 0 52 31" fill="none" xmlns="http://www.w3.org/2000/svg">
<path d="M51.8996 16.3164C51.7336 15.9746 51.3826 15.7599 50.9996 15.7599H45.9996V8.86537C45.9996 8.32169 45.5526 7.88044 44.9996 7.88044H20.9996C20.4476 7.88044 19.9996 8.32169 19.9996 8.86537V15.7599H13.9996V9.8503H14.9996C15.3786 9.8503 15.7246 9.63854 15.8946 9.30465L17.8946 5.36492C18.0496 5.05959 18.0326 4.69714 17.8506 4.40659C17.6686 4.11701 17.3466 3.93973 16.9996 3.93973H9.99956V0.984932C9.99956 0.44125 9.55156 0 8.99956 0C8.44756 0 7.99956 0.44125 7.99956 0.984932V3.93973H2.99956C2.44756 3.93973 1.99956 4.38098 1.99956 4.92466V15.7589H0.999564C0.699564 15.7589 0.416564 15.8919 0.226564 16.1184C0.036564 16.3449 -0.0394362 16.6463 0.0195638 16.9359L2.01956 26.7852C2.11256 27.2452 2.52356 27.5781 2.99956 27.5781H6.99956C7.15456 27.5781 7.30856 27.5417 7.44656 27.4747L9.65757 26.3863C10.3266 26.0554 11.6696 26.0554 12.3416 26.3863L12.7626 26.5942C13.9866 27.1959 16.0116 27.1959 17.2356 26.5942L17.6576 26.3863C18.3276 26.0554 19.6716 26.0554 20.3416 26.3863L20.7636 26.5942C21.9876 27.1959 24.0136 27.1959 25.2356 26.5942L25.6586 26.3863C26.3286 26.0554 27.6726 26.0554 28.3426 26.3863L28.7656 26.5942C29.9906 27.1959 32.0136 27.1959 33.2386 26.5942L33.6606 26.3863C34.3306 26.0554 35.6746 26.0554 36.3446 26.3863L38.5556 27.4747C38.6946 27.5417 38.8486 27.5781 39.0026 27.5781H43.0026C43.3076 27.5781 43.5936 27.4412 43.7836 27.2087L51.7836 17.3594C52.0206 17.063 52.0656 16.6582 51.8996 16.3164ZM33.9996 13.79H43.9996V15.7599H33.9996V13.79ZM43.9996 11.8202H33.9996V9.8503H43.9996V11.8202ZM21.9996 9.8503H31.9996V11.8202H21.9996V9.8503ZM21.9996 13.79H31.9996V15.7599H21.9996V13.79ZM14.3816 7.87946H13.9996V5.90959H15.3816L14.3816 7.87946ZM11.9996 5.90959V7.87946H3.99956V5.90959H11.9996ZM3.99956 9.8503H11.9996V15.7599H3.99956V9.8503ZM42.5196 25.6092H39.2366L37.2366 24.6243C36.0116 24.0225 33.9886 24.0225 32.7636 24.6243L32.3416 24.8321C31.6716 25.163 30.3276 25.163 29.6576 24.8321L29.2356 24.6243C28.0106 24.0225 25.9856 24.0225 24.7636 24.6243L24.3406 24.8321C23.6706 25.163 22.3266 25.163 21.6566 24.8321L21.2346 24.6243C20.0106 24.0225 17.9856 24.0225 16.7616 24.6243L16.3396 24.8321C15.6706 25.163 14.3276 25.163 13.6556 24.8321L13.2346 24.6243C12.0106 24.0225 9.98556 24.0225 8.76156 24.6243L6.76156 25.6092H3.81956L2.21956 17.7298H2.99956H48.9186L42.5196 25.6092Z" fill="url(#paint0_linear)"/>
<path d="M39.447 29.1353L37.236 28.047C35.961 27.4196 34.039 27.4196 32.763 28.047L32.34 28.2548C31.638 28.6015 30.361 28.6015 29.656 28.2548L29.233 28.047C27.959 27.4196 26.037 27.4196 24.761 28.047L24.339 28.2548C23.637 28.6015 22.358 28.6015 21.655 28.2548L21.233 28.047C19.958 27.4196 18.035 27.4196 16.76 28.047L16.338 28.2548C15.636 28.6015 14.357 28.6015 13.654 28.2548L13.232 28.047C11.957 27.4196 10.035 27.4196 8.75896 28.047L6.54796 29.1353C6.05396 29.3776 5.85396 29.9705 6.10096 30.4571C6.34796 30.9417 6.94696 31.1387 7.44296 30.8964L9.65396 29.809C10.356 29.4613 11.635 29.4613 12.338 29.809L12.759 30.0168C14.034 30.6442 15.957 30.6442 17.232 30.0168L17.654 29.809C18.356 29.4623 19.635 29.4623 20.337 29.809L20.758 30.0168C22.033 30.6442 23.956 30.6442 25.231 30.0168L25.653 29.809C26.356 29.4613 27.632 29.4613 28.337 29.809L28.759 30.0168C30.034 30.6442 31.956 30.6442 33.232 30.0168L33.654 29.809C34.357 29.4613 35.634 29.4613 36.339 29.809L38.55 30.8964C38.694 30.9663 38.846 30.9988 38.996 30.9988C39.363 30.9988 39.716 30.8008 39.892 30.4541C40.143 29.9676 39.941 29.3776 39.447 29.1353Z" fill="url(#paint1_linear)"/>
<defs>
<linearGradient id="paint0_linear" x1="3.21861e-07" y1="13.834" x2="51.9987" y2="13.834" gradientUnits="userSpaceOnUse">
<stop stop-color="#0B91DB"/>
<stop offset="1" stop-color="#006EB7"/>
</linearGradient>
<linearGradient id="paint1_linear" x1="5.99512" y1="29.2938" x2="40" y2="29.2938" gradientUnits="userSpaceOnUse">
<stop stop-color="#0B91DB"/>
<stop offset="1" stop-color="#006EB7"/>
</linearGradient>
</defs>
</svg>
