<svg width="75" height="75" fill="none" xmlns="http://www.w3.org/2000/svg"><path d="M65.625 12.89a4.696 4.696 0 0 0-3.633-4.57 4.696 4.696 0 0 0-5.654-3.506 5.845 5.845 0 0 0-7.53-1.779 5.845 5.845 0 0 0-7.63-.808 3.515 3.515 0 0 0-5.41.469 4.672 4.672 0 0 0-5.797 1.914 4.687 4.687 0 0 0-7.705 3.593v.148a4.67 4.67 0 0 0-1.619 8.29 3.483 3.483 0 0 0-.725 2.11v2.343a1.171 1.171 0 0 0 1.172 1.172h1.172v4.687H12.89a5.866 5.866 0 0 0-5.86 5.86v21.093a5.866 5.866 0 0 0 5.86 5.86h9.375v7.031h-1.172a1.172 1.172 0 0 0-1.172 1.172v2.344a3.516 3.516 0 0 0 3.515 3.515h37.5a3.516 3.516 0 0 0 3.516-3.515v-2.344a1.171 1.171 0 0 0-1.172-1.172h-1.17V22.266h1.172a1.172 1.172 0 0 0 1.172-1.172V18.75a3.483 3.483 0 0 0-.725-2.11 4.665 4.665 0 0 0 1.897-3.75zm-42.166-2.343a1.171 1.171 0 0 0 1.282-1.58 2.101 2.101 0 0 1-.132-.764 2.344 2.344 0 0 1 2.344-2.343 2.285 2.285 0 0 1 1.731.77 1.172 1.172 0 0 0 .882.401h1.114a1.171 1.171 0 0 0 1.108-.792 2.327 2.327 0 0 1 3.764-.937 1.172 1.172 0 0 0 1.948-.743 1.186 1.186 0 0 1 1.172-1.043 1.172 1.172 0 0 1 1.123.85 1.173 1.173 0 0 0 2.028.427 3.516 3.516 0 0 1 2.708-1.277 3.46 3.46 0 0 1 3.001 1.7 1.172 1.172 0 0 0 1.755.305 3.578 3.578 0 0 1 2.276-.833 3.515 3.515 0 0 1 3.187 2.045 1.171 1.171 0 0 0 1.6.557 2.344 2.344 0 0 1 3.416 2.085 1.172 1.172 0 0 0 1.172 1.172 2.344 2.344 0 1 1 0 4.688h-7.032a1.172 1.172 0 0 0-1.172 1.172v4.687a1.172 1.172 0 1 1-2.343 0v-4.688a1.171 1.171 0 1 0-2.344 0v9.376a1.172 1.172 0 1 1-2.344 0v-9.375a1.171 1.171 0 0 0-1.172-1.172H23.438a2.345 2.345 0 0 1 .02-4.688zm19.9 7.031v2.344H22.266V18.75a1.172 1.172 0 0 1 1.172-1.172h19.921zM22.266 52.735h-7.032a1.172 1.172 0 0 1-1.171-1.172V35.156a1.172 1.172 0 0 1 1.171-1.171h7.032v18.75zm-9.375 4.687a3.516 3.516 0 0 1-3.516-3.515V32.813a3.516 3.516 0 0 1 3.516-3.516h9.375v2.344h-7.032a3.516 3.516 0 0 0-3.515 3.516v16.406a3.515 3.515 0 0 0 3.515 3.515h7.032v2.344H12.89zm49.218 12.89a1.172 1.172 0 0 1-1.172 1.173h-37.5a1.171 1.171 0 0 1-1.171-1.172V69.14h39.843v1.172zm-2.343-3.515H24.609V22.266h18.75v3.516a3.516 3.516 0 0 0 7.032 0v-1.373a3.5 3.5 0 0 0 4.471-2.143h4.904v44.531zm2.343-48.047v1.172h-7.03v-2.344h5.858a1.171 1.171 0 0 1 1.172 1.172z" fill="#0070EB"/><path d="M49.219 63.281a1.172 1.172 0 0 0 1.172 1.172h7.03a1.172 1.172 0 1 0 0-2.344h-7.03a1.172 1.172 0 0 0-1.172 1.172zM26.953 12.89h9.375a1.172 1.172 0 1 0 0-2.343h-9.375a1.172 1.172 0 1 0 0 2.344zm12.891 0h1.172a1.172 1.172 0 1 0 0-2.343h-1.172a1.172 1.172 0 1 0 0 2.344zm3.516 17.579h-3.516a1.172 1.172 0 0 0-1.172 1.172v28.125a1.172 1.172 0 0 0 1.172 1.172h3.515a1.172 1.172 0 0 0 1.172-1.172V31.64a1.172 1.172 0 0 0-1.172-1.172zm-1.172 28.125h-1.172V32.812h1.172v25.782zm-9.375-28.125h-3.516a1.172 1.172 0 0 0-1.172 1.172v28.125a1.172 1.172 0 0 0 1.172 1.172h3.515a1.172 1.172 0 0 0 1.172-1.172V31.64a1.172 1.172 0 0 0-1.172-1.172zM31.64 58.594h-1.172V32.812h1.172v25.782zm19.923-28.125a1.171 1.171 0 0 0-1.172 1.172v28.125a1.172 1.172 0 0 0 1.172 1.172h3.515a1.172 1.172 0 0 0 1.172-1.172V31.64a1.172 1.172 0 0 0-1.172-1.172h-3.516zm2.343 28.125h-1.172V32.812h1.172v25.782z" fill="#0070EB"/></svg>