<svg width="78" height="78" fill="none" xmlns="http://www.w3.org/2000/svg"><path d="M65.813 53.625a1.219 1.219 0 0 0-1.22 1.219v17.062h-3.656V58.5a1.219 1.219 0 0 0-1.218-1.219H47.53a1.219 1.219 0 0 0-1.218 1.219v13.406H19.5a1.22 1.22 0 0 0 0 2.438h46.313a1.22 1.22 0 0 0 1.218-1.219V54.844a1.219 1.219 0 0 0-1.219-1.219zM48.75 71.906V59.72h9.75v4.875h-2.438a1.22 1.22 0 0 0 0 2.437H58.5v4.875h-9.75z" fill="#0070EB"/><path d="M75.087 27.068l-9.275-7.142V9.75a1.219 1.219 0 0 0-1.219-1.219h-7.312a1.219 1.219 0 0 0-1.219 1.219v2.681L43.4 2.681a1.219 1.219 0 0 0-1.487 0L10.225 27.056a1.219 1.219 0 0 0 .743 2.194h7.313v1.999a1.218 1.218 0 1 0 2.437 0V29.25h43.875V39h-3.656v-6.094a1.219 1.219 0 0 0-1.219-1.218H45.093a1.22 1.22 0 0 0-1.218 1.218V39h-2.036l-4.058-3.998a1.219 1.219 0 0 0-1.719 0l-2.327 2.316c-.463-.22-.939-.426-1.414-.597v-3.278a1.219 1.219 0 0 0-1.219-1.22H23.79a1.218 1.218 0 0 0-1.22 1.22v1.73a1.219 1.219 0 0 0 2.438 0v-.512h4.875v2.95a1.219 1.219 0 0 0 .878 1.218 11.04 11.04 0 0 1 2.608 1.085 1.219 1.219 0 0 0 1.462-.207l2.084-2.084 3.45 3.449-2.084 2.084a1.218 1.218 0 0 0-.208 1.45c.47.825.834 1.705 1.085 2.62a1.218 1.218 0 0 0 1.219.878h2.95v4.875h-2.938a1.219 1.219 0 0 0-1.219.89 11.043 11.043 0 0 1-1.084 2.608 1.219 1.219 0 0 0 .207 1.462l2.084 2.084-3.45 3.45-2.083-2.085a1.218 1.218 0 0 0-1.463-.207c-.824.462-1.7.826-2.608 1.085a1.22 1.22 0 0 0-.878 1.219v2.949h-6.093a1.218 1.218 0 1 0 0 2.438h7.312c.32-.002.626-.129.853-.354a1.22 1.22 0 0 0 .366-.865v-3.364c.475-.17.95-.366 1.414-.585l2.328 2.316a1.219 1.219 0 0 0 1.718 0l5.168-5.168a1.22 1.22 0 0 0 0-1.73l-2.316-2.316c.224-.464.423-.94.597-1.426h3.279a1.219 1.219 0 0 0 1.218-1.219v-2.974h20.073a1.219 1.219 0 0 0 1.219-1.218V29.25h7.312a1.219 1.219 0 0 0 .744-2.182zM58.5 10.968h4.875v7.094L58.5 14.308v-3.34zM22.473 26.814l20.183-15.527 20.182 15.527H22.473zm42.12 14.625v7.312h-3.656v-7.313h3.656zM58.5 34.124V39H46.312v-4.875H58.5zm-4.875 7.313v7.312h-2.438v-7.313h2.438zM41.279 45.63c-.171-.475-.378-.95-.598-1.414l2.316-2.328c.13-.124.226-.28.28-.45h.598v4.192h-2.596zm5.033 3.12v-7.313h2.438v7.313h-2.438zm9.75 0v-7.313H58.5v7.313h-2.438zm10.774-21.938L43.399 8.788a1.219 1.219 0 0 0-1.487 0L18.476 26.813H14.55L42.656 5.192l28.104 21.62h-3.924z" fill="#0070EB"/><path d="M39 18.281v4.875a1.218 1.218 0 0 0 1.219 1.219h4.875a1.218 1.218 0 0 0 1.218-1.219v-4.875a1.218 1.218 0 0 0-1.218-1.218h-4.875A1.218 1.218 0 0 0 39 18.28zm2.438 1.219h2.437v2.438h-2.438V19.5zM23.156 61.79a1.219 1.219 0 0 0-1.718 0L11.115 72.052a3.754 3.754 0 0 1-5.168 0 3.656 3.656 0 0 1 0-5.167l12.931-12.931 5.168 5.167a6.094 6.094 0 0 0 8.616 0l3.45-3.437a6.094 6.094 0 0 0 0-8.616l-.866-.866a1.219 1.219 0 0 0-1.718 0l-4.278 4.303-1.755-1.755 4.302-4.315a1.219 1.219 0 0 0 0-1.718l-.865-.865a6.094 6.094 0 0 0-8.617 0l-3.437 3.485a6.093 6.093 0 0 0-1.365 6.533l-1.816 1.816a1.22 1.22 0 0 0-1.096-.744h-2.95v-4.875h2.974a1.22 1.22 0 0 0 1.219-.877 12.47 12.47 0 0 1 1.084-2.62 1.219 1.219 0 0 0-.207-1.451l-2.096-2.084 3.449-3.45 2.084 2.085a1.22 1.22 0 1 0 1.73-1.718l-2.949-2.95a1.22 1.22 0 0 0-1.73 0l-5.229 5.216a1.219 1.219 0 0 0 0 1.719l2.316 2.328c-.22.463-.415.938-.585 1.413h-3.279a1.219 1.219 0 0 0-1.218 1.22v7.312a1.219 1.219 0 0 0 1.218 1.218h3.279c0 .074.06.147.085.208l-9.58 9.518a6.101 6.101 0 1 0 8.63 8.629l10.31-10.274a1.219 1.219 0 0 0 0-1.719zm-2.56-14.722l3.45-3.45a3.656 3.656 0 0 1 5.167 0l-4.302 4.303a1.219 1.219 0 0 0-.366.865 1.219 1.219 0 0 0 .366.865l3.437 3.437a1.218 1.218 0 0 0 1.73 0l4.303-4.338a3.656 3.656 0 0 1 0 5.167l-3.45 3.486a3.754 3.754 0 0 1-5.167 0l-5.167-5.168a3.656 3.656 0 0 1 0-5.167z" fill="#0070EB"/><path d="M18.879 57.403l-11.213 11.2a1.219 1.219 0 0 0 0 1.731 1.22 1.22 0 0 0 1.73 0l11.201-11.213a1.22 1.22 0 1 0-1.718-1.718z" fill="#0070EB"/></svg>