<svg width="76" height="76" fill="none" xmlns="http://www.w3.org/2000/svg"><path d="M35.625 58.188a5.944 5.944 0 0 0-5.938 5.937 5.944 5.944 0 0 0 5.938 5.938 5.944 5.944 0 0 0 5.938-5.938 5.944 5.944 0 0 0-5.938-5.938zm0 9.5a3.567 3.567 0 0 1-3.563-3.563 3.567 3.567 0 0 1 3.563-3.563 3.567 3.567 0 0 1 3.563 3.563 3.567 3.567 0 0 1-3.563 3.563z" fill="#0070EB"/><path d="M74.813 20.188h-17.75a13.11 13.11 0 0 0-10.514 5.314L33.782 42.827l-7.006.935c-3.729.497-6.922 2.566-8.962 5.475V20.752a10.726 10.726 0 0 0 4.75-8.877c0-3.852-2.048-7.431-5.343-9.34l-1.434-.83-1.416 7.08-2.496 1.663L9.38 8.785l-1.415-7.08-1.435.83c-3.295 1.909-5.343 5.488-5.343 9.34 0 3.561 1.804 6.902 4.75 8.877v29.84a10.726 10.726 0 0 0-4.75 8.877c0 3.852 2.048 7.431 5.343 9.34l1.435.83 1.415-7.08 2.495-1.663 1.818 1.213a3.54 3.54 0 0 0-.63 2.016V66.5a3.567 3.567 0 0 0 3.562 3.563h10.12c1.92 2.861 5.183 4.75 8.88 4.75 3.697 0 6.961-1.889 8.88-4.75h30.307V20.187zm-39.719 24.86L48.46 26.91a10.729 10.729 0 0 1 8.604-4.348h15.374v2.375H57.635a7.152 7.152 0 0 0-5.746 2.912l-6.09 8.306c-3.16 1.176-5.423 4.216-5.423 7.782v10.628a10.593 10.593 0 0 0-4.75-1.127c-4.643 0-8.593 2.98-10.064 7.124h-7.748V56.71c0-.614.058-1.215.16-1.802 1.038.572 2.193.904 3.402.904a7.132 7.132 0 0 0 7.125-7.124c0-.933-.205-1.834-.562-2.685l7.156-.955zM48.687 38h1.188a2.377 2.377 0 0 1 2.375 2.375 2.377 2.377 0 0 1-2.375 2.375H42.87A5.947 5.947 0 0 1 48.688 38zm1.188-2.375h-.745l4.673-6.372a4.77 4.77 0 0 1 3.831-1.94h14.803V42.75H53.965c.408-.702.66-1.506.66-2.375 0-2.62-2.13-4.75-4.75-4.75zM25.542 46.45a4.61 4.61 0 0 1 .583 2.237c0 2.62-2.13 4.75-4.75 4.75-.98 0-1.915-.312-2.71-.871a10.74 10.74 0 0 1 6.877-6.116zM7.245 61.13l-.92 4.604a8.465 8.465 0 0 1-2.763-6.264 8.344 8.344 0 0 1 4.158-7.192l.593-.343V19.408l-.593-.343a8.34 8.34 0 0 1-4.157-7.19 8.469 8.469 0 0 1 2.76-6.264l.92 4.604 4.63 3.087 4.63-3.087.921-4.604a8.462 8.462 0 0 1 2.764 6.264 8.344 8.344 0 0 1-4.158 7.192l-.593.343v41.006l-3.562-2.374-4.63 3.087zm9.38 6.559a1.189 1.189 0 0 1-1.188-1.188v-2.375a1.19 1.19 0 0 1 1.188-1.188h8.383c-.044.391-.07.787-.07 1.188 0 1.25.226 2.446.623 3.563h-8.936zm19 4.75c-4.583 0-8.313-3.73-8.313-8.313 0-4.584 3.73-8.313 8.313-8.313s8.313 3.73 8.313 8.313c0 4.584-3.73 8.313-8.313 8.313zm10.064-4.75a10.61 10.61 0 0 0 .623-3.563c0-3.154-1.382-5.985-3.562-7.943V45.125h29.688v22.563H45.689z" fill="#0070EB"/><path d="M60.563 51.063a3.567 3.567 0 0 0 3.562 3.562H66.5a3.567 3.567 0 0 0 3.563-3.563V47.5h-9.5v3.563zm2.374-1.188h4.75v1.188c0 .654-.531 1.187-1.187 1.187h-2.375a1.189 1.189 0 0 1-1.188-1.188v-1.187zM30.875 20.188h3.07l5.098 5.096a2.879 2.879 0 0 0 2.028.841 2.87 2.87 0 0 0 2.867-2.867v-3.07H47.5a5.944 5.944 0 0 0 5.938-5.938V7.125A5.944 5.944 0 0 0 47.5 1.187H30.875a5.944 5.944 0 0 0-5.938 5.938v7.125a5.944 5.944 0 0 0 5.938 5.938zM27.312 7.124a3.567 3.567 0 0 1 3.563-3.563H47.5a3.567 3.567 0 0 1 3.563 3.563v7.125a3.567 3.567 0 0 1-3.563 3.563h-5.938v5.445c0 .402-.556.632-.84.348l-5.793-5.794h-4.054a3.567 3.567 0 0 1-3.563-3.562V7.125z" fill="#0070EB"/><path d="M47.152 6.777l-1.68-1.68-8.66 8.661-2.723-2.723-1.679 1.68 4.402 4.401 10.34-10.34zM10.688 19h2.374v2.375h-2.374V19zm0 4.75h2.374v2.375h-2.374V23.75zm0 4.75h2.374v2.375h-2.374V28.5zm38 34.438h2.374v2.374h-2.374v-2.374zm4.75 0h2.374v2.374h-2.374v-2.374zm4.75 0h2.374v2.374h-2.374v-2.374z" fill="#0070EB"/></svg>