<svg width="78" height="78" fill="none" xmlns="http://www.w3.org/2000/svg"><path d="M70.688 62.156h-1.22V51.188a3.66 3.66 0 0 0-3.656-3.657h-1.485l-.61-2.437h3.314a1.22 1.22 0 0 0 1.219-1.219V39a1.22 1.22 0 0 0-1.219-1.219H61.89l-1.745-6.98a3.651 3.651 0 0 0-3.548-2.77H48.75v-3.656a1.22 1.22 0 0 0-1.219-1.219H30.47a1.22 1.22 0 0 0-1.219 1.219v3.656h-7.846a3.653 3.653 0 0 0-3.548 2.77l-1.745 6.98H10.97A1.22 1.22 0 0 0 9.75 39v4.875a1.22 1.22 0 0 0 1.219 1.219h3.314l-.61 2.437h-1.486a3.66 3.66 0 0 0-3.656 3.657v10.968H7.312a1.22 1.22 0 0 0-1.218 1.219v4.875a1.22 1.22 0 0 0 1.218 1.219h6.094v3.656a3.66 3.66 0 0 0 3.656 3.656H19.5a3.66 3.66 0 0 0 3.656-3.656v-3.656h31.688v3.656a3.66 3.66 0 0 0 3.656 3.656h2.438a3.66 3.66 0 0 0 3.656-3.656v-3.656h6.094a1.22 1.22 0 0 0 1.218-1.219v-4.875a1.22 1.22 0 0 0-1.219-1.219zM65.811 40.22v2.437h-2.704l-.61-2.437h3.315zM31.688 25.594h14.625v2.437H31.687v-2.437zm-10.284 4.875h35.194c.56 0 1.046.38 1.182.924l.377 1.513H19.843l.378-1.513a1.217 1.217 0 0 1 1.183-.924zm-9.216 12.187V40.22H15.5l-.61 2.437h-2.704zm7.045-7.312h39.534l3.047 12.187H16.186l3.047-12.187zM10.97 51.187a1.22 1.22 0 0 1 1.219-1.218h53.624a1.22 1.22 0 0 1 1.22 1.218v10.97H49.968v-8.532a1.22 1.22 0 0 0-1.219-1.219h-19.5a1.22 1.22 0 0 0-1.219 1.219v8.531H10.97V51.188zm36.562 6.094H30.47v-2.437h17.06v2.437zM30.47 59.72h17.06v2.437H30.47V59.72zm-9.75 13.406a1.22 1.22 0 0 1-1.219 1.219h-2.438a1.22 1.22 0 0 1-1.218-1.219V69.47h4.875v3.656zm41.437 0a1.22 1.22 0 0 1-1.218 1.219H58.5a1.22 1.22 0 0 1-1.219-1.219V69.47h4.875v3.656zm7.313-6.094H8.53v-2.437h60.94v2.437z" fill="#777"/><path d="M24.375 52.406h-7.313a1.22 1.22 0 0 0-1.218 1.219V58.5a1.22 1.22 0 0 0 1.219 1.219h7.312a1.22 1.22 0 0 0 1.219-1.219v-4.875a1.22 1.22 0 0 0-1.219-1.219zm-1.219 4.875h-4.875v-2.437h4.875v2.437zm30.469 2.438h7.313a1.22 1.22 0 0 0 1.218-1.219v-4.875a1.22 1.22 0 0 0-1.218-1.219h-7.313a1.22 1.22 0 0 0-1.219 1.219V58.5a1.22 1.22 0 0 0 1.219 1.219zm1.219-4.875h4.875v2.437h-4.875v-2.437zM41.794 36.92l-7.313 7.312 1.724 1.724 7.312-7.313-1.723-1.723zm12.186 0l-7.312 7.312 1.724 1.724 7.312-7.312-1.724-1.724zm-24.374 0l-7.312 7.312 1.723 1.724 7.313-7.313-1.724-1.723zM74.091 9.573a4.853 4.853 0 0 0 1.472-3.48 4.88 4.88 0 0 0-4.876-4.874 4.88 4.88 0 0 0-4.874 4.875c0 1.364.565 2.593 1.47 3.48a6.09 6.09 0 0 0-2.69 5.051V19.5a1.22 1.22 0 0 0 1.22 1.219h9.75A1.22 1.22 0 0 0 76.78 19.5v-4.875a6.09 6.09 0 0 0-2.69-5.052zm-5.841-3.48a2.44 2.44 0 0 1 2.438-2.437 2.44 2.44 0 0 1 2.437 2.438 2.44 2.44 0 0 1-2.438 2.437 2.44 2.44 0 0 1-2.437-2.437zm6.094 12.188H67.03v-3.656a3.66 3.66 0 0 1 3.656-3.656 3.66 3.66 0 0 1 3.657 3.656v3.656zm-40.219 2.438h9.75a1.22 1.22 0 0 0 1.219-1.219v-4.875a6.09 6.09 0 0 0-2.69-5.052 4.853 4.853 0 0 0 1.471-3.48A4.88 4.88 0 0 0 39 1.22a4.88 4.88 0 0 0-4.875 4.875c0 1.364.566 2.593 1.471 3.48a6.09 6.09 0 0 0-2.69 5.051V19.5a1.22 1.22 0 0 0 1.219 1.219zm2.438-14.625A2.44 2.44 0 0 1 39 3.656a2.44 2.44 0 0 1 2.438 2.438A2.44 2.44 0 0 1 39 8.53a2.44 2.44 0 0 1-2.438-2.437zm-1.22 8.531A3.66 3.66 0 0 1 39 10.969a3.66 3.66 0 0 1 3.656 3.656v3.656h-7.312v-3.656zM13.406 19.5v-4.875a6.09 6.09 0 0 0-2.69-5.052 4.853 4.853 0 0 0 1.472-3.48A4.88 4.88 0 0 0 7.311 1.22a4.88 4.88 0 0 0-4.875 4.875c0 1.364.566 2.593 1.472 3.48a6.09 6.09 0 0 0-2.69 5.051V19.5a1.22 1.22 0 0 0 1.218 1.219h9.75a1.22 1.22 0 0 0 1.22-1.219zM4.875 6.094a2.44 2.44 0 0 1 2.438-2.438A2.44 2.44 0 0 1 9.75 6.094 2.44 2.44 0 0 1 7.312 8.53a2.44 2.44 0 0 1-2.437-2.437zm6.094 12.187H3.656v-3.656a3.66 3.66 0 0 1 3.656-3.656 3.66 3.66 0 0 1 3.657 3.656v3.656zm58.5 14.625h-6.094v2.438h7.313a1.22 1.22 0 0 0 1.218-1.219V23.156H69.47v9.75zm-63.375-9.75v10.969a1.22 1.22 0 0 0 1.218 1.219h7.313v-2.438H8.531v-9.75H6.094zm24.375-9.75H15.844v2.438h14.625v-2.438zm31.687 0H47.531v2.438h14.625v-2.438z" fill="#777"/></svg>