<svg width="74" height="74" fill="none" xmlns="http://www.w3.org/2000/svg"><g clip-path="url(#clip0)" fill="#0070EB"><path d="M58.969 58.39a4.63 4.63 0 0 0-4.625 4.626 4.63 4.63 0 0 0 4.625 4.625 4.63 4.63 0 0 0 4.625-4.625 4.63 4.63 0 0 0-4.625-4.625zm0 6.938a2.315 2.315 0 0 1-2.313-2.312 2.315 2.315 0 0 1 2.313-2.313 2.315 2.315 0 0 1 2.312 2.313 2.315 2.315 0 0 1-2.312 2.312zM15.031 58.39a4.63 4.63 0 0 0-4.625 4.626 4.63 4.63 0 0 0 4.625 4.625 4.63 4.63 0 0 0 4.625-4.625 4.63 4.63 0 0 0-4.625-4.625zm0 6.938a2.315 2.315 0 0 1-2.312-2.312 2.315 2.315 0 0 1 2.312-2.313 2.315 2.315 0 0 1 2.313 2.313 2.315 2.315 0 0 1-2.313 2.312z"/><path d="M1.156 64.172h4.705c.572 4.555 4.46 8.094 9.17 8.094s8.598-3.54 9.17-8.094H49.8c.572 4.555 4.46 8.094 9.17 8.094s8.598-3.54 9.17-8.094h4.704c.64 0 1.156-.517 1.156-1.156V43.359c0-.03-.015-.055-.017-.084a1.161 1.161 0 0 0-.045-.223 1.18 1.18 0 0 0-.08-.219c-.014-.025-.014-.054-.03-.078l-9.25-15.032c-.023-.038-.06-.06-.087-.093a1.08 1.08 0 0 0-.16-.172 1.14 1.14 0 0 0-.181-.122 1.156 1.156 0 0 0-.197-.089 1.213 1.213 0 0 0-.232-.047c-.045-.007-.082-.028-.127-.028H48.562c-.639 0-1.156.517-1.156 1.156l.001.005v15.026h-4.111a4.569 4.569 0 0 0 .642-2.31h1.156a1.155 1.155 0 1 0 0-2.313h-1.157v-2.298c0-10.403-7.68-19.021-17.662-20.548.2-.438.319-.921.319-1.434a3.473 3.473 0 0 0-3.469-3.47 3.473 3.473 0 0 0-3.469 3.47c0 .513.12.996.32 1.434C9.992 17.418 2.313 26.035 2.313 36.438v2.298H1.156a1.155 1.155 0 1 0 0 2.312h1.158v.001c0 .846.244 1.628.641 2.31H1.156c-.64 0-1.156.517-1.156 1.157v18.5c0 .64.517 1.156 1.156 1.156zm47.407-10.406c.639 0 1.156-.517 1.156-1.157V29.484h13.228l8.74 14.203v18.172H68.14c-.572-4.554-4.46-8.093-9.17-8.093s-8.598 3.539-9.17 8.093H24.2c-.572-4.554-4.46-8.093-9.17-8.093s-8.598 3.539-9.17 8.093H2.313V50.297h45.093v2.313c0 .639.517 1.156 1.157 1.156zM15.03 69.953a6.944 6.944 0 0 1-6.937-6.937 6.944 6.944 0 0 1 6.937-6.938 6.944 6.944 0 0 1 6.938 6.938 6.945 6.945 0 0 1-6.938 6.937zm43.938 0a6.945 6.945 0 0 1-6.938-6.937 6.944 6.944 0 0 1 6.938-6.938 6.944 6.944 0 0 1 6.937 6.938 6.944 6.944 0 0 1-6.937 6.937zM47.406 47.984H2.313v-2.312h4.603l.023.002.011-.002H39.3l.013.002.023-.002h8.07v2.313zM23.125 13.3a1.157 1.157 0 1 1 0 2.314 1.157 1.157 0 0 1 0-2.314zm0 4.64c10.2 0 18.5 8.299 18.5 18.5v2.297H4.626v-2.298c0-10.201 8.299-18.499 18.499-18.499zM4.626 41.05h36.999a2.314 2.314 0 0 1-2.29 2.31H6.916a2.315 2.315 0 0 1-2.289-2.31z"/><path d="M52.031 42.203h15.032a1.165 1.165 0 0 0 .504-.126c.033-.017.07-.024.103-.045.038-.024.06-.061.093-.088a1.038 1.038 0 0 0 .293-.34c.036-.064.067-.127.09-.198a1.22 1.22 0 0 0 .047-.232c.005-.045.026-.082.026-.127 0-.029-.015-.054-.018-.082a1.178 1.178 0 0 0-.045-.227 1.13 1.13 0 0 0-.08-.217c-.013-.024-.013-.054-.028-.079l-5.694-9.252c-.024-.04-.065-.064-.092-.1a1.117 1.117 0 0 0-.152-.161 1.08 1.08 0 0 0-.194-.13 1.175 1.175 0 0 0-.18-.083 1.184 1.184 0 0 0-.255-.05c-.038-.004-.073-.024-.112-.024h-4.701l-.012-.002h-4.625c-.64 0-1.156.518-1.156 1.157v9.25c0 .64.517 1.156 1.156 1.156zm8.694-9.25l4.269 6.938h-7.181v-6.938h2.912zM55.5 39.891h-2.313v-6.938H55.5v6.938zm-3.469 9.249h1.157a1.155 1.155 0 1 0 0-2.312H52.03a1.155 1.155 0 1 0 0 2.313zm-28.92-26.59c7.658 0 13.89 6.23 13.89 13.888a1.155 1.155 0 1 0 2.312 0c0-8.934-7.267-16.201-16.202-16.201a1.155 1.155 0 1 0 0 2.312zm-12.363-8.434a1.153 1.153 0 0 0 1.635 0c1.053-1.054 2.426-3.82.085-6.745-1.554-1.942-.342-3.394-.078-3.67a1.155 1.155 0 0 0-1.642-1.628c-1.054 1.053-2.426 3.818-.086 6.744 1.558 1.946.338 3.4.086 3.664a1.155 1.155 0 0 0 0 1.635zm23.12 0a1.153 1.153 0 0 0 1.635 0c1.053-1.054 2.426-3.82.085-6.745-1.554-1.942-.342-3.394-.078-3.67a1.155 1.155 0 0 0-1.642-1.628c-1.053 1.053-2.426 3.818-.086 6.744 1.558 1.946.338 3.4.086 3.664a1.155 1.155 0 0 0 0 1.635zM23.943 2.073a1.155 1.155 0 0 0-1.635 0c-1.053 1.053-2.425 3.818-.085 6.744a1.154 1.154 0 0 0 1.626.18c.498-.4.579-1.127.18-1.626-1.554-1.942-.342-3.394-.079-3.67a1.155 1.155 0 0 0-.007-1.628z"/></g><defs><clipPath id="clip0"><path fill="#fff" d="M0 0h74v74H0z"/></clipPath></defs></svg>