<svg width="78" height="78" fill="none" xmlns="http://www.w3.org/2000/svg"><path d="M55.234 26.289l-.835-2.747a5.967 5.967 0 0 0-11.3 0l-.834 2.747a15.43 15.43 0 0 0-.43 7.15 6.725 6.725 0 0 0 3.463 4.686l-.935 20.895a4.117 4.117 0 0 0 1.04 3.2 4.541 4.541 0 0 0 6.703 0 4.06 4.06 0 0 0 1.04-3.113l-.94-20.984a6.723 6.723 0 0 0 3.458-4.684c.42-2.384.272-4.834-.43-7.15zm-2.13 6.697a4.122 4.122 0 0 1-2.698 3.106 1.3 1.3 0 0 0-.841 1.275l.988 21.946c.045.43-.097.86-.39 1.177a2.008 2.008 0 0 1-2.826 0 1.56 1.56 0 0 1-.383-1.263l.98-21.86a1.3 1.3 0 0 0-.84-1.275 4.122 4.122 0 0 1-2.698-3.106 12.82 12.82 0 0 1 .357-5.936l.835-2.748a3.371 3.371 0 0 1 6.323 0l.835 2.748c.582 1.924.704 3.957.357 5.936zM35.1 19.5a1.3 1.3 0 0 0-1.3 1.3v11.162l-3.52 3.519a1.3 1.3 0 0 0-.38.984l1.137 22.75c.027.49-.15.97-.491 1.325a1.83 1.83 0 0 1-2.589.011l-.011-.011a1.77 1.77 0 0 1-.492-1.325l1.146-22.75a1.3 1.3 0 0 0-.38-.984l-3.52-3.52V20.8a1.3 1.3 0 0 0-2.6 0v11.7c0 .345.137.675.38.92l3.492 3.492-1.109 22.177a4.391 4.391 0 1 0 8.773 0l-1.11-22.177 3.493-3.493a1.3 1.3 0 0 0 .38-.919V20.8a1.3 1.3 0 0 0-1.3-1.3z" fill="#777"/><path d="M27.3 19.5a1.3 1.3 0 0 0-1.3 1.3v10.4a1.3 1.3 0 0 0 2.6 0V20.8a1.3 1.3 0 0 0-1.3-1.3zm3.9 0a1.3 1.3 0 0 0-1.3 1.3v10.4a1.3 1.3 0 0 0 2.6 0V20.8a1.3 1.3 0 0 0-1.3-1.3z" fill="#777"/><path d="M39 0C17.46 0 0 17.46 0 39c0 21.539 17.46 39 39 39 21.539 0 39-17.461 39-39C77.976 17.471 60.529.024 39 0zm0 75.4C18.897 75.4 2.6 59.103 2.6 39 2.6 18.897 18.897 2.6 39 2.6c20.103 0 36.4 16.297 36.4 36.4-.023 20.094-16.306 36.377-36.4 36.4z" fill="#777"/><path d="M43.22 63.403a1.3 1.3 0 0 0-1.47-1.162l.005-.001c-1.83.212-3.679.212-5.51 0a1.3 1.3 0 1 0-.302 2.583c2.03.237 4.08.237 6.11 0a1.3 1.3 0 0 0 1.168-1.42zm15.67-41.155a1.3 1.3 0 0 0-1.832-.16l-.005.004a1.3 1.3 0 0 0-.156 1.832c7.838 9.305 7.238 23.063-1.38 31.651a1.3 1.3 0 0 0 1.836 1.842c9.577-9.54 10.245-24.829 1.536-35.169zm-13.758-8.521a26.23 26.23 0 0 0-15.302.94 1.3 1.3 0 0 0 .457 2.516c.155 0 .31-.029.454-.084a23.617 23.617 0 0 1 13.78-.845 1.3 1.3 0 1 0 .611-2.527zM22.424 55.51A23.25 23.25 0 0 1 15.6 39a23.227 23.227 0 0 1 4.473-13.764 1.3 1.3 0 1 0-2.1-1.532c-7.517 10.333-6.41 24.596 2.608 33.647a1.302 1.302 0 0 0 1.843-1.841z" fill="#777"/></svg>