<svg width="78" height="78" fill="none" xmlns="http://www.w3.org/2000/svg"><path d="M70.85 23.4h-6.5v-2.6h2.6c.78 0 1.3-.52 1.3-1.3C68.25 8.71 59.54 0 48.75 0h-26C11.96 0 3.25 8.71 3.25 19.5c0 .78.52 1.3 1.3 1.3h2.6V65h-2.6c-.78 0-1.3.52-1.3 1.3 0 6.5 5.2 11.7 11.7 11.7h41.6c6.5 0 11.7-5.2 11.7-11.7 0-.78-.52-1.3-1.3-1.3h-2.6V31.2h6.5c2.21 0 3.9-1.69 3.9-3.9s-1.69-3.9-3.9-3.9zm-9.1 0h-7.8c-1.75 0-3.174 1.06-3.69 2.6h-1.51v-5.2h13v2.6zm-22.1 10.4h2.6v1.95c0 .39-.26.65-.65.65h-1.3c-.39 0-.65-.26-.65-.65V33.8zm2.6-2.6H29.12c-2.08 0-3.77-1.69-3.77-3.77V20.8h20.67v6.63c0 2.08-1.69 3.77-3.77 3.77zm-13 2.6h2.6v1.95c0 .39-.26.65-.65.65h-1.3c-.39 0-.65-.26-.65-.65V33.8zm-6.5-31.2h26c8.84 0 16.12 6.89 16.9 15.6H5.85c.78-8.71 8.06-15.6 16.9-15.6zm33.8 72.8h-41.6c-4.55 0-8.32-3.38-8.97-7.8h59.54c-.65 4.42-4.42 7.8-8.97 7.8zm-2.86-27.17c2.86.52 2.86 1.82 2.86 2.47 0 2.73-3.38 6.24-6.11 7.41 1.69-2.99 2.73-6.24 3.25-9.88zm-2.39-1.943a.97.97 0 0 0-.08.383c-.39 4.68-1.95 8.97-4.42 12.22-.029.043-.053.09-.076.135C43.906 62.725 40.034 65 35.75 65c-8.32 0-15.08-8.58-15.6-19.5h31.2c-.013.264-.03.526-.05.787zM61.75 65H44.062c1.56-1.038 2.99-2.358 4.25-3.907.146.007.292.007.438.007 4.16 0 10.4-5.59 10.4-10.4 0-2.027-.877-4.49-5.234-5.085.022-.468.034-.94.034-1.415 0-.78-.52-1.3-1.3-1.3h-33.8c-.78 0-1.3.52-1.3 1.3 0 9.026 4.029 16.901 9.889 20.8H9.75V20.8h13v6.63a6.383 6.383 0 0 0 3.9 5.87v2.45c0 1.82 1.43 3.25 3.25 3.25h1.3c1.82 0 3.25-1.43 3.25-3.25V33.8h2.6v1.95c0 1.82 1.43 3.25 3.25 3.25h1.3c1.82 0 3.25-1.43 3.25-3.25V33.3a6.396 6.396 0 0 0 3.79-4.7h1.62c.516 1.54 1.94 2.6 3.69 2.6h7.8V65zm9.1-36.4h-16.9c-.78 0-1.3-.52-1.3-1.3s.52-1.3 1.3-1.3h16.9c.78 0 1.3.52 1.3 1.3s-.52 1.3-1.3 1.3z" fill="#0070EB"/><path d="M53.95 70.2h-36.4c-.78 0-1.3.52-1.3 1.3s.52 1.3 1.3 1.3h36.4c.78 0 1.3-.52 1.3-1.3s-.52-1.3-1.3-1.3zm-29.9-54.6h23.4c.78 0 1.3-.52 1.3-1.3V6.5c0-.78-.52-1.3-1.3-1.3h-23.4c-.78 0-1.3.52-1.3 1.3v7.8c0 .78.52 1.3 1.3 1.3zm1.3-7.8h20.8V13h-20.8V7.8z" fill="#0070EB"/></svg>