<svg width="61" height="61" fill="none" xmlns="http://www.w3.org/2000/svg"><g clip-path="url(#clip0)" fill="#777"><path d="M60.204.795l-.01-.008A2.729 2.729 0 0 0 58.286 0h-.004c-.613 0-1.213.21-1.69.593A922.366 922.366 0 0 0 32.6 20.431L14.959 2.789a4.473 4.473 0 0 0-6.318 0L.26 11.168a.894.894 0 0 0 1.264 1.264L7.377 6.58l1.279 1.28-5.852 5.85a.894.894 0 0 0 1.264 1.264l5.851-5.851L11.2 10.4l-5.852 5.852a.894.894 0 0 0 1.263 1.264l5.852-5.852 1.279 1.279-5.852 5.851a.894.894 0 0 0 1.264 1.264l5.851-5.852 1.279 1.28-5.852 5.85a.894.894 0 0 0 1.264 1.264l5.851-5.851 1.28 1.279-5.852 5.851a.894.894 0 1 0 1.263 1.264l5.852-5.852 1.279 1.28-5.852 5.85a.894.894 0 0 0 1.264 1.264l5.851-5.851 1.279 1.279-5.852 5.851a.894.894 0 1 0 1.264 1.264l5.852-5.852 1.323 1.324a930.03 930.03 0 0 0-8.171 7.2h-.002c-.801.714-1.676 1.535-2.539 2.313-.528.383-.427 1.055-.165 1.317l.001.001a5.888 5.888 0 0 1 1.335 3.746 5.94 5.94 0 0 1-1.741 4.233l-2.695 2.695C8.634 51.182 1.79 48.468 1.787 42.837a6.248 6.248 0 0 1 6.252-6.245c1.9 0 3.675.847 4.867 2.318a.895.895 0 0 0 1.307.088l.009-.007a.894.894 0 0 0-.08-1.39 8.029 8.029 0 0 0-6.097-2.796h-.011c-4.468 0-8.04 3.638-8.034 8.032a8.039 8.039 0 0 0 10.497 7.658C8.821 55.71 12.723 61 18.146 61h.01c4.431 0 8.043-3.588 8.038-8.037a7.98 7.98 0 0 0-2.291-5.621l1.824-2.075c3.22-3.582 6.404-7.18 9.55-10.788l1.346 1.347-5.852 5.851a.894.894 0 0 0 1.264 1.264l5.851-5.852 1.28 1.28-5.852 5.85a.894.894 0 0 0 1.264 1.264l5.851-5.851 1.279 1.279-5.852 5.851a.894.894 0 1 0 1.264 1.264l5.852-5.852 1.278 1.279-5.851 5.852a.894.894 0 0 0 1.264 1.263l5.851-5.851 1.279 1.278-5.852 5.852a.894.894 0 0 0 1.264 1.264l5.852-5.852 1.278 1.279-5.851 5.851a.894.894 0 1 0 1.264 1.264l5.851-5.852 1.279 1.28-5.852 5.85a.894.894 0 0 0 1.264 1.264l5.852-5.851 1.278 1.279-5.851 5.85a.894.894 0 1 0 1.263 1.265l6.483-6.483.002-.002 1.894-1.894a4.438 4.438 0 0 0 1.309-3.16 4.44 4.44 0 0 0-1.309-3.159L40.55 28.38A903.337 903.337 0 0 0 60.406 4.407a2.71 2.71 0 0 0-.202-3.612zM8.64 5.316l1.263-1.263a2.684 2.684 0 0 1 3.791 0L31.24 21.599a942.51 942.51 0 0 0-3.392 2.926L8.641 5.316zm48.306 41.989a2.66 2.66 0 0 1 .785 1.895 2.66 2.66 0 0 1-.785 1.896l-1.263 1.263-19.231-19.23c.98-1.13 1.957-2.259 2.93-3.389l17.564 17.565zm-32.052-3.787c-.433-.332-1.588-.906-1.78-2.536a.895.895 0 0 0-1.775.21h.001a4.87 4.87 0 0 0 2.17 3.532c.063.042.126.085.192.132-.62.707-1.132 1.303-1.718 1.95a.899.899 0 0 0 .1 1.294 6.233 6.233 0 0 1 2.322 4.863 6.246 6.246 0 0 1-6.255 6.25c-3.438-.005-6.255-2.775-6.255-6.25.004-2.828 1.793-4.343 1.93-4.537l2.651-2.651a7.76 7.76 0 0 0 2.266-5.497 7.64 7.64 0 0 0-1.245-4.205c.7-.64 1.308-1.207 2.015-1.837l.003-.005C38.891 16.957 57.478 2.107 57.828 1.907c-.24.24-35.102 35.088-35.263 35.27a.895.895 0 0 0 1.336 1.186c.107-.121 34.936-34.937 35.191-35.193-.073.129-14.463 18.356-34.196 40.348z"/><path d="M11.203 39.683c-2.819-2.819-7.628-.788-7.628 3.158 0 1.193.465 2.315 1.31 3.159a4.453 4.453 0 0 0 3.159 1.306A4.455 4.455 0 0 0 11.203 46a4.468 4.468 0 0 0 0-6.317zm-1.264 5.053a2.684 2.684 0 0 1-3.791 0c-1.674-1.674-.502-4.573 1.896-4.573 2.404 0 3.561 2.907 1.895 4.573zm8.214 3.76c-1.838 0-3.416 1.055-4.12 2.753-.706 1.707-.338 3.574.96 4.873a4.393 4.393 0 0 0 4.863.962c1.705-.706 2.764-2.285 2.764-4.121a4.472 4.472 0 0 0-4.467-4.467zm1.019 6.938c-.8.33-1.985.353-2.915-.576-.93-.93-.905-2.12-.572-2.925.33-.798 1.152-1.65 2.467-1.65a2.683 2.683 0 0 1 2.681 2.68c0 1.314-.858 2.138-1.661 2.47z"/></g><defs><clipPath id="clip0"><path fill="#fff" d="M0 0h61v61H0z"/></clipPath></defs></svg>