<svg width="79" height="79" fill="none" xmlns="http://www.w3.org/2000/svg"><path d="M75.177 5.097H58.892l-11.466 45.87h-.28V33.98l-4.46-5.947h-1.912v-2.548h7.645v-12.43c0-5.272-3.573-9.848-8.686-11.123L32.165.039 29.307 0v1.274a5.102 5.102 0 0 1-5.097 5.097 5.102 5.102 0 0 1-5.097-5.097V0h-2.549L8.686 1.932A11.448 11.448 0 0 0 0 13.055v12.429h7.645v22.935h24.21v2.549H2.548v7.645h48.42a2.55 2.55 0 0 1 2.548 2.548 2.55 2.55 0 0 1-2.548 2.549H7.645C3.43 63.71 0 67.138 0 71.355 0 75.57 3.429 79 7.645 79c4.217 0 7.645-3.429 7.645-7.645 0-1.96-.746-3.743-1.962-5.097h26.86a7.605 7.605 0 0 0-1.962 5.097c0 4.216 3.429 7.645 7.645 7.645 4.216 0 7.645-3.429 7.645-7.645a7.61 7.61 0 0 0-2.012-5.152c2.556-.27 4.56-2.414 4.56-5.042v-8.765l9.915-39.654h9.198A3.828 3.828 0 0 0 79 8.919a3.828 3.828 0 0 0-3.823-3.822zM12.742 71.355a5.102 5.102 0 0 1-5.097 5.097 5.102 5.102 0 0 1-5.097-5.097 5.102 5.102 0 0 1 5.097-5.097 5.102 5.102 0 0 1 5.097 5.097zm33.129 5.097a5.102 5.102 0 0 1-5.097-5.097 5.102 5.102 0 0 1 5.097-5.097 5.102 5.102 0 0 1 5.097 5.097 5.102 5.102 0 0 1-5.097 5.097zm-1.274-41.624v13.888L39.5 45.66l-5.097 3.057v-13.89l3.186-4.246h3.822l3.186 4.247zm-3.823-11.893v-2.548h5.097v2.549h-5.097zm5.097-5.096h-5.097v-3.205a6.33 6.33 0 0 1 1.867-4.505L44.469 8.3c.88 1.39 1.402 3.016 1.402 4.755v4.784zM9.304 4.402l7.369-1.841c.613 3.605 3.759 6.358 7.537 6.358 3.777 0 6.924-2.753 7.537-6.358l7.368 1.841a8.89 8.89 0 0 1 3.7 1.948l-1.977 1.977a8.867 8.867 0 0 0-2.612 6.307v13.398h-1.911l-4.078 5.436a11.937 11.937 0 0 0-2.933-.339c-2.849 0-4.346.748-5.668 1.408-1.223.613-2.279 1.14-4.528 1.14-2.247 0-3.303-.527-4.525-1.14-1.106-.553-2.346-1.162-4.39-1.347V14.634A8.863 8.863 0 0 0 7.58 8.327L5.604 6.35a8.903 8.903 0 0 1 3.7-1.948zm.89 31.347c1.419.16 2.288.586 3.25 1.068 1.32.661 2.816 1.409 5.664 1.409 2.849 0 4.346-.748 5.667-1.408 1.223-.612 2.28-1.14 4.529-1.14 1.132 0 1.932.144 2.55.32v2.477a12.38 12.38 0 0 0-2.55-.25c-2.849 0-4.346.749-5.668 1.409-1.223.613-2.279 1.14-4.528 1.14-2.247 0-3.303-.527-4.525-1.14-1.106-.553-2.346-1.162-4.39-1.347v-2.538zM3.95 8.3l1.83 1.83a6.333 6.333 0 0 1 1.866 4.505v3.205H2.548v-4.783c0-1.74.524-3.366 1.402-4.756zM2.548 22.936v-2.549h5.097v2.549H2.548zm7.646 22.935v-5.025c1.419.16 2.288.586 3.25 1.067 1.32.662 2.816 1.41 5.664 1.41 2.849 0 4.346-.748 5.667-1.408 1.223-.612 2.28-1.14 4.529-1.14 1.133 0 1.932.144 2.55.322v4.774h-21.66zm29.306 2.76l3.894 2.337h-7.788L39.5 48.63zm14.016 8.118a5.054 5.054 0 0 0-2.548-.684H5.097v-2.549h48.42v3.233zm21.661-46.556H63.99L53.797 50.968H50.05L60.882 7.645h14.295a1.275 1.275 0 0 1 0 2.549z" fill="#0070EB"/><path d="M30.581 14.016h5.097v2.548H30.58v-2.548zm10.193 20.387a1.274 1.274 0 1 1-2.549 0 1.274 1.274 0 0 1 2.549 0z" fill="#0070EB"/></svg>