<svg width="66" height="66" fill="none" xmlns="http://www.w3.org/2000/svg"><path d="M33 58.781h24.75a1.03 1.03 0 0 0 1.031-1.031V33a1.03 1.03 0 0 0-1.031-1.031H33A1.03 1.03 0 0 0 31.969 33v24.75c0 .57.462 1.031 1.031 1.031zm1.031-2.062v-2.063H56.72v2.063H34.03zM40.22 42.28h-2.063v-4.125h2.063v4.125zm16.5 2.063v8.25h-2.063v-5.157a1.03 1.03 0 0 0-1.031-1.03h-6.188a1.03 1.03 0 0 0-1.03 1.03v5.157h-2.063v-5.157a1.03 1.03 0 0 0-1.032-1.03h-6.187a1.03 1.03 0 0 0-1.031 1.03v5.157H34.03v-8.25h22.69zm-4.125-2.063H50.53v-4.125h2.063v4.125zm-4.125 0h-2.063v-4.125h2.063v4.125zm4.125 10.313H48.47v-4.125h4.125v4.125zm-10.313 0h-4.125v-4.125h4.125v4.125zM56.72 34.03v8.25h-2.063v-5.156a1.03 1.03 0 0 0-1.031-1.031h-8.25a1.03 1.03 0 0 0-1.031 1.031v5.156H42.28v-5.156a1.03 1.03 0 0 0-1.031-1.031h-4.125a1.03 1.03 0 0 0-1.031 1.031v5.156H34.03v-8.25h22.69zM21.656 48.469h2.063v4.125h-2.063v-4.125zm-8.25 0h2.063v4.125h-2.063v-4.125zm16.5-33v3.094c0 .569.462 1.03 1.032 1.03h4.125a1.03 1.03 0 0 0 1.03-1.03v-3.094h3.094c.57 0 1.032-.462 1.032-1.031v-4.126a1.03 1.03 0 0 0-1.032-1.03h-3.093V6.186a1.03 1.03 0 0 0-1.032-1.03h-4.124a1.03 1.03 0 0 0-1.032 1.03V9.28h-3.093c-.57 0-1.032.462-1.032 1.031v4.126c0 .569.462 1.03 1.032 1.03h3.093zm-2.062-4.125h3.093c.57 0 1.032-.462 1.032-1.031V7.219h2.062v3.093c0 .57.462 1.032 1.032 1.032h3.093v2.062h-3.093c-.57 0-1.032.462-1.032 1.031v3.094H31.97v-3.093c0-.57-.462-1.032-1.032-1.032h-3.093v-2.062z" fill="#777"/><path d="M63.938 11.344H44.29C43.768 5.57 38.907 1.03 33 1.03S22.232 5.57 21.709 11.343H2.063c-.57 0-1.032.462-1.032 1.031v14.438c0 .569.462 1.03 1.032 1.03h1.03v36.094c0 .57.463 1.032 1.032 1.032h57.75a1.03 1.03 0 0 0 1.031-1.031V27.843h1.032a1.03 1.03 0 0 0 1.03-1.032V12.376a1.03 1.03 0 0 0-1.03-1.031zM33 3.094c5.117 0 9.281 4.164 9.281 9.281 0 5.117-4.164 9.281-9.281 9.281-5.117 0-9.281-4.164-9.281-9.281 0-5.117 4.164-9.281 9.281-9.281zm-5.156 59.812h-8.25v-24.75h8.25v24.75zm-10.313 0h-8.25v-24.75h8.25v24.75zm43.313 0H29.906V37.125a1.03 1.03 0 0 0-1.031-1.031H8.25a1.03 1.03 0 0 0-1.031 1.031v25.781H5.156V27.844h55.688v35.062zm2.062-37.125H3.094V13.406h18.615C22.232 19.18 27.093 23.72 33 23.72s10.768-4.54 11.291-10.313h18.615v12.375z" fill="#777"/></svg>