<svg width="66" height="66" fill="none" xmlns="http://www.w3.org/2000/svg"><path d="M47.903 44.71h17.033c.588 0 1.064-.476 1.064-1.065V5.323c0-.588-.476-1.065-1.064-1.065H48.968V1.065C48.968.477 48.492 0 47.903 0H18.097c-.59 0-1.065.477-1.065 1.065v3.193H1.065C.475 4.258 0 4.735 0 5.323v38.322c0 .59.476 1.065 1.065 1.065h19.789l-1.629 4.652a6.31 6.31 0 0 0-1.982-.391 6.377 6.377 0 0 0-5.533-3.197 6.377 6.377 0 0 0-5.534 3.197A6.395 6.395 0 0 0 0 55.355c0 1.773.728 3.38 1.9 4.538A3.192 3.192 0 0 0 0 62.806 3.198 3.198 0 0 0 3.194 66h59.612A3.198 3.198 0 0 0 66 62.806a3.19 3.19 0 0 0-1.9-2.913 6.368 6.368 0 0 0 1.9-4.538 6.395 6.395 0 0 0-6.176-6.384 6.377 6.377 0 0 0-5.534-3.197 6.377 6.377 0 0 0-5.533 3.197 6.303 6.303 0 0 0-1.982.39l-1.629-4.651h2.757zm-23.42-2.13V31.937h7.453V42.58h-7.452zm9.582-10.644h7.451V42.58h-7.451V31.935zM48.968 19.16h2.129v2.13h-2.13v-2.13zm0 8.516h2.129v2.13h-2.13v-2.13zm0 14.904v-4.258H63.87v4.258H48.968zM63.87 6.387v29.807H48.968v-4.259h3.193c.59 0 1.065-.477 1.065-1.064v-4.258c0-.587-.476-1.065-1.065-1.065h-3.193V23.42h3.193c.59 0 1.065-.477 1.065-1.064v-4.258c0-.588-.476-1.065-1.065-1.065h-3.193v-2.129h3.193c.59 0 1.065-.477 1.065-1.064V9.58c0-.588-.476-1.065-1.065-1.065h-3.193V6.387H63.87zm-14.903 4.258h2.129v2.13h-2.13v-2.13zM17.032 21.29h-2.129v-2.129h2.13v2.13zm0-8.516h-2.129v-2.129h2.13v2.13zm0-6.387v2.13H13.84c-.59 0-1.065.476-1.065 1.064v4.258c0 .587.476 1.064 1.065 1.064h3.193v2.13H13.84c-.59 0-1.065.476-1.065 1.064v4.258c0 .587.476 1.064 1.065 1.064h3.193v2.13H13.84c-.59 0-1.065.477-1.065 1.064v4.258c0 .587.476 1.065 1.065 1.065h3.193v4.258H2.13V6.387h14.903zm0 23.42h-2.129v-2.13h2.13v2.13zM2.13 38.322h14.903v4.258H2.13v-4.258zm17.032-7.452V2.129H46.84v40.452h-3.194V30.87c0-.587-.475-1.064-1.064-1.064H23.419c-.589 0-1.064.477-1.064 1.064v11.71H19.16V30.87zM6.387 51.097c.04 0 .08.008.117.014.074.01.15.02.225.025a1.06 1.06 0 0 0 1.063-.643 4.254 4.254 0 0 1 3.918-2.59 4.254 4.254 0 0 1 3.917 2.59c.18.42.604.677 1.064.643a8.07 8.07 0 0 0 .224-.025c.038-.006.078-.013.117-.014a4.262 4.262 0 0 1 4.258 4.258 4.262 4.262 0 0 1-4.258 4.258H6.387a4.262 4.262 0 0 1-4.258-4.258 4.262 4.262 0 0 1 4.258-4.258zm56.42 10.645a1.065 1.065 0 0 1 0 2.129H3.194a1.065 1.065 0 0 1 0-2.13h59.612zm-13.84-10.645c.04 0 .08.008.118.014.073.01.149.02.224.025.46.04.885-.223 1.064-.643a4.254 4.254 0 0 1 3.917-2.59 4.254 4.254 0 0 1 3.918 2.59c.179.42.607.677 1.063.643.076-.007.151-.016.225-.025.038-.006.077-.013.117-.014a4.262 4.262 0 0 1 4.258 4.258 4.262 4.262 0 0 1-4.258 4.258H48.968a4.262 4.262 0 0 1-4.258-4.258 4.262 4.262 0 0 1 4.258-4.258zm-4.07-.655a6.374 6.374 0 0 0-2.316 4.913c0 1.637.623 3.126 1.639 4.258H21.78a6.354 6.354 0 0 0 1.64-4.258 6.375 6.375 0 0 0-2.317-4.913l2.008-5.732h19.778l2.008 5.732z" fill="#0070EB"/><path d="M31.936 46.839h2.129v4.258h-2.13v-4.258zm0 6.387h2.129v4.258h-2.13v-4.258zm-9.581-42.581h4.258c.588 0 1.064-.477 1.064-1.064V5.323c0-.588-.476-1.065-1.064-1.065h-4.258c-.59 0-1.065.477-1.065 1.065V9.58c0 .587.476 1.064 1.065 1.064zm1.064-4.258h2.13v2.13h-2.13v-2.13zm7.452 4.258h4.258c.59 0 1.065-.477 1.065-1.064V5.323c0-.588-.476-1.065-1.065-1.065h-4.258c-.589 0-1.064.477-1.064 1.065V9.58c0 .587.475 1.064 1.064 1.064zm1.065-4.258h2.129v2.13h-2.13v-2.13zm7.451 4.258h4.258c.589 0 1.064-.477 1.064-1.064V5.323c0-.588-.475-1.065-1.064-1.065h-4.258c-.59 0-1.065.477-1.065 1.065V9.58c0 .587.476 1.064 1.065 1.064zm1.064-4.258h2.13v2.13h-2.13v-2.13zM22.355 19.162h4.258c.588 0 1.064-.478 1.064-1.065v-4.258c0-.587-.476-1.065-1.064-1.065h-4.258c-.59 0-1.065.478-1.065 1.065v4.258c0 .587.476 1.064 1.065 1.064zm1.064-4.259h2.13v2.13h-2.13v-2.13zm7.452 4.259h4.258c.59 0 1.065-.478 1.065-1.065v-4.258c0-.587-.476-1.065-1.065-1.065h-4.258c-.589 0-1.064.478-1.064 1.065v4.258c0 .587.475 1.064 1.064 1.064zm1.065-4.259h2.129v2.13h-2.13v-2.13zm7.451 4.259h4.258c.589 0 1.064-.478 1.064-1.065v-4.258c0-.587-.475-1.065-1.064-1.065h-4.258c-.59 0-1.065.478-1.065 1.065v4.258c0 .587.476 1.064 1.065 1.064zm1.064-4.259h2.13v2.13h-2.13v-2.13zM22.355 27.678h4.258c.588 0 1.064-.477 1.064-1.065v-4.258c0-.587-.476-1.064-1.064-1.064h-4.258c-.59 0-1.065.477-1.065 1.064v4.258c0 .588.476 1.065 1.065 1.065zm1.064-4.258h2.13v2.129h-2.13v-2.13zm7.452 4.258h4.258c.59 0 1.065-.477 1.065-1.065v-4.258c0-.587-.476-1.064-1.065-1.064h-4.258c-.589 0-1.064.477-1.064 1.064v4.258c0 .588.475 1.065 1.064 1.065zm1.065-4.258h2.129v2.129h-2.13v-2.13zM5.322 14.903H9.58c.59 0 1.065-.477 1.065-1.064V9.58c0-.588-.476-1.065-1.065-1.065H5.322c-.589 0-1.064.477-1.064 1.065v4.258c0 .587.475 1.064 1.064 1.064zm1.065-4.258h2.129v2.13h-2.13v-2.13zM5.322 23.42H9.58c.59 0 1.065-.478 1.065-1.065v-4.258c0-.588-.476-1.065-1.065-1.065H5.322c-.589 0-1.064.477-1.064 1.065v4.258c0 .587.475 1.064 1.064 1.064zm1.065-4.259h2.129v2.13h-2.13v-2.13zM5.322 31.935H9.58c.59 0 1.065-.477 1.065-1.064v-4.258c0-.587-.476-1.065-1.065-1.065H5.322c-.589 0-1.064.478-1.064 1.065v4.258c0 .587.475 1.064 1.064 1.064zm1.065-4.258h2.129v2.13h-2.13v-2.13zm50.032-12.774h4.258c.589 0 1.065-.477 1.065-1.064V9.58c0-.588-.476-1.065-1.065-1.065H56.42c-.589 0-1.064.477-1.064 1.065v4.258c0 .587.475 1.064 1.064 1.064zm1.065-4.258h2.129v2.13h-2.13v-2.13zM56.419 23.42h4.258c.589 0 1.065-.478 1.065-1.065v-4.258c0-.588-.476-1.065-1.065-1.065H56.42c-.589 0-1.064.477-1.064 1.065v4.258c0 .587.475 1.064 1.064 1.064zm1.065-4.259h2.129v2.13h-2.13v-2.13zm-1.065 12.774h4.258c.589 0 1.065-.477 1.065-1.064v-4.258c0-.587-.476-1.065-1.065-1.065H56.42c-.589 0-1.064.478-1.064 1.065v4.258c0 .587.475 1.064 1.064 1.064zm1.065-4.258h2.129v2.13h-2.13v-2.13zm-18.097.001h4.258c.589 0 1.064-.477 1.064-1.065v-4.258c0-.587-.475-1.064-1.064-1.064h-4.258c-.59 0-1.065.477-1.065 1.064v4.258c0 .588.476 1.065 1.065 1.065zm1.064-4.258h2.13v2.129h-2.13v-2.13z" fill="#0070EB"/></svg>