<svg width="19" height="19" fill="none" xmlns="http://www.w3.org/2000/svg"><path d="M9.5 2.332c-5.247 0-9.5 4.293-9.5 9.59 0 2.872 1.24 4.745 1.24 4.745l16.517.001S19 14.621 19 11.922c0-5.297-4.254-9.59-9.5-9.59zM17.06 15.5l-15.09-.007s-.804-1.523-.804-3.601c0-4.642 3.746-8.406 8.366-8.406 4.62 0 8.366 3.763 8.366 8.406 0 2.102-.838 3.608-.838 3.608z" fill="#F90B0B"/><path d="M12.187 4.878h-.12L9.533 9.843 6.908 4.835l-3.594 9.047h-.93v.727h5.09v-.726h-1.01l1.01-2.828 2.06 3.554 1.978-3.554 1.01 2.828h-1.01v.726h5.049v-.726h-.875l-3.5-9.005z" fill="#F90B0B"/></svg>