<?xml version="1.0" encoding="utf-8"?>
<svg xmlns="http://www.w3.org/2000/svg" xmlns:xlink="http://www.w3.org/1999/xlink">
  <symbol fill="none" viewBox="0 0 35 18" id="3D">
    <path d="M10.343 6.848l3.12-3.168V.2H.935v4.272h6l-2.472 2.52v3.48h2.232c1.44 0 1.992.432 1.992 1.152 0 .864-.912 1.296-2.184 1.296a9.194 9.194 0 01-4.512-1.224L.07 15.872c1.8 1.008 4.32 1.512 6.624 1.512 5.376 0 7.68-2.88 7.68-5.76 0-2.328-1.392-4.128-4.032-4.776zM16.325 17h8.28c5.616 0 9.48-3.192 9.48-8.4S30.221.2 24.605.2h-8.28V17zm5.664-4.416V4.616h2.376c2.376 0 4.008 1.416 4.008 3.984s-1.632 3.984-4.008 3.984h-2.376z" fill="#2599C2"></path>
  </symbol>
  <symbol fill="none" viewBox="0 0 15 15" id="angle-arrow-down">
    <path d="M3.75 5.625l3.75 3.75 3.75-3.75" stroke-width="2" stroke-linecap="round" stroke-linejoin="round"></path>
  </symbol>
  <symbol fill="none" viewBox="0 0 24 24" id="arrow-next">
    <path d="M4 12h16m-6-6l6 6-6 6" stroke-width="2" stroke-linecap="round" stroke-linejoin="round"></path>
  </symbol>
  <symbol fill="none" viewBox="0 0 24 24" id="arrow-prev">
    <path d="M20 12H4m6 6l-6-6 6-6" stroke-width="2" stroke-linecap="round" stroke-linejoin="round"></path>
  </symbol>
  <symbol fill="none" viewBox="0 0 24 24" id="bar-chart">
    <path d="M19 4h2v16h-2V4zm-8 5h2v11h-2V9zm-8 5h2v6H3v-6z" fill="#2599C2" stroke-width="2" stroke-linecap="round" stroke-linejoin="round"></path>
  </symbol>
  <symbol fill="none" viewBox="0 0 24 24" id="chevron-left">
    <path d="M15 18l-6-6 6-6" stroke-width="2" stroke-linecap="round" stroke-linejoin="round"></path>
  </symbol>
  <symbol fill="none" viewBox="0 0 24 24" id="chevron-right">
    <path d="M9 18l6-6-6-6" stroke-width="2" stroke-linecap="round" stroke-linejoin="round"></path>
  </symbol>
  <symbol fill="none" viewBox="0 0 45 90" id="chevron-left-long">
    <path d="M28.125 67.5L16.875 45l11.25-22.5" stroke-width="2" stroke-linecap="round" stroke-linejoin="round" opacity=".6"></path>
  </symbol>
  <symbol fill="none" viewBox="0 0 45 90" id="chevron-right-long">
    <path d="M16.875 67.5L28.125 45l-11.25-22.5" stroke-width="2" stroke-linecap="round" stroke-linejoin="round" opacity=".6"></path>
  </symbol>
  <symbol fill="none" viewBox="0 0 24 24" id="close">
    <path d="M18 6L6 18M6 6l12 12" stroke="#fff" stroke-width="2" stroke-linecap="round" stroke-linejoin="round"></path>
  </symbol>
  <symbol fill="none" viewBox="0 0 40 45" id="coub">
    <path d="M39.339 9.53a1.171 1.171 0 01.66 1.082v8.211a1.176 1.176 0 01-2.352 0v-6.331L32.29 15.17a1.176 1.176 0 01-1.053-2.105l4.955-2.477-4.955-2.477a1.176 1.176 0 011.053-2.105l7.048 3.525zm.66 24.564a1.168 1.168 0 01-.341.853c-.1.098-.205.172-.32.228l-7.047 3.524a1.176 1.176 0 01-1.053-2.105l4.955-2.477-4.955-2.477a1.176 1.176 0 011.053-2.104l5.356 2.678v-6.332a1.176 1.176 0 012.353 0v8.211zm-36.192.023l4.955 2.477A1.176 1.176 0 017.709 38.7L.661 35.175a1.171 1.171 0 01-.66-1.081v-8.212a1.176 1.176 0 012.352 0v6.332l5.356-2.678a1.176 1.176 0 111.053 2.104l-4.955 2.477zM2.353 12.492v6.331a1.176 1.176 0 01-2.353 0v-8.211a1.17 1.17 0 01.342-.853c.1-.099.205-.173.32-.228l7.047-3.525a1.176 1.176 0 111.053 2.105l-4.955 2.477 4.955 2.477a1.176 1.176 0 01-1.053 2.105l-5.356-2.678zM19.453.135a1.171 1.171 0 011.094 0l7.038 3.519a1.176 1.176 0 01-1.052 2.104L21.176 3.08v6.332a1.177 1.177 0 01-2.352 0V3.08l-5.357 2.678a1.177 1.177 0 01-1.052-2.104l7.038-3.52zm1.094 44.436a1.171 1.171 0 01-1.094 0l-7.038-3.52a1.176 1.176 0 111.052-2.104l5.356 2.678v-6.331a1.177 1.177 0 012.354 0v6.331l5.356-2.678a1.177 1.177 0 011.052 2.105l-7.038 3.519zm.63-23.844v6.331a1.176 1.176 0 01-2.354 0v-6.331l-6.408-3.204a1.176 1.176 0 111.052-2.105L20 18.684l6.533-3.266a1.177 1.177 0 011.052 2.105l-6.409 3.204z" fill="#2599C2"></path>
  </symbol>
  <symbol fill="none" viewBox="0 0 24 24" id="download">
    <path d="M3 17v3a2 2 0 002 2h14a2 2 0 002-2v-3M8 12l4 4 4-4M12 2v14" stroke-width="2" stroke-linecap="round" stroke-linejoin="round"></path>
  </symbol>
  <symbol fill="none" viewBox="0 0 18 20" id="map-pin">
    <path clip-rule="evenodd" d="M15.75 8.5c0 5.25-6.75 9.75-6.75 9.75s-6.75-4.5-6.75-9.75a6.75 6.75 0 0113.5 0v0z" stroke-width="2" stroke-linecap="round" stroke-linejoin="round"></path>
    <path clip-rule="evenodd" d="M9 10.75a2.25 2.25 0 100-4.5 2.25 2.25 0 000 4.5z" stroke-width="2" stroke-linecap="round" stroke-linejoin="round"></path>
  </symbol>
  <symbol fill="none" viewBox="0 0 24 24" id="menu">
    <path d="M3 12h18M3 6h18M3 18h18" stroke-width="2" stroke-linecap="round" stroke-linejoin="round"></path>
  </symbol>
  <symbol fill="none" viewBox="0 0 100 75" id="qw">
    <path opacity=".1" d="M45.082 3.825c-9.108 3.461-13.661 9.472-13.661 18.033 0 5.1 2.186 10.2 6.557 15.3 4.372 5.1 6.557 10.747 6.557 16.94 0 6.011-1.821 10.93-5.464 14.755-3.643 3.642-8.014 5.464-13.115 5.464-10.382 0-17.668-4.645-21.858-13.934C1.366 54.736 0 50 0 46.175c0-10.93 2.277-19.854 6.83-26.776 4.554-7.104 9.746-12.113 15.574-15.027C28.234 1.457 32.878 0 36.34 0c3.46 0 6.01.182 7.65.546l1.093 3.28zm54.918 0c-9.108 3.461-13.661 9.472-13.661 18.033 0 5.1 2.186 10.2 6.557 15.3 4.372 5.1 6.558 10.747 6.558 16.94 0 6.011-1.822 10.93-5.465 14.755-3.643 3.642-8.014 5.464-13.115 5.464-10.382 0-17.668-4.645-21.858-13.934-2.55-5.647-3.825-10.383-3.825-14.208 0-10.93 2.186-19.854 6.558-26.776 4.553-7.104 9.745-12.113 15.573-15.027C83.152 1.457 87.796 0 91.257 0c3.643 0 6.193.182 7.65.546L100 3.826z" fill="#2599C2"></path>
  </symbol>
  <symbol fill="none" viewBox="0 0 24 24" id="search">
    <path clip-rule="evenodd" d="M10.5 18a7.5 7.5 0 100-15 7.5 7.5 0 000 15z" stroke-width="2" stroke-linecap="round" stroke-linejoin="round"></path>
    <path d="M21 21l-5.2-5.2" stroke-width="2" stroke-linecap="round" stroke-linejoin="round"></path>
  </symbol>
  <symbol stroke="none" viewBox="0 0 55 50" id="service-1">
    <path d="M.523 25.475c.79.965 2.257 1.08 3.16.227l2.369-2.043v19.756c0 3.633 2.934 6.585 6.544 6.585h29.845c3.61 0 6.544-2.952 6.544-6.585v-19.7l2.37 2.044c.958.795 2.425.625 3.159-.397.733-.908.62-2.27-.226-3.066L29.013.554a2.22 2.22 0 00-2.933 0L.805 22.296c-.959.795-1.072 2.271-.282 3.18zm20.423 2.1c.451.398.846.852 1.241 1.363l-1.241-1.362zm-1.918 4.656a7.499 7.499 0 01-1.636-1.873l1.636 1.873zm13.935-3.293c.338-.51.79-.965 1.24-1.362l-1.24 1.362zm4.795 1.42a10.234 10.234 0 01-1.636 1.873l1.636-1.873zM27.547 5.265L44.528 19.8v23.616a2.029 2.029 0 01-2.031 2.043H29.803v-6.244l.395-.454h.282c7.278 0 13.202-5.904 13.258-13.285 0-.965-.113-1.987-.338-2.952a2.286 2.286 0 00-1.975-1.76c-.451-.056-.959-.056-1.41-.056-5.586 0-10.607 3.576-12.468 8.856-1.862-5.28-6.883-8.8-12.468-8.8-.452 0-.96 0-1.41.057a2.286 2.286 0 00-1.975 1.76c-1.637 7.153 2.82 14.25 9.929 15.896.959.227 1.974.34 2.933.34h.283l.395.454v6.245H12.652a2.029 2.029 0 01-2.031-2.044V19.855l16.925-14.59z" fill="#58595B"></path>
  </symbol>
  <symbol fill="none" viewBox="0 0 54 54" id="service-2">
    <path d="M17.167 46.76l.72 2.288-1.859-1.445-1.918 1.445.72-2.349-1.92-1.325h2.399l.72-2.23.719 2.23h2.278l-1.859 1.385zm11.031 3.011l.72 2.23-1.919-1.447-1.858 1.386.72-2.29-1.92-1.264 2.339-.06.72-2.17.719 2.17h2.278l-1.799 1.445zm19.005-11.024l.72 2.23-1.919-1.447-1.918 1.386.72-2.229-1.8-1.386h2.279l.72-2.168.719 2.168h2.278l-1.799 1.446zM39.11 46.76l.78 2.288-1.858-1.445-1.979 1.445.72-2.349-1.859-1.325h2.338l.78-2.23.659 2.23h2.278l-1.858 1.385zM9.135 38.747l.779 2.23-1.859-1.447-1.978 1.386.72-2.229-1.859-1.386h2.278l.84-2.168.599 2.168h2.338l-1.858 1.446zM6.197 27.723l.779 2.229-1.918-1.446-1.919 1.385.72-2.229L2 26.337l2.278-.06.78-2.169.659 2.169h2.338l-1.858 1.446zm10.97-19.096l.72 2.229-1.859-1.446-1.918 1.446.72-2.23-1.92-1.385h2.399l.72-2.168.719 2.168h2.278l-1.859 1.386zm-8.032 8.012l.779 2.229-1.859-1.446-1.978 1.446.72-2.23-1.859-1.385h2.278l.84-2.168.599 2.168h2.338L9.135 16.64zM28.198 5.614l.72 2.23-1.919-1.446-1.858 1.385.72-2.229-1.92-1.325 2.339-.06L27 2l.719 2.169h2.278l-1.799 1.445zM39.11 8.627l.78 2.229-1.858-1.446-1.979 1.446.72-2.23-1.859-1.385h2.338l.78-2.168.659 2.168h2.278l-1.858 1.386zm11.092 19.096l.719 2.229-1.859-1.446-1.918 1.385.72-2.229-1.86-1.325 2.279-.06.78-2.169.659 2.169H52l-1.798 1.446zm-2.999-11.084l.72 2.229-1.919-1.446-1.918 1.446.72-2.23-1.8-1.385h2.279l.72-2.168.719 2.168h2.278l-1.799 1.386z" fill="#58595B" stroke="#58595B" stroke-width="3" stroke-miterlimit="10" stroke-linecap="round" stroke-linejoin="round"></path>
  </symbol>
  <symbol stroke="none" viewBox="0 0 60 50" id="service-3">
    <path d="M56.268 43.537V23.435l-18.907 5.863a4.65 4.65 0 01-1.092.14 3.788 3.788 0 01-3.071-1.606l-1.911-2.792v21.498c0 2.234 2.047 3.909 4.232 3.35l19.862-5.095c.478-.14.887-.628.887-1.256zM28.764 25.11l-1.98 2.792a3.788 3.788 0 01-3.071 1.605c-.41 0-.82-.07-1.16-.21l-18.84-5.861v20.102c0 .558.41 1.117.956 1.256l19.998 5.096c2.048.558 4.096-1.047 4.096-3.281V25.11z" fill="#58595B"></path>
    <path d="M35.247 26.366c.205.35.614.559 1.023.559.137 0 .273 0 .342-.07l22.524-6.98c.341-.14.614-.349.75-.698.137-.349.137-.698.07-1.047L56.2 8.498s0-.07-.068-.07c0-.07-.068-.14-.068-.14-.069-.07-.069-.07-.069-.139l-.068-.07-.136-.14c-.069 0-.069-.07-.137-.07s-.068 0-.136-.069c-.069 0-.069-.07-.069-.07L30.47.052c-.205-.07-.478-.07-.751 0L4.737 7.73l-.069.07c-.068 0-.068 0-.136.07-.069 0-.069.07-.137.07l-.136.14-.069.069c-.068.07-.068.07-.068.14-.068.07-.068.07-.068.14 0 0 0 .069-.068.069L.096 18.2c-.137.349-.137.698.067 1.047.205.349.41.558.751.698l22.524 6.98c.137.07.205.07.342.07.41 0 .75-.21 1.024-.559l5.255-7.468 5.188 7.398zM9.31 9.056l20.68-6.351 20.681 6.351-20.681 6.352L9.31 9.056z" fill="#58595B"></path>
  </symbol>
  <symbol fill="none" viewBox="0 0 58 58" id="service-4">
    <path stroke="none" d="M23.542 21.57c-1.032-.547-1.784-1.16-2.257-1.838-.645-.924-.968-1.988-.968-3.193 0-1.978.93-3.596 2.79-4.854 1.451-.967 3.37-1.451 5.757-1.451 3.16 0 5.494.602 6.999 1.806 1.516 1.204 2.274 2.72 2.274 4.548 0 1.064-.301 2.058-.903 2.983-.452.688-1.161 1.355-2.129 2 1.28.613 2.23 1.424 2.854 2.435a6.183 6.183 0 01.952 3.354c0 1.183-.274 2.29-.823 3.322-.537 1.022-1.204 1.812-2 2.37-.784.56-1.768.968-2.95 1.227a16.783 16.783 0 01-3.758.403c-2.505 0-4.419-.296-5.74-.887-1.323-.592-2.329-1.462-3.017-2.613-.688-1.15-1.032-2.435-1.032-3.854 0-1.387.323-2.559.968-3.516.645-.967 1.64-1.714 2.983-2.241zm2.951-4.644c0 .818.253 1.479.758 1.984.516.494 1.2.742 2.048.742.753 0 1.371-.248 1.855-.742.484-.495.726-1.134.726-1.92 0-.816-.253-1.477-.758-1.983-.506-.516-1.15-.774-1.935-.774-.796 0-1.446.253-1.952.758-.494.495-.742 1.14-.742 1.935zm-.354 10.176c0 1.043.317 1.898.951 2.564.634.656 1.36.984 2.177.984.785 0 1.49-.333 2.113-1 .623-.677.935-1.532.935-2.564 0-1.043-.317-1.897-.951-2.564-.624-.667-1.35-1-2.177-1-.818 0-1.533.323-2.145.968-.602.645-.903 1.516-.903 2.612z" fill="#58595B"></path>
    <path d="M46.396 54H11.604C7.444 54 4 50.557 4 46.396V11.604C4 7.444 7.443 4 11.604 4h34.792C50.556 4 54 7.443 54 11.604v34.792C54 50.556 50.557 54 46.396 54z" stroke="#58595B" stroke-width="7" stroke-miterlimit="10" stroke-linecap="round" stroke-linejoin="round"></path>
    <path stroke="none" d="M25.438 46.139h-2.281v-4.282h-1.732v2.494c0 .665-.136 1.158-.409 1.48-.269.32-.684.481-1.244.481a7.665 7.665 0 01-1.71-.173v-1.687c.27.082.475.123.617.123.306 0 .46-.228.46-.684v-3.699h6.299v5.947zm7.998-2.411h-4.573c.04.367.14.64.297.819.22.258.508.386.863.386.224 0 .437-.056.639-.168.123-.07.256-.196.398-.375l2.247.207c-.344.598-.758 1.028-1.244 1.29-.486.257-1.183.386-2.09.386-.789 0-1.41-.11-1.861-.33-.452-.225-.828-.578-1.127-1.06-.295-.486-.442-1.056-.442-1.71 0-.93.297-1.683.89-2.258.599-.575 1.422-.863 2.472-.863.852 0 1.525.129 2.018.387a2.61 2.61 0 011.126 1.12c.258.49.387 1.127.387 1.912v.258zm-2.32-1.092c-.045-.441-.165-.757-.359-.948-.19-.19-.443-.285-.757-.285-.362 0-.651.144-.868.431-.138.18-.226.447-.264.802h2.248zm8.394-.779h-1.654v4.282H35.57v-4.282h-1.654v-1.665h5.594v1.665z" fill="#58595B"></path>
  </symbol>
  <symbol stroke="none" viewBox="0 0 50 50" id="service-5">
    <path d="M49.375 23.938L41.687 6.313 34 23.938c-.438 1-.625 2.062-.625 3.187 0 4.625 3.75 8.313 8.312 8.313 4.563 0 8.313-3.75 8.313-8.313 0-1.125-.188-2.25-.625-3.187zm-7.688 7.312a4.188 4.188 0 01-4.187-4.187c0-.563.125-1.063.312-1.563l3.875-8.812c1.813 4.187 3.688 8.437 3.875 8.875.188.5.313 1 .313 1.562 0 2.313-1.875 4.125-4.188 4.125zm-8.811 10.125l-5.75-13.25-5.813 13.25c-.312.75-.5 1.563-.5 2.375 0 3.438 2.813 6.25 6.25 6.25 3.438 0 6.25-2.813 6.25-6.25.063-.813-.125-1.625-.437-2.375zm-5.75 4.5a2.08 2.08 0 01-2.063-2.063c0-.25.063-.562.188-.812l1.937-4.438c1 2.25 1.813 4.126 1.938 4.438.125.25.125.5.125.75-.063 1.188-1 2.125-2.125 2.125zm-7.063-23.812L10.438 0 .812 22.063c-.5 1.25-.812 2.562-.812 4C0 31.813 4.688 36.5 10.438 36.5c5.75 0 10.437-4.688 10.437-10.438 0-1.437-.313-2.75-.813-4zm-9.625 10.25c-3.438 0-6.25-2.813-6.25-6.25 0-.813.187-1.625.5-2.375l5.75-13.25C13 16.375 16 23.188 16.25 23.688c.313.75.438 1.562.438 2.375 0 3.437-2.813 6.25-6.25 6.25z" fill="#58595B"></path>
  </symbol>
  <symbol viewBox="0 0 52 52" id="service-6">
    <path d="M26 35.068c4.89 0 8.892-4.08 8.892-9.068 0-4.987-4.001-9.067-8.892-9.067-4.89 0-8.892 4.08-8.892 9.067s4.001 9.068 8.892 9.068zm0-14.25c2.795 0 5.081 2.332 5.081 5.182 0 2.85-2.286 5.182-5.08 5.182-2.796 0-5.082-2.332-5.082-5.182 0-2.85 2.286-5.181 5.081-5.181z" fill="#58595B" stroke="#58595B" stroke-miterlimit="10" stroke-linecap="round" stroke-linejoin="round"></path>
    <path d="M1.101 30.987c-.19.842-.127 1.684.318 2.461l5.97 10.557c.89 1.555 2.795 2.073 4.32 1.23L15.9 42.84c.444.26.889.583 1.46.842v4.08c0 1.814 1.462 3.239 3.177 3.239h11.306c1.778 0 3.175-1.49 3.175-3.238v-4.21c.318-.194.7-.389 1.017-.583l4.001 2.396A3.174 3.174 0 0044.42 44.2l6.098-10.427c.444-.777.571-1.62.317-2.461-.19-.842-.762-1.555-1.46-2.008l-3.939-2.396v-1.556l4.002-2.331c.698-.454 1.27-1.166 1.46-1.943.191-.842.128-1.749-.317-2.461L44.611 8.06c-.89-1.555-2.795-2.073-4.32-1.231l-4.065 2.332c-.38-.26-.825-.454-1.207-.713v-4.21C35.02 2.425 33.56 1 31.844 1H20.538c-1.779 0-3.176 1.49-3.176 3.238v4.08c-.445.26-.89.454-1.27.713l-4.066-2.396c-1.524-.907-3.43-.389-4.319 1.166L1.546 18.228a3.362 3.362 0 00-.381 2.461c.19.842.698 1.555 1.46 2.008l3.939 2.396v1.555l-4.002 2.331a3.104 3.104 0 00-1.46 2.008zm9.464-2.202l-.127-1.23c-.063-.519-.063-1.037-.063-1.555s.063-1.101.127-1.684l.127-1.23-5.526-3.368 5.526-9.392 5.653 3.368 1.016-.777c.762-.583 1.461-1.036 2.54-1.425l1.271-.453V4.95h10.036v6.088l1.143.518c.953.453 1.906.971 2.731 1.554l1.017.713 5.653-3.239 5.335 9.456-5.59 3.304.128 1.23c.063.518.063 1.036.063 1.555 0 .518-.063 1.1-.127 1.684l-.127 1.23 5.526 3.368-5.462 9.391-5.526-3.303-1.017.583a14.138 14.138 0 01-2.54 1.425l-1.144.518v6.023H21.11V40.96l-1.27-.453c-1.143-.454-1.906-.907-2.731-1.555l-1.017-.777-5.716 3.368-5.336-9.456 5.526-3.303z" fill="#58595B" stroke="#58595B" stroke-miterlimit="10" stroke-linecap="round" stroke-linejoin="round"></path>
  </symbol>
  <symbol fill="none" viewBox="0 0 58 58" id="service-7">
    <path stroke="none" d="M47.759 27.17l-4.09-.86c-.358-.215-.717-1.722-.573-2.08l3.156-2.87c.574-.502.717-1.435.287-2.08-.358-.646-1.076-.933-1.793-.79L19.638 43.599c-.143.718.144 1.435.79 1.794.717.43 1.577.215 2.08-.287l2.797-3.085c.359-.144 1.937.215 2.08.502l.861 4.233c.144.789.861 1.362 1.65 1.362.79 0 1.435-.502 1.65-1.362l.861-4.09c.215-.358 1.722-.717 2.08-.573l2.87 3.156c.502.574 1.435.718 2.08.287.718-.43 1.005-1.148.79-1.937l-1.364-4.16c.072-.43 1.076-1.507 1.435-1.579l4.09 1.363c.788.215 1.577-.072 2.008-.789.43-.717.215-1.578-.287-2.08l-3.157-2.726c-.143-.359.216-1.865.503-2.08l4.232-.861c.789-.144 1.363-.861 1.363-1.65 0-1.005-.574-1.722-1.291-1.865zM32.622 38.219c-.789 0-1.506-.717-1.506-1.507 0-.789.717-1.506 1.506-1.506.79 0 1.507.717 1.507 1.507 0 .789-.646 1.506-1.507 1.506zm6.098-5.954c-.79 0-1.506-.718-1.506-1.507 0-.789.717-1.506 1.506-1.506s1.506.717 1.506 1.506c0 .861-.645 1.507-1.506 1.507zM11.318 29.61l4.09.86c.358.288.788 1.794.573 2.081l-3.156 2.87c-.574.502-.718 1.434-.287 2.08.358.574 1.076.933 1.721.79l25.108-25.037c.144-.717-.143-1.434-.79-1.793-.716-.43-1.577-.215-2.08.287L33.7 14.832c-.359.144-1.865-.215-2.08-.502l-.861-4.232c-.144-.79-.861-1.363-1.65-1.363-.79 0-1.435.502-1.65 1.363l-.861 4.089c-.215.359-1.793.789-2.08.574l-2.798-3.157c-.502-.574-1.435-.717-2.08-.358-.718.43-1.005 1.22-.79 2.008l1.292 3.946c-.072.43-1.076 1.506-1.435 1.578l-4.089-1.363c-.789-.215-1.578.072-2.008.789-.43.717-.216 1.578.358 2.08l3.085 2.798c.143.359-.215 1.865-.502 2.08l-4.233.861c-.789.144-1.363.861-1.363 1.65.072 1.148.574 1.794 1.363 1.937zm15.639-11.262c.789 0 1.506.717 1.506 1.506s-.717 1.506-1.506 1.506c-.79 0-1.507-.717-1.507-1.506 0-.79.718-1.506 1.507-1.506zm-6.385 5.81c.79 0 1.507.717 1.507 1.507 0 .789-.718 1.506-1.507 1.506-.789 0-1.506-.717-1.506-1.506 0-.79.717-1.507 1.506-1.507z" fill="#58595B"></path>
    <path d="M46.396 54H11.604C7.444 54 4 50.557 4 46.396V11.604C4 7.444 7.443 4 11.604 4h34.792C50.556 4 54 7.443 54 11.604v34.792C54 50.628 50.557 54 46.396 54zM6.94 51.059L50.27 7.73" stroke="#58595B" stroke-width="7" stroke-miterlimit="10" stroke-linecap="round" stroke-linejoin="round"></path>
  </symbol>
  <symbol fill="none" viewBox="0 0 58 58" id="service-8">
    <path d="M46.396 54H11.604C7.444 54 4 50.557 4 46.396V11.604C4 7.444 7.443 4 11.604 4h34.792C50.556 4 54 7.443 54 11.604v34.792C54 50.556 50.557 54 46.396 54z" stroke="#58595B" stroke-width="7" stroke-miterlimit="10" stroke-linecap="round" stroke-linejoin="round"></path>
    <path stroke="none" d="M24.015 36.998a4.01 4.01 0 004.017 4.018h10.186c2.224 0 3.515-.79 3.515-3.013V27.027a4.01 4.01 0 00-4.017-4.017h-3.3c1.148-2.224 3.085-8.106-.645-8.752-1.866-.358-3.229 2.009-4.735 4.95-1.076 2.08-2.51 3.73-3.587 4.591-1.865 1.578-1.434 3.228-1.434 3.228v9.971zm-5.165 3.157a2.572 2.572 0 002.582-2.583V26.74a2.572 2.572 0 00-2.582-2.582 2.572 2.572 0 00-2.583 2.582v10.832c.072 1.507 1.22 2.583 2.583 2.583z" fill="#58595B"></path>
  </symbol>
  <symbol fill="none" viewBox="0 0 40 40" id="spinner">
    <path opacity=".2" fill-rule="evenodd" clip-rule="evenodd" d="M20 1.667c.921 0 1.667.746 1.667 1.666V10a1.667 1.667 0 11-3.333 0V3.333c0-.92.746-1.666 1.667-1.666z" fill="#191919"></path>
    <path opacity=".6" fill-rule="evenodd" clip-rule="evenodd" d="M20 28.333c.921 0 1.667.747 1.667 1.667v6.667a1.667 1.667 0 11-3.333 0V30c0-.92.746-1.667 1.667-1.667z" fill="#191919"></path>
    <path fill-rule="evenodd" clip-rule="evenodd" d="M7.037 7.038c.65-.65 1.706-.65 2.357 0l4.717 4.717a1.667 1.667 0 01-2.357 2.357L7.037 9.395a1.667 1.667 0 010-2.357z" fill="#191919"></path>
    <path opacity=".4" fill-rule="evenodd" clip-rule="evenodd" d="M25.889 25.888c.65-.65 1.706-.65 2.357 0l4.716 4.717a1.667 1.667 0 11-2.357 2.357l-4.716-4.717a1.667 1.667 0 010-2.357z" fill="#191919"></path>
    <path opacity=".8" fill-rule="evenodd" clip-rule="evenodd" d="M1.666 20c0-.92.746-1.667 1.667-1.667h6.666a1.667 1.667 0 010 3.334H3.333c-.92 0-1.667-.747-1.667-1.667z" fill="#191919"></path>
    <path opacity=".4" fill-rule="evenodd" clip-rule="evenodd" d="M28.334 20c0-.92.746-1.667 1.667-1.667h6.666a1.667 1.667 0 110 3.334h-6.666c-.92 0-1.667-.747-1.667-1.667z" fill="#191919"></path>
    <path opacity=".6" fill-rule="evenodd" clip-rule="evenodd" d="M14.11 25.888a1.665 1.665 0 010 2.357l-4.716 4.717a1.667 1.667 0 11-2.357-2.357l4.717-4.717c.65-.65 1.706-.65 2.357 0z" fill="#191919"></path>
    <path opacity=".2" fill-rule="evenodd" clip-rule="evenodd" d="M32.962 7.038a1.666 1.666 0 010 2.357l-4.716 4.717a1.667 1.667 0 01-2.357-2.357l4.716-4.717a1.668 1.668 0 012.357 0z" fill="#191919"></path>
  </symbol>
  <symbol fill="none" viewBox="0 0 20 20" id="whatsapp">
    <path d="M9.99 0C4.53 0 .08 4.45.08 9.91c0 1.75.46 3.45 1.32 4.95L0 20l5.25-1.38c1.45.79 3.08 1.21 4.74 1.21 5.46 0 9.91-4.45 9.91-9.91 0-2.65-1.03-5.14-2.9-7.01A9.816 9.816 0 009.99 0zM10 1.67c2.2 0 4.26.86 5.82 2.42a8.225 8.225 0 012.41 5.83c0 4.54-3.7 8.23-8.24 8.23-1.48 0-2.93-.39-4.19-1.15l-.3-.17-3.12.82.83-3.04-.2-.32a8.188 8.188 0 01-1.26-4.38c.01-4.54 3.7-8.24 8.25-8.24zM6.48 5.33c-.16 0-.43.06-.66.31-.22.25-.87.86-.87 2.07 0 1.22.89 2.39 1 2.56.14.17 1.76 2.67 4.25 3.73.59.27 1.05.42 1.41.53.59.19 1.13.16 1.56.1.48-.07 1.46-.6 1.67-1.18.21-.58.21-1.07.15-1.18-.07-.1-.23-.16-.48-.27-.25-.14-1.47-.74-1.69-.82-.23-.08-.37-.12-.56.12-.16.25-.64.81-.78.97-.15.17-.29.19-.53.07-.26-.13-1.06-.39-2-1.23-.74-.66-1.23-1.47-1.38-1.72-.12-.24-.01-.39.11-.5.11-.11.27-.29.37-.44.13-.14.17-.25.25-.41.08-.17.04-.31-.02-.43-.06-.11-.56-1.35-.77-1.84-.2-.48-.4-.42-.56-.43-.14 0-.3-.01-.47-.01z" fill="#fff"></path>
  </symbol>
  <symbol fill="none" viewBox="0 0 30 30" id="zoom">
    <path clip-rule="evenodd" d="M13.125 22.5a9.375 9.375 0 100-18.75 9.375 9.375 0 100 18.75z" stroke-width="2" stroke-linecap="round" stroke-linejoin="round"></path>
    <path d="M13.125 8.75v8.75M8.75 13.125h8.75m8.75 13.125l-6.5-6.5" stroke-width="2" stroke-linecap="round" stroke-linejoin="round"></path>
  </symbol>
</svg>