<svg xmlns="http://www.w3.org/2000/svg" width="510.969" height="225.28" viewBox="0 0 510.969 225.28">
  <defs>
    <style>
      .cls-1 {
        fill: #fff;
        fill-rule: evenodd;
        opacity: 0.05;
        mix-blend-mode: overlay;
      }
    </style>
  </defs>
  <path id="Defi" class="cls-1" d="M133.013,2506.38h66.606c64.764,0,112.954-50.63,112.954-113.24,0-59.23-50.645-107.41-112.954-107.41H133.013v220.65Zm42.972-181.37h19.337c40.209,0,73.052,31.3,73.052,69.97,0,39.9-31.615,72.12-71.824,72.12H175.985V2325.01Zm291.552,119.07c-12.891,15.96-37.14,28.85-54.328,28.85-12.278,0-27.318-6.44-33.457-14.42l112.34-59.85c-9.822-33.75-45.12-57.08-80.418-57.08-46.962,0-85.329,37.75-85.329,84.09a85.54,85.54,0,0,0,85.329,85.32c16.882,0,41.744-7.68,55.863-19.65v-47.26Zm-99.755-18.72c0-25.16,16.574-45.72,44.2-45.72A49.841,49.841,0,0,1,437.15,2387Zm133.179-45.72h20.258v126.74H560.2V2379.64h23.327v-33.45H560.2c0-19.65,7.366-27.01,23.634-27.01v-32.53a98.53,98.53,0,0,0-15.654-.92c-29.773,0-46.962,25.78-46.962,49.1v11.36H500.961v33.45Zm103.727-88.39v38.06h39.288v-38.06H604.688Zm0,54.94v160.19h39.288V2346.19H604.688Z" transform="translate(-133 -2285.72)"/>
</svg>
