<svg xmlns="http://www.w3.org/2000/svg" width="953.876" height="330" viewBox="0 0 953.876 330">
  <defs>
    <style>
      .cls-1 {
        fill: #fff;
        fill-rule: evenodd;
        opacity: 0.05;
        mix-blend-mode: overlay;
      }
    </style>
  </defs>
  <path id="dETH" class="cls-1" d="M813.824,485.675c36.953,0,66.7,30.616,66.7,68.434s-29.742,68.434-66.244,68.434-66.245-30.615-66.245-68.434S777.322,485.675,813.824,485.675Zm66.7-129.664V459.562C865.648,442.9,834.553,429.4,811.12,429.4c-69.4,0-123.025,55.828-123.025,123.811,0,68.885,53.626,124.712,123.025,124.712,25.236,0,56.33-13.507,69.4-30.165v23.862H938.2V356.011H880.519Zm106.3-8.1v323.71H1164.37V613.989H1049.91v-81.04h114.46V475.32H1049.91V405.535h114.46V347.907H986.819Zm198.691,57.628h59.03V671.617h63.09V405.535h59.94V347.907H1185.51v57.628Zm214.02-57.628v323.71h63.09V532.5h116.26V671.617h63.09V347.907h-63.09V474.87H1462.62V347.907h-63.09Z" transform="translate(-688.094 -347.906)"/>
</svg>
