<svg xmlns="http://www.w3.org/2000/svg" width="1259.156" height="225.25" viewBox="0 0 1259.156 225.25">
  <defs>
    <style>
      .cls-1 {
        fill: #fff;
        fill-rule: evenodd;
        opacity: 0.05;
        mix-blend-mode: overlay;
      }
    </style>
  </defs>
  <path id="Ethereum" class="cls-1" d="M528.83,1999v220.66H649.765v-39.29H571.8v-55.24h77.963v-39.28H571.8v-47.56h77.963V1999H528.83Zm157.738,60.46h-22.1v33.45h22.1v126.75h39.288V2092.91h22.1v-33.45h-22.1v-54.93H686.568v54.93Zm78.865-54.93v215.13h39.289v-93.6c0-18.42,14.426-33.15,32.535-33.15s32.536,14.73,32.536,33.15v93.6h39.288V2116.23c0-33.75-27.317-61.37-60.774-61.37-19.337,0-38.981,7.06-43.585,15.96v-66.29H765.433Zm304.147,152.83c-12.89,15.96-37.14,28.85-54.33,28.85-12.28,0-27.315-6.45-33.454-14.43l112.344-59.84c-9.83-33.76-45.12-57.08-80.42-57.08-46.964,0-85.332,37.74-85.332,84.08a85.535,85.535,0,0,0,85.332,85.32c16.88,0,41.74-7.67,55.86-19.64v-47.26Zm-99.755-18.72c0-25.17,16.575-45.73,44.195-45.73a49.716,49.716,0,0,1,25.17,7.37Zm142.695,81.02h39.29v-89.62c0-20.56,16.27-37.44,36.22-37.44v-37.74c-13.2,0-29.47,7.06-36.22,15.96v-11.36h-39.29v160.2Zm227.73-62.3c-12.89,15.96-37.14,28.85-54.33,28.85-12.28,0-27.32-6.45-33.45-14.43l112.34-59.84c-9.83-33.76-45.12-57.08-80.42-57.08-46.96,0-85.33,37.74-85.33,84.08a85.535,85.535,0,0,0,85.33,85.32c16.88,0,41.74-7.67,55.86-19.64v-47.26Zm-99.75-18.72c0-25.17,16.57-45.73,44.19-45.73a49.716,49.716,0,0,1,25.17,7.37Zm139.62-79.18v102.81c0,34.06,27.32,61.99,60.78,61.99,16.57,0,35.29-7.06,43.27-15.96v11.36h38.99v-160.2h-38.99v93.6c0,18.42-14.42,33.15-32.53,33.15s-32.54-14.73-32.54-33.15v-93.6h-38.98Zm170.94,0v160.2h39.28v-94.83c0-17.5,13.51-31.92,30.08-31.92s30.08,14.42,30.08,31.92v94.83h39.29v-94.83c0-17.5,13.51-31.92,30.08-31.92s30.08,14.42,30.08,31.92v94.83h38.06V2116.23c0-33.75-27.93-61.37-62-61.37-18.41,0-39.9,9.51-48.19,21.48-5.83-11.97-27.01-21.48-47.57-21.48-15.04,0-32.85,7.06-39.91,15.96v-11.36h-39.28Z" transform="translate(-528.844 -1999)"/>
</svg>
