<svg xmlns="http://www.w3.org/2000/svg" width="496" height="207" viewBox="0 0 496 207"><g><g opacity=".05"><path fill="#fff" d="M113.715 39.44H37.797v44.967h73.749v35.758h-73.75v73.139H.38V3.684h113.335zm140.993 153.864l-11.387-34.132h-75.648l-11.387 34.132h-40.4l66.429-189.62h46.364l66.7 189.62zm-75.105-69.076h52.059l-26.03-77.474zM495.48 98.494c0 24.562-7.774 45.873-23.318 63.929l19.522 20.316-26.571 23.568-20.607-21.4c-14.641 8.126-30.55 12.19-47.72 12.19-27.296 0-50.525-9.524-69.682-28.579-19.162-19.051-28.74-42.394-28.74-70.024 0-27.63 9.578-50.97 28.74-70.024C346.26 9.419 369.49-.11 396.786-.11c27.292 0 50.567 9.529 69.818 28.58 19.25 19.054 28.876 42.393 28.876 70.024zm-98.694 62.033c7.05 0 14.1-1.172 21.149-3.522L386.754 124.5l26.572-23.567 33.35 34.673c7.591-10.835 11.387-23.203 11.387-37.111 0-18.057-5.876-32.956-17.624-44.696-11.752-11.737-26.3-17.608-43.653-17.608-17.353 0-31.905 5.87-43.653 17.608-11.752 11.74-17.624 26.64-17.624 44.696 0 17.878 5.872 32.688 17.624 44.426 11.748 11.74 26.3 17.607 43.653 17.607z"/></g></g></svg>