<svg width="98" height="30" viewBox="0 0 98 30" fill="none" xmlns="http://www.w3.org/2000/svg">
<path d="M24.0525 7.84317C23.7911 8.10461 23.7911 8.49677 24.0525 8.69284C24.314 8.95428 24.7061 8.95428 24.9022 8.69284C25.1636 8.43141 25.1636 8.03925 24.9022 7.84317C24.6408 7.58174 24.2486 7.58174 24.0525 7.84317Z" fill="#FEFEFE"/>
<path d="M30.0655 7.45093H27.4511L26.7975 8.23524C26.6668 8.36596 26.7322 8.43132 26.8629 8.49668L27.7126 8.88884L30.1309 7.77773C30.327 7.71237 30.2616 7.45093 30.0655 7.45093ZM20.3269 20.2614H17.1243C16.2747 20.7843 16.0132 20.915 14.9021 21.3725C14.8367 21.3725 14.7714 21.5032 14.8367 21.5686L17.7126 29.6078H19.3466L16.7322 22.2222C18.4315 22.2222 22.5492 21.7647 24.7714 18.1699C24.0524 19.2156 22.4185 20.2614 20.3269 20.2614ZM24.9021 8.69276C24.6407 8.9542 24.2485 8.9542 24.0524 8.69276C23.791 8.43132 23.791 8.03916 24.0524 7.84308C24.3139 7.58165 24.706 7.58165 24.9021 7.84308C24.3792 7.32021 23.5296 7.32021 23.072 7.84308C22.6145 8.36596 22.5492 9.15027 23.072 9.67315C23.5949 10.196 24.4446 10.196 24.9021 9.67315C25.3596 9.15027 25.425 8.36596 24.9021 7.84308C25.0982 8.10452 25.0982 8.43132 24.9021 8.69276ZM18.5622 23.3333L20.7845 29.6078H22.4185L20.0655 23.0065C19.6734 23.1372 19.1505 23.2026 18.5622 23.3333ZM20.7845 15.4901C20.9805 15.2287 21.1113 14.9673 21.3073 14.6405C21.242 14.5751 21.1766 14.6405 21.1113 14.7058C17.7779 18.2352 14.5753 18.6928 12.0916 18.6928H8.3008C8.17008 18.6928 8.10472 18.562 8.17008 18.4313C11.1113 14.379 14.3139 11.1764 16.7322 9.15027L10.3923 14.4444C9.86942 14.8366 9.28119 15.098 8.49687 15.098H0.523013C0.326934 15.098 0.392293 15.2941 0.392293 15.4248C0.91517 17.1241 2.4838 18.6928 5.09818 18.6928L3.20275 20.5882C3.13739 20.6535 3.13739 20.8496 3.33347 20.8496H10.4577C15.5557 20.8496 18.7583 18.6274 20.7845 15.4901Z" fill="#221F20"/>
<path d="M91.8955 29.6078H97.7125V11.634H91.8955V18.2353H86.4053V11.634H80.5883V29.6078H86.4053V22.8105H91.8955V29.6078ZM23.0719 9.6732C22.549 9.15033 22.549 8.36601 23.0719 7.84314C23.5948 7.32026 24.4445 7.32026 24.902 7.84314C25.3595 8.36601 25.4249 9.15033 24.902 9.6732C24.3791 10.1961 23.5294 10.1961 23.0719 9.6732ZM24.7059 18.1699C26.9281 14.5752 27.7124 8.88889 27.7124 8.88889L26.8628 8.49673C26.732 8.43137 26.732 8.36601 26.7974 8.23529L27.451 7.45098C27.0588 6.66667 25.6209 5.35948 23.5294 5.35948C22.2876 5.35948 21.1765 5.68627 20.1961 6.33987C20.1961 6.33987 18.7582 7.32026 16.732 9.08497C14.3137 11.1765 11.1111 14.3137 8.16994 18.366C8.10458 18.4967 8.16994 18.6274 8.30066 18.6274H12.0915C14.5752 18.6274 17.7778 18.1699 21.1111 14.6405C21.1765 14.5752 21.2418 14.5752 21.3072 14.5752C21.3726 14.6405 21.3726 14.7059 21.3726 14.7712C20.8497 16.0784 19.5425 18.6274 17.1242 20.1961H20.3268C22.4837 20.1961 24.0523 19.2157 24.7059 18.1699ZM21.4379 22.4837L23.9216 29.5425H30.9804C29.5425 25.1634 27.9739 21.1111 26.4706 17.3856C25.2941 19.9346 24.183 21.1765 21.4379 22.4837ZM0 29.6078H7.12419L9.54249 22.0915H2.61438C1.76471 24.3137 0.915033 26.7974 0 29.6078ZM9.60785 13.4641L13.2026 10.5229C13.9869 8.43137 14.7713 6.33987 15.5556 4.57516C15.9477 5.4902 16.3399 6.47059 16.732 7.45098C18.6928 5.81699 19.9347 4.8366 21.5686 4.37908C20.5883 2.22222 19.8693 0.653595 19.5425 0H11.5686C10.915 1.43791 8.36602 6.73203 5.35948 13.8562H8.2353C8.82354 13.8562 9.28105 13.7908 9.60785 13.4641ZM53.6602 27.5817L54.0523 29.5425H58.7582V11.634H52.9412V24.1176C52.4183 24.7059 51.438 25.3595 50.5229 25.3595C48.8889 25.3595 48.0393 24.4444 48.0393 22.7451V11.634H42.2223V24.1176C41.6994 24.7059 40.5883 25.3595 39.6079 25.3595C38.1046 25.3595 37.2549 24.4444 37.2549 22.7451V11.634H31.4379V23.5294C31.4379 27.8431 33.3334 30 37.2549 30C40.0654 30 41.7647 28.9542 43.0719 27.5817C43.987 29.2157 45.621 30 48.0393 30C50.8497 29.9346 52.4183 28.9542 53.6602 27.5817ZM72.1569 24.0523C71.634 24.6405 70.7844 25.2941 69.3465 25.2941C67.7778 25.2941 66.9282 23.8562 66.9282 21.0458C66.9282 17.5817 67.8432 15.8824 69.7386 15.8824C70.8497 15.8824 71.3726 15.9477 72.1569 16.1438V24.0523ZM67.3203 29.9346H67.5164C70.1308 29.9346 71.8955 29.0196 72.8759 27.5817L73.2027 29.5425H77.9739V12.3529C76.0785 11.7647 73.8563 11.2418 69.804 11.2418C63.987 11.2418 60.8497 14.7712 60.8497 21.3072C60.8497 27.3203 63.0719 29.9346 67.3203 29.9346Z" fill="#221F20"/>
</svg>
