<svg width="144" height="40" viewBox="0 0 144 40" fill="none" xmlns="http://www.w3.org/2000/svg">
<path d="M40.0064 20.0015C40.0102 23.567 39.0566 27.0681 37.2451 30.1391C37.2451 30.1391 30.2773 32.5973 20.0017 32.5973C9.72646 32.5973 2.75836 30.1391 2.75836 30.1391C1.20025 27.4884 0.274225 24.5142 0.0522535 21.4474C-0.169841 18.3808 0.318027 15.3042 1.47796 12.4566C2.63802 9.60913 4.43877 7.06728 6.74055 5.02869C9.04221 2.9901 11.7829 1.50951 14.7497 0.702097C17.7166 -0.105379 20.8296 -0.218038 23.847 0.372856C26.8644 0.96375 29.705 2.24226 32.148 4.10921C34.5911 5.97615 36.5708 8.38105 37.9337 11.1372C39.2964 13.8934 40.0055 16.9267 40.0056 20.0014L40.0064 20.0015Z" fill="#221F20"/>
<path d="M28.9648 22.2495C28.9648 22.1027 28.9064 21.962 28.8027 21.8581C28.6989 21.7544 28.5581 21.6961 28.4113 21.6961H27.3235V8.11202C27.3235 7.96524 27.2651 7.82448 27.1614 7.72069C27.0576 7.61689 26.9168 7.55859 26.77 7.55859H16.6999H15.8345C15.5878 7.55077 15.3412 7.57887 15.1025 7.64204C14.9034 7.69168 14.7248 7.80224 14.5915 7.95829C14.452 8.1547 14.3833 8.39269 14.3967 8.63326V10.0974C14.3967 10.5854 14.3895 11.1179 14.3748 11.6947C14.3587 12.2672 14.3235 15.131 14.2679 15.7283C14.2123 16.3257 14.1318 16.9187 14.0264 17.5057C13.9255 18.0723 13.781 18.6305 13.5945 19.1748C13.4229 19.6813 13.1945 20.1665 12.9137 20.6214C12.7121 20.9473 12.4657 21.243 12.1816 21.4998C12.0489 21.618 11.8854 21.6957 11.7101 21.7239C11.5587 21.7467 11.4136 21.8004 11.2841 21.882C11.1171 21.9932 11.0352 22.229 11.0352 22.5906V27.475C11.0352 27.6218 11.0935 27.7625 11.1972 27.8663C11.3011 27.9701 11.4418 28.0284 11.5886 28.0284H14.8345C14.9813 28.0284 15.1221 27.9701 15.2259 27.8663C15.3296 27.7625 15.388 27.6218 15.388 27.475V25.2261H24.5782V27.475C24.5782 27.6218 24.6366 27.7625 24.7404 27.8663C24.8441 27.9701 24.9849 28.0284 25.1317 28.0284H28.4085C28.5553 28.0284 28.696 27.9701 28.7998 27.8663C28.9036 27.7625 28.9619 27.6218 28.9619 27.475V22.2627L28.9648 22.2495ZM22.9692 21.6961H16.792C17.1372 21.1851 17.4064 20.6268 17.5914 20.0387C17.8036 19.391 17.9694 18.729 18.0878 18.0577C18.2079 17.3803 18.2933 16.7171 18.3441 16.0679C18.3938 15.4208 18.4187 12.5775 18.4187 12.0958V11.1222H22.9692V21.6961Z" fill="white"/>
<path d="M3.67285 31.5454C5.51876 34.1582 7.96487 36.2897 10.8056 37.761C13.6463 39.2322 16.7987 40 19.9978 40C23.1968 40 26.3492 39.2322 29.19 37.761C32.0307 36.2897 34.4768 34.1582 36.3228 31.5454C36.3228 31.5454 28.235 34.3155 19.9949 34.3155C11.7547 34.3155 3.6731 31.5454 3.6731 31.5454H3.67285Z" fill="#221F20"/>
<path d="M20.0008 34.3153C28.2408 34.3153 36.3287 31.5452 36.3287 31.5452C36.3287 31.5452 29.4694 37.0854 19.8802 37.0854C10.291 37.0854 3.67285 31.5452 3.67285 31.5452C3.67285 31.5452 11.7592 34.3153 20.0008 34.3153Z" fill="#221F20"/>
<path d="M63.3612 25.5981H56.4963C56.8794 25.0302 57.1778 24.4097 57.3822 23.756C57.6179 23.0354 57.8027 22.2994 57.9353 21.553C58.0678 20.7984 58.1627 20.0616 58.2201 19.3424C58.2758 18.6221 58.3036 15.4595 58.3036 14.9239V13.8351H63.3663L63.3612 25.5981ZM69.411 25.5981H68.1985V10.4797C68.1985 10.3988 68.1825 10.3189 68.1516 10.2442C68.1207 10.1696 68.0755 10.1017 68.0182 10.0446C67.9612 9.9875 67.8934 9.94209 67.8188 9.91121C67.7441 9.88033 67.6641 9.86433 67.5834 9.86433H56.3924C56.0549 9.86433 55.7343 9.86187 55.4305 9.85682C55.1545 9.84735 54.8786 9.87848 54.6117 9.94923C54.3904 10.005 54.1916 10.1274 54.0421 10.2999C53.9042 10.4682 53.8333 10.724 53.8333 11.0709V12.6953C53.8333 13.2431 53.8248 13.8338 53.808 14.4678C53.7915 15.1008 53.7523 18.2888 53.6903 18.9521C53.6282 19.6156 53.5396 20.2802 53.4219 20.9335C53.3096 21.5643 53.1492 22.1857 52.9423 22.7921C52.751 23.3551 52.4962 23.8945 52.1829 24.4C51.9537 24.7736 51.6715 25.1117 51.345 25.4039C51.2116 25.5188 51.0483 25.5934 50.8742 25.6192C50.6965 25.6421 50.5259 25.7034 50.3743 25.799C50.1912 25.9213 50.0996 26.1839 50.0996 26.5865V32.009V32.0179C50.0999 32.1809 50.1649 32.3372 50.2801 32.4526C50.3954 32.5679 50.5517 32.6329 50.7147 32.6331H54.3231C54.4862 32.6331 54.6427 32.5684 54.7581 32.453C54.8734 32.3376 54.9382 32.1811 54.9382 32.0179V29.5174H65.1521V32.009V32.0179C65.1525 32.1809 65.2173 32.3372 65.3326 32.4526C65.4479 32.5679 65.6042 32.6329 65.7672 32.6331H69.4098C69.5728 32.6329 69.7291 32.5679 69.8443 32.4526C69.9595 32.3372 70.0245 32.1809 70.0249 32.0179V32.009V26.2206V26.2129C70.0245 26.0499 69.9595 25.8936 69.8443 25.7782C69.7291 25.6629 69.5728 25.598 69.4098 25.5977" fill="#221F20"/>
<path d="M102.013 18.3557L108.341 11.1734C108.44 11.0636 108.504 10.9277 108.526 10.7821C108.548 10.6365 108.528 10.4875 108.467 10.3534C108.406 10.2193 108.308 10.1057 108.184 10.0265C108.06 9.94725 107.915 9.90591 107.768 9.90726H103.876C103.766 9.90714 103.658 9.93076 103.558 9.97666C103.458 10.0226 103.369 10.0896 103.298 10.1732L96.6202 17.9467V10.6682C96.6202 10.4667 96.5401 10.2736 96.3977 10.1311C96.2552 9.98859 96.0622 9.90849 95.8607 9.90849H92.6079C92.4065 9.90849 92.2135 9.98859 92.071 10.1311C91.9286 10.2736 91.8486 10.4667 91.8486 10.6682V29.2392C91.8486 29.4407 91.9286 29.6339 92.071 29.7764C92.2135 29.9189 92.4065 29.9989 92.6079 29.9989H95.8581C96.0596 29.9989 96.2527 29.9189 96.3951 29.7764C96.5376 29.6339 96.6176 29.4407 96.6176 29.2392V24.0662L98.7477 21.7163L103.529 29.6343C103.597 29.7471 103.693 29.8404 103.808 29.905C103.922 29.9696 104.052 30.0033 104.184 30.0027H107.871C108.007 30.0038 108.141 29.9682 108.259 29.8994C108.377 29.8308 108.474 29.7315 108.541 29.6121C108.607 29.4928 108.64 29.3578 108.636 29.2213C108.632 29.0849 108.592 28.952 108.519 28.8366L102.013 18.3557Z" fill="#221F20"/>
<path d="M123.902 24.615C123.791 24.5463 123.663 24.5077 123.533 24.5028C123.402 24.4978 123.272 24.5269 123.156 24.587C121.555 25.4042 119.782 25.8261 117.985 25.8177C114.604 25.8177 112.148 23.3527 112.148 19.9533C112.148 16.5007 114.581 14.0889 118.063 14.0889C119.748 14.0889 121.372 14.5004 123.026 15.3461C123.143 15.4075 123.273 15.4376 123.404 15.4336C123.536 15.4295 123.664 15.3912 123.776 15.3227C123.889 15.2542 123.981 15.1577 124.045 15.0425C124.109 14.9275 124.142 14.7978 124.14 14.6663V11.648C124.141 11.5126 124.105 11.3797 124.037 11.263C123.969 11.1461 123.871 11.0495 123.753 10.9833C123.166 10.6516 121.017 9.56903 117.939 9.56903C111.904 9.56903 107.353 14.0332 107.353 19.9507C107.353 25.8683 111.87 30.3325 117.858 30.3325C121.33 30.3325 123.63 29.0854 123.881 28.9397C123.999 28.8735 124.097 28.7769 124.165 28.6602C124.233 28.5433 124.269 28.4104 124.268 28.275V25.2682C124.269 25.1373 124.235 25.0085 124.171 24.8943C124.108 24.7801 124.015 24.6842 123.904 24.6162" fill="#221F20"/>
<path d="M73.3166 9.9052H76.5136C76.7151 9.9052 76.9083 9.98518 77.0506 10.1277C77.1931 10.2701 77.2731 10.4633 77.2731 10.6648V20.5261L87.6996 9.85069C87.7708 9.77834 87.8557 9.72088 87.9494 9.68162C88.043 9.64225 88.1435 9.62183 88.245 9.62158H88.3488C88.5502 9.62158 88.7434 9.70156 88.8857 9.84404C89.0282 9.98653 89.1082 10.1797 89.1082 10.3811V29.2388C89.1082 29.4404 89.0282 29.6336 88.8857 29.7761C88.7434 29.9185 88.5502 29.9985 88.3488 29.9985H85.1581C84.9567 29.9985 84.7635 29.9185 84.6211 29.7761C84.4787 29.6336 84.3987 29.4404 84.3987 29.2388V19.3561L73.9508 30.0567C73.8796 30.1297 73.7945 30.1875 73.7006 30.2269C73.6066 30.2663 73.5058 30.2863 73.404 30.286H73.3267C73.1254 30.286 72.9322 30.2059 72.7897 30.0634C72.6474 29.921 72.5674 29.7277 72.5674 29.5263V10.6686C72.5674 10.4671 72.6474 10.2738 72.7897 10.1315C72.9322 9.98899 73.1254 9.90889 73.3267 9.90889" fill="#221F20"/>
<path d="M127.657 9.9052H130.854C131.055 9.9052 131.249 9.98518 131.391 10.1277C131.533 10.2701 131.613 10.4633 131.613 10.6648V20.5261L142.041 9.85069C142.112 9.77822 142.197 9.72075 142.291 9.68138C142.384 9.64201 142.485 9.62171 142.587 9.62158H142.689C142.891 9.62158 143.084 9.70156 143.226 9.84404C143.368 9.98653 143.448 10.1797 143.448 10.3811V29.2388C143.448 29.4404 143.368 29.6336 143.226 29.7761C143.084 29.9185 142.891 29.9985 142.689 29.9985H139.492C139.291 29.9985 139.097 29.9185 138.955 29.7761C138.813 29.6336 138.733 29.4404 138.733 29.2388V19.3561L128.285 30.0567C128.214 30.1297 128.128 30.1875 128.035 30.2269C127.941 30.2663 127.84 30.2863 127.738 30.286H127.661C127.459 30.286 127.266 30.2059 127.124 30.0634C126.981 29.921 126.901 29.7277 126.901 29.5263V10.6686C126.901 10.4671 126.981 10.2738 127.124 10.1315C127.266 9.98899 127.459 9.90889 127.661 9.90889" fill="#221F20"/>
</svg>
