<svg width="160" height="30" viewBox="0 0 160 30" fill="none" xmlns="http://www.w3.org/2000/svg">
<path d="M85.1465 24.9685V5.03174H97.5323V9.66234H90.3111V24.9685H85.1465Z" fill="#221F20"/>
<path d="M113.115 24.9685V17.1603H105.443V24.9685H100.278V5.03174H105.443V12.472H113.115V5.03174H118.28V24.9685H113.115Z" fill="#221F20"/>
<path d="M148.252 24.9685V9.66234H142.22V5.03174H159.481V9.66234H153.419V24.9685H148.252Z" fill="#221F20"/>
<path d="M134.62 24.9659V13.6063L126.399 24.9659H122.08V5.03442H127.245V16.2758L135.328 5.03442H139.787V24.9659H134.62Z" fill="#221F20"/>
<path d="M55.4677 24.9685V13.1202L50.3112 19.3795L45.1548 13.1202V24.9685H39.9902V5.03174H45.0872L50.3112 11.887L55.5353 5.03174H60.6322V24.9685H55.4677Z" fill="#221F20"/>
<path d="M70.4372 17.9566H75.2369L72.837 11.7055L70.4372 17.9566ZM77.9287 24.9657L76.8477 22.1724H68.8184L67.7373 24.9657H62.5459L70.4886 5.03156H75.264L83.2095 24.9657H77.9287Z" fill="#221F20"/>
<path d="M0 9.08268C0.00500058 6.6749 0.948584 4.36722 2.62415 2.6649C4.29972 0.962586 6.57073 0.00435395 8.93998 0H29.5793V4.61686H8.94539C7.78122 4.62192 6.66612 5.09396 5.84266 5.9303C5.01923 6.76662 4.55405 7.89958 4.54837 9.08268L4.52134 16.8333C4.42714 17.8263 4.01197 18.7597 3.34066 19.4877C2.66937 20.2156 1.77976 20.697 0.81076 20.857L0 20.9833V9.08268Z" fill="#221F20"/>
<path d="M0.00195312 29.9999V25.3829H20.6412C21.8057 25.3772 22.9207 24.9045 23.7442 24.0678C24.5674 23.231 25.0326 22.0978 25.0383 20.9145V13.5593C25.0439 12.4922 25.4227 11.4619 26.1069 10.6524C26.791 9.84294 27.736 9.30695 28.7731 9.1402L29.5839 9.0166V20.9145C29.5788 23.3226 28.6354 25.6305 26.9598 27.3332C25.2844 29.036 23.0134 29.9947 20.6439 29.9999H0.00195312Z" fill="#221F20"/>
<path d="M17.4864 20.9997V15.0316L14.7947 18.2972L12.1057 15.0316V20.9997H8.54102V9.25574H11.9165L14.7947 13.0322L17.6729 9.25574H21.0484V20.9997H17.4864Z" fill="#221F20"/>
</svg>
