<svg width="110" height="20" viewBox="0 0 110 20" fill="none" xmlns="http://www.w3.org/2000/svg">
<path d="M102.938 15.1705C102.909 15.3954 102.824 15.9868 102.054 16.0637H95.2866C94.5161 15.9868 94.3754 15.3954 94.3466 15.1705V4.7238C94.3751 4.49842 94.4819 4.01936 95.2524 3.94252H102.057C102.827 4.01936 102.909 4.49842 102.938 4.7238V15.1705ZM105.281 0.00646894H92.0035C90.0086 0.167415 88.3233 1.1792 88.0985 3.4427V16.3764C88.3233 18.6399 90.0086 19.8391 92.0035 20H105.281C107.276 19.8391 108.961 18.6399 109.186 16.3764V3.4427C108.961 1.1792 107.276 0.167415 105.281 0.00646894ZM51.5468 3.94252H45.611V0.00646894H63.7308V3.94252H57.7949V20H51.5468V3.94252ZM43.7367 3.94252V0.00646894H27.4914V20L43.9527 19.9957L43.9586 16.064H33.7553L33.7564 11.7817H43.7367V7.8554H33.7564V3.94253H43.7367L43.7367 3.94252ZM79.9759 7.04149C79.9759 7.47419 79.8684 7.85378 79.0917 7.85378H71.8534V3.92931H79.1011C79.9827 3.92931 79.9759 4.50624 79.9759 4.86642V7.04149ZM81.7067 12.2276C83.6559 12.0716 85.5991 10.7449 85.5991 8.56604V3.63006C85.3729 1.37708 83.6826 0.160407 81.6787 0H65.605L65.6055 20H71.8533V12.2276H74.3401L78.4012 20H85.5867L80.7504 12.2276H81.7067H81.7067ZM14.558 20L18.7442 7.44157V20H24.9923V0.00646894H16.5575L12.4962 10.0035L8.43477 0.00646894H0V20H6.24813V7.44157L10.4653 20H14.558Z" fill="#221F20"/>
</svg>
