<svg width="106" height="30" viewBox="0 0 106 30" fill="none" xmlns="http://www.w3.org/2000/svg">
<path fill-rule="evenodd" clip-rule="evenodd" d="M13.5867 5.19728C14.6979 5.11791 15.7826 5.19728 16.8938 5.25019C21.9471 5.69996 26.0743 8.92768 26.3389 14.219C26.7093 22.0502 21.1798 29.1671 13.2163 29.9079C10.7823 30.1195 8.26892 30.0137 5.96718 29.0877C0.781664 27.1299 -0.72637 22.1031 0.305443 17.0234C1.60182 10.3563 6.8138 5.6735 13.5867 5.19728ZM29.3814 0.0382129C31.2598 0.0117561 33.1382 0.0382153 34.9902 0.0117586C32.8208 2.63098 30.7307 5.32956 28.5612 7.97523C27.794 7.94878 27.0003 7.97524 26.233 8.00169C27.2913 5.32956 28.376 2.68389 29.3814 0.0382129ZM82.1361 5.93807C84.676 5.91161 87.2423 5.93807 89.7821 5.91161C89.2794 8.74248 88.7503 11.5734 88.2476 14.4042C88.036 15.7006 87.7185 16.9705 87.6127 18.2669C91.1049 14.219 94.5972 10.1711 98.0895 6.12326C100.656 6.04389 103.249 5.96453 105.815 5.91161C104.227 13.4253 102.455 21.9444 101.344 29.511C99.1213 29.6962 95.8936 29.6433 93.6448 29.511C94.4385 25.5954 95.3116 21.2036 95.8407 17.2615C92.2426 20.939 88.6974 25.4896 85.2845 29.4052C85.0728 29.7227 78.5115 29.5375 77.6914 29.511C79.1465 21.6534 80.6545 13.7957 82.1361 5.93807ZM59.0129 5.8587C65.3625 5.88515 71.7386 5.8587 78.0882 5.88515C77.7443 7.57838 77.2945 9.5891 77.1093 11.2823C76.4215 11.3352 75.7071 11.2823 75.0193 11.2823C72.0296 11.3352 69.0136 11.203 66.024 11.3617C65.8652 12.4993 65.5742 13.6105 65.4419 14.7482C68.9342 14.7482 72.4529 14.7482 75.9452 14.7482C75.6542 16.5472 75.2838 18.3198 74.9663 20.1189C71.4476 20.0924 67.9553 20.1189 64.4366 20.1189C64.1191 21.2036 63.9074 22.7116 63.7222 23.8493C67.3997 23.8493 71.0772 23.8493 74.7811 23.8493C74.3843 25.7277 74.0139 27.712 73.6964 29.5904C67.3203 29.5904 60.9707 29.5639 54.5947 29.5904C56.0233 21.8121 57.3197 13.5576 59.0129 5.8587ZM33.1118 5.88515C35.7839 5.88515 38.4561 5.91161 41.1546 5.88515C40.6784 8.90122 40.0435 11.9173 39.5143 14.9334C39.6466 14.854 39.8053 14.8011 39.8847 14.6688C41.3663 13.002 42.9537 11.4146 44.5411 9.82721C45.1761 9.19224 48.245 5.93807 48.6419 5.91161C51.3934 5.93807 54.1713 5.91161 56.9228 5.91161C53.5893 8.95414 50.3087 12.8697 47.028 16.0975C48.0598 19.5633 51.658 25.9923 53.3512 29.5639C50.097 29.6433 46.8693 29.5904 43.6151 29.5639C42.1071 25.9658 40.5726 22.3942 39.091 18.8225C38.6412 17.4732 37.0009 27.9765 36.8422 29.5375C34.1701 29.6698 31.4715 29.5639 28.7993 29.6168C29.8576 21.6798 32.1329 13.7693 33.1118 5.88515ZM9.69758 13.7428C8.26892 16.1239 6.76089 21.8915 9.7505 23.717C12.6343 25.3838 15.5181 23.3731 16.9203 20.8332C17.9785 19.0342 18.6135 15.9123 18.1373 13.9015C17.8992 12.8962 17.3171 11.8908 16.3911 11.3882C13.8513 9.98595 11.0998 11.494 9.69758 13.7428ZM94.3062 0.0117586C96.1582 -0.0146982 98.0102 0.0117586 99.8621 0.0117586C97.8514 2.68389 95.6026 5.32956 93.486 7.94878C92.6923 7.92232 91.9251 8.00169 91.1579 7.94878C92.2426 5.32956 93.2744 2.68389 94.3062 0.0117586Z" fill="#221F20"/>
</svg>
