<svg width="15" height="14" fill="none" xmlns="http://www.w3.org/2000/svg"><path d="M8.094 12.906l-.719.688a.723.723 0 0 1-.531.219.723.723 0 0 1-.532-.22L.25 7.532A.723.723 0 0 1 .031 7c0-.208.073-.385.219-.531L6.313.406a.723.723 0 0 1 .53-.219.72.72 0 0 1 .532.22l.719.687a.628.628 0 0 1 .187.531.723.723 0 0 1-.219.531L4.313 5.75h8.97a.72.72 0 0 1 .53.219.723.723 0 0 1 .22.531v1a.723.723 0 0 1-.22.531.723.723 0 0 1-.53.219h-8.97l3.75 3.594a.723.723 0 0 1 .22.531.628.628 0 0 1-.188.531z" fill="#C2C2C2"/></svg>