<svg width="48" height="48" fill="none" xmlns="http://www.w3.org/2000/svg"><g clip-path="url(#clip0)" fill="#fff"><path d="M37.188 15.87a.904.904 0 1 0 .001 1.807.904.904 0 0 0 0-1.807z"/><path d="M44.415 12.257h-9.92L31.63 6.529a2.696 2.696 0 0 0-2.424-1.499H18.793a2.695 2.695 0 0 0-2.423 1.5l-2.864 5.728h-1.79v-.903a2.713 2.713 0 0 0-2.71-2.71H7.198a2.713 2.713 0 0 0-2.71 2.71v.903h-.903a2.713 2.713 0 0 0-2.71 2.71V40.26a2.713 2.713 0 0 0 2.71 2.71h40.83a2.713 2.713 0 0 0 2.71-2.71V14.967a2.713 2.713 0 0 0-2.71-2.71zm-26.43-4.92a.899.899 0 0 1 .808-.5h10.414c.344 0 .654.191.808.5l2.46 4.92h-16.95l2.46-4.92zm-11.69 4.017c0-.499.405-.904.903-.904h1.807c.498 0 .903.405.903.904v.903H6.295v-.903zM2.682 21.28h11.422a11.748 11.748 0 0 0-1.847 6.332c0 2.26.647 4.449 1.847 6.324H2.682V21.28zM24 17.677c5.432 0 9.937 4.4 9.937 9.936 0 5.53-4.499 9.937-9.937 9.937-5.443 0-9.937-4.412-9.937-9.937 0-5.529 4.498-9.936 9.937-9.936zM45.318 40.26a.904.904 0 0 1-.903.903H3.585a.904.904 0 0 1-.903-.903v-4.517h12.847A11.751 11.751 0 0 0 24 39.356c3.2 0 6.264-1.312 8.47-3.613h12.848v4.517zm0-6.323H33.896a11.717 11.717 0 0 0 1.847-6.324 11.72 11.72 0 0 0-1.847-6.323h11.422v12.647zm0-14.454H32.471A11.751 11.751 0 0 0 24 15.87a11.75 11.75 0 0 0-8.47 3.613H2.681v-4.516c0-.498.405-.904.903-.904h40.83c.498 0 .903.406.903.904v4.516z"/><path d="M26.71 8.644h-5.42a.903.903 0 1 0 0 1.806h5.42a.903.903 0 0 0 0-1.806zM24 19.483c-4.483 0-8.13 3.648-8.13 8.13 0 4.483 3.647 8.13 8.13 8.13 4.483 0 8.13-3.647 8.13-8.13 0-4.482-3.647-8.13-8.13-8.13zm0 14.454a6.33 6.33 0 0 1-6.323-6.324A6.33 6.33 0 0 1 24 21.29a6.33 6.33 0 0 1 6.323 6.323A6.33 6.33 0 0 1 24 33.937z"/><path d="M24 23.097a4.522 4.522 0 0 0-4.517 4.516.903.903 0 1 0 1.807 0 2.713 2.713 0 0 1 2.71-2.71.903.903 0 0 0 0-1.806zm18.608-7.227h-1.806a.903.903 0 1 0 0 1.807h1.806a.903.903 0 0 0 0-1.807z"/></g><defs><clipPath id="clip0"><path fill="#fff" transform="translate(.875 .875)" d="M0 0h46.25v46.25H0z"/></clipPath></defs></svg>