<svg width="12" height="12" fill="none" xmlns="http://www.w3.org/2000/svg"><path d="M7.625 6l3.125 3.125a.935.935 0 0 1 .281.688c0 .27-.094.51-.281.718l-.688.688a1.043 1.043 0 0 1-.718.281.939.939 0 0 1-.688-.281L5.531 8.094l-3.125 3.125a.936.936 0 0 1-.687.281c-.271 0-.51-.094-.719-.281l-.688-.688a1.043 1.043 0 0 1-.28-.719c0-.27.093-.5.28-.687L3.438 6 .312 2.875a.935.935 0 0 1-.28-.688c0-.27.093-.51.28-.718L1 .78c.208-.186.448-.28.719-.28.27 0 .5.094.687.281l3.125 3.125L8.656.781A.935.935 0 0 1 9.344.5c.27 0 .51.094.719.281l.687.688c.188.208.281.448.281.718 0 .271-.094.5-.281.688L7.625 6z" fill="#000"/></svg>