<svg width="11" height="12" fill="none" xmlns="http://www.w3.org/2000/svg"><path d="M9.625 0c.372 0 .695.148.967.445.272.297.408.649.408 1.055v6.75c0 .406-.136.758-.408 1.055-.272.297-.595.445-.967.445H6.531l-2.685 2.203a.249.249 0 0 1-.15.047c-.173 0-.259-.094-.259-.281V9.75H1.376c-.372 0-.695-.148-.967-.445A1.509 1.509 0 0 1 0 8.25V1.5C0 1.094.136.742.408.445.68.148 1.003 0 1.375 0h8.25zm.344 8.25V1.5a.324.324 0 0 0-.108-.258.277.277 0 0 0-.236-.117h-8.25c-.1 0-.186.04-.258.117a.367.367 0 0 0-.086.258v6.75c0 .11.029.203.086.281a.379.379 0 0 0 .258.094h3.094v1.406l1.44-1.172.279-.234h3.437c.1 0 .179-.031.236-.094a.402.402 0 0 0 .108-.281z" fill="#000"/></svg>