<svg width="14" height="13" fill="none" xmlns="http://www.w3.org/2000/svg"><path d="M12.688.625c.364 0 .674.128.93.383.254.255.382.565.382.93v9.624c0 .365-.128.675-.383.93a1.266 1.266 0 0 1-.93.383H1.313c-.365 0-.675-.128-.93-.383a1.266 1.266 0 0 1-.383-.93V1.938c0-.365.128-.675.383-.93s.565-.383.93-.383h11.374zm0 10.773V2.102c0-.11-.055-.164-.165-.164H1.477c-.11 0-.165.054-.165.164v9.296c0 .11.055.165.165.165h11.046c.11 0 .165-.055.165-.165zM9.733 5.082L8.066 6.75l1.668 1.668c.164.164.164.319 0 .465l-.601.601c-.146.164-.301.164-.465 0L7 7.816 5.332 9.484c-.164.164-.319.164-.465 0l-.601-.601c-.164-.146-.164-.301 0-.465L5.934 6.75 4.266 5.082c-.164-.164-.164-.319 0-.465l.601-.601c.146-.164.301-.164.465 0L7 5.684l1.668-1.668c.164-.164.319-.164.465 0l.601.601c.164.146.164.301 0 .465z" fill="#606060"/></svg>