<svg width="16" height="15" fill="none" xmlns="http://www.w3.org/2000/svg"><path d="M11.02 3.02l2.46 2.46c.128.128.128.256 0 .383l-5.988 5.989-2.515.273a.526.526 0 0 1-.329-.055.629.629 0 0 1-.218-.218.526.526 0 0 1-.055-.329l.273-2.515 5.989-5.988c.127-.128.255-.128.383 0zm4.43-.63c.2.22.3.475.3.766 0 .292-.1.547-.3.766l-.985.957c-.128.128-.255.128-.383 0l-2.46-2.461c-.129-.128-.129-.255 0-.383l.983-.957a.963.963 0 0 1 .739-.328c.291 0 .547.11.765.328l1.34 1.313zm-4.95 7.82a.26.26 0 0 1 .11-.218l1.093-1.094c.091-.109.2-.136.328-.082.146.055.219.155.219.301v4.32c0 .365-.128.675-.383.93a1.266 1.266 0 0 1-.93.383H1.313c-.365 0-.675-.128-.93-.383a1.266 1.266 0 0 1-.383-.93V3.813c0-.365.128-.675.383-.93s.565-.383.93-.383h7.82c.146 0 .246.073.3.219.055.127.028.237-.081.328L8.258 4.14a.26.26 0 0 1-.219.109H1.75V13h8.75v-2.79z" fill="#606060"/></svg>