<svg width="13" height="10" fill="none" xmlns="http://www.w3.org/2000/svg"><g clip-path="url(#clip0)"><path d="M10.969.706c.573.46.956 1.011 1.147 1.651.19.625.199 1.228.024 1.808a3.426 3.426 0 0 1-.909 1.496L7.05 9.634a1.285 1.285 0 0 1-.909.357c-.35 0-.653-.119-.908-.357L1.051 5.661a3.426 3.426 0 0 1-.908-1.496 3.12 3.12 0 0 1 .024-1.83C.358 1.71.741 1.167 1.314.705 2 .17 2.804-.06 3.728.015c.94.06 1.744.401 2.413 1.026A3.752 3.752 0 0 1 8.531.014c.94-.075 1.753.156 2.438.692zm-.55 4.196a2.18 2.18 0 0 0 .693-1.63c0-.654-.287-1.235-.86-1.74-.478-.358-1.036-.514-1.673-.47a2.492 2.492 0 0 0-1.601.715l-.837.781-.836-.781a2.517 2.517 0 0 0-1.625-.714 2.38 2.38 0 0 0-1.649.468c-.573.506-.86 1.087-.86 1.742 0 .64.23 1.183.693 1.629L6.07 8.875c.048.06.095.06.143 0l4.206-3.973z" fill="#000"/></g><defs><clipPath id="clip0"><path fill="#fff" d="M0 0h13v10H0z"/></clipPath></defs></svg>