<svg width="16" height="12" fill="none" xmlns="http://www.w3.org/2000/svg"><path d="M14.5 0c.417 0 .77.146 1.063.438.291.291.437.645.437 1.062v9c0 .417-.146.77-.438 1.063A1.446 1.446 0 0 1 14.5 12h-13c-.417 0-.77-.146-1.063-.438A1.447 1.447 0 0 1 0 10.5v-9C0 1.083.146.73.438.437A1.447 1.447 0 0 1 1.5 0h13zm-.188 10.5c.126 0 .188-.063.188-.188V1.688c0-.125-.063-.188-.188-.188H1.688c-.125 0-.188.063-.188.188v8.624c0 .126.063.188.188.188h12.624zM3.095 3.125c.25-.25.552-.375.906-.375s.646.125.875.375c.25.23.375.52.375.875 0 .354-.125.656-.375.906-.23.23-.52.344-.875.344-.354 0-.656-.115-.906-.344A1.293 1.293 0 0 1 2.75 4c0-.354.115-.646.344-.875zM3 9V7.5l1.25-1.25c.167-.167.333-.167.5 0L6 7.5l3.75-3.75c.167-.167.333-.167.5 0L13 6.5V9H3z" fill="#666"/></svg>