<svg width="28" height="37" fill="none" xmlns="http://www.w3.org/2000/svg"><path d="M16.333 9.828c0 .482.17.891.51 1.229.341.337.754.505 1.24.505H28v23.704c0 .481-.17.89-.51 1.228-.34.337-.754.506-1.24.506H1.75c-.486 0-.9-.169-1.24-.506A1.665 1.665 0 0 1 0 35.266V1.734C0 1.253.17.844.51.506.85.169 1.264 0 1.75 0h14.583v9.828zm4.74 15.61c.535 0 .9-.241 1.094-.723.194-.482.097-.891-.292-1.229l-7-6.937a1.199 1.199 0 0 0-.875-.361c-.34 0-.632.12-.875.36l-7 6.938c-.389.338-.486.747-.292 1.229.195.482.56.723 1.094.723h4.74v5.78c0 .338.097.627.291.868.243.193.535.289.875.289h2.334c.34 0 .607-.096.802-.29.243-.24.364-.53.364-.866v-5.782h4.74zm6.416-17.85c.34.337.511.747.511 1.228v.434h-9.333V0h.437c.486 0 .9.169 1.24.506l7.145 7.082z" fill="#999"/></svg>