<svg xmlns="http://www.w3.org/2000/svg" xmlns:xlink="http://www.w3.org/1999/xlink" width="30" height="30"><defs><path id="a" d="M226.5 1477c0 2.49-2.01 4.5-4.5 4.5s-4.5-2.01-4.5-4.5 2.01-4.5 4.5-4.5 4.5 2.01 4.5 4.5zm-4.5-7.5c-4.14 0-7.5 3.36-7.5 7.5 0 4.14 3.36 7.5 7.5 7.5 4.14 0 7.5-3.36 7.5-7.5 0-4.14-3.36-7.5-7.5-7.5zm7.875-2.25a1.876 1.876 0 1 0 .001 3.751 1.876 1.876 0 0 0-.001-3.751zM215.4 1465h13.2c2.985 0 5.4 2.415 5.4 5.4v13.2c0 2.985-2.415 5.4-5.4 5.4h-13.2a5.397 5.397 0 0 1-5.4-5.4v-13.2c0-2.985 2.415-5.4 5.4-5.4zm.3-3c-4.8 0-8.7 3.9-8.7 8.7v12.6c0 4.8 3.9 8.7 8.7 8.7h12.6c4.8 0 8.7-3.9 8.7-8.7v-12.6c0-4.8-3.9-8.7-8.7-8.7z"/></defs><use fill="#fff" xlink:href="#a" transform="translate(-207 -1462)"/></svg>