<svg width="12" height="11" fill="none" xmlns="http://www.w3.org/2000/svg"><path d="M11.25.719v2.5a.428.428 0 0 1-.293.43c-.195.078-.365.045-.508-.098l-.703-.703L5 7.613a.452.452 0 0 1-.332.137.452.452 0 0 1-.332-.137l-.45-.449a.452.452 0 0 1-.136-.332c0-.13.046-.24.137-.332l4.765-4.746-.703-.703C7.806.908 7.773.738 7.852.543a.428.428 0 0 1 .43-.293h2.5c.13 0 .24.046.331.137a.452.452 0 0 1 .137.332zm-3.3 4.824c.142-.156.312-.189.507-.098a.428.428 0 0 1 .293.43v3.438c0 .26-.091.481-.273.664a.904.904 0 0 1-.665.273H.938a.904.904 0 0 1-.664-.273A.904.904 0 0 1 0 9.312V2.439c0-.26.091-.482.273-.665A.904.904 0 0 1 .937 1.5H6.72a.43.43 0 0 1 .43.293c.078.195.045.365-.098.508l-.313.312a.452.452 0 0 1-.332.137H1.25V9H7.5V6.187c0-.13.046-.24.137-.332l.312-.312z" fill="#0051FF"/></svg>