<svg width="12" height="16" fill="none" xmlns="http://www.w3.org/2000/svg"><path d="M5.375 15.688c-.5-.73-1.073-1.553-1.719-2.47a100.436 100.436 0 0 0-1.344-1.937c-.27-.375-.583-.833-.937-1.375A26.083 26.083 0 0 1 .656 8.72c-.104-.23-.229-.521-.375-.875a5.554 5.554 0 0 1-.25-.907C.011 6.668 0 6.354 0 6c0-1.667.583-3.083 1.75-4.25C2.917.583 4.333 0 6 0c1.667 0 3.083.583 4.25 1.75C11.417 2.917 12 4.333 12 6c0 .354-.02.667-.063.938-.02.25-.104.552-.25.906-.124.354-.25.646-.374.875-.105.229-.334.625-.688 1.187-.354.542-.667 1-.938 1.375-.27.375-.729 1.021-1.374 1.938-.626.916-1.188 1.74-1.688 2.469A.717.717 0 0 1 6 16a.717.717 0 0 1-.625-.313zM4.219 7.78c.5.48 1.093.719 1.781.719s1.27-.24 1.75-.719c.5-.5.75-1.093.75-1.781s-.25-1.27-.75-1.75A2.337 2.337 0 0 0 6 3.5c-.688 0-1.281.25-1.781.75A2.382 2.382 0 0 0 3.5 6c0 .688.24 1.281.719 1.781z" fill="#000"/></svg>