<svg width="18" height="17" fill="none" xmlns="http://www.w3.org/2000/svg"><path d="M6.219 1.156C6.989.386 7.917 0 9 0c1.083 0 2.01.385 2.781 1.156.771.771 1.156 1.698 1.156 2.782 0 1.291-1.187 3.333-3.562 6.124A.473.473 0 0 1 9 10.25a.473.473 0 0 1-.375-.188C6.25 7.271 5.062 5.23 5.062 3.939c0-1.084.386-2.01 1.157-2.782zm1.843 3.719c.271.25.584.375.938.375s.656-.125.906-.375c.271-.27.406-.583.406-.938 0-.354-.135-.656-.406-.906A1.189 1.189 0 0 0 9 2.625c-.354 0-.667.135-.938.406-.25.25-.374.552-.374.906 0 .355.125.667.375.938zM.625 6.75l3.719-1.5c.146.458.364.948.656 1.469V14L.687 15.969a.353.353 0 0 1-.25.031.693.693 0 0 1-.218-.094.471.471 0 0 1-.157-.187A.386.386 0 0 1 0 15.5V7.687c0-.187.063-.375.188-.562a.926.926 0 0 1 .437-.375zm7.219 3.969c.312.354.698.531 1.156.531.458 0 .844-.177 1.156-.531A39.359 39.359 0 0 0 12 8.313V16l-6-2V8.312a39.469 39.469 0 0 0 1.844 2.407zm9.468-5.688c.125-.041.23-.041.313 0a.4.4 0 0 1 .25.157A.424.424 0 0 1 18 5.5v7.813a.83.83 0 0 1-.094.374.875.875 0 0 1-.218.344.952.952 0 0 1-.313.219L13 16V7l4.313-1.969z" fill="#000"/></svg>