<svg xmlns="http://www.w3.org/2000/svg" xmlns:xlink="http://www.w3.org/1999/xlink" width="14" height="22"><defs><path id="a" d="M156 1928.6c1.3 0 2.3 1 2.3 2.3 0 1.3-1 2.3-2.3 2.3-1.3 0-2.3-1-2.3-2.3 0-1.3 1-2.3 2.3-2.3zm0 7.7c3 0 5.5-2.5 5.5-5.5s-2.5-5.5-5.5-5.5-5.5 2.5-5.5 5.5c0 3.1 2.5 5.5 5.5 5.5z"/><path id="b" d="M158.203 1940.803c1.1-.3 2.2-.7 3.2-1.3.8-.5 1-1.5.5-2.2-.5-.8-1.5-1-2.2-.5-2.3 1.4-5.2 1.4-7.4 0-.8-.5-1.7-.2-2.2.5-.5.7-.3 1.7.5 2.2 1 .6 2.1 1.1 3.2 1.3l-3.1 3.1c-.6.6-.6 1.7 0 2.3.3.3.7.5 1.1.5.4 0 .8-.2 1.1-.5l3-3 3 3c.6.6 1.7.6 2.3 0 .6-.6.6-1.7 0-2.3z"/></defs><use fill="#fff" xlink:href="#a" transform="translate(-149 -1925)"/><use fill="#fff" xlink:href="#b" transform="translate(-149 -1925)"/></svg>