<svg width="15" height="15" fill="none" xmlns="http://www.w3.org/2000/svg"><path d="M6.573 12.722c.265.265.323.572.174.92-.149.348-.406.522-.77.522H1.7a.814.814 0 0 1-.597-.249.814.814 0 0 1-.249-.597V9.043c0-.365.174-.622.523-.771.348-.15.654-.091.92.174L3.44 9.589l6.065-6.065L8.363 2.38c-.265-.265-.323-.571-.174-.92.15-.348.406-.522.77-.522h4.276c.232 0 .431.083.597.25a.813.813 0 0 1 .249.596v4.275c0 .365-.174.622-.522.771-.348.15-.655.091-.92-.174l-1.144-1.143-6.065 6.065 1.143 1.144z" fill="#C2C2C2"/></svg>