<svg width="16" height="16" fill="none" xmlns="http://www.w3.org/2000/svg"><path d="M15.781 13.844a.723.723 0 0 1 .219.531.723.723 0 0 1-.219.531l-.875.875a.723.723 0 0 1-.531.219.723.723 0 0 1-.531-.219l-3.125-3.125a.723.723 0 0 1-.219-.531v-.5C9.333 12.542 8 13 6.5 13c-1.792 0-3.323-.635-4.594-1.906C.636 9.823 0 8.292 0 6.5c0-1.792.635-3.323 1.906-4.594C3.177.636 4.708 0 6.5 0c1.792 0 3.323.635 4.594 1.906C12.364 3.177 13 4.708 13 6.5c0 1.5-.458 2.833-1.375 4h.5c.208 0 .385.073.531.219l3.125 3.125zm-12.125-4.5A3.933 3.933 0 0 0 6.5 10.5c1.104 0 2.042-.385 2.813-1.156.791-.792 1.187-1.74 1.187-2.844 0-1.104-.396-2.042-1.188-2.813C8.543 2.897 7.604 2.5 6.5 2.5c-1.104 0-2.052.396-2.844 1.188C2.886 4.457 2.5 5.396 2.5 6.5c0 1.104.385 2.052 1.156 2.844z" fill="#0051FF"/></svg>