<svg width="14" height="15" fill="none" xmlns="http://www.w3.org/2000/svg"><path d="M12.742 3.047c.255.091.456.246.602.465.146.218.219.465.219.738a13.16 13.16 0 0 1-.41 3.309c-.274 1.039-.62 1.941-1.04 2.707-.419.747-.911 1.43-1.476 2.05-.547.602-1.085 1.085-1.614 1.45a6.57 6.57 0 0 1-1.53.875 1.162 1.162 0 0 1-.985 0c-.766-.31-1.504-.775-2.215-1.395a11.285 11.285 0 0 1-1.914-2.187c-.583-.875-1.057-1.905-1.422-3.09a13.187 13.187 0 0 1-.52-3.719c0-.11.01-.21.028-.3.036-.11.073-.21.11-.302a3.09 3.09 0 0 1 .163-.246c.073-.073.146-.136.219-.191a.968.968 0 0 1 .3-.164L6.508.859C6.655.786 6.818.75 7 .75s.346.036.492.11l5.25 2.187zM7 12.945c1.367-.674 2.497-1.75 3.39-3.226.912-1.477 1.386-3.2 1.422-5.168L7 2.527v10.418z" fill="#fff"/></svg>