<?xml version="1.0" encoding="utf-8"?>
<svg xmlns="http://www.w3.org/2000/svg" xmlns:xlink="http://www.w3.org/1999/xlink">


  <symbol viewBox="0 0 15 30" id="facebook">
    <path transform="translate(-147 -1462)" d="M162 1462v6h-3c-1.035 0-1.5 1.215-1.5 2.25v3.75h4.5v6h-4.5v12h-6v-12H147v-6h4.5v-6c0-3.315 2.685-6 6-6z" />
  </symbol>

  <symbol viewBox="0 0 30 30" id="instagram">
    <path transform="translate(-207 -1462)" d="M226.5 1477c0 2.49-2.01 4.5-4.5 4.5s-4.5-2.01-4.5-4.5 2.01-4.5 4.5-4.5 4.5 2.01 4.5 4.5zm-4.5-7.5c-4.14 0-7.5 3.36-7.5 7.5 0 4.14 3.36 7.5 7.5 7.5 4.14 0 7.5-3.36 7.5-7.5 0-4.14-3.36-7.5-7.5-7.5zm7.875-2.25a1.876 1.876 0 1 0 .001 3.751 1.876 1.876 0 0 0-.001-3.751zM215.4 1465h13.2c2.985 0 5.4 2.415 5.4 5.4v13.2c0 2.985-2.415 5.4-5.4 5.4h-13.2a5.397 5.397 0 0 1-5.4-5.4v-13.2c0-2.985 2.415-5.4 5.4-5.4zm.3-3c-4.8 0-8.7 3.9-8.7 8.7v12.6c0 4.8 3.9 8.7 8.7 8.7h12.6c4.8 0 8.7-3.9 8.7-8.7v-12.6c0-4.8-3.9-8.7-8.7-8.7z" />
  </symbol>

  <symbol viewBox="0 0 512 512" id="twitter">
    <path d="M512,97.248c-19.04,8.352-39.328,13.888-60.48,16.576c21.76-12.992,38.368-33.408,46.176-58.016
      c-20.288,12.096-42.688,20.64-66.56,25.408C411.872,60.704,384.416,48,354.464,48c-58.112,0-104.896,47.168-104.896,104.992
      c0,8.32,0.704,16.32,2.432,23.936c-87.264-4.256-164.48-46.08-216.352-109.792c-9.056,15.712-14.368,33.696-14.368,53.056
      c0,36.352,18.72,68.576,46.624,87.232c-16.864-0.32-33.408-5.216-47.424-12.928c0,0.32,0,0.736,0,1.152
      c0,51.008,36.384,93.376,84.096,103.136c-8.544,2.336-17.856,3.456-27.52,3.456c-6.72,0-13.504-0.384-19.872-1.792
      c13.6,41.568,52.192,72.128,98.08,73.12c-35.712,27.936-81.056,44.768-130.144,44.768c-8.608,0-16.864-0.384-25.12-1.44
      C46.496,446.88,101.6,464,161.024,464c193.152,0,298.752-160,298.752-298.688c0-4.64-0.16-9.12-0.384-13.568
      C480.224,136.96,497.728,118.496,512,97.248z"/>
  </symbol>

  <symbol viewBox="0 0 15 14" id="arrow-back">
    <path d="M8.09375 12.9062L7.375 13.5938C7.22917 13.7396 7.05208 13.8125 6.84375 13.8125C6.63542 13.8125 6.45833 13.7396 6.3125 13.5938L0.25 7.53125C0.104167 7.38542 0.03125 7.20833 0.03125 7C0.03125 6.79167 0.104167 6.61458 0.25 6.46875L6.3125 0.40625C6.45833 0.260417 6.63542 0.1875 6.84375 0.1875C7.05208 0.1875 7.22917 0.260417 7.375 0.40625L8.09375 1.09375C8.23958 1.23958 8.30208 1.41667 8.28125 1.625C8.28125 1.83333 8.20833 2.01042 8.0625 2.15625L4.3125 5.75H13.2812C13.4896 5.75 13.6667 5.82292 13.8125 5.96875C13.9583 6.11458 14.0312 6.29167 14.0312 6.5V7.5C14.0312 7.70833 13.9583 7.88542 13.8125 8.03125C13.6667 8.17708 13.4896 8.25 13.2812 8.25H4.3125L8.0625 11.8438C8.20833 11.9896 8.28125 12.1667 8.28125 12.375C8.30208 12.5833 8.23958 12.7604 8.09375 12.9062Z" />
  </symbol>

  <symbol viewBox="0 0 9 7" id="arr-bottom">
    <path d="M3.9375 6.34253L0.21875 2.62378C0.0911458 2.49618 0.0273438 2.34123 0.0273438 2.15894C0.0273438 1.97664 0.0911458 1.8217 0.21875 1.69409L0.847656 1.09253C0.97526 0.964925 1.13021 0.901123 1.3125 0.901123C1.49479 0.901123 1.64974 0.964925 1.77734 1.09253L4.40234 3.71753L7.02734 1.09253C7.15495 0.964925 7.3099 0.901123 7.49219 0.901123C7.67448 0.901123 7.82943 0.964925 7.95703 1.09253L8.58594 1.69409C8.71354 1.8217 8.77734 1.97664 8.77734 2.15894C8.77734 2.34123 8.71354 2.49618 8.58594 2.62378L4.86719 6.34253C4.73958 6.47013 4.58464 6.53394 4.40234 6.53394C4.22005 6.53394 4.0651 6.47013 3.9375 6.34253Z" />
  </symbol>

   <symbol viewBox="0 0 9 12" id="arrow-left">
    <path d="M1.125 5.15234L5.90625 0.3711C6.07031 0.207001 6.26953 0.125 6.50391 0.125C6.73828 0.125 6.9375 0.207001 7.10156 0.3711L7.875 1.1797C8.03906 1.3438 8.12109 1.543 8.12109 1.7773C8.12109 2.01172 8.03906 2.21094 7.875 2.375L4.5 5.75L7.875 9.125C8.03906 9.28906 8.12109 9.48828 8.12109 9.72266C8.12109 9.95703 8.03906 10.1562 7.875 10.3203L7.10156 11.1289C6.9375 11.293 6.73828 11.375 6.50391 11.375C6.26953 11.375 6.07031 11.293 5.90625 11.1289L1.125 6.34766C0.96094 6.18359 0.878911 5.98438 0.878911 5.75C0.878911 5.51562 0.96094 5.31641 1.125 5.15234Z" />
  </symbol>

  <symbol viewBox="0 0 9 12" id="arrow-right">
    <path d="M7.875 6.84766L3.09375 11.6289C2.92969 11.793 2.73047 11.875 2.49609 11.875C2.26172 11.875 2.0625 11.793 1.89844 11.6289L1.125 10.8203C0.960938 10.6562 0.878906 10.457 0.878906 10.2227C0.878906 9.98828 0.960938 9.78906 1.125 9.625L4.5 6.25L1.125 2.875C0.960938 2.71094 0.878906 2.51172 0.878906 2.27734C0.878906 2.04297 0.960938 1.84375 1.125 1.67969L1.89844 0.871094C2.0625 0.707031 2.26172 0.625 2.49609 0.625C2.73047 0.625 2.92969 0.707031 3.09375 0.871094L7.875 5.65234C8.03906 5.81641 8.12109 6.01562 8.12109 6.25C8.12109 6.48438 8.03906 6.68359 7.875 6.84766Z" />
  </symbol>

  <symbol viewBox="0 0 38 38" id="big-arrow-left">
    <path d="M9.2736 19.7575L27.1995 37.6834C27.6216 38.1055 28.2985 38.1055 28.7206 37.6834C29.1426 37.2614 29.1426 36.5845 28.7206 36.1624L11.5591 19.001L28.7206 1.83957C29.1426 1.41751 29.1426 0.740608 28.7206 0.318539C28.5135 0.111488 28.2348 -7.01416e-08 27.964 -9.38122e-08C27.6933 -1.17483e-07 27.4145 0.103523 27.2075 0.318539L9.28156 18.2445C8.85949 18.6586 8.8595 19.3434 9.2736 19.7575Z" />
  </symbol>

  <symbol viewBox="0 0 38 39" id="big-arrow-right">
    <path d="M28.7635 18.2425L10.8376 0.316551C10.4155 -0.105517 9.73862 -0.105517 9.31655 0.316551C8.89448 0.738618 8.89448 1.41552 9.31655 1.83759L26.478 18.999L9.31655 36.1604C8.89448 36.5825 8.89448 37.2594 9.31655 37.6815C9.5236 37.8885 9.80233 38 10.0731 38C10.3438 38 10.6226 37.8965 10.8296 37.6815L28.7555 19.7555C29.1776 19.3414 29.1776 18.6566 28.7635 18.2425Z" />
  </symbol>

  <symbol viewBox="0 0 11 14" id="favourite">
    <path d="M9.625 0C10.007 0 10.3316 0.127604 10.599 0.382812C10.8664 0.638021 11 0.947914 11 1.3125V14L5.5 10.9375L0 14V1.3125C0 0.947914 0.13368 0.638021 0.401042 0.382812C0.668403 0.127604 0.993053 0 1.375 0H9.625ZM9.625 11.7031V1.47656C9.625 1.36719 9.56771 1.3125 9.45312 1.3125H1.54688C1.43229 1.3125 1.375 1.36719 1.375 1.47656V11.7031L5.5 9.40625L9.625 11.7031Z" />
  </symbol>

  <symbol viewBox="0 0 11 15" id="favourite-fill">
    <path d="M0 14.75V2.0625C0 1.69792 0.127604 1.38802 0.382812 1.13281C0.638021 0.877604 0.947917 0.75 1.3125 0.75H9.1875C9.55208 0.75 9.86198 0.877604 10.1172 1.13281C10.3724 1.38802 10.5 1.69792 10.5 2.0625V14.75L5.25 11.6875L0 14.75Z" />
  </symbol>

  <symbol viewBox="0 0 48 48" id="photo">
    <path d="M37.1885 15.8701C36.6898 15.8701 36.2852 16.2748 36.2852 16.7734C36.2852 17.2721 36.6898 17.6768 37.1885 17.6768C37.6871 17.6768 38.0918 17.2721 38.0918 16.7734C38.0918 16.2748 37.6871 15.8701 37.1885 15.8701Z" />
    <path d="M44.415 12.2568H34.4948L31.6307 6.52861C31.1685 5.60442 30.2397 5.03027 29.2067 5.03027H18.7933C17.7601 5.03027 16.8313 5.60442 16.3693 6.5287L13.5052 12.2568H11.7148V11.3535C11.7148 9.85924 10.4992 8.64355 9.00488 8.64355H7.19824C5.70397 8.64355 4.48828 9.85924 4.48828 11.3535V12.2568H3.58496C2.09069 12.2568 0.875 13.4725 0.875 14.9668C0.875 17.4216 0.875 39.3049 0.875 40.2598C0.875 41.754 2.09069 42.9697 3.58496 42.9697H44.415C45.9093 42.9697 47.125 41.754 47.125 40.2598C47.125 37.805 47.125 15.9217 47.125 14.9668C47.125 13.4725 45.9093 12.2568 44.415 12.2568ZM17.9852 7.33663C18.1393 7.02842 18.4489 6.83691 18.7933 6.83691H29.2067C29.5511 6.83691 29.8607 7.02842 30.0148 7.33663L32.475 12.2568H15.525L17.9852 7.33663ZM6.29492 11.3535C6.29492 10.8554 6.70015 10.4502 7.19824 10.4502H9.00488C9.50297 10.4502 9.9082 10.8554 9.9082 11.3535V12.2568H6.29492V11.3535ZM2.68164 21.281H14.1042C12.9037 23.1564 12.2568 25.3543 12.2568 27.6133C12.2568 29.8725 12.9038 32.0615 14.1041 33.9365H2.68164V21.281ZM24 17.6768C29.4319 17.6768 33.9365 22.0776 33.9365 27.6133C33.9365 33.1427 29.4383 37.5498 24 37.5498C18.5569 37.5498 14.0635 33.1378 14.0635 27.6133C14.0635 22.0845 18.5611 17.6768 24 17.6768ZM45.3184 40.2598C45.3184 40.7579 44.9131 41.1631 44.415 41.1631H3.58496C3.08687 41.1631 2.68164 40.7579 2.68164 40.2598V35.7432H15.5292C17.7365 38.0441 20.8 39.3564 24 39.3564C27.2006 39.3564 30.2643 38.0437 32.4709 35.7432H45.3184V40.2598ZM45.3184 33.9365H33.8958C35.0963 32.0611 35.7432 29.8724 35.7432 27.6133C35.7432 25.3542 35.0963 23.1654 33.8958 21.29H45.3184V33.9365ZM45.3184 19.4834H32.4708C30.2636 17.1825 27.2001 15.8701 24 15.8701C20.7995 15.8701 17.7357 17.1828 15.5291 19.4834H2.68164V14.9668C2.68164 14.4687 3.08687 14.0635 3.58496 14.0635C4.40527 14.0635 43.1452 14.0635 44.415 14.0635C44.9131 14.0635 45.3184 14.4687 45.3184 14.9668V19.4834Z" />
    <path d="M26.71 8.64355H21.29C20.7911 8.64355 20.3867 9.04797 20.3867 9.54688C20.3867 10.0458 20.7911 10.4502 21.29 10.4502H26.71C27.2088 10.4502 27.6133 10.0458 27.6133 9.54688C27.6133 9.04797 27.2088 8.64355 26.71 8.64355Z" />
    <path d="M24 19.4834C19.5172 19.4834 15.8701 23.1305 15.8701 27.6133C15.8701 32.0961 19.5172 35.7432 24 35.7432C28.4828 35.7432 32.1299 32.0961 32.1299 27.6133C32.1299 23.1305 28.4828 19.4834 24 19.4834ZM24 33.9365C20.5134 33.9365 17.6768 31.0999 17.6768 27.6133C17.6768 24.1266 20.5134 21.29 24 21.29C27.4866 21.29 30.3232 24.1266 30.3232 27.6133C30.3232 31.0999 27.4866 33.9365 24 33.9365Z" />
    <path d="M24 23.0967C21.5095 23.0967 19.4834 25.1228 19.4834 27.6133C19.4834 28.1122 19.8878 28.5166 20.3867 28.5166C20.8856 28.5166 21.29 28.1122 21.29 27.6133C21.29 26.119 22.5057 24.9033 24 24.9033C24.4988 24.9033 24.9033 24.4989 24.9033 24C24.9033 23.5011 24.4988 23.0967 24 23.0967Z" />
    <path d="M42.6084 15.8701H40.8018C40.3029 15.8701 39.8984 16.2745 39.8984 16.7734C39.8984 17.2723 40.3029 17.6768 40.8018 17.6768H42.6084C43.1072 17.6768 43.5117 17.2723 43.5117 16.7734C43.5117 16.2745 43.1072 15.8701 42.6084 15.8701Z" />
  </symbol>

  <symbol viewBox="0 0 14 15" id="chat-icon">
    <path d="M12.25 0.75C12.724 0.75 13.1341 0.923177 13.4805 1.26953C13.8268 1.61589 14 2.02604 14 2.5V10.375C14 10.849 13.8268 11.2591 13.4805 11.6055C13.1341 11.9518 12.724 12.125 12.25 12.125H8.3125L4.89453 14.6953C4.78516 14.7682 4.66667 14.7682 4.53906 14.6953C4.42969 14.6406 4.375 14.5495 4.375 14.4219V12.125H1.75C1.27604 12.125 0.865885 11.9518 0.519531 11.6055C0.173177 11.2591 0 10.849 0 10.375V2.5C0 2.02604 0.173177 1.61589 0.519531 1.26953C0.865885 0.923177 1.27604 0.75 1.75 0.75H12.25Z" />
  </symbol>

  <symbol viewBox="0 0 11 12" id="comment">
    <path d="M9.625 0C9.99742 0 10.3197 0.148438 10.5918 0.445312C10.8639 0.742187 11 1.09375 11 1.5V8.25C11 8.65627 10.8639 9.0078 10.5918 9.30465C10.3197 9.60157 9.99742 9.75 9.625 9.75H6.53125L3.8457 11.9531C3.80273 11.9844 3.7526 12 3.69531 12C3.52344 12 3.4375 11.9062 3.4375 11.7188V9.75H1.375C1.0026 9.75 0.680338 9.60157 0.408203 9.30465C0.136068 9.0078 0 8.65627 0 8.25V1.5C0 1.09375 0.136068 0.742187 0.408203 0.445312C0.680338 0.148438 1.0026 0 1.375 0H9.625ZM9.96875 8.25V1.5C9.96875 1.39063 9.93293 1.30468 9.86136 1.24219C9.80402 1.16406 9.72524 1.125 9.625 1.125H1.375C1.27474 1.125 1.1888 1.16406 1.11719 1.24219C1.0599 1.30468 1.03125 1.39063 1.03125 1.5V8.25C1.03125 8.35935 1.0599 8.4531 1.11719 8.53125C1.1888 8.59373 1.27474 8.625 1.375 8.625H4.46875V10.0312L5.9082 8.85938L6.1875 8.625H9.625C9.72524 8.625 9.80402 8.59373 9.86136 8.53125C9.93293 8.4531 9.96875 8.35935 9.96875 8.25Z" />
  </symbol>

  <symbol viewBox="0 0 6 16" id="exc">
    <path d="M4.75 11.75C5.25 12.2292 5.5 12.8125 5.5 13.5C5.5 14.1875 5.25 14.7708 4.75 15.25C4.27083 15.75 3.6875 16 3 16C2.3125 16 1.71875 15.75 1.21875 15.25C0.739583 14.7708 0.5 14.1875 0.5 13.5C0.5 12.8125 0.739583 12.2292 1.21875 11.75C1.71875 11.25 2.3125 11 3 11C3.6875 11 4.27083 11.25 4.75 11.75ZM0.78125 0.78125C0.78125 0.572917 0.854167 0.395833 1 0.25C1.14583 0.0833333 1.32292 0 1.53125 0H4.46875C4.67708 0 4.85417 0.0833333 5 0.25C5.14583 0.395833 5.21875 0.572917 5.21875 0.78125L4.78125 9.28125C4.78125 9.48958 4.70833 9.66667 4.5625 9.8125C4.41667 9.9375 4.23958 10 4.03125 10H1.96875C1.76042 10 1.58333 9.9375 1.4375 9.8125C1.29167 9.66667 1.21875 9.48958 1.21875 9.28125L0.78125 0.78125Z" />
  </symbol>

  <symbol viewBox="0 0 13 10" id="heart">
    <path d="M10.9687 0.705575C11.5422 1.16688 11.9246 1.71748 12.1158 2.35736C12.3069 2.98236 12.3149 3.58504 12.1396 4.1654C11.9643 4.74575 11.6617 5.24427 11.2315 5.66093L7.04955 9.63415C6.79465 9.87222 6.49195 9.99129 6.14146 9.99129C5.79097 9.99129 5.48827 9.87222 5.23337 9.63415L1.05139 5.66093C0.621239 5.24427 0.318543 4.74575 0.143297 4.1654C-0.0319477 3.57016 -0.023982 2.96004 0.167195 2.33504C0.358371 1.71004 0.740724 1.16688 1.31425 0.705575C1.9993 0.169861 2.80384 -0.0607942 3.72786 0.0136106C4.66781 0.0731342 5.47234 0.415396 6.14146 1.0404C6.81058 0.415396 7.60715 0.0731342 8.53113 0.0136106C9.4711 -0.0607942 10.2836 0.169861 10.9687 0.705575ZM10.419 4.902C10.8811 4.45557 11.112 3.91242 11.112 3.27254C11.112 2.61777 10.8252 2.03742 10.2517 1.53147C9.77377 1.17432 9.21623 1.01807 8.579 1.06272C7.9576 1.10736 7.42393 1.34545 6.97786 1.777L6.14146 2.55825L5.30506 1.777C4.85899 1.34545 4.31731 1.10736 3.68006 1.06272C3.05874 1.01807 2.50911 1.17432 2.03117 1.53147C1.45764 2.03742 1.17087 2.61777 1.17087 3.27254C1.17087 3.91242 1.40187 4.45557 1.86389 4.902L6.06977 8.87522C6.11756 8.93472 6.16536 8.93472 6.21315 8.87522L10.419 4.902Z" />
  </symbol>

  <symbol viewBox="0 0 17 14" id="heart-fill">
    <path d="M14.4688 0.96875C15.4479 1.80208 15.9688 2.86458 16.0312 4.15625C16.0938 5.44792 15.6771 6.54167 14.7812 7.4375L8.75 13.6875C8.54167 13.8958 8.30208 14 8.03125 14C7.76042 14 7.52083 13.8958 7.3125 13.6875L1.28125 7.4375C0.385417 6.54167 -0.03125 5.44792 0.03125 4.15625C0.09375 2.86458 0.614583 1.80208 1.59375 0.96875C2.44792 0.239583 3.42708 -0.0729167 4.53125 0.03125C5.65625 0.114583 6.61458 0.5625 7.40625 1.375L8.03125 2L8.65625 1.375C9.44792 0.5625 10.3958 0.114583 11.5 0.03125C12.625 -0.0729167 13.6146 0.239583 14.4688 0.96875Z" />
  </symbol>
  
  <symbol viewBox="0 0 16 12" id="img-icon">
    <path d="M14.5 0C14.9167 0 15.2708 0.145833 15.5625 0.4375C15.8542 0.729167 16 1.08333 16 1.5V10.5C16 10.9167 15.8542 11.2708 15.5625 11.5625C15.2708 11.8542 14.9167 12 14.5 12H1.5C1.08333 12 0.729167 11.8542 0.4375 11.5625C0.145833 11.2708 0 10.9167 0 10.5V1.5C0 1.08333 0.145833 0.729167 0.4375 0.4375C0.729167 0.145833 1.08333 0 1.5 0H14.5ZM14.3125 10.5C14.4375 10.5 14.5 10.4375 14.5 10.3125V1.6875C14.5 1.5625 14.4375 1.5 14.3125 1.5H1.6875C1.5625 1.5 1.5 1.5625 1.5 1.6875V10.3125C1.5 10.4375 1.5625 10.5 1.6875 10.5H14.3125ZM3.09375 3.125C3.34375 2.875 3.64583 2.75 4 2.75C4.35417 2.75 4.64583 2.875 4.875 3.125C5.125 3.35417 5.25 3.64583 5.25 4C5.25 4.35417 5.125 4.65625 4.875 4.90625C4.64583 5.13542 4.35417 5.25 4 5.25C3.64583 5.25 3.34375 5.13542 3.09375 4.90625C2.86458 4.65625 2.75 4.35417 2.75 4C2.75 3.64583 2.86458 3.35417 3.09375 3.125ZM3 9V7.5L4.25 6.25C4.41667 6.08333 4.58333 6.08333 4.75 6.25L6 7.5L9.75 3.75C9.91667 3.58333 10.0833 3.58333 10.25 3.75L13 6.5V9H3Z" />
  </symbol>

  <symbol viewBox="0 0 28 37" id="upload">
    <path d="M16.3333 9.82812C16.3333 10.3099 16.5035 10.7194 16.8438 11.0566C17.184 11.3939 17.5972 11.5625 18.0833 11.5625H28V35.2656C28 35.7473 27.8299 36.1569 27.4895 36.494C27.1493 36.8314 26.736 37 26.25 37H1.75C1.26389 37 0.850694 36.8314 0.510417 36.494C0.170139 36.1569 0 35.7473 0 35.2656V1.73438C0 1.2526 0.170139 0.843098 0.510417 0.505859C0.850694 0.16862 1.26389 0 1.75 0H16.3333V9.82812ZM21.0729 25.4375C21.6076 25.4375 21.9722 25.1965 22.1667 24.7148C22.3611 24.2332 22.2639 23.8236 21.875 23.4862L14.875 16.5488C14.6319 16.3079 14.3403 16.1875 14 16.1875C13.6597 16.1875 13.3681 16.3079 13.125 16.5488L6.125 23.4862C5.7361 23.8236 5.6389 24.2332 5.83333 24.7148C6.02777 25.1965 6.39235 25.4375 6.92708 25.4375H11.6667V31.2188C11.6667 31.5559 11.7639 31.845 11.9583 32.0859C12.2014 32.2786 12.4931 32.375 12.8333 32.375H15.1667C15.5069 32.375 15.7743 32.2786 15.9687 32.0859C16.2118 31.845 16.3333 31.5559 16.3333 31.2188V25.4375H21.0729ZM27.4895 7.58789C27.8299 7.92512 28 8.33464 28 8.81641V9.25H18.6667V0H19.1042C19.5903 0 20.0035 0.16862 20.3438 0.505859L27.4895 7.58789Z" />
  </symbol>

  <symbol viewBox="0 0 18 17" id="map-icon">
    <path d="M6.21875 1.15625C6.98958 0.385417 7.91667 0 9 0C10.0833 0 11.0104 0.385417 11.7812 1.15625C12.5521 1.92708 12.9375 2.85417 12.9375 3.9375C12.9375 5.22917 11.75 7.27083 9.375 10.0625C9.27083 10.1875 9.14583 10.25 9 10.25C8.85417 10.25 8.72917 10.1875 8.625 10.0625C6.25 7.27083 5.0625 5.22917 5.0625 3.9375C5.0625 2.85417 5.44792 1.92708 6.21875 1.15625ZM8.0625 4.875C8.33333 5.125 8.64583 5.25 9 5.25C9.35417 5.25 9.65625 5.125 9.90625 4.875C10.1771 4.60417 10.3125 4.29167 10.3125 3.9375C10.3125 3.58333 10.1771 3.28125 9.90625 3.03125C9.65625 2.76042 9.35417 2.625 9 2.625C8.64583 2.625 8.33333 2.76042 8.0625 3.03125C7.8125 3.28125 7.6875 3.58333 7.6875 3.9375C7.6875 4.29167 7.8125 4.60417 8.0625 4.875ZM0.625 6.75L4.34375 5.25C4.48958 5.70833 4.70833 6.19792 5 6.71875V14L0.6875 15.9688C0.604167 16.0104 0.520833 16.0208 0.4375 16C0.354167 15.9792 0.28125 15.9479 0.21875 15.9062C0.15625 15.8646 0.104167 15.8021 0.0625 15.7188C0.0208333 15.6562 0 15.5833 0 15.5V7.6875C0 7.5 0.0625 7.3125 0.1875 7.125C0.3125 6.9375 0.458333 6.8125 0.625 6.75ZM7.84375 10.7188C8.15625 11.0729 8.54167 11.25 9 11.25C9.45833 11.25 9.84375 11.0729 10.1562 10.7188C10.8438 9.88542 11.4583 9.08333 12 8.3125V16L6 14V8.3125C6.54167 9.08333 7.15625 9.88542 7.84375 10.7188ZM17.3125 5.03125C17.4375 4.98958 17.5417 4.98958 17.625 5.03125C17.7292 5.05208 17.8125 5.10417 17.875 5.1875C17.9583 5.27083 18 5.375 18 5.5V13.3125C18 13.4375 17.9688 13.5625 17.9062 13.6875C17.8646 13.8125 17.7917 13.9271 17.6875 14.0312C17.5833 14.1354 17.4792 14.2083 17.375 14.25L13 16V7L17.3125 5.03125Z" />
  </symbol>

  <symbol viewBox="0 0 17 17" id="map-pin">
    <g>
      <path d="M8.5 0C5.20452 0 2.52344 2.68109 2.52344 5.97656C2.52344 7.09 2.83186 8.1766 3.41557 9.1193L8.1598 16.7646C8.25068 16.911 8.41078 17 8.58297 17C8.5843 17 8.5856 17 8.58693 17C8.76061 16.9986 8.92105 16.9069 9.01027 16.7579L13.6336 9.03856C14.1851 8.11577 14.4766 7.05696 14.4766 5.97656C14.4766 2.68109 11.7955 0 8.5 0ZM12.7788 8.52716L8.57544 15.5452L4.26219 8.5945C3.77632 7.80984 3.51289 6.90459 3.51289 5.97656C3.51289 3.23033 5.75377 0.989453 8.5 0.989453C11.2462 0.989453 13.4838 3.23033 13.4838 5.97656C13.4838 6.87706 13.2377 7.75917 12.7788 8.52716Z"/>
      <path d="M8.5 2.98828C6.85226 2.98828 5.51172 4.32882 5.51172 5.97656C5.51172 7.61378 6.83045 8.96484 8.5 8.96484C10.1901 8.96484 11.4883 7.59578 11.4883 5.97656C11.4883 4.32882 10.1477 2.98828 8.5 2.98828ZM8.5 7.97539C7.39576 7.97539 6.50117 7.07781 6.50117 5.97656C6.50117 4.87807 7.40151 3.97773 8.5 3.97773C9.59849 3.97773 10.4955 4.87807 10.4955 5.97656C10.4955 7.06174 9.62173 7.97539 8.5 7.97539Z"/>
    </g>
  </symbol>

  <symbol viewBox="0 0 18 21" id="bell">
    <path d="M17.1875 14.6406C17.4219 14.901 17.5391 15.1875 17.5391 15.5C17.5391 15.8385 17.4219 16.138 17.1875 16.3984C16.9531 16.6328 16.6536 16.75 16.2891 16.75H1.28906C1.05469 16.75 0.833333 16.6979 0.625 16.5938C0.442708 16.4635 0.299479 16.3073 0.195312 16.125C0.0911458 15.9167 0.0390625 15.7083 0.0390625 15.5C0.0390625 15.1875 0.15625 14.901 0.390625 14.6406C0.416667 14.6146 0.455729 14.5625 0.507812 14.4844C0.898438 14.0938 1.19792 13.7422 1.40625 13.4297C1.64062 13.1172 1.88802 12.5312 2.14844 11.6719C2.40885 10.7865 2.53906 9.77083 2.53906 8.625C2.53906 7.11458 3.00781 5.79948 3.94531 4.67969C4.88281 3.5599 6.08073 2.85677 7.53906 2.57031V1.75C7.53906 1.41146 7.65625 1.125 7.89062 0.890625C8.15104 0.630208 8.45052 0.5 8.78906 0.5C9.1276 0.5 9.41406 0.630208 9.64844 0.890625C9.90885 1.125 10.0391 1.41146 10.0391 1.75V2.57031C11.0026 2.7526 11.862 3.13021 12.6172 3.70312C13.3724 4.27604 13.9583 4.99219 14.375 5.85156C14.8177 6.71094 15.0391 7.63542 15.0391 8.625C15.0391 9.77083 15.1693 10.7865 15.4297 11.6719C15.6901 12.5312 15.9245 13.1172 16.1328 13.4297C16.3672 13.7422 16.6797 14.0938 17.0703 14.4844C17.1224 14.5625 17.1615 14.6146 17.1875 14.6406ZM2.69531 14.875H14.8828C13.737 13.3385 13.1641 11.2682 13.1641 8.66406C13.1641 8.63802 13.1641 8.625 13.1641 8.625C13.1641 7.42708 12.7344 6.39844 11.875 5.53906C11.0156 4.67969 9.98698 4.25 8.78906 4.25C7.59115 4.25 6.5625 4.67969 5.70312 5.53906C4.84375 6.39844 4.41406 7.42708 4.41406 8.625C4.41406 8.625 4.41406 8.63802 4.41406 8.66406C4.41406 11.2682 3.84115 13.3385 2.69531 14.875ZM10.5469 19.7578C10.0521 20.2526 9.46615 20.5 8.78906 20.5C8.11198 20.5 7.52604 20.2526 7.03125 19.7578C6.53646 19.2891 6.28906 18.7031 6.28906 18H11.2891C11.2891 18.7031 11.0417 19.2891 10.5469 19.7578Z"/>
  </symbol>

  <symbol viewBox="0 0 12 16" id="map-marker">
    <path d="M5.375 15.6875C4.875 14.9583 4.30208 14.1354 3.65625 13.2188C3.03125 12.3021 2.58333 11.6562 2.3125 11.2812C2.04167 10.9062 1.72917 10.4479 1.375 9.90625C1.02083 9.34375 0.78125 8.94792 0.65625 8.71875C0.552083 8.48958 0.427083 8.19792 0.28125 7.84375C0.15625 7.48958 0.0729167 7.1875 0.03125 6.9375C0.0104167 6.66667 0 6.35417 0 6C0 4.33333 0.583333 2.91667 1.75 1.75C2.91667 0.583333 4.33333 0 6 0C7.66667 0 9.08333 0.583333 10.25 1.75C11.4167 2.91667 12 4.33333 12 6C12 6.35417 11.9792 6.66667 11.9375 6.9375C11.9167 7.1875 11.8333 7.48958 11.6875 7.84375C11.5625 8.19792 11.4375 8.48958 11.3125 8.71875C11.2083 8.94792 10.9792 9.34375 10.625 9.90625C10.2708 10.4479 9.95833 10.9062 9.6875 11.2812C9.41667 11.6562 8.95833 12.3021 8.3125 13.2188C7.6875 14.1354 7.125 14.9583 6.625 15.6875C6.47917 15.8958 6.27083 16 6 16C5.72917 16 5.52083 15.8958 5.375 15.6875ZM4.21875 7.78125C4.71875 8.26042 5.3125 8.5 6 8.5C6.6875 8.5 7.27083 8.26042 7.75 7.78125C8.25 7.28125 8.5 6.6875 8.5 6C8.5 5.3125 8.25 4.72917 7.75 4.25C7.27083 3.75 6.6875 3.5 6 3.5C5.3125 3.5 4.71875 3.75 4.21875 4.25C3.73958 4.72917 3.5 5.3125 3.5 6C3.5 6.6875 3.73958 7.28125 4.21875 7.78125Z" />
  </symbol>

  <symbol viewBox="0 0 15 15" id="resize-icon">
    <path d="M6.57309 12.7218C6.83826 12.9869 6.89626 13.2935 6.74711 13.6416C6.59795 13.9896 6.34107 14.1636 5.97647 14.1636H1.70069C1.46867 14.1636 1.26979 14.0807 1.10406 13.915C0.938333 13.7493 0.855469 13.5504 0.855469 13.3184V9.04258C0.855469 8.67798 1.02949 8.4211 1.37752 8.27194C1.72555 8.1228 2.03214 8.18079 2.29731 8.44596L3.44083 9.58948L9.50648 3.52383L8.36296 2.38031C8.09779 2.11514 8.03979 1.80854 8.18894 1.46052C8.3381 1.11249 8.59498 0.938477 8.95958 0.938477H13.2354C13.4674 0.938477 13.6663 1.02134 13.832 1.18706C13.9978 1.35279 14.0806 1.55167 14.0806 1.78369V6.05947C14.0806 6.42407 13.9066 6.68095 13.5586 6.83011C13.2105 6.97926 12.9039 6.92126 12.6388 6.65609L11.4953 5.51257L5.42957 11.5782L6.57309 12.7218Z" />
  </symbol>

  <symbol viewBox="0 0 16 16" id="search">
    <path d="M15.7812 13.8438C15.9271 13.9896 16 14.1667 16 14.375C16 14.5833 15.9271 14.7604 15.7812 14.9062L14.9062 15.7812C14.7604 15.9271 14.5833 16 14.375 16C14.1667 16 13.9896 15.9271 13.8438 15.7812L10.7188 12.6562C10.5729 12.5104 10.5 12.3333 10.5 12.125V11.625C9.33333 12.5417 8 13 6.5 13C4.70833 13 3.17708 12.3646 1.90625 11.0938C0.635417 9.82292 0 8.29167 0 6.5C0 4.70833 0.635417 3.17708 1.90625 1.90625C3.17708 0.635417 4.70833 0 6.5 0C8.29167 0 9.82292 0.635417 11.0938 1.90625C12.3646 3.17708 13 4.70833 13 6.5C13 8 12.5417 9.33333 11.625 10.5H12.125C12.3333 10.5 12.5104 10.5729 12.6562 10.7188L15.7812 13.8438ZM3.65625 9.34375C4.44792 10.1146 5.39583 10.5 6.5 10.5C7.60417 10.5 8.54167 10.1146 9.3125 9.34375C10.1042 8.55208 10.5 7.60417 10.5 6.5C10.5 5.39583 10.1042 4.45833 9.3125 3.6875C8.54167 2.89583 7.60417 2.5 6.5 2.5C5.39583 2.5 4.44792 2.89583 3.65625 3.6875C2.88542 4.45833 2.5 5.39583 2.5 6.5C2.5 7.60417 2.88542 8.55208 3.65625 9.34375Z" />
  </symbol>

  <symbol viewBox="0 0 14 15" id="shield">
    <path d="M12.7422 3.04688C12.9974 3.13802 13.1979 3.29297 13.3438 3.51172C13.4896 3.73047 13.5625 3.97656 13.5625 4.25C13.5625 5.39844 13.4258 6.5013 13.1523 7.55859C12.8789 8.59766 12.5326 9.5 12.1133 10.2656C11.694 11.013 11.2018 11.6966 10.6367 12.3164C10.0898 12.918 9.55208 13.401 9.02344 13.7656C8.51302 14.1484 8.0026 14.4401 7.49219 14.6406C7.16406 14.7865 6.83594 14.7865 6.50781 14.6406C5.74219 14.3307 5.00391 13.8659 4.29297 13.2461C3.60026 12.6445 2.96224 11.9154 2.37891 11.0586C1.79557 10.1836 1.32161 9.15365 0.957031 7.96875C0.610677 6.78385 0.4375 5.54427 0.4375 4.25C0.4375 4.14062 0.446615 4.04036 0.464844 3.94922C0.501302 3.83984 0.53776 3.73958 0.574219 3.64844C0.628906 3.55729 0.683594 3.47526 0.738281 3.40234C0.811198 3.32943 0.884115 3.26562 0.957031 3.21094C1.04818 3.13802 1.14844 3.08333 1.25781 3.04688L6.50781 0.859375C6.65365 0.786458 6.81771 0.75 7 0.75C7.18229 0.75 7.34635 0.786458 7.49219 0.859375L12.7422 3.04688ZM7 12.9453C8.36719 12.2708 9.4974 11.1953 10.3906 9.71875C11.3021 8.24219 11.776 6.51953 11.8125 4.55078L7 2.52734V12.9453Z" />
  </symbol>

  <symbol viewBox="0 0 14 15" id="tel-icon">
    <path d="M13.5898 10.6484C13.8633 10.7578 14 10.9583 14 11.25C14 11.3047 13.9909 11.3503 13.9727 11.3867L13.3164 14.2305C13.2982 14.3216 13.2526 14.4036 13.1797 14.4766C13.125 14.5677 13.0521 14.6315 12.9609 14.668C12.8698 14.7227 12.7786 14.75 12.6875 14.75C9.1875 14.75 6.19792 13.5104 3.71875 11.0312C1.23958 8.55208 0 5.5625 0 2.0625C0 1.97135 0.0182292 1.88021 0.0546875 1.78906C0.109375 1.69792 0.173177 1.625 0.246094 1.57031C0.33724 1.4974 0.428385 1.45182 0.519531 1.43359L3.36328 0.777344C3.39974 0.759115 3.44531 0.75 3.5 0.75C3.79167 0.75 3.99219 0.886719 4.10156 1.16016L5.41406 4.22266C5.45052 4.29557 5.46875 4.3776 5.46875 4.46875C5.46875 4.66927 5.38672 4.84245 5.22266 4.98828L3.58203 6.32812C4.0013 7.23958 4.6849 8.16927 5.63281 9.11719C6.58073 10.0651 7.51042 10.7487 8.42188 11.168L9.76172 9.52734C9.90755 9.36328 10.0807 9.28125 10.2812 9.28125C10.3724 9.28125 10.4544 9.29948 10.5273 9.33594L13.5898 10.6484Z" />
  </symbol>

  <symbol viewBox="0 0 15 15" id="website-icon">
    <path d="M8.96875 5.80859C9.77083 6.62891 10.1719 7.61328 10.1719 8.76172C10.1719 9.91016 9.77083 10.8854 8.96875 11.6875L7.10938 13.5469C6.30729 14.349 5.33203 14.75 4.18359 14.75C3.03516 14.75 2.05078 14.3398 1.23047 13.5195C0.428385 12.7174 0.0273438 11.7422 0.0273438 10.5938C0.0273438 9.44531 0.428385 8.47005 1.23047 7.66797L2.26953 6.62891C2.39714 6.5013 2.54297 6.47396 2.70703 6.54688C2.88932 6.61979 2.98958 6.7474 3.00781 6.92969C3.02604 7.42188 3.11719 7.90495 3.28125 8.37891C3.33594 8.54297 3.29948 8.6888 3.17188 8.81641L2.81641 9.19922C2.43359 9.58203 2.23307 10.0469 2.21484 10.5938C2.21484 11.1224 2.40625 11.5781 2.78906 11.9609C3.17188 12.362 3.63672 12.5625 4.18359 12.5625C4.73047 12.5625 5.19531 12.3711 5.57812 11.9883L7.41016 10.1562C7.79297 9.77344 7.98438 9.30859 7.98438 8.76172C7.98438 8.21484 7.79297 7.75 7.41016 7.36719C7.31901 7.27604 7.22786 7.19401 7.13672 7.12109C7.00911 7.04818 6.94531 6.9388 6.94531 6.79297C6.92708 6.46484 7.02734 6.19141 7.24609 5.97266L7.84766 5.39844C8.01172 5.21615 8.19401 5.19792 8.39453 5.34375C8.59505 5.48958 8.78646 5.64453 8.96875 5.80859ZM9.87109 0.75C11.0195 0.75 11.9948 1.16016 12.7969 1.98047C13.6172 2.78255 14.0273 3.75781 14.0273 4.90625C14.0273 6.05469 13.6263 7.02995 12.8242 7.83203L11.7852 8.87109C11.6576 8.9987 11.5026 9.02604 11.3203 8.95312C11.1562 8.88021 11.0651 8.7526 11.0469 8.57031C11.0286 8.07812 10.9375 7.59505 10.7734 7.12109C10.7188 6.95703 10.7552 6.8112 10.8828 6.68359L11.2383 6.30078C11.6211 5.91797 11.8125 5.46224 11.8125 4.93359C11.8307 4.38672 11.6484 3.92188 11.2656 3.53906C10.8828 3.13802 10.418 2.9375 9.87109 2.9375C9.32422 2.9375 8.85938 3.12891 8.47656 3.51172L6.64453 5.34375C6.26172 5.72656 6.07031 6.19141 6.07031 6.73828C6.07031 7.28516 6.26172 7.75 6.64453 8.13281C6.73568 8.22396 6.82682 8.30599 6.91797 8.37891C7.04557 8.45182 7.10938 8.5612 7.10938 8.70703C7.1276 9.03516 7.02734 9.30859 6.80859 9.52734L6.20703 10.1016C6.04297 10.2839 5.86068 10.3021 5.66016 10.1562C5.45964 10.0104 5.26823 9.85547 5.08594 9.69141C4.28385 8.87109 3.88281 7.88672 3.88281 6.73828C3.88281 5.58984 4.28385 4.61458 5.08594 3.8125L6.94531 1.95312C7.7474 1.15104 8.72266 0.75 9.87109 0.75Z" />
  </symbol>

  <symbol viewBox="0 0 12 11" id="link-blank">
    <path d="M11.25 0.71875V3.21875C11.25 3.42708 11.1523 3.57031 10.957 3.64844C10.7617 3.72656 10.5924 3.69401 10.4492 3.55078L9.74609 2.84766L5 7.61328C4.90885 7.70443 4.79818 7.75 4.66797 7.75C4.53776 7.75 4.42708 7.70443 4.33594 7.61328L3.88672 7.16406C3.79557 7.07292 3.75 6.96224 3.75 6.83203C3.75 6.70182 3.79557 6.59115 3.88672 6.5L8.65234 1.75391L7.94922 1.05078C7.80599 0.907552 7.77344 0.738281 7.85156 0.542969C7.92969 0.347656 8.07292 0.25 8.28125 0.25H10.7812C10.9115 0.25 11.0221 0.295573 11.1133 0.386719C11.2044 0.477865 11.25 0.588542 11.25 0.71875ZM7.94922 5.54297C8.09245 5.38672 8.26172 5.35417 8.45703 5.44531C8.65234 5.52344 8.75 5.66667 8.75 5.875V9.3125C8.75 9.57292 8.65885 9.79427 8.47656 9.97656C8.29427 10.1589 8.07292 10.25 7.8125 10.25H0.9375C0.677083 10.25 0.455729 10.1589 0.273438 9.97656C0.0911458 9.79427 0 9.57292 0 9.3125V2.4375C0 2.17708 0.0911458 1.95573 0.273438 1.77344C0.455729 1.59115 0.677083 1.5 0.9375 1.5H6.71875C6.92708 1.5 7.07031 1.59766 7.14844 1.79297C7.22656 1.98828 7.19401 2.15755 7.05078 2.30078L6.73828 2.61328C6.64714 2.70443 6.53646 2.75 6.40625 2.75H1.25V9H7.5V6.1875C7.5 6.05729 7.54557 5.94661 7.63672 5.85547L7.94922 5.54297Z"/>
  </symbol>


  <symbol viewBox="0 0 12 11" id="close">
    <path d="M7.625 6L10.75 9.125C10.9375 9.3125 11.0312 9.54167 11.0312 9.8125C11.0312 10.0833 10.9375 10.3229 10.75 10.5312L10.0625 11.2188C9.85417 11.4062 9.61458 11.5 9.34375 11.5C9.07292 11.5 8.84375 11.4062 8.65625 11.2188L5.53125 8.09375L2.40625 11.2188C2.21875 11.4062 1.98958 11.5 1.71875 11.5C1.44792 11.5 1.20833 11.4062 1 11.2188L0.3125 10.5312C0.125 10.3229 0.03125 10.0833 0.03125 9.8125C0.03125 9.54167 0.125 9.3125 0.3125 9.125L3.4375 6L0.3125 2.875C0.125 2.6875 0.03125 2.45833 0.03125 2.1875C0.03125 1.91667 0.125 1.67708 0.3125 1.46875L1 0.78125C1.20833 0.59375 1.44792 0.5 1.71875 0.5C1.98958 0.5 2.21875 0.59375 2.40625 0.78125L5.53125 3.90625L8.65625 0.78125C8.84375 0.59375 9.07292 0.5 9.34375 0.5C9.61458 0.5 9.85417 0.59375 10.0625 0.78125L10.75 1.46875C10.9375 1.67708 11.0312 1.91667 11.0312 2.1875C11.0312 2.45833 10.9375 2.6875 10.75 2.875L7.625 6Z" />
  </symbol>

  <symbol viewBox="0 0 6 16" id="exc">
    <path d="M4.75 11.75C5.25 12.2292 5.5 12.8125 5.5 13.5C5.5 14.1875 5.25 14.7708 4.75 15.25C4.27083 15.75 3.6875 16 3 16C2.3125 16 1.71875 15.75 1.21875 15.25C0.739583 14.7708 0.5 14.1875 0.5 13.5C0.5 12.8125 0.739583 12.2292 1.21875 11.75C1.71875 11.25 2.3125 11 3 11C3.6875 11 4.27083 11.25 4.75 11.75ZM0.78125 0.78125C0.78125 0.572917 0.854167 0.395833 1 0.25C1.14583 0.0833333 1.32292 0 1.53125 0H4.46875C4.67708 0 4.85417 0.0833333 5 0.25C5.14583 0.395833 5.21875 0.572917 5.21875 0.78125L4.78125 9.28125C4.78125 9.48958 4.70833 9.66667 4.5625 9.8125C4.41667 9.9375 4.23958 10 4.03125 10H1.96875C1.76042 10 1.58333 9.9375 1.4375 9.8125C1.29167 9.66667 1.21875 9.48958 1.21875 9.28125L0.78125 0.78125Z"/>
  </symbol>

  <symbol viewBox="0 0 13 10" id="heart">
    <path d="M10.9687 0.705575C11.5422 1.16688 11.9246 1.71748 12.1158 2.35736C12.3069 2.98236 12.3149 3.58504 12.1396 4.1654C11.9643 4.74575 11.6617 5.24427 11.2315 5.66093L7.04955 9.63415C6.79465 9.87222 6.49195 9.99129 6.14146 9.99129C5.79097 9.99129 5.48827 9.87222 5.23337 9.63415L1.05139 5.66093C0.621239 5.24427 0.318543 4.74575 0.143297 4.1654C-0.0319477 3.57016 -0.023982 2.96004 0.167195 2.33504C0.358371 1.71004 0.740724 1.16688 1.31425 0.705575C1.9993 0.169861 2.80384 -0.0607942 3.72786 0.0136106C4.66781 0.0731342 5.47234 0.415396 6.14146 1.0404C6.81058 0.415396 7.60715 0.0731342 8.53113 0.0136106C9.4711 -0.0607942 10.2836 0.169861 10.9687 0.705575ZM10.419 4.902C10.8811 4.45557 11.112 3.91242 11.112 3.27254C11.112 2.61777 10.8252 2.03742 10.2517 1.53147C9.77377 1.17432 9.21623 1.01807 8.579 1.06272C7.9576 1.10736 7.42393 1.34545 6.97786 1.777L6.14146 2.55825L5.30506 1.777C4.85899 1.34545 4.31731 1.10736 3.68006 1.06272C3.05874 1.01807 2.50911 1.17432 2.03117 1.53147C1.45764 2.03742 1.17087 2.61777 1.17087 3.27254C1.17087 3.91242 1.40187 4.45557 1.86389 4.902L6.06977 8.87522C6.11756 8.93472 6.16536 8.93472 6.21315 8.87522L10.419 4.902Z"/>
  </symbol>

  <symbol viewBox="0 0 17 14" id="heart-white">
    <path d="M14.4688 0.96875C15.4479 1.80208 15.9688 2.86458 16.0312 4.15625C16.0938 5.44792 15.6771 6.54167 14.7812 7.4375L8.75 13.6875C8.54167 13.8958 8.30208 14 8.03125 14C7.76042 14 7.52083 13.8958 7.3125 13.6875L1.28125 7.4375C0.385417 6.54167 -0.03125 5.44792 0.03125 4.15625C0.09375 2.86458 0.614583 1.80208 1.59375 0.96875C2.44792 0.239583 3.42708 -0.0729167 4.53125 0.03125C5.65625 0.114583 6.61458 0.5625 7.40625 1.375L8.03125 2L8.65625 1.375C9.44792 0.5625 10.3958 0.114583 11.5 0.03125C12.625 -0.0729167 13.6146 0.239583 14.4688 0.96875Z"/>
  </symbol>
  
  <symbol viewBox="0 0 16 12" id="img-icon">
    <path d="M14.5 0C14.9167 0 15.2708 0.145833 15.5625 0.4375C15.8542 0.729167 16 1.08333 16 1.5V10.5C16 10.9167 15.8542 11.2708 15.5625 11.5625C15.2708 11.8542 14.9167 12 14.5 12H1.5C1.08333 12 0.729167 11.8542 0.4375 11.5625C0.145833 11.2708 0 10.9167 0 10.5V1.5C0 1.08333 0.145833 0.729167 0.4375 0.4375C0.729167 0.145833 1.08333 0 1.5 0H14.5ZM14.3125 10.5C14.4375 10.5 14.5 10.4375 14.5 10.3125V1.6875C14.5 1.5625 14.4375 1.5 14.3125 1.5H1.6875C1.5625 1.5 1.5 1.5625 1.5 1.6875V10.3125C1.5 10.4375 1.5625 10.5 1.6875 10.5H14.3125ZM3.09375 3.125C3.34375 2.875 3.64583 2.75 4 2.75C4.35417 2.75 4.64583 2.875 4.875 3.125C5.125 3.35417 5.25 3.64583 5.25 4C5.25 4.35417 5.125 4.65625 4.875 4.90625C4.64583 5.13542 4.35417 5.25 4 5.25C3.64583 5.25 3.34375 5.13542 3.09375 4.90625C2.86458 4.65625 2.75 4.35417 2.75 4C2.75 3.64583 2.86458 3.35417 3.09375 3.125ZM3 9V7.5L4.25 6.25C4.41667 6.08333 4.58333 6.08333 4.75 6.25L6 7.5L9.75 3.75C9.91667 3.58333 10.0833 3.58333 10.25 3.75L13 6.5V9H3Z"/>
  </symbol>

  <symbol viewBox="0 0 28 37" id="import-icon">
    <path d="M16.3333 9.82812C16.3333 10.3099 16.5035 10.7194 16.8438 11.0566C17.184 11.3939 17.5972 11.5625 18.0833 11.5625H28V35.2656C28 35.7473 27.8299 36.1569 27.4895 36.494C27.1493 36.8314 26.736 37 26.25 37H1.75C1.26389 37 0.850694 36.8314 0.510417 36.494C0.170139 36.1569 0 35.7473 0 35.2656V1.73438C0 1.2526 0.170139 0.843098 0.510417 0.505859C0.850694 0.16862 1.26389 0 1.75 0H16.3333V9.82812ZM21.0729 25.4375C21.6076 25.4375 21.9722 25.1965 22.1667 24.7148C22.3611 24.2332 22.2639 23.8236 21.875 23.4862L14.875 16.5488C14.6319 16.3079 14.3403 16.1875 14 16.1875C13.6597 16.1875 13.3681 16.3079 13.125 16.5488L6.125 23.4862C5.7361 23.8236 5.6389 24.2332 5.83333 24.7148C6.02777 25.1965 6.39235 25.4375 6.92708 25.4375H11.6667V31.2188C11.6667 31.5559 11.7639 31.845 11.9583 32.0859C12.2014 32.2786 12.4931 32.375 12.8333 32.375H15.1667C15.5069 32.375 15.7743 32.2786 15.9687 32.0859C16.2118 31.845 16.3333 31.5559 16.3333 31.2188V25.4375H21.0729ZM27.4895 7.58789C27.8299 7.92512 28 8.33464 28 8.81641V9.25H18.6667V0H19.1042C19.5903 0 20.0035 0.16862 20.3438 0.505859L27.4895 7.58789Z"/>
  </symbol>

  <symbol viewBox="0 0 18 17" id="map-icon">
    <path d="M6.21875 1.15625C6.98958 0.385417 7.91667 0 9 0C10.0833 0 11.0104 0.385417 11.7812 1.15625C12.5521 1.92708 12.9375 2.85417 12.9375 3.9375C12.9375 5.22917 11.75 7.27083 9.375 10.0625C9.27083 10.1875 9.14583 10.25 9 10.25C8.85417 10.25 8.72917 10.1875 8.625 10.0625C6.25 7.27083 5.0625 5.22917 5.0625 3.9375C5.0625 2.85417 5.44792 1.92708 6.21875 1.15625ZM8.0625 4.875C8.33333 5.125 8.64583 5.25 9 5.25C9.35417 5.25 9.65625 5.125 9.90625 4.875C10.1771 4.60417 10.3125 4.29167 10.3125 3.9375C10.3125 3.58333 10.1771 3.28125 9.90625 3.03125C9.65625 2.76042 9.35417 2.625 9 2.625C8.64583 2.625 8.33333 2.76042 8.0625 3.03125C7.8125 3.28125 7.6875 3.58333 7.6875 3.9375C7.6875 4.29167 7.8125 4.60417 8.0625 4.875ZM0.625 6.75L4.34375 5.25C4.48958 5.70833 4.70833 6.19792 5 6.71875V14L0.6875 15.9688C0.604167 16.0104 0.520833 16.0208 0.4375 16C0.354167 15.9792 0.28125 15.9479 0.21875 15.9062C0.15625 15.8646 0.104167 15.8021 0.0625 15.7188C0.0208333 15.6562 0 15.5833 0 15.5V7.6875C0 7.5 0.0625 7.3125 0.1875 7.125C0.3125 6.9375 0.458333 6.8125 0.625 6.75ZM7.84375 10.7188C8.15625 11.0729 8.54167 11.25 9 11.25C9.45833 11.25 9.84375 11.0729 10.1562 10.7188C10.8438 9.88542 11.4583 9.08333 12 8.3125V16L6 14V8.3125C6.54167 9.08333 7.15625 9.88542 7.84375 10.7188ZM17.3125 5.03125C17.4375 4.98958 17.5417 4.98958 17.625 5.03125C17.7292 5.05208 17.8125 5.10417 17.875 5.1875C17.9583 5.27083 18 5.375 18 5.5V13.3125C18 13.4375 17.9688 13.5625 17.9062 13.6875C17.8646 13.8125 17.7917 13.9271 17.6875 14.0312C17.5833 14.1354 17.4792 14.2083 17.375 14.25L13 16V7L17.3125 5.03125Z"/>
  </symbol>

  <symbol viewBox="0 0 12 16" id="map-marker">
    <path d="M5.375 15.6875C4.875 14.9583 4.30208 14.1354 3.65625 13.2188C3.03125 12.3021 2.58333 11.6562 2.3125 11.2812C2.04167 10.9062 1.72917 10.4479 1.375 9.90625C1.02083 9.34375 0.78125 8.94792 0.65625 8.71875C0.552083 8.48958 0.427083 8.19792 0.28125 7.84375C0.15625 7.48958 0.0729167 7.1875 0.03125 6.9375C0.0104167 6.66667 0 6.35417 0 6C0 4.33333 0.583333 2.91667 1.75 1.75C2.91667 0.583333 4.33333 0 6 0C7.66667 0 9.08333 0.583333 10.25 1.75C11.4167 2.91667 12 4.33333 12 6C12 6.35417 11.9792 6.66667 11.9375 6.9375C11.9167 7.1875 11.8333 7.48958 11.6875 7.84375C11.5625 8.19792 11.4375 8.48958 11.3125 8.71875C11.2083 8.94792 10.9792 9.34375 10.625 9.90625C10.2708 10.4479 9.95833 10.9062 9.6875 11.2812C9.41667 11.6562 8.95833 12.3021 8.3125 13.2188C7.6875 14.1354 7.125 14.9583 6.625 15.6875C6.47917 15.8958 6.27083 16 6 16C5.72917 16 5.52083 15.8958 5.375 15.6875ZM4.21875 7.78125C4.71875 8.26042 5.3125 8.5 6 8.5C6.6875 8.5 7.27083 8.26042 7.75 7.78125C8.25 7.28125 8.5 6.6875 8.5 6C8.5 5.3125 8.25 4.72917 7.75 4.25C7.27083 3.75 6.6875 3.5 6 3.5C5.3125 3.5 4.71875 3.75 4.21875 4.25C3.73958 4.72917 3.5 5.3125 3.5 6C3.5 6.6875 3.73958 7.28125 4.21875 7.78125Z"/>
  </symbol>

  <symbol viewBox="0 0 15 15" id="resize-icon">
    <path d="M6.57309 12.7218C6.83826 12.9869 6.89626 13.2935 6.74711 13.6416C6.59795 13.9896 6.34107 14.1636 5.97647 14.1636H1.70069C1.46867 14.1636 1.26979 14.0807 1.10406 13.915C0.938333 13.7493 0.855469 13.5504 0.855469 13.3184V9.04258C0.855469 8.67798 1.02949 8.4211 1.37752 8.27194C1.72555 8.1228 2.03214 8.18079 2.29731 8.44596L3.44083 9.58948L9.50648 3.52383L8.36296 2.38031C8.09779 2.11514 8.03979 1.80854 8.18894 1.46052C8.3381 1.11249 8.59498 0.938477 8.95958 0.938477H13.2354C13.4674 0.938477 13.6663 1.02134 13.832 1.18706C13.9978 1.35279 14.0806 1.55167 14.0806 1.78369V6.05947C14.0806 6.42407 13.9066 6.68095 13.5586 6.83011C13.2105 6.97926 12.9039 6.92126 12.6388 6.65609L11.4953 5.51257L5.42957 11.5782L6.57309 12.7218Z"/>
  </symbol>

  <symbol viewBox="0 0 16 16" id="search-icon">
    <path d="M15.7812 13.8438C15.9271 13.9896 16 14.1667 16 14.375C16 14.5833 15.9271 14.7604 15.7812 14.9062L14.9062 15.7812C14.7604 15.9271 14.5833 16 14.375 16C14.1667 16 13.9896 15.9271 13.8438 15.7812L10.7188 12.6562C10.5729 12.5104 10.5 12.3333 10.5 12.125V11.625C9.33333 12.5417 8 13 6.5 13C4.70833 13 3.17708 12.3646 1.90625 11.0938C0.635417 9.82292 0 8.29167 0 6.5C0 4.70833 0.635417 3.17708 1.90625 1.90625C3.17708 0.635417 4.70833 0 6.5 0C8.29167 0 9.82292 0.635417 11.0938 1.90625C12.3646 3.17708 13 4.70833 13 6.5C13 8 12.5417 9.33333 11.625 10.5H12.125C12.3333 10.5 12.5104 10.5729 12.6562 10.7188L15.7812 13.8438ZM3.65625 9.34375C4.44792 10.1146 5.39583 10.5 6.5 10.5C7.60417 10.5 8.54167 10.1146 9.3125 9.34375C10.1042 8.55208 10.5 7.60417 10.5 6.5C10.5 5.39583 10.1042 4.45833 9.3125 3.6875C8.54167 2.89583 7.60417 2.5 6.5 2.5C5.39583 2.5 4.44792 2.89583 3.65625 3.6875C2.88542 4.45833 2.5 5.39583 2.5 6.5C2.5 7.60417 2.88542 8.55208 3.65625 9.34375Z"/>
  </symbol>

  <symbol viewBox="0 0 14 15" id="shield">
    <path d="M12.7422 3.04688C12.9974 3.13802 13.1979 3.29297 13.3438 3.51172C13.4896 3.73047 13.5625 3.97656 13.5625 4.25C13.5625 5.39844 13.4258 6.5013 13.1523 7.55859C12.8789 8.59766 12.5326 9.5 12.1133 10.2656C11.694 11.013 11.2018 11.6966 10.6367 12.3164C10.0898 12.918 9.55208 13.401 9.02344 13.7656C8.51302 14.1484 8.0026 14.4401 7.49219 14.6406C7.16406 14.7865 6.83594 14.7865 6.50781 14.6406C5.74219 14.3307 5.00391 13.8659 4.29297 13.2461C3.60026 12.6445 2.96224 11.9154 2.37891 11.0586C1.79557 10.1836 1.32161 9.15365 0.957031 7.96875C0.610677 6.78385 0.4375 5.54427 0.4375 4.25C0.4375 4.14062 0.446615 4.04036 0.464844 3.94922C0.501302 3.83984 0.53776 3.73958 0.574219 3.64844C0.628906 3.55729 0.683594 3.47526 0.738281 3.40234C0.811198 3.32943 0.884115 3.26562 0.957031 3.21094C1.04818 3.13802 1.14844 3.08333 1.25781 3.04688L6.50781 0.859375C6.65365 0.786458 6.81771 0.75 7 0.75C7.18229 0.75 7.34635 0.786458 7.49219 0.859375L12.7422 3.04688ZM7 12.9453C8.36719 12.2708 9.4974 11.1953 10.3906 9.71875C11.3021 8.24219 11.776 6.51953 11.8125 4.55078L7 2.52734V12.9453Z"/>
  </symbol>

  <symbol viewBox="0 0 14 15" id="tel-icon">
    <path d="M13.5898 10.6484C13.8633 10.7578 14 10.9583 14 11.25C14 11.3047 13.9909 11.3503 13.9727 11.3867L13.3164 14.2305C13.2982 14.3216 13.2526 14.4036 13.1797 14.4766C13.125 14.5677 13.0521 14.6315 12.9609 14.668C12.8698 14.7227 12.7786 14.75 12.6875 14.75C9.1875 14.75 6.19792 13.5104 3.71875 11.0312C1.23958 8.55208 0 5.5625 0 2.0625C0 1.97135 0.0182292 1.88021 0.0546875 1.78906C0.109375 1.69792 0.173177 1.625 0.246094 1.57031C0.33724 1.4974 0.428385 1.45182 0.519531 1.43359L3.36328 0.777344C3.39974 0.759115 3.44531 0.75 3.5 0.75C3.79167 0.75 3.99219 0.886719 4.10156 1.16016L5.41406 4.22266C5.45052 4.29557 5.46875 4.3776 5.46875 4.46875C5.46875 4.66927 5.38672 4.84245 5.22266 4.98828L3.58203 6.32812C4.0013 7.23958 4.6849 8.16927 5.63281 9.11719C6.58073 10.0651 7.51042 10.7487 8.42188 11.168L9.76172 9.52734C9.90755 9.36328 10.0807 9.28125 10.2812 9.28125C10.3724 9.28125 10.4544 9.29948 10.5273 9.33594L13.5898 10.6484Z"/>
  </symbol>

  <symbol viewBox="0 0 15 15" id="website-icon">
    <path d="M8.96875 5.80859C9.77083 6.62891 10.1719 7.61328 10.1719 8.76172C10.1719 9.91016 9.77083 10.8854 8.96875 11.6875L7.10938 13.5469C6.30729 14.349 5.33203 14.75 4.18359 14.75C3.03516 14.75 2.05078 14.3398 1.23047 13.5195C0.428385 12.7174 0.0273438 11.7422 0.0273438 10.5938C0.0273438 9.44531 0.428385 8.47005 1.23047 7.66797L2.26953 6.62891C2.39714 6.5013 2.54297 6.47396 2.70703 6.54688C2.88932 6.61979 2.98958 6.7474 3.00781 6.92969C3.02604 7.42188 3.11719 7.90495 3.28125 8.37891C3.33594 8.54297 3.29948 8.6888 3.17188 8.81641L2.81641 9.19922C2.43359 9.58203 2.23307 10.0469 2.21484 10.5938C2.21484 11.1224 2.40625 11.5781 2.78906 11.9609C3.17188 12.362 3.63672 12.5625 4.18359 12.5625C4.73047 12.5625 5.19531 12.3711 5.57812 11.9883L7.41016 10.1562C7.79297 9.77344 7.98438 9.30859 7.98438 8.76172C7.98438 8.21484 7.79297 7.75 7.41016 7.36719C7.31901 7.27604 7.22786 7.19401 7.13672 7.12109C7.00911 7.04818 6.94531 6.9388 6.94531 6.79297C6.92708 6.46484 7.02734 6.19141 7.24609 5.97266L7.84766 5.39844C8.01172 5.21615 8.19401 5.19792 8.39453 5.34375C8.59505 5.48958 8.78646 5.64453 8.96875 5.80859ZM9.87109 0.75C11.0195 0.75 11.9948 1.16016 12.7969 1.98047C13.6172 2.78255 14.0273 3.75781 14.0273 4.90625C14.0273 6.05469 13.6263 7.02995 12.8242 7.83203L11.7852 8.87109C11.6576 8.9987 11.5026 9.02604 11.3203 8.95312C11.1562 8.88021 11.0651 8.7526 11.0469 8.57031C11.0286 8.07812 10.9375 7.59505 10.7734 7.12109C10.7188 6.95703 10.7552 6.8112 10.8828 6.68359L11.2383 6.30078C11.6211 5.91797 11.8125 5.46224 11.8125 4.93359C11.8307 4.38672 11.6484 3.92188 11.2656 3.53906C10.8828 3.13802 10.418 2.9375 9.87109 2.9375C9.32422 2.9375 8.85938 3.12891 8.47656 3.51172L6.64453 5.34375C6.26172 5.72656 6.07031 6.19141 6.07031 6.73828C6.07031 7.28516 6.26172 7.75 6.64453 8.13281C6.73568 8.22396 6.82682 8.30599 6.91797 8.37891C7.04557 8.45182 7.10938 8.5612 7.10938 8.70703C7.1276 9.03516 7.02734 9.30859 6.80859 9.52734L6.20703 10.1016C6.04297 10.2839 5.86068 10.3021 5.66016 10.1562C5.45964 10.0104 5.26823 9.85547 5.08594 9.69141C4.28385 8.87109 3.88281 7.88672 3.88281 6.73828C3.88281 5.58984 4.28385 4.61458 5.08594 3.8125L6.94531 1.95312C7.7474 1.15104 8.72266 0.75 9.87109 0.75Z"/>
  </symbol>


  <symbol viewBox="0 0 16 15" id="edit">
    <path d="M11.0195 3.01953L13.4805 5.48047C13.6081 5.60807 13.6081 5.73568 13.4805 5.86328L7.49219 11.8516L4.97656 12.125C4.86719 12.1432 4.75781 12.125 4.64844 12.0703C4.55729 12.0156 4.48438 11.9427 4.42969 11.8516C4.375 11.7422 4.35677 11.6328 4.375 11.5234L4.64844 9.00781L10.6367 3.01953C10.7643 2.89193 10.8919 2.89193 11.0195 3.01953ZM15.4492 2.39062C15.6497 2.60938 15.75 2.86458 15.75 3.15625C15.75 3.44792 15.6497 3.70312 15.4492 3.92188L14.4648 4.87891C14.3372 5.00651 14.2096 5.00651 14.082 4.87891L11.6211 2.41797C11.4935 2.29036 11.4935 2.16276 11.6211 2.03516L12.6055 1.07812C12.806 0.859375 13.0521 0.75 13.3438 0.75C13.6354 0.75 13.8906 0.859375 14.1094 1.07812L15.4492 2.39062ZM10.5 10.2109C10.5 10.1198 10.5365 10.0469 10.6094 9.99219L11.7031 8.89844C11.7943 8.78906 11.9036 8.76172 12.0312 8.81641C12.1771 8.87109 12.25 8.97135 12.25 9.11719V13.4375C12.25 13.8021 12.1224 14.112 11.8672 14.3672C11.612 14.6224 11.3021 14.75 10.9375 14.75H1.3125C0.947917 14.75 0.638021 14.6224 0.382812 14.3672C0.127604 14.112 0 13.8021 0 13.4375V3.8125C0 3.44792 0.127604 3.13802 0.382812 2.88281C0.638021 2.6276 0.947917 2.5 1.3125 2.5H9.13281C9.27865 2.5 9.37891 2.57292 9.43359 2.71875C9.48828 2.84635 9.46094 2.95573 9.35156 3.04688L8.25781 4.14062C8.20312 4.21354 8.13021 4.25 8.03906 4.25H1.75V13H10.5V10.2109Z" />
  </symbol>


  <symbol viewBox="0 0 14 13" id="close-sq">
    <path d="M12.6875 0.625C13.0521 0.625 13.362 0.752604 13.6172 1.00781C13.8724 1.26302 14 1.57292 14 1.9375V11.5625C14 11.9271 13.8724 12.237 13.6172 12.4922C13.362 12.7474 13.0521 12.875 12.6875 12.875H1.3125C0.947917 12.875 0.638021 12.7474 0.382812 12.4922C0.127604 12.237 0 11.9271 0 11.5625V1.9375C0 1.57292 0.127604 1.26302 0.382812 1.00781C0.638021 0.752604 0.947917 0.625 1.3125 0.625H12.6875ZM12.6875 11.3984V2.10156C12.6875 1.99219 12.6328 1.9375 12.5234 1.9375H1.47656C1.36719 1.9375 1.3125 1.99219 1.3125 2.10156V11.3984C1.3125 11.5078 1.36719 11.5625 1.47656 11.5625H12.5234C12.6328 11.5625 12.6875 11.5078 12.6875 11.3984ZM9.73438 5.08203L8.06641 6.75L9.73438 8.41797C9.89844 8.58203 9.89844 8.73698 9.73438 8.88281L9.13281 9.48438C8.98698 9.64844 8.83203 9.64844 8.66797 9.48438L7 7.81641L5.33203 9.48438C5.16797 9.64844 5.01302 9.64844 4.86719 9.48438L4.26562 8.88281C4.10156 8.73698 4.10156 8.58203 4.26562 8.41797L5.93359 6.75L4.26562 5.08203C4.10156 4.91797 4.10156 4.76302 4.26562 4.61719L4.86719 4.01562C5.01302 3.85156 5.16797 3.85156 5.33203 4.01562L7 5.68359L8.66797 4.01562C8.83203 3.85156 8.98698 3.85156 9.13281 4.01562L9.73438 4.61719C9.89844 4.76302 9.89844 4.91797 9.73438 5.08203Z" />
  </symbol>

</svg>
