<svg xmlns="http://www.w3.org/2000/svg" xmlns:xlink="http://www.w3.org/1999/xlink" width="37" height="22"><defs><path id="a" d="M99.655 1469.443c.254-.819 0-1.443-1.209-1.443h-3.939c-1.014 0-1.462.526-1.716 1.111 0 0-2.008 4.895-4.855 8.093-.937.916-1.346 1.209-1.853 1.209-.254 0-.663-.292-.663-1.131v-7.839c0-.995-.234-1.443-1.073-1.443h-6.22c-.624 0-.995.468-.995.916 0 .937 1.463 1.17 1.56 3.842v5.811c0 1.287-.233 1.521-.721 1.521-1.326 0-4.602-4.934-6.533-10.55-.39-1.092-.76-1.54-1.774-1.54h-3.959c-1.111 0-1.345.526-1.345 1.111 0 1.053 1.345 6.24 6.24 13.104 3.256 4.7 7.858 7.235 12.051 7.235 2.515 0 2.827-.566 2.827-1.54v-3.55c0-1.111.234-1.345 1.034-1.345.585 0 1.58.292 3.92 2.535 2.69 2.691 3.12 3.9 4.64 3.9h3.94c1.13 0 1.696-.566 1.384-1.677-.351-1.111-1.638-2.73-3.335-4.641-.916-1.073-2.3-2.243-2.73-2.847-.585-.741-.409-1.073 0-1.755 0 0 4.817-6.766 5.324-9.087z"/></defs><use fill="#fff" xlink:href="#a" transform="translate(-64 -1468)"/></svg>