<svg width="15" height="15" fill="none" xmlns="http://www.w3.org/2000/svg"><path d="M8.969 5.809a4.074 4.074 0 0 1 1.203 2.953c0 1.148-.401 2.123-1.203 2.925l-1.86 1.86c-.802.802-1.777 1.203-2.925 1.203-1.149 0-2.133-.41-2.954-1.23-.802-.803-1.203-1.778-1.203-2.926 0-1.149.401-2.124 1.203-2.926l1.04-1.04a.362.362 0 0 1 .437-.081c.182.073.283.2.3.383.019.492.11.975.274 1.449a.4.4 0 0 1-.11.437l-.355.383a1.998 1.998 0 0 0-.601 1.395c0 .528.191.984.574 1.367.383.401.848.601 1.395.601.546 0 1.011-.19 1.394-.574l1.832-1.832c.383-.383.574-.847.574-1.394 0-.547-.191-1.012-.574-1.395a3.331 3.331 0 0 0-.273-.246.355.355 0 0 1-.192-.328 1.027 1.027 0 0 1 .301-.82l.602-.575c.164-.182.346-.2.547-.054.2.146.391.3.574.465zM9.87.75c1.149 0 2.124.41 2.926 1.23.82.803 1.23 1.778 1.23 2.926 0 1.149-.4 2.124-1.203 2.926l-1.039 1.04c-.127.127-.282.154-.465.081a.439.439 0 0 1-.273-.383 4.971 4.971 0 0 0-.274-1.449.4.4 0 0 1 .11-.437l.355-.383c.383-.383.575-.839.575-1.367a1.808 1.808 0 0 0-.547-1.395 1.856 1.856 0 0 0-1.395-.602c-.547 0-1.012.192-1.394.575L6.645 5.344a1.899 1.899 0 0 0-.575 1.394 1.9 1.9 0 0 0 .575 1.395c.09.091.182.173.273.246a.355.355 0 0 1 .191.328c.019.328-.082.602-.3.82l-.602.575c-.164.182-.346.2-.547.054-.2-.146-.392-.3-.574-.465a4.074 4.074 0 0 1-1.203-2.953c0-1.148.4-2.123 1.203-2.926l1.86-1.859C7.746 1.151 8.722.75 9.87.75z" fill="#0051FF"/></svg>