<svg xmlns="http://www.w3.org/2000/svg" xmlns:xlink="http://www.w3.org/1999/xlink" width="30" height="22"><defs><path id="a" d="M311.34 1469.755c.195.705.33 1.65.42 2.85.105 1.2.15 2.235.15 3.135l.09 1.26c0 3.285-.24 5.7-.66 7.245-.375 1.35-1.245 2.22-2.595 2.595-.705.195-1.995.33-3.975.42-1.95.105-3.735.15-5.385.15l-2.385.09c-6.285 0-10.2-.24-11.745-.66-1.35-.375-2.22-1.245-2.595-2.595-.195-.705-.33-1.65-.42-2.85a36.09 36.09 0 0 1-.15-3.135L282 1477c0-3.285.24-5.7.66-7.245.375-1.35 1.245-2.22 2.595-2.595.705-.195 1.995-.33 3.975-.42 1.95-.105 3.735-.15 5.385-.15l2.385-.09c6.285 0 10.2.24 11.745.66 1.35.375 2.22 1.245 2.595 2.595zM294 1481.5l7.785-4.5-7.785-4.5v9z"/></defs><use fill="#fff" xlink:href="#a" transform="translate(-282 -1466)"/></svg>