<?xml version="1.0" encoding="utf-8"?>
<svg xmlns="http://www.w3.org/2000/svg" xmlns:xlink="http://www.w3.org/1999/xlink">


  <symbol viewBox="0 0 12 9" id="check">
    <path d="M9.83316 0L11.5714 1.68999L4.24928 8.80874L0 4.67749L1.73827 2.9875L4.24928 5.42876L9.83316 0Z"/>
  </symbol>

  <symbol viewBox="0 0 10 19" id="fb">
    <path d="M6.4122 18.9944V10.3301H9.32344L9.76015 6.95331H6.4122V4.80092C6.4122 3.82366 6.68567 3.15431 8.08678 3.15431H9.87942V0.134111C9.57161 0.0944188 8.50843 0 7.27177 0C4.68882 0 2.92088 1.57685 2.92088 4.46354V6.95271H0V10.3301H2.92088V18.9938H6.4128L6.4122 18.9944Z"/>
  </symbol>

  <symbol viewBox="0 0 17 17" id="insta">
    <path clip-rule="evenodd" d="M13.5565 4.28256C13.5565 4.80577 13.1312 5.23036 12.6071 5.23036C12.0837 5.23036 11.659 4.80577 11.659 4.28256C11.659 3.75935 12.0837 3.33477 12.6071 3.33477C13.1312 3.33477 13.5565 3.75935 13.5565 4.28256ZM8.38574 11.1294C6.93042 11.1294 5.74978 9.95069 5.74978 8.49713C5.74978 7.04416 6.93042 5.86543 8.38574 5.86543C9.84166 5.86543 11.0223 7.04416 11.0223 8.49713C11.0223 9.95069 9.84166 11.1294 8.38574 11.1294ZM8.38574 4.44313C6.14312 4.44313 4.32518 6.25874 4.32518 8.49713C4.32518 10.7361 6.14312 12.5517 8.38574 12.5517C10.629 12.5511 12.4469 10.7367 12.4469 8.49713C12.4469 6.25874 10.629 4.44313 8.38574 4.44313ZM5.12512 0.649543C4.28362 0.688032 3.70896 0.82094 3.20538 1.01639C2.68554 1.21786 2.24461 1.48849 1.80488 1.9275C1.36515 2.36592 1.09469 2.80614 0.892894 3.32574C0.697125 3.82731 0.563399 4.40164 0.524848 5.24178C0.427264 7.40079 0.427264 9.59407 0.524848 11.7525C0.563399 12.5938 0.697125 13.1669 0.892894 13.6697C1.09469 14.1881 1.36515 14.6289 1.80488 15.0674C2.24461 15.5064 2.68554 15.777 3.20538 15.9791C3.70896 16.1733 4.28362 16.3074 5.12512 16.3459C7.28762 16.4421 9.48385 16.4433 11.647 16.3459C12.4885 16.3074 13.0631 16.1739 13.5661 15.9791C14.0859 15.777 14.5275 15.5064 14.9672 15.0674C15.4069 14.6289 15.6768 14.1887 15.8792 13.6697C16.0743 13.1669 16.2087 12.5938 16.2466 11.7525C16.3448 9.59407 16.3448 7.40079 16.2466 5.24178C16.2087 4.40164 16.0743 3.82731 15.8792 3.32574C15.6768 2.80614 15.4069 2.36592 14.9672 1.9275C14.5275 1.48849 14.0859 1.21786 13.5661 1.01639C13.0631 0.82094 12.4885 0.688032 11.647 0.649543C9.48506 0.549111 7.28642 0.549111 5.12512 0.649543ZM11.5819 2.07064C12.3523 2.10492 12.7716 2.23361 13.0499 2.34247C13.4197 2.485 13.683 2.65639 13.9594 2.93364C14.2359 3.20907 14.4076 3.47248 14.551 3.84054C14.6594 4.11898 14.7877 4.53695 14.8232 5.30673C14.9202 7.42123 14.9202 9.57242 14.8232 11.6875C14.7877 12.4579 14.6594 12.8759 14.551 13.1537C14.4076 13.5224 14.2359 13.7858 13.9594 14.0618C13.683 14.3379 13.4197 14.5099 13.0499 14.653C12.7716 14.7606 12.3523 14.8893 11.5819 14.9248C9.46277 15.0198 7.3087 15.0204 5.18958 14.9248C4.41915 14.8893 4.00051 14.7606 3.72161 14.653C3.35236 14.5099 3.08912 14.3379 2.81264 14.0618C2.53615 13.7852 2.36448 13.523 2.22051 13.1537C2.11208 12.8759 1.98378 12.4579 1.94824 11.6875C1.85246 9.57182 1.85246 7.42183 1.94824 5.30673C1.98378 4.53695 2.11208 4.11958 2.22051 3.84054C2.36448 3.47248 2.53615 3.20968 2.81264 2.93364C3.08912 2.65639 3.35236 2.485 3.72161 2.34247C4.00051 2.23361 4.41915 2.10492 5.18958 2.07064C7.3087 1.97441 9.46277 1.97501 11.5819 2.07064Z" />
  </symbol>

  <symbol viewBox="0 0 20 13" id="vk">
    <path d="M15.8127 6.38701C15.8127 6.38701 18.3083 2.87127 18.5564 1.71719C18.6426 1.30163 18.4595 1.07009 18.027 1.07009C18.027 1.07009 16.5903 1.07009 15.8608 1.07009C15.3645 1.07009 15.1856 1.28599 15.0344 1.59872C15.0344 1.59872 13.8628 4.09029 12.4364 5.66474C11.9828 6.17171 11.7509 6.32266 11.4967 6.32266C11.2913 6.32266 11.1997 6.15548 11.1997 5.69722V1.68472C11.1997 1.11881 11.1292 0.957031 10.6702 0.957031H7.197C6.93256 0.957031 6.7651 1.10798 6.7651 1.31787C6.7651 1.84649 7.57528 1.96497 7.57528 3.39929V6.35454C7.57528 6.95292 7.54276 7.17965 7.26205 7.17965C6.51632 7.17965 4.74476 4.62373 3.75628 1.71719C3.55629 1.11881 3.34004 0.957031 2.77864 0.957031H0.613127C0.299294 0.957031 0.0673828 1.17293 0.0673828 1.48566C0.0673828 2.06239 0.742034 4.73739 3.4051 8.3229C5.19292 10.7333 7.54276 12.0389 9.65947 12.0389C10.9503 12.0389 11.2636 11.823 11.2636 11.2781V9.42826C11.2636 8.96459 11.4473 8.76492 11.7117 8.76492C12.0087 8.76492 12.5328 8.86175 13.7592 10.0699C15.2175 11.461 15.3151 12.0383 16.1084 12.0383H18.539C18.7877 12.0383 19.0197 11.9192 19.0197 11.5097C19.0197 10.9648 18.3071 9.98876 17.2156 8.83468C16.7728 8.2363 16.044 7.59401 15.8114 7.29812C15.4826 6.95232 15.5795 6.75326 15.8114 6.38701H15.8127Z" />
  </symbol>

  <symbol viewBox="0 0 23 17" id="tube">
    <path d="M22.7765 4.02265C22.7765 4.02265 22.5572 2.48007 21.885 1.8011C21.0326 0.909233 20.0773 0.905023 19.6387 0.852702C16.5016 0.625977 11.7959 0.625977 11.7959 0.625977H11.7857C11.7857 0.625977 7.07999 0.625977 3.94226 0.852702C3.50434 0.905023 2.54899 0.909233 1.69604 1.8011C1.02379 2.48007 0.805738 4.02265 0.805738 4.02265C0.805738 4.02265 0.581055 5.83404 0.581055 7.64544V9.34318C0.581055 11.1546 0.805738 12.966 0.805738 12.966C0.805738 12.966 1.02379 14.5079 1.69604 15.1875C2.54899 16.0794 3.66939 16.0505 4.16815 16.1443C5.962 16.3157 11.7905 16.3693 11.7905 16.3693C11.7905 16.3693 16.5016 16.362 19.6387 16.1359C20.0773 16.0836 21.0326 16.0794 21.885 15.1875C22.5572 14.5079 22.7765 12.966 22.7765 12.966C22.7765 12.966 22.9999 11.1546 22.9999 9.34318V7.64544C22.9999 5.83404 22.7765 4.02265 22.7765 4.02265ZM9.47621 11.4005L9.47561 5.11237L15.533 8.26728L9.47621 11.4005Z" />
  </symbol>

  <symbol viewBox="0 0 8 12" id="arr-left">
    <path d="M1.44972 6.00201L6.99972 11.2696L6.31479 11.9961L0 6.00258L6.31451 -9.82285e-05L7 0.725823L1.44972 6.00201Z" />
  </symbol>

  <symbol viewBox="0 0 8 12" id="arr-right">
    <path d="M5.56888 5.99408L0.000359058 0.726462L0.687566 0L7.02344 5.99351L0.687851 11.9962L7.39098e-05 11.2703L5.56888 5.99408Z" />
  </symbol>


  <symbol viewBox="0 0 19 19" id="question">
    <g>
      <path d="M8.04346 1.62531C9.46846 1.1414 11.0263 1.05939 12.4958 1.38224C14.6389 1.8424 16.563 3.20543 17.7249 5.06164C18.5313 6.33226 18.9692 7.82629 19 9.32959V9.63314C18.9703 11.0006 18.6089 12.3618 17.9324 13.5523C17.2648 14.739 16.2988 15.7558 15.1488 16.485C13.8874 17.2892 12.4042 17.7382 10.9087 17.7705C7.54508 17.7824 4.18111 17.7716 0.817148 17.7764C0.659434 17.7783 0.496523 17.7549 0.361074 17.6692C0.156973 17.5489 0.0263477 17.327 0 17.0936V16.9522C0.0415625 16.7455 0.143613 16.5589 0.229707 16.3685C0.460898 15.8905 0.718066 15.4259 0.957793 14.9524C1.35338 14.1865 1.7074 13.396 1.95641 12.57C2.20355 11.7536 2.34939 10.9071 2.39021 10.0554C2.41211 9.63463 2.39949 9.21269 2.43623 8.79298C2.55498 7.31974 3.07674 5.87953 3.93842 4.67793C4.94186 3.26443 6.39728 2.17341 8.04346 1.62531ZM9.45807 2.78795C8.0635 3.04177 6.7591 3.75316 5.78164 4.77886C4.77561 5.82498 4.1158 7.20025 3.94398 8.64232C3.87533 9.12289 3.9002 9.60902 3.8757 10.0926C3.81373 11.5198 3.48383 12.9307 2.9257 14.2447C2.63514 14.9453 2.28557 15.6193 1.93451 16.2906C4.74072 16.2906 7.54693 16.2902 10.3531 16.2909C10.6266 16.2909 10.9009 16.2935 11.174 16.2731C12.088 16.2134 12.9875 15.9603 13.8025 15.5424C15.0133 14.9253 16.029 13.9352 16.6803 12.7429C17.4229 11.3951 17.6845 9.79086 17.4065 8.27679C17.2091 7.15052 16.7115 6.0814 15.9915 5.19449C15.2416 4.27084 14.2474 3.54572 13.1356 3.12082C11.9711 2.67365 10.6838 2.55861 9.45807 2.78795Z" />
      <path d="M7.51187 11.7491C7.77758 11.6682 8.07853 11.7554 8.26779 11.9561C8.77916 12.4642 9.45492 12.8 10.1671 12.9102C11.2254 13.0824 12.3539 12.7277 13.1187 11.9743C13.2831 11.7969 13.528 11.6923 13.7711 11.7238C14.0565 11.7543 14.3103 11.968 14.3916 12.2426C14.471 12.4902 14.4057 12.7774 14.2261 12.9659C13.4048 13.8061 12.2719 14.3289 11.1011 14.4198C9.65086 14.5419 8.15535 13.9901 7.1508 12.9336C6.98529 12.7373 6.93519 12.4516 7.02351 12.2107C7.1007 11.9907 7.28847 11.8144 7.51187 11.7491Z" />
    </g>
  </symbol>


  <symbol viewBox="0 0 25 25" id="search">
    <g>
      <circle r="5.82816" transform="matrix(0.707107 0.707107 0.707107 -0.707107 9.51506 9.51514)" stroke="#4AD4B9" stroke-width="1.8" fill="none" stroke-linecap="round"/>
      <path d="M13.8396 14.248L19.4869 19.8953" stroke="#4AD4B9" stroke-width="1.8" stroke-linecap="round"/>
    </g>
  </symbol>


  <symbol viewBox="0 0 18 11" id="menu">
    <g>
      <path d="M0 0.701388C0 0.314022 0.314022 0 0.701388 0H16.78C17.1674 0 17.4814 0.314022 17.4814 0.701388C17.4814 1.08875 17.1674 1.40278 16.78 1.40278H0.701386C0.31402 1.40278 0 1.08875 0 0.701388Z" />
      <path d="M0 5.48361C0 5.09625 0.314022 4.78223 0.701388 4.78223H16.78C17.1674 4.78223 17.4814 5.09625 17.4814 5.48361C17.4814 5.87098 17.1674 6.185 16.78 6.185H0.701386C0.31402 6.185 0 5.87098 0 5.48361Z" />
      <path d="M0.701388 9.19141C0.314022 9.19141 0 9.50543 0 9.89279C0 10.2802 0.314023 10.5942 0.701389 10.5942H10.6615C11.0489 10.5942 11.3629 10.2802 11.3629 9.89279C11.3629 9.50543 11.0489 9.19141 10.6615 9.19141H0.701388Z" />
    </g>
  </symbol>


  <symbol viewBox="0 0 12 12" id="close">
    <path fill-rule="evenodd" clip-rule="evenodd" d="M10.4161 0L12 1.58393L7.58393 6L12 10.4161L10.4161 12L6 7.58393L1.58393 12L0 10.4161L4.41607 6L0 1.58393L1.58393 0L6 4.41607L10.4161 0Z"/>
  </symbol>


  <symbol viewBox="0 0 20 22" id="play">
    <path d="M18.5 13.5981C20.5 12.4434 20.5 9.55662 18.5 8.40192L5 0.607693C3 -0.547007 0.5 0.89637 0.5 3.20577V18.7942C0.5 21.1036 3 22.547 5 21.3923L18.5 13.5981Z"/>
  </symbol>

  <symbol viewBox="0 0 15 13" id="qw">
    <path d="M0 0H6L5 13H0V0Z" />
    <path d="M9 0H15L14 13H9V0Z" />
  </symbol>


  <symbol viewBox="0 0 30 30" id="r-fb">
    <g>
      <path d="M30 15C30 23.2843 23.2843 30 15 30C6.71573 30 0 23.2843 0 15C0 6.71573 6.71573 0 15 0C23.2843 0 30 6.71573 30 15Z" />
      <path d="M16.4122 24.9944V16.3301H19.3234L19.7602 12.9533H16.4122V10.8009C16.4122 9.82366 16.6857 9.15431 18.0868 9.15431H19.8794V6.13411C19.5716 6.09442 18.5084 6 17.2718 6C14.6888 6 12.9209 7.57685 12.9209 10.4635V12.9527H10V16.3301H12.9209V24.9938H16.4128L16.4122 24.9944Z" fill="white"/>
    </g>
  </symbol>

  <symbol viewBox="0 0 30 30" id="r-vk">
    <g>
      <path d="M30 15C30 23.2843 23.2843 30 15 30C6.71573 30 0 23.2843 0 15C0 6.71573 6.71573 0 15 0C23.2843 0 30 6.71573 30 15Z"/>
      <path d="M20.8117 15.387C20.8117 15.387 23.3073 11.8713 23.5555 10.7172C23.6416 10.3016 23.4585 10.0701 23.026 10.0701C23.026 10.0701 21.5893 10.0701 20.8599 10.0701C20.3635 10.0701 20.1846 10.286 20.0334 10.5987C20.0334 10.5987 18.8618 13.0903 17.4354 14.6647C16.9818 15.1717 16.7499 15.3227 16.4957 15.3227C16.2903 15.3227 16.1987 15.1555 16.1987 14.6972V10.6847C16.1987 10.1188 16.1283 9.95703 15.6693 9.95703H12.196C11.9316 9.95703 11.7641 10.108 11.7641 10.3179C11.7641 10.8465 12.5743 10.965 12.5743 12.3993V15.3545C12.5743 15.9529 12.5418 16.1796 12.2611 16.1796C11.5153 16.1796 9.74379 13.6237 8.7553 10.7172C8.55532 10.1188 8.33907 9.95703 7.77766 9.95703H5.61215C5.29832 9.95703 5.06641 10.1729 5.06641 10.4857C5.06641 11.0624 5.74106 13.7374 8.40412 17.3229C10.1919 19.7333 12.5418 21.0389 14.6585 21.0389C15.9494 21.0389 16.2626 20.823 16.2626 20.2781V18.4283C16.2626 17.9646 16.4463 17.7649 16.7108 17.7649C17.0077 17.7649 17.5318 17.8617 18.7582 19.0699C20.2165 20.461 20.3141 21.0383 21.1074 21.0383H23.538C23.7868 21.0383 24.0187 20.9192 24.0187 20.5097C24.0187 19.9648 23.3061 18.9888 22.2146 17.8347C21.7718 17.2363 21.043 16.594 20.8105 16.2981C20.4816 15.9523 20.5786 15.7533 20.8105 15.387H20.8117Z" fill="white"/>
    </g>
  </symbol>

  <symbol viewBox="0 0 30 30" id="r-insta">
    <g>
      <path d="M30 15C30 23.2843 23.2843 30 15 30C6.71573 30 0 23.2843 0 15C0 6.71573 6.71573 0 15 0C23.2843 0 30 6.71573 30 15Z"/>
      <path fill-rule="evenodd" clip-rule="evenodd" d="M20.556 11.2826C20.556 11.8058 20.1307 12.2304 19.6066 12.2304C19.0832 12.2304 18.6585 11.8058 18.6585 11.2826C18.6585 10.7593 19.0832 10.3348 19.6066 10.3348C20.1307 10.3348 20.556 10.7593 20.556 11.2826ZM15.3852 18.1294C13.9299 18.1294 12.7493 16.9507 12.7493 15.4971C12.7493 14.0442 13.9299 12.8654 15.3852 12.8654C16.8412 12.8654 18.0218 14.0442 18.0218 15.4971C18.0218 16.9507 16.8412 18.1294 15.3852 18.1294ZM15.3852 11.4431C13.1426 11.4431 11.3247 13.2587 11.3247 15.4971C11.3247 17.7361 13.1426 19.5517 15.3852 19.5517C17.6285 19.5511 19.4464 17.7367 19.4464 15.4971C19.4464 13.2587 17.6285 11.4431 15.3852 11.4431ZM12.1246 7.64954C11.2831 7.68803 10.7085 7.82094 10.2049 8.01639C9.68505 8.21786 9.24412 8.48849 8.80439 8.9275C8.36466 9.36592 8.0942 9.80614 7.89241 10.3257C7.69664 10.8273 7.56291 11.4016 7.52436 12.2418C7.42678 14.4008 7.42678 16.5941 7.52436 18.7525C7.56291 19.5938 7.69664 20.1669 7.89241 20.6697C8.0942 21.1881 8.36466 21.6289 8.80439 22.0674C9.24412 22.5064 9.68505 22.777 10.2049 22.9791C10.7085 23.1733 11.2831 23.3074 12.1246 23.3459C14.2871 23.4421 16.4834 23.4433 18.6465 23.3459C19.488 23.3074 20.0626 23.1739 20.5656 22.9791C21.0854 22.777 21.527 22.5064 21.9667 22.0674C22.4064 21.6289 22.6763 21.1887 22.8787 20.6697C23.0739 20.1669 23.2082 19.5938 23.2461 18.7525C23.3443 16.5941 23.3443 14.4008 23.2461 12.2418C23.2082 11.4016 23.0739 10.8273 22.8787 10.3257C22.6763 9.80614 22.4064 9.36592 21.9667 8.9275C21.527 8.48849 21.0854 8.21786 20.5656 8.01639C20.0626 7.82094 19.488 7.68803 18.6465 7.64954C16.4846 7.54911 14.2859 7.54911 12.1246 7.64954ZM18.5814 9.07064C19.3518 9.10492 19.7711 9.23361 20.0494 9.34247C20.4192 9.485 20.6825 9.65639 20.959 9.93364C21.2354 10.2091 21.4071 10.4725 21.5505 10.8405C21.6589 11.119 21.7872 11.537 21.8227 12.3067C21.9197 14.4212 21.9197 16.5724 21.8227 18.6875C21.7872 19.4579 21.6589 19.8759 21.5505 20.1537C21.4071 20.5224 21.2354 20.7858 20.959 21.0618C20.6825 21.3379 20.4192 21.5099 20.0494 21.653C19.7711 21.7606 19.3518 21.8893 18.5814 21.9248C16.4623 22.0198 14.3082 22.0204 12.1891 21.9248C11.4187 21.8893 11 21.7606 10.7211 21.653C10.3519 21.5099 10.0886 21.3379 9.81215 21.0618C9.53566 20.7852 9.36399 20.523 9.22002 20.1537C9.1116 19.8759 8.98329 19.4579 8.94775 18.6875C8.85198 16.5718 8.85198 14.4218 8.94775 12.3067C8.98329 11.537 9.1116 11.1196 9.22002 10.8405C9.36399 10.4725 9.53566 10.2097 9.81215 9.93364C10.0886 9.65639 10.3519 9.485 10.7211 9.34247C11 9.23361 11.4187 9.10492 12.1891 9.07064C14.3082 8.97441 16.4623 8.97501 18.5814 9.07064Z" fill="white"/>
    </g>
  </symbol>

  <symbol viewBox="0 0 30 30" id="r-tube">
    <g>
      <path d="M30 15C30 23.2843 23.2843 30 15 30C6.71573 30 0 23.2843 0 15C0 6.71573 6.71573 0 15 0C23.2843 0 30 6.71573 30 15Z"/>
      <path d="M22.8405 12.3733C22.8405 12.3733 22.684 11.2955 22.2043 10.8211C21.5959 10.1979 20.9141 10.195 20.6012 10.1584C18.3622 10 15.0039 10 15.0039 10H14.9966C14.9966 10 11.6382 10 9.39884 10.1584C9.0863 10.195 8.40448 10.1979 7.79574 10.8211C7.31598 11.2955 7.16035 12.3733 7.16035 12.3733C7.16035 12.3733 7 13.6389 7 14.9046V16.0908C7 17.3564 7.16035 18.6221 7.16035 18.6221C7.16035 18.6221 7.31598 19.6995 7.79574 20.1743C8.40448 20.7975 9.20409 20.7773 9.56005 20.8428C10.8403 20.9626 15 21 15 21C15 21 18.3622 20.995 20.6012 20.837C20.9141 20.8004 21.5959 20.7975 22.2043 20.1743C22.684 19.6995 22.8405 18.6221 22.8405 18.6221C22.8405 18.6221 23 17.3564 23 16.0908V14.9046C23 13.6389 22.8405 12.3733 22.8405 12.3733ZM13.3483 17.5283L13.3479 13.1347L17.671 15.3391L13.3483 17.5283Z" fill="white"/>
    </g>
  </symbol>

  <symbol viewBox="0 0 27 27" id="r-phone">
    <g>
      <path fill-rule="evenodd" clip-rule="evenodd" d="M0.978895 26.4248C1.52716 24.7889 2.08442 23.1531 2.63269 21.5083C0.987883 19.2344 -0.0816903 15.8908 0.0081898 13.0776C0.241878 5.78828 6.20093 0 13.4992 0C20.9593 0 26.9992 6.04893 26.9992 13.5C26.9992 20.9601 20.9503 27 13.4992 27C11.1084 27 8.07943 26.1282 6.05712 24.771C4.36738 25.3192 2.66864 25.8765 0.978895 26.4248Z"/>
      <path fill-rule="evenodd" clip-rule="evenodd" d="M7.37882 6.50714C7.37882 6.50714 7.81025 6.22852 8.03495 6.22852C8.26863 6.22852 9.30226 6.22852 9.30226 6.22852C9.30226 6.22852 9.6438 6.29143 9.7966 6.64196C9.95838 6.9925 11.028 9.50015 11.0999 9.69789C11.1808 9.88664 11.3875 10.372 11.0549 10.7944C10.7224 11.2259 10.0303 12.0258 10.0303 12.0258C10.0303 12.0258 9.75166 12.2775 9.99433 12.6729C10.228 13.0684 11.0729 14.3627 12.1694 15.3514C13.266 16.331 14.6052 17.0591 15.2793 17.2748C15.9534 17.4995 16.0972 17.2029 16.3489 16.8703C16.6095 16.5468 17.4094 15.5311 17.4094 15.5311C17.4094 15.5311 17.6791 15.1267 18.2274 15.3783C18.7666 15.621 21.4001 16.8973 21.4001 16.8973C21.4001 16.8973 21.7237 16.9512 21.7417 17.3107C21.7596 17.6703 21.9754 18.7398 21.0226 19.7735C20.0699 20.8071 18.0386 21.2834 17.0769 21.0138C16.1152 20.7442 12.9424 19.9083 10.8662 17.9759C8.78994 16.0434 7.11817 14.0121 6.42609 12.5111C5.743 11.0101 5.77895 10.1203 5.81491 9.69789C5.85985 9.28444 6.07556 7.33404 7.37882 6.50714Z" fill="#FEFEFE"/>
    </g>
  </symbol>

  <symbol viewBox="0 0 26 26" id="r-tel">
    <g>
      <path d="M26 13C26 20.1759 20.1759 26 13 26C5.82415 26 0 20.1759 0 13C0 5.82415 5.82415 0 13 0C20.1759 0 26 5.82415 26 13Z" />
      <path d="M19.3228 7.47517L17.0004 19.187C17.0004 19.187 16.6829 19.9944 15.7847 19.6043L10.4233 15.4947L8.48188 14.5603L5.19786 13.4535C5.19786 13.4535 4.69891 13.2721 4.64447 12.882C4.59911 12.4919 5.216 12.2833 5.216 12.2833L18.2523 7.16673C18.2523 7.16673 19.3228 6.69499 19.3228 7.47517Z" fill="#FEFEFE"/>
      <path d="M10.0148 19.0509C10.0148 19.0509 9.86061 19.0418 9.66103 18.4249C9.47052 17.808 8.48169 14.5603 8.48169 14.5603L16.3561 9.5526C16.3561 9.5526 16.8097 9.28044 16.7915 9.5526C16.7915 9.5526 16.8732 9.60703 16.6282 9.83383C16.3833 10.0606 10.4412 15.404 10.4412 15.404L10.0148 19.0509Z" fill="#D3E6F1"/>
      <path d="M12.4824 17.073L10.3596 19.0053C10.3596 19.0053 10.1963 19.1323 10.0149 19.0507L10.4231 15.4673L12.4824 17.073Z" fill="#B6D1E6"/>
    </g>
  </symbol>

  <symbol viewBox="0 0 25 27" id="r-sk">
    <g>
      <path d="M2.80762 1.82842C5.03466 0.0992811 8.26689 0.00123709 10.6152 1.53429C12.617 1.19559 14.6967 1.35603 16.6118 2.06016C19.0641 2.94256 21.2045 4.68061 22.617 6.9178C24.3674 9.6363 24.9567 13.0767 24.2894 16.2587C25.208 18.175 25.2426 20.5281 24.3414 22.4622C23.6568 23.9686 22.435 25.2164 20.9619 25.9027C19.0208 26.8386 16.6724 26.7316 14.7834 25.7066C12.4263 26.1523 9.93934 25.8581 7.75563 24.842C4.86135 23.5318 2.53032 20.9738 1.43847 17.9166C0.658574 15.7863 0.519926 13.4422 0.918539 11.2139C0.389943 10.1354 -0.0173361 8.9589 0.00866043 7.73781C-0.0866602 5.44714 1.01386 3.1743 2.80762 1.82842Z" />
      <path d="M11.6203 5.02814C13.466 4.92119 15.4418 5.08162 17.0189 6.16902C18.0241 6.8375 18.8906 7.95164 18.8386 9.24404C18.804 10.2601 17.7641 11.0534 16.8023 10.8395C16.109 10.7949 15.7017 10.1443 15.3811 9.58274C14.9738 8.82512 14.4106 8.03186 13.5354 7.85359C12.7295 7.68425 11.8802 7.66642 11.0917 7.88033C10.5024 8.04968 9.89584 8.37947 9.62721 8.96773C9.41924 9.41339 9.57522 9.97491 9.93917 10.2869C10.6064 10.8662 11.4903 11.0623 12.3135 11.2673C13.986 11.6862 15.7104 11.9982 17.2529 12.8182C18.1887 13.3084 19.0033 14.1106 19.3499 15.1445C19.8178 16.6152 19.6185 18.3265 18.7087 19.5743C17.7035 20.9737 16.0397 21.6867 14.4192 21.9363C12.7468 22.1769 11.0137 22.1324 9.40191 21.6154C7.79012 21.1163 6.36898 19.8774 5.77972 18.2374C5.56308 17.5778 5.44177 16.7667 5.90104 16.1784C6.35165 15.5278 7.25286 15.3228 7.96343 15.5902C8.50069 15.7952 8.84731 16.3121 9.07262 16.8291C9.39324 17.5332 9.73119 18.3087 10.4071 18.7276C11.109 19.2178 11.9842 19.2891 12.8075 19.2624C13.752 19.2178 14.7572 18.9237 15.3898 18.175C15.849 17.6402 15.901 16.8023 15.5284 16.2141C15.0432 15.5545 14.2373 15.2693 13.4834 15.0732C11.7069 14.6097 9.85251 14.3334 8.1974 13.4599C7.27885 12.943 6.44697 12.1408 6.11768 11.098C5.67574 9.69861 5.9357 8.04968 6.93223 6.96228C8.11074 5.63423 9.92184 5.15293 11.6203 5.02814Z" fill="white"/>
    </g>
  </symbol>

  <symbol viewBox="0 0 28 30" id="r-vb">
    <g>
      <path d="M8.88894 0.377419C11.5892 -0.107756 14.3537 -0.0538479 17.0814 0.143816C19.6071 0.368434 23.8595 1.19503 25.5035 3.30644C26.7526 4.84283 27.2853 6.79251 27.5792 8.68829C28.0751 12.1744 28.0108 18.266 25.6688 21.1591C22.9962 24.5913 15.8232 24.8249 11.8188 24.6721C10.1288 26.4511 8.46646 28.2391 6.75817 30.0001C6.7398 27.9515 6.75817 25.912 6.7398 23.8635C5.40806 23.4412 4.09469 22.8662 3.0936 21.8869C0.33828 19.3711 -0.0107264 14.7799 0.237252 11.2849C0.255621 9.48793 0.457677 7.66403 1.08222 5.96592C2.41395 2.31812 5.17845 1.06924 8.88894 0.377419Z"/>
      <path d="M13.4996 4.44747C16.7233 4.15097 20.0205 6.11862 21.2512 9.04764C21.7563 10.2606 21.9859 11.5903 21.9308 12.8931C21.7931 13.3334 21.0308 13.2435 21.0491 12.7763C21.0032 11.3657 20.7644 9.91018 20.0205 8.67029C18.8449 6.65771 16.5488 5.37289 14.1976 5.31C13.9129 5.27406 13.5455 5.36391 13.3618 5.08538C13.1781 4.88772 13.2883 4.57325 13.4996 4.44747ZM14.7762 8.52653C15.3456 8.38277 15.9702 8.55348 16.4937 8.80506C17.2835 9.20937 17.7427 10.0539 17.8254 10.9075C17.8346 11.1411 17.9173 11.4556 17.6968 11.6263C17.4488 11.8509 16.9713 11.6981 16.9437 11.3567C16.907 10.8266 16.8059 10.2516 16.4018 9.86525C16.0345 9.46993 15.465 9.39805 14.9599 9.33516C14.5558 9.31719 14.4547 8.71521 14.7762 8.52653ZM14.2435 6.41512C15.0701 6.34324 15.9151 6.58583 16.6774 6.87334C18.4499 7.57415 19.7174 9.3082 19.846 11.168C19.8643 11.5184 19.9837 11.8958 19.7909 12.2103C19.6715 12.4169 19.3776 12.4079 19.1755 12.3361C18.8908 12.1743 18.9551 11.806 18.9367 11.5274C18.9275 10.3864 18.4224 9.26328 17.5591 8.49059C16.7049 7.69095 15.5201 7.35852 14.3721 7.27765C13.922 7.2507 13.8394 6.57685 14.2435 6.41512ZM7.77769 4.60919C8.31957 4.5463 8.81553 4.85178 9.16453 5.23812C9.80744 5.93893 10.4044 6.67568 10.9371 7.46633C11.2494 7.95151 11.5708 8.48161 11.58 9.0746C11.4055 10.0899 9.91765 10.2246 9.86255 11.2848C9.97276 12.4259 10.6248 13.4412 11.3963 14.2768C12.278 15.2022 13.3342 16.0198 14.565 16.4421C14.9231 16.5679 15.3456 16.6308 15.6946 16.46C16.1814 16.1096 16.4202 15.5077 16.9162 15.1662C17.3386 14.9147 17.8989 14.8877 18.3397 15.1123C19.3408 15.6155 20.2593 16.2624 21.1226 16.9632C21.49 17.2777 21.9951 17.5562 22.0961 18.0773C22.2247 18.6703 21.8574 19.2094 21.5175 19.6676C20.9389 20.4043 20.2317 21.177 19.249 21.3567C18.4959 21.5005 17.8162 21.0872 17.1458 20.8266C13.6006 19.3172 10.4871 16.8823 8.17262 13.8545C6.82251 12.1114 5.72957 10.1618 5.02237 8.08628C4.86624 7.57415 4.80195 6.9542 5.14177 6.49598C5.56425 5.92096 6.16124 5.49868 6.74904 5.09437C7.06131 4.88772 7.38276 4.65411 7.77769 4.60919Z" fill="white"/>
    </g>
  </symbol>

  <symbol viewBox="0 0 35 11" id="visa">
    <path d="M17.3292 0.194946L14.9909 10.8327H12.1633L14.5017 0.194946H17.3292ZM29.2285 7.06364L30.7173 3.06827L31.5733 7.06364H29.2285H29.2285ZM32.3846 10.8327H35L32.7157 0.194943H30.3031C29.7588 0.194943 29.301 0.501298 29.0976 0.975168L24.8546 10.8327H27.8252L28.4136 9.24404H32.0423L32.3846 10.8327ZM25.0016 7.35996C25.0144 4.55255 21.0136 4.39603 21.0401 3.14211C21.0483 2.76095 21.4221 2.35482 22.2392 2.25104C22.6437 2.19996 23.762 2.15908 25.028 2.72714L25.5247 0.470735C24.8432 0.230919 23.968 0 22.8787 0C20.0827 0 18.1165 1.44567 18.1004 3.51682C18.0818 5.04836 19.5053 5.90163 20.575 6.41228C21.678 6.9333 22.0478 7.26799 22.0422 7.73297C22.0341 8.44728 21.1621 8.76304 20.3507 8.7757C18.928 8.79685 18.1035 8.40087 17.4464 8.10238L16.9328 10.4351C17.595 10.7299 18.8149 10.986 20.0769 11C23.0499 11 24.9933 9.57166 25.0016 7.35996L25.0016 7.35996ZM13.2888 0.194946L8.70594 10.8327H5.71681L3.46168 2.34216C3.32504 1.82062 3.20551 1.62888 2.78985 1.40805C2.10982 1.04907 0.986764 0.712665 0 0.503639L0.0672068 0.194946H4.87946C5.49234 0.194946 6.04382 0.59156 6.18415 1.27833L7.37599 7.4354L10.3174 0.194946H13.2888H13.2888Z" fill="#2A2A6C"/>
  </symbol>

  <symbol viewBox="0 0 29 22" id="master">
    <g>
      <path d="M28.4253 21.7019V21.759H28.4791C28.4916 21.759 28.5015 21.7566 28.5087 21.752C28.5162 21.7473 28.5196 21.74 28.5196 21.7301C28.5196 21.7206 28.5162 21.7136 28.5087 21.7089C28.5015 21.7044 28.4916 21.7019 28.4791 21.7019H28.4253ZM28.4798 21.6619C28.5079 21.6619 28.5296 21.668 28.5451 21.6801C28.5602 21.6924 28.568 21.709 28.568 21.7301C28.568 21.7478 28.5617 21.7626 28.5496 21.7741C28.5374 21.7855 28.5202 21.7925 28.4978 21.7951L28.5697 21.876H28.5135L28.4468 21.7956H28.4254V21.876H28.3783V21.6619H28.4799H28.4798ZM28.4659 21.9495C28.4913 21.9495 28.5152 21.9447 28.5371 21.9355C28.5592 21.926 28.5784 21.9131 28.5951 21.8969C28.6118 21.8808 28.6247 21.8617 28.6342 21.8398C28.6436 21.818 28.6484 21.7946 28.6484 21.7696C28.6484 21.7448 28.6436 21.7217 28.6342 21.6997C28.6247 21.6779 28.6118 21.6588 28.5951 21.6425C28.5784 21.6264 28.5592 21.6135 28.5371 21.6043C28.5152 21.5951 28.4913 21.5905 28.4659 21.5905C28.44 21.5905 28.4156 21.5951 28.3932 21.6043C28.3705 21.6135 28.3508 21.6264 28.3342 21.6425C28.3177 21.6588 28.3045 21.6779 28.2951 21.6997C28.2856 21.7217 28.2809 21.7449 28.2809 21.7696C28.2809 21.7946 28.2856 21.818 28.2951 21.8398C28.3045 21.8617 28.3177 21.8809 28.3342 21.8969C28.3508 21.9131 28.3705 21.926 28.3932 21.9355C28.4156 21.9447 28.4399 21.9495 28.4659 21.9495ZM28.4659 21.5389C28.499 21.5389 28.5304 21.545 28.5595 21.5572C28.5886 21.5691 28.6143 21.5856 28.6359 21.6068C28.6578 21.6277 28.675 21.6521 28.6877 21.6801C28.7001 21.7083 28.7064 21.7381 28.7064 21.7697C28.7064 21.8015 28.7002 21.8311 28.6877 21.859C28.675 21.8869 28.6578 21.9114 28.6359 21.9324C28.6143 21.9533 28.5886 21.9697 28.5595 21.982C28.5304 21.9942 28.499 22.0003 28.4659 22.0003C28.4318 22.0003 28.4002 21.9942 28.3705 21.982C28.3409 21.9697 28.3153 21.9533 28.2936 21.9324C28.2719 21.9114 28.255 21.8869 28.2423 21.859C28.2299 21.8311 28.2237 21.8015 28.2237 21.7697C28.2237 21.7381 28.2299 21.7083 28.2423 21.6801C28.255 21.6521 28.2719 21.6277 28.2936 21.6068C28.3153 21.5856 28.3409 21.5691 28.3705 21.5572C28.4002 21.545 28.4318 21.5389 28.4659 21.5389ZM6.26581 20.715C6.26581 20.3072 6.53969 19.9722 6.98766 19.9722C7.41588 19.9722 7.70458 20.2926 7.70458 20.715C7.70458 21.1375 7.41588 21.4579 6.98766 21.4579C6.53969 21.4579 6.26581 21.1229 6.26581 20.715ZM8.19246 20.715V19.5547H7.67469V19.8363C7.51034 19.6276 7.26151 19.4964 6.92299 19.4964C6.25589 19.4964 5.73322 20.0062 5.73322 20.715C5.73322 21.424 6.25593 21.9338 6.92299 21.9338C7.26151 21.9338 7.51034 21.8027 7.67469 21.5939V21.8756H8.19246V20.715ZM25.6762 20.715C25.6762 20.3072 25.95 19.9722 26.3982 19.9722C26.8261 19.9722 27.1148 20.2926 27.1148 20.715C27.1148 21.1375 26.8261 21.4579 26.3982 21.4579C25.95 21.4579 25.6762 21.1229 25.6762 20.715ZM27.6027 20.715V18.6226H27.085V19.8363C26.9206 19.6275 26.6717 19.4964 26.3333 19.4964C25.6662 19.4964 25.1434 20.0062 25.1434 20.715C25.1434 21.4239 25.6662 21.9337 26.3333 21.9337C26.6717 21.9337 26.9206 21.8027 27.085 21.5938V21.8755H27.6027V20.715V20.715ZM14.6144 19.948C14.948 19.948 15.162 20.1519 15.2168 20.5111H13.9822C14.037 20.1762 14.2461 19.948 14.6144 19.948H14.6144ZM14.6244 19.4964C13.9274 19.4964 13.4396 19.9917 13.4396 20.715C13.4396 21.453 13.9474 21.9337 14.6592 21.9337C15.0177 21.9337 15.3462 21.8461 15.635 21.6084L15.3811 21.2345C15.1819 21.3899 14.928 21.4773 14.6891 21.4773C14.3556 21.4773 14.0519 21.3268 13.9772 20.9092H15.7444C15.7495 20.846 15.7544 20.783 15.7544 20.715C15.7495 19.9917 15.2914 19.4964 14.6244 19.4964ZM20.8721 20.715C20.8721 20.3072 21.1458 19.9722 21.5939 19.9722C22.0221 19.9722 22.3109 20.2926 22.3109 20.715C22.3109 21.1374 22.0221 21.4579 21.5939 21.4579C21.1458 21.4579 20.8721 21.1229 20.8721 20.715ZM22.7988 20.715V19.5547H22.281V19.8363C22.1167 19.6275 21.8677 19.4964 21.5291 19.4964C20.8621 19.4964 20.3394 20.0062 20.3394 20.715C20.3394 21.4239 20.8621 21.9337 21.5291 21.9337C21.8677 21.9337 22.1167 21.8027 22.281 21.5938V21.8755H22.7988V20.715ZM17.9498 20.715C17.9498 21.4191 18.4526 21.9337 19.2193 21.9337C19.5778 21.9337 19.8166 21.8561 20.0756 21.657L19.8267 21.2491C19.6325 21.385 19.4284 21.4579 19.2044 21.4579C18.7911 21.453 18.4875 21.1616 18.4875 20.715C18.4875 20.2684 18.7911 19.977 19.2044 19.9722C19.4284 19.9722 19.6325 20.045 19.8267 20.1809L20.0756 19.7732C19.8166 19.5741 19.5778 19.4964 19.2193 19.4964C18.4526 19.4964 17.9498 20.011 17.9498 20.715V20.715ZM24.6209 19.4964C24.3221 19.4964 24.1279 19.6325 23.9935 19.8363V19.5547H23.4806V21.8755H23.9984V20.5743C23.9984 20.1907 24.1677 19.977 24.5063 19.977C24.6109 19.977 24.7204 19.9917 24.83 20.0353L24.9893 19.5595C24.8746 19.5159 24.7252 19.4964 24.6209 19.4964V19.4964ZM10.7512 19.7391C10.5023 19.579 10.1588 19.4964 9.78058 19.4964C9.17814 19.4964 8.78979 19.778 8.78979 20.2392C8.78979 20.6179 9.0785 20.851 9.61129 20.9238L9.85518 20.9578C10.1389 20.9966 10.2734 21.0695 10.2734 21.2006C10.2734 21.3802 10.0842 21.4822 9.73076 21.4822C9.37234 21.4822 9.11342 21.3705 8.93919 21.2394L8.6953 21.6328C8.97892 21.8364 9.33748 21.9338 9.72572 21.9338C10.4127 21.9338 10.8109 21.6182 10.8109 21.1763C10.8109 20.7684 10.4973 20.5548 9.97959 20.482L9.73564 20.448C9.51158 20.4188 9.3324 20.3753 9.3324 20.2199C9.3324 20.0499 9.50163 19.948 9.78546 19.948C10.0891 19.948 10.3828 20.0597 10.5273 20.147L10.7512 19.7391H10.7512ZM17.4271 19.4964C17.1285 19.4964 16.9343 19.6325 16.7998 19.8363V19.5547H16.2871V21.8755H16.8049V20.5743C16.8049 20.1907 16.974 19.977 17.3127 19.977C17.4172 19.977 17.5267 19.9917 17.6362 20.0353L17.7955 19.5595C17.681 19.5159 17.5316 19.4964 17.4271 19.4964V19.4964ZM13.0115 19.5547H12.1651V18.8507H11.6424V19.5547H11.1594V20.016H11.6424V21.0743C11.6424 21.6133 11.8565 21.9337 12.4688 21.9337C12.6928 21.9337 12.9516 21.8656 13.116 21.7541L12.9666 21.322C12.8122 21.4093 12.643 21.453 12.5086 21.453C12.2497 21.453 12.1651 21.2977 12.1651 21.0645V20.016H13.0115V19.5547ZM5.27516 21.8755V20.4188C5.27516 19.8703 4.91673 19.5013 4.33926 19.4964C4.03554 19.4916 3.72192 19.5838 3.50288 19.9091C3.33859 19.6518 3.07974 19.4964 2.71631 19.4964C2.4624 19.4964 2.21344 19.5693 2.01937 19.8412V19.5547H1.50146V21.8755H2.02431V20.5888C2.02431 20.1858 2.25331 19.9722 2.60672 19.9722C2.95025 19.9722 3.12455 20.1907 3.12455 20.5839V21.8755H3.64726V20.5888C3.64726 20.1858 3.88621 19.9722 4.22974 19.9722C4.58315 19.9722 4.75238 20.1907 4.75238 20.5839V21.8755H5.27516Z" fill="black"/>
      <path d="M10.5791 15.6115H18.4209V1.86865H10.5791V15.6115Z" fill="#FF5F00"/>
      <path d="M11.077 8.74012C11.077 5.95203 12.4157 3.46899 14.5 1.86865C12.9757 0.698227 11.0521 0 8.96154 0C4.01223 0 0 3.91316 0 8.74012C0 13.5671 4.01223 17.4802 8.96154 17.4802C11.0521 17.4802 12.9757 16.7819 14.5 15.6115C12.4157 14.0112 11.077 11.5282 11.077 8.74012Z" fill="#EB001B"/>
      <path d="M28.7202 14.156V13.8168H28.6296L28.525 14.0501L28.4204 13.8168H28.3296V14.156H28.3938V13.9002L28.4916 14.1207H28.5581L28.6562 13.8996V14.156H28.7202ZM28.1451 14.156V13.8746H28.2614V13.8174H27.9651V13.8746H28.0813V14.156H28.1451ZM29 8.74012C29 13.5671 24.9879 17.4802 20.0386 17.4802C17.948 17.4802 16.0244 16.7819 14.5 15.6115C16.5844 14.0112 17.9231 11.5282 17.9231 8.74012C17.9231 5.95203 16.5844 3.46899 14.5 1.86865C16.0244 0.698227 17.948 0 20.0386 0C24.9879 0 29 3.91316 29 8.74012Z" fill="#F79E1B"/>
    </g>
  </symbol>

  <symbol viewBox="0 0 28 22" id="maestro">
    <g>
      <path d="M23.6404 21.7016V21.7587H23.6926C23.7045 21.7587 23.714 21.7563 23.7211 21.7517C23.7281 21.747 23.7317 21.7397 23.7317 21.7297C23.7317 21.7205 23.7281 21.7135 23.7211 21.7086C23.7139 21.704 23.7045 21.7015 23.6926 21.7015H23.6404V21.7016ZM23.6931 21.6615C23.7204 21.6615 23.7414 21.6677 23.756 21.6798C23.7709 21.6921 23.7782 21.7086 23.7782 21.7298C23.7782 21.7475 23.7724 21.7623 23.7606 21.7738C23.7488 21.7852 23.7322 21.7922 23.7103 21.7949L23.7798 21.8757H23.7255L23.6613 21.7955H23.6403V21.8757H23.5952V21.6615H23.693H23.6931ZM23.6796 21.9492C23.7044 21.9492 23.7272 21.9447 23.7486 21.9352C23.77 21.9257 23.7885 21.9129 23.8046 21.8968C23.8207 21.8806 23.8331 21.8614 23.8423 21.8396C23.8515 21.8177 23.856 21.7944 23.856 21.7694C23.856 21.7446 23.8515 21.7214 23.8423 21.6995C23.8332 21.6776 23.8207 21.6585 23.8046 21.6422C23.7884 21.6262 23.7699 21.6136 23.7486 21.6041C23.7272 21.5949 23.7044 21.5903 23.6796 21.5903C23.6546 21.5903 23.6312 21.5949 23.6094 21.6041C23.5875 21.6136 23.5688 21.6262 23.5527 21.6422C23.5366 21.6586 23.5241 21.6777 23.515 21.6995C23.5059 21.7214 23.5013 21.7446 23.5013 21.7694C23.5013 21.7944 23.5059 21.8177 23.515 21.8396C23.5241 21.8614 23.5366 21.8806 23.5527 21.8968C23.5688 21.9129 23.5875 21.9257 23.6094 21.9352C23.6313 21.9447 23.6546 21.9492 23.6796 21.9492ZM23.6796 21.5386C23.7118 21.5386 23.7419 21.5447 23.7702 21.5569C23.7983 21.569 23.8228 21.5853 23.844 21.6065C23.8649 21.6274 23.8817 21.6518 23.8937 21.6798C23.9058 21.7079 23.912 21.7378 23.912 21.7693C23.912 21.8012 23.9058 21.831 23.8937 21.8589C23.8818 21.8866 23.8649 21.9112 23.844 21.932C23.8228 21.9529 23.7983 21.9694 23.7702 21.9818C23.7419 21.9939 23.7118 22.0003 23.6796 22.0003C23.6468 22.0003 23.6161 21.9939 23.5875 21.9818C23.5592 21.9694 23.5344 21.953 23.5134 21.932C23.4926 21.9112 23.4759 21.8866 23.464 21.8589C23.4517 21.831 23.4457 21.8012 23.4457 21.7693C23.4457 21.7378 23.4517 21.7079 23.464 21.6798C23.4759 21.6518 23.4926 21.6274 23.5134 21.6065C23.5344 21.5853 23.5591 21.569 23.5875 21.5569C23.6161 21.5448 23.6468 21.5386 23.6796 21.5386ZM20.2234 19.5002C20.3242 19.5002 20.4683 19.5196 20.5786 19.5634L20.425 20.0385C20.3194 19.9949 20.2138 19.9804 20.113 19.9804C19.7865 19.9804 19.6233 20.1937 19.6233 20.5767V21.8762H19.1241V19.5585H19.6185V19.8397C19.7481 19.6361 19.9354 19.5002 20.2234 19.5002H20.2234ZM18.4957 20.0191H17.6796V21.0664C17.6796 21.2991 17.7612 21.4545 18.0109 21.4545C18.1405 21.4545 18.3037 21.4108 18.4526 21.3234L18.5965 21.755C18.4381 21.8665 18.1885 21.9344 17.9725 21.9344C17.3821 21.9344 17.1757 21.6144 17.1757 21.0762V20.0191H16.71V19.5585H17.1757L17.1755 18.8555H17.6796L17.6796 19.5585H18.4957V20.0191ZM16.0968 20.15C15.9576 20.0628 15.6744 19.9513 15.3816 19.9513C15.108 19.9513 14.9448 20.0531 14.9448 20.2228C14.9448 20.378 15.1176 20.4215 15.3336 20.4507L15.5689 20.4845C16.068 20.5573 16.3704 20.7708 16.3704 21.1779C16.3704 21.6191 15.9865 21.9344 15.3239 21.9344C14.9496 21.9344 14.6039 21.8374 14.3304 21.6336L14.5656 21.241C14.7337 21.3719 14.9832 21.4833 15.3288 21.4833C15.6696 21.4833 15.8521 21.3815 15.8521 21.2021C15.8521 21.0712 15.7223 20.9984 15.4489 20.9598L15.2136 20.9259C14.7 20.8531 14.4216 20.6202 14.4216 20.2421C14.4216 19.7814 14.796 19.5002 15.3768 19.5002C15.7417 19.5002 16.0729 19.5826 16.3129 19.7427L16.0968 20.15L16.0968 20.15ZM12.2856 20.5136C12.3383 20.1791 12.5399 19.9513 12.8951 19.9513C13.2167 19.9513 13.4231 20.1548 13.476 20.5136H12.2856ZM13.9944 20.7174C13.9896 19.9949 13.5481 19.5002 12.9048 19.5002C12.2327 19.5002 11.7624 19.9949 11.7624 20.7174C11.7624 21.4545 12.252 21.9344 12.9385 21.9344C13.2841 21.9344 13.6009 21.8471 13.8793 21.6096L13.6345 21.2362C13.4425 21.3914 13.1976 21.4785 12.9672 21.4785C12.6456 21.4785 12.3527 21.3282 12.2807 20.9113H13.9848C13.9896 20.8482 13.9944 20.7854 13.9944 20.7174ZM21.9602 19.9744C21.8581 19.9744 21.7629 19.9925 21.6752 20.0288C21.5872 20.0651 21.5115 20.1159 21.4476 20.1812C21.3836 20.2466 21.3334 20.3249 21.2966 20.4161C21.2599 20.5072 21.2416 20.6076 21.2416 20.7174C21.2416 20.8271 21.2599 20.9277 21.2966 21.0187C21.3334 21.1097 21.3836 21.1882 21.4476 21.2534C21.5115 21.3188 21.5872 21.3696 21.6752 21.4059C21.763 21.4424 21.8581 21.4604 21.9602 21.4604C22.0624 21.4604 22.1576 21.4424 22.2453 21.4059C22.3333 21.3695 22.4094 21.3188 22.4741 21.2534C22.5388 21.1882 22.5896 21.1098 22.6263 21.0187C22.6631 20.9277 22.6816 20.8271 22.6816 20.7174C22.6816 20.6077 22.6631 20.5072 22.6263 20.4161C22.5896 20.3249 22.5388 20.2466 22.4741 20.1812C22.4094 20.1159 22.3333 20.0651 22.2453 20.0288C22.1575 19.9925 22.0624 19.9744 21.9602 19.9744ZM21.9602 19.4975C22.1376 19.4975 22.3018 19.5286 22.4527 19.5907C22.6037 19.6528 22.7342 19.7384 22.8443 19.8472C22.9546 19.9561 23.0409 20.0848 23.1032 20.2333C23.1654 20.3818 23.1967 20.5431 23.1967 20.7174C23.1967 20.8917 23.1654 21.0529 23.1032 21.2012C23.0409 21.3499 22.9546 21.4785 22.8443 21.5875C22.7342 21.6963 22.6037 21.7818 22.4527 21.8439C22.3018 21.9061 22.1376 21.9371 21.9602 21.9371C21.7831 21.9371 21.619 21.9061 21.468 21.8439C21.3168 21.7818 21.1868 21.6964 21.0774 21.5875C20.9678 21.4786 20.8819 21.3499 20.8197 21.2012C20.7574 21.0529 20.7262 20.8917 20.7262 20.7174C20.7262 20.5431 20.7575 20.3818 20.8197 20.2333C20.8819 20.0848 20.9678 19.9561 21.0774 19.8472C21.1868 19.7385 21.3168 19.6528 21.468 19.5907C21.619 19.5286 21.7831 19.4975 21.9602 19.4975ZM9.42018 20.7174C9.42018 20.31 9.6842 19.9755 10.1162 19.9755C10.5291 19.9755 10.8074 20.2955 10.8074 20.7174C10.8074 21.1391 10.5291 21.4591 10.1162 21.4591C9.6842 21.4591 9.42018 21.1246 9.42018 20.7174ZM11.278 20.7174V19.5584H10.7786V19.8396C10.6202 19.6312 10.3802 19.5002 10.0538 19.5002C9.41055 19.5002 8.90655 20.0094 8.90655 20.7173C8.90655 21.4253 9.41055 21.9344 10.0538 21.9344C10.3802 21.9344 10.6203 21.8033 10.7786 21.595V21.8761H11.278V20.7173V20.7174ZM8.46494 21.8762V20.4215C8.46494 19.8737 8.1193 19.505 7.5624 19.5002C7.26962 19.4954 6.9671 19.5875 6.75598 19.9124C6.59757 19.6554 6.34791 19.5002 5.9975 19.5002C5.75261 19.5002 5.51267 19.5729 5.3254 19.8445V19.5584H4.82617V21.8761H5.33022V20.5912C5.33022 20.1888 5.55102 19.9754 5.89184 19.9754C6.22312 19.9754 6.39107 20.1936 6.39107 20.5863V21.8761H6.89522V20.5912C6.89522 20.1888 7.12556 19.9754 7.45679 19.9754C7.79761 19.9754 7.96079 20.1936 7.96079 20.5863V21.8761H8.46494V21.8762Z" fill="black"/>
      <path d="M10.2144 15.6122H17.7858V1.86865H10.2144V15.6122Z" fill="#7673C0"/>
      <path d="M10.6951 8.74065C10.6951 5.9525 11.9874 3.4693 13.9999 1.86888C12.5281 0.698494 10.6711 0 8.65244 0C3.87378 0 0 3.91339 0 8.74065C0 13.5678 3.87378 17.4811 8.65244 17.4811C10.6711 17.4811 12.5281 16.7827 13.9999 15.6124C11.9874 14.0119 10.6951 11.5289 10.6951 8.74065Z" fill="#EB001B"/>
      <path d="M27.73 14.1566V13.8174H27.6422L27.5415 14.0507L27.4405 13.8174H27.3529V14.1566H27.4149V13.9008L27.5093 14.1214H27.5735L27.6682 13.9003V14.1567H27.73L27.73 14.1566ZM27.1747 14.1566V13.8753H27.287V13.8181H27.001V13.8753H27.1132V14.1566H27.1748H27.1747Z" fill="#00A1DF"/>
      <path d="M28.0001 8.74065C28.0001 13.5678 24.1263 17.4811 19.3476 17.4811C17.329 17.4811 15.4718 16.7827 14 15.6124C16.0127 14.0119 17.305 11.5289 17.305 8.74065C17.305 5.9525 16.0127 3.4693 14 1.86888C15.4718 0.698494 17.329 0 19.3476 0C24.1263 0 28.0001 3.91339 28.0001 8.74065Z" fill="#00A1DF"/>
    </g>
  </symbol>

  <symbol viewBox="0 0 38 11" id="mir">
    <g>
      <path d="M21.1571 1.16196L18.7564 6.50008H18.5129V2.2117e-05H15.1025V11H17.9967C18.7569 11 19.4476 10.5464 19.7662 9.83813L22.1668 4.50004H22.4104V11H25.8206V0H22.9264C22.1664 0 21.4755 0.45362 21.157 1.16194L21.1571 1.16196Z" fill="#35973F"/>
      <path d="M8.363 1.44568L6.94235 6.49996H6.69879L5.27825 1.44568C5.03758 0.589551 4.27408 0 3.40587 0H0V11H3.41035V4.50003H3.65391L5.60264 11H8.03856L9.9873 4.50003H10.2309V11H13.6412V0H10.2354C9.36717 0 8.60361 0.589551 8.36304 1.44568H8.363Z" fill="#35973F"/>
      <path d="M27.2822 5V11H30.6859V7.49999H34.3464C35.9367 7.49999 37.2858 6.45547 37.7878 5H27.2822H27.2822Z" fill="#35973F"/>
      <path fill-rule="evenodd" clip-rule="evenodd" d="M31.904 4.49727V4.49263H31.7891C31.6779 4.4869 31.5675 4.47785 31.4583 4.46527V4.4631H31.4407C31.4129 4.45981 31.3853 4.45624 31.3576 4.45253V4.44839H31.327C31.3036 4.4451 31.2803 4.44145 31.257 4.43784V4.43362H31.2291C31.1516 4.42119 31.0746 4.40701 30.9982 4.3912V4.38936H30.9888C30.9727 4.38602 30.9567 4.38224 30.9407 4.37879V4.37461H30.9218C30.9041 4.37067 30.8864 4.36696 30.8688 4.36282V4.35986H30.8566L30.8113 4.34873V4.34509H30.7965C30.7774 4.34035 30.7584 4.33564 30.7394 4.33066V4.33033H30.7381C30.6855 4.31658 30.6332 4.30193 30.5812 4.28659V4.28608H30.5796L30.5381 4.27387V4.27132H30.5293C30.5178 4.26781 30.5064 4.26396 30.4949 4.26038V4.25662H30.4832L30.4518 4.24662V4.24184H30.4368L30.3943 4.22771V4.22709H30.3924L30.3511 4.21291V4.21234H30.3494C30.3357 4.20756 30.3218 4.20296 30.308 4.19812V4.19756H30.3064C30.2538 4.17883 30.2018 4.15899 30.1499 4.13862V4.13853H30.1497C30.1258 4.12911 30.1018 4.11971 30.078 4.10996V4.10903H30.0758L30.0492 4.09786V4.09426H30.0407L30.0061 4.0797V4.0795H30.0056L29.9773 4.06749V4.06473H29.9712L29.9486 4.05469V4.05H29.9381L29.9054 4.0354V4.03523H29.905C29.8956 4.03096 29.8861 4.02695 29.8767 4.0226V4.02047H29.8722C29.8009 3.98763 29.7306 3.95322 29.661 3.91732V3.91719H29.6608C29.6174 3.89476 29.5744 3.87163 29.5317 3.84805V3.84341H29.5233L29.5029 3.83206V3.82863H29.4967L29.4741 3.81605V3.81388H29.4702L29.4453 3.79948V3.7991H29.4447C29.3719 3.75715 29.3003 3.71345 29.2297 3.66819V3.66631H29.2268C29.2134 3.65769 29.1999 3.64913 29.1865 3.64037V3.63681H29.181L29.1434 3.61171V3.60728H29.1369L29.1003 3.58256V3.57778H29.0933C29.0175 3.52587 28.9432 3.47199 28.8702 3.41633V3.41544H28.8691L28.8559 3.40525V3.40069H28.85L28.8127 3.37183V3.37121H28.8119L28.7983 3.36066V3.35643H28.793C28.7755 3.34254 28.7582 3.32832 28.7408 3.31423V3.31218H28.7383L28.7265 3.30264V3.29743H28.72C28.7028 3.28334 28.6859 3.26907 28.6689 3.25476V3.25317H28.667C28.6387 3.22924 28.6106 3.20506 28.5827 3.18056V3.17939H28.5813C28.543 3.14568 28.5051 3.11142 28.4677 3.07661V3.07606H28.4671L28.4533 3.06334V3.06133H28.4511L28.4389 3.04978V3.04655H28.4356L28.4245 3.03594V3.0318H28.4202L28.4101 3.02213V3.01703H28.4048C28.3227 2.93809 28.2429 2.85652 28.1657 2.77246V2.76617H28.16L28.1513 2.75675V2.7514H28.1464L28.137 2.74107V2.73665H28.1329L28.1226 2.7253V2.72192H28.1196L28.1082 2.70896V2.70717H28.1066L28.0938 2.69261V2.69241H28.0936C28.0597 2.65389 28.0261 2.61492 27.9932 2.57542V2.57438H27.9923C27.9683 2.5456 27.9447 2.51656 27.9213 2.4873V2.48584H27.9201C27.906 2.46819 27.892 2.45045 27.8782 2.43263V2.42681H27.8737L27.8638 2.41401V2.41204H27.8623C27.8483 2.39397 27.8344 2.37594 27.8206 2.3577V2.35301H27.8172C27.8038 2.33518 27.7906 2.31733 27.7775 2.29935V2.294H27.7735L27.7631 2.27991V2.27925H27.7626C27.7184 2.21823 27.6755 2.15614 27.6337 2.0932V2.08743H27.6298C27.6214 2.07471 27.6133 2.06184 27.6049 2.04908V2.04317H27.6012C27.5928 2.0303 27.5844 2.01749 27.5762 2.00453V1.99894H27.5726L27.5475 1.95875V1.95466H27.5449L27.5187 1.91213V1.9104H27.5176C27.5034 1.88707 27.4895 1.86351 27.4756 1.83991V1.83662H27.4736C27.4397 1.77894 27.4068 1.72055 27.3749 1.6615V1.65957H27.3739L27.3606 1.63456V1.63005H27.3582L27.3462 1.60751V1.60056H27.3425L27.3318 1.58039V1.57102H27.3271C27.2781 1.47598 27.2317 1.3792 27.188 1.28095V1.27589H27.1857L27.1737 1.24844V1.24638H27.1728C27.1633 1.22471 27.1541 1.20297 27.1449 1.18118V1.1726H27.1412L27.1305 1.14708V1.14305H27.1289C27.1197 1.12071 27.1107 1.09822 27.1018 1.07571V1.06931H27.0992C27.0903 1.04682 27.0816 1.02422 27.073 1.00159V0.995532H27.0707C27.0464 0.931503 27.0231 0.866877 27.0011 0.801699V0.788937H26.9969L26.9867 0.758106V0.744637H26.9823L26.9723 0.714602V0.700381H26.9679L26.9579 0.66809V0.656125H26.9543L26.9436 0.621069V0.611824H26.9408L26.9292 0.572412V0.567568H26.9278C26.9078 0.498585 26.8891 0.429072 26.8717 0.359005V0.346199H26.8687C26.8648 0.330253 26.8611 0.314284 26.8573 0.298316V0.287191H26.8547L26.843 0.23703V0.213387H26.8379L26.8286 0.169794V0.154356H26.8253L26.8142 0.0998158V0.0953482H26.8133C26.8087 0.071882 26.8041 0.0482832 26.7998 0.0247065V0.0215659H26.7992L26.7964 0.00683594H34.5662C34.6233 0.0103083 34.68 0.0151962 34.7363 0.0213447V0.0215437H34.7384C34.7714 0.0251488 34.8042 0.0291962 34.8369 0.0337081V0.0362958H34.8543C34.8773 0.0395691 34.9004 0.0429088 34.9232 0.0466244V0.0510478H34.9486C34.9738 0.0553164 34.9988 0.059784 35.0238 0.0646055V0.065822H35.0299C35.0761 0.0747794 35.122 0.0845551 35.1676 0.0953039H35.1676C35.1869 0.0998158 35.206 0.104726 35.2251 0.109525V0.110078H35.2272C35.2409 0.11355 35.2546 0.116934 35.2682 0.120584V0.124852H35.2836L35.3258 0.13653V0.139626H35.3369C35.3524 0.144094 35.3678 0.148827 35.3832 0.153516V0.154356H35.386C35.4432 0.171762 35.4998 0.19054 35.5558 0.210666V0.213387H35.5634L35.5989 0.226391V0.228139H35.6035C35.626 0.236587 35.6485 0.245169 35.6708 0.254082V0.257687H35.6796L35.714 0.271864V0.272439H35.7153C35.7486 0.28624 35.7818 0.300505 35.8146 0.31528V0.316695H35.8178L35.8433 0.328439V0.331447H35.8497C35.9457 0.375947 36.0395 0.424427 36.1309 0.476955V0.478967H36.1342C36.1572 0.492238 36.1801 0.505685 36.2028 0.519464V0.523268H36.2089L36.2315 0.537356V0.53802H36.2326C36.2467 0.546712 36.2608 0.555293 36.2747 0.564162V0.567502H36.2798C36.3022 0.5819 36.3245 0.596497 36.3466 0.611338V0.611758H36.3471C36.3956 0.644425 36.4434 0.678308 36.4903 0.713231V0.715066H36.4928C36.5113 0.728867 36.5296 0.742801 36.5478 0.756934V0.759323H36.551C36.5693 0.773544 36.5873 0.788052 36.6054 0.802606V0.803601H36.6066C36.6702 0.855089 36.7322 0.908745 36.7923 0.964391V0.965895H36.7939L36.8067 0.977573V0.980669H36.81L36.821 0.991219V0.995444H36.8254C36.8935 1.06003 36.9592 1.12728 37.0223 1.19693V1.20204H37.0269L37.0367 1.21274V1.21677H37.0403L37.0511 1.22878V1.23154H37.0535L37.0654 1.24534V1.24629H37.0663C37.1155 1.30263 37.1633 1.36031 37.2092 1.41967V1.42334H37.212C37.2257 1.44099 37.239 1.45891 37.2523 1.4768V1.48237H37.2565L37.2667 1.49617V1.49712H37.2674C37.2769 1.51 37.2862 1.52302 37.2955 1.53603V1.54138H37.2993L37.3098 1.55602V1.55615H37.3099C37.3196 1.56991 37.3291 1.58389 37.3386 1.59782V1.60045H37.3404C37.3694 1.64292 37.3975 1.68602 37.4248 1.72975V1.73327H37.427C37.4359 1.74758 37.4449 1.7618 37.4536 1.77622V1.77752H37.4544L37.468 1.80057V1.807H37.4718C37.4801 1.82109 37.4886 1.83516 37.4967 1.84938V1.85131H37.4978L37.5111 1.8751V1.88079H37.5143C37.5432 1.93219 37.5709 1.98438 37.5973 2.03726V2.04313H37.6003L37.6117 2.06599V2.07261H37.615L37.6261 2.09574V2.10213H37.6291L37.6405 2.12622V2.13166H37.6431L37.6549 2.15676V2.16116H37.6568L37.6692 2.18905V2.19069H37.67C37.695 2.24682 37.7187 2.30371 37.7411 2.3613V2.36774H37.7436C37.7526 2.39096 37.7613 2.41429 37.7699 2.43776V2.44152H37.7713L37.7843 2.47728V2.48578H37.7871C37.8123 2.55785 37.8352 2.63104 37.8561 2.70509V2.70714H37.8567C37.8614 2.72386 37.866 2.74065 37.8705 2.7575V2.76615H37.8728C37.8768 2.78155 37.881 2.7969 37.8849 2.81242V2.82518H37.888C37.8919 2.84095 37.8956 2.85681 37.8993 2.87262V2.88421H37.902C37.906 2.90171 37.9099 2.91922 37.9137 2.93679V2.94322H37.915C37.925 2.98949 37.9342 3.036 37.9424 3.08289V3.09079H37.9437C37.9483 3.11748 37.9527 3.14424 37.9568 3.17114V3.19409H37.96C37.964 3.22178 37.9677 3.24961 37.9712 3.2775V3.29736H37.9734C37.9781 3.33651 37.982 3.37587 37.9855 3.4154V3.44492H37.988C37.9951 3.53352 37.9991 3.62299 37.9999 3.7132V3.81003C37.9986 3.89062 37.9949 3.97064 37.9887 4.04991H37.9855V4.08864C37.9819 4.13004 37.9776 4.1712 37.9726 4.21221H37.9712V4.22417C37.968 4.24976 37.9646 4.27533 37.9609 4.30076H37.9568V4.32883C37.953 4.35398 37.9489 4.37901 37.9446 4.40403H37.9424V4.4167C37.9379 4.44209 37.9333 4.46739 37.9283 4.49258H37.928V4.49413L37.9269 4.4999H32.0627C32.0095 4.4999 31.9566 4.49882 31.9038 4.49723L31.904 4.49727Z" fill="url(#paint0_linear)"/>
    </g>
  </symbol>

  <symbol viewBox="0 0 81 23" id="alfa">
    <g>
      <path d="M7.69509 0C9.32732 0 9.84035 1.12171 10.2691 2.24454C10.4511 2.71939 14.6906 13.8581 14.8172 14.1924C14.8528 14.2844 14.8294 14.4385 14.6797 14.4933C14.5295 14.5481 12.3262 15.3702 12.2047 15.414C12.0829 15.458 11.9458 15.3931 11.901 15.2768C11.8559 15.1613 10.9428 12.7334 10.8396 12.4614C10.536 12.4614 4.86157 12.4614 4.55831 12.4614C4.45499 12.7334 3.5324 15.1657 3.48993 15.2768C3.44761 15.388 3.31558 15.4631 3.18687 15.414C3.05765 15.3646 0.844692 14.542 0.713887 14.4933C0.587279 14.4471 0.529094 14.3091 0.574076 14.1924C0.730057 13.7742 4.90476 2.8146 5.11862 2.24454C5.5315 1.13963 6.06357 0 7.69508 0H7.69509ZM0.238016 19.9304C0.10634 19.9304 0 20.0349 0 20.1643V22.7662C0 22.896 0.10634 23 0.238016 23H15.1522C15.2828 23 15.3883 22.896 15.3883 22.7662V20.1643C15.3883 20.0349 15.2828 19.9304 15.1522 19.9304H0.238016ZM7.6824 3.63758L5.55812 9.75646H9.84035L7.70886 3.63758H7.6824H7.6824ZM63.1715 12.6176C63.1715 13.3099 62.7722 13.7656 62.0365 13.7656C61.7456 13.7656 61.5071 13.7665 61.1273 13.667V11.5712C61.2949 11.5448 61.6414 11.4932 62.0365 11.5069C62.7843 11.534 63.1715 11.8692 63.1715 12.6176ZM64.6816 12.5142C64.6816 11.2303 63.8977 10.3458 62.2507 10.3458C61.846 10.3458 61.5637 10.3828 61.1273 10.4818L61.1241 8.63362C61.3955 8.59655 61.8603 8.56409 62.3723 8.56409C62.8568 8.56409 63.4703 8.58943 64.0088 8.65257L64.0463 7.58159C63.4344 7.44985 62.5469 7.36948 61.8582 7.36948C61.1797 7.36948 60.1245 7.53239 59.622 7.66281L59.6215 14.4938C60.4048 14.7689 61.1691 14.8947 61.954 14.8947C63.7496 14.8947 64.6816 13.9813 64.6816 12.5142L64.6816 12.5142ZM47.5502 12.1419C47.5502 13.0947 47.1546 13.7093 46.5035 13.7093C46.23 13.7093 46.0851 13.6961 45.7762 13.5991V10.7379C46.1153 10.5823 46.2977 10.584 46.5717 10.584C47.2239 10.584 47.5502 11.1009 47.5502 12.1419V12.1419ZM42.5882 12.174C42.5882 11.1339 42.9149 10.584 43.5659 10.584C43.841 10.584 44.0235 10.5823 44.3625 10.7379V13.5991C44.0546 13.6961 43.9092 13.7093 43.6347 13.7093C42.8927 13.7093 42.5882 13.128 42.5882 12.174H42.5882ZM45.7762 16.4613V14.5994C45.9561 14.7014 46.3147 14.8521 46.9192 14.8521C48.1214 14.8521 49.0074 13.8935 49.0074 12.1419C49.0074 10.255 48.1273 9.44727 46.6807 9.44727C46.3131 9.44727 46.074 9.48346 45.7762 9.61961V7.39506H44.3625V9.61961C44.0652 9.48346 43.8246 9.44727 43.4575 9.44727C42.0112 9.44727 41.1306 10.2885 41.1306 12.174C41.1306 13.9265 41.9265 14.8521 43.2169 14.8521C43.8241 14.8521 44.1826 14.7014 44.3625 14.5994V16.4613H45.7762ZM35.0349 14.7638V9.77035C34.2556 9.54758 33.6561 9.45095 32.874 9.45095C32.0926 9.45095 31.5078 9.54758 30.7282 9.77035V12.3269C30.7282 13.0221 30.7157 13.2307 30.6367 13.4556C30.5583 13.6524 30.453 13.8889 30.167 14.0716L30.5539 14.8688C31.6936 14.5601 32.1229 14.0843 32.1229 12.5718V10.6909C32.4995 10.6381 32.5739 10.6259 32.874 10.6259C33.176 10.6259 33.2389 10.6381 33.6144 10.6909V14.7638H35.0349L35.0349 14.7638ZM52.5199 13.669C52.2078 13.7727 52.0025 13.7966 51.7561 13.7966C51.2483 13.7966 50.9595 13.604 50.9595 13.1043C50.9595 12.5844 51.324 12.4081 52.0274 12.4081C52.1967 12.4081 52.367 12.433 52.4468 12.4595V12.8324C52.4468 13.2346 52.4675 13.4976 52.5199 13.669ZM54.3234 14.2665C53.949 13.7198 53.8516 13.3972 53.8516 12.7095V11.3137C53.8516 10.5594 53.7607 10.2829 53.5523 10.0065C53.2651 9.61858 52.7843 9.45095 51.8984 9.45095C51.2737 9.45095 50.6591 9.51591 50.0721 9.65918L50.2825 10.6589C50.6819 10.6056 51.0976 10.5594 51.3986 10.5594C52.3384 10.5594 52.4468 10.6909 52.4468 11.3663V11.6196C52.2379 11.5658 52.0025 11.5268 51.7291 11.5268C50.309 11.5268 49.5616 12.1909 49.5616 13.2874C49.5616 14.3179 50.3598 14.8805 51.3388 14.8805C51.7021 14.8805 52.0814 14.8155 52.3813 14.6993C52.5616 14.6227 52.6404 14.5796 52.8753 14.4314C53.017 14.6308 53.2995 14.8325 53.4153 14.8688L54.3234 14.2665L54.3234 14.2665ZM68.1803 13.669C67.8688 13.7727 67.6636 13.7966 67.4161 13.7966C66.9077 13.7966 66.6216 13.604 66.6216 13.1043C66.6216 12.5844 66.9855 12.4081 67.689 12.4081C67.8598 12.4081 68.0285 12.433 68.1062 12.4595V12.8324C68.1062 13.2346 68.129 13.4976 68.1803 13.669ZM69.9849 14.2665C69.6089 13.7198 69.5116 13.3972 69.5116 12.7095V11.3137C69.5116 10.5594 69.4216 10.2829 69.2138 10.0065C68.925 9.61858 68.4453 9.45095 67.5588 9.45095C66.9331 9.45095 66.3201 9.51591 65.7336 9.65918L65.9435 10.6589C66.3413 10.6056 66.7596 10.5594 67.0596 10.5594C67.9978 10.5594 68.1062 10.6909 68.1062 11.3663V11.6196C67.8979 11.5658 67.6636 11.5268 67.3896 11.5268C65.9705 11.5268 65.2231 12.1909 65.2231 13.2874C65.2231 14.3179 66.0218 14.8805 66.9992 14.8805C67.3631 14.8805 67.7413 14.8155 68.0412 14.6993C68.2226 14.6227 68.3014 14.5796 68.5352 14.4314C68.6769 14.6308 68.961 14.8325 69.0763 14.8688L69.9849 14.2665L69.9849 14.2665ZM39.07 12.9699C39.07 13.4812 38.8822 13.8316 38.2004 13.8316C37.9707 13.8316 37.8764 13.8316 37.5784 13.7514V12.2569C37.9483 12.1879 37.9811 12.1762 38.2004 12.1762C38.852 12.1762 39.07 12.4802 39.07 12.9699ZM36.1603 9.53437L36.1544 14.4913C36.8274 14.7638 37.5668 14.8866 38.2237 14.8866C39.7311 14.8866 40.5378 14.1389 40.5378 12.9068C40.5378 11.7917 39.8239 11.1019 38.4892 11.1019C38.1502 11.1019 37.9515 11.1451 37.5792 11.2308V9.53438H36.1603V9.53437ZM75.1735 14.7638V9.58156H73.7534V11.5409H72.146V9.58156H70.7286V14.7638H72.146V12.6477H73.7534V14.7638H75.1735ZM81 14.7638C81 14.7638 80.2257 13.1778 80.0358 12.8192C79.8221 12.4122 79.6253 12.1314 79.1879 12.0316V12.0077C79.481 11.9548 79.7137 11.7843 79.9654 11.2664C80.2082 10.7595 80.2801 10.6513 80.4219 10.5316C80.5615 10.4102 80.7519 10.4564 80.7519 10.4564L80.8239 9.51306C80.6202 9.48714 80.3954 9.48685 80.1632 9.49883C79.7798 9.52166 79.5793 9.62624 79.3916 9.81042C79.2445 9.95051 79.143 10.1596 79.0181 10.4047C78.8849 10.6665 78.7801 10.8783 78.6464 11.1451C78.5099 11.4181 78.4432 11.54 78.0757 11.54H77.8371V9.58156H76.4117V14.7638H77.8371V12.6461L78.0312 12.6431C78.4363 12.6431 78.5056 12.74 78.7209 13.15C78.9742 13.6403 79.4529 14.7638 79.4529 14.7638H81ZM28.0895 14.7638H29.7249L27.2549 7.51972C26.995 7.43546 26.6702 7.38287 26.3275 7.38287C25.953 7.38287 25.8194 7.43055 25.5256 7.51972L22.9064 14.7638H24.4728C24.4728 14.7638 24.6829 14.1295 24.9396 13.3413H27.6484C27.8925 14.129 28.0895 14.7638 28.0895 14.7638H28.0895ZM25.3379 12.1275C25.3379 12.1275 25.79 10.6757 25.8587 10.4483C26.0415 9.8576 26.3148 8.92758 26.3148 8.92758H26.3596C26.3596 8.92758 26.6112 9.89162 26.7755 10.4398C26.8398 10.653 27.2716 12.1275 27.2716 12.1275H25.3379V12.1275ZM56.7358 11.3009C56.2359 11.3009 55.8298 11.692 55.8298 12.1703C55.8298 12.6532 56.2359 13.0407 56.7358 13.0407C57.235 13.0407 57.6407 12.6532 57.6407 12.1703C57.6407 11.692 57.235 11.3009 56.7358 11.3009Z" fill="#EE4337"/>
    </g>
  </symbol>

  <symbol viewBox="0 0 17 21" id="map-marker">
    <g>
      <path d="M8.5001 1.04199C4.34894 1.04199 0.962891 4.42804 0.962891 8.59548C0.962891 9.10013 1.01173 9.60478 1.1094 10.0932C1.1094 10.1257 1.12568 10.1583 1.12568 10.2071C1.95591 13.935 7.8001 19.535 8.04428 19.7629C8.17452 19.8932 8.33731 19.942 8.5001 19.942C8.66289 19.942 8.82568 19.8769 8.95591 19.7629C9.2001 19.5187 15.0117 13.935 15.842 10.2885C15.842 10.2559 15.8582 10.2234 15.8582 10.1908C15.9722 9.6699 16.021 9.13269 16.021 8.59548C16.0373 4.42804 12.6513 1.04199 8.5001 1.04199V1.04199ZM14.5559 9.94664C14.5559 9.9792 14.5559 9.96292 14.5559 9.99548C13.9373 12.6978 9.88382 16.9629 8.5001 18.3466C7.11638 16.9629 3.04661 12.6978 2.42801 9.93036C2.42801 9.89781 2.42801 9.88153 2.41173 9.84897C2.33033 9.42571 2.28149 9.00246 2.28149 8.5792C2.28149 5.1606 5.06522 2.3606 8.48382 2.3606C11.9024 2.3606 14.7024 5.14432 14.7024 8.5792C14.7024 9.05129 14.6536 9.50711 14.5559 9.94664V9.94664Z" stroke="#4AD4B9" stroke-width="0.5"/>
      <path d="M8.50031 5.29102C7.10031 5.29102 5.97705 6.43055 5.97705 7.81427C5.97705 9.19799 7.11659 10.3375 8.50031 10.3375C9.88403 10.3375 11.0236 9.21427 11.0236 7.81427C11.0236 6.41427 9.90031 5.29102 8.50031 5.29102ZM8.50031 9.01892C7.83287 9.01892 7.29566 8.48171 7.29566 7.81427C7.29566 7.14683 7.83287 6.60962 8.50031 6.60962C9.16775 6.60962 9.70496 7.14683 9.70496 7.81427C9.70496 8.48171 9.16775 9.01892 8.50031 9.01892Z" stroke="#4AD4B9" stroke-width="0.5"/>
    </g>
  </symbol>

  <symbol viewBox="0 0 23 18" id="message">
    <g>
      <path d="M3.89778 2.53629C3.56009 2.23478 3.04677 2.26543 2.74595 2.60231C2.66849 2.68908 2.61295 2.78745 2.57891 2.89083C2.48046 3.18977 2.56171 3.53062 2.81201 3.75416L8.09316 8.47453L2.83065 13.4012C2.5049 13.7089 2.48736 14.2214 2.79398 14.5521L2.7967 14.5549C2.95647 14.7206 3.17197 14.8118 3.39131 14.8118C3.59006 14.8118 3.78917 14.7394 3.94575 14.5949L3.94674 14.594L9.31661 9.57051L10.674 10.7831C10.8308 10.9218 11.0243 10.9881 11.2163 10.9881C11.4097 10.9881 11.6083 10.9162 11.7603 10.7769L13.156 9.52618L18.4934 14.5972C18.652 14.7493 18.8575 14.8209 19.0549 14.8209C19.2721 14.8209 19.4837 14.7358 19.6449 14.5686L19.6464 14.567C19.9534 14.2419 19.9424 13.7237 19.6155 13.4149L14.3698 8.4343L19.589 3.75387L19.59 3.75295C19.8349 3.53033 19.9152 3.19195 19.8184 2.8943C19.7844 2.78968 19.7285 2.69009 19.6502 2.60232L19.649 2.60099C19.3481 2.27003 18.8353 2.23989 18.4979 2.54115L18.1048 2.89396L11.2114 9.08121L9.94439 7.9497L9.89647 7.90178C9.85949 7.8648 9.82255 7.83294 9.78215 7.80218L4.29435 2.89117L3.89778 2.53629Z" fill="#4AD4B9"/>
      <path fill-rule="evenodd" clip-rule="evenodd" d="M2.89025 0C1.29584 0 0 1.29584 0 2.89031V14.2522C0 15.8466 1.29584 17.1424 2.89025 17.1424H19.5098C21.1042 17.1424 22.4 15.8466 22.4 14.2522V2.89482C22.4046 1.30055 21.1088 0 19.5143 0H2.89025ZM1.62907 2.89064C1.63134 2.19729 2.1964 1.63364 2.89025 1.63364H19.5098C20.2049 1.63364 20.7708 2.19939 20.771 2.8945V14.3597C20.7162 15.0049 20.1733 15.5134 19.5143 15.5134H2.89025C2.19501 15.5134 1.62907 14.9475 1.62907 14.2522V2.89482L1.62907 2.89064Z" />
    </g>
  </symbol>

  <symbol viewBox="0 0 22 22" id="headphones">
    <g>
      <path d="M2.95951 8.68607L2.92014 9.22266H3.45817H5.15625C5.35474 9.22266 5.51562 9.38354 5.51562 9.58203V17.6602C5.51562 17.8586 5.35474 18.0195 5.15625 18.0195H3.4375C1.8182 18.0195 0.5 16.7013 0.5 15.082V12.1602C0.5 11.0765 1.09077 10.1269 1.97059 9.61706L2.21699 9.47429L2.21988 9.18952C2.24339 6.87741 3.15315 4.70954 4.79072 3.07197C6.44995 1.41274 8.65353 0.5 11 0.5C12.8309 0.5 14.5837 1.05731 16.072 2.11204C17.5279 3.14381 18.6221 4.56888 19.2383 6.23467C19.3071 6.42078 19.2121 6.62748 19.026 6.69641C18.8397 6.7653 18.633 6.67014 18.5642 6.48406C17.3987 3.33365 14.3602 1.21875 11 1.21875C6.75384 1.21875 3.26538 4.5168 2.95951 8.68607ZM4.29688 17.3008H4.79688V16.8008V10.4414V9.94141H4.29688H3.4375C2.21364 9.94141 1.21875 10.9363 1.21875 12.1602V15.082C1.21875 16.3059 2.21364 17.3008 3.4375 17.3008H4.29688Z" stroke="#4AD4B9"/>
      <path d="M13.0039 20.6406V19.9219H15.125C15.875 19.9219 16.4844 19.3125 16.4844 18.5625V17.6602V15.4688V9.58203C16.4844 9.38354 16.6453 9.22266 16.8438 9.22266H18.5625C20.1818 9.22266 21.5 10.5409 21.5 12.1602V15.082C21.5 16.7013 20.1818 18.0195 18.5625 18.0195H17.7031H17.2031V18.5195V18.5625C17.2031 19.7079 16.2704 20.6406 15.125 20.6406H13.0039ZM12.0666 19.6916L12.3936 20.2812L12.0666 20.8709C11.858 21.2472 11.4582 21.5 11 21.5C10.3269 21.5 9.78125 20.9543 9.78125 20.2812C9.78125 19.6082 10.3269 19.0625 11 19.0625C11.4582 19.0625 11.858 19.3153 12.0666 19.6916ZM17.2031 16.8008V17.3008H17.7031H18.5625C19.7864 17.3008 20.7812 16.3059 20.7812 15.082V12.1602C20.7812 10.9363 19.7864 9.94141 18.5625 9.94141H17.7031H17.2031V10.4414V15.4688V16.8008Z" stroke="#4AD4B9"/>
    </g>
  </symbol>

  <symbol viewBox="0 0 23 23" id="like">
    <path d="M21.8604 8.57642C21.2794 8.08045 20.552 7.81121 19.8151 7.81121H19.0688H16.3811H14.8507V4.22606C14.8507 2.71926 14.4114 1.63286 13.5423 0.995181C12.1678 -0.01565 10.2736 0.560618 10.1933 0.588959C9.95716 0.664535 9.79656 0.881817 9.79656 1.12744V5.1377C9.79656 6.44611 9.17306 7.55614 7.94022 8.43943C7.01914 9.10072 6.07916 9.38886 5.97996 9.42192L5.84298 9.45499C5.63987 9.11017 5.26671 8.87872 4.83687 8.87872H1.16671C0.52431 8.87872 0 9.40303 0 10.0454V20.8339C0 21.4763 0.52431 22.0006 1.16671 22.0006H4.84632C5.20531 22.0006 5.53123 21.8353 5.74379 21.5802C6.33423 22.2085 7.17029 22.6005 8.0772 22.6005H11.19H11.5112H17.8927C20.0607 22.6005 21.4447 21.4669 21.6904 19.483L22.961 11.5995C23.1358 10.4658 22.7154 9.30383 21.8604 8.57642ZM4.87466 20.8339C4.87466 20.8528 4.86049 20.867 4.8416 20.867H1.16671C1.14781 20.867 1.13364 20.8528 1.13364 20.8339V10.0454C1.13364 10.0265 1.14781 10.0124 1.16671 10.0124H4.84632C4.86522 10.0124 4.87939 10.0265 4.87939 10.0454V20.8339H4.87466ZM21.8321 11.42L20.5662 19.3177C20.5662 19.3224 20.5662 19.3318 20.5614 19.3413C20.3867 20.7536 19.4892 21.4716 17.8879 21.4716H11.5065H11.1853H8.07248C7.06637 21.4716 6.19252 20.7206 6.03665 19.7286C6.03192 19.6956 6.02248 19.6625 6.01303 19.6294V10.5792L6.25865 10.5225C6.2681 10.5225 6.27282 10.5178 6.28227 10.5178C6.3295 10.5036 7.44898 10.1871 8.5779 9.38414C10.1225 8.28828 10.9349 6.81927 10.9349 5.1377V1.5809C11.4262 1.5006 12.267 1.45809 12.8763 1.91154C13.4337 2.32249 13.7171 3.10187 13.7171 4.22606V8.3733C13.7171 8.68506 13.9721 8.94013 14.2839 8.94013H16.3811H19.0688H19.8151C20.2828 8.94013 20.7504 9.1149 21.1235 9.43609C21.6809 9.91317 21.9549 10.6737 21.8321 11.42Z" />
  </symbol>

  <symbol viewBox="0 0 16 16" id="comment">
    <path d="M11.7124 12L7.85987 15.9941L7.14013 15.2998L11.2876 11H14C14.5523 11 15 10.5523 15 10V2C15 1.44772 14.5523 1 14 1H2C1.44772 1 1 1.44772 1 2V10C1 10.5523 1.44772 11 2 11H7.50203V12H2C0.89543 12 0 11.1046 0 10L0 2C0 0.89543 0.89543 0 2 0L14 0C15.1046 0 16 0.89543 16 2V10C16 11.1046 15.1046 12 14 12H11.7124Z" />
  </symbol>

  <symbol viewBox="0 0 16 14" id="heart">
    <path fill-rule="evenodd" clip-rule="evenodd" d="M11.584 0C10.108 0 8.802 0.724 8 1.835C7.198 0.724 5.892 0 4.416 0C1.977 0 0 1.977 0 4.416C0 5.732 0.575 6.913 1.488 7.722L7.981 13.869L14.438 7.787C15.394 6.977 16 5.768 16 4.416C16 1.977 14.022 0 11.584 0ZM11.584 1C13.468 1 15 2.533 15 4.416C15 5.422 14.56 6.373 13.791 7.024L13.771 7.041L13.752 7.059L7.983 12.494L2.151 6.974C1.42 6.325 1 5.393 1 4.416C1 2.533 2.533 1 4.416 1C5.511 1 6.547 1.531 7.189 2.42L8 3.544L8.811 2.42C9.452 1.531 10.489 1 11.584 1Z"/>
  </symbol>

  <symbol viewBox="0 0 68 68" id="m1">
    <g>
      <path d="M33.6175 13.8182C32.385 10.0183 24.9507 7.58021 24.0674 13.8181C23.0628 20.9132 33.6176 25 33.6176 25C33.6176 25 44.9415 20.9131 43.9369 13.8181C43.0536 7.58021 34.8501 10.0184 33.6175 13.8182Z" fill="#4AD4B9"/>
      <path d="M52.0715 20.8996C54.0959 17.3943 54.8794 13.8433 54.4011 10.3457C53.9689 7.18615 52.7313 4.6539 50.7227 2.81957C48.9649 1.21425 46.7087 0.254199 44.198 0.0431443C41.8273 -0.156606 39.4093 0.341706 37.3912 1.44539C35.9668 2.22417 34.8089 3.27572 33.9999 4.50322C33.191 3.27559 32.033 2.22417 30.6087 1.44539C28.5907 0.341706 26.1736 -0.156473 23.8019 0.0431443C21.2912 0.254199 19.0349 1.21425 17.2773 2.81957C15.2686 4.6539 14.0311 7.18615 13.5989 10.3457C13.1549 13.5919 13.7992 16.8901 15.5141 20.1489C16.8897 22.763 18.9629 25.3669 21.6758 27.8887C22.0794 28.2638 22.7104 28.2404 23.0855 27.8372C23.4605 27.4337 23.4374 26.8025 23.034 26.4275C17.3697 21.1626 14.8602 15.8428 15.5753 10.616C16.2582 5.62459 19.3958 2.41515 23.9689 2.03081C28.1327 1.67958 32.0341 3.85769 33.0481 7.09412C33.177 7.50533 33.569 7.79325 33.9999 7.79325C34.431 7.79325 34.8229 7.50546 34.9517 7.09412C35.9659 3.85782 39.8681 1.67972 44.0309 2.03081C48.6041 2.41515 51.7417 5.62445 52.4246 10.616C52.8408 13.659 52.1442 16.7774 50.3541 19.8845C48.8868 22.4313 46.689 24.9772 43.8221 27.4514C39.7047 31.0047 35.364 33.3916 33.9997 34.1039C32.8387 33.4986 29.5236 31.6823 26.0223 28.9605C25.5874 28.6226 24.9609 28.7008 24.6227 29.136C24.2846 29.5708 24.3632 30.1974 24.7981 30.5355C29.2902 34.0275 33.3915 36.0365 33.564 36.1203C33.837 36.2529 34.1632 36.2529 34.4363 36.1203C34.6593 36.0119 39.956 33.4145 45.0938 28.9889C48.1389 26.3661 50.4867 23.6443 52.0715 20.8996Z" fill="#578AD6"/>
      <path d="M67.5381 25.9919C67.0711 25.2485 66.3055 24.747 65.4375 24.6156C64.1863 24.4262 62.988 25.0297 62.3801 26.088C62.0606 25.869 61.6952 25.7171 61.3058 25.648C59.9597 25.4074 58.6252 26.2093 58.2043 27.5113L57.7369 28.9566C57.4847 28.7888 57.206 28.6599 56.9083 28.5832C55.4952 28.2189 54.0493 29.0252 53.6163 30.4191L53.3102 31.4051C52.9773 31.1797 52.5963 31.0255 52.19 30.9589C50.8118 30.7331 49.4972 31.533 49.0646 32.8612L45.8981 42.585C44.7533 43.0958 41.7409 44.6608 39.5351 47.7945C36.8453 51.6155 36.3645 56.3361 36.3453 56.5352C36.3424 56.5669 36.3408 56.5987 36.3408 56.6307V66.9978C36.3408 67.5488 36.7873 67.9952 37.3382 67.9952H48.8291C49.3801 67.9952 49.8265 67.5488 49.8265 66.9978V59.854L57.1686 53.8584C61.1347 50.6197 62.78 45.1391 64.2317 40.3036C64.3937 39.7639 65.1593 37.2658 65.1593 37.2658C65.3214 36.7393 65.0262 36.1812 64.4996 36.0188C63.9734 35.8568 63.415 36.1519 63.2529 36.6784C63.2529 36.6784 62.4846 39.1857 62.321 39.73C60.9518 44.2911 59.3998 49.4608 55.9068 52.3131L48.1982 58.608C47.9662 58.7975 47.8317 59.0812 47.8317 59.3807V66.0002H38.3357V56.6844C38.3886 56.2235 38.9139 52.1427 41.1663 48.9427C43.5127 45.6095 47.0158 44.2772 47.0489 44.2648C47.0835 44.252 47.1172 44.2373 47.1502 44.2208C47.1555 44.2181 47.1605 44.2149 47.1656 44.2121C47.2012 44.1936 47.2353 44.1728 47.2683 44.1502C47.2787 44.1431 47.2889 44.1359 47.299 44.1285C47.3343 44.1023 47.3683 44.0746 47.4 44.0439C47.4021 44.0419 47.4041 44.04 47.4062 44.0381L53.075 38.5009C53.3634 38.2023 53.6702 37.9196 53.9671 37.6295C54.1836 37.4181 54.3783 37.1925 54.6874 37.1259C54.9385 37.0718 55.2075 37.1221 55.4214 37.2645C55.8709 37.5637 55.9694 38.217 55.6344 38.6389L48.0483 48.1873C47.7348 48.5816 47.7648 49.1476 48.1177 49.5069C48.4709 49.8662 49.0364 49.9057 49.4359 49.5994L53.5437 46.4511C57.5701 43.3654 60.4665 39.1653 61.9194 34.3049L64.0218 27.2728C64.1865 26.7788 64.709 26.4875 65.2159 26.6027C65.7846 26.7318 66.1313 27.3375 65.9597 27.8943L64.4317 32.8534C64.2693 33.3799 64.5647 33.938 65.0911 34.1003C65.6173 34.2629 66.1758 33.9674 66.338 33.4409L67.866 28.4817C68.1245 27.6427 68.005 26.7353 67.5381 25.9919ZM50.9616 33.4788C51.1067 33.0329 51.6099 32.8015 52.0442 32.9769C52.43 33.1326 52.6359 33.5738 52.5136 33.9707L51.493 37.2576L48.9093 39.7815L50.9616 33.4788ZM54.8915 35.1074C54.6641 35.1074 54.4414 35.1361 54.225 35.1861L55.5215 31.0107C55.6386 30.6343 56.0293 30.4162 56.4106 30.515C56.6096 30.5663 56.7737 30.6937 56.873 30.8738C56.9719 31.0536 56.9917 31.2603 56.9288 31.4556L55.7098 35.2246C55.4582 35.1522 55.1962 35.1107 54.9275 35.1075C54.9154 35.1074 54.9035 35.1074 54.8915 35.1074ZM57.7069 38.9049C57.949 38.1038 57.8397 37.2239 57.3931 36.5014L58.8259 32.0714C58.826 32.0711 58.8262 32.0707 58.8263 32.0704C58.8264 32.0702 58.8264 32.0698 58.8266 32.0695L60.1023 28.1252C60.2183 27.7666 60.5859 27.5461 60.9567 27.6121C61.2477 27.664 61.4027 27.8529 61.4692 27.9608C61.5358 28.0689 61.6348 28.2925 61.5501 28.5757C61.5501 28.5759 61.5499 28.576 61.5499 28.5761L60.0081 33.7335C59.4591 35.5698 58.6852 37.3033 57.7069 38.9049Z" fill="#578AD6"/>
      <path d="M28.4648 47.7945C26.2589 44.6607 23.2464 43.0957 22.1016 42.585L18.9351 32.8612C18.5027 31.5331 17.1879 30.7327 15.8096 30.959C15.4035 31.0256 15.0225 31.1797 14.6896 31.4051L14.3833 30.419C13.9504 29.0253 12.5044 28.2186 11.0913 28.5832C10.7938 28.66 10.515 28.7888 10.2629 28.9567L9.79543 27.5113C9.37465 26.2095 8.0417 25.4078 6.69412 25.648C6.30472 25.7172 5.9394 25.869 5.61983 26.0881C5.0122 25.0297 3.81449 24.4261 2.56239 24.6156C1.6945 24.7469 0.92875 25.2485 0.461823 25.9919C-0.0052367 26.7353 -0.124661 27.6427 0.13387 28.4816L3.28519 38.7085C3.44611 39.2308 3.6061 39.7639 3.76808 40.3035C5.21979 45.1388 6.86501 50.6195 10.8312 53.8583C11.2581 54.2065 11.8863 54.1436 12.2347 53.7167C12.583 53.2899 12.5197 52.6615 12.0931 52.3131C8.59999 49.4609 7.048 44.2912 5.67887 39.73C5.51543 39.1856 5.35411 38.6479 5.1916 38.121L2.04028 27.8941C1.85928 27.3065 2.25426 26.6797 2.86069 26.5883C3.35155 26.5128 3.82127 26.8013 3.9782 27.2727L6.08063 34.3048C7.53368 39.1652 10.4299 43.3653 14.4565 46.4511L18.5642 49.5993C18.9643 49.9056 19.5295 49.8661 19.8824 49.5068C20.2354 49.1476 20.2653 48.5815 19.9519 48.1872L12.3659 38.6388C12.0697 38.2661 12.0972 37.7281 12.4298 37.3877C12.7908 37.0181 13.3999 37.0112 13.7693 37.372L14.923 38.4989C14.9239 38.4999 14.9248 38.5007 14.9258 38.5017L20.5942 44.0385C20.5958 44.0401 20.5974 44.0415 20.5988 44.043C20.6302 44.0736 20.6643 44.1011 20.6994 44.1273C20.7107 44.1357 20.7221 44.1437 20.7337 44.1517C20.7646 44.1727 20.7965 44.1921 20.8295 44.2095C20.8366 44.2134 20.8434 44.2179 20.8507 44.2215C20.8828 44.2374 20.9155 44.2518 20.9489 44.2643C20.984 44.2775 24.4871 45.6096 26.8335 48.943C29.087 52.1445 29.6117 56.2281 29.6641 56.6846V66.0005H20.1681V59.381C20.1681 59.0815 20.0335 58.7978 19.8016 58.6083L15.1916 54.8438C14.7647 54.4955 14.1363 54.5589 13.788 54.9855C13.4397 55.4123 13.5031 56.0407 13.9297 56.3891L18.1731 59.8543V66.9981C18.1731 67.5491 18.6196 67.9955 19.1705 67.9955H30.6614C31.2123 67.9955 31.6588 67.5491 31.6588 66.9981V56.631C31.6588 56.5991 31.6572 56.5673 31.6543 56.5355C31.6353 56.336 31.1545 51.6156 28.4648 47.7945ZM15.5716 33.303C15.6445 33.1852 15.814 32.9797 16.1324 32.9276C16.5324 32.8619 16.9129 33.094 17.0382 33.4788L19.0906 39.7814L16.5069 37.2575L15.4865 33.9714C15.3912 33.664 15.4988 33.4207 15.5716 33.303ZM7.9917 33.7334L6.44981 28.576C6.44981 28.5759 6.44981 28.5758 6.44968 28.5756C6.36497 28.2924 6.46391 28.0688 6.53054 27.9607C6.59703 27.8527 6.75223 27.6639 7.04321 27.612C7.41519 27.5468 7.78144 27.7668 7.89741 28.1251L9.17318 32.0694C9.17331 32.0698 9.17331 32.0701 9.17344 32.0704C9.17357 32.0708 9.17371 32.071 9.17384 32.0713L10.6067 36.5014C10.1601 37.224 10.0508 38.1038 10.2929 38.9051C9.31454 37.3035 8.54081 35.5698 7.9917 33.7334ZM13.0727 35.1076C12.8039 35.1108 12.5418 35.1523 12.2903 35.2246L11.0713 31.4557C11.0084 31.2603 11.0282 31.0539 11.1272 30.874C11.2263 30.6939 11.3904 30.5664 11.5896 30.515C11.9722 30.4166 12.3616 30.6345 12.4785 31.0107L13.7749 35.1855C13.5467 35.1328 13.3119 35.104 13.0727 35.1076Z" fill="#578AD6"/>
    </g>
  </symbol>

  <symbol viewBox="0 0 68 63" id="m2">
    <g>
      <path d="M36.8333 21.853C36.8333 22.5441 36.9666 23.2035 37.2063 23.8089C37.8522 24.088 38.564 24.2437 39.3121 24.2437C42.2459 24.2437 44.6246 21.865 44.6246 18.9312C44.6246 18.2401 44.4913 17.5807 44.2516 16.9748C43.6057 16.6956 42.8939 16.5405 42.1458 16.5405C39.2114 16.5405 36.8333 18.9187 36.8333 21.853Z" fill="#4AD4B9"/>
      <path d="M26.9336 8.9419C26.9336 9.45811 27.0166 9.95512 27.1676 10.421C27.7932 10.7214 28.4947 10.89 29.2355 10.89C31.8762 10.89 34.0168 8.74943 34.0168 6.10874C34.0168 5.59253 33.9338 5.09604 33.7828 4.63016C33.1566 4.32925 32.4552 4.16064 31.7148 4.16064C29.0742 4.16064 26.9336 6.30173 26.9336 8.9419Z" fill="#4AD4B9"/>
      <path d="M14.9187 27.1655C14.5696 27.1655 14.2266 27.3072 13.9797 27.5546C13.7327 27.8016 13.5906 28.144 13.5906 28.4937C13.5906 28.8428 13.7327 29.1852 13.9797 29.4322C14.2266 29.6791 14.5696 29.8218 14.9187 29.8218C15.2679 29.8218 15.6108 29.6796 15.8577 29.4322C16.1062 29.1852 16.2468 28.8428 16.2468 28.4937C16.2468 28.144 16.1062 27.8016 15.8577 27.5546C15.6108 27.3077 15.2679 27.1655 14.9187 27.1655Z" fill="#578AD6"/>
      <path d="M67.1535 21.1094C66.4702 20.8433 65.6998 21.1815 65.4336 21.8653C65.127 22.6533 64.5314 23.2749 63.7569 23.6157C63.0975 23.9057 62.3753 23.9618 61.6884 23.7828C61.8975 23.6292 62.0978 23.459 62.2876 23.2718C64.0785 21.5068 64.1273 18.5963 62.3966 16.7836C61.4477 15.7901 60.2529 15.3383 59.0311 15.5131C57.9562 15.6667 57.0145 16.3146 56.4491 17.2884L56.4309 17.3201C56.3116 17.525 56.2203 17.7211 56.1507 17.9203C55.8156 18.8827 55.7253 19.8523 55.8473 20.7805C52.86 18.0199 49.121 16.1683 45.0977 15.4939C45.0598 15.4877 45.022 15.484 44.9841 15.4809C43.8168 13.5692 41.711 12.2908 39.3121 12.2908C37.0309 12.2908 35.0154 13.4472 33.8195 15.2044H24.9688C23.7533 15.2044 22.5559 15.3061 21.3834 15.5048C17.7539 11.894 12.4206 10.4278 7.45464 11.6792C7.04945 11.7814 6.71586 12.0683 6.55452 12.4532C6.39265 12.8382 6.4217 13.2771 6.63234 13.6376L10.7724 20.7172C8.15553 23.1234 6.16697 26.1833 5.05052 29.5477H3.05054C1.36859 29.5482 0 30.9168 0 32.5987V39.7789C0 41.4609 1.36859 42.8295 3.05054 42.8295H5.04222C5.90809 45.4432 7.29173 47.8489 9.16356 49.9915C12.0232 53.2646 14.061 57.1307 15.0576 61.1711L15.1349 61.484C15.2812 62.077 15.813 62.4941 16.4242 62.4941H24.9688C25.7019 62.4941 26.2969 61.899 26.2969 61.1659V57.1733H40.276V61.1659C40.276 61.899 40.8705 62.4941 41.6041 62.4941H50.2442C50.8605 62.4941 51.3959 62.0702 51.5371 61.47L51.5723 61.3211C52.5409 57.2013 54.5824 53.2579 57.4752 49.9168C60.7722 46.1078 62.5885 41.2326 62.5885 36.1888C62.5885 32.5842 61.6583 29.0605 59.9224 25.9529C60.0687 26.0193 60.2171 26.0842 60.3701 26.1433C61.0555 26.41 61.7699 26.5433 62.4843 26.5433C63.2801 26.5433 64.0754 26.3778 64.8261 26.0479C66.2497 25.4217 67.3449 24.2787 67.9088 22.8292C68.1755 22.1449 67.8367 21.3755 67.1535 21.1094ZM39.3121 14.9471C41.5092 14.9471 43.2964 16.7344 43.2964 18.9315C43.2964 21.1281 41.5092 22.9159 39.3121 22.9159C37.1155 22.9159 35.3277 21.1281 35.3277 18.9315C35.3277 16.7344 37.1155 14.9471 39.3121 14.9471ZM18.242 16.2934C16.338 16.9325 14.5311 17.8487 12.8616 19.028L9.89092 13.9479C12.8574 13.6688 15.853 14.5087 18.242 16.2934ZM55.467 48.1778C52.4989 51.606 50.3464 55.6205 49.2076 59.8373H42.9322V55.8446C42.9322 55.1115 42.3377 54.5165 41.6041 54.5165H24.9688C24.2352 54.5165 23.6407 55.1115 23.6407 55.8446V59.8373H17.455C16.3022 55.6407 14.1368 51.6465 11.1641 48.2437C9.32595 46.1394 8.02791 43.7519 7.30626 41.1465C7.14699 40.5711 6.62352 40.1727 6.02638 40.1727H3.05054C2.83317 40.1727 2.65626 39.9958 2.65626 39.7784V32.5982C2.65626 32.3808 2.83317 32.2039 3.05054 32.2039H6.03416C6.6313 32.2039 7.15477 31.806 7.31404 31.2307C9.49715 23.3584 16.7567 17.8607 24.9688 17.8607H32.7591C32.7025 18.2093 32.6719 18.5668 32.6719 18.9315C32.6719 20.4251 33.1679 21.8051 34.0032 22.9159H21.5167C20.7831 22.9159 20.1886 23.5104 20.1886 24.244C20.1886 24.9776 20.7831 25.5721 21.5167 25.5721H46.5166C47.2502 25.5721 47.8448 24.9776 47.8448 24.244C47.8448 23.5104 47.2502 22.9159 46.5166 22.9159H44.6209C45.4567 21.8051 45.9527 20.4251 45.9527 18.9315C45.9527 18.7432 45.9428 18.5569 45.9273 18.3727C49.2912 19.18 52.2546 20.8874 54.5793 23.2116C54.5892 23.2225 54.598 23.2334 54.6084 23.2437C54.6218 23.2577 54.6359 23.2702 54.6499 23.2837C57.9411 26.6118 59.9318 31.185 59.9318 36.1888C59.9323 40.594 58.3463 44.8518 55.467 48.1778ZM60.4231 21.3802C60.0604 21.7371 59.6231 21.9753 59.1603 22.093C58.4916 21.2168 58.2083 20.0879 58.6591 18.7945C58.6685 18.7686 58.6872 18.724 58.7261 18.657L58.7447 18.6254C58.8988 18.3603 59.1458 18.1797 59.4067 18.1429C59.4498 18.1367 59.4918 18.1336 59.5333 18.1336C59.9255 18.1336 60.2581 18.3904 60.4755 18.6181C61.2106 19.388 61.1873 20.6269 60.4231 21.3802Z" fill="#578AD6"/>
      <path d="M54.4967 40.2806C53.8228 39.9911 53.042 40.3024 52.752 40.9758C51.4788 43.9361 49.0291 46.308 46.0314 47.4841C45.3487 47.7518 45.012 48.5228 45.2797 49.2055C45.4851 49.729 45.9863 50.0491 46.5165 50.0491C46.6779 50.0491 46.8423 50.0195 47.0011 49.9572C50.655 48.5238 53.6402 45.6325 55.1919 42.0258C55.4819 41.3519 55.1706 40.5706 54.4967 40.2806Z" fill="#578AD6"/>
      <path d="M29.2356 12.2183C32.6042 12.2183 35.345 9.47747 35.345 6.1089C35.345 2.74033 32.6042 -0.000488281 29.2356 -0.000488281C25.867 -0.000488281 23.1262 2.74033 23.1262 6.1089C23.1262 9.47747 25.867 12.2183 29.2356 12.2183ZM29.2356 2.65577C31.1396 2.65577 32.6887 4.2049 32.6887 6.1089C32.6887 8.01289 31.1396 9.56203 29.2356 9.56203C27.3316 9.56203 25.7825 8.01289 25.7825 6.1089C25.7825 4.2049 27.3316 2.65577 29.2356 2.65577Z" fill="#578AD6"/>
    </g>
  </symbol>

  <symbol viewBox="0 0 68 49" id="m3">
    <g>
      <path d="M61.293 27.563V36.1958C61.293 37.663 62.4821 38.8521 63.9492 38.8521H67.0039V24.9067H63.9492C62.4821 24.9067 61.293 26.0958 61.293 27.563Z" fill="#4AD4B9"/>
      <path d="M32.8279 26.9604C32.8279 33.929 27.1792 39.5776 20.2107 39.5776C13.2427 39.5776 7.59351 33.929 7.59351 26.9604C7.59351 19.9919 13.2427 14.3433 20.2107 14.3433C27.1792 14.3433 32.8279 19.9919 32.8279 26.9604Z" fill="#4AD4B9"/>
      <path d="M27.9138 26.9604C27.9138 31.2146 24.4654 34.6636 20.2107 34.6636C15.9565 34.6636 12.5076 31.2146 12.5076 26.9604C12.5076 22.7063 15.9565 19.2573 20.2107 19.2573C24.4654 19.2573 27.9138 22.7063 27.9138 26.9604Z" fill="white"/>
      <path d="M61.6914 5.71045H28.1796V3.65186C28.1796 1.63788 26.5412 -0.000488281 24.5273 -0.000488281H15.8944C13.881 -0.000488281 12.2421 1.63788 12.2421 3.65186V5.71045H6.30859C2.83005 5.71045 0 8.5405 0 12.019V41.9019C0 45.3804 2.83005 48.2104 6.30859 48.2104H10.1835C10.7339 48.2104 11.1796 47.7648 11.1796 47.2144C11.1796 46.6639 10.7339 46.2183 10.1835 46.2183H6.30859C3.92834 46.2183 1.99219 44.2821 1.99219 41.9019V12.019C1.99219 9.63879 3.92834 7.70264 6.30859 7.70264H61.6914C64.0717 7.70264 66.0078 9.63879 66.0078 12.019V23.9109H63.9492C61.9352 23.9109 60.2969 25.5493 60.2969 27.5633V36.1961C60.2969 38.2096 61.9352 39.8484 63.9492 39.8484H66.0078V41.9019C66.0078 44.2821 64.0717 46.2183 61.6914 46.2183H14.8319C14.282 46.2183 13.8358 46.6639 13.8358 47.2144C13.8358 47.7648 14.282 48.2104 14.8319 48.2104H61.6914C65.17 48.2104 68 45.3804 68 41.9019V12.019C68 8.5405 65.17 5.71045 61.6914 5.71045ZM14.2343 5.71045V3.65186C14.2343 2.73618 14.9793 1.9917 15.8944 1.9917H24.5273C25.4429 1.9917 26.1874 2.73618 26.1874 3.65186V5.71045H14.2343ZM63.9492 37.8563C63.0335 37.8563 62.2891 37.1113 62.2891 36.1961V27.5633C62.2891 26.6476 63.0335 25.9031 63.9492 25.9031H66.0078V37.8563H63.9492Z" fill="#578AD6"/>
      <path d="M57.9248 20.7876H50.7094C50.1594 20.7876 49.7133 21.2332 49.7133 21.7837C49.7133 22.3336 50.1594 22.7798 50.7094 22.7798H57.9248C59.2062 22.7798 60.249 21.737 60.249 20.4556V16.0728C60.249 14.7913 59.2062 13.7485 57.9248 13.7485H41.3232C40.0418 13.7485 38.999 14.7913 38.999 16.0728V20.4556C38.999 21.737 40.0418 22.7798 41.3232 22.7798H46.0609C46.6114 22.7798 47.057 22.3336 47.057 21.7837C47.057 21.2332 46.6114 20.7876 46.0609 20.7876H41.3232C41.1401 20.7876 40.9912 20.6387 40.9912 20.4556V16.0728C40.9912 15.8896 41.1401 15.7407 41.3232 15.7407H57.9248C58.1079 15.7407 58.2568 15.8896 58.2568 16.0728V20.4556C58.2568 20.6387 58.1079 20.7876 57.9248 20.7876Z" fill="#578AD6"/>
      <path d="M8.78311 21.5131C8.2695 21.3159 7.69363 21.5727 7.49649 22.0863C6.89987 23.6412 6.59741 25.2811 6.59741 26.9604C6.59741 34.4669 12.7042 40.5737 20.2107 40.5737C27.7172 40.5737 33.824 34.4669 33.824 26.9604C33.824 19.4539 27.7172 13.3472 20.2107 13.3472C16.3788 13.3472 12.7032 14.9757 10.1268 17.8156C9.7569 18.2228 9.78751 18.8527 10.1953 19.2226C10.6025 19.5919 11.2324 19.5613 11.6023 19.1541C13.802 16.7297 16.9397 15.3394 20.2107 15.3394C26.6189 15.3394 31.8318 20.5528 31.8318 26.9604C31.8318 33.3681 26.6189 38.5815 20.2107 38.5815C13.803 38.5815 8.5896 33.3681 8.5896 26.9604C8.5896 25.526 8.84744 24.1263 9.35638 22.7997C9.55353 22.2861 9.29672 21.7102 8.78311 21.5131Z" fill="#578AD6"/>
    </g>
  </symbol>


  <symbol viewBox="0 0 22 22" id="b-link">
    <g>
      <path d="M21 0H13C12.4477 0 12 0.447734 12 1.00001C12 1.55229 12.4477 2.00002 13 2.00002H18.5858L8.29291 12.2929C7.90236 12.6835 7.90236 13.3166 8.29291 13.7071C8.48811 13.9024 8.74404 14 8.99996 14C9.25588 14 9.51184 13.9024 9.70709 13.7071L20 3.41421V9.00002C20 9.5523 20.4477 10 21 10C21.5523 10 22 9.5523 22 9.00002V1.00001C22 0.447734 21.5522 0 21 0Z" />
      <path d="M17 9.99998C16.4477 9.99998 16 10.4477 16 11V20H1.99998V5.99998H11C11.5523 5.99998 12 5.55225 12 4.99997C12 4.44769 11.5523 4 11 4H1.00001C0.447734 4 0 4.44773 0 5.00001V21C0 21.5523 0.447734 22 1.00001 22H17C17.5523 22 18 21.5523 18 21V11C18 10.4477 17.5523 9.99998 17 9.99998Z" />
    </g>
  </symbol>


  



</svg>