<svg width="30" height="30" viewBox="0 0 30 30" fill="none" xmlns="http://www.w3.org/2000/svg">
<path fill-rule="evenodd" clip-rule="evenodd" d="M5 0C2.23858 0 0 2.23858 0 5V25C0 27.7614 2.23858 30 5 30H25C27.7614 30 30 27.7614 30 25V5C30 2.23858 27.7614 0 25 0H5ZM17.0683 16.6056V25.5H13.4945V16.6056H10.5V13.1387H13.4945V10.5809C13.4945 7.61312 15.3037 6 17.9506 6C19.2162 6 20.3035 6.08912 20.6243 6.13368V9.24406H18.7884C17.3446 9.24406 17.0683 9.92139 17.0683 10.9285V13.1387H20.4995L20.0539 16.6056H17.0683Z" fill="#000"/>
</svg>
