<svg width="24" height="24" viewBox="0 0 24 24" fill="none" xmlns="http://www.w3.org/2000/svg">
<path d="M5.99999 4H12.6162L18.9999 9.74536V19.2C18.9999 19.5453 18.6539 20 17.9999 20H5.99999C5.346 20 5 19.5453 5 19.2V4.8C5 4.45467 5.346 4 5.99999 4Z" fill="white" stroke="#007AC2" stroke-width="2" stroke-linecap="round" stroke-linejoin="round"/>
<mask id="path-2-inside-1" fill="white">
<path fill-rule="evenodd" clip-rule="evenodd" d="M12 4V9.3C12 9.85229 12.4477 10.3 13 10.3H19"/>
</mask>
<path fill-rule="evenodd" clip-rule="evenodd" d="M12 4V9.3C12 9.85229 12.4477 10.3 13 10.3H19" fill="white"/>
<path d="M14 4C14 2.89543 13.1046 2 12 2C10.8954 2 10 2.89543 10 4H14ZM19 12.3C20.1045 12.3 21 11.4046 21 10.3C21 9.19543 20.1045 8.3 19 8.3V12.3ZM10 4V9.3H14V4H10ZM13 12.3H19V8.3H13V12.3ZM10 9.3C10 10.9569 11.3431 12.3 13 12.3V8.3C13.5523 8.3 14 8.74771 14 9.3H10Z" fill="#007AC2" mask="url(#path-2-inside-1)"/>
</svg>
