<svg width="30" height="30" viewBox="0 0 30 30" fill="none" xmlns="http://www.w3.org/2000/svg">
<path d="M8.7 0H21.3C26.1 0 30 3.9 30 8.7V21.3C30 26.1 26.1 30 21.3 30H8.7C3.9 30 0 26.1 0 21.3V8.7C0 3.9 3.9 0 8.7 0ZM8.4 3C5.415 3 3 5.415 3 8.4V21.6C3 24.585 5.415 27 8.4 27H21.6C24.585 27 27 24.585 27 21.6V8.4C27 5.415 24.585 3 21.6 3H8.4ZM22.875 5.25C23.91 5.25 24.75 6.09 24.75 7.125C24.75 8.16 23.91 9 22.875 9C21.84 9 21 8.16 21 7.125C21 6.09 21.84 5.25 22.875 5.25ZM15 7.5C19.14 7.5 22.5 10.86 22.5 15C22.5 19.14 19.14 22.5 15 22.5C10.86 22.5 7.5 19.14 7.5 15C7.5 10.86 10.86 7.5 15 7.5ZM15 10.5C12.51 10.5 10.5 12.51 10.5 15C10.5 17.49 12.51 19.5 15 19.5C17.49 19.5 19.5 17.49 19.5 15C19.5 12.51 17.49 10.5 15 10.5Z" fill="white"/>
</svg>
