<svg width="12" height="12" viewBox="0 0 12 12" fill="none" xmlns="http://www.w3.org/2000/svg">
<path fill-rule="evenodd" clip-rule="evenodd" d="M6.2706 1.25538C7.51313 0.0552979 9.4882 0.0724606 10.7097 1.29395C11.9312 2.51544 11.9483 4.49051 10.7483 5.73304L10.7401 5.74131L9.24023 7.24122C8.59066 7.89102 7.69089 8.22667 6.77444 8.16103C5.85799 8.0954 5.01523 7.63496 4.46489 6.89922C4.24436 6.60439 4.30459 6.1866 4.59942 5.96606C4.89425 5.74552 5.31204 5.80575 5.53258 6.10058C5.8512 6.52654 6.33911 6.79311 6.86969 6.8311C7.40026 6.8691 7.92118 6.67478 8.29725 6.29858L8.29733 6.2985L9.79293 4.8029C10.484 4.08332 10.4728 2.94268 9.76688 2.23676C9.06075 1.53063 7.91964 1.51968 7.20009 2.21134L6.34377 3.06268C6.08266 3.32227 5.66055 3.32104 5.40096 3.05993C5.14137 2.79882 5.1426 2.37671 5.40371 2.11713L6.26371 1.26213L6.2706 1.25538Z" fill="white"/>
<path fill-rule="evenodd" clip-rule="evenodd" d="M2.76032 4.75864C3.40989 4.10889 4.30962 3.77328 5.22603 3.83891C6.14248 3.90454 6.98523 4.36498 7.53557 5.10072C7.75611 5.39556 7.69588 5.81335 7.40105 6.03388C7.10622 6.25442 6.68842 6.19419 6.46789 5.89936C6.14927 5.47341 5.66136 5.20684 5.13078 5.16884C4.60021 5.13084 4.07929 5.32516 3.70322 5.70136L2.20754 7.19704C1.51651 7.91662 1.52767 9.05727 2.23359 9.76318C2.9395 10.4691 4.08015 10.4803 4.79973 9.78923L5.65033 8.93864C5.91068 8.67829 6.33278 8.67829 6.59313 8.93864C6.85348 9.19899 6.85348 9.6211 6.59313 9.88144L5.73813 10.7364L5.72987 10.7446C4.48734 11.9446 2.51227 11.9275 1.29078 10.706C0.0692867 9.4845 0.0521239 7.50943 1.2522 6.2669L1.26032 6.25864L2.76032 4.75864C2.7603 4.75866 2.76035 4.75861 2.76032 4.75864Z" fill="white"/>
</svg>
