<svg width="50" height="50" viewBox="0 0 50 50" fill="none" xmlns="http://www.w3.org/2000/svg">
<path d="M44.8358 30.3163L49.9993 25.0031L44.8358 19.6869L46.6516 12.5L39.5198 10.4797L37.4995 3.35081L30.3158 5.16357L24.9998 0L19.6867 5.16357L12.4999 3.35081L10.4795 10.4797L3.34778 12.5L5.16347 19.6869L0 25.0031L5.16347 30.3163L3.34778 37.5001L10.4795 39.5233L12.4999 46.6523L19.6867 44.8364L24.9998 50L30.3158 44.8364L37.4995 46.6523L39.5198 39.5233L46.6516 37.5001L44.8358 30.3163Z" fill="#FF6347"/>
<path d="M17.2639 34.402C21.3944 38.5325 28.109 38.5325 32.2395 34.402C36.37 30.2715 36.37 23.5568 32.2395 19.4264C28.109 15.2959 21.3944 15.2959 17.2639 19.4264C13.1334 23.5568 13.1334 30.2503 17.2639 34.402ZM18.7678 20.9091C22.0722 17.6047 27.4312 17.6047 30.7568 20.9091C34.0612 24.2135 34.0612 29.5725 30.7568 32.8981C27.4524 36.2025 22.0934 36.2025 18.7678 32.8981C15.4634 29.5937 15.4634 24.2135 18.7678 20.9091Z" fill="white"/>
<path d="M24.7628 33.2582C28.279 33.2582 31.1174 30.4199 31.1174 26.9037C31.1174 23.3875 28.279 20.5491 24.7628 20.5491V26.9037H18.4082C18.4082 30.4199 21.2466 33.2582 24.7628 33.2582Z" fill="white"/>
<path d="M27.9405 12.5H21.5859V14.6182H27.9405V12.5Z" fill="white"/>
</svg>
