<svg width="50" height="50" viewBox="0 0 50 50" fill="none" xmlns="http://www.w3.org/2000/svg">
<path d="M44.8358 30.3163L49.9993 25.0031L44.8358 19.6869L46.6516 12.5L39.5198 10.4797L37.4995 3.35081L30.3158 5.16357L24.9998 0L19.6867 5.16357L12.4999 3.35081L10.4795 10.4797L3.34778 12.5L5.16347 19.6869L0 25.0031L5.16347 30.3163L3.34778 37.5001L10.4795 39.5233L12.4999 46.6523L19.6867 44.8364L24.9998 50L30.3158 44.8364L37.4995 46.6523L39.5198 39.5233L46.6516 37.5001L44.8358 30.3163Z" fill="#FF6347"/>
<path d="M12.9926 29.4995C12.9423 29.5498 12.8826 29.597 12.8134 29.641C12.7474 29.6881 12.7003 29.7227 12.672 29.7447L12.0969 29.1695C12.1755 29.1098 12.2383 29.0564 12.2855 29.0093C12.4426 28.8521 12.5196 28.6871 12.5165 28.5143C12.5102 28.3383 12.3923 28.0979 12.1629 27.793C11.9366 27.4851 11.5517 27.0592 11.008 26.5155L10.3951 25.9027L12.6202 23.6777L15.6796 26.7371L14.9442 27.4725L12.4033 24.9316L11.5784 25.7566L12.0026 26.1808C12.584 26.7622 12.98 27.2651 13.1906 27.6893C13.4043 28.1105 13.4813 28.4609 13.4216 28.7406C13.365 29.0171 13.222 29.2701 12.9926 29.4995Z" fill="white"/>
<path d="M13.2799 23.0179L14.0153 22.2825L16.1083 24.3756L15.3352 20.9626L16.0706 20.2272L19.13 23.2866L18.3947 24.022L16.2686 21.896L17.0747 25.342L16.3393 26.0774L13.2799 23.0179Z" fill="white"/>
<path d="M19.0095 22.3607L19.0755 22.2947C19.2043 22.1659 19.2593 22.0134 19.2405 21.8374C19.2216 21.6552 19.1022 21.41 18.8822 21.102C18.6622 20.7941 18.3102 20.3981 17.8262 19.9141L17.105 19.1929L19.33 16.9678L21.8662 19.504L22.314 19.0562L23.5491 20.2912L22.8891 20.9512L22.1773 20.2394L20.1927 22.224L20.9045 22.9358L20.2445 23.5958L19.0095 22.3607ZM21.1355 20.2441L19.1132 18.2218L18.2835 19.0514L18.6606 19.4286C19.4557 20.2237 19.902 20.8742 19.9994 21.3802L21.1355 20.2441Z" fill="white"/>
<path d="M20.2129 16.085L22.5463 13.7515L23.0696 14.2748L21.4715 15.8728L22.1739 16.5752L23.6164 15.1327L24.1397 15.656L22.6972 17.0985L23.4844 17.8857L25.1296 16.2405L25.6529 16.7638L23.2723 19.1444L20.2129 16.085Z" fill="white"/>
<path d="M23.0901 13.2078L24.3158 11.9821C24.6143 11.6835 24.8704 11.4683 25.0841 11.3363C25.301 11.2011 25.5005 11.1461 25.6828 11.1713C25.8651 11.1901 26.0474 11.2907 26.2297 11.473L26.8095 12.0528C27.0106 12.2539 27.1237 12.4551 27.1489 12.6562C27.1772 12.8542 27.1206 13.071 26.9792 13.3067C26.8409 13.5393 26.6131 13.8143 26.2956 14.1317L25.8902 14.5371L26.8849 15.5318L26.1495 16.2672L23.0901 13.2078ZM25.8525 13.566C26.0442 13.3743 26.1574 13.2172 26.1919 13.0946C26.2234 12.9689 26.1841 12.8511 26.0741 12.7411L25.5838 12.2508C25.4833 12.1502 25.3796 12.1219 25.2727 12.1659C25.169 12.2068 25.0134 12.3309 24.806 12.5384L24.3487 12.9956L25.3858 14.0327L25.8525 13.566Z" fill="white"/>
<path d="M11.526 35.3785L12.5725 34.332L15.514 35.765L14.0715 32.8329L15.0568 31.8477L18.1162 34.9071L17.4515 35.5718L15.1888 33.309L15.1746 33.3232L16.6643 36.359L16.075 36.9483L13.0156 35.4822L12.9967 35.5011L15.2595 37.7638L14.5854 38.4379L11.526 35.3785Z" fill="white"/>
<path d="M16.526 30.3784L17.4217 29.4828L21.5842 31.4391L20.8394 32.1839L19.7598 31.6512L18.6426 32.7685L19.18 33.8433L18.4541 34.5692L16.526 30.3784ZM19.1093 31.3213L17.5725 30.5576L17.5537 30.5764L18.3173 32.1132L19.1093 31.3213Z" fill="white"/>
<path d="M18.864 28.0404L19.5994 27.305L21.6925 29.3981L20.9194 25.9851L21.6547 25.2497L24.7142 28.3091L23.9788 29.0445L21.8527 26.9185L22.6588 30.3644L21.9234 31.0998L18.864 28.0404ZM19.9388 26.3151C19.6277 26.6262 19.3244 26.7943 19.029 26.8195C18.7305 26.8415 18.4712 26.7425 18.2512 26.5225L18.8405 25.9332C18.9913 26.0527 19.1217 26.1139 19.2317 26.1171C19.3449 26.1171 19.458 26.0605 19.5711 25.9474C19.6843 25.8342 19.7393 25.7227 19.7361 25.6127C19.7361 25.4996 19.6764 25.3676 19.557 25.2167L20.1463 24.6275C20.3662 24.8474 20.4652 25.1067 20.4432 25.4053C20.4181 25.7007 20.25 26.004 19.9388 26.3151Z" fill="white"/>
<path d="M26.7762 26.3414C26.6379 26.4797 26.5075 26.5975 26.3849 26.6949C26.2655 26.7892 26.1241 26.8835 25.9607 26.9778C25.7784 27.0846 25.6102 27.1553 25.4563 27.1899C25.2991 27.2213 25.1341 27.2135 24.9613 27.1663C24.7853 27.1223 24.6219 27.0249 24.471 26.8741L23.1275 25.5306C22.5115 24.9146 22.6765 24.1336 23.6225 23.1877C23.8645 22.9457 24.2227 22.6566 24.6973 22.3203L25.2488 22.8718C24.7963 23.1484 24.4317 23.425 24.1552 23.7015C24.0389 23.8178 23.9509 23.9121 23.8912 23.9844C23.8346 24.0535 23.7843 24.1352 23.7403 24.2295C23.6429 24.4275 23.6806 24.6129 23.8535 24.7857L25.1546 26.0868C25.4311 26.3634 25.8224 26.2487 26.3284 25.7427C26.5452 25.5258 26.8045 25.1754 27.1062 24.6915L27.6624 25.2477C27.3953 25.6531 27.0999 26.0177 26.7762 26.3414Z" fill="white"/>
<path d="M25.1295 21.775L25.8649 21.0396L27.0717 22.2464C27.2099 22.1081 27.2964 21.9714 27.3309 21.8363C27.3624 21.698 27.3545 21.5047 27.3074 21.2564L27.0528 19.8516L27.8778 19.0267L28.137 20.6059C28.1779 20.8479 28.1936 21.049 28.1842 21.2093C28.1747 21.3633 28.1323 21.5251 28.0569 21.6948L28.0663 21.7043C28.2612 21.5848 28.4592 21.522 28.6603 21.5157C28.8646 21.5063 29.1097 21.544 29.3957 21.6288L30.9372 22.0861L30.1122 22.9111L28.7122 22.5104C28.5267 22.4569 28.3727 22.4318 28.2502 22.4349C28.1276 22.4318 28.0176 22.4569 27.9202 22.5104C27.8228 22.5638 27.7143 22.6502 27.5949 22.7696L28.9243 24.099L28.1889 24.8344L25.1295 21.775Z" fill="white"/>
<path d="M28.2185 18.686L28.9539 17.9506L31.0469 20.0436L30.2738 16.6307L31.0092 15.8953L34.0686 18.9547L33.3332 19.6901L31.2072 17.564L32.0133 21.01L31.2779 21.7454L28.2185 18.686Z" fill="white"/>
<path d="M34.014 15.8886L31.4354 15.469L32.284 14.6205L33.9574 14.9835L33.5898 13.3147L34.4383 12.4662L34.8578 15.0448L37.5495 15.4737L36.6963 16.327L34.9144 15.9404L35.2962 17.7271L34.4477 18.5756L34.014 15.8886Z" fill="white"/>
<path d="M18.5487 38.9624L21.2451 36.2659L24.3045 39.3253L23.5691 40.0607L21.0283 37.5199L19.8026 38.7455L22.3435 41.2864L21.6081 42.0218L18.5487 38.9624Z" fill="white"/>
<path d="M21.9047 35.6064L23.1303 34.3807C23.4289 34.0822 23.685 33.8669 23.8987 33.7349C24.1156 33.5998 24.3151 33.5448 24.4974 33.5699C24.6797 33.5888 24.862 33.6893 25.0442 33.8716L25.6241 34.4514C25.8252 34.6526 25.9383 34.8537 25.9635 35.0548C25.9918 35.2528 25.9352 35.4697 25.7938 35.7054C25.6555 35.9379 25.4276 36.2129 25.1102 36.5303L24.7048 36.9357L25.6995 37.9304L24.9641 38.6658L21.9047 35.6064ZM24.6671 35.9646C24.8588 35.7729 24.972 35.6158 25.0065 35.4932C25.038 35.3675 24.9987 35.2497 24.8887 35.1397L24.3984 34.6494C24.2978 34.5489 24.1941 34.5206 24.0873 34.5646C23.9836 34.6054 23.828 34.7296 23.6206 34.937L23.1633 35.3942L24.2004 36.4313L24.6671 35.9646Z" fill="white"/>
<path d="M29.3479 34.3762C29.1782 34.5459 29.0101 34.6921 28.8435 34.8146C28.6801 34.9341 28.4947 35.0441 28.2873 35.1446C28.0641 35.2546 27.8426 35.2939 27.6226 35.2625C27.3995 35.2279 27.1968 35.1195 27.0145 34.9372L25.6757 33.5984C25.5248 33.4476 25.4227 33.2794 25.3693 33.094C25.319 32.9054 25.3127 32.7232 25.3504 32.5472C25.385 32.3932 25.451 32.2266 25.5484 32.0475C25.6458 31.8684 25.7496 31.7144 25.8595 31.5855C25.9601 31.4661 26.0717 31.3451 26.1942 31.2225C26.3388 31.078 26.4708 30.9585 26.5902 30.8643C26.7065 30.7668 26.8479 30.6694 27.0145 30.572C27.2093 30.4651 27.3869 30.3944 27.5472 30.3599C27.7075 30.3253 27.8772 30.3316 28.0563 30.3787C28.2417 30.4259 28.4161 30.5311 28.5796 30.6946L29.9183 32.0333C30.088 32.2031 30.1886 32.3948 30.22 32.6085C30.2546 32.819 30.2248 33.0343 30.1305 33.2543C29.9608 33.6503 29.6999 34.0242 29.3479 34.3762ZM28.8341 33.8435C28.9378 33.7398 29.0211 33.6503 29.084 33.5748C29.1468 33.4931 29.2049 33.4036 29.2584 33.3061C29.3118 33.2087 29.3322 33.116 29.3197 33.028C29.3071 32.9337 29.2615 32.8473 29.1829 32.7687L27.8394 31.4252C27.6949 31.2807 27.5346 31.2367 27.3586 31.2932C27.1795 31.3467 26.9673 31.4959 26.7222 31.7411C26.4771 31.9862 26.3262 32.1968 26.2697 32.3728C26.2131 32.5487 26.2587 32.7106 26.4064 32.8583L27.7499 34.2018C27.8284 34.2804 27.9149 34.3259 28.0091 34.3385C28.1003 34.3479 28.1961 34.3244 28.2967 34.2678C28.3941 34.2144 28.4821 34.1578 28.5607 34.0981C28.6393 34.0321 28.7304 33.9472 28.8341 33.8435Z" fill="white"/>
<path d="M30.5667 32.0167L30.6327 31.9507C30.7616 31.8218 30.8165 31.6694 30.7977 31.4934C30.7788 31.3111 30.6594 31.066 30.4394 30.758C30.2194 30.45 29.8675 30.054 29.3835 29.5701L28.6622 28.8488L30.8873 26.6238L33.4234 29.16L33.8712 28.7121L35.1063 29.9472L34.4464 30.6072L33.7345 29.8953L31.7499 31.88L32.4618 32.5918L31.8018 33.2517L30.5667 32.0167ZM32.6927 29.9001L30.6704 27.8777L29.8407 28.7074L30.2179 29.0845C31.013 29.8796 31.4592 30.5302 31.5567 31.0361L32.6927 29.9001Z" fill="white"/>
<path d="M32.5809 24.9301L33.4766 24.0345L37.6391 25.9908L36.8943 26.7356L35.8148 26.2029L34.6975 27.3201L35.2349 28.395L34.509 29.1209L32.5809 24.9301ZM35.1642 25.8729L33.6274 25.1093L33.6086 25.1281L34.3723 26.6649L35.1642 25.8729Z" fill="white"/>
<path d="M37.2147 24.4164C37.1298 24.1305 37.0905 23.8869 37.0968 23.6858C37.1063 23.4815 37.1707 23.2819 37.2901 23.0871L37.2807 23.0777C37.111 23.1531 36.9554 23.1924 36.814 23.1955C36.6694 23.1955 36.4762 23.1688 36.2342 23.1154L34.7304 22.7807L35.5459 21.9651L36.88 22.2904C37.1283 22.3501 37.3105 22.3753 37.4268 22.3658C37.5462 22.3533 37.6562 22.2967 37.7568 22.1961L36.5359 20.9752L37.2571 20.2539L38.478 21.4749C38.5786 21.3743 38.6336 21.2659 38.643 21.1496C38.6556 21.0302 38.632 20.8463 38.5723 20.5981L38.2471 19.264L39.0626 18.4485L39.3973 19.9522C39.4507 20.1942 39.4774 20.3875 39.4774 20.5321C39.4743 20.6735 39.435 20.8291 39.3596 20.9988L39.369 21.0082C39.5639 20.8888 39.7618 20.8259 39.963 20.8196C40.1672 20.8102 40.4124 20.8479 40.6984 20.9328L42.2399 21.39L41.4243 22.2056L40.0243 21.8049C39.82 21.7452 39.666 21.7106 39.5623 21.7012C39.4554 21.6886 39.3596 21.7027 39.2747 21.7436C39.1867 21.7813 39.0862 21.8567 38.973 21.9699L40.3165 23.3134L39.5953 24.0346L38.2518 22.6911C38.1386 22.8042 38.0632 22.9048 38.0255 22.9928C37.9846 23.0777 37.9705 23.1735 37.9831 23.2804C37.9925 23.3841 38.0271 23.5381 38.0868 23.7423L38.4875 25.1424L37.6719 25.9579L37.2147 24.4164Z" fill="white"/>
</svg>
