<svg width="30" height="30" viewBox="0 0 30 30" fill="none" xmlns="http://www.w3.org/2000/svg">
<path d="M19.605 0H10.395C1.995 0 0 1.995 0 10.395V19.605C0 28.005 1.995 30 10.395 30H19.605C28.005 30 30 28.005 30 19.605V10.395C30 1.995 28.005 0 19.605 0ZM24.225 21.405H22.035C21.21 21.405 20.955 20.73 19.5 19.245C18.18 18 17.61 17.82 17.295 17.82C16.86 17.82 16.725 17.94 16.725 18.57V20.535C16.725 21.06 16.56 21.39 15.165 21.39C12.855 21.39 10.29 19.98 8.49 17.385C5.775 13.575 5.04 10.695 5.04 10.125C5.04 9.81 5.145 9.51 5.775 9.51H7.98C8.535 9.51 8.745 9.75 8.955 10.35C10.035 13.5 11.835 16.2 12.57 16.2C12.855 16.2 12.975 16.065 12.975 15.375V12.15C12.9 10.68 12.105 10.545 12.105 10.02C12.105 9.75 12.315 9.51 12.66 9.51H16.095C16.56 9.51 16.725 9.75 16.725 10.32V14.655C16.725 15.12 16.92 15.285 17.07 15.285C17.34 15.285 17.58 15.12 18.075 14.61C19.65 12.855 20.775 10.14 20.775 10.14C20.925 9.825 21.165 9.525 21.75 9.525H23.895C24.555 9.525 24.705 9.87 24.555 10.335C24.285 11.61 21.615 15.375 21.645 15.375C21.405 15.75 21.315 15.915 21.645 16.35C21.87 16.665 22.635 17.325 23.145 17.91C24.075 18.975 24.795 19.86 24.99 20.475C25.155 21.09 24.855 21.405 24.225 21.405Z" fill="white"/>
</svg>
