<svg width="24" height="16" viewBox="0 0 24 16" fill="none" xmlns="http://www.w3.org/2000/svg">
<path fill-rule="evenodd" clip-rule="evenodd" d="M24 8C24 9.26237 23.0232 10.2857 21.8182 10.2857V12.5676C21.8182 14.4633 20.3528 16 18.5459 16H3.2723C1.46506 16 0 14.4659 0 12.5676V3.4324C0 1.53674 1.46543 0 3.2723 0H18.5459C20.3531 0 21.8182 1.53415 21.8182 3.4324V5.71429C23.0232 5.71429 24 6.73764 24 8ZM2.18182 3.4324V12.5676C2.18182 13.203 2.66954 13.7143 3.2723 13.7143H18.5459C19.1473 13.7143 19.6364 13.2014 19.6364 12.5676V3.4324C19.6364 2.79704 19.1486 2.28571 18.5459 2.28571H3.2723C2.67086 2.28571 2.18182 2.79864 2.18182 3.4324ZM3.27273 4.56803C3.27273 3.93873 3.75639 3.42857 4.3626 3.42857H6.54649C7.14841 3.42857 7.63636 3.93972 7.63636 4.56803V11.432C7.63636 12.0613 7.15271 12.5714 6.54649 12.5714H4.3626C3.76068 12.5714 3.27273 12.0603 3.27273 11.432V4.56803ZM8.72727 4.56803C8.72727 3.93873 9.21093 3.42857 9.81715 3.42857H12.001C12.603 3.42857 13.0909 3.93972 13.0909 4.56803V11.432C13.0909 12.0613 12.6073 12.5714 12.001 12.5714H9.81715C9.21523 12.5714 8.72727 12.0603 8.72727 11.432V4.56803ZM14.1818 4.56803C14.1818 3.93873 14.6655 3.42857 15.2717 3.42857H17.4556C18.0575 3.42857 18.5455 3.93972 18.5455 4.56803V11.432C18.5455 12.0613 18.0618 12.5714 17.4556 12.5714H15.2717C14.6698 12.5714 14.1818 12.0603 14.1818 11.432V4.56803Z" fill="url(#paint0_linear)"/>
<defs>
<linearGradient id="paint0_linear" x1="3.25926" y1="2.59898" x2="20.7953" y2="19.3541" gradientUnits="userSpaceOnUse">
<stop stop-color="#2A3275"/>
<stop offset="0.994792" stop-color="#0094FF"/>
</linearGradient>
</defs>
</svg>
