<svg width="34" height="17" viewBox="0 0 34 17" fill="none" xmlns="http://www.w3.org/2000/svg">
<path d="M34 5.45493C34 4.90264 33.5523 4.45493 33 4.45493H31.8505C31.2982 4.45493 30.8505 4.00721 30.8505 3.45493V1C30.8505 0.447715 30.4028 0 29.8505 0H1C0.447716 0 0 0.447715 0 1V16C0 16.5523 0.447715 17 1 17H29.8505C30.4028 17 30.8505 16.5523 30.8505 16V13.5094C30.8505 12.9571 31.2982 12.5094 31.8505 12.5094H33C33.5523 12.5094 34 12.0617 34 11.5094V5.45493ZM29.2042 15.3606H2.64631C2.09403 15.3606 1.64632 14.9129 1.64632 14.3606V2.60377C1.64632 2.05149 2.09403 1.60377 2.64632 1.60377H28.24C28.7923 1.60377 29.24 2.05149 29.24 2.60377V15.3248C29.24 15.3446 29.224 15.3606 29.2042 15.3606Z" fill="black"/>
<path d="M8.12406 3.24316H3.29248V13.7212H8.12406V3.24316Z" fill="#06E775"/>
<path d="M14.6021 3.24316H9.77051V13.7212H14.6021V3.24316Z" fill="#06E775"/>
<path d="M21.0801 3.24316H16.2485V13.7212H21.0801V3.24316Z" fill="#06E775"/>
<path d="M27.5577 3.24316H22.7261V13.7212H27.5577V3.24316Z" fill="#06E775"/>
</svg>
