<svg width="40" height="36" viewBox="0 0 40 36" fill="none" xmlns="http://www.w3.org/2000/svg">
<path fill-rule="evenodd" clip-rule="evenodd" d="M16 27V33.9915C16 35.1007 15.1123 36 14 36C12.8954 36 12 35.098 12 33.9915V27H11C4.92487 27 0 22.0751 0 16C0 9.92487 4.92487 5 11 5C13.0844 1.98047 16.5609 0 20.5 0C26.0032 0 30.6036 3.86553 31.734 9.0295C36.3613 9.40298 40 13.2766 40 18C40 22.9706 35.9706 27 31 27H28V33.9915C28 35.1007 27.1123 36 26 36C24.8954 36 24 35.098 24 33.9915V27H22V33.9915C22 35.1007 21.1123 36 20 36C18.8954 36 18 35.098 18 33.9915V27H16ZM4 16C4 19.866 7.13401 23 11 23H31C33.7614 23 36 20.7614 36 18C36 15.3911 33.9921 13.2248 31.4122 13.0165H29.6322C29.0767 13.0165 28.5152 12.5811 28.3777 12.0428L27.8265 9.88487C27.0801 6.47511 24.0408 4 20.5 4C20.1714 4 19.8465 4.02121 19.5268 4.06266C15.8427 4.54156 13 7.6888 13 11.5C13 12.6046 12.1046 13.5 11 13.5C9.89543 13.5 9 12.6046 9 11.5C9 10.7224 9.07719 9.96273 9.22432 9.22838C6.21598 10.0159 4 12.7492 4 16Z" fill="white"/>
</svg>
