<svg width="59" height="68" viewBox="0 0 59 68" fill="none" xmlns="http://www.w3.org/2000/svg">
<path d="M2 0C0.89543 0 0 0.895431 0 2V66C0 67.1046 0.895431 68 2 68H57C58.1046 68 59 67.1046 59 66V2C59 0.895432 58.1046 0 57 0H2ZM3.93333 5.98438C3.93333 4.87981 4.82876 3.98438 5.93333 3.98438H53.0667C54.1712 3.98438 55.0667 4.87981 55.0667 5.98438V62.0156C55.0667 63.1202 54.1712 64.0156 53.0667 64.0156H5.93334C4.82877 64.0156 3.93333 63.1202 3.93333 62.0156V51.9298H7.86667V59.8986H51.1333V8.10164H7.86667V16.0704H3.93333V5.98438ZM11.8 12.086H47.2V55.9142H11.8V12.086ZM29.5 15.4669L15.9918 35.9923H43.008L29.5 15.4669ZM3.93333 20.0548H7.86667V24.0392H3.93333V20.0548ZM29.5 22.6503L35.6585 32.0079H23.3413L29.5 22.6503ZM3.93333 28.0235H7.86667V39.9767H3.93333V28.0235ZM15.7333 39.9767V43.961H43.2667V39.9767H15.7333ZM3.93333 43.961H7.86667V47.9454H3.93333V43.961ZM15.7333 47.9454V51.9298H43.2667V47.9454H15.7333Z" fill="#333333"/>
</svg>
