<svg width="62" height="51" viewBox="0 0 62 51" fill="none" xmlns="http://www.w3.org/2000/svg">
<path d="M2 3V48C2 48.5523 2.44771 49 3 49H59C59.5523 49 60 48.5523 60 48V3C60 2.44772 59.5523 2 59 2H3C2.44772 2 2 2.44772 2 3Z" stroke="#333333" stroke-width="3"/>
<path d="M50.9848 19.511H51.4848V19.011V18.011V17.511H50.9848H47.9868H47.4868V18.011V19.011V19.511H47.9868H50.9848ZM47.4868 22.01V22.51H47.9868H50.9848H51.4848V22.01V21.011V20.511H50.9848H47.9868H47.4868V21.011V22.01ZM51.4848 12.009V11.509H50.9848H47.9868H47.4868V12.009V16.011V16.511H47.9868H50.9848H51.4848V16.011V12.009ZM51.9848 23.51H46.9868C46.71 23.51 46.4868 23.2869 46.4868 23.01V11.009C46.4868 10.7322 46.71 10.509 46.9868 10.509H51.9848C52.2617 10.509 52.4848 10.7322 52.4848 11.009V23.01C52.4848 23.2869 52.2617 23.51 51.9848 23.51Z" fill="black" stroke="#333333"/>
<path d="M41.9868 16.508H42.4868V16.008V15.008V14.508H41.9868H38.9888H38.4888V15.008V16.008V16.508H38.9888H41.9868ZM38.4888 22.01V22.51H38.9888H41.9868H42.4868V22.01V18.008V17.508H41.9868H38.9888H38.4888V18.008V22.01ZM42.4868 12.009V11.509H41.9868H38.9888H38.4888V12.009V13.008V13.508H38.9888H41.9868H42.4868V13.008V12.009ZM42.9868 23.51H37.9888C37.7119 23.51 37.4888 23.2869 37.4888 23.01V11.009C37.4888 10.7322 37.7119 10.509 37.9888 10.509H42.9868C43.2636 10.509 43.4868 10.7322 43.4868 11.009V23.01C43.4868 23.2869 43.2636 23.51 42.9868 23.51Z" fill="black" stroke="#333333"/>
<path d="M32.9868 19.511H33.4868V19.011V18.011V17.511H32.9868H29.9888H29.4888V18.011V19.011V19.511H29.9888H32.9868ZM29.4888 22.01V22.51H29.9888H32.9868H33.4868V22.01V21.011V20.511H32.9868H29.9888H29.4888V21.011V22.01ZM33.4868 12.009V11.509H32.9868H29.9888H29.4888V12.009V16.011V16.511H29.9888H32.9868H33.4868V16.011V12.009ZM33.9868 23.51H28.9888C28.7119 23.51 28.4888 23.2869 28.4888 23.01V11.009C28.4888 10.7322 28.7119 10.509 28.9888 10.509H33.9868C34.2636 10.509 34.4868 10.7322 34.4868 11.009V23.01C34.4868 23.2869 34.2636 23.51 33.9868 23.51Z" fill="black" stroke="#333333"/>
<path d="M20.4902 16.008V16.508H20.9902H23.4882H23.9882H23.9892V16.008H24.4882V15.008V14.508H23.9882H20.9902H20.4902V15.008V16.008ZM20.4902 22.01V22.51H20.9902H23.9882H24.4882V22.01V18.008V17.508H23.9882H20.9902H20.4902V18.008V22.01ZM24.4892 12.009V11.509H23.9892H20.9902H20.4902V12.009V13.008V13.508H20.9902H23.9892H24.4892V13.008V12.009ZM24.9882 23.51H19.9902C19.714 23.51 19.4902 23.2866 19.4902 23.01V11.009C19.4902 10.7322 19.7134 10.509 19.9902 10.509H24.9882C25.2651 10.509 25.4882 10.7322 25.4882 11.009V23.01C25.4882 23.2869 25.2651 23.51 24.9882 23.51Z" fill="black" stroke="#333333"/>
<path d="M11.4902 19.011V19.511H11.9902H14.4882H14.9882H14.9892V19.011H15.4882V18.011V17.511H14.9882H11.9902H11.4902V18.011V19.011ZM11.4902 22.01V22.51H11.9902H14.9882H15.4882V22.01V21.011V20.511H14.9882H11.9902H11.4902V21.011V22.01ZM15.4892 12.009V11.509H14.9892H11.9902H11.4902V12.009V16.011V16.511H11.9902H14.9892H15.4892V16.011V12.009ZM15.9882 23.51H10.9902C10.714 23.51 10.4902 23.2866 10.4902 23.01V11.009C10.4902 10.7322 10.7134 10.509 10.9902 10.509H15.9882C16.2651 10.509 16.4882 10.7322 16.4882 11.009V23.01C16.4882 23.2869 16.2651 23.51 15.9882 23.51Z" fill="black" stroke="#333333"/>
<path d="M50.9809 32.51H51.4809V32.01V31.01V30.51H50.9809H47.9829H47.4829V31.01V32.01V32.51H47.9829H50.9809ZM47.4829 38.012V38.512H47.9829H50.9809H51.4809V38.012V34.01V33.51H50.9809H47.9829H47.4829V34.01V38.012ZM51.4809 28.011V27.511H50.9809H47.9829H47.4829V28.011V29.01V29.51H47.9829H50.9809H51.4809V29.01V28.011ZM51.9809 39.512H46.9829C46.7061 39.512 46.4829 39.2888 46.4829 39.012V27.011C46.4829 26.7341 46.7061 26.511 46.9829 26.511H51.9809C52.2578 26.511 52.4809 26.7341 52.4809 27.011V39.012C52.4809 39.2888 52.2578 39.512 51.9809 39.512Z" fill="black" stroke="#333333"/>
<path d="M41.9868 35.517H42.4868V35.017V34.017V33.517H41.9868H38.9868H38.4868V34.017V35.017V35.517H38.9868H41.9868ZM38.4868 38.016V38.516H38.9868H41.9868H42.4868V38.016V37.017V36.517H41.9868H38.9868H38.4868V37.017V38.016ZM42.4868 28.015V27.515H41.9868H38.9868H38.4868V28.015V32.017V32.517H38.9868H41.9868H42.4868V32.017V28.015ZM42.9868 39.516H37.9868C37.71 39.516 37.4868 39.2929 37.4868 39.016V27.015C37.4868 26.7382 37.71 26.515 37.9868 26.515H42.9868C43.2637 26.515 43.4868 26.7382 43.4868 27.015V39.016C43.4868 39.2929 43.2637 39.516 42.9868 39.516Z" fill="black" stroke="#333333"/>
<path d="M32.9888 32.514H33.4888V32.014V31.014V30.514H32.9888H29.9888H29.4888V31.014V32.014V32.514H29.9888H32.9888ZM29.4888 38.016V38.516H29.9888H32.9888H33.4888V38.016V34.014V33.514H32.9888H29.9888H29.4888V34.014V38.016ZM33.4888 28.015V27.515H32.9888H29.9888H29.4888V28.015V29.014V29.514H29.9888H32.9888H33.4888V29.014V28.015ZM33.9888 39.516H28.9888C28.7119 39.516 28.4888 39.2929 28.4888 39.016V27.015C28.4888 26.7382 28.7119 26.515 28.9888 26.515H33.9888C34.2656 26.515 34.4888 26.7382 34.4888 27.015V39.016C34.4888 39.2929 34.2656 39.516 33.9888 39.516Z" fill="black" stroke="#333333"/>
<path d="M23.9888 35.517H24.4888V35.017V34.017V33.517H23.9888H20.9888H20.4888V34.017V35.017V35.517H20.9888H23.9888ZM20.4888 38.016V38.516H20.9888H23.9888H24.4888V38.016V37.017V36.517H23.9888H20.9888H20.4888V37.017V38.016ZM24.4888 28.015V27.515H23.9888H20.9888H20.4888V28.015V32.017V32.517H20.9888H23.9888H24.4888V32.017V28.015ZM24.9888 39.516H19.9888C19.7119 39.516 19.4888 39.2929 19.4888 39.016V27.015C19.4888 26.7382 19.7119 26.515 19.9888 26.515H24.9888C25.2656 26.515 25.4888 26.7382 25.4888 27.015V39.016C25.4888 39.2929 25.2656 39.516 24.9888 39.516Z" fill="black" stroke="#333333"/>
<path d="M14.9902 32.514H15.4902V32.014V31.014V30.514H14.9902H11.9902H11.4902V31.014V32.014V32.514H11.9902H14.9902ZM11.4902 38.016V38.516H11.9902H14.9902H15.4902V38.016V34.014V33.514H14.9902H11.9902H11.4902V34.014V38.016ZM15.4902 28.015V27.515H14.9902H11.9902H11.4902V28.015V29.014V29.514H11.9902H14.9902H15.4902V29.014V28.015ZM15.9902 39.516H10.9902C10.7141 39.516 10.4902 39.2925 10.4902 39.016V27.015C10.4902 26.7382 10.7134 26.515 10.9902 26.515H15.9902C16.2671 26.515 16.4902 26.7382 16.4902 27.015V39.016C16.4902 39.2929 16.2671 39.516 15.9902 39.516Z" fill="black" stroke="#333333"/>
</svg>
