<svg width="75" height="95" viewBox="0 0 75 95" fill="none" xmlns="http://www.w3.org/2000/svg">
<path d="M74.3211 68.181C74.3209 68.1642 74.317 68.1484 74.3161 68.1316C74.3099 68.0007 74.2855 67.8757 74.2474 67.7558C74.2396 67.7311 74.2336 67.7069 74.2246 67.6827C74.176 67.5531 74.1111 67.4328 74.0303 67.3231C74.0156 67.3032 73.9988 67.2856 73.9832 67.2663C73.8925 67.1551 73.7905 67.0537 73.6716 66.9723C73.6702 66.9713 73.6694 66.9699 73.668 66.9689L73.6649 66.9668C73.6628 66.9654 73.6608 66.9639 73.6587 66.9626L52.3135 52.4788L49.6423 37.988H64.9785V39.3304C64.9785 40.1548 65.6504 40.8228 66.4785 40.8228C67.3066 40.8228 67.9785 40.1548 67.9785 39.3304V36.4956C67.9785 36.4662 67.9716 36.4388 67.9698 36.4098C67.9681 36.3797 67.9645 36.351 67.9609 36.3212C67.9435 36.1751 67.9113 36.0338 67.8547 35.9037C67.8526 35.8989 67.8493 35.8949 67.8472 35.89C67.788 35.7579 67.7072 35.6389 67.6139 35.5304C67.599 35.513 67.5862 35.4949 67.5705 35.4781C67.4706 35.3721 67.355 35.2834 67.228 35.2099C67.2164 35.2032 67.209 35.1922 67.1973 35.1858L47.1132 24.2685L44.5083 10.1377H49.3809V11.9459C49.3809 12.7704 50.0527 13.4384 50.8809 13.4384C51.709 13.4384 52.3809 12.7704 52.3809 11.9459V9.11115C52.3809 9.03135 52.3694 8.95459 52.3573 8.87819C52.3694 8.8018 52.3809 8.72504 52.3809 8.64524C52.3809 7.8208 51.709 7.15279 50.8809 7.15279H42.708H38.6611V1.49245C38.6611 0.668008 37.9902 0 37.1616 0C36.333 0 35.6616 0.668008 35.6616 1.49245V7.15279H31.6152H23.4424C22.6138 7.15279 21.9424 7.8208 21.9424 8.64524C21.9424 8.72504 21.9538 8.8018 21.9659 8.87819C21.9538 8.95459 21.9424 9.03135 21.9424 9.11115V11.9459C21.9424 12.7704 22.6138 13.4384 23.4424 13.4384C24.271 13.4384 24.9424 12.7704 24.9424 11.9459V10.1377H29.8149L27.1266 24.7204L7.87402 35.1858C7.862 35.1924 7.85443 35.2035 7.84265 35.2104C7.71613 35.2836 7.60089 35.3721 7.50146 35.4777C7.48517 35.4949 7.47217 35.5136 7.45685 35.5315C7.36438 35.6392 7.28436 35.7573 7.22546 35.8883C7.2229 35.8939 7.21912 35.8987 7.21667 35.9044C7.16034 36.0341 7.1283 36.1749 7.11096 36.3206C7.10736 36.3508 7.1037 36.3797 7.10193 36.4102C7.10028 36.439 7.09326 36.4663 7.09326 36.4956V39.3304C7.09326 40.1548 7.76465 40.8228 8.59326 40.8228C9.42188 40.8228 10.0933 40.1548 10.0933 39.3304V37.988H24.6808L22.0095 52.4786L0.662903 66.9635C0.661865 66.9642 0.660767 66.9649 0.659668 66.9656L0.654785 66.9689C0.652588 66.9704 0.651306 66.9727 0.649109 66.9743C0.531433 67.0552 0.430359 67.1556 0.340393 67.2658C0.324402 67.2854 0.307434 67.3032 0.292542 67.3235C0.211975 67.4329 0.147278 67.5529 0.0988159 67.682C0.0895386 67.7068 0.0833741 67.7316 0.0754395 67.7568C0.0376587 67.8764 0.0133666 68.0009 0.00714111 68.1314C0.00634761 68.1482 0.00231933 68.1641 0.00213623 68.181C0.00201413 68.1882 0 68.1948 0 68.2019V71.0367C0 71.8612 0.671387 72.5292 1.5 72.5292C2.32861 72.5292 3 71.8612 3 71.0367V69.6944H18.8359L14.4956 93.2384C14.4954 93.2394 14.4955 93.2404 14.4954 93.2414C14.4769 93.3425 14.4707 93.4454 14.4734 93.5484C14.4744 93.5812 14.481 93.6128 14.4841 93.6454C14.4906 93.7155 14.4988 93.7853 14.5154 93.8545C14.5245 93.8924 14.5386 93.9285 14.5507 93.9656C14.5704 94.0263 14.5917 94.0862 14.6196 94.1448C14.6387 94.1848 14.6615 94.2223 14.6841 94.2605C14.7032 94.293 14.7169 94.3273 14.7388 94.3587C14.7506 94.3757 14.7668 94.3873 14.7792 94.4036C14.7938 94.4228 14.8033 94.4446 14.8188 94.4632C14.8494 94.4995 14.8871 94.5275 14.9207 94.5605C14.9548 94.5942 14.9871 94.6293 15.0238 94.6592C15.0785 94.7037 15.1379 94.7399 15.1979 94.7762C15.236 94.799 15.2718 94.8255 15.3115 94.8449C15.3834 94.88 15.4595 94.9042 15.5363 94.9275C15.5683 94.9372 15.5984 94.9521 15.6309 94.9597C15.7416 94.9854 15.8553 95 15.9712 95H37.1616H58.3516C58.4681 95 58.5825 94.9851 58.6937 94.9591C58.7297 94.9507 58.7629 94.9345 58.7982 94.9235C58.8721 94.9004 58.9454 94.8768 59.0147 94.8428C59.0563 94.8224 59.094 94.795 59.1338 94.7707C59.1924 94.7347 59.2502 94.6986 59.3036 94.6547C59.3414 94.6237 59.375 94.5881 59.4099 94.5531C59.4407 94.5223 59.4757 94.4968 59.5039 94.4632C59.5219 94.4417 59.5331 94.4165 59.5497 94.3943C59.5636 94.3758 59.5816 94.3625 59.5947 94.3432C59.614 94.3147 59.6255 94.2837 59.6426 94.2545C59.6652 94.2159 59.687 94.1778 59.7059 94.1376C59.7333 94.0793 59.7549 94.0201 59.7742 93.96C59.7863 93.9225 59.7993 93.8861 59.8083 93.8478C59.8242 93.7801 59.8326 93.7122 59.8389 93.6436C59.842 93.6095 59.848 93.5761 59.8488 93.5417C59.8506 93.4571 59.8433 93.3734 59.8308 93.2901C59.8282 93.2728 59.8303 93.2556 59.8271 93.2384L55.4871 69.6944H71.3232V71.0367C71.3232 71.8612 71.9951 72.5292 72.8232 72.5292C73.6514 72.5292 74.3232 71.8612 74.3232 71.0367V68.2019C74.3232 68.1948 74.3212 68.1882 74.3211 68.181ZM37.1616 92.0151H20.7634L36.8904 80.8778L53.4534 92.0151H37.1616ZM37.1616 10.1377H39.281L37.1614 12.4218L35.0418 10.1377H37.1616ZM44.4819 54.8053L36.9434 58.5265L29.6525 54.8053H44.4819ZM28.2928 51.8204L37.3826 45.635L46.1659 51.8204H28.2928ZM40.0231 43.8382L46.8182 39.2143L48.8115 50.0276L40.0231 43.8382ZM43.3058 37.988L37.4115 41.999L31.7162 37.988H43.3058ZM31.0628 35.0031L37.1614 30.9001L43.2602 35.0031H31.0628ZM39.8392 29.0984L44.389 26.0373L45.6774 33.0264L39.8392 29.0984ZM40.5356 25.0267L37.1614 27.2968L33.7874 25.0267H40.5356ZM32.3177 22.0418L37.1615 16.8225L42.0048 22.0418H32.3177ZM39.2034 14.6222L41.774 11.8522L43.0485 18.7657L39.2034 14.6222ZM35.1198 14.622L31.2747 18.7656L32.5493 11.8519L35.1198 14.622ZM29.8259 26.6249C29.9743 26.5069 30.0938 26.3645 30.1853 26.2068L34.4835 29.0984L28.6459 33.0258L29.8259 26.6249ZM27.5925 38.7405L34.771 43.7958L25.4972 50.1064L27.5925 38.7405ZM33.6025 60.1757L22.6437 65.5852L24.4976 55.5286L33.6025 60.1757ZM46.7451 69.6944H47.8221L36.8671 77.2599L25.6159 69.6944H27.5776H46.7451ZM27.5776 66.7095H27.1164L36.9214 61.8696L46.4041 66.7095H27.5776ZM34.2242 79.0851L18.1027 90.2186L21.7067 70.668L34.2242 79.0851ZM39.5333 79.0526L52.5101 70.0909L56.2321 90.2812L39.5333 79.0526ZM40.2624 60.2205L49.8208 55.5024L51.7736 66.0957L40.2624 60.2205ZM60.6045 35.0031H49.092L47.8099 28.0482L60.6045 35.0031ZM26.4297 28.5007L25.2311 35.0031H14.4673L26.4297 28.5007ZM6.36182 66.7095L21.2482 56.6083L19.3861 66.7095H6.36182ZM54.9368 66.7095L53.0746 56.6077L67.9619 66.7095H54.9368Z" fill="#333333"/>
</svg>
