<svg width="102" height="20" viewBox="0 0 102 20" fill="none" xmlns="http://www.w3.org/2000/svg">
<path d="M51.1806 17.7677C51.1806 18.1196 51.1806 18.1996 51.4179 18.4156L52.7472 19.7276V19.7836H46.8531V17.2637C46.2598 18.9244 44.6907 20.0228 42.9446 19.9996C39.9145 19.9996 37.715 17.5997 37.715 13.1837C37.715 9.04769 40.0883 6.2877 43.4193 6.2877C44.8958 6.19384 46.2699 7.05383 46.8451 8.43169V2.87199C46.8667 2.74605 46.853 2.6166 46.8055 2.49798C46.758 2.37937 46.6786 2.27622 46.576 2.19999L45.3102 0.967996V0.911996L51.1806 0.215999V17.7677ZM46.8531 16.9677V8.67169C46.6437 8.40762 46.3764 8.19525 46.0718 8.05098C45.7672 7.90671 45.4336 7.83442 45.0966 7.8397C43.6646 7.8397 42.2801 9.15169 42.2801 13.0477C42.2801 16.6957 43.4747 17.9837 44.9622 17.9837C45.3351 17.9753 45.7008 17.8789 46.0293 17.7023C46.3579 17.5258 46.6401 17.274 46.8528 16.9677H46.8531ZM55.0891 19.7836V8.58369C55.1077 8.46081 55.0959 8.33521 55.0545 8.21801C55.0131 8.10081 54.9434 7.9956 54.8517 7.9117L53.5461 6.5517V6.4957H59.4405V17.8556C59.4405 18.2076 59.4405 18.2876 59.6778 18.5036L60.9754 19.7356V19.7916L55.0891 19.7836ZM54.8755 2.39972C54.8755 1.07439 55.9381 0 57.2488 0C58.5595 0 59.6224 1.07466 59.6224 2.39999C59.6224 3.72532 58.5597 4.79998 57.2491 4.79998C55.9384 4.79998 54.8755 3.72532 54.8755 2.39999V2.39972ZM75.3428 17.7437C75.3428 18.0956 75.3428 18.1996 75.5802 18.4156L76.9095 19.7276V19.7836H70.9837V16.9117C70.4439 18.7276 68.7999 19.9783 66.925 19.9996C64.2984 19.9996 62.8901 18.0637 62.8901 14.3997C62.8901 12.6317 62.8901 10.6957 62.9453 8.51969C62.9667 8.40034 62.956 8.27744 62.9143 8.16357C62.8726 8.04971 62.8014 7.94897 62.708 7.8717L61.4026 6.5517V6.4957H67.2493V13.7997C67.2493 16.1997 67.5975 17.7997 69.0847 17.7997C69.4793 17.7739 69.8612 17.65 70.1956 17.439C70.53 17.228 70.8063 16.9367 70.9994 16.5917V8.59169C71.0181 8.46881 71.0062 8.34321 70.9648 8.22601C70.9234 8.10881 70.8538 8.0036 70.7621 7.9197L69.4487 6.5517V6.4957H75.3428V17.7437ZM95.407 19.7836C95.407 19.3516 95.4862 13.8477 95.4862 12.5837C95.4862 10.1837 95.1142 8.52769 93.4449 8.52769C93.0295 8.54133 92.6231 8.65275 92.2588 8.85291C91.8946 9.05308 91.5826 9.33634 91.3484 9.67969C91.5158 10.4277 91.5953 11.193 91.5857 11.9597C91.5857 13.6237 91.5302 15.7437 91.5065 17.8636C91.4851 17.983 91.4958 18.1059 91.5375 18.2198C91.5792 18.3336 91.6504 18.4344 91.7438 18.5116L93.0732 19.7436V19.7996H87.1236C87.1236 19.3996 87.2025 13.8637 87.2025 12.5997C87.2025 10.1597 86.8308 8.54369 85.1852 8.54369C84.7847 8.55901 84.3946 8.67565 84.0515 8.88272C83.7083 9.08978 83.4233 9.38051 83.2231 9.72769V17.8877C83.2231 18.2396 83.2231 18.3196 83.4604 18.5356L84.758 19.7676V19.8236H78.8716V8.62369C78.8903 8.50081 78.8784 8.37521 78.837 8.25801C78.7956 8.14081 78.726 8.0356 78.6343 7.9517L77.3287 6.5517V6.4957H83.2231V9.34369C83.7697 7.4637 85.5111 6.20024 87.4479 6.2797C89.41 6.2797 90.739 7.3837 91.3009 9.47969C91.9249 7.54663 93.7206 6.24957 95.7313 6.2797C98.3579 6.2797 99.8454 8.2397 99.8454 11.9437C99.8454 13.7117 99.7902 15.7277 99.7665 17.8477C99.7437 17.9701 99.757 18.0965 99.8047 18.2115C99.8524 18.3265 99.9325 18.4253 100.035 18.4956L101.333 19.7276V19.7836H95.407ZM21.3615 18.0396L23.11 19.7276V19.7836H14.241V19.7276L16.0213 18.0396C16.1147 17.9624 16.1859 17.8616 16.2276 17.7478C16.2693 17.6339 16.28 17.511 16.2586 17.3917V6.5997C16.2586 6.1437 16.2586 5.52771 16.3375 4.99971L10.3562 19.9999H10.2853L4.09038 6.19997C3.95571 5.85597 3.91625 5.83197 3.82905 5.59997V14.6479C3.75492 15.2532 3.85666 15.867 4.12211 16.4159L6.6141 19.7279V19.7839H0V19.7279L2.49225 16.4079C2.75556 15.8611 2.85706 15.2505 2.78479 14.6479V4.64798C2.82559 4.15639 2.67867 3.6676 2.37359 3.27998L0.60933 0.967996V0.911996H6.93863L12.2394 12.5999L16.9074 0.911996H23.102V0.967996L21.3615 2.92799C21.259 3.00422 21.1795 3.10736 21.132 3.22598C21.0846 3.3446 21.0708 3.47405 21.0924 3.59998V17.3919C21.0698 17.5144 21.0831 17.6409 21.1309 17.7559C21.1788 17.8709 21.2589 17.9696 21.3618 18.0399L21.3615 18.0396ZM28.3001 12.6317V12.6877C28.3001 16.1117 30.0487 17.4877 32.0977 17.4877C33.8086 17.5466 35.3924 16.5765 36.1326 15.0157H36.1881C35.4761 18.3996 33.403 19.9996 30.3017 19.9996C26.9551 19.9996 23.7983 17.9597 23.7983 13.2317C23.7983 8.26369 26.9631 6.2797 30.4599 6.2797C33.2766 6.2797 36.275 7.6237 36.275 11.9437V12.6317H28.3001ZM28.3001 11.9437H32.2006V11.2477C32.2006 7.7277 31.4806 6.7917 30.3967 6.7917C29.0833 6.7917 28.2844 8.1917 28.2844 11.9437H28.3001Z" fill="white"/>
</svg>
