<svg width="18" height="18" viewBox="0 0 18 18" fill="none" xmlns="http://www.w3.org/2000/svg">
<path d="M8.43 7.94C8.2 8.68 7.87 9.47 7.42 10.34C7.22 10.72 7 11.08 6.92 11.38L7.03 11.34C8.3 10.85 9.5 10.57 10.37 10.41C10.22 10.31 10.08 10.2 9.96 10.09C9.36 9.58 8.84 8.84 8.43 7.94ZM14.91 11.75C14.74 11.94 14.44 12.05 14 12.05C13.24 12.05 12 11.82 11 11.31C9.28 11.5 8 11.73 6.97 12.06C6.92 12.08 6.86 12.1 6.79 12.13C5.55 14.25 4.63 15.2 3.82 15.2C3.66 15.2 3.5 15.16 3.38 15.09L2.9 14.78L2.87 14.73C2.8 14.55 2.78 14.38 2.82 14.19C2.93 13.66 3.5 12.82 4.7 12.07C4.89 11.93 5.19 11.77 5.59 11.58C5.89 11.06 6.21 10.45 6.55 9.78C7.06 8.75 7.38 7.73 7.63 6.85V6.84C7.26 5.63 7.04 4.9 7.41 3.57C7.5 3.19 7.83 2.8 8.2 2.8H8.44C8.67 2.8 8.89 2.88 9.05 3.04C9.71 3.7 9.4 5.31 9.07 6.64C9.05 6.7 9.04 6.75 9.03 6.78C9.43 7.91 10 8.82 10.63 9.34C10.89 9.54 11.18 9.74 11.5 9.92C11.95 9.87 12.38 9.85 12.79 9.85C14.03 9.85 14.78 10.07 15.07 10.54C15.17 10.7 15.22 10.89 15.19 11.09C15.18 11.34 15.09 11.57 14.91 11.75ZM16 0H2C0.89 0 0 0.89 0 2V16C0 17.1 0.9 18 2 18H16C17.1 18 18 17.1 18 16V2C18 0.89 17.1 0 16 0ZM14.5 11.04C14.4 10.94 14 10.69 12.6 10.69C12.53 10.69 12.46 10.69 12.37 10.79C13.1 11.11 13.81 11.3 14.27 11.3C14.34 11.3 14.4 11.29 14.46 11.28H14.5C14.55 11.26 14.58 11.25 14.59 11.15C14.57 11.12 14.55 11.08 14.5 11.04ZM5.33 12.5C5.12 12.62 4.95 12.73 4.85 12.81C4.14 13.46 3.69 14.12 3.64 14.5C4.09 14.35 4.68 13.69 5.33 12.5ZM8.35 5.59L8.4 5.55C8.47 5.23 8.5 4.95 8.56 4.73L8.59 4.57C8.69 4 8.67 3.71 8.5 3.47L8.35 3.42C8.33 3.45 8.3 3.5 8.28 3.54C8.11 3.96 8.12 4.69 8.35 5.59Z" fill="#D0021B"/>
</svg>
