<svg width="40" height="40" viewBox="0 0 40 40" fill="none" xmlns="http://www.w3.org/2000/svg">
<path fill-rule="evenodd" clip-rule="evenodd" d="M4 24V28H36V24H22C22 25.1055 21.1123 26 20 26C18.8954 26 18 25.1017 18 24.0021L4 24ZM36 4H4V20H36V4ZM25.3333 36H29.9951C31.1024 36 32 36.8877 32 38C32 39.1046 31.103 40 29.9951 40H10.0049C8.89764 40 8 39.1123 8 38C8 36.8954 8.89703 36 10.0049 36H14.6667L15.3333 32H1.99729C0.894218 32 0 31.1107 0 29.9983V2.00174C0 0.896211 0.89154 0 1.99729 0H38.0027C39.1058 0 40 0.889262 40 2.00174V29.9983C40 31.1038 39.1085 32 38.0027 32H24.6667L25.3333 36Z" fill="white"/>
</svg>
