<svg width="48" height="38" viewBox="0 0 48 38" fill="none" xmlns="http://www.w3.org/2000/svg">
<path fill-rule="evenodd" clip-rule="evenodd" d="M30.9835 6.00073C33.8724 6.00073 35.5048 5.1899 36.3698 3.89151C36.6561 3.46161 37.0227 2.64246 37.0227 2.01461C37.0227 0.910048 37.9035 0.00812099 39.0081 5.44707e-05C40.1126 -0.00801205 41.0146 0.880855 41.0227 1.99317C41.0239 2.33054 40.9797 2.80862 40.8524 3.38629C40.6481 4.31308 40.2787 5.23855 39.6987 6.10923C38.0651 8.56129 35.1672 10.0007 30.9835 10.0007C27.312 10.0007 26.246 10.9787 26.0408 14H36C42.6274 14 48 19.3726 48 26C48 32.6274 42.6274 38 36 38C32.446 38 29.2529 36.455 27.0556 34H20.9444C18.7471 36.455 15.554 38 12 38C5.37258 38 0 32.6274 0 26C0 19.3726 5.37258 14 12 14H22.0383C22.358 8.82734 24.7769 6.00073 30.9835 6.00073ZM15.9915 24C17.1007 24 18 24.8877 18 26C18 27.1046 17.098 28 15.9915 28H14V29.9915C14 31.1007 13.1123 32 12 32C10.8954 32 10 31.098 10 29.9915V28H8.00853C6.89925 28 6 27.1123 6 26C6 24.8954 6.90195 24 8.00853 24H10V22.0085C10 20.8993 10.8877 20 12 20C13.1046 20 14 20.902 14 22.0085V24H15.9915ZM18.4904 30.7441C18.8582 30.3331 19.5978 30 20.1566 30H27.8434C28.3958 30 29.1445 30.3362 29.5096 30.7441L30.0361 31.3323C31.5476 33.0212 33.6903 34 36 34C40.4183 34 44 30.4183 44 26C44 21.5817 40.4183 18 36 18H12C7.58172 18 4 21.5817 4 26C4 30.4183 7.58172 34 12 34C14.3097 34 16.4524 33.0212 17.9639 31.3323L18.4904 30.7441ZM38 30C36.8954 30 36 29.1046 36 28C36 26.8954 36.8954 26 38 26C39.1046 26 40 26.8954 40 28C40 29.1046 39.1046 30 38 30ZM33 26C31.8954 26 31 25.1046 31 24C31 22.8954 31.8954 22 33 22C34.1046 22 35 22.8954 35 24C35 25.1046 34.1046 26 33 26Z" fill="white"/>
</svg>
