<svg width="44" height="40" viewBox="0 0 44 40" fill="none" xmlns="http://www.w3.org/2000/svg">
<path fill-rule="evenodd" clip-rule="evenodd" d="M34 12H39.9982C42.2083 12 44 13.7843 44 15.9901V32.0099C44 34.2136 42.2069 36 39.9982 36H34V38.0059C34 39.1072 33.103 40 31.9951 40H12.0049C10.8976 40 10 39.1055 10 38.0059V36H4.00181C1.79167 36 0 34.2157 0 32.0099V15.9901C0 13.7864 1.79309 12 4.00181 12H11V1.99406C11 0.892771 11.9016 0 13.0009 0H31.9991C33.1042 0 34 0.894514 34 1.99406V12ZM10 28C8.89151 28 8 27.1123 8 26C8 24.8954 8.8999 24 9.99124 24H34.0088C35.1085 24 36 24.8877 36 26C36 27.1046 35.1001 28 34.0088 28L34 32H40V16H4V32H10V28ZM14 28V36H30V28H14ZM10 22C8.89543 22 8 21.1046 8 20C8 18.8954 8.89543 18 10 18C11.1046 18 12 18.8954 12 20C12 21.1046 11.1046 22 10 22ZM15 4V12H30V4H15Z" fill="white"/>
</svg>
