<svg width="46" height="39" viewBox="0 0 46 39" fill="none" xmlns="http://www.w3.org/2000/svg">
<path fill-rule="evenodd" clip-rule="evenodd" d="M35.2519 4.59778C36.0291 2.41793 37.2526 1.3634 39.0953 0.596269C40.5196 0.00331217 42.1644 0 43.6188 0C45.5582 0 46.1795 1.39849 45.957 2.48147C45.7345 3.56445 44.7398 3.95443 43.6188 3.95443C42.7724 3.95443 41.739 3.92267 41.0902 4.13344C40.4413 4.34421 39.4128 4.84549 39.0217 5.94273C38.5178 7.3561 38.9878 8.69426 40.222 10.0152C40.5644 10.3816 40.9362 10.7106 41.3065 10.9925C41.5202 11.1552 41.6749 11.2593 41.739 11.2982C42.266 11.618 42.5929 12.1423 42.6795 12.7076C42.7026 12.7804 45.957 29.0365 45.957 29.0365C46.165 30.0768 45.5014 30.9275 44.4692 30.9889L40.3446 30.9924L41.8613 37.0616C42.1289 38.1321 41.4464 39 40.3397 39H1.36795C0.260016 39 -0.285297 38.1764 0.149671 37.1611L5.5503 23.6294C4.60848 23.1227 3.96821 22.1276 3.96821 20.9829C3.96821 19.3245 5.31214 17.9801 6.96996 17.9801C7.37167 17.9801 7.75495 18.059 8.10515 18.2022C10.8573 14.0686 16.1911 10.9734 20.9715 10.9734H35.9407C34.7869 9.06209 34.4291 6.90585 35.2519 4.59778ZM20.9715 14.9772C17.0558 14.9772 12.2551 18.1431 10.7112 21.7469L8.64238 26.9886H38.3434L41.4718 27.0175L40.6654 22.9848H28.9865C25.6688 22.9848 22.9793 20.2892 22.9793 16.9791V14.9772H20.9715ZM26.9816 16.9791C26.9816 18.0805 27.8817 18.981 28.9865 18.981H39.8648L39.0641 14.9772H26.9816V16.9791ZM30.9839 32.9943C29.8787 32.9943 28.9827 32.098 28.9827 30.9924H24.9804C24.9804 32.098 24.0845 32.9943 22.9793 32.9943C21.8741 32.9943 20.9781 32.098 20.9781 30.9924H16.9758C16.9758 32.098 16.0798 32.9943 14.9746 32.9943C13.8694 32.9943 12.9734 32.098 12.9734 30.9924H6.93509L5.45799 34.9962L37.2219 35.0051L36.2191 30.9924H32.9851C32.9851 32.098 32.0891 32.9943 30.9839 32.9943Z" fill="white"/>
</svg>
