<svg width="44" height="41" viewBox="0 0 44 41" fill="none" xmlns="http://www.w3.org/2000/svg">
<path fill-rule="evenodd" clip-rule="evenodd" d="M23 27.002C23 28.6588 21.6569 30.002 20 30.002C19.8577 30.002 19.7177 29.9921 19.5807 29.9729L18.7181 34.4582C18.1207 37.565 15.1643 40.002 12 40.002C8.68773 40.002 6 37.3163 6 34.0072V21.7675C2.42159 20.0942 0 16.4696 0 12.002C0 5.27222 5.50545 0.451666 12.1706 1.34035L31.7443 3.95018L41.2572 0.145019C42.5709 -0.380473 44 0.587043 44 2.00197V22.002C44 23.4169 42.5709 24.3844 41.2572 23.8589L31.7443 20.0538L21.2183 21.4572L20.7126 24.0871C22.0254 24.4069 23 25.5907 23 27.002ZM10 34.0072C10 35.1065 10.8962 36.002 12 36.002C13.2481 36.002 14.5552 34.9245 14.7901 33.7028L17.0378 22.0146L12.1706 22.6636C11.4307 22.7622 10.7052 22.7907 10 22.7541V34.0072ZM34 16.6479L40 19.0479V4.95604L34 7.35604V16.6479ZM30 7.75301L11.6419 5.30526C7.37482 4.73631 4 7.69129 4 12.002C4 16.3163 7.36969 19.2683 11.6419 18.6987L30 16.2509V7.75301Z" fill="white"/>
</svg>
