<svg width="40" height="39" viewBox="0 0 40 39" fill="none" xmlns="http://www.w3.org/2000/svg">
<path fill-rule="evenodd" clip-rule="evenodd" d="M28 18.9807V8.21681C27.3863 7.66749 27 6.86921 27 5.98071C27 4.32385 28.3431 2.98071 30 2.98071C31.6569 2.98071 33 4.32385 33 5.98071C33 6.86921 32.6138 7.66749 32 8.21681V18.9807H36C38.2091 18.9807 40 20.7695 40 22.9769V30.9845C40 33.1915 38.2036 34.9807 36 34.9807H34C34 37.1898 32.2091 38.9807 30 38.9807C27.7909 38.9807 26 37.1898 26 34.9807H14C14 37.1898 12.2091 38.9807 10 38.9807C7.79086 38.9807 6 37.1898 6 34.9807H4.00003C1.79087 34.9807 0 33.1919 0 30.9845V22.9769C0 20.7699 1.79642 18.9807 4.00003 18.9807H28ZM4 22.9807V30.9807H36V22.9807H4ZM8 26.9807C8 25.8761 8.90195 24.9807 10.0085 24.9807H17.9915C19.1007 24.9807 20 25.8684 20 26.9807C20 28.0853 19.098 28.9807 17.9915 28.9807H10.0085C8.89925 28.9807 8 28.093 8 26.9807ZM38.6489 11.0029C38.0935 11.9577 36.8693 12.2815 35.9145 11.7261C34.9597 11.1707 34.6359 9.94651 35.1913 8.99172C35.7186 8.0852 36 7.05587 36 5.98071C36 4.92229 35.7273 3.90827 35.2156 3.0118C34.6679 2.05254 35.0016 0.83097 35.9609 0.28335C36.9202 -0.264271 38.1417 0.0694319 38.6894 1.02869C39.5437 2.52528 40 4.22213 40 5.98071C40 7.76721 39.5291 9.48974 38.6489 11.0029ZM21.3249 1.0038C21.8753 0.0461129 23.0978 -0.28408 24.0555 0.266293C25.0132 0.816666 25.3434 2.03919 24.793 2.99688C24.2757 3.89692 24 4.91637 24 5.98071C24 7.0792 24.2938 8.12982 24.8431 9.05004C25.4092 9.9985 25.0993 11.2263 24.1508 11.7924C23.2023 12.3586 21.9745 12.0486 21.4084 11.1002C20.4917 9.56433 20 7.80612 20 5.98071C20 4.21224 20.4614 2.50631 21.3249 1.0038ZM13.3249 1.0038C13.8753 0.0461129 15.0978 -0.28408 16.0555 0.266293C17.0132 0.816666 17.3434 2.03919 16.793 2.99688C16.2757 3.89692 16 4.91637 16 5.98071C16 7.0792 16.2938 8.12982 16.8431 9.05004C17.4092 9.9985 17.0993 11.2263 16.1508 11.7924C15.2023 12.3586 13.9745 12.0486 13.4084 11.1002C12.4917 9.56433 12 7.80612 12 5.98071C12 4.21224 12.4614 2.50631 13.3249 1.0038Z" fill="white"/>
</svg>
