<svg width="44" height="28" viewBox="0 0 44 28" fill="none" xmlns="http://www.w3.org/2000/svg">
<path fill-rule="evenodd" clip-rule="evenodd" d="M44 14C44 16.2091 42.2091 18 40 18V21.9933C40 25.3107 37.3134 28 34.0008 28H5.99922C2.68594 28 0 25.3152 0 21.9933V6.0067C0 2.68929 2.68662 0 5.99922 0H34.0008C37.3141 0 40 2.68476 40 6.0067V10C42.2091 10 44 11.7909 44 14ZM4 6.0067V21.9933C4 23.1052 4.89417 24 5.99922 24H34.0008C35.1034 24 36 23.1024 36 21.9933V6.0067C36 4.89481 35.1058 4 34.0008 4H5.99922C4.89657 4 4 4.89762 4 6.0067ZM6 7.99406C6 6.89277 6.88671 6 7.9981 6H12.0019C13.1054 6 14 6.89451 14 7.99406V20.0059C14 21.1072 13.1133 22 12.0019 22H7.9981C6.89458 22 6 21.1055 6 20.0059V7.99406ZM16 7.99406C16 6.89277 16.8867 6 17.9981 6H22.0019C23.1054 6 24 6.89451 24 7.99406V20.0059C24 21.1072 23.1133 22 22.0019 22H17.9981C16.8946 22 16 21.1055 16 20.0059V7.99406ZM26 7.99406C26 6.89277 26.8867 6 27.9981 6H32.0019C33.1054 6 34 6.89451 34 7.99406V20.0059C34 21.1072 33.1133 22 32.0019 22H27.9981C26.8946 22 26 21.1055 26 20.0059V7.99406Z" fill="white"/>
</svg>
