<svg width="44" height="40" viewBox="0 0 44 40" fill="none" xmlns="http://www.w3.org/2000/svg">
<path d="M4 26V28H40V26H4ZM4 22H40V4H4V22ZM18 34.1444C19.3561 34.0501 20.6931 34 22 34C23.3069 34 24.6439 34.0501 26 34.1444V32H18V34.1444ZM14 34.5388V32H3.00878C1.35222 32 0 30.6701 0 29.0035V2.99653C0 1.33602 1.35018 0 3.00878 0H40.9912C42.6478 0 44 1.32993 44 2.99653V29.0035C44 30.664 42.6498 32 40.9912 32H30V34.5388C31.1062 34.6782 32.2177 34.842 33.3288 35.0272C34.6728 35.2512 35.9215 35.4913 37.0441 35.7319C37.4389 35.8165 37.7905 35.8953 38.0951 35.9664C38.2813 36.0098 38.4126 36.0416 38.4851 36.0597C39.5567 36.3276 40.2082 37.4135 39.9403 38.4851C39.6724 39.5567 38.5865 40.2082 37.5149 39.9403C37.4624 39.9272 37.3515 39.9003 37.1862 39.8617C36.9048 39.7961 36.5767 39.7226 36.2059 39.6431C35.141 39.4149 33.9522 39.1863 32.6712 38.9728C29.0215 38.3645 25.3764 38 22 38C18.6236 38 14.9785 38.3645 11.3288 38.9728C10.0478 39.1863 8.85897 39.4149 7.79406 39.6431C7.42329 39.7226 7.09523 39.7961 6.81383 39.8617C6.64846 39.9003 6.53755 39.9272 6.48507 39.9403C5.41348 40.2082 4.32761 39.5567 4.05971 38.4851C3.79182 37.4135 4.44334 36.3276 5.51493 36.0597C5.58745 36.0416 5.71873 36.0098 5.90492 35.9664C6.20945 35.8953 6.56108 35.8165 6.95594 35.7319C8.07853 35.4913 9.32717 35.2512 10.6712 35.0272C11.7823 34.842 12.8938 34.6782 14 34.5388Z" fill="white"/>
</svg>
