<svg width="44" height="42" viewBox="0 0 44 42" fill="none" xmlns="http://www.w3.org/2000/svg">
<path fill-rule="evenodd" clip-rule="evenodd" d="M40 28V37.9951C40 39.1024 39.1085 40 38.0027 40H36C36 41.1046 35.1017 42 34.0021 42H31.9979C30.8945 42 30 41.1123 30 40H10C10 41.1046 9.10174 42 8.00209 42H5.99791C4.8945 42 4 41.1123 4 40H1.99729C0.894218 40 0 39.103 0 37.9951V21.9943C0 18.6837 2.68662 16 5.99922 16L6 10.997C6 9.34015 7.34456 8 9.00069 8H30.9993C32.6547 8 34 9.34659 34 10.997V16C37.3141 16 40 18.6832 40 21.9943L42.0021 22C43.1055 22 44 22.8877 44 24C44 26.7284 40 28 40 28ZM30 16V12H10V16H30ZM36 36V21.9943C36 20.8933 35.1059 20 34.0008 20H5.99922C4.89472 20 4 20.8939 4 21.9943V36H36ZM8 30C8 28.8954 8.89703 28 10.0049 28H29.9951C31.1024 28 32 28.8877 32 30C32 31.1046 31.103 32 29.9951 32H10.0049C8.89764 32 8 31.1123 8 30ZM18 1.99791C18 0.894496 18.8877 0 20 0C21.1046 0 22 0.898261 22 1.99791V4.00209C22 5.1055 21.1123 6 20 6C18.8954 6 18 5.10174 18 4.00209V1.99791ZM10 1.99791C10 0.894496 10.8877 0 12 0C13.1046 0 14 0.898261 14 1.99791V4.00209C14 5.1055 13.1123 6 12 6C10.8954 6 10 5.10174 10 4.00209V1.99791ZM26 1.99791C26 0.894496 26.8877 0 28 0C29.1046 0 30 0.898261 30 1.99791V4.00209C30 5.1055 29.1123 6 28 6C26.8954 6 26 5.10174 26 4.00209V1.99791Z" fill="white"/>
</svg>
