<svg width="53" height="53" viewBox="0 0 53 53" fill="none" xmlns="http://www.w3.org/2000/svg">
<path d="M12.4219 25.6719L9.9375 29.8125H12.4219V25.6719Z" fill="white"/>
<path d="M14.9062 29.8125H12.4219V33.9531L14.9062 29.8125Z" fill="white"/>
<path d="M48.8594 22.3594H38.9219C38.2636 22.3613 37.6328 22.6237 37.1673 23.0892C36.7018 23.5547 36.4395 24.1855 36.4375 24.8438V43.0625C36.4395 43.7208 36.7018 44.3516 37.1673 44.817C37.6328 45.2825 38.2636 45.5449 38.9219 45.5469H41.4062V48.0312C41.4062 48.2509 41.4935 48.4615 41.6488 48.6168C41.8041 48.7721 42.0147 48.8594 42.2344 48.8594H43.0625V49.6875H27.3281V18.2188H28.9844C29.204 18.2188 29.4146 18.1315 29.5699 17.9762C29.7253 17.8209 29.8125 17.6103 29.8125 17.3906V14.9062H43.8906C44.0093 14.9054 44.1265 14.8799 44.2348 14.8314C44.3431 14.7829 44.4402 14.7126 44.52 14.6247C44.5972 14.5342 44.6541 14.4283 44.687 14.3141C44.7198 14.1998 44.7278 14.0798 44.7105 13.9622L43.0542 2.36844C43.0263 2.17088 42.928 1.99004 42.7773 1.8592C42.6267 1.72835 42.4339 1.65628 42.2344 1.65625H10.7656C10.5661 1.65628 10.3733 1.72835 10.2227 1.8592C10.072 1.99004 9.97371 2.17088 9.94578 2.36844L8.28953 13.9622C8.27216 14.0798 8.28018 14.1998 8.31303 14.3141C8.34588 14.4283 8.40281 14.5342 8.48 14.6247C8.55976 14.7126 8.65686 14.7829 8.76519 14.8314C8.87351 14.8799 8.99071 14.9054 9.10938 14.9062H23.1875V17.3906C23.1875 17.6103 23.2747 17.8209 23.4301 17.9762C23.5854 18.1315 23.796 18.2188 24.0156 18.2188H25.6719V49.6875H13.25V40.5781H16.5625V38.9219H14.9062V37.2656H20.7031C21.3614 37.2637 21.9922 37.0013 22.4577 36.5358C22.9232 36.0703 23.1855 35.4395 23.1875 34.7812V24.8438C23.1855 24.1855 22.9232 23.5547 22.4577 23.0892C21.9922 22.6237 21.3614 22.3613 20.7031 22.3594H4.14062C3.48233 22.3613 2.85156 22.6237 2.38608 23.0892C1.92059 23.5547 1.65822 24.1855 1.65625 24.8438V34.7812C1.65822 35.4395 1.92059 36.0703 2.38608 36.5358C2.85156 37.0013 3.48233 37.2637 4.14062 37.2656H9.9375V38.9219H8.28125V40.5781H11.5938V50.5156C11.5938 50.7353 11.681 50.9459 11.8363 51.1012C11.9916 51.2565 12.2022 51.3438 12.4219 51.3438H43.8906C44.1103 51.3438 44.3209 51.2565 44.4762 51.1012C44.6315 50.9459 44.7188 50.7353 44.7188 50.5156V48.8594H45.5469C45.7665 48.8594 45.9771 48.7721 46.1325 48.6168C46.2878 48.4615 46.375 48.2509 46.375 48.0312V45.5469H48.8594C49.5177 45.5449 50.1484 45.2825 50.6139 44.817C51.0794 44.3516 51.3418 43.7208 51.3438 43.0625V24.8438C51.3418 24.1855 51.0794 23.5547 50.6139 23.0892C50.1484 22.6237 49.5177 22.3613 48.8594 22.3594ZM4.14062 35.6094C3.92099 35.6094 3.71036 35.5221 3.55505 35.3668C3.39975 35.2115 3.3125 35.0009 3.3125 34.7812V24.8438C3.3125 24.6241 3.39975 24.4135 3.55505 24.2582C3.71036 24.1029 3.92099 24.0156 4.14062 24.0156H20.7031C20.9228 24.0156 21.1334 24.1029 21.2887 24.2582C21.444 24.4135 21.5312 24.6241 21.5312 24.8438V34.7812C21.5312 35.0009 21.444 35.2115 21.2887 35.3668C21.1334 35.5221 20.9228 35.6094 20.7031 35.6094H4.14062ZM11.5938 38.9219V37.2656H13.25V38.9219H11.5938ZM42.9383 13.25H34.6902L34.4003 10.7656H42.5822L42.9383 13.25ZM42.342 9.10938H34.2098L33.9117 6.625H41.9859L42.342 9.10938ZM41.5139 3.3125L41.7541 4.96875H33.7213L33.5308 3.3125H41.5139ZM21.142 3.3125H31.858L32.0567 4.96875H20.9433L21.142 3.3125ZM20.7528 6.625H32.2472L32.537 9.10938H20.463L20.7528 6.625ZM18.3098 13.25H10.0617L10.4178 10.7656H18.5997L18.3098 13.25ZM18.7902 9.10938H10.658L11.0141 6.625H19.0883L18.7902 9.10938ZM19.2788 4.96875H11.2459L11.4861 3.3125H19.4692L19.2788 4.96875ZM19.9744 13.25L20.2642 10.7656H32.7358L33.0256 13.25H19.9744ZM24.8438 16.5625V14.9062H28.1562V16.5625H24.8438ZM44.7188 47.2031H43.0625V45.5469H44.7188V47.2031ZM49.6875 43.0625C49.6875 43.2821 49.6003 43.4928 49.445 43.6481C49.2896 43.8034 49.079 43.8906 48.8594 43.8906H38.9219C38.7022 43.8906 38.4916 43.8034 38.3363 43.6481C38.181 43.4928 38.0938 43.2821 38.0938 43.0625V24.8438C38.0938 24.6241 38.181 24.4135 38.3363 24.2582C38.4916 24.1029 38.7022 24.0156 38.9219 24.0156H48.8594C49.079 24.0156 49.2896 24.1029 49.445 24.2582C49.6003 24.4135 49.6875 24.6241 49.6875 24.8438V43.0625Z" fill="white"/>
<path d="M35.6094 45.5469L32.2969 43.0625V44.7188H30.6406V39.75H28.9844V45.5469C28.9844 45.7665 29.0716 45.9771 29.2269 46.1324C29.3822 46.2878 29.5929 46.375 29.8125 46.375H32.2969V48.0312L35.6094 45.5469Z" fill="white"/>
<path d="M17.3906 45.5469L20.7031 48.0312V46.375H23.1875C23.4071 46.375 23.6178 46.2878 23.7731 46.1324C23.9284 45.9771 24.0156 45.7665 24.0156 45.5469V39.75H22.3594V44.7188H20.7031V43.0625L17.3906 45.5469Z" fill="white"/>
</svg>
