<svg width="94" height="30" viewBox="0 0 94 30" fill="none" xmlns="http://www.w3.org/2000/svg">
<path d="M79.4392 3.4754C70.7578 1.24492 59.2337 0 46.9414 0C34.649 0 23.125 1.24492 14.4435 3.4754C5.07059 5.91337 0 9.28503 0 12.9679C0 19.2963 15.3654 24.4316 37.4148 25.6765L35.1868 26.7139C34.3417 27.1289 34.1112 27.907 34.7258 28.5294C35.11 28.8925 35.7246 29.1 36.3392 29.1C36.7234 29.1 37.1075 29.0481 37.4148 28.8925L44.4061 25.6246C44.9438 25.3652 45.2512 24.9503 45.2512 24.5353C45.2512 24.1203 44.9438 23.7053 44.4061 23.446L37.4148 20.4374C36.4929 20.0743 35.3405 20.2299 34.7258 20.8524C34.1881 21.4749 34.4185 22.2529 35.3405 22.6679L36.2624 23.0829C15.9032 21.6824 3.84135 16.962 3.84135 12.9679C3.84135 8.09198 21.5116 2.59358 46.9414 2.59358C72.3711 2.59358 90.0414 8.04011 90.0414 12.9679C90.0414 17.5326 75.982 21.838 57.313 23.031C56.2374 23.0829 55.4692 23.7053 55.546 24.4315C55.6228 25.1578 56.6216 25.6765 57.6203 25.6246C79.2856 24.2759 93.8059 19.1925 93.8059 13.0198C93.8827 9.28503 88.8121 5.91337 79.4392 3.4754Z" fill="white"/>
</svg>
