<svg width="24" height="24" viewBox="0 0 24 24" fill="none" xmlns="http://www.w3.org/2000/svg">
<path d="M0 0H24V24H0V0Z" fill="white"/>
<path fill-rule="evenodd" clip-rule="evenodd" d="M12 0C12.5523 0 13 0.447715 13 1V3C13 3.55228 12.5523 4 12 4C11.4477 4 11 3.55228 11 3V1C11 0.447715 11.4477 0 12 0ZM6 12C6 8.68629 8.68629 6 12 6C15.3137 6 18 8.68629 18 12C18 15.3137 15.3137 18 12 18C8.68629 18 6 15.3137 6 12ZM12 8C9.79086 8 8 9.79086 8 12C8 14.2091 9.79086 16 12 16C14.2091 16 16 14.2091 16 12C16 9.79086 14.2091 8 12 8ZM13 21C13 20.4477 12.5523 20 12 20C11.4477 20 11 20.4477 11 21V23C11 23.5523 11.4477 24 12 24C12.5523 24 13 23.5523 13 23V21ZM3.51311 3.51286C3.90363 3.12234 4.5368 3.12234 4.92732 3.51286L6.34732 4.93286C6.73785 5.32339 6.73785 5.95655 6.34732 6.34708C5.9568 6.7376 5.32363 6.7376 4.93311 6.34708L3.51311 4.92708C3.12258 4.53655 3.12258 3.90339 3.51311 3.51286ZM19.067 17.653C18.6764 17.2625 18.0433 17.2625 17.6528 17.653C17.2622 18.0435 17.2622 18.6767 17.6528 19.0672L19.0728 20.4872C19.4633 20.8777 20.0964 20.8777 20.487 20.4872C20.8775 20.0967 20.8775 19.4635 20.487 19.073L19.067 17.653ZM0 12C0 11.4477 0.447715 11 1 11H3C3.55228 11 4 11.4477 4 12C4 12.5523 3.55228 13 3 13H1C0.447715 13 0 12.5523 0 12ZM21 11C20.4477 11 20 11.4477 20 12C20 12.5523 20.4477 13 21 13H23C23.5523 13 24 12.5523 24 12C24 11.4477 23.5523 11 23 11H21ZM6.34732 17.653C6.73785 18.0435 6.73785 18.6767 6.34732 19.0672L4.92732 20.4872C4.5368 20.8777 3.90363 20.8777 3.51311 20.4872C3.12258 20.0967 3.12258 19.4635 3.51311 19.073L4.93311 17.653C5.32363 17.2625 5.9568 17.2625 6.34732 17.653ZM20.487 4.92708C20.8775 4.53655 20.8775 3.90339 20.487 3.51286C20.0964 3.12234 19.4633 3.12234 19.0728 3.51286L17.6528 4.93286C17.2622 5.32339 17.2622 5.95655 17.6528 6.34708C18.0433 6.7376 18.6764 6.7376 19.067 6.34708L20.487 4.92708Z" fill="url(#paint0_linear)"/>
<defs>
<linearGradient id="paint0_linear" x1="3.25926" y1="3.89848" x2="27.1221" y2="19.0986" gradientUnits="userSpaceOnUse">
<stop stop-color="#2A3275"/>
<stop offset="0.994792" stop-color="#0094FF"/>
</linearGradient>
</defs>
</svg>
