<svg width="24" height="24" viewBox="0 0 24 24" fill="none" xmlns="http://www.w3.org/2000/svg">
<path d="M23.8443 15.9047L23.8982 15.8377L23.9342 15.7763C23.9524 15.7516 23.9684 15.7254 23.9821 15.6982C23.9787 15.6742 23.9787 15.6498 23.9821 15.6257C23.9821 15.6257 23.9821 15.5699 23.9821 15.542C24.006 15.4334 24.006 15.3214 23.9821 15.2129C23.9705 15.1573 23.9524 15.103 23.9282 15.0511L21.8019 10.3757C21.7806 10.2478 21.725 10.1269 21.6402 10.0242L17.3457 0.461601C17.3216 0.410288 17.2915 0.361636 17.2558 0.316545C17.2433 0.295615 17.2271 0.276763 17.2079 0.260752C17.1899 0.235256 17.1698 0.211018 17.148 0.188225L17.0881 0.143591L17.0103 0.0878H16.9564L16.8545 0.0375877H16.8066C16.7676 0.0238848 16.7275 0.0126994 16.6868 0.00411205H16.579H0.844467C0.786718 -0.00137068 0.728521 -0.00137068 0.670772 0.00411205C0.553173 0.0268952 0.441348 0.0704535 0.341345 0.132432L0.287442 0.177066L0.209577 0.238435L0.155671 0.299806C0.13628 0.321097 0.118278 0.343455 0.101765 0.366757L0.0658266 0.428126C0.0463832 0.452176 0.0302845 0.478422 0.0179115 0.506236C0.0205134 0.530351 0.0205134 0.554647 0.0179115 0.578763C0.0179115 0.578763 0.0179115 0.634555 0.0179115 0.662451C-0.00597048 0.771046 -0.00597048 0.883025 0.0179115 0.99162C0.0295296 1.04721 0.0476046 1.10146 0.0718175 1.15342L6.65433 15.7038C6.68913 15.7709 6.73128 15.8345 6.78011 15.8935L6.81605 15.9326C6.86652 15.9881 6.92496 16.0369 6.98974 16.0776C7.04815 16.1103 7.11047 16.1365 7.17542 16.1557H7.22932C7.30407 16.1727 7.3802 16.1839 7.45693 16.1892H11.0507V22.3263H7.21136C6.97308 22.3263 6.74456 22.4144 6.57607 22.5714C6.40758 22.7283 6.31292 22.9412 6.31292 23.1631C6.31292 23.3851 6.40758 23.5979 6.57607 23.7549C6.74456 23.9118 6.97308 24 7.21136 24H16.7946C17.0329 24 17.2614 23.9118 17.4299 23.7549C17.5984 23.5979 17.6931 23.3851 17.6931 23.1631C17.6931 22.9412 17.5984 22.7283 17.4299 22.5714C17.2614 22.4144 17.0329 22.3263 16.7946 22.3263H12.9014V16.1892H23.1495H23.3292C23.4453 16.1674 23.5554 16.1237 23.6527 16.0609L23.7126 16.0107L23.7904 15.9549L23.8443 15.9047ZM18.5256 14.5434L17.0702 11.3521H20.3404L21.7959 14.5434H18.5256ZM13.3027 14.5434L11.8533 11.3521H15.1235L16.561 14.5434H13.3027ZM8.07984 14.5434L6.63037 11.3521H9.90066L11.3501 14.5434H8.07984ZM5.47439 1.62206L6.92985 4.81333H3.65955L2.18613 1.62206H5.47439ZM10.6973 1.62206L12.1467 4.81333H8.87645L7.42698 1.62206H10.6973ZM15.9202 1.62206L17.3696 4.81333H14.0993L12.6499 1.62206H15.9202ZM14.86 6.48707H18.1303L19.5558 9.67834H16.3095L14.86 6.48707ZM14.3629 9.67834H11.0926L9.63713 6.48707H12.9074L14.3629 9.67834ZM7.69052 6.48707L9.13999 9.67834H5.8697L4.42023 6.48707H7.69052Z" fill="url(#paint0_linear)"/>
<defs>
<linearGradient id="paint0_linear" x1="3.25926" y1="3.89848" x2="27.1221" y2="19.0986" gradientUnits="userSpaceOnUse">
<stop stop-color="#2A3275"/>
<stop offset="0.994792" stop-color="#0094FF"/>
</linearGradient>
</defs>
</svg>
