<svg width="36" height="40" viewBox="0 0 36 40" fill="none" xmlns="http://www.w3.org/2000/svg">
<path d="M22.5858 16.5858C23.3668 15.8047 24.6332 15.8047 25.4142 16.5858C26.1953 17.3668 26.1953 18.6332 25.4142 19.4142L20 24.8284V30H24.0081C26.2566 29.6401 28 27.2011 28 25C28 24.7512 27.8792 23.9056 27.8792 23.9056C27.8054 23.341 28.1357 22.6857 28.6157 22.4149L28.9424 22.2306C30.8173 21.1729 32 19.1909 32 17C32 13.6792 29.3065 11.0001 25.9382 11.0002L25.1789 11.0003C24.6177 11.0003 24.1162 10.553 24.0474 10.0011L23.9535 9.24766C23.5818 6.26577 21.0342 4 18 4C14.9678 4 12.4029 6.26869 11.9806 9.27798L11.8767 10.0183C11.7999 10.5655 11.2951 11 10.7475 11H10C6.68629 11 4 13.6863 4 17C4 19.1909 5.18272 21.1729 7.05758 22.2306L7.38434 22.4149C7.86184 22.6843 8.19401 23.3531 8.12076 23.9056C8.12076 23.9056 8 24.7512 8 25C8 27.2063 9.44237 29.1335 11.5162 29.7767C11.5162 29.7767 12.0026 30.0019 12.7778 30.0019C12.8032 30.0019 16 30 16 30V15.997C16 14.8941 16.8877 14 18 14C19.1046 14 20 14.895 20 15.997V19.1716L22.5858 16.5858ZM20 34V38.003C20 39.1059 19.1123 40 18 40C16.8954 40 16 39.105 16 38.003V34C16 34 12.9569 33.9998 12.9394 33.9993C11.6584 33.9899 10.8196 33.8802 9.91693 33.5698C6.71271 32.4682 4 28.9713 4 25C1.79608 23.3058 0 20.6489 0 17C0 12.0355 3.6177 7.91589 8.36066 7.13372C8.8053 4 12.9588 0 18 0C22.495 0 26.3472 2.98107 27.5847 7.1387C31.6773 7.65826 36 11.4652 36 17C36 20.6489 33.8557 23.9045 32 25C32 28.969 29.4661 32.3158 25.6739 33.6737C25.6739 33.6737 24.7896 33.9958 24.021 34C24.0167 34 20 34 20 34Z" fill="white"/>
</svg>
