<svg width="40" height="36" viewBox="0 0 40 36" fill="none" xmlns="http://www.w3.org/2000/svg">
<path fill-rule="evenodd" clip-rule="evenodd" d="M32 20C36.4183 20 40 23.5817 40 28C40 32.4183 36.4183 36 32 36C27.5817 36 24 32.4183 24 28C24 26.8954 24.8954 26 26 26C27.1046 26 28 26.8954 28 28C28 30.2091 29.7909 32 32 32C34.2091 32 36 30.2091 36 28C36 25.7909 34.2091 24 32 24H10.0049C8.89703 24 8 23.1046 8 22C8 20.8877 8.89764 20 10.0049 20H32ZM20 12H1.9908C0.898212 12 0 12.8954 0 14C0 15.1123 0.891309 16 1.9908 16H20C24.4183 16 28 12.4183 28 8C28 3.58172 24.4183 0 20 0C15.5817 0 12 3.58172 12 8C12 9.10457 12.8954 10 14 10C15.1046 10 16 9.10457 16 8C16 5.79086 17.7909 4 20 4C22.2091 4 24 5.79086 24 8C24 10.2091 22.2091 12 20 12ZM0 30C0 28.8954 0.898212 28 1.9908 28H18.0092C19.1087 28 20 28.8877 20 30C20 31.1046 19.1018 32 18.0092 32H1.9908C0.891309 32 0 31.1123 0 30ZM0 22C0 20.8954 0.89826 20 1.99791 20H4.00209C5.1055 20 6 20.8877 6 22C6 23.1046 5.10174 24 4.00209 24H1.99791C0.894496 24 0 23.1123 0 22Z" fill="white"/>
</svg>
