<?xml version="1.0" encoding="UTF-8"?>
<!DOCTYPE svg PUBLIC "-//W3C//DTD SVG 1.1//EN" "http://www.w3.org/Graphics/SVG/1.1/DTD/svg11.dtd">
<!-- Creator: CorelDRAW 2019 (64-Bit) -->
<svg xmlns="http://www.w3.org/2000/svg" xml:space="preserve" width="508mm" height="224.283mm" version="1.1" style="shape-rendering:geometricPrecision; text-rendering:geometricPrecision; image-rendering:optimizeQuality; fill-rule:evenodd; clip-rule:evenodd"
viewBox="0 0 50800 22428.33"
 xmlns:xlink="http://www.w3.org/1999/xlink"
 xmlns:xodm="http://www.corel.com/coreldraw/odm/2003">
 <defs>
  <style type="text/css">
   <![CDATA[
    .fil0 {fill:url(#id0);fill-rule:nonzero}
   ]]>
  </style>
  <linearGradient id="id0" gradientUnits="userSpaceOnUse" x1="25400" y1="22428.33" x2="25400" y2="0">
   <stop offset="0" style="stop-opacity:1; stop-color:#44059D"/>
   <stop offset="1" style="stop-opacity:1; stop-color:#40C9E7"/>
  </linearGradient>
 </defs>
 <g id="Слой_x0020_1">
  <metadata id="CorelCorpID_0Corel-Layer"/>
  <g id="layer101">
   <path class="fil0" d="M-0 15718.53l0 -6714.07 182.03 -262.47c97.37,-143.93 190.5,-270.93 203.2,-283.63 12.7,-12.7 76.2,-105.83 143.93,-207.43 63.5,-105.83 131.23,-207.43 152.4,-232.83 21.17,-25.4 287.87,-397.93 588.43,-829.73 300.57,-431.8 567.27,-804.33 588.43,-829.73 21.17,-25.4 88.9,-127 152.4,-232.83 67.73,-101.6 143.93,-211.67 177.8,-241.3 29.63,-29.63 55.03,-71.97 55.03,-88.9 0,-16.93 33.87,-67.73 76.2,-114.3 38.1,-42.33 131.23,-165.1 198.97,-270.93 122.77,-182.03 706.97,-1011.77 859.37,-1223.43 80.43,-114.3 143.93,-207.43 321.73,-474.13 67.73,-101.6 135.47,-194.73 148.17,-207.43 12.7,-12.7 110.07,-143.93 211.67,-296.33 512.23,-753.53 1346.2,-1663.7 1930.4,-2103.97 783.17,-592.67 1333.5,-876.3 2065.87,-1049.87 342.9,-84.67 1049.87,-71.97 2019.3,38.1 1155.7,131.23 1291.17,143.93 1926.17,211.67 351.37,38.1 795.87,84.67 994.83,110.07 198.97,21.17 647.7,71.97 994.83,105.83 351.37,38.1 787.4,84.67 973.67,105.83 186.27,21.17 635,71.97 994.83,105.83 359.83,38.1 800.1,84.67 973.67,105.83 173.57,21.17 613.83,67.73 973.67,105.83 359.83,38.1 800.1,84.67 973.67,105.83 173.57,21.17 605.37,63.5 952.5,101.6 351.37,38.1 795.87,84.67 994.83,110.07 198.97,21.17 647.7,71.97 994.83,105.83 351.37,38.1 787.4,84.67 973.67,105.83 186.27,21.17 626.53,67.73 973.67,105.83 351.37,33.87 795.87,84.67 994.83,105.83 198.97,25.4 647.7,71.97 994.83,110.07 351.37,38.1 778.93,80.43 952.5,101.6 173.57,21.17 605.37,63.5 952.5,101.6 351.37,38.1 795.87,84.67 994.83,110.07 198.97,21.17 647.7,71.97 994.83,105.83 351.37,38.1 787.4,84.67 973.67,105.83 186.27,21.17 626.53,67.73 973.67,105.83 351.37,33.87 787.4,84.67 973.67,105.83 186.27,21.17 635,71.97 994.83,105.83 359.83,38.1 800.1,84.67 973.67,105.83 173.57,21.17 605.37,63.5 952.5,101.6 351.37,38.1 795.87,84.67 994.83,110.07 198.97,21.17 647.7,71.97 994.83,105.83 351.37,38.1 787.4,84.67 973.67,105.83 186.27,21.17 626.53,67.73 973.67,105.83 351.37,33.87 787.4,84.67 973.67,105.83 186.27,21.17 635,71.97 994.83,105.83 359.83,38.1 800.1,84.67 973.67,105.83 173.57,21.17 605.37,63.5 952.5,101.6 351.37,38.1 795.87,84.67 994.83,110.07 198.97,21.17 647.7,71.97 994.83,105.83 351.37,38.1 787.4,84.67 973.67,105.83 186.27,21.17 626.53,67.73 973.67,105.83 351.37,33.87 795.87,84.67 994.83,105.83 198.97,25.4 626.53,71.97 952.5,105.83 1303.87,135.47 1435.1,148.17 1511.3,173.57 71.97,21.17 76.2,368.3 76.2,8974.67l0 8949.27 -25400 0 -25400 0 0 -6709.83 0 0.03z"/>
  </g>
 </g>
</svg>
