<svg xmlns="http://www.w3.org/2000/svg" xmlns:xlink="http://www.w3.org/1999/xlink" width="277.864" height="228.013" viewBox="0 0 277.864 228.013">
  <defs>
    <linearGradient id="linear-gradient" x1="0.263" y1="0.039" x2="0.774" y2="0.623" gradientUnits="objectBoundingBox">
      <stop offset="0" stop-color="#ffc40d"/>
      <stop offset="1" stop-color="#ffb300"/>
    </linearGradient>
    <radialGradient id="radial-gradient" cx="-2.826" cy="0.462" r="3.502" gradientUnits="objectBoundingBox">
      <stop offset="0" stop-color="#01c8ef"/>
      <stop offset="0.28" stop-color="#0899cb"/>
      <stop offset="0.77" stop-color="#134d8f"/>
      <stop offset="1" stop-color="#172f78"/>
    </radialGradient>
    <clipPath id="clip-path">
      <path id="Path" d="M187.771,65.226c0-22.272-15.635-49.334-34.908-60.463-8.77-5.06-16.772-5.941-22.9-3.34h-.114l-.156.142a8.2,8.2,0,0,0-.8.384A244.709,244.709,0,0,1,11.5,26.85L0,26.4,93.622,186.848l5.074-9.793a244.467,244.467,0,0,1,78.67-89.145C183.791,84.3,187.771,76.454,187.771,65.226Z" transform="translate(0 0)" fill="url(#linear-gradient)"/>
    </clipPath>
    <radialGradient id="radial-gradient-2" cx="0.062" cy="0.819" r="1.198" gradientUnits="objectBoundingBox">
      <stop offset="0" stop-color="#ff9600"/>
      <stop offset="1" stop-color="#ffb200"/>
    </radialGradient>
    <clipPath id="clip-path-2">
      <ellipse id="Oval" cx="40.5" cy="76.5" rx="40.5" ry="76.5" transform="translate(0.003 40.545) rotate(-30)" fill="none"/>
    </clipPath>
    <radialGradient id="radial-gradient-3" cx="-1.017" cy="0.769" r="2.028" gradientUnits="objectBoundingBox">
      <stop offset="0" stop-color="#f9636b"/>
      <stop offset="1" stop-color="#b6246e"/>
    </radialGradient>
  </defs>
  <g id="Ресурс_1" data-name="Ресурс 1" transform="translate(-0.735 0.001)">
    <path id="Path-2" data-name="Path" d="M27.844,85.251l-.3-11.1,11.228-66.5L25.584,0,0,15.08l2.26,85.279c.142,5.685,2.4,9.551,5.685,10.731h0L19.7,118.012l1.293-5.529L22.7,102.435A31.766,31.766,0,0,0,27.844,85.251Z" transform="translate(206.902 74.051)" fill="#d4ae84"/>
    <path id="Path-3" data-name="Path" d="M15.492,109.854h0c-7.107,4.179-12.991-.085-13.232-9.494L0,15.08,25.584,0l2.26,85.279C28.071,94.688,22.556,105.689,15.492,109.854Z" transform="translate(220.12 81.669)" fill="url(#radial-gradient)"/>
    <path id="Path-4" data-name="Path" d="M91.974,32.834c0-11.228-7.874-24.873-17.6-30.487a14.213,14.213,0,0,0-9.836-2.2h0L0,12.4,46.307,92.16l42.64-49.746h0A14.3,14.3,0,0,0,91.974,32.834Z" transform="translate(186.605 0.056)" fill="#d4ae84"/>
    <path id="Path-5" data-name="Path" d="M27.957,3.78A24.162,24.162,0,0,0,14.185.013l-3.3.625C4.264,2.714,0,9.508,0,19.912,0,37.749,12.508,59.439,27.957,68.35a27.36,27.36,0,0,0,10.3,3.681L55.9,51.479C55.574,33.784,43.222,12.592,27.957,3.78Z" transform="translate(206.93 5.885)" fill="#380031" opacity="0.1"/>
    <path id="Path-6" data-name="Path" d="M28.028,104.157c7.107-4.164,12.579-15.165,12.323-24.589L38.461,8.289V0L25.868,1.538,14.014,8.531l-2.644-3.07L.37,9.91,0,32.48v.526A14.128,14.128,0,0,0,12.181,46.438l1.322.171,1.279,48.055C15.038,104.072,20.964,108.336,28.028,104.157Z" transform="translate(207.584 87.366)" fill="#c49c7b"/>
    <g id="Path_2" data-name="Path 2" transform="translate(67.868 -0.001)">
      <path id="Path-7" data-name="Path" d="M187.771,65.226c0-22.272-15.635-49.334-34.908-60.463-8.77-5.06-16.772-5.941-22.9-3.34h-.114l-.156.142a8.2,8.2,0,0,0-.8.384A244.709,244.709,0,0,1,11.5,26.85L0,26.4,93.622,186.848l5.074-9.793a244.467,244.467,0,0,1,78.67-89.145C183.791,84.3,187.771,76.454,187.771,65.226Z" transform="translate(0 0)" fill="url(#linear-gradient)"/>
      <g id="Path_2-2" data-name="Path 2" clip-path="url(#clip-path)">
        <rect id="Rectangle" width="316" height="103" transform="translate(-92.45 70.901) rotate(-30)" fill="#ffce22"/>
      </g>
    </g>
    <path id="Path-8" data-name="Path" d="M133.917,125.126c0-42.64-29.976-94.631-66.958-115.98C48.481-1.5,31.809-2.537,19.7,4.4h-.1L8.556,10.852,12.394,10C4.591,18.143,0,30.963,0,47.678c0,42.711,29.976,94.631,66.958,115.98,14.512,8.386,27.943,10.8,38.916,8.073L104.14,174.3l10.106-5.913.156-.1.37-.213h0C126.611,161.028,133.917,146.147,133.917,125.126Z" transform="translate(38.489 25.534)" fill="#d4ae84"/>
    <path id="Path-9" data-name="Path" d="M126.085,125.126c0-42.64-29.976-94.631-66.958-115.98C40.92-1.358,24.432-2.509,12.365,4.129l-1.691.981c-.569.37-1.123.753-1.677,1.151l3.4-.768C4.591,13.637,0,26.457,0,43.172,0,85.883,29.976,137.8,66.958,159.152c14.512,8.386,27.943,10.8,38.916,8.073l-1.592,2.345C117.685,163.26,126.085,147.724,126.085,125.126Z" transform="translate(38.489 30.04)" fill="#fff"/>
    <ellipse id="Oval-2" data-name="Oval" cx="54.866" cy="95.029" rx="54.866" ry="95.029" transform="translate(0.735 63.229) rotate(-29.887)" fill="#393835"/>
    <ellipse id="Oval-3" data-name="Oval" cx="47.97" cy="83.09" rx="47.97" ry="83.09" transform="translate(12.302 69.839) rotate(-30)" fill="url(#radial-gradient-2)"/>
    <path id="Path-10" data-name="Path" d="M68.422,138.569A93.992,93.992,0,0,1,54.28,128.421,22.741,22.741,0,0,1,51.907,96.5c9.608-11.228,25.129-26.408,49.05-42.753C90.24,34.557,75.131,17.714,58.317,8.035c-14.3-8.258-27.389-9.949-37.58-6h-.085c-.384.142-.753.3-1.137.469l-.185.085-1.023.483-.185.1-1.08.569h-.071a23.892,23.892,0,0,0-2.288,1.421h-.071l-.981.725-.185.156-.853.7-.2.171-.853.768-.128.128c-.668.625-1.293,1.279-1.9,1.976v.085c-.27.313-.54.625-.8.952-.071.085-.128.171-.2.242l-.64.853-.213.3c-.213.284-.412.583-.611.881s-.128.185-.185.27c-.242.37-.483.753-.711,1.137h0c-.256.412-.5.853-.739,1.279l-.085.156c-.2.37-.4.739-.583,1.123,0,.128-.114.242-.185.37s-.3.64-.455.981c0,.128-.128.27-.185.412s-.284.668-.412.995l-.171.412c-.156.384-.3.782-.441,1.165a.88.88,0,0,1-.1.27c-.185.5-.341.995-.512,1.507v.2c-.142.441-.27.881-.4,1.322l-.128.483c-.1.355-.185.725-.284,1.08l-.128.569c-.085.355-.171.711-.242,1.08l-.128.569a7.066,7.066,0,0,1-.227,1.194l-.085.469c-.1.569-.185,1.137-.27,1.706v.213c-.071.5-.128,1.023-.2,1.535v.583c0,.2-.085.81-.114,1.208a5.272,5.272,0,0,0,0,.682L0,37.243V46.1A17.878,17.878,0,0,0,.128,48.23a4.239,4.239,0,0,0,.1,1.109,21.076,21.076,0,0,0,.256,2.487l.085.8c.128,1.038.284,2.089.441,3.141a6.717,6.717,0,0,0,.227,1.279c.1.654.227,1.308.341,1.961l.3,1.507.384,1.777c.114.526.227,1.038.355,1.563.2.824.4,1.663.625,2.5s.412,1.535.625,2.288c.114.426.242.853.355,1.279.2.668.412,1.336.625,2.018L5.188,73q1.222,3.766,2.672,7.5A1.4,1.4,0,0,0,8,80.892l.981,2.4c.1.213.185.412.27.625,10.461,24.745,28.654,47.628,49.362,59.6,18.079,10.432,34.254,10.333,45.027,1.734C93.622,148.177,81.527,146.145,68.422,138.569Z" transform="translate(37.025 41.939)" fill="#380031" opacity="0.2"/>
    <path id="Path-11" data-name="Path" d="M61.429,140.668C29.038,121.935,2.743,76.368,2.743,38.9,2.743,19.23,9.992,5.714,21.59,0,8.414,4.847,0,18.9,0,40.053c0,37.466,26.309,83.034,58.743,101.766,15.421,8.9,29.436,10.134,39.911,4.975C88.534,150.546,75.643,148.812,61.429,140.668Z" transform="translate(36.642 43.805)" fill="#fff"/>
    <g id="Group" transform="translate(29.173 27.954)">
      <ellipse id="Oval-4" data-name="Oval" cx="40.5" cy="76.5" rx="40.5" ry="76.5" transform="translate(0.003 40.545) rotate(-30)" fill="none"/>
      <g id="Group-2" data-name="Group" clip-path="url(#clip-path-2)">
        <path id="Path-12" data-name="Path" d="M0,65.907,85.237,0l30.956,53.712L16.146,94.759,0,65.907Z" transform="translate(57.428 9.895)" fill="#fff"/>
        <ellipse id="Oval-5" data-name="Oval" cx="9.58" cy="16.587" rx="9.58" ry="16.587" transform="translate(49.627 80.284) rotate(-30)" fill="#ff9600"/>
        <path id="Path-13" data-name="Path" d="M6.68,50.826c8.187,4.719,14.81,16.189,14.81,25.584A12.067,12.067,0,0,1,19,84.455l75.06-30.8L63.107,0,0,48.851A13.176,13.176,0,0,1,6.68,50.826Z" transform="translate(79.558 9.895)" fill="#c49c7b"/>
      </g>
    </g>
    <path id="Path-14" data-name="Path" d="M5.5.567,5.031.311a1.933,1.933,0,0,0-2.1,0h0L0,2.1l2.018.327a1.421,1.421,0,0,0,0,.355l.512,16.43a7.391,7.391,0,0,0,3.241,5.771l-.54,2.26,2.928-1.819h0a2.6,2.6,0,0,0,1.123-2.6L8.826,6.352A7.348,7.348,0,0,0,5.5.567Z" transform="translate(210.057 133.478)" fill="url(#radial-gradient-3)"/>
    <path id="Path-15" data-name="Path" d="M5.5.567,5.031.311a1.933,1.933,0,0,0-2.1,0h0L0,2.1l2.018.327a1.421,1.421,0,0,0,0,.355l.512,16.43a7.391,7.391,0,0,0,3.241,5.771l-.54,2.26,2.928-1.819h0a2.6,2.6,0,0,0,1.123-2.6L8.826,6.352A7.348,7.348,0,0,0,5.5.567Z" transform="translate(210.057 133.478)" fill="#d7880a"/>
    <path id="Path-16" data-name="Path" d="M4.25,25.232l-.469-.242a7.405,7.405,0,0,1-3.269-5.8L0,2.761C0,.486,1.279-.594,3,.33l.469.256A7.377,7.377,0,0,1,6.737,6.371l.526,16.445C7.334,25.047,5.984,26.141,4.25,25.232Z" transform="translate(209.019 135.378)" fill="url(#linear-gradient)"/>
  </g>
</svg>
