<svg xmlns="http://www.w3.org/2000/svg" width="33" height="40" viewBox="0 0 33 40">
    <g fill="none" fill-rule="evenodd">
        <g fill-rule="nonzero">
            <g>
                <g>
                    <path fill="#FABE2C" d="M20.415 2.36C19.274 1.305 17.893.606 16.406.26 15.746.105 15.073 0 14.378 0c-1.85 0-3.06.507-4.89 1.275-.778.326-1.693.71-2.862 1.14L5.86 2.7v.817c0 .877.081 2.597 1.172 8.28l1.172 2.345H24.61l1.172-2.344V9.379c0-5.749-3.433-6.88-5.366-7.018z" transform="translate(-524 -1951) translate(345 1921) translate(179 30)"/>
                    <path fill="#FF9100" d="M25.781 11.797V9.379c0-5.749-3.433-6.88-5.366-7.018C19.274 1.304 17.893.605 16.406.259V14.14h8.203l1.172-2.344z" transform="translate(-524 -1951) translate(345 1921) translate(179 30)"/>
                    <path fill="#FDB902" d="M22.266 28.203l-1.172 1.172v-3.133h-9.375v3.133l-1.172-1.172C4.73 28.203 0 32.934 0 38.75V40h32.813v-1.25c0-5.816-4.732-10.547-10.547-10.547z" transform="translate(-524 -1951) translate(345 1921) translate(179 30)"/>
                    <path fill="#FD8C02" d="M32.813 38.75c0-5.816-4.732-10.547-10.547-10.547l-1.172 1.172v-3.133h-4.688V40h16.407v-1.25z" transform="translate(-524 -1951) translate(345 1921) translate(179 30)"/>
                    <path fill="#FFE6CC" d="M24.61 11.797c-.753 0-4.832-.058-8.204-1.158-1.223-.4-2.356-.932-3.2-1.654-1.03 1.685-2.887 2.812-5.003 2.812H7.031v7.031c0 5.17 4.206 9.375 9.375 9.375 5.17 0 9.375-4.206 9.375-9.375v-7.031H24.61z" transform="translate(-524 -1951) translate(345 1921) translate(179 30)"/>
                    <path fill="#FC9" d="M25.781 18.828v-7.031H24.61c-.752 0-4.831-.058-8.203-1.158v17.564c5.17 0 9.375-4.206 9.375-9.375z" transform="translate(-524 -1951) translate(345 1921) translate(179 30)"/>
                    <path fill="#FF9100" d="M21.094 28.203c-2 0-3.263.848-4.688 1.879-.884-.803-2.418-1.879-4.687-1.879h-1.172v7.031h1.172c2.09 0 3.687-1.06 4.665-1.896l.022.018c.884.802 2.419 1.878 4.688 1.878h1.172v-7.03h-1.172z" transform="translate(-524 -1951) translate(345 1921) translate(179 30)"/>
                    <path fill="#F17000" d="M22.266 35.234v-7.03h-1.172c-2 0-3.263.847-4.688 1.878v3.274c.884.802 2.419 1.878 4.688 1.878h1.172z" transform="translate(-524 -1951) translate(345 1921) translate(179 30)"/>
                </g>
            </g>
        </g>
    </g>
</svg>
