<svg xmlns="http://www.w3.org/2000/svg" width="91" height="83" viewBox="0 0 91 83">
    <g fill="none" fill-rule="evenodd">
        <g>
            <g>
                <g>
                    <g>
                        <g>
                            <g>
                                <path fill="#FF6E6C" fill-rule="nonzero" d="M0 24.165s33.92 14.102 35.268 20.347c.954 4.386-12.257 25.23-12.257 25.23s18.275-13.077 23.094-12.109c3.29.645 5.974 20.153 5.974 20.153s2.903-21.733 9.457-16.863c6.554 4.87 19.437 10.238 19.437 10.238s-20.87-23.533-9.715-22.256c0 0-.4-9.515 18.288-10.38 0 0-23.656-2.232-26.681-5.67-2.193-2.49-7.019-23.869-6.703-25.075 0 0-3.012 14.921-7.096 16.173-7.838 2.38-17.05-9.967-17.05-9.967s7.096 11.153 3.09 13.805C29.494 31.52 0 24.165 0 24.165z" transform="translate(-951 -379) translate(140 114) translate(0 61) translate(444) translate(327 204) translate(40)"/>
                                <path fill="#EF0F0B" fill-rule="nonzero" d="M30.171 0s10.896 28.423 22.276 21.127c4.277-2.742 10.702-12.45 10.702-12.45s-3.87 15.675.329 15.675c4.935 0 14.598-4.909 14.598-4.909S56.917 37.203 65.232 35.41c8.316-1.793 21.211-8.315 21.211-8.315S70.535 37.022 74 40.486c2.852 2.845 16.605 2.697 16.605 2.697s-20.85 1.503-23.798 7.638c-1.683 3.496.542 21.624.542 21.624S60.465 58.11 52.511 62.278c-5.657 2.948-13.947 20.36-13.947 20.36s4.516-18.186-.555-20.599c-2.948-1.406-22.869 8.386-22.869 8.386S35.784 56.57 29.887 53.788c-5.896-2.78-19.294.4-19.294.4s28.603-6.973 22.7-9.031c-5.902-2.058-18.398-11.134-18.398-11.134s14.005 6.321 16.128.812c1.735-4.515-5.361-9.496-5.361-9.496s10.07 7.297 6.941-2.425c0 0 3.47 5.232 3.47-1.548S30.172 0 30.172 0z" transform="translate(-951 -379) translate(140 114) translate(0 61) translate(444) translate(327 204) translate(40)"/>
                                <path fill="#FF413E" fill-rule="nonzero" d="M28.062 22.862c-3.955-5.967-13.838-11.94-13.838-11.94 6.677 10.424 13.838 11.94 13.838 11.94z" transform="translate(-951 -379) translate(140 114) translate(0 61) translate(444) translate(327 204) translate(40)"/>
                                <path fill="#FC6600" fill-rule="nonzero" d="M62.071 76.49c-.31-4.103-3.593-9.877-3.593-9.877.42 7.109 3.593 9.876 3.593 9.876zM88.83 64.052c-3.09-2.722-9.483-4.561-9.483-4.561 5.277 4.793 9.483 4.56 9.483 4.56z" transform="translate(-951 -379) translate(140 114) translate(0 61) translate(444) translate(327 204) translate(40)"/>
                                <path fill="#FF413E" fill-rule="nonzero" d="M66.277 17.914c2.394-3.348 3.561-9.889 3.561-9.889-4.225 5.735-3.56 9.89-3.56 9.89zM1.18 68.677c4.045-.774 9.4-4.709 9.4-4.709-7.013 1.245-9.4 4.71-9.4 4.71z" transform="translate(-951 -379) translate(140 114) translate(0 61) translate(444) translate(327 204) translate(40)"/>
                                <path fill="#FF413E" d="M27.533 41.996s-9.206 9.064-3.955 15.973c6.258 8.25 12.618 2.844 12.618 2.844s-.587 10.58 8.348 12.083c11.612 1.935 14.58-9.373 14.58-9.373s6.315 5.16 11.805-.348c4.09-4.097 0-8.335 0-8.335s16.662 1.045 12.495-12.844c-4.167-13.89-14.23-8.328-14.23-8.328s3.754-9.728-6.62-12.154c-10.798-2.529-13.25 6.6-13.25 6.6s-4.515-9.032-14.63-5.232c-8.245 3.09-11.677 11.824-7.161 19.114z" transform="translate(-951 -379) translate(140 114) translate(0 61) translate(444) translate(327 204) translate(40)"/>
                                <path fill="#DE1815" fill-rule="nonzero" d="M28.062 46.512s-7.251 8.54 0 12.611c4.515 2.548 8.94-.851 8.94-.851S38.449 69.4 46.26 70c8.206.645 10.76-9.838 10.76-9.838s7.012 6.277 11.438 1.858c2.729-2.729-.677-7.741-.677-7.741s1.812 6.49-3.278 7.74c-2.819.697-8.212-4.747-8.212-4.747s-2.658 10.205-8.554 10.205c-7.096 0-8.173-11.411-8.173-11.411s-6.903 4.006-9.715 1.619c-5.929-5.039-1.787-11.173-1.787-11.173z" transform="translate(-951 -379) translate(140 114) translate(0 61) translate(444) translate(327 204) translate(40)"/>
                                <path fill="#FF6F6D" fill-rule="nonzero" d="M37.345 25.565s8.767-3.696 11.805 7.638c0 0 5.903-9.721 12.844-8.567 6.941 1.155 3.225 10.773 3.225 10.773s11.457-3.225 13.773 3c2.316 6.225-3.11 9.973-3.11 9.973s4.149-6.76.923-9.605c-4.735-4.2-12.94-.484-12.94-.484s2.316-11.225-1.852-10.063c-4.167 1.16-13.676 7.69-13.676 7.69S45.7 24.455 37.345 25.564z" transform="translate(-951 -379) translate(140 114) translate(0 61) translate(444) translate(327 204) translate(40)"/>
                                <path fill="#FF6F6D" fill-rule="nonzero" d="M44.776 36.126s5.303-5.303 7.612 1.754c-2.1-1.788-4.94-2.442-7.612-1.754zM60.723 37.08s6.064-2.025 6.264 3.91c0 0-2.62-3.103-6.264-3.91zM50.582 43.615s3.832-6.535 8.767-1.62c0 0 5.025-5.057 7.057 3.13 0 0-3.328-4.961-7.315-.974-.013 0-3.49-3.774-8.509-.536z" transform="translate(-951 -379) translate(140 114) translate(0 61) translate(444) translate(327 204) translate(40)"/>
                            </g>
                        </g>
                    </g>
                </g>
            </g>
        </g>
    </g>
</svg>
