<svg 
 xmlns="http://www.w3.org/2000/svg"
 xmlns:xlink="http://www.w3.org/1999/xlink"
 width="325px" height="556px">
<path fill-rule="evenodd"  opacity="0.502" fill="rgb(253, 250, 246)"
 d="M325.011,506.837 C325.011,509.885 324.868,512.919 324.601,515.944 C323.418,529.395 319.818,542.630 315.706,555.715 L295.967,555.715 C280.423,538.548 262.615,514.250 248.366,482.079 C240.798,464.982 238.476,448.020 238.476,431.371 C238.476,424.906 238.826,418.488 239.356,412.130 C265.305,420.597 288.938,429.976 305.263,451.184 C317.585,467.189 323.137,482.803 324.601,498.104 L324.601,498.104 C324.881,501.026 325.011,503.937 325.011,506.837 ZM87.712,226.674 C51.181,197.514 46.355,168.368 43.903,133.186 C69.170,141.509 92.117,150.938 108.082,171.675 C122.765,190.744 127.839,209.246 127.839,227.337 C127.839,234.547 127.033,241.691 125.708,248.780 C112.866,243.357 100.034,236.515 87.712,226.674 Z"/>
<path fill-rule="evenodd"  opacity="0.502" fill="rgb(246, 243, 236)"
 d="M0.000,184.000 L0.000,0.000 C14.513,12.209 26.377,28.214 32.283,48.711 C41.636,81.171 42.192,108.648 43.903,133.186 C46.355,168.368 51.181,197.514 87.712,226.674 C100.034,236.515 112.866,243.357 125.708,248.780 C164.539,265.178 203.479,268.606 228.808,302.750 C240.917,319.080 244.348,336.635 244.348,355.087 C244.348,367.157 242.880,379.609 241.412,392.354 C240.661,398.874 239.910,405.470 239.356,412.130 C238.826,418.488 238.476,424.906 238.476,431.371 C238.476,448.020 240.798,464.982 248.366,482.079 C262.615,514.250 280.423,538.548 295.967,555.715 L202.123,555.715 C202.062,553.869 202.034,552.029 202.034,550.190 C202.034,536.958 203.501,523.922 204.969,511.181 C206.436,498.437 207.903,485.989 207.903,473.920 C207.903,455.470 204.471,437.910 192.363,421.582 C169.700,391.031 136.139,385.075 101.514,372.414 C102.178,367.530 102.557,362.615 102.557,357.672 C102.557,339.580 97.484,321.074 82.804,302.005 C64.651,278.422 37.456,269.463 8.094,260.123 C6.118,237.570 6.289,213.086 0.000,184.000 "/>
<path fill-rule="evenodd"  opacity="0.502" fill="rgb(238, 234, 226)"
 d="M8.094,260.123 C37.456,269.463 64.651,278.422 82.804,302.005 C97.484,321.074 102.557,339.580 102.557,357.672 C102.557,362.615 102.178,367.530 101.514,372.414 C84.641,366.245 67.516,358.484 51.275,345.509 C17.594,318.611 10.862,291.730 8.094,260.123 "/>
<path fill-rule="evenodd"  opacity="0.502" fill="rgb(238, 234, 226)"
 d="M-0.000,556.000 L-0.000,184.000 C6.278,213.071 6.233,238.012 8.205,260.554 C10.968,292.144 17.690,319.012 51.315,345.896 C67.529,358.864 84.626,366.622 101.471,372.788 C136.039,385.442 169.544,391.395 192.171,421.930 C204.258,438.251 207.685,455.801 207.685,474.243 C207.685,486.306 206.220,498.747 204.755,511.485 C203.290,524.219 201.825,537.249 201.825,550.474 C201.825,552.312 201.854,554.151 201.914,555.996 L-0.003,555.996 L-0.000,556.000 Z"/>
</svg>