<svg 
 xmlns="http://www.w3.org/2000/svg"
 xmlns:xlink="http://www.w3.org/1999/xlink"
 width="325px" height="556px">
<path fill-rule="evenodd"  fill="rgb(56, 56, 56)"
 d="M202.000,556.000 L315.000,556.000 C319.110,542.920 323.409,529.405 324.590,515.959 C324.858,512.935 325.000,509.902 325.000,506.855 C325.000,503.957 324.871,501.047 324.590,498.125 C323.127,482.830 317.578,467.222 305.262,451.222 C288.945,430.022 265.324,420.647 239.389,412.183 C239.942,405.525 240.693,398.932 241.444,392.414 C242.911,379.674 244.378,367.227 244.378,355.161 C244.378,336.715 240.949,319.167 228.845,302.843 C203.529,268.711 164.609,265.285 125.797,248.893 C127.122,241.806 127.927,234.665 127.927,227.458 C127.927,209.373 122.856,190.878 108.180,171.816 C92.223,151.087 69.288,141.661 44.033,133.341 C42.323,108.812 41.768,81.345 32.419,48.897 C26.516,28.407 14.506,12.204 0.000,-0.000 L0.000,556.000 L202.000,556.000 Z"/>
</svg>