<svg xmlns="http://www.w3.org/2000/svg" xmlns:xlink="http://www.w3.org/1999/xlink" width="245" height="174" viewBox="0 0 245 174">
    <defs>
        <path id="ajp5saryya" d="M0 0H245V174H0z"/>
    </defs>
    <g fill="none" fill-rule="evenodd">
        <g>
            <g>
                <g>
                    <g transform="translate(-493 -2261) translate(30 120) translate(0 1655) translate(463 486)">
                        <mask id="w7j5tzpgeb" fill="#fff">
                            <use xlink:href="#ajp5saryya"/>
                        </mask>
                        <g mask="url(#w7j5tzpgeb)">
                            <g>
                                <path fill="#FF9600" d="M633 437.39s-59.16-3.9-113.2-65.88c-54.04-61.98-23-88.14-119.64-111.64-65.6-16-123.14 19.68-173.39-6.36-81.74-42.35-32.53-136.66-86.15-183.45C79.88 17 2.15 39.73 2.15 39.73L0 6.32 626.73 0 633 437.39z" transform="rotate(135 465.51 195.473)"/>
                                <path fill="#FF9600" d="M697.16 429.83c-65.59-16-123.13 19.68-173.39-6.36C442 381.11 491.25 286.81 437.63 240c-60.76-53-138.49-30.32-138.49-30.32l-2.14-33.4L923.72 170c-86.613 188.887-162.133 275.497-226.56 259.83z" transform="rotate(135 465.51 195.473)"/>
                                <path fill="#FFB200" d="M805.213 525.826S698.54 564.85 644.5 502.87C590.46 440.89 596.17 383.64 519 365c-61.71-14.92-110.36 17.65-160.14-9.28-56-30.31-39.92-107.49-93.54-154.28-60.76-53-120.99-60.64-120.99-60.64l-2.15-33.41 609.23 23.99 53.803 394.446z" transform="rotate(135 465.51 195.473)"/>
                                <path fill="#FF9600" d="M897.83 478.51s-59.16-3.9-113.2-65.88C730.59 350.65 761.6 324.49 665 301c-65.6-16-123.14 19.68-173.39-6.36-81.75-42.36-32.54-136.64-86.16-183.46C344.69 58.16 267 80.85 267 80.85l-2.15-33.41 626.73-6.32 6.25 437.39z" transform="rotate(135 465.51 195.473)"/>
                                <path fill="#FFC723" d="M740.53 445.64s-59.17-3.9-113.2-65.88S579 260.53 501.82 241.87c-61.7-14.93-110.35 17.65-160.13-9.28-56-30.31-39.92-107.49-93.55-154.28C187.38 25.28 109.65 48 109.65 48l-2.14-33.41 626.72-6.34 6.3 437.39z" transform="rotate(135 465.51 195.473)"/>
                            </g>
                        </g>
                    </g>
                </g>
            </g>
        </g>
    </g>
</svg>
