<svg xmlns="http://www.w3.org/2000/svg" width="34" height="34" viewBox="0 0 34 34">
    <g fill="none" fill-rule="evenodd">
        <g fill-rule="nonzero">
            <g>
                <g>
                    <g>
                        <g>
                            <path fill="#FDB902" d="M18.821 34c-8.215 0-14.875-7.611-14.875-17s6.66-17 14.875-17c8.216 0 14.875 7.611 14.875 17s-6.66 17-14.875 17" transform="translate(-33 -520) translate(0 80) translate(23 38) translate(0 402) translate(10)"/>
                            <path fill="#FD8C02" d="M3.946 17C3.946 8.317 9.644 1.158 17 .131 16.403.048 15.795 0 15.179 0 6.963 0 .304 7.611.304 17s6.66 17 14.875 17c.616 0 1.224-.048 1.821-.131C9.644 32.842 3.946 25.683 3.946 17" transform="translate(-33 -520) translate(0 80) translate(23 38) translate(0 402) translate(10)"/>
                            <path fill="#FD8C02" d="M18.873 30.675h-.052c-.425 0-.853-.025-1.272-.075-.333-.04-.57-.342-.531-.675.04-.333.344-.566.675-.53.371.044.75.066 1.128.066.336 0 .633.272.633.607 0 .335-.245.607-.581.607m3.53-.654c-.245 0-.476-.15-.568-.393-.118-.314.04-.664.354-.782.35-.132.7-.287 1.036-.46.299-.154.664-.035.818.263.153.298.035.664-.264.817-.378.195-.768.367-1.162.516-.07.027-.142.04-.213.04m-8.218-.464c-.092 0-.187-.022-.275-.067-.373-.19-.743-.403-1.098-.636-.28-.183-.359-.56-.175-.84.184-.28.56-.359.84-.176.318.209.649.4.983.57.299.152.418.517.266.816-.106.211-.32.333-.541.333m12.21-2.16c-.155 0-.31-.06-.428-.177-.238-.236-.24-.62-.004-.858.265-.266.521-.553.764-.851.212-.26.594-.3.854-.088.26.21.3.593.088.854-.268.329-.551.645-.843.94-.12.12-.276.18-.431.18m-15.919-.856c-.175 0-.35-.075-.47-.221-.263-.322-.516-.662-.751-1.011-.188-.278-.114-.656.164-.843.277-.188.655-.115.843.164.214.318.444.627.684.92.212.259.175.641-.085.854-.112.093-.25.137-.385.137m18.588-3.118c-.082 0-.164-.017-.243-.05-.308-.135-.448-.493-.314-.8.152-.349.291-.71.413-1.074.107-.317.451-.49.77-.382.317.107.488.45.381.769-.133.396-.285.791-.45 1.172-.1.228-.324.365-.557.365M8.163 22.35c-.253 0-.489-.16-.575-.412-.134-.393-.253-.798-.354-1.204-.081-.325.117-.654.442-.735.324-.083.655.116.736.442.093.372.202.744.325 1.105.108.317-.06.662-.378.77-.064.023-.131.034-.196.034m22.048-3.58l-.047-.002c-.334-.026-.584-.319-.559-.653.029-.368.044-.744.044-1.116 0-.335.272-.627.607-.627.335 0 .607.252.607.588V17c0 .404-.016.81-.047 1.21-.024.318-.29.56-.605.56M7.387 17.614c-.336 0-.608-.265-.608-.6V17c0-.414.017-.83.049-1.237.027-.334.317-.581.653-.557.335.027.584.32.558.653-.03.375-.045.76-.045 1.141 0 .335-.272.614-.607.614m22.425-3.62c-.271 0-.519-.184-.588-.459-.094-.373-.204-.745-.328-1.106-.108-.316.061-.662.378-.77.318-.11.663.06.771.377.135.392.254.797.356 1.202.082.325-.115.655-.44.737-.049.013-.099.018-.15.018M8.156 12.89c-.065 0-.13-.01-.195-.033-.318-.107-.488-.452-.38-.77.134-.394.286-.788.453-1.17.135-.308.492-.447.8-.313.307.134.447.492.313.8-.154.35-.293.712-.416 1.073-.087.254-.322.413-.575.413M27.87 9.616c-.195 0-.385-.094-.503-.267-.215-.317-.446-.626-.686-.918-.213-.259-.176-.642.082-.855.259-.213.642-.176.855.083.264.32.518.66.754 1.01.188.277.116.654-.162.842-.104.07-.222.105-.34.105m-17.41-.924c-.134 0-.27-.044-.383-.137-.26-.212-.298-.594-.085-.854.267-.328.551-.644.844-.938.237-.237.621-.239.859-.002.238.236.239.62.003.858-.265.267-.523.553-.767.85-.119.148-.293.223-.47.223m14.014-2.446c-.114 0-.228-.032-.33-.099-.318-.207-.65-.397-.985-.567-.299-.15-.42-.516-.268-.815.151-.298.516-.42.816-.268.375.188.744.401 1.099.633.281.183.36.56.177.84-.116.18-.31.276-.51.276m-10.309-.577c-.221 0-.434-.12-.542-.332-.152-.298-.033-.664.266-.816.378-.193.769-.366 1.163-.513.313-.117.664.042.781.356.118.314-.041.664-.356.782-.35.13-.7.284-1.038.457-.087.045-.182.066-.274.066m5.832-1.062c-.023 0-.047-.001-.07-.004-.366-.043-.738-.064-1.105-.064-.335 0-.62-.272-.62-.607 0-.335.26-.607.594-.607h.026c.414 0 .833.024 1.244.072.333.038.572.34.534.673-.036.31-.3.537-.603.537" transform="translate(-33 -520) translate(0 80) translate(23 38) translate(0 402) translate(10)"/>
                            <path fill="#393835" d="M3.945 17.607H.304c.012.409.035.814.072 1.214H4.02c-.037-.4-.062-.805-.075-1.214M4.084 14.571H.444c-.05.4-.087.806-.112 1.215h3.642c.026-.409.06-.814.11-1.215M4.28 20.643H.635c.079.41.17.815.273 1.214h3.643c-.103-.399-.194-.804-.273-1.214M5.129 23.679H1.483c.155.414.326.817.508 1.214h3.644c-.182-.396-.352-.801-.506-1.214M4.719 11.536H1.08c-.118.399-.229.802-.321 1.214h3.647c.092-.41.195-.817.313-1.214M5.928 8.5H2.285c-.2.395-.389.8-.561 1.214h3.645c.172-.414.359-.819.56-1.214M8.406 4.857H4.759c-.346.386-.674.791-.985 1.214H7.42c.311-.423.64-.828.986-1.214M12.119 1.821H8.468c-.62.359-1.216.764-1.783 1.215h3.649c.567-.45 1.163-.856 1.785-1.215M6.994 27.321H3.349c.282.421.58.826.894 1.215H7.89c-.315-.389-.614-.794-.896-1.215M5.97 30.357c.487.44.998.846 1.532 1.214h3.651c-.537-.368-1.053-.773-1.542-1.214H5.97z" transform="translate(-33 -520) translate(0 80) translate(23 38) translate(0 402) translate(10)"/>
                        </g>
                    </g>
                </g>
            </g>
        </g>
    </g>
</svg>
