<svg xmlns="http://www.w3.org/2000/svg" width="38" height="26" viewBox="0 0 38 26">
    <g fill="none" fill-rule="evenodd">
        <g>
            <g>
                <g>
                    <g>
                        <g>
                            <g>
                                <g transform="translate(-1126 -802) translate(140 120) translate(0 55) translate(50 598) translate(715) translate(221.544 29) translate(0 4)">
                                    <circle cx="9" cy="9" r="9" fill="#56FB7F" fill-rule="nonzero"/>
                                    <path fill="#32DD5C" fill-rule="nonzero" d="M18 9c0-4.963-4.037-9-9-9v18c4.963 0 9-4.037 9-9z"/>
                                    <path fill="#21DB4F" fill-rule="nonzero" d="M9 15.855c-3.78 0-6.855-3.075-6.855-6.855C2.145 5.22 5.22 2.145 9 2.145c3.78 0 6.855 3.075 6.855 6.855 0 3.78-3.075 6.855-6.855 6.855z"/>
                                    <path fill="#0ABA36" fill-rule="nonzero" d="M15.855 9c0-3.78-3.075-6.855-6.855-6.855v13.71c3.78 0 6.855-3.075 6.855-6.855z"/>
                                    <path fill="#019727" d="M8.818 5.063l-.001.953h.456v-.954h.875l-.001.954H13.5v1.766l-2.751 2.736H13.5v1.413h-3.353v1.007h-.874V11.93h-.456v1.008h-.874V11.93l-1.056.001 4.445-4.379H4.518V6.016h3.425v-.954h.875zm-1.421 5.35l-1.549 1.5H4.5v-1.5h2.897zm2.46-2.225L8.161 9.83H4.518V8.188h5.338z"/>
                                </g>
                                <g transform="translate(-1126 -802) translate(140 120) translate(0 55) translate(50 598) translate(715) translate(221.544 29) translate(11)">
                                    <circle cx="13" cy="13" r="13" fill="#56FB7F" fill-rule="nonzero"/>
                                    <path fill="#32DD5C" fill-rule="nonzero" d="M26 13c0-7.168-5.832-13-13-13v26c7.168 0 13-5.832 13-13z"/>
                                    <path fill="#21DB4F" fill-rule="nonzero" d="M13 22.902c-5.46 0-9.902-4.442-9.902-9.902 0-5.46 4.442-9.902 9.902-9.902 5.46 0 9.902 4.442 9.902 9.902 0 5.46-4.442 9.902-9.902 9.902z"/>
                                    <path fill="#0ABA36" fill-rule="nonzero" d="M22.902 13c0-5.46-4.442-9.902-9.902-9.902v19.804c5.46 0 9.902-4.442 9.902-9.902z"/>
                                    <path fill="#019727" d="M12.737 7.313l-.001 1.377h.658V7.313h1.264l-.001 1.377H19.5v2.55l-3.974 3.953H19.5v2.04h-4.843v1.454h-1.262l-.001-1.454h-.658v1.454h-1.262l-.001-1.454H9.947l6.421-6.324H6.526v-2.22h4.947V7.313h1.264zm-2.053 7.727l-2.237 2.168H6.5V15.04h4.184zm3.553-3.213l-2.448 2.372H6.526v-2.372h7.71z"/>
                                </g>
                            </g>
                        </g>
                    </g>
                </g>
            </g>
        </g>
    </g>
</svg>
