<svg xmlns="http://www.w3.org/2000/svg" width="19" height="20" viewBox="0 0 19 20">
    <g fill="none" fill-rule="evenodd">
        <g fill-rule="nonzero">
            <g>
                <g>
                    <g>
                        <g>
                            <g>
                                <path fill="#FC9" d="M11.875 17.5H2.292C1.028 17.5 0 16.473 0 15.208V2.292C0 1.028 1.028 0 2.292 0h9.583c1.264 0 2.292 1.028 2.292 2.292v12.916c0 1.264-1.028 2.292-2.292 2.292z" transform="translate(-888 -1082) translate(140 120) translate(0 869) translate(420 46) translate(0 30) translate(328 17)"/>
                                <path fill="#FFE6CC" d="M7.5 0H2.292C1.028 0 0 1.028 0 2.292v12.916C0 16.472 1.028 17.5 2.292 17.5H7.5V0z" transform="translate(-888 -1082) translate(140 120) translate(0 869) translate(420 46) translate(0 30) translate(328 17)"/>
                                <path fill="#FF9100" d="M16.042 20H6.458c-1.264 0-2.291-1.027-2.291-2.292V5.625c0-1.264 1.027-2.292 2.291-2.292h9.584c1.264 0 2.291 1.028 2.291 2.292v12.083c0 1.265-1.027 2.292-2.291 2.292z" transform="translate(-888 -1082) translate(140 120) translate(0 869) translate(420 46) translate(0 30) translate(328 17)"/>
                                <g fill="#FFE6CC">
                                    <path d="M6.875 7.5H.625C.28 7.5 0 7.22 0 6.875s.28-.625.625-.625h6.25c.345 0 .625.28.625.625s-.28.625-.625.625zM6.875 10.833H.625c-.345 0-.625-.28-.625-.625s.28-.625.625-.625h6.25c.345 0 .625.28.625.625s-.28.625-.625.625zM6.875 4.583H.625C.28 4.583 0 4.303 0 3.958s.28-.625.625-.625h6.25c.345 0 .625.28.625.625s-.28.625-.625.625zM6.875 1.25H.625C.28 1.25 0 .97 0 .625S.28 0 .625 0h6.25C7.22 0 7.5.28 7.5.625s-.28.625-.625.625z" transform="translate(-888 -1082) translate(140 120) translate(0 869) translate(420 46) translate(0 30) translate(328 17) translate(7.5 6.667)"/>
                                </g>
                                <path fill="#FDBF00" d="M11.25 3.333H6.458c-1.264 0-2.291 1.028-2.291 2.292v12.083C4.167 18.973 5.194 20 6.458 20h4.792v-2.5H8.125c-.345 0-.625-.28-.625-.625s.28-.625.625-.625h3.125v-2.083H8.125c-.345 0-.625-.28-.625-.625s.28-.625.625-.625h3.125V11.25H8.125c-.345 0-.625-.28-.625-.625S7.78 10 8.125 10h3.125V7.917H8.125c-.345 0-.625-.28-.625-.625s.28-.625.625-.625h3.125V3.333z" transform="translate(-888 -1082) translate(140 120) translate(0 869) translate(420 46) translate(0 30) translate(328 17)"/>
                                <path fill="#FFF" d="M11.25 12.917H8.125c-.345 0-.625.28-.625.625s.28.625.625.625h3.125v-1.25zM11.25 16.25H8.125c-.345 0-.625.28-.625.625s.28.625.625.625h3.125v-1.25zM11.25 10H8.125c-.345 0-.625.28-.625.625s.28.625.625.625h3.125V10zM11.25 6.667H8.125c-.345 0-.625.28-.625.625s.28.625.625.625h3.125v-1.25z" transform="translate(-888 -1082) translate(140 120) translate(0 869) translate(420 46) translate(0 30) translate(328 17)"/>
                            </g>
                        </g>
                    </g>
                </g>
            </g>
        </g>
    </g>
</svg>
