<svg xmlns="http://www.w3.org/2000/svg" width="30" height="21" viewBox="0 0 30 21">
    <g fill="none" fill-rule="evenodd">
        <g fill-rule="nonzero">
            <g>
                <g>
                    <g>
                        <g>
                            <g>
                                <path fill="#FF9100" d="M28.125 0H10.312c-.249 0-.487.1-.663.274L8.438 1.487 7.226.274C7.05.099 6.812 0 6.563 0H1.875C.842 0 0 .842 0 1.875V18.75c0 1.035.842 1.875 1.875 1.875h4.688c.249 0 .487-.1.663-.274l1.212-1.213 1.21 1.211c.177.177.415.276.665.276h17.812c1.035 0 1.875-.84 1.875-1.875V1.875C30 .842 29.16 0 28.125 0z" transform="translate(-444 -1620) translate(140 120) translate(0 1247) translate(50 203) translate(254 40) translate(0 10)"/>
                                <path fill="#FDBF00" d="M6.563 0c.199 0 .391.064.55.178l.113.096 1.212 1.213L9 .922V19.7l-.563-.56-1.21 1.212c-.142.14-.322.231-.517.262l-.147.012H1.875c-.969 0-1.769-.738-1.865-1.683L0 18.75V1.875C0 .906.74.106 1.684.01L1.875 0h4.688z" transform="translate(-444 -1620) translate(140 120) translate(0 1247) translate(50 203) translate(254 40) translate(0 10)"/>
                                <g fill="#FAFAFA">
                                    <path d="M8.438 5.625c-1.551 0-2.813-1.262-2.813-2.813C5.625 1.262 6.887 0 8.438 0c1.55 0 2.812 1.262 2.812 2.813 0 1.55-1.262 2.812-2.813 2.812zm0-3.75c-.518 0-.938.42-.938.938 0 .517.42.937.938.937.517 0 .937-.42.937-.938 0-.517-.42-.937-.938-.937zM14.063 13.125c-1.551 0-2.813-1.262-2.813-2.813 0-1.55 1.262-2.812 2.813-2.812 1.55 0 2.812 1.262 2.812 2.813 0 1.55-1.262 2.812-2.813 2.812zm0-3.75c-.516 0-.938.422-.938.938 0 .515.422.937.938.937.515 0 .937-.422.937-.938 0-.515-.422-.937-.938-.937zM6.563 13.125c-.212 0-.424-.071-.6-.217-.398-.332-.452-.923-.12-1.32L15.218.338c.333-.4.924-.449 1.32-.12.397.331.45.922.118 1.321L7.28 12.79c-.184.22-.45.336-.718.336zM0 0H1.875V1.875H0zM0 11.25H1.875V13.125H0zM0 7.5H1.875V9.375H0zM0 3.75H1.875V5.625H0z" transform="translate(-444 -1620) translate(140 120) translate(0 1247) translate(50 203) translate(254 40) translate(0 10) translate(7.5 3.75)"/>
                                </g>
                            </g>
                        </g>
                    </g>
                </g>
            </g>
        </g>
    </g>
</svg>
