<svg xmlns="http://www.w3.org/2000/svg" xmlns:xlink="http://www.w3.org/1999/xlink" width="351" height="276" viewBox="0 0 351 276">
    <defs>
        <filter id="dk54ga770b" width="108.6%" height="112.4%" x="-4.3%" y="-6.2%" filterUnits="objectBoundingBox">
            <feGaussianBlur in="SourceAlpha" result="shadowBlurInner1" stdDeviation="15"/>
            <feOffset in="shadowBlurInner1" result="shadowOffsetInner1"/>
            <feComposite in="shadowOffsetInner1" in2="SourceAlpha" k2="-1" k3="1" operator="arithmetic" result="shadowInnerInner1"/>
            <feColorMatrix in="shadowInnerInner1" values="0 0 0 0 0.707314312 0 0 0 0 0.694236365 0 0 0 0 0.668080471 0 0 0 0.4 0"/>
        </filter>
        <path id="bqlq0itpza" d="M174.988 0L348.988 241 0.988 241z"/>
    </defs>
    <g fill="none" fill-rule="evenodd">
        <g>
            <g>
                <g>
                    <g>
                        <g>
                            <path fill="#272727" d="M174.988 35L349.975 276 0 276z" transform="translate(-802 -231) translate(140 114) translate(0 61) translate(444) translate(218.012 56) matrix(1 0 0 -1 0 311)"/>
                            <path fill="#393835" d="M174.988 24L342.617 258 7.358 258z" transform="translate(-802 -231) translate(140 114) translate(0 61) translate(444) translate(218.012 56) matrix(1 0 0 -1 0 282)"/>
                            <g opacity="1" transform="translate(-802 -231) translate(140 114) translate(0 61) translate(444) translate(218.012 56) matrix(1 0 0 -1 0 241)">
                                <use fill="#272727" xlink:href="#bqlq0itpza"/>
                                <!-- <use fill="#000" filter="url(#dk54ga770b)" xlink:href="#bqlq0itpza"/> -->
                            </g>
                        </g>
                    </g>
                </g>
            </g>
        </g>
    </g>
</svg>
