<svg xmlns="http://www.w3.org/2000/svg" width="34" height="34" viewBox="0 0 34 34">
    <g fill="none" fill-rule="evenodd">
        <g fill-rule="nonzero">
            <g>
                <g>
                    <g transform="translate(-33 -420) translate(0 80) translate(23 38) translate(10 302)">
                        <path fill="#FDB902" d="M32.492 18.186l-5.106-3.083-5.106-3.083c-1.408-.85-3.245-.396-4.095 1.011l-6.166 10.213c-.85 1.408-.396 3.245 1.012 4.095l5.106 3.083 5.106 3.083c1.413.852 3.248.392 4.096-1.012l6.165-10.213c.852-1.41.4-3.243-1.012-4.094z"/>
                        <path fill="#FD8C02" d="M33.504 22.28L27.34 32.493c-.848 1.404-2.683 1.864-4.096 1.012l-5.106-3.083 9.25-15.319 5.105 3.083c1.411.851 1.864 2.683 1.012 4.094z"/>
                        <path fill="#FDB902" d="M14.912 0H2.982C1.338 0 0 1.34 0 2.984v11.93c0 1.644 1.338 2.982 2.982 2.982h11.93c1.645 0 2.983-1.338 2.983-2.982V2.983c0-1.644-1.338-2.982-2.983-2.982z"/>
                        <path fill="#FD8C02" d="M17.895 2.983v11.93c0 1.644-1.338 2.982-2.983 2.982H8.947V.001h5.965c1.645 0 2.983 1.338 2.983 2.982z"/>
                        <circle cx="4.971" cy="12.925" r="1" fill="#353D4D"/>
                        <circle cx="4.971" cy="4.971" r="1" fill="#353D4D"/>
                        <circle cx="12.924" cy="4.971" r="1" fill="#1E2533"/>
                        <circle cx="12.924" cy="12.925" r="1" fill="#1E2533"/>
                        <circle cx="17.302" cy="24.111" r="1" fill="#353D4D"/>
                        <circle cx="21.413" cy="17.303" r="1" fill="#353D4D"/>
                        <circle cx="28.221" cy="21.413" r="1" fill="#1E2533"/>
                        <path fill="#353D4D" d="M23.612 23.276c-.283.47-.894.62-1.364.337-.47-.283-.621-.895-.338-1.364.284-.47.895-.621 1.365-.338.47.284.621.895.337 1.365z"/>
                        <path fill="#1E2533" d="M23.612 23.276c-.283.47-.894.62-1.364.337l1.027-1.702c.47.284.621.895.337 1.365z"/>
                        <circle cx="24.111" cy="28.222" r="1" fill="#1E2533"/>
                    </g>
                </g>
            </g>
        </g>
    </g>
</svg>
