<svg xmlns="http://www.w3.org/2000/svg" width="16" height="16" viewBox="0 0 16 16">
    <g fill="none" fill-rule="evenodd">
        <g fill-rule="nonzero">
            <g>
                <g>
                    <g>
                        <g>
                            <g>
                                <path fill="#E3E2DF" d="M15.523 6.028h-1.03c-.133-.421-.307-.828-.522-1.215l.994-.988c.183-.183.184-.475.001-.658l-2.118-2.126c-.09-.09-.212-.14-.34-.14h-.001c-.127 0-.25.05-.34.139L11.13 2.072c-.37-.189-.756-.343-1.155-.462V.469c0-.26-.213-.469-.477-.469H6.502c-.264 0-.477.21-.477.469v1.14c-.399.12-.785.274-1.155.463L3.832 1.04C3.742.95 3.621.9 3.493.9h-.001c-.128 0-.25.051-.34.141L1.034 3.167c-.183.183-.182.476.001.658l.994.988c-.215.387-.39.794-.521 1.215H.477c-.263 0-.477.21-.477.469v3.006c0 .26.214.469.477.469h1.03c.133.421.307.828.522 1.215l-.994.988c-.183.182-.184.475-.001.658l2.118 2.126c.09.09.212.14.34.14h.001c.127 0 .25-.05.34-.139l1.037-1.032c.37.189.756.343 1.155.462v1.141c0 .26.213.469.477.469h2.996c.264 0 .477-.21.477-.469v-1.14c.398-.12.785-.274 1.155-.463l1.038 1.032c.09.09.211.14.339.14h.001c.128 0 .25-.051.34-.141l2.118-2.126c.183-.183.182-.476-.001-.658l-.994-.988c.215-.387.39-.794.521-1.215h1.031c.263 0 .477-.21.477-.469V6.497c0-.26-.214-.469-.477-.469zM8 12.042c-2.268 0-4.113-1.813-4.113-4.042S5.732 3.958 8 3.958c2.268 0 4.113 1.813 4.113 4.042S10.268 12.042 8 12.042z" transform="translate(-1031 -587) translate(140 120) translate(0 125) translate(50 50) translate(0 270) translate(841 22)"/>
                                <path fill="#C1BFB6" d="M15.523 6.028h-1.03c-.133-.421-.307-.828-.522-1.215l.994-.988c.183-.183.184-.475.001-.658l-2.118-2.126c-.09-.09-.212-.14-.34-.14h-.001c-.127 0-.25.05-.34.139L11.13 2.072c-.37-.189-.756-.343-1.155-.462V.469c0-.26-.213-.469-.477-.469H8v3.958c2.268 0 4.113 1.813 4.113 4.042S10.268 12.042 8 12.042V16h1.498c.264 0 .477-.21.477-.469v-1.14c.399-.12.785-.274 1.155-.463l1.038 1.032c.09.09.211.14.339.14h.001c.128 0 .25-.051.34-.141l2.118-2.126c.183-.183.182-.476-.001-.658l-.994-.988c.215-.387.39-.794.522-1.215h1.03c.263 0 .477-.21.477-.469V6.497c0-.26-.214-.469-.477-.469z" transform="translate(-1031 -587) translate(140 120) translate(0 125) translate(50 50) translate(0 270) translate(841 22)"/>
                            </g>
                        </g>
                    </g>
                </g>
            </g>
        </g>
    </g>
</svg>
