<svg xmlns="http://www.w3.org/2000/svg" width="30" height="30" viewBox="0 0 30 30">
    <g fill="none" fill-rule="evenodd">
        <g fill-rule="nonzero">
            <g>
                <g>
                    <g>
                        <g>
                            <g transform="translate(-444 -1675) translate(140 120) translate(0 1247) translate(50 203) translate(254 100) translate(0 5)">
                                <path fill="#FFE6CC" d="M27.904 12.363c-.336-1.646-.988-3.221-1.915-4.623l1.44-1.44-3.728-3.73-1.44 1.441c-1.403-.927-2.978-1.58-4.624-1.915V0h-5.274v2.096c-1.646.336-3.221.988-4.623 1.915L6.3 2.571 2.57 6.299l1.441 1.44c-.927 1.403-1.58 2.978-1.915 4.624H0v5.274h2.096c.336 1.646.988 3.221 1.915 4.623l-1.44 1.44 3.728 3.73 1.44-1.441c1.403.927 2.978 1.58 4.624 1.915V30h5.274v-2.096c1.646-.336 3.221-.988 4.623-1.915l1.44 1.44 3.73-3.728-1.441-1.44c.927-1.403 1.58-2.978 1.915-4.624H30v-5.274h-2.096z"/>
                                <path fill="#FC9" d="M17.637 27.904c1.646-.336 3.221-.988 4.623-1.915l1.44 1.44 3.73-3.728-1.441-1.44c.927-1.403 1.58-2.978 1.915-4.624H30v-5.274h-2.096c-.336-1.646-.988-3.221-1.915-4.623l1.44-1.44-3.728-3.73-1.44 1.441c-1.403-.927-2.978-1.58-4.624-1.915V0H15v30h2.637v-2.096z"/>
                                <circle cx="15" cy="15" r="7.91" fill="#FDBF00"/>
                                <path fill="#FF9100" d="M22.91 15c0-4.362-3.548-7.91-7.91-7.91v15.82c4.362 0 7.91-3.548 7.91-7.91z"/>
                                <path fill="#FFF" d="M17.637 11.999L15 14.636 14.121 15.515 12.363 13.757 11.12 15 14.121 18.001 15 17.122 18.88 13.242z"/>
                                <path fill="#FFF" d="M17.637 11.999L15 14.636 15 17.122 18.88 13.242z"/>
                            </g>
                        </g>
                    </g>
                </g>
            </g>
        </g>
    </g>
</svg>
