<svg xmlns="http://www.w3.org/2000/svg" width="16" height="16" viewBox="0 0 16 16">
    <g fill="none" fill-rule="evenodd">
        <g fill="#FFF" fill-rule="nonzero">
            <g>
                <g>
                    <g>
                        <g>
                            <g>
                                <path d="M3.546 9.669l-.557 2.08-2.036.042C.345 10.663 0 9.371 0 8c0-1.327.323-2.578.894-3.68l1.813.333.794 1.802c-.166.484-.257 1.004-.257 1.545 0 .587.107 1.15.302 1.669zM15.86 6.505c.092.484.14.984.14 1.495 0 .573-.06 1.131-.175 1.67-.39 1.834-1.407 3.435-2.817 4.569l-2.283-.117-.323-2.017c.936-.549 1.667-1.407 2.052-2.435H8.176V6.505H15.86z" transform="translate(-430 -568) translate(140 120) translate(0 245) translate(50 50) translate(226 144) translate(14 9)"/>
                                <path d="M13.008 14.238C11.638 15.342 9.896 16 8 16c-3.047 0-5.695-1.703-7.047-4.209L3.546 9.67C4.222 11.472 5.96 12.756 8 12.756c.876 0 1.698-.237 2.402-.65l2.606 2.132zM13.106 1.842l-2.591 2.121c-.73-.455-1.591-.719-2.515-.719-2.085 0-3.857 1.343-4.499 3.21L.895 4.322C2.224 1.754 4.907 0 8 0c1.941 0 3.72.691 5.106 1.842z" transform="translate(-430 -568) translate(140 120) translate(0 245) translate(50 50) translate(226 144) translate(14 9)"/>
                            </g>
                        </g>
                    </g>
                </g>
            </g>
        </g>
    </g>
</svg>
