<svg xmlns="http://www.w3.org/2000/svg" width="40" height="40" viewBox="0 0 40 40">
    <g fill="none" fill-rule="evenodd">
        <g fill-rule="nonzero">
            <g>
                <g>
                    <g transform="translate(-385 -555) translate(345 60) translate(0 470) translate(40 25)">
                        <path fill="#FDBF00" d="M27.89 15.2v2.74H12.266V15.2c0-4.23 3.378-7.684 7.577-7.809 4.185-.19 8.047 3.264 8.047 7.808z"/>
                        <path fill="#FF9100" d="M27.89 15.2v2.74h-7.892V7.386c4.182-.08 7.892 3.361 7.892 7.812z"/>
                        <path fill="#F6E1BE" d="M24.857 4.866c0 2.715-2.242 4.945-5.014 4.863-2.61-.081-4.707-2.232-4.707-4.863 0-2.632 2.098-4.782 4.707-4.864 2.762-.082 5.014 2.139 5.014 4.864z"/>
                        <path fill="#F1CEA0" d="M24.857 4.866c0 2.68-2.177 4.864-4.858 4.865V0c2.681.002 4.858 2.186 4.858 4.866z"/>
                        <path fill="#FED843" d="M15.624 37.26V40H0v-2.74c0-4.303 3.497-7.804 7.797-7.812 4.357 0 7.827 3.533 7.827 7.811z"/>
                        <path fill="#FFBE00" d="M15.624 37.26V40H7.797c0-11.055-.008-10.552.015-10.552 4.308 0 7.812 3.504 7.812 7.811z"/>
                        <path fill="#F6E1BE" d="M12.59 26.927c0 2.687-2.185 4.865-4.86 4.865-2.68 0-4.86-2.183-4.86-4.865 0-2.683 2.18-4.866 4.86-4.866 2.678 0 4.86 2.18 4.86 4.866z"/>
                        <path fill="#F1CEA0" d="M12.59 26.927c0 2.66-2.144 4.83-4.793 4.864v-9.73c2.65.036 4.794 2.205 4.794 4.866z"/>
                        <path fill="#FED843" d="M40 37.26V40H24.377v-2.74c0-4.307 3.503-7.81 7.81-7.812 4.304 0 7.813 3.5 7.813 7.811z"/>
                        <path fill="#FFBE00" d="M40 37.26V40h-7.813c0-10.788-.007-10.552.001-10.552 4.308 0 7.812 3.504 7.812 7.811z"/>
                        <ellipse cx="32.106" cy="26.927" fill="#F6E1BE" rx="4.861" ry="4.866"/>
                        <path fill="#F1CEA0" d="M36.967 26.927c0 2.655-2.137 4.821-4.78 4.864v-9.73c2.643.044 4.78 2.21 4.78 4.866z"/>
                        <g fill="#FFBE00">
                            <path d="M11.905 18.954l1.657-1.658c2.037 2.037 3.806 2.037 5.843 0l1.657 1.658c-2.893 2.893-6.134 3.022-9.157 0zM2.345 6.487H.001C.001 2.403 2.193.01 6.476.01v2.344c-2.88 0-4.131 1.25-4.131 4.132zM33.035 6.483H30.69c0-2.88-1.25-4.132-4.131-4.132V.008c4.092 0 6.475 2.2 6.475 6.475z" transform="translate(3.516 10.625)"/>
                        </g>
                    </g>
                </g>
            </g>
        </g>
    </g>
</svg>
