<svg xmlns="http://www.w3.org/2000/svg" xmlns:xlink="http://www.w3.org/1999/xlink" width="280" height="202" viewBox="0 0 280 202">
    <defs>
        <linearGradient id="gpkzfoblpe" x1="41.356%" x2="59.977%" y1="3.895%" y2="62.283%">
            <stop offset="0%" stop-color="#FFC40D"/>
            <stop offset="100%" stop-color="#FFB300"/>
        </linearGradient>
        <linearGradient id="vqo7dx64lf" x1="42.074%" x2="59.149%" y1="3.895%" y2="62.283%">
            <stop offset="0%" stop-color="#FFC40D"/>
            <stop offset="100%" stop-color="#FFB300"/>
        </linearGradient>
        <linearGradient id="kfx6it6h8g" x1="41.168%" x2="60.194%" y1="3.895%" y2="62.283%">
            <stop offset="0%" stop-color="#FFC40D"/>
            <stop offset="100%" stop-color="#FFB300"/>
        </linearGradient>
        <rect id="p9hltrj23a" width="280" height="202" x="0" y="0" rx="10"/>
        <path id="056ir5ca3c" d="M0 0.27H111V83.27H0z"/>
    </defs>
    <g fill="none" fill-rule="evenodd">
        <g>
            <g>
                <g transform="translate(-20 -200) translate(20 156) translate(0 44)">
                    <mask id="c31cf6ygnb" fill="#fff">
                        <use xlink:href="#p9hltrj23a"/>
                    </mask>
                    <use xlink:href="#p9hltrj23a"/>
                    <g mask="url(#c31cf6ygnb)">
                        <g transform="translate(169 119)">
                            <mask id="3v9pfpl45d" fill="#fff">
                                <use xlink:href="#056ir5ca3c"/>
                            </mask>
                            <g mask="url(#3v9pfpl45d)">
                                <g>
                                    <path fill="#FF9600" d="M268.62 185.61s-25.106-1.654-48.038-27.956c-22.932-26.302-9.76-37.403-50.77-47.376-27.838-6.79-52.256 8.352-73.58-2.699-34.687-17.971-13.804-57.993-36.559-77.848C33.898 7.214.913 16.86.913 16.86L0 2.682 265.959 0l2.66 185.61z" transform="rotate(135 187.142 90.559)"/>
                                    <path fill="#FF9600" d="M295.846 182.402c-27.833-6.79-52.251 8.352-73.58-2.699-34.7-17.975-13.8-57.992-36.554-77.857-25.784-22.49-58.77-12.866-58.77-12.866l-.907-14.174 265.954-2.665c-36.755 80.156-68.803 116.91-96.143 110.261z" transform="rotate(135 187.142 90.559)"/>
                                    <path fill="#FFB200" d="M341.7 223.14s-45.268 16.56-68.2-9.742c-22.933-26.302-20.51-50.597-53.257-58.507-26.188-6.331-46.833 7.49-67.957-3.938-23.765-12.862-16.94-45.614-39.695-65.47-25.784-22.491-51.343-25.734-51.343-25.734l-.913-14.177 258.533 10.18L341.7 223.14z" transform="rotate(135 187.142 90.559)"/>
                                    <path fill="#FF9600" d="M381.003 203.06s-25.105-1.655-48.038-27.957c-22.932-26.301-9.773-37.403-50.766-47.37-27.838-6.79-52.256 8.35-73.58-2.7-34.691-17.976-13.808-57.984-36.562-77.853-25.785-22.5-58.753-12.87-58.753-12.87l-.912-14.178L378.35 17.45l2.653 185.61z" transform="rotate(135 187.142 90.559)"/>
                                    <path fill="#FFC723" d="M314.25 189.112s-25.108-1.655-48.037-27.957c-22.928-26.302-20.509-50.597-53.261-58.515-26.183-6.336-46.828 7.49-67.953-3.938-23.764-12.863-16.94-45.615-39.698-65.47-25.785-22.504-58.77-12.863-58.77-12.863l-.908-14.178 265.954-2.69 2.674 185.61z" transform="rotate(135 187.142 90.559)"/>
                                </g>
                            </g>
                            <g mask="url(#3v9pfpl45d)">
                                <g fill-rule="nonzero">
                                    <path fill="url(#gpkzfoblpe)" d="M53.766 53.297C52.958 34.176 41.384 12.682 27.19 4.484c-.521-.3-1.042-.535-1.564-.795.888-.44 1.813-.803 2.764-1.082.417.208.82.39 1.225.625C43.69 11.352 55.2 32.533 56.217 51.537c-.731.698-1.556 1.29-2.45 1.76z" transform="rotate(75 72.947 87.93)"/>
                                    <path fill="#FFA400" d="M23.683 9.724c-.94-.54-1.915-1.014-2.92-1.421 1.133-1.982 2.824-3.587 4.862-4.614.522.26 1.043.495 1.564.795 14.195 8.198 25.77 29.692 26.577 48.813-1.963 1.074-4.162 1.643-6.4 1.655-.013-17.44-10.61-37.682-23.683-45.228z" transform="rotate(75 72.947 87.93)"/>
                                    <path fill="#FFCE22" d="M21.207 20.112c7.234 4.17 13.334 14.142 15.289 24.074.41 2.074.624 4.182.639 6.296v1.433l-1.017-.664c-1.677-1.134-3.15-2.544-4.354-4.171-.677-8.003-5.526-16.723-11.43-20.125-.871-2.547-1.312-5.22-1.304-7.912.751.301 1.479.659 2.177 1.069z" transform="rotate(75 72.947 87.93)"/>
                                    <path fill="url(#vqo7dx64lf)" d="M7.052 33.42c1.368.468 2.824.628 4.262.469.286 0 .573-.117.86-.182.117 7.625 3.91 16.944 9.658 20.659-.13.13-.26.26-.378.404-.428.479-.796 1.008-1.095 1.577-.492.932-.801 1.95-.912 2.998-.078.652-.13 1.303-.156 1.89-7.73-5.722-13.738-17.831-13.947-28.532.55.283 1.12.523 1.708.717z" transform="rotate(75 72.947 87.93)"/>
                                    <path fill="#393835" d="M16.045 31.96c.965 7.608 4.388 14.693 9.75 20.177-1.472.405-2.817 1.177-3.91 2.242-5.696-3.767-9.542-13.034-9.659-20.66 1.41-.3 2.74-.891 3.91-1.733l-.09-.026z" transform="rotate(75 72.947 87.93)"/>
                                    <path fill="url(#kfx6it6h8g)" d="M18.978 14.429c.138-2.149.747-4.24 1.786-6.126 1.004.407 1.98.881 2.92 1.42 13.033 7.547 23.67 27.79 23.682 45.23-1.235.012-2.468-.115-3.675-.379-2.343-.502-4.588-1.383-6.648-2.607v-1.433c.019-2.129-.165-4.254-.547-6.348-1.916-9.932-8.016-19.903-15.25-24.074-.732-.415-1.494-.772-2.281-1.069v-1.838-.821c-.104-.743-.04-1.316.013-1.955z" transform="rotate(75 72.947 87.93)"/>
                                    <path fill="#FFA400" d="M.782 29.327c.864.88 1.811 1.675 2.828 2.372.552.378 1.131.714 1.734 1.004.209 10.701 6.217 22.81 13.947 28.558-.088 1.569 0 3.143.26 4.692.355 2.051 1.136 4.005 2.294 5.735l-.221-.156C9.724 63.307.352 44.812 0 28.506c.091.065.339.365.782.821z" transform="rotate(75 72.947 87.93)"/>
                                    <path fill="#FF5A4D" d="M6.517 24.622c1.695-4.367 4.992-6.674 9.124-6.361 1.132.096 2.243.36 3.298.782-.008 2.691.433 5.365 1.303 7.912-1.27-.745-2.711-1.154-4.184-1.186-.612 0-3.91.443-3.91 7.599v.325c-.287 0-.574.144-.86.183-1.437.163-2.893.007-4.263-.456-.587-.194-1.158-.434-1.707-.717v-.574c-.062-2.554.345-5.099 1.2-7.507z" transform="rotate(75 72.947 87.93)"/>
                                    <path fill="#FFF3D7" d="M6.517 24.622c1.695-4.367 4.992-6.674 9.124-6.361 1.132.096 2.243.36 3.298.782-.008 2.691.433 5.365 1.303 7.912-1.27-.745-2.711-1.154-4.184-1.186-.612 0-3.91.443-3.91 7.599v.325c-.287 0-.574.144-.86.183-1.437.163-2.893.007-4.263-.456-.587-.194-1.158-.434-1.707-.717v-.574c-.062-2.554.345-5.099 1.2-7.507z" transform="rotate(75 72.947 87.93)"/>
                                    <path fill="#ED3224" d="M16.045 31.96c-1.17.842-2.5 1.432-3.91 1.733v-.325c0-7.156 3.271-7.625 3.91-7.6-.142.963-.216 1.934-.221 2.907.002 1.099.076 2.196.221 3.285z" transform="rotate(75 72.947 87.93)"/>
                                    <path fill="#666564" d="M16.045 31.96c-1.17.842-2.5 1.432-3.91 1.733v-.325c0-7.156 3.271-7.625 3.91-7.6-.142.963-.216 1.934-.221 2.907.002 1.099.076 2.196.221 3.285z" transform="rotate(75 72.947 87.93)"/>
                                    <path fill="#FB4633" d="M.808 20.047c.613-3.154 1.977-6.114 3.976-8.629 3.766-4.484 9.462-5.813 15.98-3.115-1.039 1.886-1.648 3.977-1.786 6.126 0 .639-.117 1.303-.117 1.955v2.659c-1.03-.42-2.114-.687-3.22-.795-4.08-.313-7.377 1.994-9.124 6.36-.89 2.402-1.332 4.947-1.303 7.508v.574c-.603-.29-1.182-.626-1.734-1.004-.971-.7-1.875-1.49-2.698-2.359-.443-.456-.69-.756-.756-.821v-.873c-.019-2.55.244-5.094.782-7.586z" transform="rotate(75 72.947 87.93)"/>
                                    <path fill="#FFE4A6" d="M.808 20.047c.613-3.154 1.977-6.114 3.976-8.629 3.766-4.484 9.462-5.813 15.98-3.115-1.039 1.886-1.648 3.977-1.786 6.126 0 .639-.117 1.303-.117 1.955v2.659c-1.03-.42-2.114-.687-3.22-.795-4.08-.313-7.377 1.994-9.124 6.36-.89 2.402-1.332 4.947-1.303 7.508v.574c-.603-.29-1.182-.626-1.734-1.004-.971-.7-1.875-1.49-2.698-2.359-.443-.456-.69-.756-.756-.821v-.873c-.019-2.55.244-5.094.782-7.586z" transform="rotate(75 72.947 87.93)"/>
                                    <path fill="#ED3224" d="M25.795 52.137c1.148 1.133 2.43 2.122 3.819 2.946.221.117.417.17.638.273-.208.378-2.359 1.8-6.517 0-.647-.28-1.267-.62-1.85-1.016 1.093-1.066 2.438-1.837 3.91-2.242v.039z" transform="rotate(75 72.947 87.93)"/>
                                    <path fill="#666564" d="M25.795 52.137c1.148 1.133 2.43 2.122 3.819 2.946.221.117.417.17.638.273-.208.378-2.359 1.8-6.517 0-.647-.28-1.267-.62-1.85-1.016 1.093-1.066 2.438-1.837 3.91-2.242v.039z" transform="rotate(75 72.947 87.93)"/>
                                    <path fill="#FB4633" d="M44.89 76.746c5.487-3.35 8.954-10.793 8.954-21.338 0-.703 0-1.407-.078-2.111.9-.49 1.724-1.104 2.45-1.825 0 .9.105 1.812.105 2.698 0 12.083-4.523 20.125-11.431 22.576z" transform="rotate(75 72.947 87.93)"/>
                                    <path fill="#FFE4A6" d="M44.89 76.746c5.487-3.35 8.954-10.793 8.954-21.338 0-.703 0-1.407-.078-2.111.9-.49 1.724-1.104 2.45-1.825 0 .9.105 1.812.105 2.698 0 12.083-4.523 20.125-11.431 22.576z" transform="rotate(75 72.947 87.93)"/>
                                    <path fill="#ED3224" d="M23.683 72.874c2.575 1.552 5.475 2.485 8.472 2.725 8.89.586 15.211-7.221 15.211-20.673 2.238-.012 4.437-.58 6.4-1.655 0 .704.078 1.408.078 2.111 0 10.545-3.467 17.988-8.954 21.337-4.705 2.907-10.897 2.79-17.7-1.12-1.847-1.083-3.592-2.331-5.214-3.728l-.13-.183c.612.417 1.225.834 1.837 1.186z" transform="rotate(75 72.947 87.93)"/>
                                    <path fill="#FFD36C" d="M23.683 72.874c2.575 1.552 5.475 2.485 8.472 2.725 8.89.586 15.211-7.221 15.211-20.673 2.238-.012 4.437-.58 6.4-1.655 0 .704.078 1.408.078 2.111 0 10.545-3.467 17.988-8.954 21.337-4.705 2.907-10.897 2.79-17.7-1.12-1.847-1.083-3.592-2.331-5.214-3.728l-.13-.183c.612.417 1.225.834 1.837 1.186z" transform="rotate(75 72.947 87.93)"/>
                                    <path fill="#FF5A4D" d="M19.447 59.332c.11-1.048.42-2.066.912-2.998.298-.573.666-1.107 1.095-1.59.118-.144.248-.274.378-.404.584.396 1.204.737 1.851 1.016 4.21 1.76 6.36.34 6.517 0 1.033-1.963 1.553-4.155 1.512-6.373 0-.613 0-1.304-.091-1.877 1.204 1.627 2.676 3.037 4.353 4.17l1.017.665c-.234 4.484-1.577 7.938-3.702 10.05-2.906 2.92-7.26 3.337-12.134.521-.663-.399-1.302-.834-1.916-1.303.078-.6.13-1.252.208-1.877z" transform="rotate(75 72.947 87.93)"/>
                                    <path fill="#FFF3D7" d="M19.447 59.332c.11-1.048.42-2.066.912-2.998.298-.573.666-1.107 1.095-1.59.118-.144.248-.274.378-.404.584.396 1.204.737 1.851 1.016 4.21 1.76 6.36.34 6.517 0 1.033-1.963 1.553-4.155 1.512-6.373 0-.613 0-1.304-.091-1.877 1.204 1.627 2.676 3.037 4.353 4.17l1.017.665c-.234 4.484-1.577 7.938-3.702 10.05-2.906 2.92-7.26 3.337-12.134.521-.663-.399-1.302-.834-1.916-1.303.078-.6.13-1.252.208-1.877z" transform="rotate(75 72.947 87.93)"/>
                                    <path fill="#FB4633" d="M21.207 62.486c4.874 2.815 9.228 2.398 12.135-.521 2.124-2.112 3.467-5.566 3.701-10.05 2.06 1.224 4.305 2.105 6.648 2.607 1.207.264 2.44.39 3.675.378 0 13.451-6.321 21.259-15.21 20.672-3.002-.255-5.902-1.206-8.473-2.776-.612-.352-1.225-.769-1.838-1.173-1.15-1.71-1.93-3.641-2.294-5.67-.26-1.55-.348-3.123-.26-4.692.616.442 1.255.851 1.916 1.225z" transform="rotate(75 72.947 87.93)"/>
                                    <path fill="#FFE4A6" d="M21.207 62.486c4.874 2.815 9.228 2.398 12.135-.521 2.124-2.112 3.467-5.566 3.701-10.05 2.06 1.224 4.305 2.105 6.648 2.607 1.207.264 2.44.39 3.675.378 0 13.451-6.321 21.259-15.21 20.672-3.002-.255-5.902-1.206-8.473-2.776-.612-.352-1.225-.769-1.838-1.173-1.15-1.71-1.93-3.641-2.294-5.67-.26-1.55-.348-3.123-.26-4.692.616.442 1.255.851 1.916 1.225z" transform="rotate(75 72.947 87.93)"/>
                                </g>
                            </g>
                        </g>
                    </g>
                </g>
            </g>
        </g>
    </g>
</svg>
