<svg xmlns="http://www.w3.org/2000/svg" width="12" height="16" viewBox="0 0 12 16">
    <g fill="none" fill-rule="evenodd">
        <g fill-rule="nonzero">
            <g>
                <g>
                    <g>
                        <g>
                            <g>
                                <path fill="#FD8C02" d="M9.398 6.365c.807-.726 1.269-1.764 1.269-2.85V.833c0-.276-.224-.5-.5-.5H1.834c-.276 0-.5.224-.5.5v2.682c0 1.085.462 2.124 1.269 2.85L3.732 7.38c.178.16.276.381.276.62s-.098.459-.276.619L2.603 9.635c-.807.726-1.269 1.764-1.269 2.85v2.682c0 .276.224.5.5.5h8.333c.276 0 .5-.224.5-.5v-2.682c0-1.085-.462-2.124-1.27-2.85L8.27 8.62c-.178-.16-.276-.381-.276-.62s.098-.459.276-.619l1.129-1.016z" transform="translate(-1033 -407) translate(140 120) translate(0 125) translate(50 50) translate(0 90) translate(843 22)"/>
                                <path fill="#FFE14D" d="M11.333 16H.667C.298 16 0 15.702 0 15.333c0-.369.298-.667.667-.667h10.667c.368 0 .667.3.667.667 0 .368-.3.667-.668.667z" transform="translate(-1033 -407) translate(140 120) translate(0 125) translate(50 50) translate(0 90) translate(843 22)"/>
                                <path fill="#FDB902" d="M8.167 0c-.276 0-.5.224-.5.5H4.334c0-.276-.224-.5-.5-.5s-.5.224-.5.5v2.948c0 .49.19.95.537 1.297l1.776 1.776c.098.098.225.146.354.146.129 0 .256-.05.354-.146l1.776-1.776c.346-.346.537-.807.537-1.297V.5C8.667.224 8.443 0 8.167 0z" transform="translate(-1033 -407) translate(140 120) translate(0 125) translate(50 50) translate(0 90) translate(843 22)"/>
                                <path fill="#FFE14D" d="M11.333 1.333H.667C.298 1.333 0 1.035 0 .667 0 .299.298 0 .667 0h10.667c.368 0 .666.298.666.667 0 .369-.298.666-.667.666z" transform="translate(-1033 -407) translate(140 120) translate(0 125) translate(50 50) translate(0 90) translate(843 22)"/>
                            </g>
                        </g>
                    </g>
                </g>
            </g>
        </g>
    </g>
</svg>
