<svg xmlns="http://www.w3.org/2000/svg" width="32" height="25" viewBox="0 0 32 25">
    <g fill="none" fill-rule="evenodd">
        <g fill-rule="nonzero">
            <g>
                <g>
                    <g>
                        <g>
                            <g transform="translate(-352 -803) translate(140 120) translate(0 55) translate(50 598) translate(162 30) translate(0 4.142)">
                                <circle cx="8.699" cy="8.699" r="8.699" fill="#FDB902"/>
                                <path fill="#FD8C02" d="M8.699 0v17.398c4.804 0 8.699-3.895 8.699-8.7 0-4.803-3.895-8.698-8.7-8.698z"/>
                                <g>
                                    <path fill="#F9F9F9" d="M9.888 1.238c-.018-.153-.103-.289-.233-.371C8.759.3 7.723 0 6.66 0c-3.006 0-5.467 2.378-5.6 5.352H.543c-.195 0-.37.108-.456.282-.087.173-.069.378.048.533l1.529 2.04c.097.129.246.203.408.203.162 0 .31-.074.408-.204L4.01 6.167c.116-.155.135-.36.048-.533-.087-.174-.262-.282-.456-.282h-.5c.13-1.849 1.676-3.313 3.558-3.313.603 0 1.205.158 1.739.458.201.113.453.076.614-.09l.735-.754c.107-.11.158-.263.14-.415z" transform="translate(2.039 3.092)"/>
                                    <path fill="#E2DFF4" d="M9.013 2.408l.735-.755c.107-.11.158-.263.14-.415-.018-.153-.103-.289-.233-.371C8.759.3 7.723 0 6.66 0v2.039c.603 0 1.205.158 1.739.458.201.113.453.076.614-.09z" transform="translate(2.039 3.092)"/>
                                    <path fill="#F9F9F9" d="M13.184 5.046l-1.529-2.039c-.097-.13-.246-.204-.408-.204-.162 0-.31.075-.407.204L9.31 5.046c-.116.155-.135.36-.048.534.087.174.262.282.456.282h.5c-.13 1.848-1.676 3.313-3.558 3.313-.603 0-1.205-.159-1.739-.458-.201-.114-.453-.077-.614.089l-.734.754c-.108.11-.16.263-.141.416.018.152.104.288.233.37.896.568 1.932.867 2.995.867 3.006 0 5.467-2.378 5.6-5.351h.516c.195 0 .37-.108.456-.282.087-.174.069-.379-.048-.534z" transform="translate(2.039 3.092)"/>
                                    <path fill="#E2DFF4" d="M13.184 5.046l-1.529-2.039c-.097-.13-.246-.204-.408-.204-.162 0-.31.075-.407.204L9.31 5.046c-.116.155-.135.36-.048.534.087.174.262.282.456.282h.5c-.13 1.848-1.676 3.313-3.558 3.313v2.038c3.006 0 5.467-2.378 5.6-5.351h.516c.195 0 .37-.108.456-.282.087-.174.069-.379-.048-.534z" transform="translate(2.039 3.092)"/>
                                </g>
                            </g>
                            <g transform="translate(-352 -803) translate(140 120) translate(0 55) translate(50 598) translate(162 30) translate(6.628)">
                                <circle cx="12.427" cy="12.427" r="12.427" fill="#FDB902"/>
                                <path fill="#FD8C02" d="M12.427 0v24.854c6.863 0 12.427-5.564 12.427-12.427C24.854 5.564 19.29 0 12.427 0z"/>
                                <g>
                                    <path fill="#F9F9F9" d="M14.126 1.768c-.025-.218-.148-.412-.333-.53C12.513.428 11.033 0 9.514 0c-4.294 0-7.81 3.397-8 7.645H.776c-.278 0-.527.155-.652.403-.124.248-.097.54.07.762l2.184 2.913c.138.185.35.291.582.291.231 0 .444-.106.583-.291L5.728 8.81c.167-.222.193-.514.069-.762s-.374-.403-.651-.403H4.43c.187-2.64 2.395-4.732 5.083-4.732.862 0 1.721.226 2.484.654.288.161.648.11.878-.127l1.05-1.079c.152-.157.226-.375.2-.593z" transform="translate(2.913 4.417)"/>
                                    <path fill="#FC9" d="M12.876 3.44l1.05-1.079c.152-.157.226-.375.2-.593-.025-.218-.148-.412-.333-.53C12.513.428 11.033 0 9.514 0v2.913c.862 0 1.721.226 2.484.654.288.162.648.11.878-.127z" opacity=".3" transform="translate(2.913 4.417)"/>
                                    <path fill="#F9F9F9" d="M18.835 7.209L16.65 4.296c-.139-.185-.351-.291-.582-.291-.232 0-.444.106-.583.291l-2.184 2.913c-.167.222-.193.514-.07.762.125.248.375.403.652.403h.715c-.187 2.64-2.396 4.732-5.084 4.732-.862 0-1.72-.226-2.483-.654-.288-.161-.649-.11-.879.128l-1.048 1.078c-.153.157-.227.375-.202.593.026.218.149.412.334.53 1.28.81 2.76 1.238 4.278 1.238 4.295 0 7.81-3.397 8.001-7.645h.737c.278 0 .527-.155.651-.403.124-.248.098-.54-.068-.762z" transform="translate(2.913 4.417)"/>
                                    <path fill="#FC9" d="M18.835 7.209L16.65 4.296c-.139-.185-.351-.291-.582-.291-.232 0-.444.106-.583.291l-2.184 2.913c-.167.222-.193.514-.07.762.125.248.375.403.652.403h.715c-.187 2.64-2.396 4.732-5.084 4.732v2.913c4.295 0 7.81-3.397 8.001-7.645h.737c.278 0 .527-.155.651-.403.124-.248.098-.54-.068-.762z" opacity=".3" transform="translate(2.913 4.417)"/>
                                </g>
                            </g>
                        </g>
                    </g>
                </g>
            </g>
        </g>
    </g>
</svg>
