<svg xmlns="http://www.w3.org/2000/svg" width="30" height="29" viewBox="0 0 30 29">
    <g fill="none" fill-rule="evenodd">
        <g fill-rule="nonzero">
            <g>
                <g>
                    <g>
                        <g>
                            <g>
                                <path fill="#FFE6CC" d="M18.956 18.956l2.697-4.086-2.697-.695c-.353-1.06-.954-2.06-1.801-2.909-.837-.836-1.826-1.448-2.91-1.802l-.035.036-3.285-.13-1.46.094c-1.084.354-2.073.966-2.91 1.802L2.19 15.632c-2.92 2.92-2.92 7.667 0 10.587 3.003 3.003 7.75 2.85 10.599 0l4.366-4.354c.848-.848 1.448-1.849 1.801-2.909zm-9.111 4.32c-1.32 1.318-3.427 1.283-4.71 0-1.296-1.296-1.296-3.416 0-4.711l4.33-4.32 2.367 2.344 2.379 2.332-4.366 4.354z" transform="translate(-698 -1776) translate(140 120) translate(0 1247) translate(50 363) translate(508 40) translate(0 6)"/>
                                <path fill="#FC9" d="M17.155 21.865l-4.366 4.354c-2.85 2.85-7.596 3.003-10.599 0l2.944-2.944c1.284 1.284 3.392 1.32 4.71 0l4.367-4.354-2.38-2.332 5.324-5.323c.847.848 1.448 1.85 1.801 2.909l2.697.695-2.697 4.086c-.353 1.06-.953 2.06-1.801 2.909z" transform="translate(-698 -1776) translate(140 120) translate(0 1247) translate(50 363) translate(508 40) translate(0 6)"/>
                                <path fill="#FDBF00" d="M26.23 2.201c-2.92-2.92-7.666-2.932-10.598 0l-4.366 4.355c-.847.848-1.448 1.849-1.801 2.908-.519 1.555-.519 3.227 0 4.782.353 1.06.954 2.06 1.801 2.908.825.825 1.814 1.437 2.91 1.802l.034-.035c1.296-1.296 1.296-3.415 0-4.71-1.295-1.296-1.295-3.416 0-4.711l4.366-4.355c.636-.636 1.46-.965 2.355-.965.024-.024.224-.012.271.011.636 0 1.472.342 2.085.954 1.295 1.296 1.295 3.415 0 4.71l-4.33 4.32c.518 1.554.518 3.227 0 4.781 1.071-.365 2.084-.977 2.908-1.802l4.366-4.354c2.92-2.92 2.92-7.678 0-10.599z" transform="translate(-698 -1776) translate(140 120) translate(0 1247) translate(50 363) translate(508 40) translate(0 6)"/>
                                <g fill="#FF9100">
                                    <path d="M2.998 16.756l-.036.035C1.867 16.426.878 15.814.053 14.99l2.945-2.944c1.295 1.296 1.295 3.415 0 4.71zM15.018 10.635l-4.366 4.355c-.824.824-1.837 1.436-2.909 1.801.518-1.554.518-3.226 0-4.78l4.33-4.32c1.296-1.295 1.296-3.415 0-4.71L15.019.035c2.92 2.92 2.92 7.678 0 10.599z" transform="translate(-698 -1776) translate(140 120) translate(0 1247) translate(50 363) translate(508 40) translate(0 6) translate(11.213 2.165)"/>
                                </g>
                            </g>
                        </g>
                    </g>
                </g>
            </g>
        </g>
    </g>
</svg>
