<svg xmlns="http://www.w3.org/2000/svg" width="30" height="33" viewBox="0 0 30 33">
    <g fill="none" fill-rule="evenodd">
        <g fill-rule="nonzero">
            <g>
                <g>
                    <g>
                        <g>
                            <g>
                                <g>
                                    <path fill="#FDB902" d="M27.128 15.957H2.872C1.29 15.957 0 14.67 0 13.085V2.872C0 1.29 1.289 0 2.872 0h24.256C28.71 0 30 1.289 30 2.872v10.213c0 1.584-1.289 2.872-2.872 2.872z" transform="translate(-444 -1774) translate(140 120) translate(0 1247) translate(50 363) translate(254 40) translate(0 4) translate(0 16.723)"/>
                                    <path fill="#FD8C02" d="M27.128 0H15v15.957h12.128c1.583 0 2.872-1.288 2.872-2.872V2.872C30 1.29 28.711 0 27.128 0z" transform="translate(-444 -1774) translate(140 120) translate(0 1247) translate(50 363) translate(254 40) translate(0 4) translate(0 16.723)"/>
                                    <path fill="#FFF" d="M2.872 1.915c-.528 0-.957.43-.957.957v10.213c0 .528.43.958.957.958h24.256c.528 0 .957-.43.957-.958V2.872c0-.528-.43-.957-.957-.957H2.872z" transform="translate(-444 -1774) translate(140 120) translate(0 1247) translate(50 363) translate(254 40) translate(0 4) translate(0 16.723)"/>
                                    <path fill="#FFE6CC" d="M27.128 1.915H15v12.128h12.128c.528 0 .957-.43.957-.958V2.872c0-.528-.43-.957-.957-.957z" transform="translate(-444 -1774) translate(140 120) translate(0 1247) translate(50 363) translate(254 40) translate(0 4) translate(0 16.723)"/>
                                    <path fill="#FDB902" d="M7.716 10.207h-.005c-.433.003-.89.005-1.273.005V4.787c0-.529-.428-.957-.957-.957-.529 0-.958.428-.958.957v6.378c0 .466.336.865.796.944.069.011.115.02.828.02.344 0 .843-.003 1.574-.007.53-.003.955-.434.952-.963-.002-.526-.43-.952-.957-.952zM10.908 3.83c-.529 0-.958.428-.958.957v6.383c0 .529.429.958.958.958.529 0 .957-.429.957-.958V4.787c0-.529-.428-.957-.957-.957z" transform="translate(-444 -1774) translate(140 120) translate(0 1247) translate(50 363) translate(254 40) translate(0 4) translate(0 16.723)"/>
                                    <path fill="#FD8C02" d="M24.52 10.213h-1.733V8.936h1.534c.529 0 .957-.429.957-.957 0-.529-.428-.958-.957-.958h-1.534V5.745h1.732c.529 0 .958-.429.958-.958 0-.529-.43-.957-.958-.957h-2.69c-.528 0-.957.428-.957.957v6.383c0 .529.429.958.958.958h2.69c.528 0 .957-.429.957-.958 0-.529-.43-.957-.958-.957z" transform="translate(-444 -1774) translate(140 120) translate(0 1247) translate(50 363) translate(254 40) translate(0 4) translate(0 16.723)"/>
                                    <path fill="#FDB902" d="M18.94 3.89c-.502-.166-1.044.105-1.21.607l-1.33 4-1.396-4.024c-.173-.5-.72-.764-1.219-.59-.5.173-.763.719-.59 1.218l2.182 6.287.002.007c.156.439.573.733 1.038.733h.008c.468-.003.884-.303 1.035-.747l.003-.007 2.084-6.273c.166-.502-.105-1.044-.607-1.21z" transform="translate(-444 -1774) translate(140 120) translate(0 1247) translate(50 363) translate(254 40) translate(0 4) translate(0 16.723)"/>
                                    <path fill="#FD8C02" d="M18.94 3.89c-.502-.166-1.044.105-1.21.607l-1.33 4-1.396-4.024-.004-.01v5.839l.377 1.086.002.007c.156.439.573.733 1.038.733h.008c.468-.003.884-.303 1.035-.747l.003-.007 2.084-6.273c.166-.502-.105-1.044-.607-1.21z" transform="translate(-444 -1774) translate(140 120) translate(0 1247) translate(50 363) translate(254 40) translate(0 4) translate(0 16.723)"/>
                                </g>
                                <g>
                                    <g fill="#FFB454">
                                        <path d="M7.021 5.106c-1.056 0-1.915-.859-1.915-1.915 0-1.055.86-1.914 1.915-1.914 1.056 0 1.915.859 1.915 1.914 0 1.056-.859 1.915-1.915 1.915zM2.553 5.106C1.145 5.106 0 3.961 0 2.553S1.145 0 2.553 0s2.553 1.145 2.553 2.553-1.145 2.553-2.553 2.553zM14.362 14.68c-.147 0-.293-.033-.428-.1l-3.83-1.915c-.325-.162-.53-.494-.53-.856v-3.83c0-.363.205-.694.53-.857l3.83-1.915c.296-.148.649-.132.931.042.282.175.454.483.454.815v7.66c0 .331-.172.64-.454.814-.154.095-.328.143-.503.143z" transform="translate(-444 -1774) translate(140 120) translate(0 1247) translate(50 363) translate(254 40) translate(0 4) translate(5.745) translate(3.191)"/>
                                    </g>
                                    <path fill="#FF7038" d="M12.766 9.894v1.915c0 .362.205.694.53.856l3.829 1.915c.135.067.282.1.428.1.175 0 .35-.047.504-.142.282-.175.454-.483.454-.815v-3.83h-5.745z" transform="translate(-444 -1774) translate(140 120) translate(0 1247) translate(50 363) translate(254 40) translate(0 4) translate(5.745)"/>
                                    <path fill="#FFE278" d="M12.447 14.68H2.234C1.002 14.68 0 13.68 0 12.448V7.34C0 6.11 1.002 5.106 2.234 5.106h10.213c1.232 0 2.234 1.003 2.234 2.234v5.107c0 1.232-1.002 2.234-2.234 2.234z" transform="translate(-444 -1774) translate(140 120) translate(0 1247) translate(50 363) translate(254 40) translate(0 4) translate(5.745)"/>
                                    <path fill="#FFB454" d="M0 9.894v2.553c0 1.232 1.002 2.234 2.234 2.234h10.213c1.232 0 2.234-1.002 2.234-2.234V9.894H0z" transform="translate(-444 -1774) translate(140 120) translate(0 1247) translate(50 363) translate(254 40) translate(0 4) translate(5.745)"/>
                                </g>
                            </g>
                        </g>
                    </g>
                </g>
            </g>
        </g>
    </g>
</svg>
