<svg xmlns="http://www.w3.org/2000/svg" width="16" height="13" viewBox="0 0 16 13">
    <g fill="none" fill-rule="evenodd">
        <g fill="#E3E2DF" fill-rule="nonzero">
            <g>
                <g>
                    <g>
                        <g>
                            <path d="M14.594 0H1.406C1.19 0 .987.053.804.14l7.165 7.166 1.606-1.543L15.196.14C15.013.053 14.81 0 14.594 0zM15.86.804l-5.29 5.29 5.29 5.29c.087-.184.14-.386.14-.603V1.406c0-.216-.053-.419-.14-.602zM.14.804C.054.987 0 1.19 0 1.406v9.375c0 .217.053.42.14.603l5.29-5.29L.14.804z" transform="translate(-418 -1740) translate(100 1709) translate(40 27) translate(278) translate(0 4)"/>
                            <path d="M9.906 6.757L8.3 8.3c-.091.092-.211.138-.331.138-.12 0-.24-.046-.332-.138L6.094 6.757l-5.29 5.29c.183.087.386.14.602.14h13.188c.216 0 .419-.053.602-.14l-5.29-5.29z" transform="translate(-418 -1740) translate(100 1709) translate(40 27) translate(278) translate(0 4)"/>
                        </g>
                    </g>
                </g>
            </g>
        </g>
    </g>
</svg>
