<svg xmlns="http://www.w3.org/2000/svg" width="20" height="20" viewBox="0 0 20 20">
    <g fill="none" fill-rule="evenodd">
        <g fill-rule="nonzero">
            <g>
                <g>
                    <g transform="translate(-425 -2897) translate(345 2463) translate(0 59) translate(80 375)">
                        <circle cx="10" cy="10" r="10" fill="#FFE14D"/>
                        <path fill="#FB3" d="M20 10c0-5.514-4.486-10-10-10v20c5.514 0 10-4.486 10-10z"/>
                        <path fill="#FDB902" d="M10 17.617c-4.2 0-7.617-3.417-7.617-7.617S5.8 2.383 10 2.383 17.617 5.8 17.617 10 14.2 17.617 10 17.617z"/>
                        <path fill="#FD8C02" d="M17.617 10c0-4.2-3.417-7.617-7.617-7.617v15.234c4.2 0 7.617-3.417 7.617-7.617z"/>
                        <g fill="#FFE14D">
                            <path d="M3.516 4.768V2.452c.674.165 1.171.599 1.171 1.097 0 .324.263.586.586.586.324 0 .586-.262.586-.586 0-1.132-1.007-2.079-2.343-2.296V.619c0-.324-.262-.586-.586-.586-.324 0-.586.262-.586.586v.634C1.008 1.47 0 2.417 0 3.549s1.008 2.079 2.344 2.296v2.317c-.674-.165-1.172-.599-1.172-1.097 0-.324-.262-.586-.586-.586-.324 0-.586.262-.586.586C0 8.197 1.008 9.143 2.344 9.36V10c0 .324.262.586.586.586.324 0 .586-.262.586-.586v-.64c1.336-.217 2.343-1.163 2.343-2.295 0-1.133-1.007-2.08-2.343-2.297zM1.172 3.55c0-.498.498-.932 1.172-1.097v2.194c-.674-.165-1.172-.599-1.172-1.097zm2.344 4.613V5.967c.674.166 1.171.6 1.171 1.098 0 .498-.497.932-1.171 1.097z" transform="translate(7.07 4.688)"/>
                        </g>
                        <path fill="#FB3" d="M10.586 14.688v-.64c1.336-.217 2.344-1.164 2.344-2.296s-1.008-2.079-2.344-2.296V7.139c.674.165 1.172.6 1.172 1.097 0 .324.262.586.586.586.324 0 .586-.262.586-.586 0-1.132-1.008-2.078-2.344-2.296v-.633c0-.324-.262-.586-.586-.586v10.552c.324 0 .586-.262.586-.585zm0-4.033c.674.165 1.172.599 1.172 1.097s-.498.932-1.172 1.097v-2.194z"/>
                    </g>
                </g>
            </g>
        </g>
    </g>
</svg>
