<svg xmlns="http://www.w3.org/2000/svg" width="41" height="40" viewBox="0 0 41 40">
    <g fill="none" fill-rule="evenodd">
        <g fill-rule="nonzero">
            <g>
                <g>
                    <g>
                        <path fill="#FDBF00" d="M24.15 23.949L24.15 31.946 0 31.946 0 23.949 3.671 22.399 11.995 22.35 19.88 22.325z" transform="translate(-1360 -1951) translate(345 1921) translate(840) translate(175 30)"/>
                        <path fill="#FF9F00" d="M19.88 22.325L24.15 23.949 24.15 31.946 11.995 31.946 11.995 22.35z" transform="translate(-1360 -1951) translate(345 1921) translate(840) translate(175 30)"/>
                        <path fill="#FDBF00" d="M24.15 7.923L24.15 15.92 20.336 19.832 4.942 19.832 0 15.92 0 7.923 4.798 7.923 7.869 4.306 11.995 4.478 21.295 4.847z" transform="translate(-1360 -1951) translate(345 1921) translate(840) translate(175 30)"/>
                        <path fill="#FF9F00" d="M24.15 7.923L24.15 15.92 20.336 19.832 11.995 19.832 11.995 4.478 21.295 4.847z" transform="translate(-1360 -1951) translate(345 1921) translate(840) translate(175 30)"/>
                        <g fill="#FFD400">
                            <path d="M4.798.041H28.948V7.915H4.798zM0 15.953H24.15V23.95H0z" transform="translate(-1360 -1951) translate(345 1921) translate(840) translate(175 30)"/>
                        </g>
                        <g fill="#FDBF00">
                            <path d="M0 15.953H12.155V23.95H0zM0 .041H16.953V7.915H0z" transform="translate(-1360 -1951) translate(345 1921) translate(840) translate(175 30) translate(11.995)"/>
                        </g>
                        <path fill="#FFD400" d="M27.749 12.262c-7.27 0-13.195 6.077-13.195 13.533 0 7.455 5.926 13.533 13.195 13.533 7.27 0 13.195-6.078 13.195-13.533 0-7.456-5.926-13.533-13.195-13.533z" transform="translate(-1360 -1951) translate(345 1921) translate(840) translate(175 30)"/>
                        <g fill="#FDBF00">
                            <path d="M23.99 13.574c0 7.455-5.925 13.533-13.194 13.533V.041c7.269 0 13.194 6.077 13.194 13.533z" transform="translate(-1360 -1951) translate(345 1921) translate(840) translate(175 30) translate(16.953 12.22)"/>
                            <path d="M21.591 13.574c0 6.102-4.846 11.073-10.795 11.073C4.846 24.647 0 19.677 0 13.574 0 7.472 4.846 2.502 10.796 2.502c5.95 0 10.795 4.97 10.795 11.072z" transform="translate(-1360 -1951) translate(345 1921) translate(840) translate(175 30) translate(16.953 12.22)"/>
                        </g>
                        <path fill="#FF9F00" d="M38.545 25.795c0 6.102-4.847 11.072-10.796 11.072V14.722c5.95 0 10.796 4.97 10.796 11.073z" transform="translate(-1360 -1951) translate(345 1921) translate(840) translate(175 30)"/>
                        <path fill="#FF9100" d="M31.347 28.255c0 1.6-1.007 2.953-2.399 3.47v2.682H26.55v-2.682c-1.391-.517-2.399-1.87-2.399-3.47h2.4c0 .69.527 1.23 1.199 1.23s1.2-.54 1.2-1.23c0-.689-.528-1.23-1.2-1.23-1.991 0-3.599-1.649-3.599-3.69 0-1.6 1.008-2.953 2.4-3.47v-2.682h2.398v2.682c1.392.517 2.4 1.87 2.4 3.47h-2.4c0-.69-.527-1.231-1.2-1.231-.67 0-1.199.541-1.199 1.23 0 .69.528 1.23 1.2 1.23 1.991 0 3.598 1.649 3.598 3.691z" opacity=".8" transform="translate(-1360 -1951) translate(345 1921) translate(840) translate(175 30)"/>
                        <g fill="#F17000">
                            <path d="M3.599 11.114c0 1.599-1.008 2.952-2.4 3.469v2.682H0v-4.921c.672 0 1.2-.542 1.2-1.23 0-.69-.528-1.23-1.2-1.23V7.422c1.991 0 3.599 1.648 3.599 3.69zM0 4.962V.041h1.2v2.682c1.391.517 2.399 1.87 2.399 3.47h-2.4c0-.69-.527-1.23-1.199-1.23z" transform="translate(-1360 -1951) translate(345 1921) translate(840) translate(175 30) translate(27.749 17.142)"/>
                        </g>
                    </g>
                </g>
            </g>
        </g>
    </g>
</svg>
