<svg xmlns="http://www.w3.org/2000/svg" width="30" height="30" viewBox="0 0 30 30">
    <g fill="none" fill-rule="evenodd">
        <g fill-rule="nonzero">
            <g>
                <g>
                    <g>
                        <g>
                            <g>
                                <path fill="#FF9100" d="M15 0l-1.172 15L15 30c8.284 0 15-6.716 15-15 0-8.284-6.716-15-15-15z" transform="translate(-698 -1615) translate(140 120) translate(0 1247) translate(50 203) translate(508 40) translate(0 5)"/>
                                <path fill="#FDBF00" d="M0 15c0 8.284 6.716 15 15 15V0C6.716 0 0 6.716 0 15z" transform="translate(-698 -1615) translate(140 120) translate(0 1247) translate(50 203) translate(508 40) translate(0 5)"/>
                                <path fill="#FFF" d="M15 3.734l-1.172 8.625 5.648-4.476 2.056-2.056C19.69 4.51 17.433 3.734 15 3.734zM24.173 8.467l-2.057 2.057-8.288 9.46L15 26.267c6.212 0 11.266-5.054 11.266-11.266 0-2.433-.776-4.689-2.093-6.533z" transform="translate(-698 -1615) translate(140 120) translate(0 1247) translate(50 203) translate(508 40) translate(0 5)"/>
                                <path fill="#FFF" d="M3.734 15c0 2.433.776 4.689 2.093 6.532l2.056-2.056L15 11.187V3.734C8.788 3.734 3.734 8.788 3.734 15zM8.467 24.173c1.844 1.317 4.1 2.093 6.533 2.093v-7.453l-4.476 3.303-2.056 2.057z" transform="translate(-698 -1615) translate(140 120) translate(0 1247) translate(50 203) translate(508 40) translate(0 5)"/>
                                <path fill="#FFB655" d="M19.476 7.883C18.18 7.065 16.644 6.59 15 6.59l-1.172 2.93 4.365-.354 1.283-1.283z" transform="translate(-698 -1615) translate(140 120) translate(0 1247) translate(50 203) translate(508 40) translate(0 5)"/>
                                <path fill="#FFDA44" d="M6.59 15c0 1.644.475 3.179 1.293 4.476l1.283-1.283L15 9.52V6.59c-4.637 0-8.41 3.773-8.41 8.41z" transform="translate(-698 -1615) translate(140 120) translate(0 1247) translate(50 203) translate(508 40) translate(0 5)"/>
                                <path fill="#FFB655" d="M22.116 10.524l-1.282 1.283-7.006 8.673L15 23.41c4.637 0 8.41-3.773 8.41-8.41 0-1.644-.475-3.179-1.294-4.476z" transform="translate(-698 -1615) translate(140 120) translate(0 1247) translate(50 203) translate(508 40) translate(0 5)"/>
                                <path fill="#FFDA44" d="M11.807 20.834l-1.283 1.282c1.297.819 2.832 1.294 4.476 1.294v-2.93l-3.193.354z" transform="translate(-698 -1615) translate(140 120) translate(0 1247) translate(50 203) translate(508 40) translate(0 5)"/>
                                <path fill="#FFDA44" d="M20.834 11.807L15 17.641l-1.172 2.262L15 21.653c3.668 0 6.652-2.985 6.652-6.653 0-1.157-.297-2.245-.818-3.193z" transform="translate(-698 -1615) translate(140 120) translate(0 1247) translate(50 203) translate(508 40) translate(0 5)"/>
                                <path fill="#FFEB99" d="M11.807 20.834c.948.52 2.036.818 3.193.818v-4.011l-3.193 3.193z" transform="translate(-698 -1615) translate(140 120) translate(0 1247) translate(50 203) translate(508 40) translate(0 5)"/>
                                <path fill="#FFDA44" d="M15 8.348l-1.172 2.177L15 12.359l3.193-3.193c-.948-.521-2.036-.818-3.193-.818z" transform="translate(-698 -1615) translate(140 120) translate(0 1247) translate(50 203) translate(508 40) translate(0 5)"/>
                                <path fill="#FFEB99" d="M8.348 15c0 1.157.297 2.245.818 3.193L15 12.36V8.348c-3.668 0-6.652 2.984-6.652 6.652z" transform="translate(-698 -1615) translate(140 120) translate(0 1247) translate(50 203) translate(508 40) translate(0 5)"/>
                            </g>
                        </g>
                    </g>
                </g>
            </g>
        </g>
    </g>
</svg>
