<svg xmlns="http://www.w3.org/2000/svg" width="20" height="26" viewBox="0 0 20 26">
    <g fill="none" fill-rule="evenodd">
        <g>
            <g>
                <g>
                    <g>
                        <g>
                            <g>
                                <path fill="#FDB902" fill-rule="nonzero" d="M19.988 16.271c0 4.922-5.066 8.913-9.988 8.913S.012 21.194.012 16.27c0-4.043 3.768-8.287 7.458-9.378.802-.237 4.426-.21 5.298.074 3.567 1.164 7.22 5.348 7.22 9.304zM13.273.82c-.081 0-.091 0-.276-.18C12.752.4 12.343 0 11.594 0c-.748 0-1.157.4-1.402.64-.185.18-.195.18-.276.18-.08 0-.09 0-.275-.18C9.396.4 8.986 0 8.238 0S7.08.4 6.836.64C6.65.82 6.64.82 6.56.82H5.305L7.187 5.03l.353.424h4.941l.192-.424L14.555.82h-1.282z" transform="translate(-220 -462) translate(140 120) translate(0 125) translate(50 50) translate(0 150) translate(30 17)"/>
                                <path fill="#FD8C02" fill-rule="nonzero" d="M19.988 16.271c0-3.956-3.653-8.14-7.22-9.304-.448-.146-1.623-.224-2.768-.233v18.45c4.922 0 9.988-3.99 9.988-8.913z" transform="translate(-220 -462) translate(140 120) translate(0 125) translate(50 50) translate(0 150) translate(30 17)"/>
                                <g>
                                    <path d="M.046 14.21c0 .198.271.289.653.372v-.722c-.492.014-.653.167-.653.35zM1.275 16.524c0-.194-.235-.291-.576-.374v.674c.42-.02.576-.128.576-.3z" transform="translate(-220 -462) translate(140 120) translate(0 125) translate(50 50) translate(0 150) translate(30 17) translate(9.301)"/>
                                    <path fill="#FD8C02" fill-rule="nonzero" d="M3.972.82c-.081 0-.091 0-.276-.18C3.451.4 3.041 0 2.293 0S1.136.4.891.64C.785.744.736.788.699.807v4.646H3.18l.192-.424L5.254.82H3.972z" transform="translate(-220 -462) translate(140 120) translate(0 125) translate(50 50) translate(0 150) translate(30 17) translate(9.301)"/>
                                </g>
                                <path fill="#FD8D34" fill-rule="nonzero" d="M7.187 5.029L12.673 5.029 12.673 6.963 7.187 6.963z" transform="translate(-220 -462) translate(140 120) translate(0 125) translate(50 50) translate(0 150) translate(30 17)"/>
                                <path fill="#FD6E2E" fill-rule="nonzero" d="M10 5.029L12.673 5.029 12.673 6.963 10 6.963z" transform="translate(-220 -462) translate(140 120) translate(0 125) translate(50 50) translate(0 150) translate(30 17)"/>
                            </g>
                        </g>
                    </g>
                </g>
            </g>
        </g>
    </g>
</svg>
