<svg xmlns="http://www.w3.org/2000/svg" width="20" height="17" viewBox="0 0 20 17">
    <g fill="none" fill-rule="evenodd">
        <g fill-rule="nonzero">
            <g>
                <g>
                    <g>
                        <g transform="translate(-425 -2945) translate(345 2463) translate(0 59) translate(80 422) translate(0 1)">
                            <path fill="#FDB902" d="M7.166 13.526H.434c-.24 0-.434-.195-.434-.435v-.455C0 10.893 1.413 9.48 3.156 9.48h3.065c1.058 0 1.975.604 2.426 1.485"/>
                            <path fill="#FD8C02" d="M6.221 9.48H4.398v4.046h2.768l1.48-2.56c-.45-.882-1.367-1.486-2.425-1.486z"/>
                            <circle cx="13.371" cy="3.828" r="3.809" fill="#FFE6CC"/>
                            <path fill="#FDB902" d="M18.976 16.413H7.766c-.394 0-.713-.32-.713-.713v-1.715c0-2.192 1.776-3.968 3.968-3.968h4.699c2.192 0 3.969 1.776 3.969 3.968V15.7c0 .394-.32.713-.713.713z"/>
                            <g transform="translate(1.673)">
                                <circle cx="2.725" cy="4.773" r="2.696" fill="#FFE6CC"/>
                                <path fill="#FC9" d="M11.725.019v7.616c2.09-.015 3.781-1.714 3.781-3.808S13.816.034 11.725.02z"/>
                            </g>
                            <path fill="#FD8C02" d="M15.72 10.017H13.4v6.396h5.577c.394 0 .713-.32.713-.713v-1.715c0-2.192-1.777-3.968-3.969-3.968z"/>
                            <path fill="#FC9" d="M4.398 2.077h-.014v5.391h.014c1.49 0 2.696-1.206 2.696-2.695 0-1.489-1.207-2.696-2.696-2.696z"/>
                        </g>
                    </g>
                </g>
            </g>
        </g>
    </g>
</svg>
