<svg xmlns="http://www.w3.org/2000/svg" width="30" height="30" viewBox="0 0 30 30">
    <g fill="none" fill-rule="evenodd">
        <g fill-rule="nonzero">
            <g>
                <g>
                    <g>
                        <g>
                            <g>
                                <path fill="#FD8C02" d="M7.274 0l4.557 7.274-4.557 7.273c4.017 0 7.273-3.256 7.273-7.273C14.547 3.257 11.291 0 7.274 0z" transform="translate(-190 -1615) translate(140 120) translate(0 1247) translate(50 203) translate(0 40) translate(0 5)"/>
                                <path fill="#FDB902" d="M12.736 7.274C12.736 3.257 10.291 0 7.274 0 3.257 0 0 3.257 0 7.274c0 4.017 3.257 7.273 7.274 7.273 3.017 0 5.462-3.256 5.462-7.273zm-5.462 3.652c-2.017 0-3.652-1.635-3.652-3.652 0-2.017 1.635-3.652 3.652-3.652 2.017 0 3.652 1.635 3.652 3.652 0 2.017-1.635 3.652-3.652 3.652z" transform="translate(-190 -1615) translate(140 120) translate(0 1247) translate(50 203) translate(0 40) translate(0 5)"/>
                                <path fill="#FD8C02" d="M22.726 15.453l4.558 7.273L22.726 30C26.743 30 30 26.743 30 22.726c0-4.017-3.257-7.273-7.274-7.273z" transform="translate(-190 -1615) translate(140 120) translate(0 1247) translate(50 203) translate(0 40) translate(0 5)"/>
                                <path fill="#FDB902" d="M28.19 22.726c0-4.017-2.447-7.273-5.464-7.273-4.017 0-7.273 3.256-7.273 7.273 0 4.017 3.256 7.274 7.273 7.274 3.017 0 5.463-3.257 5.463-7.274zm-5.464 3.652c-2.017 0-3.652-1.635-3.652-3.652 0-2.017 1.635-3.652 3.652-3.652 2.017 0 3.652 1.635 3.652 3.652 0 2.017-1.635 3.652-3.652 3.652z" transform="translate(-190 -1615) translate(140 120) translate(0 1247) translate(50 203) translate(0 40) translate(0 5)"/>
                                <path fill="#FD8C02" d="M29.47.53l-1.921.64L1.17 27.55l-.64 1.92c.707.708 1.853.708 2.56 0L29.47 3.092c.707-.707.707-1.853 0-2.56z" transform="translate(-190 -1615) translate(140 120) translate(0 1247) translate(50 203) translate(0 40) translate(0 5)"/>
                                <path fill="#FDB902" d="M26.909.53L.53 26.91c-.707.707-.707 1.853 0 2.56L29.47.53c-.708-.707-1.854-.707-2.561 0z" transform="translate(-190 -1615) translate(140 120) translate(0 1247) translate(50 203) translate(0 40) translate(0 5)"/>
                            </g>
                        </g>
                    </g>
                </g>
            </g>
        </g>
    </g>
</svg>
