<svg xmlns="http://www.w3.org/2000/svg" width="30" height="30" viewBox="0 0 30 30">
    <g fill="none" fill-rule="evenodd">
        <g fill-rule="nonzero">
            <g>
                <g>
                    <g>
                        <g>
                            <g transform="translate(-190 -1775) translate(140 120) translate(0 1247) translate(50 363) translate(0 40) translate(0 5)">
                                <circle cx="15" cy="15" r="15" fill="#FDB902"/>
                                <path fill="#FD8C02" d="M30 15H0c0 8.284 6.716 15 15 15 8.284 0 15-6.716 15-15z"/>
                                <path fill="#F9F9F9" d="M12.743 20.524c-.089 0-.178-.02-.26-.063-.19-.098-.311-.294-.311-.509v-9.904c0-.215.12-.411.311-.51.191-.097.42-.08.595.046l6.857 4.953c.149.107.237.28.237.463s-.088.356-.237.463l-6.857 4.953c-.1.071-.217.108-.335.108z"/>
                                <path fill="#FFE6CC" d="M12.172 15v4.952c0 .215.12.411.311.51.082.041.171.062.26.062.118 0 .236-.037.335-.108l6.857-4.953c.149-.107.237-.28.237-.463h-8z"/>
                            </g>
                        </g>
                    </g>
                </g>
            </g>
        </g>
    </g>
</svg>
