<svg xmlns="http://www.w3.org/2000/svg" width="20" height="14" viewBox="0 0 20 14">
    <g fill="none" fill-rule="evenodd">
        <g fill-rule="nonzero">
            <g>
                <g>
                    <g>
                        <g>
                            <g>
                                <path fill="#FF9100" d="M18.75 0H6.875c-.166 0-.325.066-.442.182l-.808.81-.808-.81C4.7.066 4.542 0 4.375 0H1.25C.561 0 0 .561 0 1.25V12.5c0 .69.561 1.25 1.25 1.25h3.125c.166 0 .325-.066.442-.182l.808-.81.808.808c.117.118.276.184.442.184H18.75c.69 0 1.25-.56 1.25-1.25V1.25C20 .561 19.44 0 18.75 0z" transform="translate(-220 -528) translate(140 120) translate(0 125) translate(50 50) translate(0 210) translate(30 23)"/>
                                <path fill="#FDBF00" d="M4.375 0c.133 0 .261.042.367.119l.075.064.808.808L6 .615v12.518l-.375-.374-.808.809c-.094.093-.214.154-.343.174l-.099.008H1.25c-.646 0-1.18-.492-1.244-1.122L0 12.5V1.25C0 .604.493.07 1.122.006L1.25 0h3.125z" transform="translate(-220 -528) translate(140 120) translate(0 125) translate(50 50) translate(0 210) translate(30 23)"/>
                                <g fill="#FAFAFA">
                                    <path d="M5.625 3.75c-1.034 0-1.875-.841-1.875-1.875S4.591 0 5.625 0 7.5.841 7.5 1.875 6.659 3.75 5.625 3.75zm0-2.5c-.345 0-.625.28-.625.625s.28.625.625.625.625-.28.625-.625-.28-.625-.625-.625zM9.375 8.75C8.341 8.75 7.5 7.909 7.5 6.875S8.341 5 9.375 5s1.875.841 1.875 1.875-.841 1.875-1.875 1.875zm0-2.5c-.344 0-.625.281-.625.625s.281.625.625.625.625-.281.625-.625-.281-.625-.625-.625zM4.375 8.75c-.141 0-.282-.047-.4-.145-.265-.221-.301-.615-.08-.88l6.25-7.5c.223-.266.616-.299.88-.08.265.221.3.615.079.881l-6.25 7.5c-.123.146-.3.224-.479.224zM0 0H1.25V1.25H0zM0 7.5H1.25V8.75H0zM0 5H1.25V6.25H0zM0 2.5H1.25V3.75H0z" transform="translate(-220 -528) translate(140 120) translate(0 125) translate(50 50) translate(0 210) translate(30 23) translate(5 2.5)"/>
                                </g>
                            </g>
                        </g>
                    </g>
                </g>
            </g>
        </g>
    </g>
</svg>
