<svg xmlns="http://www.w3.org/2000/svg" width="40" height="40" viewBox="0 0 40 40">
    <g fill="none" fill-rule="evenodd">
        <g>
            <g>
                <g>
                    <g transform="translate(-715 -1818) translate(337 447) translate(208 1371) translate(170)">
                        <rect width="40" height="40" rx="10"/>
                        <g fill-rule="nonzero">
                            <g fill="#676664">
                                <path d="M4.293 13.64c-1.188 0-2.147.96-2.147 2.147 0 1.188.959 2.146 2.147 2.146 1.187 0 2.146-.958 2.146-2.146 0-1.187-.959-2.146-2.146-2.146zM4.293 0H4.22C1.903 0 0 1.903 0 4.221c0 .801.644 1.43 1.43 1.43.788 0 1.432-.629 1.432-1.43 0-.744.615-1.36 1.359-1.36h.072c.8.044 1.43.702 1.43 1.503 0 .472-.071.844-.443 1.202l-.987 1.002-.587.586c-.544.544-.844 1.26-.844 2.018v1.607c0 .787.644 1.431 1.43 1.431.788 0 1.431-.644 1.431-1.43V9.171l1.589-1.574c.83-.844 1.273-1.889 1.273-3.234C8.585 1.99 6.668.043 4.293 0z" transform="translate(16.488 11)"/>
                            </g>
                            <g fill="#393835">
                                <path d="M2.146 15.787c0 1.188-.958 2.146-2.146 2.146v-4.292c1.188 0 2.146.959 2.146 2.146zM4.293 4.364c0 1.345-.444 2.39-1.274 3.234L1.431 9.172v1.607c0 .787-.644 1.431-1.431 1.431V6.568l.987-1.002c.372-.358.444-.73.444-1.202C1.43 3.563.8 2.904 0 2.862V0c2.375.043 4.293 1.989 4.293 4.364z" transform="translate(16.488 11) translate(4.293)"/>
                            </g>
                        </g>
                    </g>
                </g>
            </g>
        </g>
    </g>
</svg>
