
<svg 
 xmlns="http://www.w3.org/2000/svg"
 xmlns:xlink="http://www.w3.org/1999/xlink"
viewBox="0 0 21.5 136.5">
<path fill-rule="evenodd"  stroke="rgb(227, 226, 223)" stroke-width="1px" stroke-linecap="butt" stroke-linejoin="miter" fill="none"
 d="M20.500,135.500 C20.500,135.500 20.405,135.500 20.358,135.499 C15.037,135.461 10.274,133.286 6.780,129.789 C3.254,126.259 1.074,121.385 1.074,116.000 C1.074,115.050 1.144,114.102 1.282,113.163 L1.282,113.163 L7.479,70.983 C7.768,69.005 7.768,66.995 7.479,65.017 L7.479,65.017 L1.282,22.837 C0.499,17.510 1.947,12.370 4.922,8.364 C7.897,4.360 12.399,1.491 17.721,0.707 C18.620,0.576 19.475,0.506 20.378,0.500 C20.419,0.500 20.459,0.500 20.500,0.500 L20.500,0.500 "/>
</svg>
