<svg xmlns="http://www.w3.org/2000/svg" width="31" height="40" viewBox="0 0 31 40">
    <g fill="none" fill-rule="evenodd">
        <g fill-rule="nonzero">
            <g>
                <g>
                    <g>
                        <g>
                            <path fill="#FDBF00" d="M26.736 6.084c-1.88-.626-3.143-2.379-3.143-4.36V.642l-1.07-.155C20.322.169 17.828 0 15.312 0c-2.517 0-5.01.169-7.21.487L7.03.642v1.082c0 1.981-1.263 3.734-3.142 4.36L0 7.38v11.791c0 9.406 5.994 17.723 14.917 20.697l.395.132.395-.132c8.923-2.974 14.917-11.291 14.917-20.697V7.381l-3.888-1.297z" transform="translate(-1015 -555) translate(345 60) translate(0 470) translate(630) translate(40 25)"/>
                            <path fill="#FF9100" d="M30.624 7.38v11.791c0 9.406-5.994 17.723-14.917 20.697l-.395.132V0c2.517 0 5.01.169 7.21.487l1.071.155v1.082c0 1.981 1.264 3.734 3.143 4.36l3.888 1.296z" transform="translate(-1015 -555) translate(345 60) translate(0 470) translate(630) translate(40 25)"/>
                            <path fill="#FFD87C" d="M25.085 10.633c-2.413-.844-4.382-2.672-5.437-4.992l-.281-.633-.703-.047c-1.102-.07-2.227-.118-3.352-.118s-2.25.047-3.351.118l-.703.047-.282.633c-1.03 2.32-3.023 4.148-5.437 4.992l-.774.28v8.415c0 6.703 3.961 12.796 10.078 15.539l.47.21.468-.21c6.117-2.743 10.078-8.836 10.078-15.54v-8.413l-.774-.281z" transform="translate(-1015 -555) translate(345 60) translate(0 470) translate(630) translate(40 25)"/>
                            <path fill="#FFC43B" d="M25.859 10.914v8.414c0 6.703-3.961 12.796-10.078 15.539l-.469.21V4.844c1.125 0 2.25.046 3.352.117l.703.047.281.633c1.055 2.32 3.024 4.148 5.437 4.992l.774.28z" transform="translate(-1015 -555) translate(345 60) translate(0 470) translate(630) translate(40 25)"/>
                        </g>
                    </g>
                </g>
            </g>
        </g>
    </g>
</svg>
