<svg xmlns="http://www.w3.org/2000/svg" width="40" height="40" viewBox="0 0 40 40">
    <g fill="none" fill-rule="evenodd">
        <g>
            <g>
                <g>
                    <g>
                        <g transform="translate(-765 -1818) translate(337 447) translate(208 1371) translate(170) translate(50)">
                            <rect width="40" height="40" rx="10"/>
                            <g fill-rule="nonzero">
                                <path fill="#676664" d="M8.191 18c4.912-1.837 8.166-6.53 8.166-11.773V3.049c-1.683 0-3.048-1.365-3.048-3.049H3.074c0 1.684-1.365 3.049-3.049 3.049v3.178C.025 11.47 3.28 16.163 8.191 18z" transform="translate(12 11)"/>
                                <path fill="#393835" d="M8.191 18c4.912-1.837 8.166-6.53 8.166-11.773V3.049c-1.683 0-3.048-1.365-3.048-3.049H8.19v18z" transform="translate(12 11)"/>
                            </g>
                        </g>
                    </g>
                </g>
            </g>
        </g>
    </g>
</svg>
