<svg xmlns="http://www.w3.org/2000/svg" width="26" height="40" viewBox="0 0 26 40">
    <g fill="none" fill-rule="evenodd">
        <g fill-rule="nonzero">
            <g>
                <g>
                    <g>
                        <g>
                            <path fill="#FFEA94" d="M14.127 13.873H8.182v2.217c0 3.456-.7 6.875-2.056 10.053l-.893 2.093h9.455l-.561-14.363z" transform="translate(-1330 -555) translate(345 60) translate(0 470) translate(945) translate(40 25)"/>
                            <path fill="#FFD92E" d="M19.756 26.143c-1.356-3.178-2.055-6.597-2.055-10.053v-2.217h-4.76v14.363h7.708l-.893-2.093z" transform="translate(-1330 -555) translate(345 60) translate(0 470) translate(945) translate(40 25)"/>
                            <path fill="#FDBF00" d="M14.688 5.484c0 3.03 1.282 5.485-1.747 5.485S7.457 8.513 7.457 5.484C7.457 2.455 9.912 0 12.94 0c3.03 0 1.747 2.455 1.747 5.484z" transform="translate(-1330 -555) translate(345 60) translate(0 470) translate(945) translate(40 25)"/>
                            <path fill="#FF9100" d="M12.941 0v10.969c3.03 0 5.485-2.456 5.485-5.485C18.426 2.455 15.97 0 12.94 0z" transform="translate(-1330 -555) translate(345 60) translate(0 470) translate(945) translate(40 25)"/>
                            <path fill="#FCBE00" d="M2.186 27.86L14.688 27.86 14.688 33.695 2.186 33.695z" transform="translate(-1330 -555) translate(345 60) translate(0 470) translate(945) translate(40 25)"/>
                            <path fill="#FF9000" d="M12.941 27.86L23.696 27.86 23.696 33.695 12.941 33.695z" transform="translate(-1330 -555) translate(345 60) translate(0 470) translate(945) translate(40 25)"/>
                            <path fill="#FFD92E" d="M14.688 32.769L2.186 32.769 0.009 35.316 0.009 39.44 14.688 39.44 14.688 35.316z" transform="translate(-1330 -555) translate(345 60) translate(0 470) translate(945) translate(40 25)"/>
                            <path fill="#FCBE00" d="M23.696 32.769L12.941 32.769 12.941 39.44 25.873 39.44 25.873 35.316zM6.833 10.135L14.688 10.135 14.688 15.045 6.833 15.045z" transform="translate(-1330 -555) translate(345 60) translate(0 470) translate(945) translate(40 25)"/>
                            <path fill="#FF9000" d="M12.941 10.135L19.05 10.135 19.05 15.045 12.941 15.045z" transform="translate(-1330 -555) translate(345 60) translate(0 470) translate(945) translate(40 25)"/>
                        </g>
                    </g>
                </g>
            </g>
        </g>
    </g>
</svg>
