<svg xmlns="http://www.w3.org/2000/svg" width="30" height="25" viewBox="0 0 30 25">
    <g fill="none" fill-rule="evenodd">
        <g fill-rule="nonzero">
            <g>
                <g>
                    <g>
                        <g transform="translate(-220 -803) translate(140 120) translate(0 55) translate(50 598) translate(30 30)">
                            <path fill="#FDB902" d="M10.902 20.576H.661c-.365 0-.661-.295-.661-.66v-.693c0-2.651 2.15-4.801 4.801-4.801h4.664c1.61 0 3.004.918 3.69 2.26"/>
                            <path fill="#FD8C02" d="M9.465 14.422H6.69v6.154h4.211l2.252-3.894c-.685-1.342-2.08-2.26-3.69-2.26z"/>
                            <circle cx="20.341" cy="5.823" r="5.794" fill="#FFE6CC"/>
                            <path fill="#FDB902" d="M28.868 24.969H11.813c-.599 0-1.084-.486-1.084-1.084v-2.61c0-3.334 2.703-6.037 6.038-6.037h7.148c3.334 0 6.037 2.703 6.037 6.038v2.609c0 .598-.485 1.084-1.084 1.084z"/>
                            <g transform="translate(2.546)">
                                <circle cx="4.145" cy="7.261" r="4.101" fill="#FFE6CC"/>
                                <path fill="#FC9" d="M17.837.029v11.586c3.18-.022 5.752-2.607 5.752-5.793S21.018.052 17.837.03z"/>
                            </g>
                            <path fill="#FD8C02" d="M23.915 15.238h-3.532v9.73h8.485c.599 0 1.084-.485 1.084-1.083v-2.61c0-3.334-2.703-6.037-6.037-6.037z"/>
                            <path fill="#FC9" d="M6.691 3.785h-.022v8.202h.022c2.265 0 4.101-1.836 4.101-4.1 0-2.266-1.836-4.102-4.101-4.102z"/>
                        </g>
                    </g>
                </g>
            </g>
        </g>
    </g>
</svg>
