<svg xmlns="http://www.w3.org/2000/svg" width="16" height="14" viewBox="0 0 16 14">
    <g fill="none" fill-rule="evenodd">
        <g fill="#E3E2DF" fill-rule="nonzero">
            <g>
                <g>
                    <g>
                        <g>
                            <path d="M6.278 8.788l-.265 3.722c.38 0 .543-.162.74-.358l1.775-1.696 3.679 2.694c.674.376 1.15.178 1.332-.621l2.414-11.315h.001c.214-.998-.36-1.388-1.018-1.143L.743 5.505c-.969.376-.954.916-.165 1.16l3.629 1.13 8.428-5.275c.397-.262.758-.117.461.146L6.278 8.788z" transform="translate(-140 -1740) translate(100 1709) translate(40 27) translate(0 2) translate(0 2)"/>
                        </g>
                    </g>
                </g>
            </g>
        </g>
    </g>
</svg>
