<svg xmlns="http://www.w3.org/2000/svg" width="20" height="20" viewBox="0 0 20 20">
    <g fill="none" fill-rule="evenodd">
        <g fill-rule="nonzero">
            <g>
                <g>
                    <g>
                        <g>
                            <g>
                                <path fill="#FDB902" d="M10 20c-.15 0-.3-.057-.414-.172L.172 10.414c-.168-.167-.218-.42-.127-.638.09-.22.304-.362.54-.362h3.808V.586c0-.324.263-.586.586-.586h10.042c.323 0 .586.262.586.586v8.828h3.807c.237 0 .45.143.541.362.091.219.04.47-.127.638l-9.414 9.414C10.3 19.943 10.15 20 10 20z" transform="translate(-220 -645) translate(140 120) translate(0 125) translate(50 50) translate(0 330) matrix(0 1 1 0 30 20)"/>
                                <path fill="#FD8C02" d="M19.414 9.414h-3.807V.586c0-.324-.263-.586-.586-.586H10v20c.15 0 .3-.057.414-.172l9.414-9.414c.168-.167.218-.42.127-.638-.09-.22-.304-.362-.54-.362z" transform="translate(-220 -645) translate(140 120) translate(0 125) translate(50 50) translate(0 330) matrix(0 1 1 0 30 20)"/>
                            </g>
                        </g>
                    </g>
                </g>
            </g>
        </g>
    </g>
</svg>
