<svg id="Group_2" data-name="Group 2" xmlns="http://www.w3.org/2000/svg" width="17.879" height="19.875" viewBox="0 0 17.879 19.875">
  <path id="Path" d="M17.576,8.792v3.082H0V8.792a8.788,8.788,0,0,1,17.576,0Z" transform="translate(0 8)" fill="#fdbf00"/>
  <path id="Path-2" data-name="Path" d="M8.879,8.791v3.082H0V0A8.8,8.8,0,0,1,8.879,8.791Z" transform="translate(9 8)" fill="#ff9100"/>
  <path id="Path-3" data-name="Path" d="M10.936,5.474A5.468,5.468,0,1,1,5.3,0,5.476,5.476,0,0,1,10.936,5.474Z" transform="translate(3.228 0)" fill="#f6e1be"/>
  <path id="Path-4" data-name="Path" d="M5.465,5.474A5.477,5.477,0,0,1,0,10.948V0A5.478,5.478,0,0,1,5.465,5.474Z" transform="translate(8.699 0)" fill="#f1cea0"/>
</svg>
