<svg xmlns="http://www.w3.org/2000/svg" width="47" height="35" viewBox="0 0 47 35">
    <g fill="none" fill-rule="evenodd">
        <g fill-rule="nonzero">
            <g>
                <g>
                    <g transform="translate(-937 -1954) translate(345 1921) translate(420) translate(172 33)">
                        <path fill="#FD8C02" d="M8.343 0.01L11.255 0.01 11.255 3.472 8.343 3.472z"/>
                        <path fill="#DB7800" d="M35.427 0.01L38.338 0.01 38.338 3.472 35.427 3.472z"/>
                        <path fill="#FABE2C" d="M4.9 2.827c-2.706 0-4.9 2.193-4.9 4.9V28.46c0 3.6 2.918 6.518 6.519 6.518 3.377 0 6.195-2.579 6.493-5.943l.31-3.177H33.36l.31 3.177c.298 3.364 3.116 5.943 6.493 5.943 3.6 0 6.519-2.918 6.519-6.518V7.726c0-2.706-2.194-4.9-4.9-4.9H28.97l-5.675.914-5.583-.913H4.899z"/>
                        <path fill="#FF9100" d="M23.295 3.74v22.118H33.36l.31 3.177c.298 3.364 3.116 5.943 6.493 5.943 3.6 0 6.519-2.918 6.519-6.518V7.726c0-2.706-2.194-4.9-4.9-4.9H28.97l-5.675.914z"/>
                        <path fill="#FF9100" d="M15.233 17.18L17.973 17.18 17.973 19.92 15.233 19.92z" transform="rotate(-135 16.603 18.55)"/>
                        <path fill="#F17000" d="M28.708 17.181L31.448 17.181 31.448 19.921 28.708 19.921z" transform="rotate(-135 30.078 18.551)"/>
                        <circle cx="8.726" cy="11.765" r="3.197" fill="#FF9100"/>
                        <circle cx="37.858" cy="11.765" r="3.197" fill="#F17000"/>
                    </g>
                </g>
            </g>
        </g>
    </g>
</svg>
