<svg xmlns="http://www.w3.org/2000/svg" width="18" height="11" viewBox="0 0 18 11">
    <g fill="none" fill-rule="evenodd">
        <g fill="#FFF" fill-rule="nonzero">
            <g>
                <g>
                    <g>
                        <g>
                            <g>
                                <path d="M14.936 6.021c-.29-.367-.207-.531 0-.86.004-.003 2.406-3.323 2.654-4.448l.001-.001c.123-.41 0-.712-.595-.712H15.03c-.502 0-.732.259-.856.548 0 0-1.002 2.399-2.42 3.954-.457.449-.669.593-.918.593-.124 0-.315-.144-.315-.554V.71C10.52.22 10.38 0 9.965 0H6.871c-.315 0-.501.23-.501.443 0 .467.708.574.782 1.886v2.848c0 .624-.113.739-.365.739-.668 0-2.292-2.408-3.254-5.165-.195-.534-.385-.75-.89-.75H.676C.113 0 0 .26 0 .549c0 .511.669 3.055 3.111 6.415C4.738 9.257 7.031 10.5 9.116 10.5c1.253 0 1.406-.276 1.406-.75 0-2.192-.114-2.4.514-2.4.291 0 .792.145 1.962 1.251 1.338 1.312 1.557 1.899 2.306 1.899h1.968c.56 0 .845-.276.681-.82-.374-1.146-2.903-3.502-3.017-3.659z" transform="translate(-204 -571) translate(140 120) translate(0 245) translate(50 50) translate(0 144) translate(14 12)"/>
                            </g>
                        </g>
                    </g>
                </g>
            </g>
        </g>
    </g>
</svg>
