<svg xmlns="http://www.w3.org/2000/svg" width="18" height="11" viewBox="0 0 18 11">
    <g fill="none" fill-rule="evenodd">
        <g fill="#E3E2DF" fill-rule="nonzero">
            <g>
                <g>
                    <g>
                        <g>
                            <path d="M15.492 6.477c.597.583 1.227 1.131 1.762 1.773.237.285.46.58.632.91.243.471.023.989-.399 1.017l-2.622-.001c-.676.056-1.216-.217-1.67-.679-.363-.37-.699-.763-1.048-1.146-.143-.156-.293-.303-.472-.42-.358-.232-.669-.16-.873.213-.208.38-.256.8-.276 1.223-.028.618-.215.78-.835.809-1.326.062-2.584-.139-3.752-.807-1.03-.59-1.83-1.422-2.525-2.364C2.06 5.17 1.023 3.155.09 1.082-.12.615.035.364.55.356 1.405.339 2.26.34 3.117.354c.348.005.578.205.712.533.463 1.138 1.03 2.221 1.74 3.225.19.267.383.534.657.722.304.208.536.14.68-.2.09-.214.13-.446.15-.676.068-.791.077-1.581-.042-2.37-.073-.492-.35-.81-.841-.904C5.922.637 5.959.544 6.08.4c.21-.246.409-.4.804-.4h2.963c.467.092.57.302.634.771l.003 3.292c-.005.182.09.721.418.841.262.086.435-.124.592-.29.71-.753 1.216-1.643 1.668-2.564.201-.406.374-.826.541-1.247.124-.312.319-.466.67-.459l2.852.003c.085 0 .17.001.252.015.481.082.613.289.464.758-.234.736-.689 1.35-1.134 1.967-.475.658-.984 1.293-1.456 1.955-.433.605-.399.91.14 1.435z" transform="translate(-282 -1742) translate(100 1709) translate(40 27) translate(142 2) translate(0 4)"/>
                        </g>
                    </g>
                </g>
            </g>
        </g>
    </g>
</svg>
