<svg xmlns="http://www.w3.org/2000/svg" width="34" height="36" viewBox="0 0 34 36">
    <g fill="none" fill-rule="evenodd">
        <g>
            <g>
                <g>
                    <g>
                        <g>
                            <g fill-rule="nonzero">
                                <path fill="#FFCE54" d="M32.663 10.383c-.857-2.024-2.082-3.842-3.643-5.404-1.56-1.56-3.38-2.786-5.403-3.643C21.521.45 19.295 0 17 0c-2.294 0-4.52.45-6.617 1.336C8.358 2.193 6.54 3.42 4.98 4.98c-1.56 1.562-2.787 3.38-3.643 5.404C.45 12.479 0 14.705 0 16.999c0 2.295.45 4.522 1.336 6.618.856 2.024 2.082 3.842 3.643 5.404 1.56 1.56 3.38 2.787 5.403 3.643 2.096.886 4.323 1.335 6.618 1.335s4.521-.45 6.617-1.335c2.023-.857 3.842-2.083 5.403-3.643 1.561-1.562 2.787-3.38 3.643-5.404.886-2.096 1.336-4.323 1.336-6.618 0-2.294-.45-4.52-1.336-6.616z" transform="translate(-33 -118) translate(0 80) translate(23 38) translate(5) translate(5) translate(0 2)"/>
                                <path fill="#FDB902" d="M27.016 6.983C24.341 4.307 20.783 2.833 17 2.833c-3.783 0-7.34 1.474-10.017 4.15-2.675 2.676-4.149 6.234-4.149 10.016 0 3.784 1.474 7.342 4.15 10.018 2.675 2.676 6.232 4.15 10.016 4.15s7.342-1.474 10.017-4.15c2.676-2.676 4.15-6.234 4.15-10.018 0-3.782-1.474-7.34-4.15-10.016z" transform="translate(-33 -118) translate(0 80) translate(23 38) translate(5) translate(5) translate(0 2)"/>
                                <g fill="#FD8C02">
                                    <path d="M4.603 27.306c1.696.703 3.532 1.071 5.424 1.071V14.211L4.603 27.306zM15.451 1.116C13.754.413 11.92.045 10.027.045V14.21L15.45 1.116z" transform="translate(-33 -118) translate(0 80) translate(23 38) translate(5) translate(5) translate(0 2) translate(6.973 2.79)"/>
                                    <path d="M15.451 27.306c1.697-.703 3.255-1.74 4.592-3.078L10.027 14.211l5.424 13.095zM4.603 1.116C2.906 1.82 1.348 2.856.01 4.194L10.027 14.21 4.603 1.116z" transform="translate(-33 -118) translate(0 80) translate(23 38) translate(5) translate(5) translate(0 2) translate(6.973 2.79)"/>
                                </g>
                                <path fill="#FD8C02" d="M30.095 22.424c.702-1.697 1.071-3.532 1.071-5.424H17l13.096 5.424z" transform="translate(-33 -118) translate(0 80) translate(23 38) translate(5) translate(5) translate(0 2)"/>
                                <g>
                                    <path fill="#FD8C02" d="M1.115 4.603C.412 6.3.044 8.135.044 10.027H14.21L1.115 4.603z" transform="translate(-33 -118) translate(0 80) translate(23 38) translate(5) translate(5) translate(0 2) translate(2.79 6.973)"/>
                                    <path fill="#393835" d="M27.306 4.603c-.703-1.697-1.74-3.254-3.079-4.593L14.21 10.027l13.096-5.424z" transform="translate(-33 -118) translate(0 80) translate(23 38) translate(5) translate(5) translate(0 2) translate(2.79 6.973)"/>
                                    <path fill="#FD8C02" d="M1.115 15.451c.703 1.698 1.74 3.256 3.078 4.593L14.21 10.027 1.115 15.45z" transform="translate(-33 -118) translate(0 80) translate(23 38) translate(5) translate(5) translate(0 2) translate(2.79 6.973)"/>
                                </g>
                                <path fill="#FFCE54" d="M23.304 17c0 3.481-2.822 6.305-6.305 6.305-3.482 0-6.304-2.824-6.304-6.304 0-3.483 2.822-6.306 6.304-6.306s6.305 2.823 6.305 6.306z" transform="translate(-33 -118) translate(0 80) translate(23 38) translate(5) translate(5) translate(0 2)"/>
                                <g fill="#393835">
                                    <path d="M4.316 8.5c-.391 0-.708-.317-.708-.708V.708c0-.39.317-.708.708-.708.391 0 .708.317.708.708v7.084c0 .39-.317.707-.708.707z" transform="translate(-33 -118) translate(0 80) translate(23 38) translate(5) translate(5) translate(0 2) translate(12.684 12.75)"/>
                                    <path d="M7.858 4.958H.774c-.391 0-.708-.316-.708-.708 0-.39.317-.708.708-.708h7.084c.39 0 .708.317.708.708 0 .392-.318.708-.708.708z" transform="translate(-33 -118) translate(0 80) translate(23 38) translate(5) translate(5) translate(0 2) translate(12.684 12.75)"/>
                                </g>
                                <path fill="#393835" d="M17 14.875c-1.172 0-2.125.953-2.125 2.124 0 1.173.953 2.125 2.124 2.125 1.173 0 2.125-.952 2.125-2.125 0-1.17-.952-2.124-2.125-2.124z" transform="translate(-33 -118) translate(0 80) translate(23 38) translate(5) translate(5) translate(0 2)"/>
                            </g>
                            <path fill="#FFF" d="M17 9L21 1 13 1z" transform="translate(-33 -118) translate(0 80) translate(23 38) translate(5) translate(5)"/>
                            <path fill="#FFB200" d="M17 7L19.333 0 14.667 0z" transform="translate(-33 -118) translate(0 80) translate(23 38) translate(5) translate(5)"/>
                        </g>
                    </g>
                </g>
            </g>
        </g>
    </g>
</svg>
