<svg xmlns="http://www.w3.org/2000/svg" width="18" height="18" viewBox="0 0 18 18">
    <g fill="none" fill-rule="evenodd">
        <g fill-rule="nonzero">
            <g>
                <g transform="translate(-1429 -2206) translate(345 2136) translate(1084 70)">
                    <path fill="#FF9100" d="M17.58 17.458l-.122.123c-.559.559-1.465.559-2.024 0l-4.62-4.621 2.146-2.147 1.189 1.189 3.432 3.432c.559.56.559 1.465 0 2.024z"/>
                    <path fill="#DB7D00" d="M14.149 12.002c-.558.856-1.29 1.589-2.147 2.147l-1.189-1.189 2.147-2.147 1.189 1.189z"/>
                    <circle cx="7.316" cy="7.316" r="7.316" fill="#FDBF00"/>
                    <path fill="#E6AD00" d="M7.822 14.614c-.167.011-.336.017-.506.017C3.276 14.631 0 11.356 0 7.316 0 3.276 3.276 0 7.316 0c.17 0 .339.006.506.017-3.805.26-6.81 3.428-6.81 7.299 0 3.87 3.005 7.038 6.81 7.298z"/>
                    <circle cx="7.316" cy="7.316" r="5.173" fill="#FFF"/>
                </g>
            </g>
        </g>
    </g>
</svg>
