<svg width="35" height="18" viewBox="0 0 35 18" fill="none" xmlns="http://www.w3.org/2000/svg">
<path d="M10.3428 6.848L13.4628 3.68V0.199999H0.934844V4.472H6.93484L4.46284 6.992V10.472H6.69484C8.13484 10.472 8.68684 10.904 8.68684 11.624C8.68684 12.488 7.77484 12.92 6.50284 12.92C5.08684 12.92 3.43084 12.536 1.99084 11.696L0.0708437 15.872C1.87084 16.88 4.39084 17.384 6.69484 17.384C12.0708 17.384 14.3748 14.504 14.3748 11.624C14.3748 9.296 12.9828 7.496 10.3428 6.848ZM16.325 17H24.605C30.221 17 34.085 13.808 34.085 8.6C34.085 3.392 30.221 0.199999 24.605 0.199999H16.325V17ZM21.989 12.584V4.616H24.365C26.741 4.616 28.373 6.032 28.373 8.6C28.373 11.168 26.741 12.584 24.365 12.584H21.989Z" fill="#2599C2"/>
</svg>
