<svg width="40" height="45" viewBox="0 0 40 45" fill="none" xmlns="http://www.w3.org/2000/svg">
<path d="M39.3388 9.53053C39.5634 9.63983 39.7552 9.82126 39.8755 10.062C39.8813 10.0735 39.8868 10.085 39.8921 10.0965C39.9038 10.1219 39.9146 10.1477 39.9244 10.1739C39.9787 10.318 40.0028 10.466 39.9997 10.6118V18.8233C39.9997 19.473 39.473 19.9997 38.8233 19.9997C38.1735 19.9997 37.6468 19.473 37.6468 18.8233V12.4916L32.2907 15.1697C31.7095 15.4603 31.0029 15.2247 30.7123 14.6436C30.4217 14.0624 30.6573 13.3558 31.2384 13.0652L36.1926 10.5881L31.2384 8.11099C30.6573 7.82042 30.4217 7.11375 30.7123 6.53261C31.0029 5.95146 31.7095 5.71591 32.2907 6.00648L39.3388 9.53053ZM39.9997 34.0935C40.0034 34.2663 39.9689 34.4422 39.8921 34.6088C39.8345 34.734 39.7552 34.8485 39.6576 34.9467C39.5585 35.0451 39.4529 35.1193 39.3388 35.1748L32.2907 38.6988C31.7095 38.9894 31.0029 38.7538 30.7123 38.1727C30.4217 37.5916 30.6573 36.8849 31.2384 36.5943L36.1926 34.1172L31.2384 31.6401C30.6573 31.3495 30.4217 30.6429 30.7123 30.0617C31.0029 29.4806 31.7095 29.245 32.2907 29.5356L37.6468 32.2137V25.882C37.6468 25.2323 38.1735 24.7056 38.8233 24.7056C39.473 24.7056 39.9997 25.2323 39.9997 25.882V34.0935ZM3.80735 34.1172L8.76157 36.5943C9.34272 36.8849 9.57827 37.5916 9.2877 38.1727C8.99713 38.7538 8.29046 38.9894 7.70932 38.6988L0.661216 35.1748C0.436568 35.0655 0.244818 34.8841 0.124459 34.6433C0.118721 34.6319 0.113188 34.6203 0.107859 34.6088C0.0961903 34.5834 0.0854129 34.5576 0.0755549 34.5314C0.0212781 34.3873 -0.00279828 34.2393 0.000257708 34.0935V25.882C0.000257708 25.2323 0.526975 24.7056 1.17671 24.7056C1.82645 24.7056 2.35317 25.2323 2.35317 25.882V32.2137L7.70932 29.5356C8.29046 29.245 8.99713 29.4806 9.2877 30.0617C9.57827 30.6429 9.34272 31.3495 8.76157 31.6401L3.80735 34.1172ZM2.35317 12.4916V18.8233C2.35317 19.473 1.82645 19.9997 1.17671 19.9997C0.526975 19.9997 0.000257708 19.473 0.000257708 18.8233V10.6118C-0.00336387 10.439 0.0311194 10.2632 0.107859 10.0965C0.165481 9.9713 0.244829 9.85677 0.342436 9.75858C0.441493 9.66017 0.547111 9.58605 0.661216 9.53053L7.70932 6.00648C8.29046 5.71591 8.99713 5.95146 9.2877 6.53261C9.57827 7.11375 9.34272 7.82042 8.76157 8.11099L3.80735 10.5881L8.76157 13.0652C9.34272 13.3558 9.57827 14.0624 9.2877 14.6436C8.99713 15.2247 8.29046 15.4603 7.70932 15.1697L2.35317 12.4916ZM19.4527 0.134786C19.6162 0.0487135 19.8024 0 20 0C20.1976 0 20.3838 0.0487135 20.5473 0.134786L27.5849 3.65357C28.166 3.94414 28.4016 4.6508 28.111 5.23195C27.8204 5.81309 27.1137 6.04865 26.5326 5.75808L21.1765 3.08V9.41164C21.1765 10.0614 20.6497 10.5881 20 10.5881C19.3503 10.5881 18.8235 10.0614 18.8235 9.41164V3.08L13.4674 5.75808C12.8863 6.04865 12.1796 5.81309 11.889 5.23195C11.5984 4.6508 11.834 3.94414 12.4151 3.65357L19.4527 0.134786ZM20.5473 44.5705C20.3838 44.6566 20.1976 44.7053 20 44.7053C19.8024 44.7053 19.6162 44.6566 19.4527 44.5705L12.4151 41.0517C11.834 40.7612 11.5984 40.0545 11.889 39.4734C12.1796 38.8922 12.8863 38.6567 13.4674 38.9472L18.8235 41.6253V35.2937C18.8235 34.6439 19.3503 34.1172 20 34.1172C20.6497 34.1172 21.1765 34.6439 21.1765 35.2937V41.6253L26.5326 38.9472C27.1137 38.6567 27.8204 38.8922 28.111 39.4734C28.4016 40.0545 28.166 40.7612 27.5849 41.0517L20.5473 44.5705ZM21.1765 20.7268V27.0585C21.1765 27.7082 20.6497 28.2349 20 28.2349C19.3503 28.2349 18.8235 27.7082 18.8235 27.0585V20.7268L12.4151 17.5226C11.834 17.2321 11.5984 16.5254 11.889 15.9442C12.1796 15.3631 12.8863 15.1276 13.4674 15.4181L20 18.6844L26.5326 15.4181C27.1137 15.1276 27.8204 15.3631 28.111 15.9442C28.4016 16.5254 28.166 17.2321 27.5849 17.5226L21.1765 20.7268Z" fill="#2599C2"/>
</svg>
