<svg width="100" height="75" viewBox="0 0 100 75" fill="none" xmlns="http://www.w3.org/2000/svg">
<path opacity="0.1" d="M45.082 3.82514C35.9745 7.28597 31.4208 13.2969 31.4208 21.8579C31.4208 26.9581 33.6066 32.0583 37.9781 37.1585C42.3497 42.2587 44.5355 47.9053 44.5355 54.0984C44.5355 60.1093 42.714 65.0273 39.071 68.8525C35.428 72.4954 31.0565 74.3169 25.9563 74.3169C15.5738 74.3169 8.2878 69.6721 4.09836 60.3825C1.36612 54.7359 0 50 0 46.1749C0 35.2459 2.27687 26.3206 6.8306 19.3989C11.3843 12.2951 16.5756 7.28597 22.4044 4.37157C28.2332 1.45719 32.878 0 36.3388 0C39.7996 0 42.3497 0.182146 43.9891 0.54644L45.082 3.82514ZM100 3.82514C90.8925 7.28597 86.3388 13.2969 86.3388 21.8579C86.3388 26.9581 88.5246 32.0583 92.8962 37.1585C97.2678 42.2587 99.4535 47.9053 99.4535 54.0984C99.4535 60.1093 97.6321 65.0273 93.9891 68.8525C90.3461 72.4954 85.9745 74.3169 80.8743 74.3169C70.4918 74.3169 63.2058 69.6721 59.0164 60.3825C56.4663 54.7359 55.1913 50 55.1913 46.1749C55.1913 35.2459 57.377 26.3206 61.7486 19.3989C66.3024 12.2951 71.4936 7.28597 77.3224 4.37157C83.1512 1.45719 87.796 0 91.2568 0C94.8998 0 97.4499 0.182146 98.9071 0.54644L100 3.82514Z" fill="#2599C2"/>
</svg>
