<svg width="52" height="52" viewBox="0 0 52 52" fill="none" xmlns="http://www.w3.org/2000/svg">
<path d="M26.0001 35.0676C30.8909 35.0676 34.8925 30.9873 34.8925 26.0002C34.8925 21.0132 30.8909 16.9329 26.0001 16.9329C21.1093 16.9329 17.1077 21.0132 17.1077 26.0002C17.1077 30.9873 21.1093 35.0676 26.0001 35.0676ZM26.0001 20.8189C28.7948 20.8189 31.0815 23.1505 31.0815 26.0002C31.0815 28.85 28.7948 31.1816 26.0001 31.1816C23.2053 31.1816 20.9187 28.85 20.9187 26.0002C20.9187 23.1505 23.2053 20.8189 26.0001 20.8189Z" fill="#58595B" stroke="#58595B" stroke-miterlimit="10" stroke-linecap="round" stroke-linejoin="round"/>
<path d="M1.10128 30.987C0.910731 31.829 0.974248 32.671 1.41887 33.4482L7.38948 44.0052C8.27872 45.5596 10.1842 46.0777 11.7086 45.2358L15.9008 42.8394C16.3454 43.0984 16.79 43.4223 17.3617 43.6813V47.7617C17.3617 49.5751 18.8226 51 20.5375 51H31.8436C33.6221 51 35.0194 49.5104 35.0194 47.7617V43.5518C35.337 43.3575 35.7181 43.1632 36.0357 42.9689L40.0373 45.3653C41.5617 46.272 43.5307 45.7539 44.42 44.1995L50.5176 33.772C50.9622 32.9948 51.0893 32.1529 50.8352 31.3109C50.6446 30.4689 50.073 29.7565 49.3743 29.3031L45.4362 26.9067C45.4362 26.5829 45.4362 26.3238 45.4362 26C45.4362 25.8057 45.4362 25.5466 45.4362 25.3523L49.4378 23.0207C50.1365 22.5674 50.7082 21.8549 50.8987 21.0777C51.0893 20.2358 51.0257 19.329 50.5811 18.6166L44.6105 8.05958C43.7213 6.50518 41.8158 5.98705 40.2914 6.82902L36.2263 9.16062C35.8452 8.90156 35.4005 8.70726 35.0194 8.44819V4.23834C35.0194 2.42487 33.5585 1 31.8436 1H20.5375C18.759 1 17.3617 2.48964 17.3617 4.23834V8.31865C16.917 8.57772 16.4724 8.77202 16.0913 9.03109L12.0262 6.63472C10.5018 5.72798 8.59631 6.24612 7.70707 7.80052L1.5459 18.228C1.10128 19.0052 0.974247 19.8471 1.1648 20.6891C1.35535 21.5311 1.86349 22.2435 2.62569 22.6969L6.56376 25.0933C6.56376 25.4171 6.56376 25.6762 6.56376 26C6.56376 26.1943 6.56376 26.4534 6.56376 26.6477L2.56218 28.9793C1.79997 29.4326 1.29183 30.1451 1.10128 30.987ZM10.5653 28.785L10.4383 27.5544C10.3748 27.0363 10.3748 26.5181 10.3748 26C10.3748 25.4819 10.4383 24.899 10.5018 24.3161L10.6289 23.0855L5.10286 19.7176L10.6289 10.3264L16.2819 13.6943L17.2982 12.9171C18.0604 12.3342 18.759 11.8808 19.8388 11.4922L21.1092 11.0389V4.95078H31.1449V11.0389L32.2882 11.557C33.241 12.0104 34.1937 12.5285 35.0194 13.1114L36.0357 13.8238L41.6887 10.5855L47.0242 20.0415L41.4347 23.3446L41.5617 24.5751C41.6252 25.0933 41.6252 25.6114 41.6252 26.1295C41.6252 26.6477 41.5617 27.2306 41.4982 27.8135L41.3711 29.044L46.8971 32.4119L41.4347 41.8031L35.9087 38.5L34.8924 39.0829C34.0667 39.6658 33.241 40.1192 32.3517 40.5078L31.2084 41.0259V47.0492H21.1092V40.9611L19.8388 40.5078C18.6955 40.0544 17.9333 39.601 17.1076 38.9534L16.0913 38.1762L10.3748 41.544L5.03934 32.0881L10.5653 28.785Z" fill="#58595B" stroke="#58595B" stroke-miterlimit="10" stroke-linecap="round" stroke-linejoin="round"/>
</svg>
