<svg width="55" height="50" viewBox="0 0 55 50" fill="none" xmlns="http://www.w3.org/2000/svg">
<path d="M0.52315 25.4754C1.31298 26.4405 2.77981 26.5541 3.68247 25.7025L6.05196 23.6588V43.4147C6.05196 47.048 8.98562 50 12.5963 50H42.4406C46.0512 50 48.9849 47.048 48.9849 43.4147V23.7156L51.3544 25.7593C52.3134 26.5541 53.7803 26.3838 54.5137 25.3619C55.2471 24.4536 55.1343 23.0911 54.288 22.2963L29.0134 0.553506C28.1672 -0.184502 26.926 -0.184502 26.0798 0.553506L0.805232 22.2963C-0.153847 23.0911 -0.26668 24.5671 0.52315 25.4754ZM20.9459 27.5759C21.3972 27.9733 21.7921 28.4275 22.1871 28.9384L20.9459 27.5759ZM19.0277 32.2311C18.4072 31.7201 17.843 31.0957 17.3917 30.3576L19.0277 32.2311ZM32.9626 28.9384C33.3011 28.4275 33.7524 27.9733 34.2038 27.5759L32.9626 28.9384ZM37.758 30.3576C37.3067 31.0389 36.7425 31.6634 36.1219 32.2311L37.758 30.3576ZM27.5466 5.2654L44.528 19.7985V43.4147C44.528 44.5501 43.6253 45.4584 42.497 45.4584H29.8033V39.2137L30.1982 38.7596H30.4803C37.758 38.7596 43.6817 32.8555 43.7381 25.4754C43.7381 24.5104 43.6253 23.4885 43.3996 22.5234C43.174 21.5583 42.3841 20.8771 41.4251 20.7636C40.9737 20.7068 40.466 20.7068 40.0147 20.7068C34.4294 20.7068 29.4084 24.2833 27.5466 29.5629C25.6849 24.2833 20.6638 20.7636 15.0786 20.7636C14.6273 20.7636 14.1195 20.7636 13.6682 20.8203C12.7091 20.9339 11.9193 21.6151 11.6936 22.5802C10.0575 29.7332 14.5144 36.8294 21.6229 38.4757C22.582 38.7028 23.5975 38.8163 24.5565 38.8163H24.8386L25.2335 39.2705V45.5152H12.6527C11.5244 45.5152 10.6217 44.6069 10.6217 43.4715V19.8552L27.5466 5.2654Z" fill="#58595B"/>
</svg>
