<svg width="54" height="54" viewBox="0 0 54 54" fill="none" xmlns="http://www.w3.org/2000/svg">
<path d="M17.1674 46.7592L17.8868 49.0484L16.0283 47.6026L14.1099 49.0484L14.8293 46.699L12.9109 45.3737H15.3089L16.0283 43.1448L16.7478 45.3737H19.0259L17.1674 46.7592Z" fill="#58595B" stroke="#58595B" stroke-width="3" stroke-miterlimit="10" stroke-linecap="round" stroke-linejoin="round"/>
<path d="M28.1983 49.7712L28.9177 52.0001L26.9993 50.5543L25.1408 51.9399L25.8602 49.6507L23.9417 48.3857L26.2798 48.3254L26.9993 46.1567L27.7187 48.3254H29.9968L28.1983 49.7712Z" fill="#58595B" stroke="#58595B" stroke-width="3" stroke-miterlimit="10" stroke-linecap="round" stroke-linejoin="round"/>
<path d="M47.2034 38.7473L47.9229 40.9762L46.0044 39.5304L44.086 40.916L44.8054 38.687L43.0068 37.3015H45.285L46.0044 35.1328L46.7238 37.3015H49.002L47.2034 38.7473Z" fill="#58595B" stroke="#58595B" stroke-width="3" stroke-miterlimit="10" stroke-linecap="round" stroke-linejoin="round"/>
<path d="M39.1106 46.7592L39.89 49.0484L38.0315 47.6026L36.0531 49.0484L36.7725 46.699L34.914 45.3737H37.2521L38.0315 43.1448L38.6909 45.3737H40.9691L39.1106 46.7592Z" fill="#58595B" stroke="#58595B" stroke-width="3" stroke-miterlimit="10" stroke-linecap="round" stroke-linejoin="round"/>
<path d="M9.13462 38.7473L9.91399 40.9762L8.05549 39.5304L6.07709 40.916L6.79651 38.687L4.93802 37.3015H7.21617L8.05549 35.1328L8.65501 37.3015H10.9931L9.13462 38.7473Z" fill="#58595B" stroke="#58595B" stroke-width="3" stroke-miterlimit="10" stroke-linecap="round" stroke-linejoin="round"/>
<path d="M6.1966 27.7226L6.97597 29.9515L5.05752 28.5057L3.13908 29.8913L3.85849 27.6624L2 26.3371L4.27815 26.2768L5.05752 24.1082L5.71699 26.2768H8.05509L6.1966 27.7226Z" fill="#58595B" stroke="#58595B" stroke-width="3" stroke-miterlimit="10" stroke-linecap="round" stroke-linejoin="round"/>
<path d="M17.1674 8.62673L17.8868 10.8556L16.0283 9.40986L14.1099 10.8556L14.8293 8.62673L12.9109 7.24119H15.3089L16.0283 5.07251L16.7478 7.24119H19.0259L17.1674 8.62673Z" fill="#58595B" stroke="#58595B" stroke-width="3" stroke-miterlimit="10" stroke-linecap="round" stroke-linejoin="round"/>
<path d="M9.13462 16.6387L9.91399 18.8676L8.05549 17.4218L6.07709 18.8676L6.79651 16.6387L4.93802 15.2531H7.21617L8.05549 13.0845L8.65501 15.2531H10.9931L9.13462 16.6387Z" fill="#58595B" stroke="#58595B" stroke-width="3" stroke-miterlimit="10" stroke-linecap="round" stroke-linejoin="round"/>
<path d="M28.1983 5.61446L28.9177 7.84338L26.9993 6.39759L25.1408 7.78314L25.8602 5.55422L23.9417 4.22892L26.2798 4.16868L26.9993 2L27.7187 4.16868H29.9968L28.1983 5.61446Z" fill="#58595B" stroke="#58595B" stroke-width="3" stroke-miterlimit="10" stroke-linecap="round" stroke-linejoin="round"/>
<path d="M39.1106 8.62673L39.89 10.8556L38.0315 9.40986L36.0531 10.8556L36.7725 8.62673L34.914 7.24119H37.2521L38.0315 5.07251L38.6909 7.24119H40.9691L39.1106 8.62673Z" fill="#58595B" stroke="#58595B" stroke-width="3" stroke-miterlimit="10" stroke-linecap="round" stroke-linejoin="round"/>
<path d="M50.2015 27.7226L50.9209 29.9515L49.0624 28.5057L47.144 29.8913L47.8634 27.6624L46.0049 26.3371L48.283 26.2768L49.0624 24.1082L49.7219 26.2768H52L50.2015 27.7226Z" fill="#58595B" stroke="#58595B" stroke-width="3" stroke-miterlimit="10" stroke-linecap="round" stroke-linejoin="round"/>
<path d="M47.2034 16.6387L47.9229 18.8676L46.0044 17.4218L44.086 18.8676L44.8054 16.6387L43.0068 15.2531H45.285L46.0044 13.0845L46.7238 15.2531H49.002L47.2034 16.6387Z" fill="#58595B" stroke="#58595B" stroke-width="3" stroke-miterlimit="10" stroke-linecap="round" stroke-linejoin="round"/>
</svg>
