<svg width="58" height="58" viewBox="0 0 58 58" fill="none" xmlns="http://www.w3.org/2000/svg">
<path d="M47.7587 27.1706L43.6697 26.3098C43.311 26.0945 42.9523 24.5881 43.0958 24.2294L46.2522 21.36C46.8261 20.8578 46.9695 19.9253 46.5391 19.2796C46.1805 18.634 45.4631 18.3471 44.7457 18.4906L19.6381 43.5982C19.4947 44.3155 19.7816 45.0329 20.4272 45.3916C21.1446 45.822 22.0054 45.6067 22.5076 45.1046L25.3053 42.02C25.664 41.8765 27.2421 42.2352 27.3856 42.5221L28.2465 46.7545C28.3899 47.5436 29.1073 48.1175 29.8964 48.1175C30.6855 48.1175 31.3311 47.6153 31.5463 46.7545L32.4071 42.6656C32.6223 42.3069 34.1288 41.9482 34.4875 42.0917L37.3569 45.2481C37.8591 45.822 38.7917 45.9655 39.4373 45.535C40.1546 45.1046 40.4416 44.3873 40.2264 43.5982L38.8634 39.4375C38.9351 39.0071 39.9394 37.931 40.2981 37.8593L44.3871 39.2222C45.1761 39.4374 45.9652 39.1505 46.3957 38.4332C46.8261 37.7158 46.6109 36.8549 46.1087 36.3528L42.9523 33.6268C42.8089 33.2682 43.1676 31.7617 43.4545 31.5465L47.6869 30.6857C48.476 30.5422 49.0499 29.8249 49.0499 29.0358C49.0499 28.0315 48.476 27.3141 47.7587 27.1706ZM32.6224 38.218C31.8333 38.218 31.1159 37.5006 31.1159 36.7115C31.1159 35.9224 31.8333 35.205 32.6224 35.205C33.4115 35.205 34.1288 35.9224 34.1288 36.7115C34.1288 37.5006 33.4832 38.218 32.6224 38.218ZM38.7199 32.2639C37.9308 32.2639 37.2135 31.5465 37.2135 30.7574C37.2135 29.9683 37.9308 29.251 38.7199 29.251C39.509 29.251 40.2264 29.9683 40.2264 30.7574C40.2264 31.6182 39.5807 32.2639 38.7199 32.2639Z" fill="#58595B"/>
<path d="M11.3182 29.6101L15.4072 30.4709C15.7659 30.7579 16.1963 32.2643 15.9811 32.5512L12.8247 35.4207C12.2508 35.9228 12.1073 36.8554 12.5378 37.501C12.8964 38.0749 13.6138 38.4336 14.2594 38.2901L39.367 13.2543C39.5105 12.5369 39.2235 11.8195 38.5779 11.4609C37.8606 11.0305 36.9997 11.2456 36.4976 11.7478L33.6999 14.8324C33.3412 14.9759 31.8347 14.6173 31.6195 14.3303L30.7587 10.0979C30.6152 9.30877 29.8979 8.73486 29.1088 8.73486C28.3197 8.73486 27.674 9.23703 27.4588 10.0979L26.598 14.1868C26.3828 14.5455 24.8046 14.9759 24.5177 14.7607L21.72 11.6043C21.2178 11.0304 20.2852 10.8869 19.6396 11.2456C18.9223 11.676 18.6353 12.4652 18.8505 13.2543L20.1418 17.1997C20.07 17.6302 19.0657 18.7062 18.7071 18.7779L14.6181 17.4149C13.829 17.1997 13.0399 17.4867 12.6095 18.204C12.1791 18.9214 12.3943 19.7822 12.9682 20.2844L16.0528 23.0821C16.1963 23.4407 15.8376 24.9472 15.5507 25.1624L11.3182 26.0233C10.5291 26.1667 9.95526 26.8841 9.95526 27.6732C10.027 28.821 10.5291 29.4666 11.3182 29.6101ZM26.9567 18.3475C27.7458 18.3475 28.4631 19.0648 28.4631 19.8539C28.4631 20.643 27.7458 21.3604 26.9567 21.3604C26.1676 21.3604 25.4502 20.643 25.4502 19.8539C25.4502 19.0648 26.1676 18.3475 26.9567 18.3475ZM20.5722 24.1581C21.3613 24.1581 22.0786 24.8755 22.0786 25.6646C22.0786 26.4537 21.3613 27.171 20.5722 27.171C19.7831 27.171 19.0657 26.4537 19.0657 25.6646C19.0657 24.8755 19.7831 24.1581 20.5722 24.1581Z" fill="#58595B"/>
<path d="M46.396 54H11.604C7.44331 54 4 50.5566 4 46.396V11.604C4 7.44331 7.44331 4 11.604 4H46.396C50.5566 4 54 7.44331 54 11.604V46.396C54 50.6284 50.5566 54 46.396 54Z" stroke="#58595B" stroke-width="7" stroke-miterlimit="10" stroke-linecap="round" stroke-linejoin="round"/>
<path d="M6.94037 51.0587L50.2689 7.73022" stroke="#58595B" stroke-width="7" stroke-miterlimit="10" stroke-linecap="round" stroke-linejoin="round"/>
</svg>
