<svg width="58" height="58" viewBox="0 0 58 58" fill="none" xmlns="http://www.w3.org/2000/svg">
<path d="M46.396 54H11.604C7.44333 54 4 50.5567 4 46.396V11.604C4 7.44333 7.44333 4 11.604 4H46.396C50.5567 4 54 7.44333 54 11.604V46.396C54 50.5567 50.5567 54 46.396 54Z" stroke="#58595B" stroke-width="7" stroke-miterlimit="10" stroke-linecap="round" stroke-linejoin="round"/>
<path d="M24.0145 36.9985C24.0145 39.2223 25.8079 41.0157 28.0317 41.0157H38.2182C40.442 41.0157 41.7333 40.2266 41.7333 38.0028V27.0272C41.7333 24.8034 39.9399 23.01 37.7161 23.01H34.4162C35.564 20.7862 37.5008 14.9038 33.7706 14.2582C31.9054 13.8995 30.5425 16.2668 29.036 19.208C27.96 21.2883 26.5252 22.9382 25.4492 23.7991C23.5841 25.3773 24.0145 27.0272 24.0145 27.0272V36.9985Z" fill="#58595B"/>
<path d="M18.85 40.1549C20.2847 40.1549 21.4325 39.0071 21.4325 37.5724V26.7402C21.4325 25.3055 20.2847 24.1577 18.85 24.1577C17.4152 24.1577 16.2675 25.3055 16.2675 26.7402V37.5724C16.3392 39.0788 17.487 40.1549 18.85 40.1549Z" fill="#58595B"/>
</svg>
