<svg width="60" height="50" viewBox="0 0 60 50" fill="none" xmlns="http://www.w3.org/2000/svg">
<path d="M56.2682 43.5368V23.4348L37.3615 29.2979C37.0885 29.3677 36.6789 29.4375 36.2694 29.4375C35.0408 29.4375 33.8805 28.8093 33.1979 27.8321L31.2867 25.0402V46.5381C31.2867 48.7717 33.3344 50.4468 35.5186 49.8885L55.3809 44.7932C55.8587 44.6536 56.2682 44.165 56.2682 43.5368Z" fill="#58595B"/>
<path d="M28.7637 25.11L26.7843 27.9019C26.1018 28.8791 24.9414 29.5073 23.7128 29.5073C23.3033 29.5073 22.8938 29.4375 22.5525 29.2979L3.71399 23.4348V43.5368C3.71399 44.0952 4.12352 44.6536 4.66957 44.7932L24.6684 49.8885C26.7161 50.4468 28.7637 48.8415 28.7637 46.6079V25.11Z" fill="#58595B"/>
<path d="M35.2467 26.3664C35.4515 26.7154 35.861 26.9248 36.2705 26.9248C36.407 26.9248 36.5435 26.9248 36.6118 26.855L59.1361 19.8751C59.4774 19.7355 59.7504 19.5261 59.8869 19.1771C60.0234 18.8282 60.0234 18.4792 59.9552 18.1302L56.2011 8.49797C56.2011 8.49797 56.2011 8.42817 56.1329 8.42817C56.1329 8.35837 56.0646 8.28857 56.0646 8.28857C55.9963 8.21877 55.9963 8.21878 55.9963 8.14898L55.9281 8.07918C55.8598 8.00938 55.8598 8.00938 55.7916 7.93958C55.7233 7.93958 55.7233 7.86978 55.6551 7.86978C55.5868 7.86978 55.5868 7.86978 55.5186 7.79998C55.4503 7.79998 55.4503 7.73019 55.4503 7.73019L30.4688 0.0523489C30.264 -0.0174496 29.991 -0.0174496 29.718 0.0523489L4.73651 7.73019L4.66826 7.79998C4.6 7.79998 4.6 7.79998 4.53174 7.86978C4.46349 7.86978 4.46349 7.93958 4.39523 7.93958C4.32698 8.00938 4.32698 8.00938 4.25872 8.07918L4.19047 8.14898C4.12221 8.21878 4.12221 8.21877 4.12221 8.28857C4.05396 8.35837 4.05396 8.35837 4.05396 8.42817C4.05396 8.42817 4.05396 8.49797 3.9857 8.49797L0.0951401 18.2C-0.0413708 18.549 -0.0413718 18.898 0.163395 19.2469C0.368161 19.5959 0.572929 19.8053 0.914206 19.9449L23.4385 26.9248C23.575 26.9946 23.6433 26.9946 23.7798 26.9946C24.1893 26.9946 24.5306 26.7852 24.8036 26.4362L30.0593 18.9678L35.2467 26.3664ZM9.30962 9.05636L29.991 2.70469L50.6724 9.05636L29.991 15.408L9.30962 9.05636Z" fill="#58595B"/>
</svg>
