<svg width="50" height="50" viewBox="0 0 50 50" fill="none" xmlns="http://www.w3.org/2000/svg">
<path d="M49.3747 23.9377L41.6872 6.31274L33.9997 23.9377C33.5622 24.9377 33.3747 26.0002 33.3747 27.1252C33.3747 31.7502 37.1247 35.4377 41.6872 35.4377C46.2497 35.4377 49.9997 31.6877 49.9997 27.1252C49.9997 26.0002 49.8122 24.8752 49.3747 23.9377ZM41.6872 31.2502C39.3747 31.2502 37.4997 29.3752 37.4997 27.0627C37.4997 26.5002 37.6247 26.0002 37.8122 25.5002L41.6872 16.6877C43.4997 20.8752 45.3747 25.1252 45.5622 25.5627C45.7497 26.0627 45.8747 26.5627 45.8747 27.1252C45.8747 29.4377 43.9997 31.2502 41.6872 31.2502Z" fill="#58595B"/>
<path d="M32.8758 41.375L27.1258 28.125L21.3133 41.375C21.0008 42.125 20.8133 42.9375 20.8133 43.75C20.8133 47.1875 23.6258 50 27.0633 50C30.5008 50 33.3133 47.1875 33.3133 43.75C33.3758 42.9375 33.1883 42.125 32.8758 41.375ZM27.1258 45.875C26.0008 45.875 25.0633 44.9375 25.0633 43.8125C25.0633 43.5625 25.1258 43.25 25.2508 43L27.1883 38.5625C28.1883 40.8125 29.0008 42.6875 29.1258 43C29.2508 43.25 29.2508 43.5 29.2508 43.75C29.1883 44.9375 28.2508 45.875 27.1258 45.875Z" fill="#58595B"/>
<path d="M20.0625 22.0625L10.4375 0L0.8125 22.0625C0.3125 23.3125 0 24.625 0 26.0625C0 31.8125 4.6875 36.5 10.4375 36.5C16.1875 36.5 20.875 31.8125 20.875 26.0625C20.875 24.625 20.5625 23.3125 20.0625 22.0625ZM10.4375 32.3125C7 32.3125 4.1875 29.5 4.1875 26.0625C4.1875 25.25 4.375 24.4375 4.6875 23.6875L10.4375 10.4375C13 16.375 16 23.1875 16.25 23.6875C16.5625 24.4375 16.6875 25.25 16.6875 26.0625C16.6875 29.5 13.875 32.3125 10.4375 32.3125Z" fill="#58595B"/>
</svg>
