<svg width="58" height="58" viewBox="0 0 58 58" fill="none" xmlns="http://www.w3.org/2000/svg">
<path d="M23.5423 21.5708C22.5102 21.0225 21.7576 20.4097 21.2846 19.7324C20.6395 18.8078 20.317 17.7435 20.317 16.5393C20.317 14.5612 21.247 12.9431 23.1069 11.6853C24.5583 10.7177 26.4773 10.2339 28.864 10.2339C32.0248 10.2339 34.3578 10.8359 35.8629 12.0401C37.3788 13.2442 38.1368 14.7601 38.1368 16.5877C38.1368 17.6521 37.8357 18.6465 37.2337 19.5711C36.7821 20.2592 36.0726 20.9257 35.105 21.5708C36.3844 22.1836 37.3358 22.9953 37.9594 24.0059C38.5937 25.0165 38.9108 26.1346 38.9108 27.3602C38.9108 28.5428 38.6367 29.6502 38.0884 30.6823C37.5508 31.7036 36.8843 32.4938 36.0887 33.0529C35.3039 33.6119 34.3202 34.0205 33.1376 34.2785C31.9657 34.5472 30.7132 34.6816 29.3801 34.6816C26.8751 34.6816 24.9614 34.386 23.6391 33.7947C22.3167 33.2034 21.3115 32.3325 20.6234 31.1822C19.9353 30.0318 19.5913 28.7471 19.5913 27.328C19.5913 25.9411 19.9138 24.7692 20.5589 23.8124C21.204 22.8448 22.1984 22.0976 23.5423 21.5708ZM26.4934 16.9264C26.4934 17.7435 26.7461 18.4046 27.2514 18.9099C27.7674 19.4045 28.4501 19.6518 29.2994 19.6518C30.052 19.6518 30.6702 19.4045 31.154 18.9099C31.6378 18.4154 31.8797 17.7757 31.8797 16.9909C31.8797 16.1738 31.627 15.5126 31.1217 15.0073C30.6164 14.4913 29.9714 14.2333 29.1866 14.2333C28.391 14.2333 27.7406 14.4859 27.2353 14.9912C26.7407 15.4857 26.4934 16.1308 26.4934 16.9264ZM26.1387 27.1022C26.1387 28.145 26.4558 28.9997 27.0901 29.6663C27.7244 30.3221 28.4501 30.65 29.2672 30.65C30.052 30.65 30.7562 30.3167 31.3798 29.6502C32.0033 28.9729 32.3151 28.1182 32.3151 27.0861C32.3151 26.0432 31.9979 25.1885 31.3636 24.522C30.7401 23.8554 30.0144 23.5221 29.1866 23.5221C28.3695 23.5221 27.6545 23.8446 27.0417 24.4897C26.4397 25.1348 26.1387 26.0056 26.1387 27.1022Z" fill="#58595B"/>
<path d="M46.396 54H11.604C7.44331 54 4 50.5566 4 46.396V11.604C4 7.44331 7.44331 4 11.604 4H46.396C50.5566 4 54 7.44331 54 11.604V46.396C54 50.5566 50.5566 54 46.396 54Z" stroke="#58595B" stroke-width="7" stroke-miterlimit="10" stroke-linecap="round" stroke-linejoin="round"/>
<path d="M25.4379 46.1386H23.1569V41.8569H21.4251V44.3508C21.4251 45.0159 21.2888 45.5091 21.016 45.8304C20.747 46.1517 20.3323 46.3124 19.7718 46.3124C19.1367 46.3124 18.5669 46.2544 18.0625 46.1386V44.4517C18.3315 44.5339 18.537 44.575 18.679 44.575C18.9854 44.575 19.1385 44.3471 19.1385 43.8913V40.1924H25.4379V46.1386Z" fill="#58595B"/>
<path d="M33.436 43.7285H28.8628C28.9039 44.0946 29.0029 44.3674 29.1598 44.5467C29.3803 44.8045 29.668 44.9334 30.0229 44.9334C30.2471 44.9334 30.4601 44.8774 30.6618 44.7653C30.7851 44.6943 30.9177 44.5691 31.0597 44.3898L33.3071 44.5972C32.9633 45.195 32.5486 45.6246 32.0629 45.8862C31.5772 46.144 30.8804 46.2729 29.9725 46.2729C29.1841 46.2729 28.5639 46.1626 28.1118 45.9422C27.6597 45.718 27.2842 45.3649 26.9853 44.883C26.6902 44.3973 26.5426 43.8275 26.5426 43.1736C26.5426 42.2433 26.8396 41.4905 27.4337 40.9151C28.0315 40.3397 28.8553 40.052 29.9052 40.052C30.7571 40.052 31.4296 40.1809 31.9228 40.4387C32.416 40.6965 32.7915 41.0701 33.0493 41.5596C33.3071 42.049 33.436 42.6861 33.436 43.4707V43.7285ZM31.1158 42.6356C31.071 42.1947 30.9514 41.879 30.7571 41.6885C30.5665 41.4979 30.3143 41.4027 30.0005 41.4027C29.6381 41.4027 29.3485 41.5465 29.1318 41.8342C28.9936 42.0135 28.9058 42.2807 28.8684 42.6356H31.1158Z" fill="#58595B"/>
<path d="M39.5097 41.8569H37.8564V46.1386H35.5698V41.8569H33.9165V40.1924H39.5097V41.8569Z" fill="#58595B"/>
</svg>
