<?xml version="1.0" encoding="utf-8"?>
<svg xmlns="http://www.w3.org/2000/svg" xmlns:xlink="http://www.w3.org/1999/xlink">
  <symbol viewBox="0 0 512.002 512.002" id="arrow-next">
    <path d="M388.425 241.951L151.609 5.79c-7.759-7.733-20.321-7.72-28.067.04-7.74 7.759-7.72 20.328.04 28.067l222.72 222.105-222.728 222.104c-7.759 7.74-7.779 20.301-.04 28.061a19.8 19.8 0 0014.057 5.835 19.79 19.79 0 0014.017-5.795l236.817-236.155c3.737-3.718 5.834-8.778 5.834-14.05s-2.103-10.326-5.834-14.051z"></path>
  </symbol>

  <symbol viewBox="0 0 443.52 443.52" id="arrow-prev">
    <path d="M143.492 221.863L336.226 29.129c6.663-6.664 6.663-17.468 0-24.132-6.665-6.662-17.468-6.662-24.132 0l-204.8 204.8c-6.662 6.664-6.662 17.468 0 24.132l204.8 204.8c6.78 6.548 17.584 6.36 24.132-.42 6.387-6.614 6.387-17.099 0-23.712L143.492 221.863z"></path>
  </symbol>

  <symbol viewBox="0 0 409.806 409.806" id="close">
    <path d="M228.929 205.01L404.596 29.343c6.78-6.548 6.968-17.352.42-24.132-6.548-6.78-17.352-6.968-24.132-.42-.142.137-.282.277-.42.42L204.796 180.878 29.129 5.21c-6.78-6.548-17.584-6.36-24.132.42-6.388 6.614-6.388 17.099 0 23.713L180.664 205.01 4.997 380.677c-6.663 6.664-6.663 17.468 0 24.132 6.664 6.662 17.468 6.662 24.132 0l175.667-175.667 175.667 175.667c6.78 6.548 17.584 6.36 24.132-.42 6.387-6.614 6.387-17.099 0-23.712L228.929 205.01z"></path>
  </symbol>

  <symbol viewBox="0 0 12 26" id="fb">
    <path clip-rule="evenodd" d="M11.9 8.5h-4V5.9c0-1 .7-1.2 1.1-1.2h2.8V.3H7.9C3.5.3 2.6 3.6 2.6 5.6v2.9H.1V13h2.5v12.7h5.3V13h3.6l.4-4.5z"></path>
  </symbol>

  <symbol viewBox="0 0 24 24" id="insta">
    <path fill-rule="evenodd" clip-rule="evenodd" d="M4.80005 0.300049H19.2C21.7 0.300049 23.7 2.30005 23.7 4.80005V9.60005V19.2C23.7 21.7 21.7 23.7 19.2 23.7H4.80005C2.30005 23.7 0.300049 21.7 0.300049 19.2V9.60005V4.80005C0.300049 2.30005 2.30005 0.300049 4.80005 0.300049ZM21 3.00005H20.5H17V7.00005H21V3.50005V3.00005ZM8.70005 9.60005C9.40005 8.60005 10.7 7.90005 12 7.90005C13.3 7.90005 14.6 8.60005 15.3 9.60005C15.8 10.3 16.1 11.1 16.1 12C16.1 14.3 14.2 16.1 12 16.1C9.80005 16.1 7.90005 14.3 7.90005 12C7.90005 11.1 8.20005 10.3 8.70005 9.60005ZM19.2 21.4C20.4 21.4 21.4 20.4 21.4 19.2001V9.60005H17.9C18.2 10.3 18.4 11.2 18.4 12C18.4 15.5 15.5 18.4 12 18.4C8.50005 18.4 5.60005 15.5 5.60005 12C5.60005 11.2 5.80005 10.3 6.10005 9.60005H2.60005V19.2001C2.60005 20.4 3.60005 21.4 4.80005 21.4H19.2Z"/>
  </symbol>

  <symbol viewBox="0 0 25 15" id="vk">
    <path clip-rule="evenodd" d="M20.726 7.163S24.014 2.525 24.34 1c.11-.544-.13-.849-.696-.849h-2.852c-.654 0-.893.283-1.089.697 0 0-1.542 3.286-3.418 5.356-.602.67-.909.87-1.241.87-.268 0-.392-.223-.392-.827V.958c0-.74-.087-.958-.696-.958H9.384c-.349 0-.567.203-.567.479 0 .697 1.067.854 1.067 2.743V7.12c0 .784-.043 1.089-.413 1.089-.98 0-3.31-3.375-4.616-7.207C4.594.218 4.311 0 3.571 0H.719C.305 0 0 .283 0 .697c0 .762.893 4.289 4.398 9.013 2.351 3.179 5.443 4.898 8.23 4.898 1.698 0 2.111-.282 2.111-1.001v-2.438c0-.61.24-.871.588-.871.392 0 1.084.126 2.7 1.72 1.916 1.829 2.046 2.59 3.091 2.59h3.2c.327 0 .632-.152.632-.696 0-.719-.936-2.003-2.373-3.527-.588-.784-1.546-1.633-1.85-2.025-.436-.457-.305-.718 0-1.197z"></path>
  </symbol>

  <symbol viewBox="0 -77 512.002 512" id="youtube">
    <path d="M501.453 56.094c-5.902-21.934-23.195-39.223-45.125-45.13C416.262 0 255.996 0 255.996 0S95.734 0 55.668 10.547C34.16 16.449 16.445 34.164 10.543 56.094 0 96.156 0 179.242 0 179.242s0 83.504 10.543 123.149c5.906 21.93 23.195 39.222 45.129 45.129C96.156 358.484 256 358.484 256 358.484s160.262 0 200.328-10.546c21.934-5.903 39.223-23.196 45.129-45.125C512 262.745 512 179.663 512 179.663s.422-83.508-10.547-123.57zm0 0"></path>
    <path d="M204.969 256l133.27-76.758-133.27-76.758zm0 0" fill="#fff"></path>
  </symbol>

  <symbol viewBox="0 0 19.738 19.738" id="user">
    <path d="M18.18 19.738h-2c0-3.374-2.83-6.118-6.311-6.118s-6.31 2.745-6.31 6.118h-2c0-4.478 3.729-8.118 8.311-8.118 4.581 0 8.31 3.64 8.31 8.118zM9.87 10.97a5.492 5.492 0 01-5.484-5.485A5.49 5.49 0 019.87 0c3.025 0 5.486 2.46 5.486 5.485S12.895 10.97 9.87 10.97zm0-8.97C7.948 2 6.385 3.563 6.385 5.485S7.948 8.97 9.87 8.97c1.923 0 3.486-1.563 3.486-3.485S11.791 2 9.87 2z"></path>
  </symbol>

  <symbol viewBox="0 0 284.929 284.929" id="angle-arrow-down">
    <path d="M282.082 76.511l-14.274-14.273c-1.902-1.906-4.093-2.856-6.57-2.856-2.471 0-4.661.95-6.563 2.856L142.466 174.441 30.262 62.241c-1.903-1.906-4.093-2.856-6.567-2.856-2.475 0-4.665.95-6.567 2.856L2.856 76.515C.95 78.417 0 80.607 0 83.082c0 2.473.953 4.663 2.856 6.565l133.043 133.046c1.902 1.903 4.093 2.854 6.567 2.854s4.661-.951 6.562-2.854L282.082 89.647c1.902-1.903 2.847-4.093 2.847-6.565 0-2.475-.945-4.665-2.847-6.571z"></path>
  </symbol>
  
  <symbol fill="none" viewBox="0 0 22 20" id="camera">
    <path clip-rule="evenodd" d="M20.167 15.833c0 .92-.747 1.667-1.667 1.667h-15c-.92 0-1.667-.746-1.667-1.667V6.667C1.833 5.747 2.58 5 3.5 5h3.333L8.5 2.5h5L15.167 5H18.5c.92 0 1.667.746 1.667 1.667v9.166z" stroke-width="2" stroke-linecap="round" stroke-linejoin="round"></path>
    <path clip-rule="evenodd" d="M11 14.167A3.333 3.333 0 1011 7.5a3.333 3.333 0 000 6.667z" stroke-width="2" stroke-linecap="round" stroke-linejoin="round"></path>
  </symbol>

  <symbol viewBox="0 0 405.272 405.272" id="check">
    <path d="M393.401 124.425L179.603 338.208c-15.832 15.835-41.514 15.835-57.361 0L11.878 227.836c-15.838-15.835-15.838-41.52 0-57.358 15.841-15.841 41.521-15.841 57.355-.006l81.698 81.699L336.037 67.064c15.841-15.841 41.523-15.829 57.358 0 15.835 15.838 15.835 41.514.006 57.361z"></path>
  </symbol>

  <symbol viewBox="0 0 20 16" id="arrow-left">
    <path d="M18 8H2m6 6L2 8l6-6" stroke-width="2" stroke-linecap="round" stroke-linejoin="round"></path>
  </symbol>

  <symbol viewBox="0 0 24 24" id="map-pin">
    <path clip-rule="evenodd" d="M21 10c0 7-9 13-9 13s-9-6-9-13a9 9 0 0118 0v0z" stroke-width="2" stroke-linecap="round" stroke-linejoin="round"></path>
    <path clip-rule="evenodd" d="M12 13a3 3 0 100-6 3 3 0 000 6z" stroke-width="2" stroke-linecap="round" stroke-linejoin="round"></path>
  </symbol>

  <symbol viewBox="0 0 24 24" id="play-circle">
    <path clip-rule="evenodd" d="M12 22c5.523 0 10-4.477 10-10S17.523 2 12 2 2 6.477 2 12s4.477 10 10 10z" stroke-width="2" stroke-linecap="round" stroke-linejoin="round"></path>
    <path clip-rule="evenodd" d="M10 8l6 4-6 4V8z" stroke-width="2" stroke-linecap="round" stroke-linejoin="round"></path>
  </symbol>

  <symbol viewBox="0 0 238 32" id="logo">
    <path fill-rule="evenodd" clip-rule="evenodd" d="M21.038.98c-.71-.24-1.423-.48-2.14-.706-.09-.026-.18-.06-.274-.095-.275-.102-.577-.214-.96-.17l.101.136c.038.052.064.088.09.114l.173.183a497.638 497.638 0 003.795 3.986c.1.098.175.22.22.353a.836.836 0 01.03.427c-.03.4-.02.801-.01 1.21.005.208.01.418.01.631.244-.077.48-.157.714-.236a24.88 24.88 0 011.005-.324l.037-.011c.179-.056.36-.113.58.011.617.332 1.238.66 1.859.987.62.328 1.242.656 1.859.987l.636.317c.403.2.811.403 1.245.626l-.009-.099a.48.48 0 00-.02-.137c-.383-.569-.763-1.137-1.143-1.705-.889-1.33-1.777-2.659-2.693-3.98-.032-.045-.063-.092-.094-.138-.347-.516-.692-1.029-1.434-1.232-1.204-.34-2.39-.739-3.576-1.137zM9.684 4.486a34.372 34.372 0 001.985-1.9A55.118 55.118 0 0013.28.913c.226-.241.457-.488.697-.741a1055.29 1055.29 0 01-7.92 2.312.63.63 0 00-.338.31L5.566 3C4.544 4.405 3.522 5.81 2.498 7.227c-.095.128-.193.256-.29.383-.35.459-.7.918-.988 1.414.133.077.2.038.261.001a887.638 887.638 0 011.782-.846c1.16-.548 2.322-1.097 3.483-1.659a.864.864 0 01.382-.103.69.69 0 01.382.074c.374.15.749.288 1.143.433.224.083.454.168.694.259 0-.174 0-.342.002-.506.002-.474.005-.912-.017-1.35 0-.163.015-.324.073-.456.068-.145.162-.275.28-.384zm4.732 23.698a.998.998 0 01-.352.117c-1.12.166-2.235.326-3.354.487-.877.127-1.756.253-2.641.383.06.192.18.227.285.258.023.007.046.013.067.021.737.268 1.478.531 2.219.794 1.416.503 2.833 1.007 4.232 1.548a2.64 2.64 0 002.013.015c.696-.271 1.415-.49 2.134-.71.298-.091.597-.182.893-.277a214.95 214.95 0 002.027-.66c.532-.174 1.072-.352 1.633-.533a1.294 1.294 0 00-.25-.118c-.428-.085-.854-.179-1.282-.273-.985-.217-1.971-.434-2.965-.537-1.396-.132-2.41-.663-2.984-1.959-.146-.324-.322-.31-.528-.029-.162.23-.329.461-.498.694-.122.17-.246.34-.37.514a.965.965 0 01-.279.265zM1.448 22.752c.678.95 1.352 1.896 2.05 2.826.125.168.244.34.363.514.299.436.602.878 1.033 1.268a203.12 203.12 0 01-.166-1.324c-.165-1.34-.325-2.646-.569-3.934-.162-.928.03-1.65.706-2.283a1.51 1.51 0 00.174-.227c.048-.07.095-.14.149-.2.294-.28.25-.442-.147-.56a17.531 17.531 0 01-.625-.206c-.276-.095-.553-.19-.83-.265a.507.507 0 01-.235-.118c-.058-.059-.117-.117-.146-.206a608.41 608.41 0 00-2.176-4.375 9.676 9.676 0 01-.117-.257c-.141-.318-.288-.647-.588-.994-.03.911-.058 1.8-.085 2.677-.04 1.248-.077 2.471-.12 3.7-.005.157 0 .314.003.471.01.402.02.802-.107 1.193-.058.221.06.398.206.59.414.568.821 1.14 1.227 1.71zm27.693-10.695c.161-.309.073-.441-.22-.589a131.186 131.186 0 01-4.056-2.12 1.571 1.571 0 00-.632-.192c-.22-.015-.441.03-.647.118-.964.358-1.944.692-2.94 1.032l-1.071.367V6.166c0-.25 0-.485-.22-.707a172.825 172.825 0 01-3.264-3.328c-.293-.31-.485-.294-.778 0-.234.234-.466.471-.698.709-.702.717-1.406 1.436-2.168 2.09-.587.515-.852 1.03-.837 1.826.006.499.035.995.064 1.494.044.753.089 1.51.053 2.29-1.454-.47-2.85-.927-4.261-1.399-.25-.074-.47-.132-.72 0a194.716 194.716 0 01-4.306 2.151c-.323.161-.352.294-.19.618a231.4 231.4 0 012.1 4.272 1.2 1.2 0 00.25.353.995.995 0 00.397.191c.83.245 1.653.506 2.488.77.57.18 1.145.362 1.73.54-.219.302-.434.602-.648.9a76.15 76.15 0 01-1.792 2.43 1.397 1.397 0 00-.265 1.163l.027.148c.24 1.364.48 2.714.635 4.079.059.56.264.634.705.56l1.34-.206c1.105-.17 2.205-.34 3.304-.487a.907.907 0 00.353-.117.906.906 0 00.264-.265 528.263 528.263 0 012.252-3.23l.275-.393.63.857c.675.915 1.332 1.807 1.972 2.707.07.114.165.21.279.28a.94.94 0 00.382.147c1.601.235 3.174.471 4.761.766.338.073.353-.015.396-.28.263-1.576.539-3.165.815-4.756l.008-.046a1.28 1.28 0 00-.014-.47 1.343 1.343 0 00-.206-.413c-.313-.406-.618-.815-.922-1.221-.424-.568-.845-1.132-1.282-1.68-.25-.324-.25-.428.162-.546 1.234-.368 2.453-.78 3.673-1.193l.081-.026c.196-.061.39-.122.492-.342.28-.538.558-1.079.835-1.62.467-.91.935-1.82 1.414-2.725zm-7.421 5.391c.117.353.044.515-.25.721l-.1.072a361.848 361.848 0 00-5.293 3.846c-.279.206-.47.236-.78 0a298.276 298.276 0 00-5.583-4.05c-.206-.148-.235-.25-.147-.486.607-1.825 1.192-3.66 1.774-5.488l.283-.889c.088-.28.22-.398.544-.398 1.176.015 2.351.015 3.527.015.282 0 .565 0 .847.002.834.003 1.668.005 2.503-.017.382-.015.573.088.69.472a432.44 432.44 0 001.985 6.2zm-5.617-4.299a55.494 55.494 0 00-.408-.002l.015-.015c-.202 0-.403.004-.604.007-.4.007-.798.013-1.19-.007-.308 0-.47.09-.557.398a299.54 299.54 0 01-1.088 3.373c-.088.236-.073.383.162.545 1.01.7 2.01 1.417 2.997 2.15.191.132.324.162.515.015.97-.722 1.954-1.429 2.939-2.136.279-.19.308-.382.19-.692a78.849 78.849 0 01-1.028-3.152c-.118-.412-.324-.53-.735-.5-.396.022-.8.02-1.208.016zm15.212 1.633v-2.017l-.146-.016a543.8 543.8 0 01-.947 1.753c-.614 1.135-1.229 2.27-1.83 3.417a1.485 1.485 0 01-.325.413 1.204 1.204 0 01-.47.206c-.426.099-.845.222-1.287.352l-.46.134c.174.24.34.472.503.699.207.288.407.568.613.847l.024.036c.11.165.224.333.197.554-.1.553-.2 1.109-.303 1.667-.125.69-.252 1.381-.374 2.073-.064.385-.124.774-.186 1.172-.067.425-.135.861-.21 1.318.073-.045.147-.104.22-.162l1.27-1.646c1.102-1.43 2.204-2.86 3.33-4.275.26-.319.397-.722.381-1.134-.01-1.198-.006-2.396-.003-3.594l.003-1.797zm25.358-4.158c0 3.256-2.562 5.622-6.06 5.622-3.498 0-6.06-2.366-6.06-5.622s2.562-5.622 6.06-5.622c3.498 0 6.06 2.366 6.06 5.622zm-8.468 0c0 1.674 1.074 2.688 2.408 2.688 1.335 0 2.41-1.014 2.41-2.688 0-1.674-1.075-2.688-2.41-2.688-1.334 0-2.408 1.014-2.408 2.688zm21.197-5.376h2.977L72.409 16h-3.298l-.031-4.9-2.332 3.932h-1.596L62.82 11.27V16h-3.298V5.248h2.976l3.498 5.73 3.406-5.73zM83.733 16h3.744L82.782 5.248h-3.56L74.529 16h3.682l.721-1.874h4.081l.72 1.874zm-3.805-4.485l1.044-2.704 1.043 2.704h-2.087zM100.834 16h-4.188l-2.685-3.563-.813.906V16h-3.56V5.248h3.56v3.901l3.529-3.901h3.943l-4.296 4.73 4.51 6.022zm7.01.246c3.298 0 5.231-1.859 5.231-5.084V5.248h-3.559v5.806c0 1.644-.629 2.258-1.641 2.258-1.013 0-1.642-.614-1.642-2.258V5.248h-3.621v5.914c0 3.225 1.933 5.084 5.232 5.084zM124.738 16h-8.469V5.248h3.621v7.941h4.848V16zm15.391-10.752h-2.976l-3.406 5.73-3.498-5.73h-2.977V16h3.299v-4.73l2.332 3.762h1.596l2.332-3.932.03 4.9h3.299l-.031-10.752zM155.227 16h-3.743l-.721-1.874h-4.081L145.961 16h-3.682l4.694-10.752h3.56L155.227 16zm-6.505-7.188l-1.043 2.703h2.086l-1.043-2.704zm7.969 4.055h4.602v-2.612h-4.602v2.611zM175.705 16h-3.743l-.721-1.874h-4.081L166.439 16h-3.682l4.694-10.752h3.56L175.705 16zM169.2 8.812l-1.043 2.703h2.086L169.2 8.81zm15.675-3.564v4.885l-4.081-4.885h-2.977V16h3.529v-4.884L185.427 16h2.976V5.248h-3.528zm13.864 4.885V5.248h3.529V16h-2.976l-4.081-4.884V16h-3.529V5.248h2.976l4.081 4.885zM205.547 16h3.62V5.248h-3.62V16zm13.955-5.867V5.248h3.529V16h-2.977l-4.081-4.884V16h-3.528V5.248h2.976l4.081 4.885zm12.438 6.113c3.498 0 6.06-2.366 6.06-5.622s-2.562-5.622-6.06-5.622c-3.498 0-6.06 2.366-6.06 5.622s2.562 5.622 6.06 5.622zm0-2.934c-1.335 0-2.409-1.014-2.409-2.688 0-1.674 1.074-2.688 2.409-2.688 1.335 0 2.409 1.014 2.409 2.688 0 1.674-1.074 2.688-2.409 2.688zM73.84 23.415c.797 0 1.325-.412 1.343-1.165h-.456c-.018.475-.376.77-.886.77s-.868-.295-.877-.77h-.457c.018.753.537 1.165 1.334 1.165zM71.703 28.8h.573l3.132-3.745V28.8h.635v-4.713h-.564l-3.14 3.745v-3.745h-.636V28.8zm-1.806-2.357c0 1.398-1.011 2.402-2.39 2.402-1.377 0-2.398-1.004-2.398-2.401 0-1.398 1.02-2.393 2.399-2.393 1.378 0 2.39.995 2.39 2.393zm-4.143 0c0 1.103.751 1.837 1.754 1.837 1.002 0 1.745-.734 1.745-1.837 0-1.102-.743-1.836-1.745-1.836-1.003 0-1.754.734-1.754 1.837zM51.349 28.8h-.761l-1.45-2.097h-1.02V28.8h-.636v-2.097h-1.02l-1.44 2.097h-.761l1.691-2.428-1.557-2.285h.689l1.378 2.07h1.02v-2.07h.636v2.07h1.02l1.387-2.07h.69l-1.558 2.294L51.35 28.8zm2.077 0h-.572v-4.713h.635v3.745l3.141-3.745h.564V28.8h-.635v-3.745L53.426 28.8zm6.44-4.713l-.081 1.684c-.063 1.246-.134 2.51-.913 2.51a1.15 1.15 0 01-.224-.037l-.045.547c.17.045.314.072.457.072 1.011 0 1.217-1.398 1.298-3.047l.062-1.165h2.255V28.8h.636v-4.713h-3.446zM85.297 28.8h-.752l-1.736-2.097h-1.074V28.8H81.1v-4.713h.636v2.07h1.083l1.656-2.07h.689l-1.853 2.285 1.987 2.428zm3.226.045c1.378 0 2.39-1.004 2.39-2.401 0-1.398-1.012-2.393-2.39-2.393-1.378 0-2.398.995-2.398 2.393 0 1.397 1.02 2.4 2.398 2.4zm0-.565c-1.002 0-1.754-.734-1.754-1.837 0-1.102.752-1.836 1.754-1.836s1.745.734 1.745 1.837c0 1.102-.743 1.836-1.745 1.836zm6.835-.797l2.032-3.396h.59V28.8h-.58v-3.727l-1.907 3.154h-.286l-1.906-3.163V28.8h-.582v-4.713h.645l1.995 3.396zm9.102-3.396h-4.224V28.8h.636v-4.149h2.953V28.8h.635v-4.713zm2.576 1.684l.081-1.684h3.445V28.8h-.635v-4.149h-2.255l-.063 1.165c-.081 1.649-.286 3.047-1.298 3.047-.143 0-.286-.027-.456-.072l.045-.547c.08.018.161.036.223.036.779 0 .851-1.263.913-2.509zm9.906.672c0-1.415-.958-2.392-2.282-2.392-1.325 0-2.3.995-2.3 2.393 0 1.397 1.002 2.4 2.47 2.4.743 0 1.396-.268 1.816-.77l-.357-.412c-.358.412-.869.618-1.441.618-1.03 0-1.781-.654-1.853-1.64h3.938l.002-.059c0-.018.002-.036.003-.053.002-.03.004-.06.004-.084zm-2.282-1.845c.921 0 1.593.645 1.673 1.568h-3.338c.081-.923.752-1.568 1.665-1.568zm8.333 4.202h-.752l-1.736-2.097h-1.074V28.8h-.635v-4.713h.635v2.07h1.083l1.656-2.07h.689l-1.853 2.285 1.987 2.428zm3.253.045c.797 0 1.468-.323 1.844-.932l-.474-.323c-.323.475-.824.69-1.37.69-1.029 0-1.781-.725-1.781-1.837 0-1.102.752-1.836 1.781-1.836.546 0 1.047.224 1.37.699l.474-.323c-.376-.618-1.047-.932-1.844-.932-1.405 0-2.425.986-2.425 2.393 0 1.406 1.02 2.4 2.425 2.4z"></path>
  </symbol>

  <symbol viewBox="0 0 20 20" id="message">
    <path clip-rule="evenodd" d="M18.1 9.55a7.541 7.541 0 01-.81 3.42 7.65 7.65 0 01-6.84 4.23 7.542 7.542 0 01-3.42-.81L1.9 18.1l1.71-5.13a7.542 7.542 0 01-.81-3.42 7.65 7.65 0 014.23-6.84 7.542 7.542 0 013.42-.81h.45a7.632 7.632 0 017.2 7.2v.45z" stroke-width="2" stroke-linecap="round" stroke-linejoin="round"></path>
  </symbol>

  <symbol viewBox="0 0 19 18" id="phone">
    <path clip-rule="evenodd" d="M16.75 12.69v2.25a1.5 1.5 0 01-1.635 1.5 14.843 14.843 0 01-6.472-2.303 14.625 14.625 0 01-4.5-4.5A14.842 14.842 0 011.84 3.135 1.5 1.5 0 013.333 1.5h2.25a1.5 1.5 0 011.5 1.29 9.63 9.63 0 00.525 2.107A1.5 1.5 0 017.27 6.48l-.952.952a12 12 0 004.5 4.5l.952-.952a1.5 1.5 0 011.582-.338c.681.254 1.388.43 2.108.526a1.5 1.5 0 011.29 1.522z" stroke-width="2" stroke-linecap="round" stroke-linejoin="round"></path>
  </symbol>

  <symbol viewBox="0 0 24 24" id="telegram">
    <path d="M.415 11.196l5.869 2.925a.752.752 0 00.712-.023l5.224-3.037-3.162 2.802a.751.751 0 00-.253.562v6.825c0 .72.919 1.023 1.35.451l2.537-3.373 6.274 3.573a.75.75 0 001.106-.504l3.913-19.5a.75.75 0 00-1.008-.846L.477 9.826a.75.75 0 00-.062 1.37zm21.83-8.249l-3.439 17.137-5.945-3.386a.752.752 0 00-.971.201l-1.585 2.107v-4.244l8.551-7.576c.677-.599-.101-1.664-.874-1.21l-11.39 6.622L2.6 10.609z"></path>
  </symbol>
  

  <symbol viewBox="-23 -21 682 682.667" id="whatsapp">
    <path d="M544.387 93.008C484.512 33.063 404.883.035 320.05 0 145.246 0 2.98 142.262 2.91 317.113c-.024 55.895 14.577 110.457 42.331 158.551L.25 640l168.121-44.102c46.324 25.27 98.477 38.586 151.55 38.602h.134c174.785 0 317.066-142.273 317.132-317.133.036-84.742-32.921-164.418-92.8-224.36zM320.05 580.94h-.11c-47.296-.02-93.683-12.73-134.16-36.742l-9.62-5.715-99.766 26.172 26.628-97.27-6.27-9.972c-26.386-41.969-40.32-90.476-40.296-140.281.055-145.332 118.305-263.57 263.7-263.57 70.406.023 136.59 27.476 186.355 77.3s77.156 116.051 77.133 186.485C583.582 462.69 465.34 580.94 320.05 580.94zm144.586-197.418c-7.922-3.968-46.883-23.132-54.149-25.78-7.258-2.645-12.547-3.962-17.824 3.968-5.285 7.93-20.469 25.781-25.094 31.066-4.625 5.29-9.242 5.953-17.168 1.985-7.925-3.965-33.457-12.336-63.726-39.332-23.555-21.012-39.457-46.961-44.082-54.89-4.617-7.938-.04-11.813 3.476-16.173 8.578-10.652 17.168-21.82 19.809-27.105 2.644-5.29 1.32-9.918-.664-13.883-1.977-3.965-17.824-42.969-24.426-58.84-6.437-15.445-12.965-13.36-17.832-13.601-4.617-.231-9.902-.278-15.187-.278-5.282 0-13.868 1.98-21.133 9.918-7.262 7.934-27.73 27.102-27.73 66.106s28.394 76.683 32.355 81.972c3.96 5.29 55.879 85.328 135.367 119.649 18.906 8.172 33.664 13.043 45.176 16.695 18.984 6.031 36.254 5.18 49.91 3.14 15.226-2.277 46.879-19.171 53.488-37.68 6.602-18.51 6.602-34.374 4.617-37.683-1.976-3.304-7.261-5.285-15.183-9.254zm0 0" fill-rule="evenodd"></path>
  </symbol>

  <symbol viewBox="0 0 512 512" id="zoom">
    <path d="M289.8 200.2h-49.3v-49.3c0-11.3-9.1-20.4-20.4-20.4-11.3 0-20.4 9.1-20.4 20.4v49.3h-49.3c-11.3 0-20.4 9.1-20.4 20.4 0 11.3 9.1 20.4 20.4 20.4h49.3v49.3c0 11.3 9.1 20.4 20.4 20.4 11.3 0 20.4-9.1 20.4-20.4V241h49.3c11.3 0 20.4-9.1 20.4-20.4 0-11.3-9.2-20.4-20.4-20.4z"></path>
    <path d="M220.2 388.7C127.3 388.7 52 313.5 52 220.6S127.3 52.5 220.2 52.5s168.1 75.3 168.1 168.1S313 388.7 220.2 388.7zm274.8 78L381.7 353.4c29.7-36.1 47.6-82.4 47.6-132.8 0-115.5-93.6-209.2-209.2-209.2S11 105.1 11 220.6s93.6 209.2 209.2 209.2c50.4 0 96.6-17.8 132.7-47.5l113.3 113.3c5.2 5.3 21.1 7.9 28.9 0 7.9-8 7.9-20.9-.1-28.9z"></path>
  </symbol>

  <symbol viewBox="0 0 490.651 490.651" id="swipe">
    <path d="M437.328 42.651h-128c-5.888 0-10.667 4.779-10.667 10.667s4.779 10.667 10.667 10.667h128c5.888 0 10.667-4.779 10.667-10.667s-4.779-10.667-10.667-10.667z"></path>
    <path d="M444.88 45.787L402.213 3.12c-4.16-4.16-10.923-4.16-15.083 0s-4.16 10.923 0 15.083l35.115 35.115-35.136 35.136c-4.16 4.16-4.16 10.923 0 15.083a10.716 10.716 0 0015.104 0L444.88 60.87c4.16-4.161 4.16-10.923 0-15.083zm-284.885-3.136h-128c-5.888 0-10.667 4.779-10.667 10.667s4.779 10.667 10.667 10.667h128c5.888 0 10.667-4.779 10.667-10.667s-4.779-10.667-10.667-10.667z"></path>
    <path d="M47.077 53.317l35.115-35.115c4.16-4.16 4.16-10.923 0-15.083s-10.923-4.16-15.083 0L24.443 45.787c-4.16 4.16-4.16 10.923 0 15.083l42.667 42.667a10.716 10.716 0 007.552 3.115c2.731 0 5.461-1.045 7.531-3.136 4.16-4.16 4.16-10.923 0-15.083L47.077 53.317zm379.584 160a42.524 42.524 0 00-23.723 7.211c-5.845-16.597-21.696-28.544-40.277-28.544a42.524 42.524 0 00-23.723 7.211c-5.845-16.597-21.696-28.544-40.277-28.544a42.321 42.321 0 00-21.333 5.739v-69.739c0-23.531-19.136-42.667-42.667-42.667-23.531 0-42.667 19.136-42.667 42.667v181.333l-37.077-27.797c-21.973-16.491-53.248-14.293-72.725 5.163-12.48 12.48-12.48 32.768 0 45.248l151.915 151.936c18.133 18.133 42.261 28.117 67.904 28.117h49.984c64.683 0 117.333-52.629 117.333-117.333V255.984c0-23.531-19.136-42.667-42.667-42.667zm21.334 160c0 52.928-43.072 96-96 96h-49.984c-19.968 0-38.72-7.765-52.821-21.867L97.275 295.515c-4.16-4.16-4.16-10.923 0-15.083 6.613-6.592 15.445-9.984 24.32-9.984 7.211 0 14.464 2.24 20.544 6.805l54.123 40.597a10.704 10.704 0 0011.179 1.003 10.684 10.684 0 005.888-9.536V106.651c0-11.755 9.557-21.333 21.333-21.333s21.333 9.579 21.333 21.333v160c0 5.888 4.779 10.667 10.667 10.667s10.667-4.779 10.667-10.667v-53.333c0-11.755 9.557-21.333 21.333-21.333s21.333 9.579 21.333 21.333v53.333c0 5.888 4.779 10.667 10.667 10.667s10.667-4.779 10.667-10.667v-32c0-11.755 9.557-21.333 21.333-21.333s21.333 9.579 21.333 21.333v32c0 5.888 4.779 10.667 10.667 10.667s10.667-4.779 10.667-10.667v-10.667c0-11.755 9.557-21.333 21.333-21.333s21.333 9.579 21.333 21.333v117.333z"></path>
  </symbol>

  <symbol viewBox="0 0 16 16" id="layout">
    <path clip-rule="evenodd" d="M2 4a2 2 0 012-2h8a2 2 0 012 2v8a2 2 0 01-2 2H4a2 2 0 01-2-2V4z" stroke-width="2" stroke-linecap="round" stroke-linejoin="round"></path>
    <path d="M2 6h12m-8 8V6" stroke-width="2" stroke-linecap="round" stroke-linejoin="round"></path>
  </symbol>

  <symbol viewBox="0 0 18 18" id="snowflake">
    <path d="M15.592 10.463l-1.747.465-1.5-.848V7.92l1.5-.848 1.747.465.39-1.447-1.327-.353L15 4.41l-1.448-.39-.465 1.748-1.5.847-1.837-1.08V3.84l1.282-1.282L9.967 1.5 9 2.467 8.032 1.5 6.967 2.558 8.25 3.84v1.695l-1.875 1.08-1.5-.848L4.44 4.02 3 4.41l.352 1.327-1.327.353.39 1.447 1.747-.465 1.5.848v2.168l-1.5.847-1.747-.465-.39 1.447 1.327.353L3 13.59l1.447.39.465-1.748 1.5-.847 1.838 1.08v1.695l-1.283 1.283L8.032 16.5 9 15.533l.967.967 1.058-1.057L9.75 14.16v-1.695l1.875-1.088 1.5.848.465 1.748L15 13.59l-.353-1.328 1.328-.352-.383-1.447zM7.125 7.92L9 6.832l1.875 1.088v2.16L9 11.168 7.125 10.08V7.92z"></path>
  </symbol>
  <symbol viewBox="0 0 20 20" id="sun">
    <path clip-rule="evenodd" d="M10 13.75a3.75 3.75 0 100-7.5 3.75 3.75 0 000 7.5z" stroke-width="2" stroke-linecap="round" stroke-linejoin="round"></path>
    <path d="M10 1.75v1.5m0 13.5v1.5M4.165 4.165L5.23 5.23m9.54 9.54l1.065 1.065M1.75 10h1.5m13.5 0h1.5M4.165 15.835l1.065-1.066m9.54-9.539l1.065-1.065" stroke-width="2" stroke-linecap="round" stroke-linejoin="round"></path>
  </symbol>

  <symbol viewBox="0 0 20 20" id="house">
    <path stroke="none" fill="#f2bb54" d="M19.374 8.593l-.425-.333.002-.003-8.797-6.914V1.34l-.002.002-.001-.002v.003L1.354 8.257l.002.003-.424.333-.28.22v1.658H2.2v8.894h15.906v-8.893h1.547V8.813zm-3.312 8.729H4.243V8.59l5.91-4.644 5.909 4.644z"></path>
  </symbol>
</svg>