<svg width="55" height="40" viewBox="0 0 55 40" fill="none" xmlns="http://www.w3.org/2000/svg">
<path d="M29.6979 40C25.2242 40 21.5977 36.4183 21.5977 32C21.5977 27.5817 25.2242 24 29.6979 24C34.1715 24 37.7981 27.5817 37.7981 32C37.7981 36.4183 34.1715 40 29.6979 40ZM29.6979 37.3333C32.6803 37.3333 35.098 34.9455 35.098 32C35.098 29.0545 32.6803 26.6667 29.6979 26.6667C26.7154 26.6667 24.2977 29.0545 24.2977 32C24.2977 34.9455 26.7154 37.3333 29.6979 37.3333Z" fill="#CB2B2E"/>
<path d="M5.40013 40C2.41772 40 0 37.6122 0 34.6667C0 31.7212 2.41772 29.3334 5.40013 29.3334C8.38254 29.3334 10.8003 31.7212 10.8003 34.6667C10.8003 37.6122 8.38254 40 5.40013 40ZM5.40013 37.3334C6.89134 37.3334 8.1002 36.1395 8.1002 34.6667C8.1002 33.1939 6.89134 32 5.40013 32C3.90893 32 2.70007 33.1939 2.70007 34.6667C2.70007 36.1395 3.90893 37.3334 5.40013 37.3334Z" fill="#CB2B2E"/>
<path d="M40.5008 32H52.6511C53.3967 32 54.0012 32.597 54.0012 33.3333C54.0012 34.0697 53.3967 34.6667 52.6511 34.6667H39.1508C38.4052 34.6667 37.8008 34.0697 37.8008 33.3333V1.33333C37.8008 0.596954 38.4052 0 39.1508 0C39.8964 0 40.5008 0.596954 40.5008 1.33333V32Z" fill="#CB2B2E"/>
<path d="M9.4516 37.3332C8.70599 37.3332 8.10156 36.7362 8.10156 35.9998C8.10156 35.2635 8.70599 34.6665 9.4516 34.6665H24.302C25.0476 34.6665 25.652 35.2635 25.652 35.9998C25.652 36.7362 25.0476 37.3332 24.302 37.3332H9.4516Z" fill="#CB2B2E"/>
<path d="M7.80762 21.3332L5.3632 30.9899C5.18237 31.7043 4.44939 32.1386 3.72605 31.96C3.00271 31.7814 2.56292 31.0575 2.74375 30.3431L5.44382 19.6765C5.59407 19.0829 6.13406 18.6665 6.75354 18.6665H14.8537C15.4348 18.6665 15.9507 19.0337 16.1345 19.5782L18.5269 26.6665H24.304C25.0496 26.6665 25.654 27.2635 25.654 27.9998C25.654 28.7362 25.0496 29.3332 24.304 29.3332H17.5538C16.9727 29.3332 16.4568 28.9659 16.2731 28.4215L13.8807 21.3332H7.80762Z" fill="#CB2B2E"/>
<path d="M16.0219 2.66667L13.4874 20.1886C13.382 20.9175 12.6982 21.4241 11.9601 21.3199C11.222 21.2158 10.7091 20.5404 10.8145 19.8114L13.5146 1.14477C13.6096 0.487907 14.1792 0 14.8511 0H28.3514C29.0113 0 29.5746 0.471217 29.683 1.11413L33.7331 25.1141C33.8557 25.8405 33.3589 26.5275 32.6234 26.6485C31.888 26.7696 31.1924 26.2789 31.0698 25.5525L27.2077 2.66667H16.0219Z" fill="#CB2B2E"/>
<path d="M29.3031 24.3906L27.3939 26.2762L23.3438 22.2762L25.253 20.3906L29.3031 24.3906Z" fill="#CB2B2E"/>
<path d="M23.9023 23.6093C23.3751 24.13 22.5203 24.13 21.9931 23.6093C21.4659 23.0886 21.4659 22.2444 21.9931 21.7237L24.6931 19.057C25.2204 18.5363 26.0752 18.5363 26.6024 19.057C27.1296 19.5777 27.1296 20.4219 26.6024 20.9426L23.9023 23.6093Z" fill="#CB2B2E"/>
</svg>
