<svg width="40" height="40" viewBox="0 0 40 40" fill="none" xmlns="http://www.w3.org/2000/svg">
<path d="M38.9476 0H1.0524C0.472 0 0 0.4716 0 1.0524V38.9476C0 39.5284 0.472 40 1.0524 40H38.9476C39.5288 40 40 39.5284 40 38.9476V1.0524C40 0.4716 39.5288 0 38.9476 0ZM11.1056 37.8944V9.1284H18.9476V37.8944H11.1056ZM21.0524 37.8944V9.1284H28.8948V37.8944H21.0524ZM37.8944 37.8944H31V8.0752C31 7.4944 30.5284 7.0228 29.9476 7.0228H10.0532C9.472 7.0228 9.0004 7.4944 9.0004 8.0752V37.8944H2.1052V2.1056H37.8948V37.8944H37.8944Z" fill="#CB2B2E"/>
<path d="M32.7905 22.6536H36.1061C36.1077 22.6536 36.1097 22.6536 36.1113 22.6536C36.4745 22.6536 36.7697 22.3596 36.7697 21.9956C36.7697 21.7884 36.6745 21.604 36.5245 21.4836L34.9141 19.8736C34.6565 19.616 34.2401 19.616 33.9833 19.8736L32.3253 21.5312C32.1373 21.7192 32.0809 22.0016 32.1833 22.2472C32.2841 22.4932 32.5241 22.6536 32.7905 22.6536Z" fill="#CB2B2E"/>
<path d="M33.9836 27.1508C34.1072 27.274 34.2748 27.3432 34.4496 27.3432C34.624 27.3432 34.7908 27.2736 34.9144 27.1508L36.5724 25.4924C36.7604 25.3044 36.8172 25.022 36.7152 24.7752C36.6136 24.53 36.3728 24.3696 36.1068 24.3696H32.7912C32.5248 24.3696 32.2848 24.5296 32.1832 24.7752C32.0808 25.022 32.1376 25.3044 32.3252 25.4924L33.9836 27.1508Z" fill="#CB2B2E"/>
</svg>
