<svg width="52" height="40" viewBox="0 0 52 40" fill="none" xmlns="http://www.w3.org/2000/svg">
<path d="M45.6402 3.41468H37.7421C37.5856 3.41469 37.4307 3.44571 37.2863 3.50594C37.1418 3.56618 37.0106 3.65444 36.9003 3.76567L23.0318 17.7552V15.4645C23.0384 14.7775 22.9092 14.0959 22.6515 13.4593C22.3938 12.8226 22.0128 12.2435 21.5304 11.7553C21.0481 11.2671 20.4741 10.8796 19.8414 10.6151C19.2088 10.3506 18.5302 10.2145 17.8448 10.2145C17.1593 10.2145 16.4807 10.3506 15.8481 10.6151C15.2155 10.8796 14.6414 11.2671 14.1591 11.7553C13.6768 12.2435 13.2958 12.8226 13.0381 13.4593C12.7804 14.0959 12.6511 14.7775 12.6578 15.4645V27.1651H6.35222C4.66295 27.1784 3.04736 27.8604 1.85752 29.0624C0.667669 30.2645 0 31.8892 0 33.5826C0 35.276 0.667669 36.9007 1.85752 38.1028C3.04736 39.3049 4.66295 39.9868 6.35222 40.0001H14.2503C14.5469 40.0003 14.8328 39.889 15.0514 39.688L40.7346 16.1473H45.6402C46.475 16.1485 47.3018 15.9847 48.0733 15.6652C48.8449 15.3458 49.5461 14.877 50.1367 14.2858C50.7274 13.6945 51.196 12.9923 51.5157 12.2193C51.8354 11.4463 52 10.6178 52 9.78101C52 8.94424 51.8354 8.11567 51.5157 7.34271C51.196 6.56974 50.7274 5.86753 50.1367 5.27625C49.5461 4.68497 48.8449 4.21621 48.0733 3.89679C47.3018 3.57736 46.475 3.41353 45.6402 3.41468ZM15.0323 15.4645C15.0218 15.0933 15.0854 14.7237 15.2192 14.3774C15.3531 14.0311 15.5545 13.715 15.8118 13.4478C16.0691 13.1805 16.377 12.9674 16.7175 12.821C17.058 12.6746 17.4242 12.5977 17.7947 12.595C18.5536 12.5959 19.2813 12.8984 19.818 13.4364C20.3546 13.9744 20.6565 14.7037 20.6573 15.4645V20.1528L16.8581 24.0121L15.0323 25.8664L15.0323 15.4645ZM45.6402 13.7671H40.2731C39.9765 13.767 39.6907 13.8783 39.472 14.0792L13.7894 37.6199H6.35218C5.29779 37.6188 4.2869 37.1984 3.54133 36.451C2.79575 35.7037 2.3764 34.6904 2.37529 33.6335C2.36319 32.5631 2.77506 31.5316 3.52058 30.7653C4.2661 29.9989 5.28439 29.5602 6.35214 29.5454H14.2503C14.4075 29.5454 14.5632 29.5142 14.7083 29.4534C14.8534 29.3927 14.985 29.3036 15.0955 29.1915L38.236 5.7949H45.6402C46.163 5.79399 46.6808 5.89643 47.1641 6.09634C47.6474 6.29626 48.0865 6.58973 48.4565 6.95996C48.8265 7.3302 49.12 7.76993 49.3203 8.254C49.5206 8.73806 49.6237 9.25696 49.6237 9.78101C49.6237 10.3051 49.5206 10.824 49.3203 11.308C49.12 11.7921 48.8265 12.2318 48.4565 12.6021C48.0865 12.9723 47.6474 13.2658 47.1641 13.4657C46.6808 13.6656 46.163 13.768 45.6402 13.7671Z" fill="#CB2B2E"/>
<path d="M17.8437 9.21C18.7523 9.21005 19.6405 8.94003 20.396 8.43408C21.1515 7.92812 21.7404 7.20896 22.0881 6.36753C22.4359 5.5261 22.5269 4.60019 22.3497 3.7069C22.1725 2.8136 21.735 1.99304 21.0926 1.34898C20.4502 0.704919 19.6316 0.266284 18.7405 0.0885425C17.8494 -0.0891987 16.9257 0.00193712 16.0862 0.350426C15.2467 0.698915 14.5292 1.2891 14.0244 2.04636C13.5195 2.80362 13.2501 3.69393 13.25 4.60471C13.2513 5.82559 13.7357 6.99609 14.5969 7.85944C15.4581 8.72279 16.6257 9.20849 17.8437 9.21ZM17.8437 2.38023C18.2827 2.38017 18.7118 2.51061 19.0768 2.75505C19.4419 2.99949 19.7264 3.34695 19.8944 3.75349C20.0624 4.16002 20.1064 4.60738 20.0208 5.03897C19.9352 5.47056 19.7238 5.86701 19.4134 6.17817C19.1029 6.48933 18.7074 6.70122 18.2769 6.78706C17.8463 6.87289 17.4001 6.82881 16.9945 6.66038C16.5889 6.49196 16.2423 6.20675 15.9984 5.84085C15.7546 5.47494 15.6245 5.04476 15.6245 4.60471C15.6253 4.01497 15.8593 3.4496 16.2753 3.0326C16.6913 2.61559 17.2553 2.38098 17.8437 2.38023Z" fill="#CB2B2E"/>
<path d="M42.9648 26.5693H37.57C37.2551 26.5693 36.9531 26.6947 36.7305 26.9179C36.5078 27.1411 36.3827 27.4438 36.3827 27.7594C36.3827 28.0751 36.5078 28.3778 36.7305 28.601C36.9531 28.8242 37.2551 28.9496 37.57 28.9496H40.4337L31.7461 37.6575C31.6359 37.768 31.5485 37.8991 31.4888 38.0435C31.4291 38.1879 31.3984 38.3426 31.3984 38.4989C31.3984 38.6552 31.4291 38.8099 31.4888 38.9543C31.5485 39.0987 31.6359 39.2299 31.7461 39.3404C31.8564 39.4509 31.9872 39.5385 32.1313 39.5983C32.2753 39.6581 32.4297 39.6889 32.5856 39.6889C32.7415 39.6889 32.8958 39.6581 33.0399 39.5983C33.1839 39.5385 33.3148 39.4509 33.425 39.3404L41.7776 30.9683V33.1672C41.7776 33.4829 41.9026 33.7856 42.1253 34.0088C42.348 34.232 42.6499 34.3574 42.9648 34.3574C43.2797 34.3574 43.5817 34.232 43.8043 34.0088C44.027 33.7856 44.1521 33.4829 44.1521 33.1672V27.7594C44.1521 27.6031 44.1214 27.4483 44.0618 27.3039C44.0021 27.1595 43.9147 27.0283 43.8044 26.9178C43.6942 26.8073 43.5633 26.7196 43.4192 26.6598C43.2751 26.6 43.1207 26.5693 42.9648 26.5693Z" fill="#CB2B2E"/>
</svg>
