<svg width="30" height="29" viewBox="0 0 30 29" fill="none" xmlns="http://www.w3.org/2000/svg">
<path d="M28.75 7.724H23.5474C22.2169 7.724 20.962 8.25832 20.0122 9.23355L6.83086 22.8305C6.59649 23.0717 6.27875 23.2079 5.94736 23.2079H1.25C0.559613 23.2079 0 23.7857 0 24.4982V27.0788C0 27.7914 0.559613 28.3692 1.25 28.3692H6.46486C7.79911 28.3692 9.05274 27.8337 10 26.8596L23.1814 13.2627C23.4157 13.0214 23.7335 12.8853 24.0649 12.8853H28.75C29.4404 12.8853 30 12.3075 30 11.595V9.01432C30 8.30181 29.4404 7.724 28.75 7.724Z" fill="#191919"/>
<path d="M8.73047 17.2061L13.7305 12.0574V9.02504C13.7305 7.6062 12.6055 6.4444 11.2305 6.4444C9.85547 6.4444 8.73047 7.6062 8.73047 9.02504V17.2061Z" fill="#191919"/>
<path d="M11.2305 5.16129C12.6112 5.16129 13.7305 4.0059 13.7305 2.58065C13.7305 1.15539 12.6112 0 11.2305 0C9.84976 0 8.73047 1.15539 8.73047 2.58065C8.73047 4.0059 9.84976 5.16129 11.2305 5.16129Z" fill="#191919"/>
</svg>
