<svg width="40" height="40" viewBox="0 0 40 40" fill="none" xmlns="http://www.w3.org/2000/svg">
<path d="M13.0893 12.9383C12.8793 12.6613 12.5417 12.4976 12.1801 12.4976H6.45491C6.09411 12.4976 5.75491 12.6613 5.54691 12.9383C3.53371 15.6187 2.45091 18.8168 2.44531 22.0945C2.44451 22.6711 2.94051 23.1389 3.55251 23.1389C4.16731 23.1411 4.66571 22.6738 4.66571 22.0994C4.66971 20.3061 5.04451 18.5296 5.76731 16.8707C5.79611 16.8073 5.86171 16.766 5.93691 16.766C6.03611 16.766 6.11891 16.8422 6.11891 16.9368V22.8262V32.018C6.11891 32.6911 6.70091 33.2373 7.42051 33.2373C8.13851 33.2373 8.72131 32.6911 8.72131 32.018V22.8258C8.72131 22.5161 8.98851 22.2668 9.31731 22.2668C9.64611 22.2668 9.91251 22.5161 9.91251 22.8258V32.0176C9.91251 32.6907 10.4961 33.2369 11.2149 33.2369C11.9337 33.2369 12.5157 32.6907 12.5157 32.0176V22.8258V16.9368C12.5157 16.8673 12.5617 16.8047 12.6297 16.7776C12.7217 16.7412 12.8297 16.7844 12.8681 16.8707C13.5909 18.5296 13.9657 20.3057 13.9697 22.0994C13.9697 22.6734 14.4673 23.1408 15.0821 23.1389C15.6937 23.1389 16.1905 22.6711 16.1893 22.0945C16.1841 18.8168 15.1013 15.6184 13.0893 12.9383Z" fill="black"/>
<path d="M20.6074 1.96008H19.8906V37.5332H20.6074V1.96008Z" fill="black"/>
<path d="M35.5877 12.9383C35.3793 12.6613 35.0409 12.4976 34.6797 12.4976H28.9541C28.5933 12.4976 28.2549 12.6613 28.0461 12.9383C26.0345 15.6187 24.9509 18.8168 24.9453 22.0945C24.9437 22.6711 25.4397 23.1389 26.0533 23.1389C26.6673 23.1411 27.1657 22.6738 27.1665 22.0994C27.1689 20.3061 27.5445 18.5296 28.2665 16.8707C28.2945 16.8073 28.3617 16.766 28.4361 16.766C28.5361 16.766 28.6181 16.8422 28.6181 16.9368V18.2961L27.0845 24.9296H28.6181V32.018C28.6181 32.6911 29.2009 33.2373 29.9189 33.2373C30.6393 33.2373 31.2213 32.6911 31.2213 32.018V24.9296H32.4129V32.018C32.4129 32.6911 32.9965 33.2373 33.7145 33.2373C34.4333 33.2373 35.0169 32.6911 35.0169 32.018V24.9296H36.5505L35.0169 18.3513V16.9368C35.0169 16.8673 35.0613 16.8047 35.1301 16.7776C35.2221 16.7412 35.3301 16.7844 35.3685 16.8707C36.0921 18.5296 36.4653 20.3057 36.4693 22.0994C36.4693 22.6734 36.9669 23.1408 37.5825 23.1389C38.1949 23.1389 38.6905 22.6711 38.6889 22.0945C38.6829 18.8168 37.6001 15.6184 35.5877 12.9383Z" fill="black"/>
<path d="M12.01 8.72071C12.01 7.35874 10.832 6.25354 9.3796 6.25354C7.9272 6.25354 6.75 7.35874 6.75 8.72071C6.75 10.0849 7.9272 11.1901 9.3796 11.1901C10.832 11.1901 12.01 10.0849 12.01 8.72071Z" fill="black"/>
<path d="M34.5092 8.72071C34.5092 7.35874 33.3304 6.25354 31.8788 6.25354C30.4264 6.25354 29.25 7.35874 29.25 8.72071C29.25 10.0849 30.4264 11.1901 31.8788 11.1901C33.33 11.1901 34.5092 10.0849 34.5092 8.72071Z" fill="black"/>
</svg>
