<svg width="37" height="27" viewBox="0 0 37 27" fill="none" xmlns="http://www.w3.org/2000/svg">
<path fill-rule="evenodd" clip-rule="evenodd" d="M8.85129 3.3108C10.0069 3.3108 10.9451 4.24969 10.9451 5.40529C10.9451 6.56737 9.99969 7.49904 8.85129 7.49904C7.69641 7.49904 6.75681 6.56089 6.75681 5.40529C6.75681 4.23385 7.70793 3.3108 8.85129 3.3108ZM10.7031 8.30184L12.6529 9.042V14.9957L11.1654 15.9194L9.85641 23.3117H7.84545L6.53721 15.9202L5.04825 14.9129V9.04273L6.99081 8.30184L8.85129 10.4554L10.7031 8.30184ZM21.285 5.26921C21.285 6.35065 20.4066 7.22904 19.3259 7.22904C18.2509 7.22904 17.3667 6.35641 17.3667 5.26921C17.3667 4.17913 18.2531 3.31008 19.3259 3.31008C20.4131 3.3108 21.285 4.19425 21.285 5.26921ZM17.8139 8.34217L19.3381 9.89737L20.8271 8.34217L21.9287 8.59777L23.6257 17.3753L20.9768 18.2558L20.3792 23.3117H18.297L17.6576 18.2558L15.0505 17.3753L16.7072 8.59849L17.8139 8.34217ZM29.1387 9.25441H36.9961L33.0671 3.81913L29.1387 9.25441ZM36.9961 17.3688H29.1387L33.0678 22.8034L36.9961 17.3688ZM27.6167 26.6215V0.000244141H0.996094V26.6208H27.6167V26.6215Z" fill="#191919"/>
</svg>
