<svg width="40" height="40" viewBox="0 0 40 40" fill="none" xmlns="http://www.w3.org/2000/svg">
<path d="M13.8797 29.3433H12.3516V36.2183H24.2639C24.4634 36.2179 24.6605 36.158 24.8414 36.0426L32.7458 30.9958C32.9808 30.8427 33.1793 30.6015 33.3183 30.3002C33.4573 29.9989 33.5312 29.6497 33.5313 29.2933C33.5311 29.0179 33.4875 28.7459 33.4036 28.4958C33.3277 28.2735 33.2206 28.0739 33.0884 27.9084C32.9561 27.7429 32.8014 27.6148 32.633 27.5312C32.4646 27.4477 32.2858 27.4105 32.1069 27.4217C31.928 27.4328 31.7525 27.4922 31.5903 27.5964L25.3906 31.5514C25.0891 31.743 24.7609 31.8425 24.4285 31.8433H19.194V30.5933H23.2995C23.6625 30.5933 24.0106 30.3957 24.2672 30.0441C24.5239 29.6925 24.668 29.2155 24.668 28.7183C24.668 28.221 24.5239 27.7441 24.2672 27.3924C24.0106 27.0408 23.6625 26.8433 23.2995 26.8433H16.4571C15.9859 26.8421 15.5262 27.0417 15.1415 27.4145C14.7569 27.7873 14.4664 28.3148 14.3103 28.9239C14.2792 29.0464 14.221 29.1525 14.1438 29.2277C14.0667 29.3028 13.9744 29.3432 13.8797 29.3433Z" fill="black"/>
<path d="M11.1027 28.358H6.73828V36.2182H11.1027V28.358Z" fill="black"/>
<path d="M26.875 15C26.9804 15.0002 27.0854 14.987 27.1875 14.9606C27.1638 14.9181 27.1456 14.8731 27.125 14.8294C27.1106 14.7987 27.0956 14.77 27.0825 14.7394C27.0234 14.602 26.9767 14.4595 26.9431 14.3137C26.9369 14.285 26.9325 14.2562 26.9269 14.2269C26.8941 14.07 26.8767 13.9103 26.875 13.75C26.8767 13.5894 26.8936 13.4293 26.9256 13.2719C26.9313 13.2438 26.9356 13.215 26.9419 13.1869C26.9758 13.0391 27.0233 12.8947 27.0837 12.7556C27.095 12.7288 27.1081 12.7031 27.1206 12.6769C27.1425 12.6313 27.1612 12.5837 27.1831 12.5394C27.0825 12.5134 26.979 12.5001 26.875 12.5C26.5435 12.5 26.2255 12.6317 25.9911 12.8661C25.7567 13.1005 25.625 13.4185 25.625 13.75C25.625 14.0815 25.7567 14.3995 25.9911 14.6339C26.2255 14.8683 26.5435 15 26.875 15Z" fill="black"/>
<path d="M16.875 12.5H15V13.125H16.875V12.5Z" fill="black"/>
<path d="M34.375 21.0219L35.35 20.7594C35.5095 20.7163 35.6454 20.6119 35.7281 20.4689C35.8108 20.3259 35.8335 20.1559 35.7912 19.9963L34.375 14.7081V21.0219Z" fill="black"/>
<path d="M29.375 15C29.7066 15 30.0245 14.8683 30.2589 14.6339C30.4934 14.3995 30.625 14.0815 30.625 13.75C30.625 13.4185 30.4934 13.1005 30.2589 12.8661C30.0245 12.6317 29.7066 12.5 29.375 12.5C29.044 12.5016 28.727 12.6339 28.493 12.8679C28.2589 13.102 28.1267 13.419 28.125 13.75C28.1236 13.9242 28.1594 14.0967 28.2303 14.2558C28.3011 14.4149 28.4052 14.557 28.5357 14.6725C28.7647 14.8827 29.0642 14.9995 29.375 15Z" fill="black"/>
<path d="M16.875 14.375H15V15H16.875V14.375Z" fill="black"/>
<path d="M11.25 23.75H32.5C32.6658 23.75 32.8247 23.6842 32.9419 23.5669C33.0592 23.4497 33.125 23.2908 33.125 23.125V10.625C33.125 10.4592 33.0592 10.3003 32.9419 10.1831C32.8247 10.0658 32.6658 10 32.5 10H11.25C11.0842 10 10.9253 10.0658 10.8081 10.1831C10.6908 10.3003 10.625 10.4592 10.625 10.625V23.125C10.625 23.2908 10.6908 23.4497 10.8081 23.5669C10.9253 23.6842 11.0842 23.75 11.25 23.75ZM29.375 22.5H24.375V21.25H29.375V22.5ZM25.625 20V18.75H26.875V20H25.625ZM29.375 20H28.125V18.75H29.375V20ZM26.875 11.25C27.3145 11.251 27.7459 11.3687 28.125 11.5913C28.5049 11.3693 28.9366 11.2514 29.3765 11.2497C29.8165 11.248 30.2491 11.3624 30.6307 11.5813C31.0123 11.8003 31.3293 12.1161 31.5498 12.4968C31.7703 12.8776 31.8864 13.3097 31.8864 13.7497C31.8864 14.1896 31.7703 14.6218 31.5498 15.0025C31.3293 15.3833 31.0123 15.6991 30.6307 15.918C30.2491 16.137 29.8165 16.2514 29.3765 16.2497C28.9366 16.2479 28.5049 16.1301 28.125 15.9081C27.7461 16.131 27.3146 16.249 26.875 16.25C26.212 16.25 25.5761 15.9866 25.1072 15.5178C24.6384 15.0489 24.375 14.413 24.375 13.75C24.375 13.087 24.6384 12.4511 25.1072 11.9822C25.5761 11.5134 26.212 11.25 26.875 11.25ZM23.125 18.75H24.375V20H23.125V18.75ZM20.625 18.75H21.875V20H20.625V18.75ZM20.625 22.5H15.625V21.25H20.625V22.5ZM15.625 20V18.75H16.875V20H15.625ZM19.375 20H18.125V18.75H19.375V20ZM11.875 11.875C11.875 11.7092 11.9408 11.5503 12.0581 11.4331C12.1753 11.3158 12.3342 11.25 12.5 11.25H17.5C17.6658 11.25 17.8247 11.3158 17.9419 11.4331C18.0592 11.5503 18.125 11.7092 18.125 11.875V15.625C18.125 15.7908 18.0592 15.9497 17.9419 16.0669C17.8247 16.1842 17.6658 16.25 17.5 16.25H12.5C12.3342 16.25 12.1753 16.1842 12.0581 16.0669C11.9408 15.9497 11.875 15.7908 11.875 15.625V11.875Z" fill="black"/>
<path d="M17.3672 8.74999H32.4997C32.5959 8.75223 32.6918 8.76184 32.7866 8.77874L31.9084 5.49999C31.8646 5.34108 31.7597 5.20594 31.6166 5.124C31.4736 5.04206 31.304 5.01995 31.1447 5.06249L17.3672 8.74999Z" fill="black"/>
<path d="M13.75 12.5H13.125V15H13.75V12.5Z" fill="black"/>
</svg>
