<svg width="18" height="18" viewBox="0 0 18 18" fill="none" xmlns="http://www.w3.org/2000/svg">
<path d="M7.5 9.75004C8.15172 10.6213 9.14972 11.1666 10.235 11.2443C11.3203 11.322 12.3858 10.9245 13.155 10.155L15.405 7.90504C16.8261 6.43362 16.8058 4.09472 15.3593 2.64822C13.9128 1.20171 11.5739 1.18139 10.1025 2.60254L8.8125 3.88504" stroke="#191919" stroke-width="2" stroke-linecap="round" stroke-linejoin="round"/>
<path d="M10.4997 8.25C9.84794 7.37873 8.84994 6.83347 7.76467 6.75575C6.67941 6.67802 5.61389 7.07549 4.84466 7.845L2.59466 10.095C1.17352 11.5664 1.19384 13.9053 2.64034 15.3518C4.08684 16.7983 6.42574 16.8186 7.89716 15.3975L9.17966 14.115" stroke="#191919" stroke-width="2" stroke-linecap="round" stroke-linejoin="round"/>
</svg>
