<svg width="40" height="40" viewBox="0 0 40 40" fill="none" xmlns="http://www.w3.org/2000/svg">
<path opacity="0.2" fill-rule="evenodd" clip-rule="evenodd" d="M20.0007 1.66669C20.9211 1.66669 21.6673 2.41288 21.6673 3.33335V10C21.6673 10.9205 20.9211 11.6667 20.0007 11.6667C19.0802 11.6667 18.334 10.9205 18.334 10V3.33335C18.334 2.41288 19.0802 1.66669 20.0007 1.66669Z" fill="#191919"/>
<path opacity="0.6" fill-rule="evenodd" clip-rule="evenodd" d="M20.0007 28.3333C20.9211 28.3333 21.6673 29.0795 21.6673 30V36.6666C21.6673 37.5871 20.9211 38.3333 20.0007 38.3333C19.0802 38.3333 18.334 37.5871 18.334 36.6666V30C18.334 29.0795 19.0802 28.3333 20.0007 28.3333Z" fill="#191919"/>
<path fill-rule="evenodd" clip-rule="evenodd" d="M7.03698 7.03827C7.68786 6.38739 8.74313 6.38739 9.39401 7.03827L14.1107 11.7549C14.7615 12.4058 14.7615 13.4611 14.1107 14.112C13.4598 14.7628 12.4045 14.7628 11.7537 14.112L7.03698 9.39529C6.38611 8.74441 6.38611 7.68914 7.03698 7.03827Z" fill="#191919"/>
<path opacity="0.4" fill-rule="evenodd" clip-rule="evenodd" d="M25.8885 25.8883C26.5394 25.2374 27.5947 25.2374 28.2456 25.8883L32.9622 30.605C33.6131 31.2558 33.6131 32.3111 32.9622 32.962C32.3114 33.6129 31.2561 33.6129 30.6052 32.962L25.8885 28.2453C25.2377 27.5945 25.2377 26.5392 25.8885 25.8883Z" fill="#191919"/>
<path opacity="0.8" fill-rule="evenodd" clip-rule="evenodd" d="M1.66602 20C1.66602 19.0795 2.41221 18.3333 3.33268 18.3333H9.99935C10.9198 18.3333 11.666 19.0795 11.666 20C11.666 20.9205 10.9198 21.6666 9.99935 21.6666H3.33268C2.41221 21.6666 1.66602 20.9205 1.66602 20Z" fill="#191919"/>
<path opacity="0.4" fill-rule="evenodd" clip-rule="evenodd" d="M28.334 20C28.334 19.0795 29.0802 18.3333 30.0007 18.3333H36.6673C37.5878 18.3333 38.334 19.0795 38.334 20C38.334 20.9205 37.5878 21.6666 36.6673 21.6666H30.0007C29.0802 21.6666 28.334 20.9205 28.334 20Z" fill="#191919"/>
<path opacity="0.6" fill-rule="evenodd" clip-rule="evenodd" d="M14.1107 25.8883C14.7615 26.5392 14.7615 27.5945 14.1107 28.2453L9.39401 32.962C8.74313 33.6129 7.68786 33.6129 7.03698 32.962C6.38611 32.3111 6.38611 31.2558 7.03698 30.605L11.7537 25.8883C12.4045 25.2374 13.4598 25.2374 14.1107 25.8883Z" fill="#191919"/>
<path opacity="0.2" fill-rule="evenodd" clip-rule="evenodd" d="M32.9622 7.03827C33.6131 7.68914 33.6131 8.74441 32.9622 9.39529L28.2456 14.112C27.5947 14.7628 26.5394 14.7628 25.8885 14.112C25.2377 13.4611 25.2377 12.4058 25.8885 11.7549L30.6052 7.03827C31.2561 6.38739 32.3114 6.38739 32.9622 7.03827Z" fill="#191919"/>
</svg>
