<svg width="64" height="40" viewBox="0 0 64 40" fill="none" xmlns="http://www.w3.org/2000/svg">
<path fill-rule="evenodd" clip-rule="evenodd" d="M43.9488 13.4021C43.8706 13.4899 43.7888 13.5816 43.7285 13.6834L43.6317 13.628C43.5231 13.4423 43.4221 13.2736 43.3226 13.1072C43.1897 12.885 43.0593 12.667 42.9169 12.4189L42.6263 11.4959C42.3941 10.9874 42.2611 10.4391 42.2343 9.88066C42.1963 9.78308 42.195 9.72109 42.1939 9.66431C42.1928 9.611 42.1918 9.56229 42.1605 9.49301C42.1884 9.39543 42.218 9.31675 42.2463 9.24141L42.2463 9.24137L42.2463 9.24133L42.2463 9.24129L42.2464 9.24127C42.2837 9.14206 42.3188 9.04861 42.345 8.92537C42.3851 8.63878 42.3402 8.34671 42.2159 8.08544C42.262 7.8593 41.9161 7.62394 41.5794 7.62394C41.478 7.65625 41.4042 7.78085 41.3304 7.90545C41.3077 8.01694 41.2603 8.1318 41.2131 8.24615C41.1646 8.36374 41.1163 8.48078 41.0952 8.59309C41.0049 8.9378 40.9645 9.29371 40.9753 9.64992C41.0399 10.1437 40.1544 10.6237 39.9515 10.7067C39.7854 9.86081 39.4733 9.05029 39.0291 8.31157C38.9982 8.27198 38.9683 8.22907 38.9385 8.18631C38.8571 8.06958 38.7765 7.95398 38.6786 7.91007L37.7563 7.4855C37.6379 7.41466 37.5012 7.38038 37.3633 7.38695C37.2255 7.39351 37.0927 7.44064 36.9815 7.52242C36.7953 7.58084 36.7364 7.67281 36.6644 7.78517C36.617 7.8592 36.5639 7.94208 36.465 8.03006C36.2666 8.22939 36.1098 8.46629 36.0038 8.72692C35.8592 9.39182 35.9643 10.0867 36.299 10.6791C36.394 10.9394 36.5381 11.1791 36.7233 11.3852C36.7649 11.4624 36.825 11.5282 36.8982 11.5765C36.9715 11.6248 37.0556 11.6542 37.1429 11.662C37.326 11.7665 37.5385 11.8071 37.7471 11.7774C37.8135 11.8107 37.8726 11.8182 37.9325 11.8259C37.9891 11.8332 38.0465 11.8406 38.1114 11.8697C38.2385 11.9841 38.3257 12.1361 38.3604 12.3035L38.5172 13.1711C38.5866 13.7368 38.5363 14.3107 38.3697 14.8556C38.3522 14.885 38.3364 14.9196 38.3196 14.9561C38.2654 15.0741 38.2019 15.2124 38.0468 15.2617C37.9131 15.2017 37.784 15.1417 37.7517 15.0494C37.4989 14.7992 37.2646 14.5308 37.0507 14.2464C36.5716 13.6787 36.1827 13.0405 35.8978 12.3543C35.8908 12.331 35.8189 12.173 35.7163 11.9479C35.4127 11.281 34.8407 10.0246 34.8924 9.93143C34.9967 9.74184 35.1038 9.56099 35.2105 9.3808C35.618 8.69255 36.0197 8.01396 36.239 6.89478C36.2024 6.58154 36.2824 6.36303 36.3595 6.15255C36.4277 5.96609 36.4937 5.78594 36.4742 5.55182C36.48 5.42227 36.5263 5.29354 36.5717 5.16731C36.6346 4.99225 36.6958 4.82201 36.6449 4.66112C36.6647 4.27897 36.7157 4.00273 36.7767 3.67265L36.7767 3.67263L36.7767 3.67259L36.7767 3.67256L36.7767 3.67253L36.7767 3.67249L36.7767 3.67245C36.8151 3.46446 36.8575 3.23508 36.8985 2.94435C36.9041 2.82023 36.8725 2.69089 36.8401 2.55845C36.7918 2.36096 36.7419 2.15655 36.8109 1.95213C36.8381 1.82162 36.7372 1.66228 36.6318 1.4958C36.5583 1.37972 36.4826 1.26017 36.4466 1.14451C36.4927 0.927609 36.3036 0.678402 36.1422 0.526107C36.0739 0.339373 35.817 0.220059 35.6861 0.159297L35.681 0.156908L35.1368 0C34.9195 0.0264718 34.7378 0.0281524 34.594 0.0294831C34.3867 0.0314002 34.258 0.0325909 34.2145 0.106143C34.0352 0.182752 33.877 0.30148 33.7533 0.452266C33.6595 0.571621 33.5754 0.661749 33.4994 0.74326C33.3138 0.942249 33.176 1.08988 33.0615 1.48602C32.8253 2.04392 32.628 2.61756 32.4712 3.2028C32.3257 3.90135 32.2469 4.61219 32.236 5.32568C32.2871 5.66964 32.268 5.88017 32.2489 6.09167C32.23 6.30015 32.211 6.50956 32.2591 6.84863C32.2751 7.31624 32.3432 7.7806 32.462 8.23312C32.5235 8.42474 32.5946 8.74733 32.6649 9.066C32.7318 9.36899 32.7978 9.66842 32.854 9.84836C32.8858 9.95034 32.9343 10.113 32.9954 10.3177L32.9954 10.3179C33.2084 11.0316 33.5737 12.2561 33.9135 13.2041C33.8984 13.192 33.8822 13.181 33.8647 13.1712C33.7717 13.1161 33.6608 13.0995 33.5558 13.125C33.3652 13.0901 33.1687 13.1093 32.9885 13.1804C32.6795 13.2773 32.4489 13.4711 32.5734 13.8634C32.604 13.9294 32.6175 14.002 32.6126 14.0746C32.6078 14.1472 32.5848 14.2174 32.5458 14.2788C32.2829 15.331 31.8863 16.2863 30.8994 17.0062C30.5351 17.3623 30.0998 17.6375 29.6219 17.8138C29.1329 17.9721 28.61 17.9945 28.1093 17.8784C27.758 17.8591 27.4151 17.7642 27.1039 17.6002C26.7927 17.4361 26.5206 17.2067 26.3061 16.9277C25.6789 16.4293 25.5405 15.7786 25.4529 14.9895C25.2137 13.9742 25.1374 12.9274 25.2269 11.8882C25.3078 11.0145 25.5176 10.1575 25.8495 9.34534C25.9007 9.26065 25.9175 9.18565 25.9337 9.11358C25.951 9.0364 25.9675 8.96259 26.0248 8.88384C26.0976 8.85956 26.1136 8.80529 26.1374 8.72474C26.1543 8.66753 26.1752 8.59705 26.2231 8.51464C26.6358 7.55372 27.3518 6.75457 28.2615 6.23945C28.4949 6.07463 28.7751 5.98925 29.0608 5.9959C29.3464 6.00254 29.6223 6.10087 29.8479 6.27637C29.8808 6.50246 29.8916 6.73122 29.8802 6.9594C29.8227 7.14424 29.8227 7.34219 29.8802 7.52704C29.8307 8.03304 29.8462 8.5433 29.9263 9.04536C29.9659 9.15485 29.9608 9.26434 29.9556 9.3774C29.9504 9.48831 29.9451 9.60264 29.9816 9.72376C30.0091 9.8116 30.03 9.9031 30.0511 9.9954L30.0511 9.99543C30.1186 10.291 30.188 10.5949 30.4797 10.8129L30.7472 10.7298L31.6695 10.4345C31.771 10.2591 31.771 10.2591 31.7295 10.1299L31.7295 10.1299C31.6286 9.88147 31.5906 9.61199 31.6188 9.34534C31.6188 9.31621 31.6251 9.28014 31.6324 9.23768C31.6519 9.12542 31.6791 8.96856 31.6188 8.77769C31.5004 8.73514 31.5059 8.64457 31.5117 8.55077C31.5147 8.50213 31.5177 8.45263 31.5035 8.4085C31.4954 7.83991 31.52 7.27132 31.5773 6.70557C31.5634 6.65696 31.5691 6.60182 31.574 6.5544C31.5822 6.47576 31.5881 6.41834 31.4989 6.44713C31.4595 6.30792 31.4784 6.19711 31.4944 6.10365C31.5064 6.03289 31.5168 5.97208 31.4989 5.91641C31.4503 5.76502 31.4586 5.64372 31.4655 5.54323C31.4704 5.47217 31.4746 5.41152 31.4574 5.358C31.4574 5.0811 31.4678 5.08225 31.473 5.08283L31.4741 5.08282C31.478 5.08169 31.4765 5.06153 31.4574 4.80419C31.5635 4.64729 31.213 4.44884 30.904 4.40269C30.768 4.44579 30.6609 4.46854 30.5749 4.48684C30.3107 4.54299 30.2439 4.55718 30.1431 4.9888C30.115 5.15267 30.0988 5.13485 30.0806 5.11485C30.0629 5.09543 30.0434 5.07395 30.0093 5.21493C30.0257 5.27127 30.0183 5.32164 30.0107 5.37332C30.0033 5.42325 29.9957 5.4744 30.0093 5.53336C29.9364 5.49904 29.8665 5.49064 29.7964 5.48222C29.7156 5.47251 29.6345 5.46277 29.5481 5.41338C29.041 5.308 28.5189 5.29705 28.0078 5.38107C27.8778 5.42145 27.7444 5.42912 27.6084 5.43694H27.6084H27.6084C27.4646 5.4452 27.3177 5.45364 27.1685 5.50106C27.1067 5.52067 27.0286 5.53987 26.9402 5.56157L26.9402 5.56157L26.9401 5.56158L26.9401 5.56158L26.9401 5.56159L26.9401 5.56159C26.6125 5.64202 26.1446 5.75686 25.8541 6.05486C25.7498 6.16189 25.6565 6.25416 25.5691 6.34063L25.569 6.34064L25.569 6.34065L25.569 6.34066L25.569 6.34067L25.569 6.34068L25.569 6.34068C25.3473 6.55994 25.1633 6.742 24.9318 7.03323C24.5318 7.51538 24.1811 8.0364 23.8849 8.58848C23.3715 9.57511 23.0197 10.6377 22.8426 11.7359C22.8426 12.6912 22.8934 14.1541 23.3038 14.9664C23.3411 15.0823 23.422 15.2513 23.5102 15.4356C23.6187 15.6622 23.7383 15.912 23.8019 16.1155C24.2163 16.8544 24.7783 17.5001 25.4529 18.0123C26.0224 18.3312 26.6124 18.6118 27.2192 18.8522C27.8824 19.0957 28.5899 19.1948 29.2945 19.1429C30.5028 19.0553 31.4851 18.8845 32.3475 18.1876C32.8663 17.8284 33.3087 17.3697 33.6491 16.8382C33.9895 16.3066 34.2211 15.7128 34.3305 15.091C34.3545 14.882 34.4102 14.6781 34.4954 14.4864C34.5577 14.555 34.6097 14.5663 34.648 14.5049C34.6402 14.4777 34.6677 14.5363 34.7135 14.634C34.8309 14.8843 35.0685 15.3911 35.1414 15.3679C35.2252 15.447 35.3007 15.5015 35.3757 15.5556L35.3757 15.5556L35.3757 15.5556L35.3757 15.5556L35.3757 15.5557L35.3758 15.5557L35.3758 15.5557C35.4495 15.6088 35.5226 15.6616 35.6026 15.7371C35.9566 16.1565 36.446 16.439 36.9861 16.5355C37.579 16.6281 38.1836 16.6124 38.7709 16.4893L38.8262 16.4386C39.1961 16.2674 39.5457 16.0553 39.8685 15.8063C39.9589 15.6652 40.023 15.5088 40.0576 15.3448C40.1487 15.2775 40.2208 15.1877 40.2669 15.0841C40.313 14.9806 40.3314 14.8669 40.3204 14.7541C40.2312 14.6622 40.2734 14.5329 40.3153 14.4045C40.347 14.3073 40.3786 14.2106 40.3527 14.1311C40.3615 13.6295 40.3183 13.1284 40.2236 12.6358C40.1772 12.2461 40.0953 11.8615 39.9792 11.4867C40.0096 11.4376 40.0499 11.3955 40.0976 11.3629C40.1452 11.3303 40.1991 11.308 40.2559 11.2975C40.2928 11.2352 40.3366 11.1959 40.3804 11.1567C40.4242 11.1175 40.468 11.0783 40.5049 11.016C40.6055 10.9839 40.6494 10.9451 40.6934 10.9062C40.7382 10.8667 40.783 10.827 40.8877 10.7944L40.943 10.979C40.9487 11.137 40.9623 11.3185 40.9762 11.5054C40.9961 11.7717 41.0168 12.0491 41.0168 12.2851L41.4226 13.5911C41.717 14.0558 42.1445 14.4208 42.6494 14.6387C42.8465 14.7178 43.0477 14.7861 43.2521 14.8432C43.157 14.9283 43.0639 15.0155 42.9727 15.1049C42.854 15.2274 42.7415 15.3347 42.6339 15.4372C42.0897 15.9559 41.6738 16.3522 41.2387 17.9938C41.2295 18.0511 41.2839 18.0686 41.3321 18.084C41.381 18.0998 41.4235 18.1134 41.3863 18.1646C41.3127 18.2301 41.2549 18.3115 41.2174 18.4027C41.1798 18.4938 41.1635 18.5923 41.1695 18.6907C41.1581 18.8796 41.0917 18.9884 41.0374 19.0775C40.8938 19.3126 40.8343 19.4103 42.0919 20.4813C42.1794 20.5596 42.2606 20.631 42.3362 20.6975C42.8625 21.1602 43.1211 21.3875 43.3832 22.0735C43.7404 22.7838 43.9862 23.545 44.1118 24.3302C44.3245 25.5412 44.371 26.7755 44.2502 27.9991C44.2152 28.1959 44.1675 28.3901 44.1072 28.5806C44.055 28.5224 43.9881 28.4793 43.9135 28.456C43.8979 28.4113 43.8985 28.3634 43.899 28.3159C43.8997 28.2653 43.9003 28.2151 43.8812 28.1699C43.6965 27.9938 43.577 27.5676 43.4789 27.2177L43.4789 27.2177L43.4789 27.2177C43.4227 27.0174 43.3736 26.8421 43.3232 26.7531C43.2479 26.62 43.1986 26.4733 43.1537 26.3397L43.1537 26.3397L43.1537 26.3397L43.1537 26.3396C43.116 26.2276 43.0814 26.1248 43.0373 26.047C43.019 25.8292 42.9495 25.6189 42.8344 25.4332C42.8489 25.2129 42.7923 25.0484 42.7352 24.8825C42.6835 24.7323 42.6314 24.5808 42.6314 24.3856L42.5899 24.2979C42.4905 24.0963 42.449 23.871 42.47 23.6472C42.4238 23.5733 42.3967 23.4891 42.391 23.4021C42.3854 23.3151 42.4014 23.228 42.4378 23.1488C42.4088 23.1086 42.3712 23.0987 42.3353 23.0892C42.2971 23.079 42.2609 23.0695 42.2394 23.0242C42.2994 22.8903 42.3686 22.7288 42.3363 22.655C42.3363 22.483 42.3696 22.3614 42.4036 22.2373C42.4545 22.0518 42.5069 21.8607 42.4516 21.4874C42.4361 21.4486 42.454 21.4294 42.4731 21.4088C42.4994 21.3805 42.5281 21.3496 42.4746 21.2612L42.4684 21.2509C42.3804 21.1054 42.3351 21.0305 42.0873 21.0305C42.0504 20.9428 41.912 20.8967 41.912 20.8967C41.5476 20.7951 41.1667 20.7668 40.7914 20.8136C40.6079 21.0422 40.4772 21.3085 40.4086 21.5935C40.2384 22.0934 40.1679 22.6218 40.201 23.1488C40.2699 23.5132 40.2699 23.8873 40.201 24.2518C40.2522 24.8343 40.365 25.4098 40.5377 25.9685C40.6165 26.5298 40.7995 27.0714 41.0773 27.5653C41.3904 28.1622 41.8038 28.7008 42.2994 29.1575L42.839 29.5313C42.8867 29.5108 42.9209 29.5217 42.955 29.5325C42.9901 29.5437 43.025 29.5547 43.0742 29.5313C43.2705 29.7278 43.5948 29.6888 43.8947 29.6528L43.9458 29.6467C44.0959 29.5995 44.2569 29.5995 44.407 29.6467C44.7135 29.6918 45.0254 29.684 45.3293 29.6236C45.4875 29.5986 45.6375 29.5368 45.7673 29.4429C45.8971 29.3491 46.003 29.226 46.0764 29.0836C46.2027 28.8141 46.2912 28.5283 46.3393 28.2345C46.3393 28.2345 46.4361 28.1883 46.3946 28.1007C46.5076 27.8584 46.5599 27.5923 46.5468 27.3253C46.6252 27.2884 46.5837 27.1961 46.5837 27.1961L46.4546 26.9561C46.4775 26.8872 46.4775 26.8128 46.4546 26.7438C46.4337 26.6998 46.4944 26.5963 46.5553 26.4925C46.6155 26.3897 46.6759 26.2867 46.6575 26.2408C46.5946 26.1298 46.5627 26.0038 46.5653 25.8762L46.5376 25.2855C46.5238 23.4949 45.8458 22.475 45.8458 22.6042C45.7978 22.492 45.6874 22.2929 45.5812 22.1014L45.5811 22.1012L45.5811 22.1012L45.5811 22.1012C45.5345 22.0171 45.4886 21.9344 45.4492 21.8612C45.4333 21.8275 45.3875 21.7952 45.3391 21.7612C45.2615 21.7065 45.1775 21.6472 45.2002 21.5704C44.9953 21.2015 44.6716 21.0796 44.2526 20.9219C44.0114 20.8311 43.7385 20.7284 43.4385 20.5598C43.2882 20.4969 43.1598 20.3909 43.0696 20.2552L42.5604 19.6356C42.6815 19.7916 40.9856 18.9773 42.387 17.7123L42.4931 17.6846C42.5389 17.6156 42.6049 17.5624 42.6822 17.5323C42.9535 17.2083 43.276 16.9308 43.6368 16.7109C43.7033 16.6714 43.7588 16.6159 43.7982 16.5494C43.9659 16.4084 44.0284 16.4052 44.1009 16.4015C44.1779 16.3975 44.2662 16.3929 44.5038 16.2217C44.6227 16.1483 44.6633 16.115 44.7023 16.0829C44.7542 16.0403 44.8033 15.9999 45.0296 15.871C45.1147 15.7995 45.2103 15.75 45.3035 15.7016C45.3971 15.653 45.4883 15.6057 45.5645 15.5387C45.7113 15.476 45.848 15.392 45.9703 15.2895C46.1456 14.888 46.0718 13.9742 45.8182 13.8773C45.8044 13.8628 45.7902 13.8493 45.7757 13.8365C45.9129 13.6175 46.0289 13.3855 46.122 13.1435C46.3227 12.7515 46.4568 12.3288 46.5186 11.8928C46.5186 11.8657 46.521 11.828 46.5237 11.7856C46.5301 11.6836 46.5382 11.5552 46.5186 11.4867C46.5012 11.4801 46.4856 11.4696 46.4727 11.4561C46.4599 11.4426 46.4503 11.4265 46.4445 11.4087C46.4388 11.391 46.437 11.3723 46.4395 11.3538C46.4419 11.3353 46.4485 11.3177 46.4587 11.3021C46.4681 11.1446 46.4464 10.9944 46.4228 10.8312L46.4228 10.8312C46.4001 10.6739 46.3757 10.5046 46.3757 10.3052L46.2742 10.3376C46.2742 10.3104 46.2794 10.2804 46.2852 10.2469C46.2991 10.1667 46.3165 10.0663 46.2742 9.93605C46.2766 9.63808 46.2234 9.34227 46.1174 9.06382L46.0575 8.87922C46.0896 8.74107 46.0546 8.66107 46.0117 8.56293L46.0117 8.56291C45.993 8.52008 45.9728 8.4738 45.956 8.41772C45.9246 8.31847 45.8896 8.2465 45.8577 8.18076C45.8005 8.06309 45.7531 7.96539 45.7531 7.76701C46.0369 7.60167 46.2723 7.36452 46.4356 7.07938C46.5439 6.9824 46.5747 6.9101 46.6173 6.81019C46.6436 6.74844 46.6744 6.67614 46.7308 6.58096L46.7664 6.52079C46.8356 6.93598 46.9933 7.34685 47.248 7.75322C47.4771 8.10526 47.7979 8.38802 48.1758 8.571C48.5537 8.75399 48.9744 8.83027 49.3924 8.79159L49.6092 8.8562C49.5123 10.3791 49.1526 11.6575 48.6545 11.9621C48.5116 12.0405 47.7322 11.3114 47.271 10.3884C47.2228 10.2829 47.3182 10.0732 47.4107 9.86964C47.4599 9.76144 47.5083 9.655 47.5339 9.56691C47.5639 9.44012 47.547 9.30676 47.4865 9.19142C47.4259 9.07609 47.3257 8.98655 47.2044 8.93932C47.083 8.8921 46.9487 8.89038 46.8262 8.93447C46.7037 8.97857 46.6012 9.0655 46.5377 9.17925C46.3387 9.46019 46.3615 9.60686 46.4078 9.90433C46.4216 9.99289 46.4374 10.0948 46.4501 10.2176C46.4732 11.3898 48.0735 12.6451 48.2948 12.7143C48.4754 12.7023 48.6333 12.7584 48.7829 12.8115C48.9772 12.8805 49.1575 12.9446 49.3555 12.8482C49.7776 12.7892 50.159 12.5651 50.4162 12.2251C50.9852 11.46 51.3272 10.5499 51.4032 9.59921C51.4252 9.35026 51.4756 9.13811 51.5222 8.94169C51.5733 8.72666 51.6199 8.53048 51.6199 8.32547C51.5042 8.07375 51.5188 7.95247 51.5321 7.84254C51.5431 7.75093 51.5532 7.66722 51.4862 7.52247C51.3596 7.4644 51.2219 7.43434 51.0826 7.43434C50.9434 7.43434 50.8057 7.4644 50.6791 7.52247C50.414 7.42582 50.1233 7.42582 49.8582 7.52247C49.9366 7.69784 49.6645 7.61477 49.5953 7.47632C49.3945 7.4309 49.2054 7.3438 49.0403 7.22064C48.8752 7.09748 48.7378 6.94101 48.6369 6.76136C48.5361 6.5817 48.4741 6.38285 48.4548 6.17769C48.4356 5.97252 48.4597 5.76561 48.5254 5.57033C48.5395 5.23445 48.6589 4.91153 48.8667 4.64734C49.0206 4.23504 49.3166 3.89134 49.7014 3.67819C49.9274 3.35053 50.0796 3.27669 50.5407 3.44283L50.6975 3.7751C50.773 3.93801 50.8075 4.12023 50.8411 4.29769L50.8411 4.2977V4.29772C50.8731 4.46713 50.9043 4.6322 50.9696 4.77194C51.4994 5.91636 51.8796 7.15769 52.2398 8.33365L52.2399 8.33386L52.2399 8.33393L52.24 8.33405C52.4128 8.89834 52.5811 9.44756 52.759 9.96379C52.7857 10.4356 52.8772 10.9015 53.0311 11.3483C53.1291 11.5619 53.0492 11.7144 52.9283 11.9449C52.8899 12.0182 52.8474 12.0993 52.8051 12.1928C52.7787 12.2643 52.7667 12.3403 52.7698 12.4165C52.7729 12.4926 52.7911 12.5674 52.8233 12.6365C52.8554 12.7056 52.9009 12.7676 52.9572 12.819C53.0135 12.8704 53.0793 12.9101 53.151 12.9358C53.4885 12.9828 53.8071 13.1199 54.0734 13.3327H54.7559C54.9617 13.3087 55.1534 13.216 55.3001 13.0697C55.2636 12.7438 55.3057 12.6214 55.3495 12.4943C55.3776 12.4126 55.4064 12.329 55.4154 12.1882C55.28 11.8967 55.2855 11.825 55.2964 11.6818V11.6818C55.3026 11.6006 55.3105 11.4963 55.2955 11.316C55.33 11.1813 55.33 11.04 55.2955 10.9052C55.194 10.5665 55.1813 10.2073 55.2586 9.86226C55.5778 8.78519 55.8137 7.68511 55.9642 6.57178C55.9707 6.52835 55.9813 6.47338 55.9933 6.41068C56.0654 6.03366 56.1909 5.3772 55.835 5.27036H55.7797C55.5524 5.20487 55.5154 5.45603 55.4805 5.69313C55.4687 5.77347 55.4571 5.85221 55.4384 5.91645C55.2975 6.5467 55.2409 6.83597 55.1824 7.13455C55.1472 7.31478 55.1112 7.4984 55.0557 7.76245C54.9816 8.17417 54.8673 8.57762 54.7144 8.96696C54.6485 8.82833 54.4686 8.19393 54.2853 7.54763L54.2853 7.54755C54.0963 6.88143 53.9038 6.20268 53.8289 6.04106C53.6684 5.69338 53.6012 5.22295 53.5308 4.73031L53.5308 4.73026C53.4536 4.18973 53.3726 3.62247 53.1602 3.16131C52.9196 2.74431 52.5906 2.38515 52.1964 2.1091C52.0549 1.89712 51.8498 1.73553 51.6107 1.6476L51.417 1.74452C51.3385 1.78203 51.263 1.83027 51.1864 1.87917C50.9616 2.02275 50.728 2.17201 50.3839 2.07218L49.9966 2.26139C49.8257 2.36193 49.6244 2.39795 49.4293 2.36292C48.7922 2.61726 48.2213 3.01339 47.7599 3.52128C47.5242 3.67179 47.3444 3.89552 47.248 4.15815C46.9751 4.66445 46.8034 5.16529 46.7464 5.66037C46.7354 5.63335 46.7194 5.60852 46.6994 5.58715C46.6743 5.56043 46.6434 5.53982 46.6091 5.5269C46.5748 5.51398 46.538 5.50908 46.5016 5.5126C46.4651 5.51612 46.4299 5.52796 46.3987 5.5472C46.4126 5.59335 46.3861 5.65334 46.3595 5.71334C46.333 5.77333 46.3065 5.83333 46.3203 5.87948C46.1814 6.35744 45.8645 6.76382 45.4349 7.01477L45.2504 7.07014C45.2184 6.96354 45.1327 6.88002 45.0605 6.80981C45.0078 6.75845 44.9623 6.7142 44.9506 6.67326C44.8927 6.6909 44.8416 6.61766 44.7854 6.53702C44.7387 6.47005 44.6885 6.39799 44.6278 6.36867L44.616 6.36299C44.4866 6.30051 44.364 6.24135 44.3327 6.15177C44.284 6.12918 44.2498 6.10201 44.2204 6.07863C44.1716 6.03993 44.1359 6.01163 44.0698 6.03177C44.0571 6.0361 44.0436 6.03786 44.0302 6.03695C44.0168 6.03604 44.0037 6.03248 43.9917 6.02647C43.9797 6.02046 43.969 6.01212 43.9603 6.00194C43.9515 5.99176 43.9448 5.97994 43.9407 5.96716C43.8878 5.94303 43.8336 5.91498 43.7783 5.88635C43.5587 5.77262 43.3214 5.64976 43.0783 5.72718C42.8935 5.57592 42.4886 5.60339 42.104 5.62947C41.9606 5.63919 41.82 5.64873 41.6947 5.64873C41.541 5.62719 41.4118 5.68978 41.2813 5.75304L41.2813 5.75304C41.2161 5.78465 41.1505 5.81642 41.0814 5.83795C40.9061 5.99485 40.7263 6.15638 40.7862 6.34098C40.8091 6.41155 40.8125 6.47335 40.8154 6.52639C40.8201 6.61208 40.8235 6.67489 40.9061 6.7148C40.9599 6.88483 41.019 6.93827 41.1003 7.0119C41.1514 7.05817 41.2113 7.11242 41.2843 7.20859C41.518 7.42471 41.7992 7.5828 42.1052 7.67009C42.7511 7.97061 43.4543 8.12803 44.1666 8.13159C44.2681 8.09929 44.3742 8.06698 44.4018 8.15928C44.4295 8.25158 44.5586 8.31619 44.5586 8.31619L44.7339 8.8746C45.0017 10.2817 44.8109 11.7376 44.1897 13.0281C44.1679 13.1564 44.0621 13.275 43.9488 13.4021ZM34.8002 7.87309C34.7235 8.03887 34.6477 8.2025 34.6203 8.44541C34.6203 8.53771 34.5742 8.88383 34.4958 8.91614C34.4828 8.9212 34.4689 8.92353 34.455 8.92298C34.4411 8.92243 34.4274 8.91902 34.4149 8.91296C34.4023 8.9069 34.3912 8.89831 34.3821 8.88774C34.373 8.87717 34.3662 8.86485 34.3621 8.85153C34.1126 8.1106 33.9138 7.35353 33.7671 6.58557L33.7395 6.49327C33.67 6.26805 33.6842 6.2003 33.7065 6.09422C33.7212 6.02423 33.7395 5.93755 33.7395 5.77795L33.6242 5.40414C33.6103 4.99802 33.5965 4.59651 33.555 4.0981C33.5691 3.77938 33.6111 3.45222 33.6529 3.12525L33.6529 3.12522L33.653 3.12519C33.6929 2.81301 33.7329 2.50102 33.7487 2.19673C33.7944 2.13166 33.7962 2.05023 33.7979 1.96953C33.7995 1.89569 33.801 1.82245 33.8363 1.76292C33.8555 1.54005 33.9004 1.32015 33.97 1.10759C34.0068 1.04327 34.0172 0.988089 34.0276 0.933522C34.038 0.878473 34.0483 0.824044 34.0853 0.761469C34.6157 0.170751 34.9385 0.950685 35.0769 1.41218C35.1766 1.64478 35.2178 1.89833 35.1968 2.15057C35.2021 2.34456 35.2091 2.54865 35.2162 2.75999L35.2162 2.76023C35.2644 4.18294 35.3237 5.93401 34.9985 7.13937C34.9835 7.47724 34.8912 7.67667 34.8002 7.87309ZM37.8301 10.9375L37.8854 11.1221L37.7747 11.1544C37.2767 11.0067 36.8524 9.6453 36.7371 9.27149C36.7371 9.24963 36.7311 9.19772 36.7235 9.1308L36.7235 9.13075C36.6987 8.91518 36.6562 8.5439 36.7371 8.51925C36.7489 8.49705 36.7671 8.47894 36.7894 8.46731C36.8117 8.45567 36.8369 8.45104 36.8619 8.45404C36.8868 8.45704 36.9103 8.46751 36.9292 8.48409C36.948 8.50067 36.9615 8.52258 36.9677 8.54694C37.017 8.57073 37.0601 8.60561 37.0937 8.64884C37.1273 8.69207 37.1505 8.74248 37.1614 8.79615C37.4327 9.49387 37.6562 10.2093 37.8301 10.9375ZM42.8062 6.21176C43.1912 6.40343 43.5519 6.64048 43.8807 6.91785H43.8438C43.9528 7.01935 44.0447 7.13779 44.1159 7.26859C43.9358 7.30112 43.7542 7.32422 43.5717 7.33781C43.1942 7.35262 42.8206 7.25636 42.4972 7.06092L42.119 6.93169C41.9663 6.83405 41.8447 6.69474 41.7685 6.53019C41.621 6.3779 41.5933 6.2856 41.7685 6.12407C41.7804 6.09617 41.7983 6.07122 41.8209 6.05098C41.8435 6.03073 41.8702 6.01568 41.8992 6.00688C41.9282 5.99808 41.9588 5.99575 41.9888 6.00005C42.0188 6.00435 42.0475 6.01518 42.0729 6.03177C42.1938 6.04601 42.3221 6.08464 42.4501 6.12321C42.5711 6.15967 42.6919 6.19606 42.8062 6.21176ZM25.8651 30.0809C25.8019 29.96 25.7437 29.8486 25.7061 29.7297L25.6646 29.5313C25.7391 29.507 25.8074 29.4667 25.8647 29.4133C25.922 29.3599 25.9671 29.2947 25.9967 29.2221C26.0981 29.1898 26.1996 29.1575 26.1765 29.0836C26.2431 28.953 26.3543 28.8381 26.4632 28.7257C26.5582 28.6277 26.6514 28.5315 26.7115 28.4283C27.056 28.151 27.3562 27.8226 27.6016 27.4546C27.6293 27.4077 27.6609 27.374 27.6881 27.3449C27.7334 27.2966 27.7664 27.2612 27.7491 27.2007C27.8153 27.1759 27.8719 27.1307 27.9106 27.0715C28.3417 26.4623 28.6791 25.7919 28.9113 25.0825C28.879 24.9902 28.8514 24.8932 28.9528 24.8609C29.0056 24.6344 29.0187 24.3887 29.0316 24.1455C29.0423 23.9427 29.053 23.7416 29.0866 23.5549C29.1493 22.7883 29.0536 22.0169 28.8052 21.2889L28.7453 21.1043C28.5491 20.6196 28.2012 20.2115 27.7538 19.9414C27.5657 19.863 27.3874 19.7998 27.2089 19.7365L27.2088 19.7365L27.2088 19.7364L27.2087 19.7364C27.0196 19.6694 26.8301 19.6023 26.6285 19.5168C26.2921 19.385 25.9403 19.2966 25.5816 19.2537C25.1772 19.2537 24.8045 19.2133 24.4493 19.1747C24.2293 19.1508 24.016 19.1276 23.8061 19.1153C23.6405 19.1226 23.4658 19.1003 23.2883 19.0776H23.2883H23.2883H23.2883H23.2882L23.2882 19.0776C23.1296 19.0574 22.9688 19.0368 22.8099 19.0368C22.4945 19.0472 22.1828 19.1096 21.8876 19.2214C21.7227 19.2829 21.5468 19.3096 21.3711 19.2999C21.2403 19.4024 21.1347 19.5334 21.0621 19.6829L21.0621 19.683C20.9883 19.8075 20.9883 19.8075 21.0206 19.8998C21.0184 20.3111 21.0711 20.7209 21.1774 21.1182C21.2047 21.4325 21.2697 21.7424 21.3711 22.0412C21.4187 22.3704 21.4898 22.6862 21.5607 23.0012C21.634 23.3266 21.707 23.6511 21.7539 23.9887C21.8261 24.2148 21.863 24.4209 21.9002 24.6289C21.9368 24.8328 21.9736 25.0386 22.0444 25.2671C22.1238 25.9232 22.2581 26.5716 22.4456 27.2053C22.4844 27.3259 22.501 27.4576 22.519 27.5998C22.5395 27.7624 22.5618 27.9388 22.6209 28.1283C22.6939 28.3642 22.7393 28.6001 22.7847 28.836C22.828 29.0616 22.8714 29.2872 22.9391 29.5128C23.1057 29.9885 23.2217 30.4804 23.285 30.9804L24.401 34.557C24.4241 34.6308 24.4241 34.6308 24.5578 34.6908C24.619 34.683 24.6811 34.6876 24.7406 34.7042C24.8 34.7209 24.8554 34.7493 24.9037 34.7878C25.0574 34.8611 25.2229 34.9065 25.3925 34.9216C25.5776 34.9081 25.7637 34.9189 25.9459 34.9539C26.0013 34.977 26.0797 34.977 26.1598 34.977H26.1598C26.2399 34.977 26.3218 34.977 26.3841 35L26.4901 34.9677C26.4706 34.9226 26.4605 34.8739 26.4605 34.8247C26.4605 34.7755 26.4706 34.7268 26.4901 34.6816L27.1634 34.7555L27.3156 34.5247C27.2882 34.4218 27.2789 34.3031 27.2698 34.1864C27.2605 34.0676 27.2513 33.951 27.2234 33.8555C27.0045 33.1049 26.7364 32.3695 26.421 31.6542L26.0889 30.5927C26.0257 30.3879 25.9418 30.2274 25.8651 30.0809ZM23.8983 20.4859L23.9214 20.5598L24.2073 20.4906L25.9413 20.8505C25.9938 20.829 26.0253 20.8384 26.0575 20.848C26.0876 20.857 26.1183 20.8661 26.1673 20.8505C26.4049 20.9675 26.6083 21.144 26.7576 21.3628C26.8951 21.7949 26.9299 22.2532 26.8591 22.7011C26.73 23.4697 26.3953 24.1889 25.8906 24.7825C25.6455 25.1658 25.3543 25.5177 25.0236 25.8301C24.9914 25.8845 24.9381 25.9265 24.8756 25.9759C24.7949 26.0396 24.6989 26.1154 24.6131 26.2454L24.4102 26.31L24.3042 26.2593C24.188 25.8301 24.0207 25.4164 23.8061 25.0271L23.2757 23.3288C23.1235 23.1674 23.021 22.9655 22.9806 22.7473C22.9689 22.7082 22.9333 22.6585 22.8922 22.6011C22.8362 22.5229 22.7701 22.4305 22.7408 22.3319L22.1781 20.5459C22.2966 20.4426 22.4291 20.4233 22.5637 20.4037L22.5637 20.4037C22.6335 20.3936 22.7038 20.3834 22.7731 20.3613C22.9543 20.3498 23.136 20.3498 23.3172 20.3613C23.4388 20.3756 23.5271 20.3998 23.6165 20.4243C23.7001 20.4472 23.7847 20.4703 23.8983 20.4859ZM32.6149 26.1115C32.6309 25.9948 32.6846 25.8865 32.7679 25.8032C32.8512 25.7198 32.9594 25.6661 33.0761 25.65L33.2467 25.5577C33.4596 25.3729 33.7304 25.2685 34.0122 25.2624L34.2013 25.1608C34.3261 25.0954 34.4337 25.1143 34.5574 25.136C34.6256 25.148 34.6988 25.1608 34.7824 25.1608C35.019 25.3073 35.2151 25.5108 35.3529 25.7526C35.4906 25.9945 35.5656 26.267 35.571 26.5453C35.7005 26.4922 35.7679 26.3696 35.8402 26.2379C35.8683 26.1867 35.8972 26.1342 35.9307 26.0838C36.2077 25.6424 36.1297 24.9423 36.0634 24.3464C36.0402 24.1385 36.0185 23.9434 36.0137 23.7763C35.9929 23.6694 35.9709 23.5628 35.9493 23.4579L35.9492 23.4575L35.9492 23.4574L35.9492 23.4573L35.9492 23.4572C35.8944 23.1913 35.8419 22.9365 35.8154 22.7149C35.8154 22.5974 35.7593 22.5789 35.6714 22.5498C35.6038 22.5276 35.5176 22.4991 35.4234 22.4149L35.5249 22.138L35.4004 21.8981C35.3515 21.7974 35.326 21.6869 35.326 21.575C35.326 21.4631 35.3515 21.3526 35.4004 21.252L35.3543 21.1643C35.6432 21.0195 35.9555 20.9273 36.2766 20.892L36.5395 20.7489C36.6569 20.7229 36.7788 20.7252 36.895 20.7557C37.0113 20.7862 37.1187 20.844 37.2082 20.9243C37.2181 20.9455 37.2558 20.9855 37.3019 21.0343L37.3019 21.0343L37.3019 21.0343L37.302 21.0343C37.4059 21.1444 37.5523 21.2995 37.5172 21.3858C37.5511 21.5645 37.6017 21.7038 37.649 21.8342C37.7238 22.0405 37.7906 22.2245 37.7708 22.5072C37.7734 22.6772 37.7872 22.8468 37.8123 23.0149C37.9362 23.7609 38.1448 24.694 38.3218 25.4858L38.3218 25.4859L38.3219 25.486L38.3219 25.4861L38.3219 25.4863C38.4482 26.051 38.5583 26.5437 38.6102 26.8453L38.6932 27.0022C38.7403 27.0965 38.7367 27.2227 38.7334 27.3415C38.7306 27.4438 38.7279 27.5406 38.7577 27.6068C38.824 27.7979 38.8522 28.0002 38.8408 28.2021C38.8547 28.2316 38.8593 28.2668 38.8638 28.3012C38.8726 28.3693 38.8811 28.4345 38.9607 28.4467C39.0335 28.3616 39.0693 28.2599 39.1057 28.1564C39.1384 28.0633 39.1716 27.9689 39.2328 27.8837C39.2328 27.7781 39.3139 27.2118 39.3942 26.651L39.3942 26.651L39.3942 26.6509L39.3942 26.6509C39.4718 26.1089 39.5487 25.5719 39.551 25.4608C39.5459 25.2187 39.5707 24.9769 39.6248 24.7409C39.629 24.7238 39.6328 24.7044 39.6368 24.6836C39.6634 24.5467 39.7012 24.3519 39.9614 24.404C39.9723 24.4257 39.9836 24.4476 39.9951 24.4696C40.0662 24.6063 40.1389 24.7462 40.0952 24.8655C40.109 25.0109 40.109 25.1424 40.109 25.2745C40.109 25.4066 40.109 25.5393 40.1228 25.6869C40.0477 26.1785 40.0168 26.6759 40.0306 27.173C40.0517 27.3498 40.0049 27.614 39.9636 27.8477C39.9327 28.0226 39.9048 28.1804 39.9107 28.2713C39.8761 28.5474 39.8206 28.8205 39.7447 29.0882L39.4495 29.8866L39.3527 29.9373C39.0607 30.0723 38.7495 30.1611 38.4303 30.2004C38.2709 30.1772 38.1198 30.1143 37.9909 30.0176C37.862 29.9208 37.7594 29.7933 37.6924 29.6466L37.5679 29.402C37.2614 29.0691 37.0861 28.6362 37.0745 28.1837C37.0248 27.9465 36.9703 27.741 36.9009 27.4792C36.8029 27.1093 36.6751 26.627 36.4888 25.7839L36.4679 25.8791C36.3385 26.472 36.2165 27.031 35.6955 27.3114C35.6955 27.3532 35.7069 27.4186 35.7197 27.4927C35.7352 27.5823 35.753 27.6845 35.7555 27.7729C35.8101 28.1295 35.817 28.2412 35.8241 28.3559C35.8308 28.4638 35.8377 28.5744 35.8846 28.8944C35.8944 29.6983 35.7585 30.4973 35.4834 31.2526C35.3183 31.6755 35.0097 32.0267 34.6118 32.2448C34.3226 32.4097 34.0164 32.5428 33.6987 32.6417L33.279 32.531C33.1747 32.5039 33.0833 32.4849 32.9933 32.4663L32.9933 32.4663L32.9933 32.4662L32.9932 32.4662C32.8685 32.4403 32.7465 32.415 32.5964 32.3694C32.3422 32.312 32.1099 32.1822 31.9277 31.9956C31.8087 31.8229 31.734 31.7723 31.6645 31.7252C31.5723 31.6627 31.4891 31.6064 31.3236 31.2803C31.3074 31.2478 31.2933 31.215 31.2795 31.1826L31.2795 31.1826C31.2187 31.0403 31.1616 30.9066 30.9362 30.8465L30.7794 30.5327C30.5282 29.8658 30.3729 29.1665 30.3182 28.4559C30.1825 26.8219 30.1209 26.273 29.972 24.9461L29.9308 24.5794C29.9102 24.0622 29.7404 23.5622 29.442 23.1395C29.4701 23.0226 29.5367 22.9185 29.6311 22.8441C29.6818 22.7057 29.7787 22.6549 29.8986 22.7011C30.0185 22.7472 30.5488 22.4611 30.5488 22.4611C30.7494 22.419 30.9584 22.4509 31.1373 22.551C31.3161 22.6511 31.4528 22.8126 31.5219 23.0056C31.5673 23.0939 31.5694 23.1775 31.5712 23.2492C31.5725 23.3013 31.5736 23.3472 31.5911 23.3841L31.6372 23.4718C31.7758 23.7917 31.8645 24.131 31.9001 24.4778C32.0148 24.7817 32.0862 25.1001 32.1122 25.4239L32.1165 25.4457C32.1888 25.8171 32.2624 26.1941 32.3935 26.6423C32.3935 26.6248 32.4053 26.6206 32.4178 26.616C32.4384 26.6086 32.4609 26.6005 32.435 26.5315L32.6149 26.1115ZM32.5503 27.8468C32.6009 28.2095 32.6446 28.5757 32.6878 28.937C32.7154 29.1686 32.7429 29.3982 32.7717 29.6235L32.8593 29.7989C32.9574 30.0156 32.9957 30.2546 32.97 30.4911C33.0061 30.8379 33.0948 31.1771 33.2329 31.4972L33.3666 31.7556C33.5557 31.6541 33.7448 31.5526 33.7771 31.4234C33.9386 31.2369 34.0679 31.0247 34.1598 30.7957C34.3673 30.0452 34.4269 29.2615 34.3351 28.4882C34.332 28.3253 34.2858 28.1661 34.2013 28.0267C33.991 28.0236 33.7818 27.9942 33.5787 27.9391C33.355 27.9227 33.1393 27.8481 32.9533 27.7226C32.7672 27.5972 32.6172 27.4252 32.518 27.2237L32.4811 27.1545C32.3889 27.2053 32.4811 27.2422 32.4811 27.2422C32.4789 27.3496 32.4983 27.4461 32.5174 27.5407C32.5376 27.6413 32.5575 27.7397 32.5503 27.8468ZM33.2421 26.3054C33.3212 26.3358 33.3541 26.4385 33.3898 26.5498C33.4083 26.6074 33.4275 26.6673 33.4542 26.7207C33.4942 26.8007 33.5582 26.8795 33.6217 26.9578C33.6827 27.0329 33.7432 27.1076 33.7817 27.1822L33.8739 27.353C33.9091 27.3336 33.9376 27.3344 33.9622 27.3351C34.002 27.3362 34.0316 27.337 34.063 27.2514C34.0561 26.9899 33.9614 26.7383 33.794 26.5373C33.6266 26.3364 33.3965 26.1977 33.1406 26.1438L33.2421 26.3054ZM50.762 21.7689C50.8535 21.3149 50.9244 20.8539 50.9955 20.3921L51.0294 20.1721C51.0267 19.8489 51.0529 19.5261 51.1078 19.2076C51.2172 19.1315 51.2125 19.0034 51.2084 18.8932C51.2063 18.8361 51.2044 18.7839 51.2185 18.7461C51.3061 18.3564 51.337 18.1074 51.364 17.8903C51.4008 17.5933 51.4303 17.3561 51.5875 16.9001C51.675 16.5801 51.7972 16.2706 51.9518 15.9771C52.0088 15.9258 52.0439 15.8642 52.077 15.8061C52.1244 15.7231 52.1678 15.647 52.2654 15.6171C52.4281 15.4572 52.6316 15.3452 52.8536 15.2931C53.0756 15.241 53.3076 15.2509 53.5244 15.3218C53.6369 15.4069 53.7306 15.5144 53.7997 15.6375C53.8687 15.7606 53.9116 15.8966 53.9256 16.0371C53.8718 16.0542 53.8543 16.0882 53.8381 16.1198C53.8237 16.1478 53.8103 16.1739 53.7734 16.1848C53.74 16.1918 53.7056 16.1917 53.6722 16.1845C53.6388 16.1774 53.6073 16.1633 53.5797 16.1432C53.4322 16.1063 53.4322 16.1063 53.4045 16.014C53.288 16.0496 53.2487 16.1534 53.2102 16.2551C53.1938 16.2985 53.1775 16.3414 53.1555 16.3786C53.1635 16.4738 53.1373 16.5687 53.0817 16.6463C52.8244 17.1609 52.6159 17.6986 52.4591 18.2523C52.4442 18.4943 52.3697 18.729 52.2423 18.9353C52.0726 19.3101 51.9786 19.7147 51.9656 20.126C51.9692 20.1357 51.9747 20.1446 51.9817 20.1522C51.9888 20.1598 51.9973 20.1659 52.0067 20.1702C52.0162 20.1745 52.0264 20.1769 52.0367 20.1772C52.0471 20.1775 52.0574 20.1758 52.0671 20.1721C52.1157 20.1876 52.1526 20.2157 52.1916 20.2454C52.234 20.2778 52.2789 20.312 52.3438 20.3336C52.4422 20.4927 52.4674 20.5219 52.5026 20.5626C52.5317 20.5963 52.5676 20.6379 52.6574 20.7674C52.8214 20.9553 52.9975 21.2109 53.1763 21.4703L53.1763 21.4703C53.3796 21.7653 53.5863 22.0654 53.7827 22.2765C53.8477 22.3465 53.9164 22.4253 53.9871 22.5064L53.9872 22.5065C54.3175 22.8853 54.69 23.3125 54.9218 23.1072C55.1792 22.7821 55.3084 21.827 55.4148 21.0401C55.4684 20.643 55.5163 20.2887 55.572 20.0798C55.6006 20.0178 55.591 19.973 55.5796 19.9194C55.5688 19.8693 55.5564 19.8114 55.572 19.7245C55.572 19.7007 55.5796 19.6708 55.5885 19.6362C55.6071 19.5631 55.631 19.4693 55.5997 19.3691C55.5536 19.2214 55.715 19.1707 55.8211 19.2168C55.8388 19.2765 55.8712 19.3283 55.9045 19.3815C55.934 19.4287 55.9641 19.4769 55.9853 19.5327C55.9278 19.0016 55.953 18.4637 56.0608 17.9385C56.1507 17.2954 56.2879 16.6599 56.4713 16.0371C56.5059 15.9563 56.6096 15.7833 56.7134 15.6102C56.8172 15.4371 56.9209 15.2641 56.9555 15.1833C57.1576 14.9012 57.4272 14.6743 57.7395 14.5234C57.8739 14.5217 58.0068 14.4951 58.1315 14.4449C58.3572 14.3653 58.6009 14.3512 58.8343 14.4043C59.0677 14.4573 59.2813 14.5754 59.4505 14.7449C59.3885 14.7735 59.2981 14.833 59.2093 14.8915C59.1264 14.946 59.045 14.9997 58.9893 15.0264C58.874 15.0818 58.5281 15.6448 58.5604 15.7509C58.5338 15.8153 58.5029 15.8809 58.4717 15.9473C58.3463 16.2141 58.2153 16.4928 58.3298 16.7478C58.2817 16.8846 58.2447 17.025 58.2191 17.1678C58.0943 17.4621 58.108 17.8298 58.1206 18.1696C58.129 18.3947 58.1369 18.6074 58.1038 18.7784C58.1478 18.8795 58.0871 19.0309 58.0254 19.1847C58.0223 19.1923 58.0193 19.1999 58.0162 19.2076C58.0289 19.3812 58.0377 19.6101 58.0467 19.8423C58.0572 20.1162 58.0679 20.3947 58.0854 20.5921C58.1822 20.8044 58.2791 21.0166 58.0854 21.2382C58.1826 21.4492 58.2222 21.5851 58.2543 21.6954C58.303 21.8626 58.3346 21.9711 58.5235 22.1935C58.6203 22.4058 59.1323 22.2904 59.2014 22.1289C59.3398 21.9683 59.4476 21.7837 59.5196 21.5843C59.6959 20.807 59.81 20.0169 59.8609 19.2214C59.9011 18.9305 59.8629 18.6342 59.7502 18.363C59.7922 18.2801 59.8004 18.1842 59.7733 18.0954C59.6425 17.7933 59.5886 17.4635 59.6165 17.1354C59.6204 16.8918 59.5599 16.6514 59.4413 16.4386C59.3675 16.2794 59.3237 16.1063 59.2798 15.9333C59.236 15.7602 59.1922 15.5871 59.1184 15.4279C59.2087 15.2704 59.3362 15.1376 59.4898 15.041C59.6434 14.9444 59.8183 14.8871 59.9993 14.8741C60.0667 14.892 60.1371 14.8959 60.2061 14.8856C60.2751 14.8753 60.3412 14.8509 60.4005 14.8141C60.4327 14.824 60.4699 14.8317 60.5085 14.8398C60.6687 14.8734 60.8545 14.9123 60.8248 15.1279C61.1151 15.2874 61.2016 15.5447 61.2908 15.8102C61.3177 15.8905 61.345 15.9716 61.3782 16.0509C61.4349 16.3104 61.4907 16.569 61.5465 16.8271C61.6176 17.1565 61.6886 17.4852 61.761 17.8138L61.9085 18.1323C62.0532 18.4516 62.1852 18.8189 62.3155 19.1813C62.447 19.547 62.5766 19.9077 62.7156 20.209L62.9093 20.6382C62.9981 20.4515 63.0498 20.2493 63.0615 20.0429C63.1787 19.5583 63.2312 19.0243 63.2866 18.4605C63.3314 18.0042 63.3781 17.5283 63.4627 17.0431C63.4166 16.937 63.6887 16.7616 63.8086 16.7063C63.9285 16.6509 64.0161 16.8309 63.9977 17.0985C63.9624 17.1809 63.9451 17.4639 63.9281 17.7427C63.9117 18.0106 63.8956 18.2747 63.8639 18.3538C63.8644 18.7301 63.8116 19.1045 63.7071 19.466C63.7375 19.8025 63.6803 20.1412 63.5411 20.449C63.5918 20.5551 63.5411 20.7167 63.4581 20.8828C63.4581 21.0159 63.4581 21.0828 63.453 21.1493C63.4478 21.2166 63.4375 21.2835 63.4166 21.4181C63.4135 21.4258 63.4105 21.4334 63.4074 21.441C63.3458 21.5948 63.285 21.7462 63.329 21.8473C63.4673 22.1473 63.0154 23.0149 62.6418 22.8257C62.613 22.8405 62.5795 22.8435 62.5485 22.8341C62.5175 22.8246 62.4914 22.8034 62.4758 22.7749C62.2804 22.7059 62.0741 22.6731 61.867 22.678C61.7517 22.7334 61.535 22.5765 61.4889 22.4704L61.392 22.2581C61.2741 21.7603 61.1009 21.2773 60.8755 20.8182L60.7787 20.6059L60.7095 20.7674C60.6955 20.974 60.6423 21.1761 60.5527 21.3628C60.59 21.4484 60.6061 21.5418 60.5996 21.6349C60.5932 21.7281 60.5644 21.8184 60.5158 21.8981C60.4646 22.1295 60.3725 22.3499 60.2437 22.5488C60.0166 22.9156 59.664 23.1871 59.2516 23.3128C58.8392 23.4385 58.3952 23.4097 58.0024 23.2318C57.4326 23.0079 56.9549 22.5981 56.6465 22.0689C56.2637 21.4524 56.0608 20.741 56.0608 20.0152C56.0419 19.9231 56.0256 19.8306 56.0117 19.7379C56.0113 19.7426 56.0107 19.7473 56.0101 19.7521C56.0101 19.7741 56.0127 19.8073 56.016 19.8488L56.016 19.849V19.849C56.0257 19.9732 56.0412 20.1712 56.0101 20.3613C56.0356 20.9711 55.9766 21.5814 55.8349 22.175L55.881 22.3227C55.9396 22.5308 55.9233 22.753 55.8349 22.9503C55.7304 23.1147 55.6823 23.3395 55.6355 23.558C55.5955 23.7446 55.5566 23.9265 55.4844 24.0625V24.1179C55.3292 24.3589 55.1062 24.5484 54.8434 24.6625C54.5713 24.9348 54.3822 24.9302 53.9717 24.8978C53.6853 24.8632 53.4093 24.769 53.1615 24.6211C52.9137 24.4733 52.6995 24.2751 52.5329 24.0395C52.2743 23.7056 52.037 23.3557 51.8227 22.9919C51.7752 22.8482 51.689 22.7204 51.5736 22.6227L51.5321 22.4934C51.4138 22.6 51.4068 22.656 51.3899 22.7913L51.3899 22.7916C51.387 22.8143 51.3839 22.8394 51.3799 22.8673C51.341 23.09 51.3003 23.2826 51.2631 23.459L51.2631 23.4591L51.2631 23.4592C51.2386 23.5751 51.2156 23.6841 51.1955 23.7903C51.1615 24.0738 51.1615 24.3604 51.1955 24.644C51.2923 25.1055 51.4353 25.7747 51.5413 26.2547C51.5546 26.5303 51.6237 26.8003 51.7443 27.0484C51.8042 27.173 50.8911 27.5607 50.7988 27.4869C50.737 27.5065 50.7249 27.5262 50.705 27.5585C50.6922 27.5791 50.6763 27.6049 50.642 27.6391L50.5959 27.8376C50.5694 27.8376 50.5452 27.8127 50.5189 27.7855C50.4811 27.7466 50.439 27.7032 50.3792 27.7222C50.2737 27.8278 50.1386 27.8986 49.9918 27.9253C49.8381 27.8046 49.6978 27.6319 49.5566 27.4579C49.4222 27.2925 49.287 27.126 49.1386 27.0023C49.0836 26.5404 48.98 26.0856 48.8296 25.6455C48.753 25.2782 48.6976 24.9069 48.6636 24.5333C48.6137 24.2298 48.5601 23.9472 48.5078 23.6716C48.4297 23.2598 48.3545 22.8639 48.2993 22.4381C48.2197 22.1741 48.1732 21.9013 48.1609 21.6258C48.1609 21.4974 48.1156 21.358 48.0698 21.217L48.0698 21.2169C48.0267 21.0843 47.9832 20.9503 47.9765 20.8228C47.8315 20.4383 47.7294 20.039 47.6721 19.6322C47.6077 20.0102 47.5752 20.3873 47.5428 20.7618L47.5428 20.7618C47.5033 21.2194 47.4641 21.673 47.3677 22.1196C47.2868 22.2312 47.2417 22.3648 47.2386 22.5027C47.2253 22.7014 47.1897 22.898 47.1325 23.0888C47.0799 23.2839 47.0717 23.3586 47.067 23.4021C47.0605 23.4615 47.0604 23.4628 46.9619 23.6333C46.9362 23.6604 46.922 23.684 46.9092 23.7052C46.8805 23.7528 46.8588 23.7889 46.7313 23.8272C46.6483 23.8549 46.5514 23.8272 46.4776 23.6656L46.4085 23.5226C46.4454 23.3472 46.4638 23.2595 46.4776 23.1534C46.6388 22.4291 46.7543 21.6954 46.8235 20.9567C46.9632 19.858 47.0095 18.7495 46.9619 17.6431C46.911 17.3988 46.9001 17.1479 46.9296 16.9001C46.9402 16.8499 46.9447 16.808 46.9484 16.773C46.9578 16.6858 46.9626 16.6416 47.0449 16.6186C47.0449 16.4571 48.1563 16.0048 48.2578 15.9725C48.4276 15.8453 48.6226 15.7556 48.8296 15.7094C48.9126 15.6863 49.0187 15.7325 49.0648 15.8802C49.2076 16.0006 49.3105 16.1615 49.36 16.3417C49.4847 16.6089 49.5597 16.8967 49.5814 17.1908C49.6651 17.5259 49.7319 17.8431 49.7991 18.1615L49.7991 18.1616C49.8725 18.5097 49.9462 18.8593 50.0425 19.2353C50.0674 19.3557 50.094 19.476 50.1204 19.5961L50.1204 19.5961C50.1822 19.8763 50.2436 20.1545 50.2823 20.4259C50.3662 20.8711 50.4616 21.2586 50.5754 21.7208C50.6055 21.8431 50.6369 21.9706 50.6697 22.1058C50.6967 22.0395 50.7198 21.9911 50.7378 21.9534C50.7811 21.8625 50.7946 21.8342 50.762 21.7689Z" fill="white"/>
<path fill-rule="evenodd" clip-rule="evenodd" d="M8.03203 11.0045C7.75401 10.6694 7.47339 10.3323 7.19017 9.99335C6.53363 9.14785 5.94521 8.48231 5.43355 7.90361C5.28608 7.73682 5.14499 7.57724 5.01048 7.42264C4.33719 6.63211 3.53917 5.82888 2.59597 5.30283L2.51802 5.24428C2.35724 5.14668 2.2257 5.07543 2.11365 5.0198L2.08149 5.01004C1.76253 4.94544 1.6438 5.20718 1.56744 5.37548C1.53767 5.44111 1.51434 5.49254 1.4881 5.50486C1.45107 5.58294 1.41112 5.66785 1.3702 5.76056C0.988238 6.88098 0.654026 8.0053 0.627718 9.0613C0.785158 9.26022 0.978519 9.42774 1.19773 9.55514C1.40627 9.69327 1.6307 9.80568 1.86616 9.88989C2.02498 9.93186 2.47807 10.0343 2.66905 10.0704C2.73055 10.0829 2.78578 10.0836 2.83572 10.0843C2.87599 10.0849 2.91282 10.0854 2.94674 10.0919C2.98085 10.0783 2.99254 10.0734 3.00423 10.0558C3.03306 10.0995 3.05223 10.1488 3.06047 10.2004C3.0687 10.2521 3.06581 10.305 3.05198 10.3554L3.02567 10.3896V10.3632C3.01514 10.3612 3.00425 10.3624 2.99438 10.3666C2.9845 10.3707 2.97607 10.3777 2.97013 10.3867L2.80254 10.4569C2.46075 10.5999 2.14219 10.5206 1.87248 10.4536C1.83464 10.4441 1.79775 10.435 1.7619 10.4267C1.67926 10.4034 1.59295 10.3961 1.50758 10.4052L1.41015 10.3818C1.17311 10.2972 0.948078 10.182 0.740747 10.0392C0.604125 9.93746 0.473956 9.82729 0.350994 9.70934C0.202888 10.6482 0.0820651 11.5978 0.0128841 12.5621C-0.0475275 14.4691 0.0966803 16.7324 0.612128 19.3519L0.646232 19.4798C0.675149 19.6253 0.701431 19.7582 0.725508 19.8799C0.903963 20.7822 0.961236 21.0718 1.07234 21.3389C1.12486 21.4651 1.1894 21.5864 1.28444 21.7649C1.43928 22.0557 1.67508 22.4987 2.07175 23.3632C2.1078 23.4354 2.14385 23.5076 2.18088 23.5798C3.18742 25.2214 6.06768 29.2873 7.62767 30.9972C7.95021 31.3524 8.28879 31.6978 8.61355 32.0292C8.87157 32.2924 9.12086 32.5468 9.34648 32.7901C9.64918 33.0646 9.94962 33.3285 10.2478 33.5816C10.2888 33.6172 10.318 33.6646 10.3316 33.7172C10.2881 33.8232 10.2352 33.9251 10.1737 34.0217C10.1961 34.094 10.1386 34.2062 10.0763 34.3048C10.0763 34.3048 10.0022 34.4219 10.0198 34.4795C10.0646 34.6229 9.86192 34.6229 9.86192 34.6229C9.85074 34.8843 9.77036 35.1379 9.62905 35.3578C9.49767 35.5511 9.42122 35.7764 9.40786 36.0098C9.39535 36.1598 9.3826 36.3238 9.36924 36.4956L9.36921 36.496C9.34512 36.8058 9.31907 37.1407 9.28899 37.464C9.2556 37.5661 9.25766 37.6765 9.29483 37.7773L9.34453 37.9354C9.34453 38.0505 9.35486 38.1424 9.36525 38.2347C9.37742 38.3429 9.38966 38.4516 9.38545 38.599C9.35135 38.846 9.32212 39.1075 9.49458 39.3047L9.49497 39.3059C9.51756 39.3787 9.56627 39.5357 9.49458 39.6521C9.50616 39.7059 9.52911 39.7565 9.56188 39.8006C9.59466 39.8447 9.6365 39.8813 9.68459 39.9078C9.72583 39.9212 9.75625 39.9396 9.7841 39.9565C9.83983 39.9902 9.8853 40.0178 9.98664 39.9859C10.1718 39.9283 10.2293 39.8161 10.279 39.6267C10.2998 39.5825 10.3201 39.5397 10.3399 39.4979C10.4361 39.2952 10.5226 39.1131 10.6171 38.8752C10.9747 37.8339 11.0507 36.8335 11.0906 35.719L11.0731 35.6614C11.0588 35.6164 11.0798 35.5861 11.0998 35.5573C11.118 35.531 11.1354 35.506 11.1247 35.472C11.1135 35.4364 11.122 35.3903 11.1306 35.3442C11.1391 35.2981 11.1476 35.252 11.1364 35.2163C11.0526 35.2427 11.0302 35.1705 11.0877 35.0582C11.0331 34.5878 11.0799 34.1476 11.1393 33.6255C11.1632 33.6612 11.1873 33.7101 11.2152 33.7668C11.3093 33.958 11.4474 34.2384 11.7698 34.4063C11.8897 34.5104 12.0027 34.6159 12.1143 34.7198L12.1143 34.7199C12.4741 35.0552 12.8177 35.3756 13.3219 35.5901C13.8004 35.8829 14.2437 36.0566 14.7465 36.0723C14.9302 36.1041 15.0719 36.0929 15.2266 36.0806L15.2267 36.0806C15.3182 36.0733 15.4141 36.0657 15.526 36.0664C15.633 36.0398 15.7303 35.9834 15.8066 35.9038C15.883 35.8242 15.9354 35.7246 15.9577 35.6165C16.0317 35.4984 16.0054 35.4125 15.9041 35.4437C15.7413 35.4345 15.5858 35.3728 15.4607 35.2681C15.4242 35.241 15.3874 35.2142 15.3506 35.1873C15.1454 35.0377 14.941 34.8887 14.8089 34.7166C14.706 34.6739 14.6122 34.5339 14.5278 34.408C14.4195 34.2463 14.3267 34.1079 14.2505 34.2286C14.1153 34.1397 13.9902 34.0363 13.8773 33.9202C13.8169 33.8949 13.7762 33.8382 13.7292 33.7725C13.6929 33.7218 13.6528 33.6658 13.5967 33.6148C13.5848 33.6197 13.572 33.6221 13.559 33.622C13.5461 33.6219 13.5334 33.6193 13.5215 33.6142C13.5096 33.6091 13.4989 33.6017 13.4899 33.5924C13.4809 33.5831 13.4738 33.5721 13.4691 33.5601C13.1458 33.2224 12.7905 32.9171 12.408 32.6485C12.3183 32.5827 12.2264 32.5077 12.1316 32.4302L12.1316 32.4301C11.9874 32.3123 11.8363 32.1888 11.6752 32.0835C11.7064 32.0161 11.7386 31.9468 11.7727 31.8766C12.5707 28.3631 12.7305 23.8033 11.9812 19.3314C11.4872 16.6485 9.67679 13.2833 8.03203 11.0045ZM2.31535 9.195L2.45761 9.25356C2.51926 9.2811 2.56524 9.29651 2.62416 9.31625L2.63328 9.31931C2.63837 9.32102 2.64356 9.32276 2.64887 9.32455C2.65103 9.32528 2.65321 9.32602 2.65541 9.32676C2.84186 9.34457 3.0299 9.33537 3.21373 9.29943C3.28278 9.28686 3.33779 9.26591 3.3911 9.24562C3.42881 9.23126 3.46567 9.21723 3.50605 9.20672C3.63862 9.14328 3.76163 9.06147 3.87144 8.9637L3.96888 8.8661C4.01035 8.82838 4.03812 8.77791 4.0478 8.72263L4.07314 8.69726C4.07443 8.68122 4.079 8.67057 4.08368 8.65967C4.08953 8.64603 4.09555 8.63199 4.09555 8.60649C4.09555 8.58771 4.09979 8.57302 4.10307 8.56169C4.1078 8.54533 4.11051 8.53596 4.09555 8.53134C4.10628 8.46345 4.09171 8.39398 4.05462 8.33615C4.05745 8.31842 4.05416 8.30026 4.0453 8.28465C4.03645 8.26904 4.02255 8.25691 4.0059 8.25026C4.04878 8.23563 4.07021 8.21415 4.07606 8.17902C4.09328 8.16123 4.09237 8.15178 4.09155 8.14326C4.09089 8.13636 4.09028 8.13007 4.09944 8.12046C4.09663 8.05781 4.10254 7.99507 4.11698 7.93405C4.06699 7.87943 4.04945 7.82297 4.03168 7.76577C4.01515 7.71258 3.99842 7.65875 3.95523 7.60515C3.82374 7.46415 3.67738 7.33784 3.51871 7.22842C3.39933 7.15609 3.26689 7.108 3.12896 7.08691C3.07649 7.08089 2.99918 7.08039 2.92421 7.07991H2.92421H2.9242C2.86553 7.07954 2.80829 7.07917 2.76552 7.07617C2.59607 7.10063 2.4316 7.15203 2.27833 7.22842C2.19502 7.25993 2.11395 7.2971 2.0357 7.33968C2.03149 7.34226 2.02722 7.34484 2.02293 7.34744C1.95876 7.38627 1.88857 7.42876 1.88857 7.49096L1.83888 7.54464C1.76486 7.65584 1.72057 7.78421 1.71026 7.91746C1.69913 7.92814 1.6997 7.93551 1.70031 7.94335C1.70097 7.95198 1.70168 7.96119 1.68688 7.97602C1.64108 8.02286 1.63523 8.058 1.66154 8.10387C1.64083 8.23566 1.65632 8.37062 1.70637 8.49426C1.77039 8.69135 1.92811 8.85564 2.089 9.02323L2.10586 9.0408C2.18178 9.08335 2.25214 9.13514 2.31535 9.195ZM5.71084 14.5483L5.71084 14.5482C5.73478 14.5214 5.75712 14.4963 5.76173 14.4691C5.89299 14.1962 5.9333 13.8883 5.87671 13.5908L5.83968 13.4727C5.83968 13.4727 5.8124 13.459 5.80656 13.4395C5.80071 13.42 5.7783 13.4268 5.75686 13.4336C5.60636 13.4329 5.45779 13.3996 5.32132 13.336C5.25666 13.3176 5.19725 13.2842 5.14788 13.2385C5.13246 13.2181 5.1198 13.2066 5.109 13.1969C5.09182 13.1813 5.07934 13.17 5.06798 13.134C5.05052 13.1256 5.0498 13.1123 5.04881 13.0942C5.0482 13.083 5.04748 13.0699 5.04264 13.055C5.02997 13.0159 5.06798 12.9818 5.105 12.9486C5.11961 12.944 5.13346 12.9373 5.14724 12.9306C5.17482 12.9173 5.20211 12.904 5.23459 12.9086C5.26106 12.9086 5.29077 12.9066 5.32107 12.9045C5.40232 12.899 5.48787 12.8932 5.52691 12.9252C5.57829 12.9088 5.62842 12.9348 5.67482 12.9588L5.67484 12.9588C5.68652 12.9649 5.69795 12.9708 5.70912 12.9759C5.71 12.9786 5.71141 12.9811 5.71326 12.9833C5.71511 12.9854 5.71737 12.9872 5.71991 12.9885C5.72245 12.9897 5.72521 12.9905 5.72804 12.9907C5.73088 12.9909 5.73371 12.9905 5.7364 12.9896C5.75037 12.9853 5.75791 12.9913 5.76821 12.9995C5.77443 13.0044 5.78167 13.0102 5.79194 13.015C5.79856 13.0339 5.82446 13.0464 5.85182 13.0596L5.8543 13.0608C5.86712 13.067 5.87774 13.0823 5.8876 13.0964C5.89948 13.1135 5.91026 13.129 5.92251 13.1252C5.92498 13.1339 5.93458 13.1433 5.94573 13.1541L5.94573 13.1541C5.96097 13.169 5.97909 13.1866 5.98584 13.2092L6.02482 13.1975C6.11558 13.1444 6.18255 13.0584 6.2119 12.9574C6.20897 12.9476 6.21458 12.9349 6.22018 12.9222C6.22578 12.9095 6.23139 12.8969 6.22846 12.8871C6.23505 12.883 6.24248 12.8805 6.25019 12.8798C6.25789 12.879 6.26567 12.8801 6.27291 12.8828C6.28016 12.8855 6.28668 12.8899 6.29198 12.8955C6.29615 12.9 6.29948 12.9051 6.30181 12.9107C6.31388 12.8061 6.35014 12.7003 6.40774 12.5933C6.42811 12.5378 6.4661 12.4905 6.5159 12.4586C6.61339 12.3512 6.73401 12.2675 6.86862 12.2137C6.90985 12.2211 6.95236 12.2135 6.98847 12.1922L7.07032 12.1522C7.143 12.1733 7.19237 12.1417 7.23987 12.1114C7.25604 12.101 7.272 12.0908 7.28858 12.0829L7.3295 12.0624C7.38003 12.081 7.42335 12.1152 7.45325 12.16C7.53655 12.2184 7.60606 12.2943 7.6569 12.3825C7.70176 12.4801 7.71888 12.6 7.7352 12.7143C7.75007 12.8185 7.76427 12.918 7.79818 12.9915C7.81401 13.0257 7.85468 13.1693 7.8946 13.3101C7.93333 13.4468 7.97135 13.581 7.98526 13.6103C8.01757 13.528 8.04173 13.4426 8.05737 13.3556C8.0691 13.2997 8.07669 13.2609 8.08414 13.2228L8.08415 13.2228L8.08416 13.2228L8.08416 13.2228C8.09651 13.1596 8.10847 13.0984 8.13824 12.9652C8.14219 12.9516 8.14463 12.935 8.14713 12.918L8.14713 12.918L8.14713 12.918L8.14713 12.9179C8.15451 12.8678 8.16231 12.8147 8.21035 12.8285H8.22204C8.29723 12.8511 8.2707 12.99 8.25546 13.0697L8.25546 13.0697L8.25543 13.0699C8.25291 13.0831 8.2507 13.0946 8.24932 13.1038C8.21754 13.3392 8.1677 13.5719 8.10024 13.7996C8.08392 13.8726 8.0866 13.9486 8.10803 14.0202C8.11533 14.0487 8.11533 14.0786 8.10803 14.1071C8.11121 14.1452 8.10953 14.1673 8.10822 14.1844C8.10592 14.2147 8.10477 14.2299 8.13337 14.2915C8.13146 14.3213 8.12538 14.339 8.11944 14.3563C8.1102 14.3831 8.1013 14.409 8.10901 14.4779C8.07801 14.5089 8.03751 14.5285 7.99403 14.5336H7.84982C7.79358 14.4885 7.72626 14.4596 7.65495 14.4496C7.6398 14.4442 7.62589 14.4358 7.614 14.4249C7.60212 14.4141 7.5925 14.4009 7.5857 14.3863C7.57891 14.3717 7.57507 14.3559 7.57441 14.3398C7.57375 14.3237 7.57629 14.3076 7.58187 14.2925C7.5908 14.2727 7.59979 14.2556 7.6079 14.2401C7.63343 14.1913 7.65032 14.1591 7.62962 14.1139C7.59711 14.0194 7.57776 13.9209 7.57212 13.8211C7.53452 13.7119 7.49897 13.5957 7.46244 13.4764L7.46243 13.4764C7.38633 13.2277 7.30599 12.9652 7.19407 12.7231C7.18026 12.6936 7.17367 12.6587 7.1669 12.6228C7.15981 12.5853 7.15253 12.5468 7.13658 12.5123L7.10345 12.4421C7.00601 12.4069 6.97386 12.4225 6.92611 12.4918C6.84481 12.5369 6.78226 12.6096 6.74975 12.6968C6.70586 12.7527 6.68063 12.8209 6.67764 12.892C6.66375 12.9333 6.65868 12.977 6.66273 13.0204C6.66679 13.0638 6.6799 13.1059 6.70121 13.1439C6.72252 13.1818 6.75155 13.2149 6.78643 13.241C6.82131 13.267 6.86126 13.2854 6.9037 13.2951C6.91832 13.3243 6.97581 13.3419 6.95924 13.3048C7.01525 13.2844 7.07667 13.2844 7.13268 13.3048C7.15943 13.2925 7.18851 13.2862 7.21794 13.2862C7.24737 13.2862 7.27645 13.2925 7.3032 13.3048C7.31737 13.3354 7.31524 13.3531 7.3129 13.3725C7.3101 13.3958 7.307 13.4214 7.33145 13.4746C7.33145 13.518 7.32161 13.5595 7.31082 13.6049C7.30096 13.6465 7.29031 13.6914 7.28566 13.744C7.26961 13.9451 7.19735 14.1375 7.07714 14.2993C7.0228 14.3712 6.9422 14.4186 6.85303 14.4311C6.8112 14.4515 6.7731 14.4379 6.73205 14.4233C6.70044 14.4121 6.66708 14.4002 6.62892 14.4028C6.58215 14.3881 6.24404 14.1227 6.23917 13.8748C6.23649 13.8488 6.23314 13.8273 6.23023 13.8085L6.23023 13.8085C6.22046 13.7456 6.21564 13.7146 6.25769 13.6552C6.2711 13.6311 6.29275 13.6127 6.31863 13.6034C6.34452 13.5941 6.37289 13.5945 6.39853 13.6044C6.42417 13.6144 6.44534 13.6334 6.45813 13.6578C6.47093 13.6822 6.47449 13.7104 6.46815 13.7372C6.46274 13.7558 6.45252 13.7783 6.44213 13.8012C6.42258 13.8442 6.40243 13.8886 6.41261 13.9109C6.51005 14.1061 6.67472 14.2603 6.70493 14.2437C6.81016 14.1793 6.88616 13.9089 6.90662 13.5869L6.86083 13.5732C6.7725 13.5814 6.68363 13.5653 6.60378 13.5266C6.52393 13.4879 6.45615 13.4281 6.40774 13.3536C6.35399 13.2677 6.32067 13.1809 6.30603 13.0932L6.29862 13.1057C6.28671 13.1258 6.2802 13.1411 6.27464 13.1542C6.26565 13.1753 6.25914 13.1906 6.23626 13.2111C6.20175 13.2714 6.15202 13.3216 6.09205 13.3565C6.09205 13.3985 6.10208 13.4192 6.11415 13.444C6.1209 13.4579 6.12829 13.4732 6.13492 13.4942C6.13847 13.506 6.14275 13.5158 6.1467 13.5249C6.15576 13.5456 6.16314 13.5625 6.15636 13.5918L6.16902 13.6308C6.19143 13.6897 6.20266 13.7522 6.20215 13.8152C6.21109 13.8428 6.20742 13.864 6.20448 13.881C6.20325 13.8881 6.20215 13.8944 6.20215 13.9002L6.22359 13.8933C6.22359 13.9355 6.22876 13.9713 6.23355 14.0046C6.23853 14.0391 6.24311 14.0708 6.24113 14.1041C6.23898 14.1074 6.23759 14.1112 6.23707 14.1151C6.23656 14.119 6.23692 14.1229 6.23813 14.1267C6.23935 14.1304 6.24139 14.1339 6.2441 14.1367C6.24681 14.1396 6.25012 14.1418 6.2538 14.1432C6.25793 14.1577 6.25622 14.1848 6.25486 14.2064C6.2543 14.2153 6.2538 14.2233 6.2538 14.2291C6.24073 14.3213 6.21241 14.4107 6.17 14.4935C6.15033 14.5448 6.12579 14.5938 6.09678 14.6402C6.09983 14.6429 6.10279 14.6457 6.10568 14.6487C6.15927 14.6692 6.17486 14.8625 6.13784 14.9474C6.112 14.9691 6.08311 14.9868 6.05209 15.0001C6.03599 15.0142 6.01671 15.0243 5.99695 15.0345C5.97725 15.0448 5.95706 15.0552 5.93906 15.0703C5.89127 15.0976 5.88088 15.1062 5.86992 15.1152C5.86167 15.122 5.8531 15.129 5.82798 15.1445C5.77777 15.1807 5.75913 15.1817 5.74285 15.1825C5.72754 15.1833 5.71432 15.184 5.6789 15.2138C5.67057 15.2279 5.65885 15.2396 5.6448 15.248C5.56856 15.2945 5.50043 15.3532 5.44311 15.4217C5.42679 15.428 5.41283 15.4393 5.40316 15.4539L5.38074 15.4598C5.08464 15.7273 5.44297 15.8995 5.41738 15.8665L5.52495 15.9975C5.54402 16.0262 5.57114 16.0486 5.6029 16.0619C5.66628 16.0976 5.72394 16.1193 5.77492 16.1385C5.86344 16.1719 5.93183 16.1976 5.97512 16.2757C5.97031 16.2919 5.98808 16.3044 6.00447 16.316L6.00448 16.316C6.01469 16.3232 6.02437 16.33 6.02773 16.3372C6.03606 16.3526 6.04574 16.3701 6.05559 16.3879C6.07804 16.4284 6.10137 16.4705 6.11153 16.4943C6.11153 16.467 6.25476 16.6826 6.25769 17.0613L6.26353 17.1862C6.263 17.2132 6.26973 17.2399 6.28302 17.2634C6.2869 17.2731 6.27414 17.2948 6.26142 17.3166C6.24856 17.3385 6.23574 17.3604 6.24015 17.3697C6.24498 17.3843 6.24498 17.4001 6.24015 17.4146L6.26743 17.4654C6.26743 17.4654 6.2762 17.4849 6.25963 17.4927C6.26239 17.5492 6.25136 17.6054 6.22748 17.6567C6.23625 17.6752 6.21579 17.685 6.21579 17.685C6.20563 17.7471 6.18693 17.8075 6.16025 17.8645C6.14474 17.8947 6.12237 17.9207 6.09495 17.9405C6.06752 17.9604 6.03582 17.9735 6.0024 17.9787C5.9382 17.9915 5.87228 17.9932 5.80752 17.9836C5.77581 17.9736 5.7418 17.9736 5.71008 17.9836L5.69929 17.9849C5.63592 17.9925 5.5674 18.0008 5.52593 17.9592C5.51554 17.9642 5.50816 17.9618 5.50074 17.9595C5.49355 17.9572 5.48631 17.9549 5.47623 17.9592L5.36223 17.8802C5.25752 17.7836 5.17018 17.6697 5.10402 17.5435C5.04533 17.439 5.00667 17.3245 4.99002 17.2058C4.95354 17.0876 4.92969 16.9659 4.91889 16.8427C4.93344 16.7656 4.93344 16.6865 4.91889 16.6095C4.91189 16.498 4.92679 16.3863 4.96273 16.2805C4.97723 16.2203 5.00484 16.1639 5.04361 16.1156C5.12292 16.1057 5.20339 16.1117 5.28038 16.1332C5.28038 16.1332 5.30961 16.1429 5.31741 16.1615C5.36977 16.1615 5.37934 16.1773 5.39794 16.2081L5.39926 16.2103C5.41056 16.229 5.40449 16.2355 5.39892 16.2415C5.39489 16.2458 5.39111 16.2499 5.39439 16.2581C5.40606 16.3371 5.395 16.3775 5.38426 16.4167C5.37707 16.4429 5.37003 16.4686 5.37003 16.505C5.37685 16.5206 5.36223 16.5548 5.34956 16.5831C5.35409 16.5927 5.36174 16.5947 5.36983 16.5968C5.37739 16.5989 5.38534 16.601 5.39146 16.6095C5.38379 16.6262 5.3804 16.6446 5.38159 16.663C5.38278 16.6814 5.38851 16.6992 5.39828 16.7149C5.39384 16.7622 5.40261 16.8098 5.42362 16.8525L5.43239 16.871C5.43239 16.9123 5.44339 16.9443 5.45432 16.9761C5.46637 17.0112 5.47833 17.046 5.47526 17.0926C5.49958 17.1318 5.51427 17.1763 5.51813 17.2224C5.52746 17.2388 5.53477 17.2606 5.54273 17.2843C5.55222 17.3125 5.56264 17.3435 5.57854 17.3717C5.58918 17.3905 5.59957 17.4276 5.61143 17.4699C5.63216 17.5439 5.6574 17.6341 5.69644 17.6713C5.70046 17.6809 5.70034 17.6915 5.70021 17.7022C5.70008 17.7122 5.69996 17.7224 5.70326 17.7318C5.71903 17.7367 5.73317 17.7459 5.74419 17.7582C5.75692 17.7179 5.76701 17.6768 5.77439 17.6352C5.79993 17.3764 5.79009 17.1154 5.74516 16.8593C5.71861 16.6932 5.66669 16.5323 5.59121 16.3821C5.53584 16.237 5.48121 16.1889 5.37001 16.0911L5.36999 16.091C5.35402 16.077 5.33687 16.0619 5.31838 16.0453C5.05267 15.8188 5.06526 15.7982 5.09558 15.7485C5.10707 15.7296 5.1211 15.7066 5.12351 15.6667C5.12223 15.6459 5.12569 15.625 5.13362 15.6058C5.14155 15.5865 5.15376 15.5693 5.1693 15.5554C5.17716 15.5446 5.16819 15.5417 5.15785 15.5384C5.14768 15.5351 5.13619 15.5314 5.13812 15.5193C5.23006 15.1721 5.31793 15.0883 5.43291 14.9786L5.43293 14.9786L5.43298 14.9786L5.43302 14.9785L5.43304 14.9785C5.45572 14.9569 5.47946 14.9342 5.50449 14.9083C5.52376 14.8894 5.54344 14.871 5.56353 14.853C5.52039 14.8409 5.47791 14.8265 5.43629 14.8098C5.32963 14.7637 5.2393 14.6865 5.17711 14.5882L5.09136 14.312C5.09136 14.2621 5.08699 14.2035 5.08278 14.1471C5.07984 14.1076 5.07698 14.0692 5.07577 14.0358L5.06408 13.9968C5.04196 14.0037 5.03249 14.0121 5.02303 14.0204C5.01374 14.0286 5.00446 14.0369 4.98321 14.0436C4.97541 14.0568 4.96615 14.0651 4.9569 14.0734C4.94764 14.0817 4.93838 14.09 4.93059 14.1032C4.9186 14.1054 4.90721 14.1101 4.89714 14.117C4.88708 14.1239 4.87856 14.1328 4.87212 14.1432C4.89667 14.2224 4.91396 14.3038 4.92377 14.3862C4.94377 14.4904 4.95292 14.5963 4.95105 14.7024C4.95651 14.7192 4.94984 14.7397 4.94314 14.7602C4.93429 14.7874 4.92538 14.8147 4.94423 14.8342C4.94655 14.858 4.94265 14.8821 4.93291 14.904C4.92318 14.9259 4.90794 14.9449 4.88869 14.9591C4.88138 14.9938 4.86785 15.0268 4.84874 15.0567C4.78054 15.1093 4.70668 15.1542 4.62853 15.1904L4.61684 15.2011C4.49276 15.2272 4.365 15.2305 4.23975 15.2109C4.12564 15.1905 4.02223 15.1308 3.94744 15.042C3.93054 15.0261 3.91507 15.0149 3.8995 15.0037C3.88365 14.9922 3.86769 14.9807 3.85 14.964C3.83458 14.9689 3.78439 14.8617 3.75959 14.8088L3.75959 14.8088C3.74991 14.7881 3.7441 14.7757 3.74574 14.7815C3.73763 14.7945 3.7266 14.792 3.7134 14.7774C3.69536 14.818 3.68358 14.8612 3.67851 14.9054C3.65539 15.0369 3.60646 15.1625 3.53454 15.2749C3.46262 15.3873 3.36914 15.4843 3.25953 15.5603C3.07732 15.7077 2.86977 15.7438 2.61448 15.7623C2.46563 15.7733 2.31614 15.7523 2.17601 15.7008C2.04782 15.65 1.92314 15.5906 1.80283 15.5232C1.6603 15.4149 1.54156 15.2783 1.454 15.1221C1.44057 15.079 1.41529 15.0262 1.39238 14.9783C1.37373 14.9393 1.35664 14.9036 1.34877 14.8791C1.26205 14.7073 1.25133 14.3979 1.25133 14.1959C1.28873 13.9636 1.36308 13.7389 1.47154 13.5303C1.53412 13.4135 1.60822 13.3033 1.69272 13.2014C1.74163 13.1398 1.78052 13.1013 1.82736 13.0549C1.84583 13.0366 1.86555 13.0171 1.8876 12.9945C1.94898 12.9314 2.04782 12.9071 2.11704 12.8901L2.11707 12.8901L2.11712 12.8901C2.13577 12.8855 2.15227 12.8815 2.1653 12.8773C2.19683 12.8673 2.22786 12.8655 2.25823 12.8638H2.25824C2.28699 12.8621 2.31516 12.8605 2.34263 12.852C2.45061 12.8342 2.56094 12.8365 2.66808 12.8588C2.68633 12.8692 2.70346 12.8713 2.72053 12.8734C2.73535 12.8751 2.75011 12.8769 2.76551 12.8842C2.76264 12.8717 2.76424 12.8609 2.7658 12.8503C2.76741 12.8394 2.76898 12.8287 2.76551 12.8168C2.77272 12.787 2.77684 12.7916 2.78057 12.7957C2.78442 12.7999 2.78784 12.8037 2.79377 12.769C2.81508 12.6777 2.82919 12.6747 2.88501 12.6629C2.90319 12.659 2.92581 12.6542 2.95454 12.6451C3.01983 12.6548 3.09388 12.6968 3.07147 12.73C3.07551 12.7844 3.07583 12.7887 3.07499 12.7889C3.07492 12.7889 3.07484 12.7889 3.07476 12.7889C3.07366 12.7888 3.07147 12.7885 3.07147 12.8471C3.0751 12.8584 3.07422 12.8712 3.07319 12.8863C3.07173 12.9075 3.06996 12.9332 3.08024 12.9652C3.08402 12.977 3.08183 12.9898 3.07928 13.0048C3.07591 13.0245 3.07192 13.048 3.08024 13.0774C3.09908 13.0713 3.09783 13.0835 3.09611 13.1001C3.09507 13.1101 3.09387 13.1218 3.0968 13.1321C3.0847 13.2517 3.07949 13.372 3.08121 13.4922C3.08421 13.5015 3.08357 13.512 3.08294 13.5223C3.08172 13.5421 3.08055 13.5613 3.10557 13.5703C3.1183 13.6106 3.11256 13.6438 3.10845 13.6676C3.10689 13.6765 3.10557 13.6842 3.10557 13.6903C3.09962 13.7467 3.10765 13.8037 3.12896 13.8562C3.13773 13.8836 3.13773 13.8836 3.11629 13.9207L2.92142 13.9831L2.8649 14.0007C2.80327 13.9546 2.78861 13.8903 2.77434 13.8278C2.76988 13.8083 2.76546 13.7889 2.75967 13.7704C2.75195 13.7447 2.75307 13.7206 2.75416 13.6971C2.75526 13.6732 2.75634 13.65 2.74798 13.6269C2.73105 13.5207 2.72778 13.4128 2.73823 13.3058C2.72609 13.2667 2.72609 13.2248 2.73823 13.1857C2.74064 13.1375 2.73836 13.0891 2.73141 13.0413C2.68375 13.0042 2.62545 12.9834 2.5651 12.982C2.50475 12.9806 2.44555 12.9986 2.39622 13.0335C2.20403 13.1424 2.05276 13.3114 1.96555 13.5146C1.95543 13.5321 1.95103 13.547 1.94745 13.5591C1.94242 13.5761 1.93903 13.5876 1.92365 13.5927C1.91156 13.6094 1.90806 13.625 1.90441 13.6413C1.901 13.6566 1.89744 13.6724 1.88662 13.6903C1.8165 13.8621 1.77217 14.0433 1.75508 14.2281C1.73617 14.4479 1.75229 14.6692 1.80283 14.8839C1.82134 15.0508 1.85057 15.1884 1.98309 15.2938C2.02841 15.3528 2.08591 15.4013 2.15166 15.436C2.21741 15.4707 2.28986 15.4908 2.36407 15.4949C2.46987 15.5194 2.58034 15.5147 2.68367 15.4812C2.78463 15.4439 2.8766 15.3857 2.95357 15.3104C3.16209 15.1582 3.24588 14.9562 3.30142 14.7336C3.30967 14.7207 3.31453 14.7058 3.31555 14.6905C3.31657 14.6751 3.31373 14.6598 3.30727 14.6458C3.28096 14.5628 3.32968 14.5218 3.39496 14.5014C3.43304 14.4863 3.47456 14.4823 3.51481 14.4896C3.53701 14.4843 3.56043 14.4878 3.58009 14.4994C3.58388 14.5015 3.58737 14.5039 3.59062 14.5066C3.51881 14.3061 3.44159 14.047 3.39659 13.896L3.39657 13.8959C3.38367 13.8526 3.37342 13.8183 3.36671 13.7967C3.35484 13.7587 3.34088 13.6953 3.32676 13.6313L3.32675 13.6312C3.3119 13.5638 3.29687 13.4956 3.28389 13.4551C3.25878 13.3594 3.2444 13.2612 3.24101 13.1623C3.23085 13.0906 3.23486 13.0463 3.23886 13.0022C3.2429 12.9575 3.24693 12.913 3.23614 12.8403C3.23844 12.6894 3.25508 12.539 3.28583 12.3913C3.31897 12.2675 3.36064 12.1462 3.41055 12.0282C3.43475 11.9445 3.46384 11.9133 3.50306 11.8712C3.51913 11.8539 3.53689 11.8349 3.55671 11.8096C3.58285 11.7777 3.61627 11.7526 3.65415 11.7364C3.66335 11.7209 3.69055 11.7206 3.73434 11.7202C3.76473 11.7199 3.80311 11.7196 3.84902 11.714L3.964 11.7472L3.96509 11.7477C3.99273 11.7605 4.04701 11.7858 4.06144 11.8252C4.09554 11.8575 4.13549 11.9102 4.12575 11.956C4.13335 11.9805 4.14935 12.0058 4.16488 12.0303C4.18715 12.0655 4.20847 12.0992 4.20273 12.1268C4.18815 12.17 4.1987 12.2133 4.2089 12.255C4.21573 12.2831 4.22241 12.3104 4.22124 12.3367C4.21257 12.3982 4.20362 12.4467 4.1955 12.4907C4.18262 12.5605 4.17183 12.6189 4.16765 12.6997C4.17841 12.7337 4.16548 12.7697 4.15218 12.8068C4.1426 12.8335 4.13282 12.8607 4.13159 12.8881C4.13571 12.9376 4.12177 12.9757 4.10735 13.0151C4.09106 13.0596 4.07415 13.1058 4.0819 13.1721C4.03557 13.4088 3.95068 13.5523 3.86458 13.6978L3.86458 13.6978L3.86458 13.6978C3.84204 13.7359 3.81942 13.7742 3.79738 13.8143C3.78646 13.834 3.90731 14.0997 3.97146 14.2407L3.97147 14.2407L3.97148 14.2407C3.99313 14.2883 4.00832 14.3217 4.0098 14.3267C4.07 14.4718 4.15216 14.6067 4.25339 14.7268C4.29858 14.7869 4.34808 14.8437 4.4015 14.8966C4.40832 14.9161 4.4356 14.9288 4.46386 14.9415C4.49661 14.9311 4.51003 14.9018 4.52149 14.8769C4.52503 14.8692 4.52839 14.8619 4.53207 14.8556C4.56727 14.7404 4.57789 14.619 4.56325 14.4994L4.53012 14.3159C4.52278 14.2805 4.50435 14.2484 4.4775 14.2242C4.46378 14.218 4.45166 14.2165 4.43971 14.2149C4.42704 14.2133 4.41456 14.2117 4.40052 14.2047C4.35645 14.2109 4.31155 14.2023 4.27288 14.1803C4.25442 14.1786 4.23665 14.1724 4.22118 14.1622C4.20571 14.152 4.193 14.138 4.18421 14.1217C4.14508 14.0781 4.11465 14.0274 4.09457 13.9724C4.02385 13.8471 4.00165 13.7002 4.03221 13.5595C4.05459 13.5044 4.08772 13.4543 4.12965 13.4122C4.15054 13.3936 4.16176 13.376 4.17177 13.3604C4.18698 13.3366 4.19942 13.3172 4.23878 13.3048C4.26227 13.2875 4.29033 13.2776 4.31945 13.2762C4.34857 13.2748 4.37745 13.282 4.40247 13.297L4.59735 13.3868C4.61803 13.3961 4.63506 13.4205 4.65225 13.4452L4.65227 13.4452C4.65856 13.4543 4.66488 13.4633 4.6714 13.4717C4.76524 13.6279 4.83119 13.7993 4.86628 13.9782C4.90915 13.9607 5.09623 13.8592 5.08259 13.7547C5.0803 13.6794 5.08884 13.6041 5.10793 13.5312C5.11237 13.5075 5.12258 13.4827 5.13283 13.4579C5.1428 13.4337 5.15281 13.4094 5.15762 13.3858C5.17321 13.3595 5.1888 13.3331 5.21023 13.3263C5.28136 13.3263 5.35444 13.3761 5.3447 13.4239C5.37097 13.4791 5.38046 13.5409 5.37198 13.6015C5.36645 13.6276 5.35902 13.6473 5.35114 13.6683L5.35114 13.6683C5.34515 13.6843 5.3389 13.7009 5.33301 13.7216C5.33961 13.7362 5.33982 13.7465 5.34005 13.7578C5.34029 13.7698 5.34056 13.7829 5.3486 13.8035C5.35425 13.9216 5.38236 14.0376 5.43142 14.1451L5.4928 14.3403C5.5229 14.3928 5.55044 14.4389 5.57854 14.4859C5.59956 14.5211 5.62089 14.5568 5.64384 14.596L5.6643 14.6077C5.67703 14.5862 5.69431 14.5668 5.71084 14.5483ZM3.73989 13.5C3.74569 13.4486 3.7617 13.414 3.77791 13.379C3.79712 13.3374 3.81662 13.2953 3.81979 13.2238C3.88851 12.9689 3.87598 12.5986 3.8658 12.2977C3.86429 12.253 3.86283 12.2098 3.86169 12.1688C3.86614 12.1154 3.85744 12.0618 3.83636 12.0126C3.80713 11.915 3.73892 11.7501 3.62687 11.875C3.61904 11.8883 3.61686 11.8998 3.61466 11.9114C3.61247 11.9229 3.61027 11.9346 3.60251 11.9482C3.58779 11.9932 3.57831 12.0397 3.57425 12.0868C3.5668 12.0994 3.56647 12.1149 3.56614 12.1305C3.56577 12.1476 3.5654 12.1648 3.55574 12.1785C3.5524 12.2429 3.54396 12.3089 3.53551 12.3749L3.53551 12.3749C3.52666 12.4441 3.5178 12.5132 3.51481 12.5806C3.52358 12.6861 3.52651 12.771 3.52943 12.8568L3.55379 12.9359C3.55379 12.9697 3.54994 12.988 3.54683 13.0028C3.54212 13.0252 3.53911 13.0395 3.55379 13.0872L3.55963 13.1067C3.59062 13.2691 3.63262 13.4292 3.68533 13.5859C3.6862 13.5887 3.68764 13.5913 3.68956 13.5936C3.69148 13.5958 3.69384 13.5976 3.69649 13.5989C3.69914 13.6002 3.70203 13.6009 3.70497 13.601C3.70791 13.6011 3.71084 13.6006 3.71359 13.5996C3.73015 13.5927 3.73989 13.5195 3.73989 13.5ZM4.42975 14.0661L4.41806 14.027C4.38132 13.873 4.33411 13.7217 4.27678 13.5742C4.27447 13.5628 4.26958 13.5522 4.26248 13.543C4.25538 13.5339 4.24627 13.5265 4.23585 13.5215C4.23454 13.5163 4.2317 13.5117 4.22771 13.5082C4.22372 13.5047 4.21877 13.5025 4.2135 13.5018C4.20823 13.5012 4.20289 13.5022 4.19818 13.5046C4.19348 13.5071 4.18963 13.5109 4.18714 13.5156C4.17003 13.5208 4.17903 13.5994 4.18425 13.6449C4.18588 13.6591 4.18714 13.6701 4.18714 13.6747C4.21149 13.7538 4.30114 14.0417 4.40637 14.0729L4.42975 14.0661ZM5.69645 13.177C5.62698 13.1183 5.55077 13.0682 5.46942 13.0276C5.44528 13.0243 5.41976 13.0166 5.3942 13.0089L5.39419 13.0089C5.36714 13.0008 5.34004 12.9926 5.31449 12.9896C5.30913 12.9861 5.30307 12.9838 5.29673 12.9829C5.29039 12.982 5.28392 12.9825 5.27779 12.9843C5.27166 12.9862 5.26602 12.9894 5.26125 12.9936C5.25648 12.9979 5.2527 13.0032 5.25018 13.0091C5.21316 13.0433 5.219 13.0628 5.25018 13.095C5.26628 13.1298 5.29197 13.1592 5.32424 13.1799L5.40414 13.2072C5.47247 13.2486 5.5514 13.2689 5.63117 13.2658C5.66972 13.2629 5.7081 13.258 5.74614 13.2511C5.73109 13.2235 5.71168 13.1984 5.68866 13.177H5.69645ZM1.85642 18.0012C1.86435 18.0263 1.87665 18.0499 1.89001 18.0754C1.90621 18.1064 1.92394 18.1404 1.93729 18.1837L2.00745 18.4082C2.0741 18.5594 2.13074 18.715 2.17699 18.8737C2.18289 18.8939 2.18482 18.9186 2.18679 18.9437C2.18872 18.9683 2.19069 18.9935 2.19648 19.0152L2.16432 19.064L2.02206 19.0484C2.01793 19.058 2.0158 19.0682 2.0158 19.0787C2.0158 19.0891 2.01793 19.0994 2.02206 19.1089L1.99965 19.1157C1.9865 19.1109 1.9692 19.1109 1.95227 19.1109C1.93534 19.1109 1.91878 19.1109 1.90709 19.106C1.86858 19.0986 1.82927 19.0963 1.79016 19.0992C1.75433 19.096 1.71935 19.0864 1.68688 19.0708C1.67668 19.0627 1.66496 19.0567 1.65241 19.0532C1.63986 19.0497 1.62673 19.0487 1.6138 19.0504C1.58554 19.0377 1.58554 19.0377 1.58067 19.0221L1.34487 18.2657C1.33149 18.1599 1.307 18.0559 1.27179 17.9553C1.2575 17.9076 1.24833 17.8599 1.23916 17.8122C1.22958 17.7623 1.22 17.7124 1.20456 17.6625C1.19209 17.6224 1.18737 17.5851 1.18303 17.5508C1.17923 17.5207 1.17572 17.4928 1.16753 17.4673C1.1279 17.3333 1.09955 17.1962 1.08276 17.0574C1.06781 17.0091 1.06002 16.9656 1.0523 16.9225C1.04443 16.8785 1.03663 16.8349 1.02138 16.7871C1.01147 16.7157 0.996041 16.647 0.980569 16.5782C0.965587 16.5116 0.950568 16.4448 0.940502 16.3752C0.919091 16.312 0.905351 16.2465 0.899578 16.18C0.877121 16.096 0.865979 16.0093 0.866448 15.9224C0.859627 15.9029 0.859628 15.9028 0.875218 15.8765C0.890551 15.8449 0.912878 15.8172 0.940502 15.7955C0.977631 15.7976 1.01478 15.7919 1.04963 15.7789C1.11201 15.7553 1.17785 15.7421 1.24451 15.7399C1.27805 15.7399 1.31202 15.7442 1.34551 15.7485L1.34552 15.7485H1.34552H1.34553H1.34554H1.34555H1.34556H1.34556C1.38307 15.7533 1.41998 15.758 1.45497 15.7565C1.49931 15.7591 1.54436 15.764 1.59084 15.769L1.59086 15.769L1.59088 15.769C1.66592 15.7772 1.74467 15.7857 1.83011 15.7857C1.9059 15.7948 1.98023 15.8135 2.05129 15.8414C2.09391 15.8594 2.13394 15.8736 2.17392 15.8878L2.17393 15.8878C2.21165 15.9012 2.24931 15.9146 2.28904 15.9312C2.38359 15.9883 2.45709 16.0746 2.49854 16.1771L2.5112 16.2161C2.56367 16.3701 2.58391 16.5332 2.57064 16.6953C2.56355 16.7348 2.5613 16.7773 2.55902 16.8202C2.5563 16.8717 2.55354 16.9236 2.54238 16.9715C2.52095 16.9784 2.52679 16.9989 2.53361 17.0184C2.48455 17.1684 2.41327 17.3102 2.32217 17.439C2.314 17.4515 2.30205 17.4611 2.28807 17.4664C2.29172 17.4792 2.28473 17.4866 2.27518 17.4968C2.26943 17.503 2.26275 17.5101 2.25689 17.52C2.20504 17.5979 2.14163 17.6673 2.06883 17.726C2.05613 17.7478 2.03646 17.7681 2.0164 17.7888L2.01639 17.7888L2.01638 17.7888C1.99337 17.8126 1.96986 17.8369 1.95581 17.8645C1.96068 17.8802 1.93924 17.887 1.91781 17.8938C1.91155 17.9092 1.90204 17.923 1.88992 17.9343C1.87781 17.9456 1.86338 17.9541 1.84765 17.9592L1.85642 18.0012ZM1.47933 16.0619L1.47446 16.0463C1.45045 16.043 1.43258 16.0381 1.41492 16.0333C1.39603 16.0281 1.37737 16.023 1.35169 16.02C1.3134 16.0175 1.275 16.0175 1.23671 16.02C1.22208 16.0246 1.20722 16.0268 1.19248 16.0289C1.16404 16.0331 1.13605 16.0371 1.11102 16.059L1.22989 16.4367C1.23608 16.4575 1.25005 16.4771 1.26189 16.4936C1.27056 16.5058 1.27809 16.5163 1.28056 16.5245C1.28911 16.5707 1.31076 16.6134 1.34292 16.6475L1.45497 17.0067C1.50033 17.089 1.53566 17.1765 1.56021 17.2673L1.58262 17.278L1.62549 17.2643C1.64361 17.2368 1.6639 17.2208 1.68094 17.2073C1.69415 17.1969 1.70541 17.188 1.71221 17.1765C1.78209 17.1104 1.84361 17.036 1.89539 16.9549C2.00204 16.8294 2.07274 16.6773 2.10001 16.5148C2.11497 16.4201 2.10763 16.3231 2.07858 16.2318C2.04702 16.1855 2.00406 16.1482 1.95386 16.1234C1.94351 16.1267 1.93702 16.1248 1.93066 16.1229C1.92385 16.1209 1.9172 16.1189 1.90611 16.1234L1.53975 16.0473L1.47933 16.0619ZM3.34836 17.1708C3.33077 17.1884 3.31942 17.2113 3.31603 17.236L3.27803 17.3248C3.28349 17.3394 3.27875 17.3411 3.2744 17.3427C3.27176 17.3437 3.26926 17.3446 3.26926 17.3483C3.24155 17.2535 3.22602 17.1738 3.21072 17.0952L3.20983 17.0906C3.20433 17.0221 3.18924 16.9548 3.165 16.8905C3.15749 16.8172 3.13876 16.7454 3.10946 16.6778L3.09972 16.6592C3.09603 16.6514 3.09579 16.6417 3.09552 16.6307C3.09514 16.6155 3.0947 16.5979 3.0851 16.5792C3.0705 16.5384 3.04163 16.5042 3.00384 16.483C2.96605 16.4619 2.92189 16.4551 2.87951 16.464C2.87951 16.464 2.76746 16.5245 2.74212 16.5148C2.71679 16.505 2.69633 16.5158 2.68561 16.545C2.66567 16.5608 2.6516 16.5828 2.64566 16.6075C2.7087 16.6969 2.74458 16.8026 2.74894 16.912L2.75764 16.9896C2.7891 17.2702 2.80212 17.3863 2.83079 17.7318C2.84235 17.8821 2.87516 18.03 2.92823 18.171L2.96136 18.2374C3.00898 18.2501 3.02104 18.2784 3.03389 18.3084C3.03681 18.3153 3.03977 18.3222 3.04321 18.3291C3.07818 18.3981 3.09576 18.41 3.11523 18.4232C3.12993 18.4332 3.1457 18.4439 3.17085 18.4804C3.20935 18.5198 3.25841 18.5473 3.31213 18.5594C3.34382 18.5691 3.3696 18.5744 3.39595 18.5799L3.39597 18.5799L3.39598 18.5799L3.39605 18.5799C3.41504 18.5839 3.43433 18.5879 3.45634 18.5936L3.54501 18.617C3.61216 18.5961 3.67684 18.568 3.73794 18.5331C3.82202 18.487 3.88721 18.4127 3.9221 18.3233C3.98022 18.1635 4.00894 17.9945 4.00687 17.8245C3.99695 17.7569 3.9955 17.7335 3.99409 17.7107C3.99259 17.6864 3.99113 17.6628 3.97959 17.5874C3.97905 17.5687 3.97531 17.5471 3.97203 17.5281C3.96931 17.5124 3.96692 17.4986 3.96692 17.4898C4.07699 17.4305 4.10277 17.3123 4.13011 17.1869L4.13198 17.1783L4.13451 17.1667C4.17388 17.345 4.20089 17.447 4.2216 17.5253C4.23626 17.5806 4.24776 17.6241 4.25826 17.6742C4.26072 17.7699 4.29776 17.8615 4.36252 17.9319L4.38883 17.9836C4.40297 18.0146 4.42465 18.0416 4.45188 18.0621C4.47912 18.0825 4.51104 18.0958 4.54473 18.1007C4.61217 18.0924 4.67792 18.0736 4.7396 18.0451L4.76007 18.0344L4.82242 17.8655C4.83847 17.8089 4.85019 17.7512 4.8575 17.6928C4.85625 17.6736 4.86215 17.6402 4.86869 17.6032C4.87742 17.5538 4.8873 17.4979 4.88284 17.4605C4.87993 17.3554 4.88645 17.2502 4.90232 17.1462C4.8994 17.115 4.8994 17.087 4.8994 17.059V17.059C4.8994 17.0311 4.8994 17.0033 4.89648 16.9725C4.90571 16.9473 4.89035 16.9177 4.87533 16.8888C4.87292 16.8841 4.87051 16.8795 4.86822 16.8749C4.81324 16.8639 4.80526 16.9051 4.79964 16.934C4.79879 16.9384 4.79799 16.9426 4.79709 16.9462C4.78567 16.9961 4.78043 17.0472 4.7815 17.0984C4.78102 17.1219 4.76478 17.2355 4.74838 17.3501C4.73141 17.4687 4.71427 17.5885 4.71427 17.6108C4.70136 17.6288 4.69434 17.6488 4.68743 17.6685C4.67974 17.6904 4.67218 17.7119 4.65678 17.7299C4.63996 17.7273 4.63817 17.7135 4.63631 17.6991C4.63536 17.6918 4.63439 17.6844 4.63145 17.6781C4.63385 17.6354 4.6279 17.5927 4.61391 17.5522C4.6076 17.5382 4.60817 17.5178 4.60877 17.4961C4.60947 17.471 4.61021 17.4443 4.60027 17.4244L4.58273 17.3912C4.57177 17.3274 4.5485 17.2232 4.52182 17.1038C4.48441 16.9363 4.44032 16.7389 4.41416 16.5811C4.40886 16.5456 4.40593 16.5097 4.40539 16.4738C4.40957 16.414 4.39546 16.3751 4.37965 16.3315C4.36965 16.3039 4.35897 16.2744 4.3518 16.2366C4.35923 16.2184 4.3283 16.1856 4.30633 16.1623C4.29659 16.152 4.28861 16.1435 4.28651 16.139C4.2676 16.122 4.24492 16.1098 4.22035 16.1034C4.19578 16.0969 4.17003 16.0964 4.14523 16.1019L4.08969 16.1322C4.02184 16.1397 3.95585 16.1592 3.89481 16.1898L3.90456 16.2083C3.89422 16.2296 3.88885 16.253 3.88885 16.2766C3.88885 16.3003 3.89422 16.3237 3.90456 16.345L3.93087 16.3957L3.90943 16.4543C3.92931 16.4721 3.94755 16.4781 3.96181 16.4828C3.9804 16.4889 3.99225 16.4929 3.99225 16.5177C3.99784 16.5646 4.00893 16.6185 4.02051 16.6747L4.02051 16.6747L4.02052 16.6747L4.02052 16.6747L4.02055 16.6749L4.02058 16.675C4.02513 16.6971 4.02976 16.7196 4.03415 16.7422C4.03516 16.7775 4.03975 16.8188 4.04464 16.8627C4.05866 16.9888 4.07513 17.1368 4.01661 17.2302C4.00952 17.2408 4.00343 17.2519 3.99749 17.2627C3.98221 17.2906 3.96798 17.3165 3.94061 17.3278C3.93947 17.2689 3.92363 17.2113 3.89452 17.1601C3.86541 17.109 3.82398 17.0659 3.77399 17.035C3.75632 17.035 3.74087 17.0323 3.72645 17.0297L3.72644 17.0297C3.70032 17.0251 3.67759 17.0211 3.65122 17.035L3.61127 17.0564C3.55173 17.0577 3.49451 17.0798 3.44952 17.1189L3.41347 17.1384C3.38882 17.1418 3.36596 17.1532 3.34836 17.1708ZM3.33143 17.8335L3.33143 17.8335L3.33143 17.8335L3.33142 17.8334L3.33142 17.8334L3.33141 17.8334L3.33141 17.8333C3.3223 17.757 3.31307 17.6796 3.30239 17.603C3.3039 17.5804 3.29971 17.5595 3.29543 17.5383C3.29141 17.5183 3.2873 17.4978 3.28777 17.4751C3.28777 17.4751 3.26829 17.4673 3.28777 17.4566L3.29557 17.4712C3.31652 17.5138 3.34822 17.5502 3.38753 17.5767C3.42684 17.6033 3.4724 17.6191 3.51968 17.6225C3.56258 17.6342 3.60677 17.6404 3.65122 17.6411C3.66908 17.6705 3.67883 17.7042 3.67948 17.7386C3.69887 17.9022 3.68629 18.0679 3.64245 18.2266C3.62303 18.2751 3.5957 18.3199 3.56158 18.3594C3.55476 18.3867 3.51481 18.4082 3.47486 18.4296L3.4466 18.375C3.41742 18.3073 3.3987 18.2355 3.39106 18.1622C3.39649 18.1122 3.38841 18.0616 3.36767 18.0158L3.34916 17.9787C3.34308 17.9312 3.3373 17.8827 3.33147 17.8338L3.33146 17.8338L3.33146 17.8337L3.33145 17.8337L3.33145 17.8336L3.33144 17.8336L3.33143 17.8335ZM3.47977 17.3287C3.47222 17.3052 3.46525 17.2835 3.44855 17.277L3.42711 17.2429C3.48116 17.2543 3.5298 17.2836 3.56516 17.3261C3.60052 17.3686 3.62054 17.4218 3.62199 17.4771C3.61536 17.4952 3.60911 17.495 3.6007 17.4948C3.5955 17.4946 3.58948 17.4945 3.58204 17.4986L3.56255 17.4624C3.55443 17.4467 3.54164 17.4309 3.52875 17.415C3.51533 17.3984 3.50182 17.3818 3.49337 17.3649C3.48773 17.3535 3.48367 17.3409 3.47977 17.3287ZM7.19957 16.0265C7.18455 16.1241 7.16957 16.2216 7.15023 16.3176C7.15711 16.3314 7.15426 16.3374 7.14511 16.3567C7.14132 16.3646 7.13645 16.3749 7.13074 16.3889C7.12381 16.3603 7.11718 16.3334 7.11082 16.3075L7.11081 16.3075C7.08677 16.2097 7.06661 16.1278 7.04889 16.0336C7.0407 15.9762 7.02774 15.9174 7.01469 15.8582L7.01468 15.8581L7.01466 15.858C7.00908 15.8327 7.00348 15.8073 6.99822 15.7818C6.97787 15.7023 6.9623 15.6284 6.9468 15.5548L6.94679 15.5548L6.94679 15.5548L6.94679 15.5548L6.94679 15.5548C6.9326 15.4874 6.91847 15.4203 6.90078 15.3495C6.89622 15.2873 6.88037 15.2264 6.85401 15.1699C6.84357 15.1318 6.82182 15.0978 6.79165 15.0723C6.78191 15.0411 6.7595 15.0313 6.74196 15.0362C6.69821 15.046 6.65703 15.0649 6.62114 15.0918C6.5997 15.0986 6.36487 15.1943 6.36487 15.2285C6.34749 15.2333 6.34648 15.2427 6.3445 15.2611C6.3437 15.2685 6.34275 15.2774 6.34052 15.288C6.33429 15.3404 6.3366 15.3935 6.34734 15.4451C6.35739 15.6791 6.34761 15.9135 6.3181 16.1459C6.30348 16.3021 6.27907 16.4573 6.24503 16.6104C6.2421 16.6329 6.2382 16.6514 6.23041 16.6885L6.24503 16.7188C6.26062 16.7529 6.28108 16.7588 6.29862 16.7529C6.32556 16.7448 6.33015 16.7372 6.33621 16.7271C6.33892 16.7226 6.34192 16.7177 6.34734 16.7119C6.36815 16.6759 6.36818 16.6756 6.36955 16.663C6.37055 16.6538 6.37227 16.638 6.38339 16.5968C6.39547 16.5564 6.40299 16.5148 6.4058 16.4728C6.40646 16.4437 6.41598 16.4154 6.43308 16.3918C6.45344 16.2974 6.46172 16.2014 6.47007 16.1047C6.47691 16.0255 6.48379 15.9457 6.49739 15.8658C6.50951 15.9518 6.53108 16.0363 6.5617 16.1176C6.56312 16.1445 6.57232 16.1729 6.58142 16.2009C6.5911 16.2307 6.60067 16.2602 6.60067 16.2874C6.60327 16.3456 6.6131 16.4033 6.62991 16.4592C6.64158 16.5492 6.65745 16.6329 6.67395 16.72L6.67396 16.72L6.67396 16.72L6.67397 16.7201C6.68501 16.7783 6.69634 16.8381 6.70688 16.9022C6.71406 16.9813 6.72577 17.0598 6.74196 17.1374C6.77373 17.2305 6.79562 17.3267 6.80724 17.4244C6.83859 17.4506 6.86716 17.4858 6.89555 17.5207C6.92539 17.5575 6.95504 17.5941 6.9875 17.6196C7.01851 17.6139 7.04707 17.599 7.06935 17.5766C7.08198 17.5726 7.09089 17.5818 7.09887 17.59C7.10443 17.5958 7.10955 17.601 7.11515 17.601L7.12489 17.5591C7.13212 17.5518 7.13549 17.5464 7.13818 17.542C7.14239 17.5352 7.14495 17.531 7.15802 17.5269C7.17751 17.5425 7.37044 17.4605 7.35777 17.4341C7.33229 17.3817 7.3177 17.3246 7.3149 17.2663C7.29248 17.1648 7.26228 17.0233 7.24182 16.9257C7.23465 16.8657 7.23465 16.8051 7.24182 16.7451C7.24606 16.7227 7.25092 16.6996 7.25609 16.6751L7.2561 16.6751L7.25611 16.675L7.25613 16.675C7.26399 16.6377 7.27257 16.597 7.28079 16.5499C7.28163 16.544 7.2823 16.5387 7.2829 16.5339L7.2829 16.5339C7.28646 16.5052 7.28794 16.4934 7.31295 16.4709L7.32172 16.4982C7.3461 16.5189 7.36431 16.5459 7.37433 16.5763C7.41963 16.6532 7.46975 16.7272 7.52439 16.7978C7.5596 16.8477 7.60484 16.8896 7.6572 16.9208C7.70956 16.9521 7.76788 16.972 7.82839 16.9793C7.91511 16.9862 7.95506 16.9872 8.01255 16.9296C8.06808 16.9054 8.11521 16.8654 8.14799 16.8144V16.8027C8.16324 16.7739 8.17147 16.7354 8.17991 16.696C8.1898 16.6498 8.19996 16.6022 8.22204 16.5675C8.24072 16.5257 8.24416 16.4788 8.23179 16.4348L8.22204 16.4035C8.25198 16.278 8.26444 16.1489 8.25907 16.02C8.26564 15.9797 8.26237 15.9379 8.26031 15.9116C8.25962 15.9028 8.25907 15.8958 8.25907 15.8911C8.2592 15.8901 8.25931 15.8891 8.25941 15.8881C8.26233 15.9077 8.26579 15.9273 8.26978 15.9468C8.26977 16.1003 8.31264 16.2507 8.39353 16.3811C8.45868 16.493 8.5596 16.5797 8.68 16.627C8.76298 16.6646 8.8568 16.6707 8.94393 16.6441C9.03107 16.6176 9.10557 16.5601 9.15355 16.4826C9.18076 16.4405 9.20023 16.3939 9.21103 16.345C9.22131 16.3281 9.22739 16.309 9.22875 16.2893C9.23011 16.2696 9.2267 16.2499 9.21883 16.2317C9.23776 16.1923 9.249 16.1495 9.25196 16.1058L9.26657 16.0717L9.28703 16.1166C9.33465 16.2137 9.37125 16.3158 9.39616 16.4211L9.41663 16.466C9.42637 16.4884 9.47217 16.5216 9.49653 16.5099C9.54029 16.5089 9.58387 16.5158 9.62514 16.5304C9.62845 16.5364 9.63396 16.5409 9.64051 16.5429C9.64706 16.5449 9.65413 16.5443 9.66022 16.5411C9.73915 16.5811 9.83464 16.3977 9.80541 16.3342C9.79612 16.3128 9.80895 16.2808 9.82198 16.2483L9.82392 16.2435C9.83269 16.1869 9.83269 16.1869 9.83269 16.1303V16.1302C9.85023 16.0951 9.86094 16.061 9.85023 16.0385C9.87964 15.9734 9.89173 15.9018 9.88531 15.8306C9.90739 15.7542 9.91854 15.675 9.91843 15.5954C9.92512 15.5787 9.92853 15.5228 9.93198 15.4662V15.4662C9.93558 15.4072 9.93924 15.3474 9.94669 15.33C9.95059 15.2733 9.93208 15.2353 9.90674 15.247C9.88141 15.2587 9.82392 15.2958 9.83366 15.3182C9.81579 15.4208 9.80592 15.5215 9.79644 15.618V15.618C9.78474 15.7372 9.77366 15.8501 9.74889 15.9526C9.74641 15.9963 9.73549 16.039 9.71674 16.0785L9.67581 15.9878C9.64645 15.924 9.61906 15.8478 9.59129 15.7704L9.59128 15.7704L9.59127 15.7704L9.59126 15.7704L9.59122 15.7703C9.56371 15.6937 9.53583 15.616 9.5053 15.5486L9.47412 15.4812C9.45881 15.4117 9.44382 15.3422 9.42879 15.2725L9.42867 15.2719C9.41694 15.2176 9.40518 15.1631 9.39324 15.1084C9.38623 15.0916 9.38048 15.0745 9.37477 15.0575L9.37477 15.0575L9.37477 15.0575L9.37477 15.0575C9.35592 15.0014 9.33766 14.9469 9.27632 14.9132C9.2826 14.8676 9.24333 14.8594 9.20949 14.8523L9.20948 14.8523C9.20133 14.8506 9.19349 14.8489 9.18667 14.8468C9.17415 14.8546 9.16017 14.8598 9.1456 14.862C9.13102 14.8641 9.11615 14.8633 9.1019 14.8595C9.06367 14.8623 9.02671 14.8744 8.99426 14.8948C8.9618 14.9153 8.93486 14.9433 8.9158 14.9767C8.93139 15.0103 8.94064 15.0469 8.9499 15.0835L8.9499 15.0835C8.95916 15.1201 8.96841 15.1567 8.984 15.1904C9.00908 15.2354 9.02185 15.2862 9.02103 15.3378C9.01513 15.4071 9.02651 15.4769 9.05416 15.5408C9.05989 15.5596 9.05814 15.5798 9.04929 15.5974C9.07309 15.6547 9.08117 15.7174 9.07267 15.7789C9.06192 15.9471 9.03781 16.1142 9.00057 16.2786C8.98535 16.3208 8.96256 16.3598 8.93333 16.3938C8.91872 16.4279 8.81056 16.4523 8.7901 16.4074C8.75019 16.3604 8.74351 16.3374 8.73323 16.3021C8.72644 16.2788 8.71807 16.25 8.69754 16.2054C8.73846 16.1586 8.718 16.1137 8.69754 16.0688C8.69384 16.027 8.69158 15.9681 8.68935 15.9102V15.9102L8.68935 15.9101L8.68935 15.9101V15.9101C8.68746 15.861 8.6856 15.8126 8.68292 15.776L8.68486 15.7711C8.69789 15.7386 8.71072 15.7066 8.70143 15.6852C8.70842 15.649 8.70675 15.6041 8.70498 15.5565C8.70231 15.4846 8.69941 15.4068 8.72579 15.3446C8.73119 15.3144 8.73901 15.2847 8.74918 15.2558C8.72499 15.2019 8.75266 15.1429 8.77916 15.0865C8.78575 15.0725 8.79227 15.0586 8.7979 15.045C8.79108 15.0225 8.86415 14.9035 8.88851 14.8917C8.90027 14.8861 8.91747 14.8748 8.93498 14.8632L8.93499 14.8632L8.93501 14.8632C8.95376 14.8508 8.97285 14.8383 8.98595 14.8322C8.95021 14.7964 8.90508 14.7714 8.85576 14.7602C8.80645 14.7489 8.75497 14.7519 8.70728 14.7688C8.68093 14.7794 8.65285 14.785 8.62446 14.7854C8.55847 14.8173 8.50151 14.8653 8.45881 14.9249C8.4515 14.942 8.42958 14.9786 8.40766 15.0152C8.38573 15.0518 8.36381 15.0884 8.3565 15.1055C8.31776 15.2372 8.28877 15.3716 8.26978 15.5076C8.247 15.6187 8.24168 15.7324 8.25383 15.8447C8.24935 15.8329 8.24297 15.8227 8.23674 15.8128C8.22971 15.8015 8.22287 15.7906 8.21912 15.7779C8.19671 15.7682 8.16261 15.7789 8.17235 15.8101C8.17896 15.8313 8.17391 15.8512 8.16998 15.8666C8.16812 15.8739 8.1665 15.8803 8.1665 15.8853C8.16321 15.9037 8.16583 15.9159 8.1681 15.9265C8.17052 15.9378 8.17255 15.9473 8.1665 15.9604C8.15474 16.0046 8.14462 16.0795 8.13328 16.1635V16.1635C8.1108 16.3299 8.08351 16.5319 8.02912 16.6007C7.98016 16.6441 7.90146 16.5537 7.83166 16.4736L7.83166 16.4736L7.83165 16.4736C7.81672 16.4565 7.80219 16.4398 7.78844 16.425C7.74698 16.3803 7.70331 16.3169 7.66037 16.2545L7.66036 16.2545L7.66034 16.2545L7.66033 16.2545L7.66032 16.2545L7.66031 16.2545C7.62254 16.1996 7.58534 16.1456 7.55069 16.1058C7.53172 16.0784 7.52414 16.0697 7.51799 16.0625C7.51056 16.0539 7.50523 16.0477 7.48444 16.0141C7.47072 16.0095 7.46125 16.0023 7.45228 15.9955C7.44404 15.9892 7.43624 15.9832 7.42597 15.9799C7.42393 15.9807 7.42175 15.9811 7.41956 15.981C7.41737 15.981 7.41522 15.9805 7.41322 15.9795C7.41123 15.9786 7.40944 15.9773 7.40795 15.9757C7.40703 15.9748 7.40625 15.9737 7.4056 15.9725C7.40519 15.9718 7.40483 15.971 7.40454 15.9702C7.40728 15.8832 7.42715 15.7976 7.463 15.7184C7.48991 15.6748 7.50564 15.6251 7.5088 15.5739C7.54194 15.4569 7.58598 15.3431 7.64034 15.2343C7.65209 15.2179 7.65762 15.1978 7.65593 15.1777C7.66058 15.1698 7.66402 15.1608 7.66749 15.1516L7.66749 15.1516C7.67563 15.1301 7.68394 15.1081 7.70855 15.1006C7.71439 15.1201 7.71439 15.1201 7.74557 15.1279C7.7514 15.1322 7.75806 15.1351 7.76511 15.1367C7.77215 15.1382 7.77944 15.1382 7.7865 15.1367C7.79428 15.1344 7.79711 15.1289 7.80015 15.123C7.80359 15.1163 7.80728 15.1091 7.81865 15.1055C7.81569 15.0758 7.80663 15.047 7.79204 15.021C7.77745 14.9949 7.75765 14.9722 7.73388 14.9542C7.68808 14.9392 7.63905 14.9371 7.59215 14.9481C7.54524 14.9592 7.50225 14.9829 7.46787 15.0167C7.44725 15.023 7.43808 15.0391 7.42808 15.0566C7.42107 15.0689 7.41366 15.0819 7.40161 15.0928C7.36895 15.1549 7.34314 15.2203 7.32464 15.288C7.29142 15.3844 7.28521 15.4346 7.27742 15.4974C7.27173 15.5433 7.2652 15.596 7.24669 15.6784C7.2437 15.6864 7.24411 15.6974 7.24455 15.7095C7.24542 15.7328 7.24642 15.7599 7.2233 15.776C7.2117 15.8433 7.20615 15.9116 7.20674 15.9799C7.20434 15.9955 7.20195 16.011 7.19957 16.0265ZM3.08901 8.14681C3.07601 8.14942 3.0614 8.16503 3.04516 8.19366L3.16793 8.17024C3.16793 8.17024 3.46609 8.02774 3.55281 8.07264C3.57203 8.08383 3.60725 8.07366 3.64171 8.06371C3.68238 8.05197 3.72199 8.04053 3.73307 8.06483C3.74898 8.06346 3.76499 8.06579 3.77984 8.07166V8.07167C3.77497 8.10875 3.77497 8.10875 3.80323 8.11656C3.81014 8.13387 3.82675 8.14375 3.84433 8.15422C3.87134 8.17029 3.90066 8.18774 3.90066 8.23563C3.91686 8.30035 3.91278 8.3685 3.88897 8.43082C3.88401 8.49112 3.86052 8.5484 3.82174 8.59478C3.77139 8.72673 3.7355 8.76098 3.62695 8.86454C3.60944 8.88124 3.59005 8.89975 3.5684 8.92076C3.49311 8.98999 3.40767 9.04726 3.31506 9.09058C3.23202 9.13611 3.18291 9.13821 3.13303 9.14035C3.10272 9.14164 3.07213 9.14295 3.03347 9.15401C2.96382 9.17722 2.88962 9.18325 2.81715 9.17158C2.80129 9.17199 2.78547 9.16968 2.77038 9.16475C2.71108 9.11658 2.64942 9.0732 2.58885 9.03059C2.41259 8.90657 2.24561 8.78909 2.17309 8.57917C2.1139 8.45411 2.08677 8.31624 2.09416 8.17804C2.08637 8.00627 2.09124 7.80522 2.30171 7.64907C2.54433 7.46363 2.91264 7.55537 3.02177 7.59929C3.10425 7.61471 3.18468 7.6396 3.26147 7.67347C3.42777 7.73504 3.49696 7.79619 3.53751 7.83203C3.55802 7.85016 3.57121 7.86181 3.58594 7.86378C3.39477 7.90362 3.22094 8.00263 3.08901 8.14681Z" fill="white"/>
</svg>
