<svg width="96" height="60" viewBox="0 0 96 60" fill="none" xmlns="http://www.w3.org/2000/svg">
<path fill-rule="evenodd" clip-rule="evenodd" d="M65.9233 20.1032C65.806 20.2348 65.6832 20.3724 65.5928 20.5251L65.4476 20.442C65.2847 20.1635 65.1332 19.9103 64.984 19.6608C64.7845 19.3274 64.589 19.0005 64.3753 18.6284L63.9395 17.2439C63.5912 16.481 63.3917 15.6587 63.3515 14.821C63.2944 14.6746 63.2926 14.5816 63.2908 14.4965C63.2892 14.4165 63.2877 14.3434 63.2408 14.2395C63.2827 14.093 63.327 13.975 63.3696 13.8619C63.4255 13.7131 63.4782 13.5729 63.5175 13.3881C63.5777 12.9582 63.5104 12.5201 63.3238 12.1282C63.393 11.789 62.8742 11.4359 62.3692 11.4359C62.217 11.4844 62.1063 11.6713 61.9956 11.8582C61.9615 12.0254 61.8904 12.1977 61.8197 12.3692C61.7469 12.5456 61.6744 12.7212 61.6429 12.8896C61.5073 13.4067 61.4468 13.9406 61.463 14.4749C61.5598 15.2156 60.2317 15.9355 59.9273 16.0601C59.6782 14.7912 59.21 13.5754 58.5438 12.4674C58.4974 12.408 58.4525 12.3436 58.4078 12.2795C58.2857 12.1044 58.1648 11.931 58.018 11.8651L56.6345 11.2282C56.4568 11.122 56.2518 11.0706 56.0451 11.0804C55.8383 11.0903 55.6391 11.161 55.4723 11.2836C55.1929 11.3713 55.1046 11.5092 54.9966 11.6778C54.9255 11.7888 54.8459 11.9131 54.6976 12.0451C54.3999 12.3441 54.1647 12.6994 54.0058 13.0904C53.7888 14.0877 53.9464 15.1301 54.4485 16.0186C54.5911 16.4091 54.8071 16.7686 55.0849 17.0777C55.1474 17.1937 55.2375 17.2923 55.3474 17.3648C55.4573 17.4373 55.5834 17.4813 55.7144 17.4931C55.989 17.6497 56.3078 17.7106 56.6207 17.6661C56.7203 17.716 56.8089 17.7274 56.8988 17.7389C56.9837 17.7498 57.0697 17.7609 57.1672 17.8046C57.3577 17.9762 57.4886 18.2041 57.5407 18.4553L57.7759 19.7567C57.8799 20.6052 57.8045 21.466 57.5545 22.2834C57.5284 22.3275 57.5046 22.3794 57.4795 22.4341C57.3981 22.6112 57.3028 22.8186 57.0703 22.8926C56.8697 22.8026 56.676 22.7126 56.6276 22.5742C56.2483 22.1987 55.8969 21.7962 55.5761 21.3697C54.8574 20.5181 54.2741 19.5608 53.8467 18.5314C53.8362 18.4965 53.7284 18.2597 53.5747 17.922L53.5746 17.9218L53.5745 17.9218L53.5745 17.9216C53.119 16.9213 52.2611 15.0369 52.3386 14.8971C52.4951 14.6128 52.6557 14.3415 52.8157 14.0712C53.427 13.0388 54.0297 12.0209 54.3586 10.3422C54.3036 9.87231 54.4236 9.54454 54.5392 9.22882C54.6417 8.94914 54.7406 8.67891 54.7114 8.32773C54.7201 8.13341 54.7895 7.94031 54.8575 7.75097C54.9519 7.48838 55.0437 7.23302 54.9674 6.99169C54.9971 6.41846 55.0736 6.0041 55.1651 5.50899L55.1651 5.50895L55.1651 5.5089C55.2227 5.19686 55.2863 4.85273 55.3478 4.41653C55.3561 4.23034 55.3087 4.03634 55.2602 3.83767C55.1878 3.54144 55.1129 3.23482 55.2164 2.9282C55.2571 2.73243 55.1058 2.49341 54.9477 2.2437C54.8374 2.06958 54.7239 1.89025 54.6699 1.71677C54.7391 1.39141 54.4554 1.0176 54.2133 0.789161C54.1109 0.509057 53.7255 0.330086 53.5293 0.238944L53.5215 0.235361L52.7053 0C52.3793 0.0397077 52.1068 0.0422287 51.891 0.0442246C51.5802 0.0471003 51.3871 0.0488863 51.3217 0.159214C51.0528 0.274128 50.8155 0.452219 50.63 0.678399C50.4893 0.857433 50.3632 0.992625 50.2491 1.11489C49.9707 1.41337 49.7641 1.63482 49.5923 2.22904C49.238 3.06588 48.9421 3.92633 48.7069 4.80419C48.4886 5.85203 48.3704 6.91828 48.3541 7.98852C48.4307 8.50445 48.4021 8.82026 48.3734 9.1375C48.345 9.45022 48.3166 9.76435 48.3887 10.2729C48.4127 10.9744 48.5148 11.6709 48.6931 12.3497C48.7852 12.6371 48.892 13.121 48.9974 13.599L48.9974 13.599L48.9975 13.5991C49.0977 14.0535 49.1968 14.5027 49.2811 14.7725C49.3285 14.925 49.401 15.1677 49.4921 15.4733L49.4923 15.4738L49.4927 15.475L49.4931 15.4766L49.4932 15.4769L49.4932 15.477L49.4933 15.4772L49.4934 15.4774C49.8127 16.5479 50.3607 18.3845 50.8703 19.8062C50.8476 19.7881 50.8233 19.7715 50.7971 19.7567C50.6575 19.6741 50.4912 19.6493 50.3336 19.6875C50.0478 19.6352 49.7531 19.6639 49.4827 19.7706C49.0193 19.9159 48.6734 20.2067 48.8602 20.7951C48.906 20.8941 48.9262 21.003 48.9189 21.1119C48.9117 21.2208 48.8772 21.3261 48.8187 21.4181C48.4243 22.9964 47.8294 24.4294 46.349 25.5093C45.8026 26.0435 45.1496 26.4563 44.4329 26.7207C43.6993 26.9582 42.915 26.9917 42.1639 26.8176C41.6371 26.7887 41.1227 26.6463 40.6559 26.4002C40.1891 26.1541 39.7808 25.8101 39.4591 25.3916C38.5183 24.644 38.3108 23.6679 38.1793 22.4842C37.8205 20.9613 37.7061 19.3911 37.8404 17.8323C37.9617 16.5217 38.2764 15.2363 38.7742 14.018C38.8511 13.891 38.8763 13.7785 38.9005 13.6704C38.9265 13.5546 38.9513 13.4439 39.0371 13.3257C39.1463 13.2893 39.1704 13.2079 39.2061 13.0871C39.2315 13.0013 39.2627 12.8956 39.3346 12.7719C39.9537 11.3306 41.0277 10.1318 42.3922 9.35917C42.7424 9.11193 43.1627 8.98386 43.5911 8.99383C44.0196 9.0038 44.4335 9.15129 44.7718 9.41455C44.8211 9.75368 44.8374 10.0968 44.8203 10.4391C44.734 10.7163 44.734 11.0133 44.8203 11.2905C44.746 12.0495 44.7693 12.8149 44.8894 13.568C44.9488 13.7323 44.9412 13.8965 44.9333 14.0661C44.9256 14.2324 44.9176 14.4039 44.9724 14.5856C45.0136 14.7174 45.0449 14.8546 45.0766 14.9931L45.0766 14.9931L45.0766 14.9931C45.1779 15.4366 45.282 15.8923 45.7196 16.2193L46.1208 16.0947L47.5043 15.6517C47.6565 15.3887 47.6565 15.3886 47.5942 15.1948L47.5942 15.1948C47.4429 14.8222 47.3859 14.418 47.4282 14.018C47.4282 13.9743 47.4376 13.9202 47.4486 13.8565C47.4778 13.6881 47.5186 13.4528 47.4282 13.1665C47.2505 13.1027 47.2589 12.9668 47.2675 12.8261C47.272 12.7532 47.2765 12.6789 47.2553 12.6127C47.2431 11.7599 47.28 10.907 47.3659 10.0583C47.3451 9.98543 47.3537 9.90272 47.361 9.83159C47.3732 9.71363 47.3821 9.6275 47.2483 9.67069C47.1893 9.46187 47.2176 9.29566 47.2415 9.15546C47.2596 9.04933 47.2752 8.95811 47.2483 8.8746C47.1754 8.64751 47.1879 8.46556 47.1983 8.31483C47.2056 8.20825 47.2119 8.11727 47.1861 8.03698C47.1861 7.62164 47.2017 7.62336 47.2094 7.62423C47.2172 7.62509 47.2172 7.62509 47.1861 7.20628C47.3452 6.97092 46.8195 6.67325 46.356 6.60403C46.152 6.66868 45.9914 6.7028 45.8623 6.73025C45.466 6.81447 45.3659 6.83576 45.2146 7.48318C45.1724 7.729 45.1481 7.70226 45.1209 7.67227C45.0944 7.64313 45.0651 7.61092 45.014 7.82239C45.0386 7.90689 45.0274 7.98244 45.016 8.05997C45.0049 8.13486 44.9936 8.21159 45.014 8.30003C44.9046 8.24855 44.7998 8.23595 44.6946 8.22331C44.5734 8.20876 44.4518 8.19414 44.3222 8.12005C43.5615 7.96199 42.7783 7.94556 42.0117 8.07159C41.8166 8.13217 41.6166 8.14366 41.4126 8.15539C41.1969 8.16779 40.9766 8.18044 40.7527 8.25158C40.6601 8.281 40.5427 8.30981 40.4101 8.34237L40.4101 8.34237C39.9187 8.46301 39.2169 8.63528 38.7812 9.08227C38.6246 9.24285 38.4847 9.38128 38.3535 9.51101C38.021 9.83989 37.7449 10.113 37.3976 10.5498C36.7977 11.2731 36.2716 12.0546 35.8273 12.8827C35.0573 14.3626 34.5295 15.9566 34.264 17.6038C34.264 19.0368 34.34 21.2312 34.9557 22.4496C35.0116 22.6235 35.1329 22.8769 35.2653 23.1535C35.428 23.4932 35.6075 23.868 35.7028 24.1733C36.3245 25.2816 37.1675 26.2501 38.1793 27.0184C39.0335 27.4968 39.9186 27.9177 40.8288 28.2783C41.8236 28.6435 42.8849 28.7922 43.9417 28.7144C45.7541 28.5829 47.2276 28.3267 48.5212 27.2814C49.2994 26.7426 49.963 26.0546 50.4736 25.2573C50.9842 24.4599 51.3317 23.5691 51.4958 22.6365C51.5317 22.3229 51.6153 22.0172 51.7431 21.7296C51.8365 21.8325 51.9146 21.8494 51.972 21.7573C51.9604 21.7165 52.0016 21.8045 52.0703 21.951C52.2463 22.3265 52.6027 23.0867 52.7122 23.0518C52.8378 23.1705 52.9511 23.2523 53.0636 23.3334C53.1742 23.4132 53.284 23.4924 53.404 23.6056C53.935 24.2348 54.6691 24.6585 55.4792 24.8032C56.3685 24.9421 57.2755 24.9187 58.1564 24.734L58.2394 24.6578C58.7942 24.401 59.3186 24.0829 59.8028 23.7095C59.9384 23.4978 60.0345 23.2632 60.0864 23.0172C60.2231 22.9162 60.3312 22.7815 60.4004 22.6262C60.4695 22.4709 60.4971 22.3003 60.4807 22.1311C60.3469 21.9933 60.4101 21.7994 60.473 21.6068C60.5205 21.461 60.5679 21.3159 60.5291 21.1966C60.5424 20.4443 60.4774 19.6926 60.3354 18.9537C60.2658 18.3692 60.1431 17.7923 59.9688 17.23C60.0145 17.1564 60.075 17.0932 60.1464 17.0443C60.2179 16.9955 60.2988 16.962 60.3839 16.9462C60.4392 16.8527 60.5049 16.7939 60.5706 16.7351C60.6363 16.6762 60.7021 16.6174 60.7574 16.5239C60.9083 16.4759 60.9742 16.4177 61.0401 16.3593C61.1073 16.3 61.1746 16.2405 61.3316 16.1917L61.4146 16.4685C61.4231 16.7055 61.4434 16.9777 61.4644 17.258L61.4644 17.2581C61.4942 17.6576 61.5253 18.0737 61.5253 18.4276L62.134 20.3867C62.5756 21.0836 63.2168 21.6313 63.9741 21.9581C64.2698 22.0767 64.5716 22.1791 64.8781 22.2648C64.7355 22.3924 64.5958 22.5233 64.459 22.6573C64.281 22.8411 64.1123 23.002 63.951 23.1557L63.9509 23.1557L63.9509 23.1558C63.1345 23.9338 62.5107 24.5283 61.858 26.9908C61.8443 27.0766 61.9259 27.1028 61.9981 27.1261C62.0715 27.1497 62.1352 27.1701 62.0794 27.2469C61.969 27.3452 61.8824 27.4673 61.826 27.604C61.7697 27.7407 61.7452 27.8885 61.7543 28.0361C61.7371 28.3194 61.6375 28.4826 61.556 28.6162C61.3407 28.9689 61.2514 29.1154 63.1378 30.722C63.2691 30.8394 63.3908 30.9465 63.5043 31.0463C64.2937 31.7403 64.6816 32.0813 65.0747 33.1102C65.6106 34.1757 65.9792 35.3175 66.1677 36.4953C66.4867 38.3118 66.5565 40.1633 66.3752 41.9987C66.3228 42.2938 66.2512 42.5851 66.1608 42.8709C66.0825 42.7835 65.9821 42.719 65.8702 42.684C65.8468 42.617 65.8477 42.5451 65.8485 42.4739C65.8494 42.3979 65.8504 42.3227 65.8218 42.2548C65.5447 41.9907 65.3654 41.3514 65.2183 40.8266L65.2183 40.8266C65.134 40.5261 65.0603 40.2632 64.9848 40.1296C64.8719 39.93 64.7979 39.71 64.7305 39.5095C64.674 39.3415 64.6221 39.1873 64.5559 39.0705C64.5285 38.7438 64.4242 38.4283 64.2515 38.1498C64.2733 37.8193 64.1884 37.5726 64.1028 37.3238C64.0253 37.0984 63.9471 36.8712 63.9471 36.5784L63.8849 36.4469C63.7357 36.1445 63.6735 35.8065 63.705 35.4708C63.6357 35.3599 63.5949 35.2336 63.5865 35.1031C63.578 34.9726 63.6021 34.842 63.6566 34.7232C63.6131 34.6629 63.5567 34.648 63.503 34.6338C63.4456 34.6186 63.3913 34.6042 63.3591 34.5363C63.4491 34.3355 63.5528 34.0932 63.5044 33.9825C63.5044 33.7244 63.5544 33.542 63.6054 33.3559C63.6817 33.0777 63.7603 32.7911 63.6774 32.2311C63.6541 32.1729 63.6809 32.1441 63.7096 32.1132C63.7491 32.0707 63.7922 32.0243 63.7119 31.8919L63.7026 31.8764C63.5706 31.6581 63.5026 31.5457 63.1309 31.5457C63.0755 31.4142 62.868 31.345 62.868 31.345C62.3214 31.1926 61.75 31.1502 61.187 31.2204C60.9118 31.5632 60.7157 31.9627 60.6128 32.3903C60.3576 33.1401 60.2519 33.9326 60.3015 34.7232C60.4049 35.2698 60.4049 35.831 60.3015 36.3776C60.3783 37.2515 60.5475 38.1147 60.8065 38.9528C60.9247 39.7947 61.1992 40.607 61.6159 41.348C62.0856 42.2433 62.7057 43.0512 63.4491 43.7362L64.2584 44.2969C64.3299 44.2663 64.3813 44.2826 64.4324 44.2988C64.4851 44.3155 64.5375 44.3321 64.6112 44.2969C64.9057 44.5916 65.3921 44.5332 65.8421 44.4791L65.9187 44.47C66.1438 44.3993 66.3853 44.3993 66.6104 44.47C67.0702 44.5376 67.5381 44.5259 67.9939 44.4354C68.2312 44.398 68.4563 44.3051 68.651 44.1644C68.8457 44.0237 69.0045 43.8391 69.1146 43.6255C69.3041 43.2211 69.4368 42.7925 69.5089 42.3517C69.5089 42.3517 69.6542 42.2825 69.5919 42.151C69.7614 41.7877 69.8398 41.3885 69.8202 40.988C69.9378 40.9326 69.8755 40.7942 69.8755 40.7942L69.6819 40.4342C69.7161 40.3308 69.7161 40.2191 69.6819 40.1158C69.6506 40.0497 69.7416 39.8944 69.8329 39.7387C69.9232 39.5846 70.0138 39.4301 69.9862 39.3612C69.8919 39.1947 69.8441 39.0058 69.8479 38.8143L69.8064 37.9283C69.7856 35.2423 68.7687 33.7125 68.7687 33.9063C68.6966 33.7379 68.531 33.4392 68.3716 33.1518L68.3713 33.1512C68.3014 33.0252 68.2328 32.9014 68.1738 32.7918C68.1499 32.7413 68.0812 32.6929 68.0087 32.6418C67.8923 32.5597 67.7662 32.4708 67.8003 32.3557C67.493 31.8022 67.0074 31.6194 66.3789 31.3829L66.3789 31.3829L66.3788 31.3828C66.0169 31.2466 65.6076 31.0926 65.1577 30.8397C64.9322 30.7454 64.7397 30.5864 64.6043 30.3828L63.8406 29.4533C64.0223 29.6874 61.4783 28.4659 63.5805 26.5685L63.7396 26.527C63.8083 26.4233 63.9074 26.3435 64.0232 26.2985C64.4302 25.8124 64.9139 25.3962 65.4552 25.0663C65.5549 25.0071 65.6381 24.9238 65.6973 24.824C65.9488 24.6127 66.0426 24.6078 66.1513 24.6022C66.2668 24.5962 66.3992 24.5894 66.7557 24.3325C66.934 24.2225 66.9949 24.1725 67.0534 24.1244C67.1312 24.0605 67.205 23.9999 67.5443 23.8064C67.6721 23.6993 67.8154 23.625 67.9552 23.5524C68.0956 23.4796 68.2324 23.4085 68.3468 23.308C68.5669 23.214 68.772 23.0881 68.9555 22.9342C69.2184 22.3319 69.1077 20.9613 68.7272 20.8159C68.7065 20.7943 68.6853 20.7739 68.6635 20.7548C68.8694 20.4263 69.0434 20.0782 69.1831 19.7152C69.4841 19.1273 69.6852 18.4932 69.778 17.8392C69.778 17.7986 69.7816 17.7419 69.7856 17.6784C69.7952 17.5254 69.8073 17.3328 69.778 17.23C69.7519 17.2201 69.7284 17.2044 69.7091 17.1842C69.6899 17.164 69.6754 17.1397 69.6668 17.1131C69.6582 17.0865 69.6556 17.0584 69.6593 17.0307C69.663 17.003 69.6728 16.9765 69.6881 16.9531C69.7022 16.717 69.6696 16.4916 69.6343 16.2468C69.6002 16.0109 69.5635 15.7569 69.5635 15.4579L69.4114 15.5063C69.4114 15.4656 69.4191 15.4206 69.4278 15.3704C69.4487 15.25 69.4748 15.0995 69.4114 14.9041C69.415 14.4571 69.3352 14.0134 69.1762 13.5957L69.0862 13.3188C69.1344 13.1116 69.082 12.9916 69.0177 12.8444C68.9896 12.7801 68.9593 12.7107 68.934 12.6266C68.8869 12.4777 68.8345 12.3697 68.7866 12.2711C68.7009 12.0946 68.6297 11.9481 68.6297 11.6505C69.0554 11.4025 69.4085 11.0468 69.6535 10.6191C69.8159 10.4736 69.8621 10.3652 69.926 10.2153C69.9655 10.1227 70.0117 10.0142 70.0962 9.87144L70.1496 9.78122C70.2534 10.404 70.49 11.0203 70.872 11.6298C71.2156 12.1579 71.6969 12.582 72.2637 12.8565C72.8306 13.131 73.4616 13.2454 74.0886 13.1874L74.4138 13.2843C74.2685 15.5687 73.7289 17.4863 72.9818 17.9431C72.7674 18.0608 71.5983 16.9671 70.9065 15.5826C70.8343 15.4244 70.9773 15.1098 71.1161 14.8045C71.1898 14.6422 71.2624 14.4825 71.3008 14.3504C71.3458 14.1602 71.3206 13.9602 71.2297 13.7871C71.1389 13.6141 70.9886 13.4798 70.8066 13.409C70.6246 13.3382 70.4231 13.3356 70.2393 13.4017C70.0555 13.4679 69.9019 13.5983 69.8066 13.7689C69.5081 14.1903 69.5423 14.4103 69.6117 14.8565L69.6117 14.8566V14.8567L69.6118 14.8567L69.6118 14.8568L69.6118 14.8569C69.6324 14.9896 69.6562 15.1424 69.6752 15.3264C69.7098 17.0847 72.1102 18.9677 72.4422 19.0715C72.7131 19.0534 72.95 19.1376 73.1744 19.2173C73.4658 19.3208 73.7363 19.4169 74.0333 19.2722C74.6664 19.1838 75.2386 18.8477 75.6244 18.3377C76.4778 17.19 76.9908 15.8249 77.1047 14.3988C77.1378 14.0254 77.2134 13.7072 77.2833 13.4125L77.2834 13.4125C77.36 13.09 77.4299 12.7957 77.4299 12.4882C77.2563 12.1106 77.2782 11.9287 77.2981 11.7638C77.3147 11.6264 77.3299 11.5008 77.2293 11.2837C77.0393 11.1966 76.8329 11.1515 76.624 11.1515C76.4151 11.1515 76.2086 11.1966 76.0187 11.2837C75.621 11.1387 75.185 11.1387 74.7873 11.2837C74.9049 11.5468 74.4968 11.4222 74.393 11.2145C74.0917 11.1464 73.8081 11.0157 73.5605 10.831C73.3128 10.6462 73.1067 10.4115 72.9554 10.142C72.8042 9.87256 72.7111 9.57429 72.6823 9.26655C72.6535 8.9588 72.6895 8.64843 72.7881 8.35551C72.8093 7.85168 72.9884 7.3673 73.3 6.97102C73.5309 6.35257 73.9749 5.83702 74.5521 5.5173C74.8911 5.02581 75.1194 4.91504 75.8111 5.16425L76.0463 5.66267C76.1596 5.90702 76.2113 6.18036 76.2616 6.44654C76.3097 6.70068 76.3565 6.9483 76.4545 7.15793C77.2491 8.87453 77.8195 10.7365 78.3598 12.5004L78.3598 12.5005C78.6191 13.3471 78.8715 14.1712 79.1385 14.9457C79.1785 15.6534 79.3159 16.3523 79.5467 17.0224C79.6936 17.3429 79.5737 17.5716 79.3925 17.9174L79.3925 17.9175L79.3924 17.9176C79.3348 18.0274 79.2711 18.1491 79.2077 18.2893C79.1681 18.3965 79.1501 18.5105 79.1547 18.6247C79.1594 18.739 79.1867 18.8511 79.2349 18.9548C79.2831 19.0584 79.3514 19.1514 79.4358 19.2285C79.5202 19.3056 79.619 19.3651 79.7265 19.4038C80.2328 19.4742 80.7107 19.6798 81.11 19.9991H82.1339C82.4425 19.963 82.73 19.8241 82.9501 19.6045C82.8954 19.1157 82.9586 18.9321 83.0242 18.7415C83.0664 18.619 83.1095 18.4936 83.1231 18.2823C82.92 17.845 82.9282 17.7375 82.9446 17.5227C82.9538 17.4009 82.9657 17.2446 82.9432 16.974C82.995 16.7719 82.995 16.56 82.9432 16.3579C82.7911 15.8498 82.772 15.311 82.8879 14.7934C83.3668 13.1778 83.7206 11.5277 83.9463 9.85768C83.9561 9.79254 83.9719 9.71008 83.9899 9.61602C84.0981 9.05049 84.2864 8.06581 83.7526 7.90555H83.6696C83.3286 7.80732 83.2731 8.18406 83.2208 8.5397C83.2031 8.66022 83.1857 8.77833 83.1577 8.87469C82.9463 9.82 82.8614 10.2539 82.7737 10.7017L82.7737 10.7018C82.7208 10.9722 82.6668 11.2476 82.5835 11.6437C82.4725 12.2613 82.301 12.8664 82.0716 13.4504C81.9728 13.2425 81.703 12.291 81.428 11.3217L81.428 11.3216L81.428 11.3215C81.1446 10.3223 80.8558 9.30405 80.7434 9.0616C80.5026 8.5401 80.4018 7.83446 80.2963 7.09552L80.2962 7.09548C80.1804 6.28465 80.0589 5.43373 79.7404 4.74198C79.3795 4.11648 78.8859 3.57774 78.2946 3.16366C78.0823 2.84569 77.7747 2.60331 77.416 2.47141L77.1255 2.61679C77.0078 2.67306 76.8945 2.74542 76.7796 2.81877C76.4425 3.03414 76.092 3.25803 75.5759 3.10828L74.9949 3.3921C74.7385 3.54291 74.4367 3.59693 74.144 3.5444C73.1883 3.9259 72.3319 4.52009 71.6398 5.28193C71.2863 5.5077 71.0165 5.8433 70.872 6.23724C70.4627 6.99667 70.2052 7.74791 70.1197 8.4905C70.1031 8.45 70.0792 8.41277 70.0491 8.38072C70.0114 8.34064 69.9651 8.30973 69.9137 8.29035C69.8623 8.27096 69.8071 8.26362 69.7524 8.2689C69.6977 8.27418 69.6449 8.29194 69.5981 8.3208C69.6189 8.39002 69.5791 8.48002 69.5393 8.57001C69.4996 8.66 69.4598 8.74999 69.4805 8.81922C69.2721 9.53616 68.7967 10.1457 68.1524 10.5221L67.8756 10.6052C67.8277 10.4453 67.699 10.32 67.5908 10.2147C67.5117 10.1377 67.4435 10.0713 67.426 10.0099C67.3391 10.0364 67.2625 9.92648 67.1782 9.80553C67.1081 9.70508 67.0328 9.59698 66.9418 9.55301L66.9241 9.54448C66.7299 9.45076 66.546 9.36203 66.499 9.22765C66.4261 9.19377 66.3748 9.15301 66.3306 9.11795C66.2574 9.05989 66.2039 9.01745 66.1047 9.04766C66.0857 9.05415 66.0655 9.05679 66.0454 9.05542C66.0253 9.05406 66.0057 9.04872 65.9876 9.03971C65.9696 9.03069 65.9536 9.01819 65.9404 9.00292C65.9273 8.98765 65.9173 8.96991 65.911 8.95075C65.8317 8.91455 65.7505 8.87247 65.6675 8.82953C65.3381 8.65894 64.9822 8.47464 64.6174 8.59077C64.3403 8.36388 63.7329 8.40508 63.1561 8.4442C62.9409 8.45879 62.7301 8.47309 62.5421 8.47309C62.3115 8.44078 62.1178 8.53467 61.922 8.62955L61.922 8.62956C61.8242 8.67697 61.7258 8.72463 61.6221 8.75692C61.3592 8.99228 61.0894 9.23457 61.1794 9.51146C61.2138 9.61732 61.2188 9.71003 61.2232 9.78958C61.2302 9.91812 61.2353 10.0123 61.3592 10.0722C61.44 10.3273 61.5285 10.4074 61.6505 10.5179C61.7272 10.5873 61.817 10.6686 61.9265 10.8129C62.277 11.1371 62.6988 11.3742 63.1578 11.5051C64.1268 11.9559 65.1815 12.192 66.25 12.1974C66.4022 12.1489 66.5613 12.1005 66.6028 12.2389C66.6443 12.3774 66.838 12.4743 66.838 12.4743L67.1009 13.3119C67.5026 15.4225 67.2165 17.6065 66.2846 19.5421C66.2519 19.7346 66.0932 19.9125 65.9233 20.1032ZM52.2004 11.8096C52.0853 12.0583 51.9717 12.3038 51.9305 12.6681C51.9305 12.8066 51.8613 13.3257 51.7437 13.3742C51.7243 13.3818 51.7034 13.3853 51.6825 13.3845C51.6616 13.3836 51.6412 13.3785 51.6223 13.3694C51.6035 13.3603 51.5868 13.3475 51.5731 13.3316C51.5595 13.3158 51.5493 13.2973 51.5431 13.2773C51.1689 12.1659 50.8707 11.0303 50.6507 9.87835L50.6092 9.73991C50.505 9.40208 50.5264 9.30045 50.5598 9.14133C50.5819 9.03634 50.6092 8.90632 50.6092 8.66692L50.4363 8.1062C50.4155 7.49703 50.3948 6.89477 50.3325 6.14714C50.3538 5.66908 50.4166 5.17833 50.4795 4.68787L50.4795 4.68785V4.68783L50.4795 4.68775C50.5395 4.2195 50.5994 3.75152 50.6231 3.29509C50.6917 3.19749 50.6943 3.07534 50.6969 2.95429C50.6993 2.84353 50.7016 2.73368 50.7545 2.64438C50.7833 2.31007 50.8506 1.98022 50.9551 1.66139C51.0102 1.5649 51.0259 1.48213 51.0414 1.40028C51.057 1.31771 51.0725 1.23607 51.1281 1.1422C51.9236 0.256127 52.4078 1.42603 52.6153 2.11827C52.765 2.46717 52.8268 2.8475 52.7952 3.22586C52.8033 3.51688 52.8136 3.82307 52.8244 4.14014L52.8244 4.14023L52.8244 4.14036C52.8966 6.27442 52.9856 8.90101 52.4978 10.7091C52.4752 11.2159 52.3368 11.515 52.2004 11.8096ZM56.7452 16.4062L56.8282 16.6831L56.6622 16.7316C55.9151 16.5101 55.2786 14.468 55.1057 13.9072C55.1057 13.8744 55.0968 13.7966 55.0852 13.6962L55.0852 13.6961C55.0482 13.3728 54.9843 12.8158 55.1057 12.7789C55.1234 12.7456 55.1507 12.7184 55.1841 12.701C55.2175 12.6835 55.2554 12.6766 55.2929 12.6811C55.3303 12.6856 55.3654 12.7013 55.3938 12.7261C55.4221 12.751 55.4423 12.7839 55.4516 12.8204C55.5255 12.8561 55.5902 12.9084 55.6406 12.9733C55.691 13.0381 55.7258 13.1137 55.7421 13.1942C56.1492 14.2408 56.4843 15.314 56.7452 16.4062ZM64.2093 9.31764C64.7868 9.60515 65.3279 9.96071 65.8211 10.3768H65.7658C65.9292 10.529 66.067 10.7067 66.1739 10.9029C65.9038 10.9517 65.6313 10.9863 65.3576 11.0067C64.7913 11.0289 64.2309 10.8845 63.7458 10.5914L63.1786 10.3975C62.9495 10.2511 62.7671 10.0421 62.6528 9.79529C62.4315 9.56685 62.39 9.42839 62.6528 9.18611C62.6707 9.14426 62.6975 9.10684 62.7314 9.07646C62.7652 9.04609 62.8053 9.02352 62.8488 9.01032C62.8924 8.99712 62.9382 8.99362 62.9833 9.00007C63.0283 9.00653 63.0713 9.02277 63.1094 9.04766C63.2908 9.06901 63.4831 9.12696 63.6752 9.18482C63.8567 9.2395 64.0379 9.29409 64.2093 9.31764ZM38.7977 45.1213C38.7029 44.94 38.6155 44.7729 38.5592 44.5946L38.4969 44.2969C38.6086 44.2604 38.711 44.2 38.797 44.1199C38.8831 44.0398 38.9506 43.942 38.995 43.8331C39.1472 43.7846 39.2994 43.7362 39.2648 43.6254C39.3646 43.4294 39.5315 43.2571 39.6949 43.0885C39.8373 42.9415 39.977 42.7972 40.0672 42.6424C40.584 42.2265 41.0343 41.7339 41.4023 41.1818C41.4439 41.1116 41.4914 41.0609 41.5322 41.0173C41.6 40.9448 41.6496 40.8918 41.6237 40.8011C41.723 40.7639 41.8078 40.696 41.8658 40.6072C42.5126 39.6935 43.0186 38.6878 43.367 37.6237C43.3185 37.4852 43.277 37.3398 43.4292 37.2914C43.5084 36.9516 43.528 36.583 43.5474 36.2182C43.5635 35.914 43.5795 35.6124 43.6298 35.3323C43.724 34.1824 43.5804 33.0253 43.2078 31.9334L43.1179 31.6565C42.8237 30.9294 42.3019 30.3173 41.6306 29.912C41.3485 29.7944 41.0811 29.6996 40.8133 29.6047C40.5295 29.5041 40.2452 29.4034 39.9427 29.2752C39.4382 29.0774 38.9105 28.9448 38.3724 28.8806C37.7659 28.8806 37.2068 28.8199 36.6741 28.762H36.674H36.674L36.6739 28.762L36.6739 28.762L36.6738 28.762C36.3439 28.7262 36.024 28.6914 35.7091 28.6729C35.4607 28.6839 35.1987 28.6504 34.9324 28.6164C34.6945 28.586 34.4532 28.5552 34.2149 28.5552C33.7417 28.5708 33.2742 28.6644 32.8314 28.8321C32.584 28.9243 32.3202 28.9644 32.0566 28.9498C31.8605 29.1036 31.702 29.3001 31.5931 29.5244L31.5931 29.5244C31.4825 29.7113 31.4825 29.7113 31.5309 29.8497C31.5275 30.4667 31.6067 31.0813 31.7661 31.6773C31.8071 32.1487 31.9046 32.6136 32.0566 33.0617C32.1281 33.5556 32.2347 34.0293 32.3411 34.5018C32.4509 34.9898 32.5605 35.4766 32.6308 35.983C32.7391 36.3222 32.7945 36.6313 32.8504 36.9433C32.9052 37.2492 32.9605 37.5579 33.0666 37.9006C33.1858 38.8848 33.3871 39.8574 33.6684 40.808C33.7265 40.9889 33.7515 41.1864 33.7785 41.3997C33.8093 41.6436 33.8427 41.9082 33.9313 42.1925C34.0409 42.5463 34.1089 42.9001 34.177 43.2539C34.2421 43.5924 34.3072 43.9308 34.4086 44.2692C34.6586 44.9827 34.8325 45.7205 34.9274 46.4706L36.6015 51.8355C36.6361 51.9462 36.6361 51.9462 36.8367 52.0362C36.9285 52.0245 37.0217 52.0313 37.1108 52.0563C37.2 52.0813 37.2832 52.1239 37.3555 52.1816C37.5861 52.2917 37.8344 52.3597 38.0888 52.3824C38.3664 52.3621 38.6455 52.3784 38.9189 52.4308C39.0019 52.4654 39.1195 52.4654 39.2397 52.4654H39.2397C39.3599 52.4654 39.4827 52.4654 39.5761 52.5L39.7352 52.4516C39.7059 52.3838 39.6908 52.3108 39.6908 52.237C39.6908 52.1632 39.7059 52.0901 39.7352 52.0224L40.7452 52.1332L40.9735 51.787C40.9323 51.6327 40.9184 51.4546 40.9047 51.2796C40.8907 51.1014 40.877 50.9265 40.8351 50.7833C40.5068 49.6574 40.1047 48.5543 39.6314 47.4813L39.1334 45.8891C39.0386 45.5818 38.9127 45.341 38.7977 45.1213ZM35.8475 30.7289L35.8821 30.8396L36.311 30.7358L38.912 31.2758C38.9907 31.2435 39.038 31.2576 39.0863 31.272C39.1314 31.2854 39.1775 31.2991 39.251 31.2758C39.6074 31.4512 39.9124 31.7159 40.1364 32.0441C40.3427 32.6923 40.3948 33.3798 40.2886 34.0517C40.095 35.2045 39.593 36.2834 38.8359 37.1737C38.4682 37.7487 38.0315 38.2765 37.5354 38.7451C37.4871 38.8267 37.4071 38.8898 37.3134 38.9638C37.1924 39.0594 37.0484 39.1731 36.9197 39.3681L36.6153 39.465L36.4562 39.3889C36.2819 38.7451 36.0311 38.1246 35.7091 37.5406L34.9136 34.9931C34.6853 34.751 34.5315 34.4482 34.4709 34.1209C34.4533 34.0623 34.3999 33.9877 34.3383 33.9017C34.2543 33.7843 34.1551 33.6457 34.1112 33.4979L33.2672 30.8189C33.4449 30.6638 33.6436 30.635 33.8456 30.6056L33.8456 30.6056C33.9502 30.5904 34.0557 30.575 34.1596 30.542C34.4314 30.5247 34.704 30.5247 34.9759 30.542C35.1582 30.5634 35.2906 30.5997 35.4247 30.6364C35.5501 30.6707 35.677 30.7055 35.8475 30.7289ZM48.9223 39.1673C48.9463 38.9922 49.0269 38.8297 49.1518 38.7047C49.2767 38.5798 49.439 38.4991 49.614 38.4751L49.87 38.3366C50.1894 38.0594 50.5956 37.9027 51.0183 37.8936L51.3019 37.7413C51.4891 37.6431 51.6505 37.6715 51.836 37.704C51.9384 37.722 52.0481 37.7413 52.1736 37.7413C52.5284 37.961 52.8226 38.2661 53.0293 38.6289C53.2359 38.9917 53.3484 39.4005 53.3565 39.818C53.5508 39.7382 53.6518 39.5544 53.7603 39.3569C53.8024 39.2801 53.8457 39.2013 53.8961 39.1258C54.3115 38.4637 54.1946 37.4134 54.095 36.5196L54.095 36.5195C54.0603 36.2078 54.0277 35.9151 54.0206 35.6645C53.9892 35.5037 53.9562 35.3435 53.9237 35.1859C53.8415 34.787 53.7628 34.4048 53.7231 34.0724C53.7231 33.8961 53.639 33.8683 53.507 33.8248C53.4057 33.7914 53.2763 33.7486 53.1351 33.6224L53.2873 33.2071L53.1005 32.8471C53.0271 32.6961 52.989 32.5304 52.989 32.3625C52.989 32.1946 53.0271 32.0289 53.1005 31.8779L53.0314 31.7464C53.4647 31.5293 53.9332 31.391 54.4149 31.338L54.8092 31.1234C54.9852 31.0843 55.1681 31.0878 55.3425 31.1335C55.517 31.1793 55.678 31.266 55.8122 31.3864C55.8271 31.4183 55.8837 31.4783 55.9529 31.5515C56.1089 31.7167 56.3284 31.9492 56.2757 32.0787C56.3266 32.3468 56.4025 32.5558 56.4734 32.7514C56.5857 33.0607 56.6859 33.3367 56.6562 33.7608C56.66 34.0158 56.6808 34.2702 56.7185 34.5223C56.9042 35.6416 57.2172 37.0414 57.4828 38.2292L57.4828 38.2292C57.6722 39.0764 57.8374 39.8155 57.9152 40.268L58.0397 40.5033C58.1103 40.6447 58.1051 40.834 58.1001 41.0123C58.0958 41.1657 58.0918 41.3109 58.1366 41.4102C58.2359 41.6969 58.2782 42.0002 58.2611 42.3032C58.282 42.3474 58.2889 42.4002 58.2956 42.4519C58.3088 42.554 58.3215 42.6517 58.4409 42.6701C58.5503 42.5424 58.6039 42.3899 58.6585 42.2346C58.7076 42.095 58.7574 41.9533 58.8491 41.8255C58.8491 41.6671 58.9707 40.8176 59.0912 39.9764L59.0912 39.9763L59.0913 39.9761C59.2077 39.1632 59.323 38.3579 59.3264 38.1912C59.3188 37.8281 59.356 37.4654 59.4371 37.1113C59.4435 37.0857 59.4491 37.0565 59.4552 37.0253C59.495 36.8201 59.5518 36.5279 59.9421 36.606C59.9583 36.6385 59.9753 36.6713 59.9924 36.7041L59.9925 36.7042L59.9925 36.7043L59.9925 36.7043C60.0992 36.9095 60.2082 37.1193 60.1427 37.2982C60.1634 37.5163 60.1634 37.7136 60.1634 37.9117V37.9118C60.1634 38.1099 60.1634 38.3089 60.1842 38.5304C60.0715 39.2678 60.0252 40.0138 60.0458 40.7595C60.0775 41.0246 60.0074 41.4211 59.9454 41.7715C59.899 42.034 59.8571 42.2706 59.866 42.407C59.8141 42.8212 59.7308 43.2308 59.6169 43.6323L59.1742 44.8299L59.0289 44.906C58.591 45.1085 58.1242 45.2416 57.6454 45.3006C57.4063 45.2658 57.1796 45.1715 56.9863 45.0263C56.7929 44.8812 56.639 44.6899 56.5386 44.4699L56.3518 44.103C55.8921 43.6036 55.6291 42.9543 55.6116 42.2755C55.5371 41.9197 55.4554 41.6115 55.3513 41.2188C55.2043 40.664 55.0126 39.9405 54.7331 38.6758L54.7018 38.8187C54.5077 39.708 54.3247 40.5466 53.5432 40.9671C53.5432 41.0298 53.5603 41.1279 53.5795 41.2391C53.6028 41.3734 53.6294 41.5268 53.6332 41.6594C53.7151 42.1943 53.7255 42.3618 53.7362 42.5338C53.7462 42.6957 53.7564 42.8616 53.8269 43.3415C53.8416 44.5474 53.6377 45.7459 53.225 46.8789C52.9774 47.5133 52.5145 48.0401 51.9176 48.3673C51.4839 48.6146 51.0246 48.8142 50.5479 48.9626L49.9184 48.7964C49.7619 48.7558 49.6248 48.7274 49.4899 48.6994C49.3027 48.6605 49.1197 48.6225 48.8946 48.5542C48.5132 48.468 48.1649 48.2733 47.8916 47.9934C47.713 47.7343 47.601 47.6585 47.4967 47.5878C47.3585 47.4941 47.2337 47.4096 46.9853 46.9205C46.961 46.8717 46.9399 46.8224 46.9192 46.7739C46.828 46.5604 46.7424 46.36 46.4043 46.2697L46.1691 45.799C45.7923 44.7987 45.5593 43.7498 45.4773 42.6839C45.2737 40.2329 45.1813 39.4095 44.9579 37.4192L44.8962 36.869C44.8652 36.0934 44.6105 35.3433 44.1629 34.7092C44.2051 34.5339 44.305 34.3778 44.4466 34.2662C44.5227 34.0585 44.6679 33.9824 44.8478 34.0516C45.0276 34.1208 45.8232 33.6916 45.8232 33.6916C46.124 33.6284 46.4376 33.6764 46.7059 33.8265C46.9742 33.9766 47.1791 34.2189 47.2828 34.5085C47.3509 34.6408 47.354 34.7662 47.3567 34.8738C47.3587 34.952 47.3604 35.0208 47.3866 35.0761L47.4557 35.2076C47.6637 35.6875 47.7967 36.1965 47.85 36.7167C48.0221 37.1725 48.1292 37.6502 48.1683 38.1358L48.1746 38.1685C48.2832 38.7256 48.3935 39.2912 48.5902 39.9634C48.5902 39.9373 48.608 39.9309 48.6267 39.9241C48.6576 39.9129 48.6913 39.9007 48.6525 39.7972L48.9223 39.1673ZM49.0316 43.4052L49.0316 43.4054C49.0731 43.7528 49.1142 44.0972 49.1575 44.4353L49.2889 44.6983C49.4361 45.0234 49.4935 45.382 49.4549 45.7367C49.5092 46.2568 49.6421 46.7657 49.8492 47.2458L50.0499 47.6335L50.0499 47.6335C50.3335 47.4812 50.6171 47.3289 50.6655 47.1351C50.9078 46.8553 51.1018 46.5371 51.2397 46.1936C51.5509 45.0679 51.6402 43.8923 51.5026 42.7324C51.4979 42.4879 51.4287 42.2491 51.3019 42.0401C50.9864 42.0354 50.6727 41.9912 50.3681 41.9086C50.0324 41.8841 49.709 41.7722 49.4299 41.584C49.1508 41.3957 48.9257 41.1378 48.777 40.8356L48.7217 40.7318C48.5833 40.8079 48.7217 40.8633 48.7217 40.8633C48.7183 41.0243 48.7474 41.1691 48.776 41.311C48.8064 41.4619 48.8361 41.6096 48.8254 41.7701C48.9013 42.3141 48.9669 42.8632 49.0315 43.4049L49.0316 43.405L49.0316 43.4052ZM49.8631 39.458C49.9817 39.5037 50.0311 39.6577 50.0847 39.8248C50.1124 39.9111 50.1412 40.0009 50.1813 40.0811C50.2413 40.2011 50.3372 40.3193 50.4324 40.4366L50.4324 40.4366C50.524 40.5494 50.6148 40.6614 50.6724 40.7733L50.8108 41.0294C50.8636 41.0004 50.9064 41.0016 50.9433 41.0026C51.003 41.0043 51.0474 41.0055 51.0944 40.8771C51.0842 40.4849 50.942 40.1075 50.691 39.806C50.4399 39.5046 50.0946 39.2966 49.7109 39.2158L49.8631 39.458ZM76.143 32.6534C76.2803 31.9723 76.3867 31.2809 76.4933 30.588L76.5442 30.2582C76.54 29.7734 76.5794 29.2892 76.6618 28.8114C76.8259 28.6974 76.8188 28.5052 76.8127 28.3398V28.3398C76.8095 28.2542 76.8066 28.1758 76.8278 28.1192C76.9592 27.5346 77.0056 27.1611 77.046 26.8355C77.1013 26.3899 77.1454 26.0341 77.3812 25.3502C77.5126 24.8702 77.6958 24.4059 77.9277 23.9657C78.0132 23.8887 78.0658 23.7964 78.1156 23.7092C78.1866 23.5847 78.2517 23.4705 78.3981 23.4257C78.6422 23.1859 78.9474 23.0178 79.2804 22.9396C79.6134 22.8615 79.9615 22.8764 80.2866 22.9827C80.4554 23.1104 80.596 23.2716 80.6995 23.4563C80.8031 23.6409 80.8674 23.845 80.8885 24.0557C80.8077 24.0814 80.7815 24.1324 80.7571 24.1798C80.7355 24.2218 80.7154 24.2609 80.6602 24.2772C80.6101 24.2877 80.5584 24.2875 80.5083 24.2768C80.4583 24.2661 80.411 24.245 80.3696 24.2149C80.1483 24.1595 80.1483 24.1595 80.1068 24.0211L80.1068 24.0211C79.9321 24.0745 79.8731 24.2301 79.8153 24.3827C79.7907 24.4477 79.7663 24.5121 79.7332 24.5679C79.7452 24.7107 79.706 24.853 79.6225 24.9694C79.2366 25.7414 78.924 26.548 78.6887 27.3785C78.6663 27.7416 78.5546 28.0935 78.3635 28.403C78.109 28.9652 77.9679 29.5721 77.9485 30.189C77.9538 30.2036 77.9621 30.217 77.9727 30.2283C77.9832 30.2397 77.996 30.2489 78.0101 30.2554C78.0243 30.2618 78.0396 30.2654 78.0551 30.2659C78.0707 30.2663 78.0861 30.2637 78.1007 30.2582C78.1735 30.2814 78.2289 30.3236 78.2874 30.3682C78.3511 30.4167 78.4184 30.468 78.5157 30.5005C78.6633 30.7391 78.7012 30.7829 78.7539 30.844C78.7976 30.8945 78.8514 30.9568 78.9861 31.1512C79.2321 31.433 79.4963 31.8163 79.7644 32.2055L79.7645 32.2055C80.0694 32.6481 80.3796 33.0981 80.674 33.4148C80.7716 33.5198 80.8747 33.6381 80.9808 33.7597L80.9809 33.7598C81.4763 34.328 82.0351 34.9688 82.3827 34.6609C82.7689 34.1732 82.9626 32.7406 83.1222 31.5602C83.2027 30.9646 83.2745 30.4332 83.3581 30.1198C83.401 30.0267 83.3866 29.9596 83.3694 29.8792C83.3533 29.804 83.3347 29.7172 83.3581 29.5867C83.3581 29.5511 83.3695 29.5062 83.3827 29.4543C83.4106 29.3447 83.4465 29.204 83.3996 29.0537C83.3304 28.8322 83.5725 28.756 83.7316 28.8253C83.7582 28.9148 83.8068 28.9925 83.8567 29.0723C83.901 29.1431 83.9462 29.2155 83.9781 29.2992C83.8918 28.5024 83.9295 27.6956 84.0913 26.9077C84.2261 25.9431 84.4319 24.9899 84.707 24.0556C84.7588 23.9345 84.9145 23.6749 85.0701 23.4153C85.2258 23.1557 85.3814 22.8961 85.4333 22.775C85.7365 22.3518 86.1408 22.0115 86.6093 21.7851C86.8109 21.7825 87.0103 21.7426 87.1973 21.6674C87.5359 21.5479 87.9014 21.5268 88.2515 21.6064C88.6016 21.686 88.922 21.8632 89.1757 22.1173C89.0827 22.1603 88.9471 22.2496 88.8139 22.3372C88.6897 22.4191 88.5675 22.4995 88.484 22.5396C88.311 22.6227 87.7922 23.4672 87.8406 23.6264C87.8007 23.7229 87.7544 23.8214 87.7076 23.9209C87.5195 24.3211 87.323 24.7392 87.4948 25.1217C87.4226 25.3269 87.3671 25.5375 87.3287 25.7516C87.1415 26.1931 87.162 26.7448 87.181 27.2545C87.1935 27.592 87.2054 27.9111 87.1558 28.1676C87.2217 28.3193 87.1306 28.5464 87.0381 28.777C87.0335 28.7885 87.0289 28.7999 87.0244 28.8114C87.0434 29.0718 87.0566 29.4152 87.07 29.7634C87.0858 30.1744 87.1019 30.5921 87.1281 30.8881C87.2734 31.2065 87.4187 31.525 87.1281 31.8572C87.2739 32.1738 87.3333 32.3777 87.3815 32.5432C87.4545 32.7939 87.502 32.9566 87.7853 33.2902C87.9306 33.6086 88.6984 33.4356 88.8022 33.1933C89.0097 32.9524 89.1715 32.6755 89.2795 32.3764C89.5439 31.2105 89.7151 30.0253 89.7914 28.8321C89.8517 28.3958 89.7944 27.9513 89.6254 27.5446C89.6883 27.4202 89.7007 27.2763 89.66 27.143C89.4637 26.69 89.3829 26.1952 89.4248 25.7032C89.4306 25.3377 89.3399 24.9771 89.1619 24.6579C89.0512 24.4191 88.9855 24.1595 88.9198 23.8999C88.8541 23.6403 88.7884 23.3807 88.6777 23.1419C88.813 22.9057 89.0043 22.7064 89.2347 22.5615C89.4651 22.4167 89.7275 22.3307 89.9989 22.3112C90.1001 22.338 90.2057 22.3439 90.3091 22.3284C90.4126 22.3129 90.5119 22.2764 90.6008 22.2212C90.6492 22.236 90.7048 22.2476 90.7628 22.2598C91.003 22.31 91.2818 22.3684 91.2372 22.6919C91.6727 22.9311 91.8024 23.3171 91.9362 23.7153C91.9766 23.8358 92.0175 23.9574 92.0673 24.0764C92.1524 24.4657 92.2362 24.8537 92.3198 25.2409C92.4265 25.735 92.5329 26.2279 92.6415 26.7208L92.8629 27.1984C93.0798 27.6774 93.2778 28.2283 93.4733 28.7719C93.6705 29.3205 93.865 29.8615 94.0734 30.3135L94.364 30.9573C94.4971 30.6773 94.5747 30.374 94.5923 30.0643C94.7681 29.3374 94.8468 28.5365 94.9299 27.6908C94.9971 27.0063 95.0672 26.2924 95.1941 25.5647C95.1249 25.4055 95.5331 25.1425 95.7129 25.0594C95.8928 24.9763 96.0242 25.2463 95.9965 25.6478C95.9436 25.7714 95.9177 26.1958 95.8921 26.6142C95.8676 27.0159 95.8434 27.412 95.7959 27.5307C95.7967 28.0951 95.7175 28.6568 95.5607 29.199C95.6063 29.7038 95.5205 30.2118 95.3117 30.6735C95.3878 30.8327 95.3117 31.075 95.1872 31.3242V31.3243C95.1872 31.7257 95.1872 31.7257 95.1249 32.1272C95.1203 32.1387 95.1158 32.1501 95.1112 32.1615C95.0187 32.3922 94.9276 32.6193 94.9935 32.771C95.201 33.221 94.5231 34.5224 93.9628 34.2386C93.9195 34.2608 93.8693 34.2653 93.8228 34.2511C93.7763 34.2369 93.7371 34.2051 93.7137 34.1624C93.4207 34.0589 93.1112 34.0097 92.8006 34.0171C92.6276 34.1001 92.3025 33.8648 92.2333 33.7056L92.0881 33.3871C91.9112 32.6405 91.6513 31.916 91.3133 31.2273L91.168 30.9089L91.0643 31.1512C91.0433 31.4611 90.9635 31.7642 90.8291 32.0442C90.885 32.1726 90.9091 32.3127 90.8995 32.4524C90.8899 32.5922 90.8467 32.7276 90.7737 32.8472C90.697 33.1943 90.5588 33.5249 90.3656 33.8232C90.025 34.3733 89.496 34.7807 88.8774 34.9692C88.2588 35.1577 87.5928 35.1145 87.0036 34.8478C86.1489 34.5118 85.4323 33.8972 84.9698 33.1033C84.3956 32.1786 84.0912 31.1115 84.0913 30.0228C84.0629 29.8847 84.0384 29.746 84.0176 29.6068C84.0169 29.6139 84.0161 29.621 84.0152 29.6283C84.0152 29.6612 84.0192 29.7112 84.024 29.7735C84.0386 29.9598 84.0619 30.2567 84.0152 30.542C84.0534 31.4567 83.9649 32.3722 83.7524 33.2626L83.8216 33.4841C83.9094 33.7963 83.8849 34.1295 83.7524 34.4255C83.5956 34.672 83.5234 35.0092 83.4532 35.3371C83.3934 35.6169 83.3349 35.8899 83.2266 36.0938V36.1769C82.9939 36.5384 82.6593 36.8227 82.2651 36.9938C81.8569 37.4022 81.5733 37.3953 80.9576 37.3468C80.528 37.2949 80.114 37.1535 79.7422 36.9317C79.3705 36.71 79.0493 36.4128 78.7993 36.0592C78.4114 35.5585 78.0556 35.0336 77.734 34.4878C77.6628 34.2723 77.5336 34.0807 77.3605 33.934L77.2982 33.7402C77.1207 33.9001 77.1102 33.984 77.0849 34.187C77.0806 34.2213 77.0759 34.2589 77.0699 34.3009C77.0115 34.6352 76.9505 34.924 76.8946 35.1887C76.8579 35.3627 76.8234 35.5262 76.7932 35.6854C76.7423 36.1108 76.7423 36.5407 76.7932 36.9661C76.9385 37.6583 77.153 38.6621 77.3121 39.382C77.332 39.7954 77.4355 40.2005 77.6164 40.5727C77.7064 40.7596 76.3367 41.3411 76.1983 41.2303C76.1056 41.2598 76.0873 41.2894 76.0575 41.3377C76.0383 41.3687 76.0144 41.4074 75.9631 41.4588L75.8939 41.7564C75.8542 41.7564 75.8179 41.719 75.7784 41.6783C75.7217 41.62 75.6585 41.5548 75.5688 41.5834C75.4106 41.7417 75.2079 41.8479 74.9877 41.8879C74.7573 41.707 74.5468 41.4478 74.3349 41.1869L74.3349 41.1869C74.1333 40.9388 73.9305 40.689 73.708 40.5035C73.6254 39.8106 73.4701 39.1284 73.2445 38.4682C73.1296 37.9174 73.0464 37.3604 72.9955 36.7999C72.9206 36.3448 72.8401 35.9208 72.7617 35.5075L72.7617 35.5075C72.6445 34.8898 72.5318 34.2958 72.449 33.6571C72.3296 33.2612 72.2599 32.8519 72.2414 32.4388C72.2414 32.2462 72.1735 32.037 72.1047 31.8255C72.0401 31.6265 71.9748 31.4255 71.9647 31.2343C71.7473 30.6576 71.5942 30.0586 71.5081 29.4483C71.4116 30.0154 71.3628 30.581 71.3142 31.1428C71.2549 31.8291 71.1962 32.5095 71.0516 33.1795C70.9302 33.3469 70.8626 33.5473 70.8579 33.754C70.8379 34.0521 70.7846 34.347 70.6988 34.6332C70.6198 34.9258 70.6076 35.0379 70.6005 35.1031C70.5908 35.1923 70.5906 35.1943 70.4428 35.4501C70.4044 35.4907 70.3831 35.526 70.3639 35.5579C70.3209 35.6293 70.2882 35.6834 70.097 35.7408C69.9725 35.7823 69.8272 35.7408 69.7165 35.4985L69.6127 35.2839C69.6681 35.0209 69.6957 34.8893 69.7165 34.7301C69.9582 33.6437 70.1315 32.5432 70.2353 31.435C70.4448 29.7871 70.5142 28.1244 70.4428 26.4647C70.3666 26.0982 70.3502 25.7219 70.3944 25.3502C70.4103 25.2749 70.417 25.212 70.4227 25.1596C70.4368 25.0288 70.4439 24.9625 70.5674 24.9279C70.5674 24.6856 72.2345 24.0072 72.3867 23.9588C72.6415 23.768 72.9339 23.6335 73.2445 23.5642C73.369 23.5296 73.5281 23.5988 73.5973 23.8203C73.8115 24.0009 73.9659 24.2423 74.04 24.5125C74.2271 24.9134 74.3396 25.3451 74.3721 25.7863C74.4976 26.289 74.598 26.7648 74.6987 27.2424L74.6987 27.2425C74.8088 27.7646 74.9193 28.289 75.0638 28.8529C75.1011 29.0333 75.1409 29.2137 75.1806 29.3936L75.1807 29.3941L75.1807 29.3942C75.2734 29.8145 75.3654 30.2318 75.4235 30.6389C75.5493 31.3067 75.6924 31.8879 75.8631 32.581L75.8631 32.5812C75.9083 32.7646 75.9554 32.9559 76.0046 33.1587C76.0452 33.0593 76.0798 32.9867 76.1067 32.9302C76.1716 32.7938 76.1919 32.7513 76.143 32.6534Z" fill="white"/>
<path fill-rule="evenodd" clip-rule="evenodd" d="M12.0481 16.5067C11.631 16.0041 11.2101 15.4985 10.7853 14.99C9.80045 13.7218 8.91781 12.7235 8.15032 11.8554C7.92912 11.6052 7.71748 11.3659 7.51572 11.134C6.50578 9.94816 5.30875 8.74332 3.89395 7.95425L3.77703 7.86641C3.53587 7.72002 3.33855 7.61315 3.17047 7.5297L3.12224 7.51506C2.6438 7.41817 2.46569 7.81077 2.35117 8.06322C2.3065 8.16167 2.27151 8.23881 2.23214 8.25729C2.1766 8.37441 2.11668 8.50177 2.05529 8.64084C1.48236 10.3215 0.981039 12.0079 0.941577 13.5919C1.17774 13.8903 1.46778 14.1416 1.7966 14.3327C2.1094 14.5399 2.44605 14.7085 2.79923 14.8348C3.03747 14.8978 3.7171 15.0515 4.00357 15.1057C4.09582 15.1243 4.17866 15.1255 4.25359 15.1265C4.31398 15.1273 4.36923 15.1281 4.42012 15.1379C4.47127 15.1174 4.48881 15.1101 4.50635 15.0837C4.54959 15.1492 4.57835 15.2232 4.5907 15.3007C4.60305 15.3782 4.59871 15.4575 4.57797 15.5331L4.5385 15.5844V15.5449C4.52271 15.5419 4.50638 15.5436 4.49157 15.5499C4.47675 15.5561 4.4641 15.5666 4.45519 15.58L4.2038 15.6854C3.69112 15.8998 3.21328 15.7809 2.80872 15.6803C2.75195 15.6662 2.69662 15.6524 2.64285 15.64C2.51889 15.6051 2.38942 15.5942 2.26138 15.6078L2.11522 15.5727C1.75966 15.4458 1.42212 15.2731 1.11112 15.0588C0.906188 14.9062 0.710935 14.7409 0.526491 14.564C0.304333 15.9723 0.123098 17.3968 0.0193262 18.8432C-0.0712912 21.7037 0.14502 25.0986 0.918191 29.0279L0.969347 29.2197C1.01272 29.4379 1.05215 29.6372 1.08826 29.8198C1.35594 31.1733 1.44185 31.6077 1.60852 32.0083C1.68729 32.1977 1.78409 32.3796 1.92666 32.6473C2.15892 33.0836 2.51262 33.748 3.10763 35.0448C3.1617 35.1531 3.21578 35.2614 3.27132 35.3698C4.78112 37.8321 9.10153 43.931 11.4415 46.4958C11.9253 47.0285 12.4332 47.5467 12.9203 48.0438C13.3073 48.4387 13.6813 48.8202 14.0197 49.1851C14.4738 49.597 14.9244 49.9927 15.3717 50.3724C15.4332 50.4259 15.477 50.4968 15.4974 50.5759C15.4321 50.7348 15.3528 50.8877 15.2606 51.0326C15.2942 51.1409 15.208 51.3093 15.1144 51.4572C15.1144 51.4572 15.0034 51.6328 15.0297 51.7192C15.0969 51.9344 14.7929 51.9344 14.7929 51.9344C14.7761 52.3264 14.6555 52.7068 14.4436 53.0368C14.2465 53.3266 14.1318 53.6646 14.1118 54.0147C14.093 54.2397 14.0739 54.4857 14.0539 54.7433L14.0538 54.7439C14.0177 55.2086 13.9786 55.7111 13.9335 56.196C13.8834 56.3491 13.8865 56.5147 13.9423 56.6659L14.0168 56.9031C14.0168 57.0757 14.0323 57.2135 14.0479 57.3521C14.0661 57.5143 14.0845 57.6775 14.0782 57.8986C14.027 58.2689 13.9832 58.6613 14.2419 58.957L14.2424 58.9589C14.2763 59.068 14.3494 59.3035 14.2419 59.4782C14.2592 59.5588 14.2937 59.6348 14.3428 59.7009C14.392 59.7671 14.4548 59.8219 14.5269 59.8617C14.5887 59.8817 14.6344 59.9094 14.6762 59.9347C14.7597 59.9853 14.8279 60.0267 14.98 59.9788C15.2577 59.8925 15.3439 59.7241 15.4184 59.4401C15.4497 59.3737 15.4801 59.3096 15.5099 59.2468C15.6542 58.9429 15.7839 58.6696 15.9256 58.3129C16.462 56.7508 16.576 55.2503 16.6359 53.5784L16.6096 53.4921C16.5882 53.4246 16.6197 53.3792 16.6497 53.3359C16.677 53.2966 16.7031 53.259 16.6871 53.2081C16.6703 53.1546 16.6831 53.0854 16.6959 53.0163C16.7086 52.9471 16.7214 52.8779 16.7046 52.8245C16.5789 52.864 16.5453 52.7557 16.6315 52.5873C16.5497 51.8817 16.6198 51.2215 16.709 50.4382C16.7448 50.4918 16.7809 50.5651 16.8228 50.6502C16.964 50.937 17.1711 51.3577 17.6546 51.6094C17.8345 51.7657 18.0041 51.9238 18.1714 52.0797L18.1715 52.0798C18.7111 52.5829 19.2265 53.0634 19.9829 53.3852C20.7006 53.8244 21.3656 54.085 22.1197 54.1084C22.3952 54.1562 22.6079 54.1393 22.8399 54.1209L22.84 54.1209C22.9772 54.11 23.1212 54.0985 23.289 54.0996C23.4495 54.0597 23.5954 53.9751 23.71 53.8557C23.8245 53.7363 23.903 53.5869 23.9365 53.4247C24.0476 53.2476 24.0081 53.1187 23.8561 53.1656C23.6119 53.1517 23.3787 53.0593 23.1911 52.9021C23.1364 52.8615 23.0811 52.8212 23.0259 52.781C22.718 52.5566 22.4116 52.3331 22.2133 52.0749C22.0591 52.0109 21.9183 51.8009 21.7917 51.612C21.6292 51.3695 21.49 51.1619 21.3758 51.343C21.173 51.2096 20.9853 51.0544 20.816 50.8804C20.7253 50.8424 20.6644 50.7573 20.5938 50.6588C20.5393 50.5827 20.4791 50.4987 20.3951 50.4221C20.3772 50.4295 20.3579 50.4332 20.3386 50.4331C20.3192 50.4329 20.3 50.4289 20.2822 50.4213C20.2644 50.4137 20.2483 50.4026 20.2348 50.3886C20.2213 50.3747 20.2107 50.3582 20.2036 50.3402C19.7188 49.8336 19.1857 49.3756 18.612 48.9728C18.4774 48.8741 18.3397 48.7615 18.1974 48.6453L18.1974 48.6452C17.9811 48.4685 17.7544 48.2833 17.5129 48.1252C17.5596 48.0242 17.6079 47.9202 17.659 47.8148C18.8561 42.5446 19.0957 35.705 17.9718 28.9972C17.2308 24.9727 14.5152 19.925 12.0481 16.5067ZM3.47303 13.7925L3.68642 13.8803C3.77889 13.9216 3.84785 13.9448 3.93624 13.9744L3.94992 13.979C3.95755 13.9815 3.96534 13.9841 3.9733 13.9868C3.97654 13.9879 3.97981 13.989 3.98312 13.9901C4.26279 14.0169 4.54486 14.0031 4.8206 13.9492C4.92417 13.9303 5.00669 13.8989 5.08665 13.8684C5.14322 13.8469 5.19851 13.8258 5.25907 13.8101C5.45794 13.7149 5.64244 13.5922 5.80716 13.4455L5.95332 13.2992C6.01553 13.2426 6.05718 13.1669 6.0717 13.084L6.1097 13.0459C6.11165 13.0218 6.1185 13.0059 6.12551 12.9895C6.13429 12.969 6.14332 12.948 6.14332 12.9097C6.14332 12.8816 6.14969 12.8595 6.1546 12.8425C6.1617 12.818 6.16576 12.8039 6.14332 12.797C6.15942 12.6952 6.13757 12.591 6.08193 12.5042C6.08617 12.4776 6.08124 12.4504 6.06796 12.427C6.05467 12.4036 6.03383 12.3854 6.00886 12.3754C6.07317 12.3534 6.10532 12.3212 6.11409 12.2685C6.13992 12.2418 6.13856 12.2277 6.13733 12.2149C6.13633 12.2045 6.13542 12.1951 6.14917 12.1807C6.14495 12.0867 6.1538 11.9926 6.17547 11.9011C6.10049 11.8191 6.07418 11.7345 6.04751 11.6487C6.02273 11.5689 5.99764 11.4881 5.93285 11.4077C5.73561 11.1962 5.51607 11.0068 5.27807 10.8426C5.09899 10.7341 4.90034 10.662 4.69344 10.6304C4.61473 10.6213 4.49877 10.6206 4.38631 10.6199H4.38631H4.38631C4.2983 10.6193 4.21244 10.6188 4.14827 10.6143C3.8941 10.651 3.6474 10.728 3.41749 10.8426C3.29253 10.8899 3.17093 10.9457 3.05356 11.0095C3.04723 11.0134 3.04083 11.0173 3.03439 11.0212C2.93815 11.0794 2.83286 11.1431 2.83286 11.2364L2.75832 11.317C2.64729 11.4838 2.58086 11.6763 2.56539 11.8762C2.5487 11.8922 2.54955 11.9033 2.55046 11.915C2.55146 11.928 2.55253 11.9418 2.53031 11.964C2.46162 12.0343 2.45285 12.087 2.49231 12.1558C2.46124 12.3535 2.48449 12.5559 2.55955 12.7414C2.65558 13.037 2.89217 13.2835 3.1335 13.5348L3.15879 13.5612C3.27266 13.625 3.37821 13.7027 3.47303 13.7925ZM8.56626 21.8224L8.56627 21.8224C8.60217 21.7821 8.63568 21.7444 8.6426 21.7037C8.83949 21.2944 8.89994 20.8325 8.81507 20.3862L8.75953 20.209C8.75953 20.209 8.7186 20.1885 8.70983 20.1593C8.70106 20.13 8.66745 20.1402 8.6353 20.1505C8.40954 20.1493 8.18669 20.0994 7.98197 20.0041C7.88499 19.9764 7.79587 19.9262 7.72181 19.8577C7.69869 19.8272 7.6797 19.81 7.6635 19.7953C7.63772 19.7719 7.61902 19.755 7.60196 19.701C7.57578 19.6884 7.5747 19.6685 7.57321 19.6413C7.57229 19.6244 7.57123 19.6048 7.56396 19.5825C7.54496 19.5239 7.60196 19.4727 7.6575 19.4229C7.67942 19.4161 7.7002 19.406 7.72087 19.3959C7.76223 19.3759 7.80316 19.356 7.85189 19.3629C7.89159 19.3629 7.93615 19.3598 7.9816 19.3567C8.10348 19.3485 8.23181 19.3398 8.29036 19.3877C8.36743 19.3632 8.44263 19.4022 8.51223 19.4382L8.51226 19.4383C8.52977 19.4473 8.54693 19.4562 8.56368 19.4639C8.565 19.4679 8.56711 19.4717 8.56989 19.4749C8.57267 19.4781 8.57606 19.4808 8.57986 19.4827C8.58367 19.4846 8.58782 19.4857 8.59207 19.486C8.59631 19.4863 8.60057 19.4857 8.6046 19.4844C8.62556 19.478 8.63686 19.487 8.65232 19.4992C8.66165 19.5066 8.6725 19.5153 8.68791 19.5224C8.69784 19.5508 8.73669 19.5696 8.77772 19.5894L8.78145 19.5912C8.80068 19.6005 8.8166 19.6234 8.8314 19.6446C8.84921 19.6702 8.8654 19.6935 8.88376 19.6879C8.88747 19.7008 8.90187 19.7149 8.91859 19.7312L8.91859 19.7312C8.94145 19.7535 8.96863 19.7799 8.97876 19.8138L9.03723 19.7962C9.17337 19.7166 9.27382 19.5877 9.31785 19.4361C9.31346 19.4214 9.32187 19.4024 9.33027 19.3834C9.33868 19.3643 9.34708 19.3453 9.3427 19.3307C9.35258 19.3245 9.36372 19.3208 9.37528 19.3197C9.38684 19.3186 9.3985 19.3201 9.40937 19.3242C9.42024 19.3283 9.43002 19.3348 9.43797 19.3433C9.44422 19.35 9.44921 19.3577 9.45272 19.3661C9.47083 19.2092 9.52521 19.0505 9.61161 18.89C9.64216 18.8067 9.69915 18.7357 9.77384 18.688C9.92008 18.5269 10.101 18.4012 10.3029 18.3205C10.3648 18.3316 10.4285 18.3202 10.4827 18.2883L10.6055 18.2283C10.7145 18.26 10.7886 18.2126 10.8598 18.1671C10.8841 18.1516 10.908 18.1363 10.9329 18.1244L10.9943 18.0936C11.07 18.1215 11.135 18.1728 11.1799 18.24C11.3048 18.3276 11.4091 18.4415 11.4853 18.5738C11.5526 18.7201 11.5783 18.9 11.6028 19.0715C11.6251 19.2278 11.6464 19.377 11.6973 19.4873C11.721 19.5386 11.782 19.7539 11.8419 19.9652C11.9 20.1702 11.957 20.3715 11.9779 20.4154C12.0264 20.2919 12.0626 20.164 12.0861 20.0333C12.1036 19.9496 12.115 19.8914 12.1262 19.8342L12.1262 19.8342L12.1262 19.8342L12.1262 19.8341C12.1448 19.7394 12.1627 19.6477 12.2074 19.4478C12.2133 19.4274 12.2169 19.4024 12.2207 19.377L12.2207 19.377L12.2207 19.3769L12.2207 19.3769C12.2318 19.3017 12.2435 19.222 12.3155 19.2428H12.3331C12.4458 19.2767 12.406 19.4849 12.3832 19.6045L12.3832 19.6046L12.3831 19.6048C12.3794 19.6246 12.3761 19.6419 12.374 19.6556C12.3263 20.0088 12.2515 20.3578 12.1504 20.6994C12.1259 20.8089 12.1299 20.9228 12.1621 21.0303C12.173 21.073 12.173 21.1179 12.1621 21.1606C12.1668 21.2178 12.1643 21.2509 12.1623 21.2766C12.1589 21.3221 12.1572 21.3448 12.2001 21.4373C12.1972 21.482 12.1881 21.5085 12.1792 21.5344C12.1653 21.5747 12.1519 21.6135 12.1635 21.7169C12.117 21.7633 12.0563 21.7927 11.991 21.8003H11.7747C11.6904 21.7328 11.5894 21.6893 11.4824 21.6744C11.4597 21.6663 11.4388 21.6537 11.421 21.6374C11.4032 21.6211 11.3887 21.6014 11.3786 21.5795C11.3684 21.5576 11.3626 21.5338 11.3616 21.5097C11.3606 21.4855 11.3644 21.4614 11.3728 21.4387C11.3862 21.4091 11.3997 21.3833 11.4118 21.3601C11.4501 21.287 11.4755 21.2386 11.4444 21.1708C11.3957 21.0291 11.3666 20.8813 11.3582 20.7317C11.3018 20.5679 11.2484 20.3936 11.1937 20.2145L11.1937 20.2145C11.0795 19.8415 10.959 19.4477 10.7911 19.0847C10.7704 19.0404 10.7605 18.988 10.7503 18.9343C10.7397 18.878 10.7288 18.8202 10.7049 18.7685L10.6552 18.6631C10.509 18.6104 10.4608 18.6338 10.3892 18.7377C10.2672 18.8054 10.1734 18.9144 10.1246 19.0452C10.0588 19.129 10.0209 19.2314 10.0165 19.338C9.99563 19.3999 9.98801 19.4656 9.9941 19.5306C10.0002 19.5957 10.0199 19.6588 10.0518 19.7158C10.0838 19.7728 10.1273 19.8224 10.1796 19.8615C10.232 19.9005 10.2919 19.9282 10.3556 19.9426C10.3775 19.9865 10.4637 20.0129 10.4389 19.9572C10.5229 19.9266 10.615 19.9266 10.699 19.9572C10.7391 19.9388 10.7828 19.9293 10.8269 19.9293C10.871 19.9293 10.9147 19.9388 10.9548 19.9572C10.9761 20.0031 10.9729 20.0297 10.9693 20.0588C10.9651 20.0936 10.9605 20.1321 10.9972 20.212C10.9972 20.277 10.9824 20.3392 10.9662 20.4074C10.9514 20.4697 10.9355 20.537 10.9285 20.616C10.9044 20.9176 10.796 21.2063 10.6157 21.449C10.5342 21.5568 10.4133 21.6279 10.2796 21.6466C10.2168 21.6772 10.1596 21.6569 10.0981 21.635C10.0507 21.6181 10.0006 21.6004 9.94339 21.6042C9.87323 21.5822 9.36607 21.184 9.35876 20.8122C9.35474 20.7732 9.34971 20.7409 9.34535 20.7128L9.34535 20.7128C9.33068 20.6184 9.32346 20.5719 9.38653 20.4828C9.40665 20.4467 9.43912 20.4191 9.47795 20.4051C9.51678 20.3911 9.55934 20.3917 9.5978 20.4067C9.63626 20.4217 9.66801 20.4501 9.6872 20.4866C9.70639 20.5232 9.71173 20.5655 9.70223 20.6058C9.69411 20.6337 9.67878 20.6675 9.66319 20.7018C9.63387 20.7664 9.60365 20.8329 9.61892 20.8663C9.76507 21.1591 10.0121 21.3904 10.0574 21.3655C10.2152 21.2689 10.3292 20.8634 10.3599 20.3803L10.2912 20.3598C10.1588 20.3721 10.0254 20.3479 9.90567 20.2898C9.7859 20.2318 9.68423 20.1421 9.61161 20.0304C9.53098 19.9016 9.481 19.7714 9.45905 19.6398L9.44793 19.6586C9.43007 19.6888 9.4203 19.7117 9.41197 19.7313C9.39847 19.763 9.38871 19.7859 9.35439 19.8167C9.30263 19.9071 9.22803 19.9824 9.13808 20.0348C9.13808 20.0977 9.15312 20.1287 9.17123 20.1661C9.18135 20.1869 9.19243 20.2097 9.20238 20.2412C9.20771 20.259 9.21412 20.2737 9.22005 20.2873C9.23364 20.3184 9.24471 20.3438 9.23454 20.3876L9.25354 20.4462C9.28714 20.5345 9.30399 20.6284 9.30323 20.7229C9.31664 20.7642 9.31112 20.796 9.30672 20.8215C9.30488 20.8321 9.30323 20.8416 9.30323 20.8502L9.33538 20.84C9.33538 20.9032 9.34313 20.9569 9.35033 21.0068C9.3578 21.0586 9.36467 21.1063 9.3617 21.1562C9.35847 21.1611 9.35639 21.1668 9.35561 21.1726C9.35484 21.1785 9.35538 21.1844 9.3572 21.19C9.35902 21.1957 9.36208 21.2008 9.36615 21.2051C9.37021 21.2093 9.37518 21.2127 9.38069 21.2148C9.38689 21.2365 9.38433 21.2772 9.38229 21.3096C9.38145 21.323 9.38069 21.335 9.38069 21.3436C9.36109 21.4819 9.31861 21.616 9.255 21.7403C9.22549 21.8171 9.18869 21.8908 9.14517 21.9603C9.14974 21.9643 9.15419 21.9685 9.15852 21.9731C9.23891 22.0038 9.26229 22.2937 9.20675 22.4211C9.16799 22.4536 9.12466 22.4802 9.07814 22.5001C9.05399 22.5214 9.02507 22.5364 8.99542 22.5518C8.96587 22.5671 8.93559 22.5829 8.9086 22.6055C8.8369 22.6464 8.82132 22.6593 8.80488 22.6728C8.79251 22.6829 8.77965 22.6935 8.74198 22.7168C8.66666 22.7711 8.63869 22.7725 8.61427 22.7738C8.59131 22.775 8.57149 22.776 8.51836 22.8207C8.50586 22.8418 8.48827 22.8594 8.4672 22.872C8.35284 22.9417 8.25064 23.0297 8.16466 23.1325C8.14018 23.1421 8.11925 23.1589 8.10473 23.1809L8.07112 23.1896C7.62696 23.5909 8.16445 23.8492 8.12608 23.7997L8.28743 23.9963C8.31603 24.0393 8.35671 24.073 8.40435 24.0929C8.49942 24.1464 8.58591 24.179 8.66237 24.2078C8.79516 24.2578 8.89775 24.2965 8.96267 24.4135C8.95547 24.4379 8.98212 24.4567 9.00671 24.474L9.00672 24.474C9.02203 24.4848 9.03655 24.4951 9.0416 24.5057C9.05408 24.529 9.06861 24.5552 9.08339 24.5819C9.11706 24.6426 9.15206 24.7058 9.16729 24.7414C9.16729 24.7004 9.38214 25.024 9.38653 25.592L9.3953 25.7794C9.3945 25.8199 9.4046 25.8598 9.42453 25.895C9.43035 25.9096 9.41121 25.9423 9.39213 25.9749C9.37284 26.0078 9.35361 26.0406 9.36022 26.0546C9.36747 26.0765 9.36747 26.1001 9.36022 26.1219L9.40115 26.1981C9.40115 26.1981 9.4143 26.2273 9.38945 26.2391C9.39359 26.3237 9.37703 26.4082 9.34122 26.485C9.35437 26.5128 9.32368 26.5275 9.32368 26.5275C9.30844 26.6207 9.2804 26.7113 9.24037 26.7968C9.21711 26.842 9.18355 26.881 9.14242 26.9108C9.10128 26.9406 9.05372 26.9602 9.0036 26.9681C8.90729 26.9873 8.80842 26.9897 8.71128 26.9754C8.66371 26.9605 8.6127 26.9605 8.56513 26.9754L8.54893 26.9774C8.45387 26.9888 8.35111 27.0011 8.28889 26.9388C8.2733 26.9463 8.26224 26.9427 8.25111 26.9392C8.24032 26.9358 8.22946 26.9323 8.21435 26.9388L8.04334 26.8202C7.88628 26.6754 7.75527 26.5045 7.65603 26.3152C7.568 26.1585 7.51 25.9867 7.48502 25.8087C7.4303 25.6314 7.39454 25.4489 7.37833 25.2641C7.40016 25.1485 7.40016 25.0298 7.37833 24.9142C7.36784 24.747 7.39018 24.5794 7.4441 24.4208C7.46584 24.3304 7.50727 24.2459 7.56541 24.1734C7.68437 24.1586 7.80509 24.1675 7.92057 24.1998C7.92057 24.1998 7.96442 24.2144 7.97611 24.2422C8.05466 24.2422 8.06902 24.266 8.0969 24.3121L8.09889 24.3154C8.11584 24.3434 8.10674 24.3532 8.09838 24.3622C8.09233 24.3688 8.08667 24.3749 8.09158 24.3872C8.1091 24.5056 8.0925 24.5662 8.07638 24.625C8.0656 24.6644 8.05504 24.703 8.05504 24.7575C8.06527 24.781 8.04334 24.8322 8.02434 24.8747C8.03114 24.889 8.04261 24.8921 8.05474 24.8953C8.06609 24.8983 8.07801 24.9014 8.08719 24.9142C8.07569 24.9393 8.0706 24.9669 8.07238 24.9945C8.07417 25.0221 8.08277 25.0488 8.09742 25.0723C8.09076 25.1433 8.10392 25.2148 8.13542 25.2787L8.14858 25.3065C8.14858 25.3685 8.16509 25.4165 8.18147 25.4642C8.19956 25.5168 8.21749 25.5689 8.21289 25.6388C8.24936 25.6977 8.2714 25.7645 8.2772 25.8335C8.29119 25.8582 8.30215 25.8909 8.31409 25.9264C8.32833 25.9688 8.34396 26.0153 8.36781 26.0575C8.38378 26.0858 8.39935 26.1414 8.41715 26.2049C8.44824 26.3159 8.48611 26.4511 8.54466 26.507C8.5507 26.5213 8.5505 26.5372 8.55031 26.5533C8.55013 26.5684 8.54994 26.5836 8.55489 26.5977C8.57854 26.6051 8.59975 26.6188 8.61628 26.6373C8.63538 26.5768 8.65052 26.5152 8.66159 26.4528C8.69989 26.0647 8.68513 25.6731 8.61774 25.289C8.57792 25.0399 8.50003 24.7984 8.38682 24.5731C8.30375 24.3555 8.22181 24.2834 8.05502 24.1366L8.05499 24.1366C8.03102 24.1155 8.0053 24.0928 7.97758 24.068C7.57901 23.7283 7.5979 23.6973 7.64337 23.6227C7.6606 23.5944 7.68165 23.5599 7.68526 23.5C7.68334 23.4688 7.68853 23.4375 7.70043 23.4086C7.71233 23.3797 7.73063 23.3539 7.75396 23.3331C7.76574 23.3169 7.75228 23.3125 7.73678 23.3076C7.72152 23.3026 7.70429 23.2971 7.70719 23.2789C7.8451 22.7582 7.97689 22.6325 8.14937 22.4679L8.1494 22.4679L8.14947 22.4678L8.14954 22.4678L8.14955 22.4677C8.18358 22.4353 8.21918 22.4013 8.25673 22.3625C8.28564 22.3341 8.31516 22.3065 8.34529 22.2795C8.28058 22.2614 8.21687 22.2397 8.15444 22.2146C7.99444 22.1455 7.85896 22.0297 7.76566 21.8823L7.63704 21.468C7.63704 21.3932 7.63048 21.3052 7.62418 21.2207C7.61976 21.1614 7.61546 21.1038 7.61365 21.0537L7.59612 20.9952C7.56294 21.0055 7.54873 21.0181 7.53455 21.0306C7.5206 21.043 7.50668 21.0553 7.47481 21.0654C7.46311 21.0852 7.44923 21.0976 7.43534 21.1101C7.42146 21.1225 7.40757 21.135 7.39588 21.1547C7.3779 21.1581 7.36082 21.1652 7.34572 21.1755C7.33062 21.1858 7.31784 21.1992 7.30819 21.2148C7.34501 21.3337 7.37093 21.4557 7.38565 21.5793C7.41566 21.7355 7.42937 21.8945 7.42657 22.0536C7.43476 22.0788 7.42476 22.1095 7.41471 22.1404C7.40143 22.1811 7.38807 22.2221 7.41634 22.2512C7.41982 22.287 7.41397 22.3231 7.39937 22.3559C7.38477 22.3888 7.36191 22.4173 7.33304 22.4386C7.32207 22.4907 7.30177 22.5403 7.27311 22.585C7.17082 22.664 7.06002 22.7313 6.94279 22.7856L6.92526 22.8017C6.73914 22.8408 6.54751 22.8457 6.35963 22.8163C6.18845 22.7857 6.03335 22.6961 5.92116 22.5631C5.89581 22.5391 5.87261 22.5224 5.84925 22.5055C5.82548 22.4883 5.80154 22.4711 5.775 22.446C5.75187 22.4533 5.67658 22.2926 5.63939 22.2132L5.63938 22.2132C5.62486 22.1822 5.61615 22.1636 5.61861 22.1722C5.60645 22.1917 5.5899 22.1881 5.57009 22.1662C5.54304 22.227 5.52537 22.2917 5.51776 22.3581C5.48309 22.5553 5.40969 22.7437 5.30181 22.9124C5.19392 23.081 5.05371 23.2265 4.88929 23.3404C4.61597 23.5615 4.30466 23.6156 3.92173 23.6435C3.69844 23.6599 3.47421 23.6285 3.26402 23.5512C3.07172 23.475 2.88472 23.386 2.70424 23.2848C2.49046 23.1223 2.31235 22.9175 2.181 22.6831C2.16085 22.6185 2.12294 22.5393 2.08857 22.4674C2.06059 22.409 2.03495 22.3554 2.02315 22.3186C1.89307 22.0609 1.87699 21.5969 1.87699 21.2938C1.93309 20.9455 2.04461 20.6084 2.20731 20.2954C2.30118 20.1203 2.41233 19.955 2.53908 19.802C2.61245 19.7097 2.67079 19.6519 2.74104 19.5824C2.76875 19.5549 2.79832 19.5256 2.8314 19.4917C2.92347 19.3972 3.07173 19.3607 3.17556 19.3352L3.17561 19.3352L3.17567 19.3352C3.20365 19.3283 3.2284 19.3222 3.24794 19.316C3.29525 19.301 3.34178 19.2983 3.38735 19.2957H3.38736C3.43048 19.2932 3.47273 19.2908 3.51395 19.2779C3.67592 19.2513 3.8414 19.2548 4.00211 19.2882C4.02949 19.3039 4.05519 19.307 4.08079 19.31C4.10302 19.3127 4.12517 19.3154 4.14827 19.3263C4.14396 19.3076 4.14636 19.2913 4.1487 19.2755C4.15112 19.2591 4.15347 19.2431 4.14827 19.2252C4.15907 19.1805 4.16526 19.1873 4.17086 19.1935C4.17662 19.1998 4.18176 19.2055 4.19066 19.1535C4.22262 19.0166 4.24378 19.0121 4.32751 18.9943C4.35479 18.9885 4.38871 18.9813 4.43182 18.9676C4.52974 18.9822 4.64082 19.0452 4.6072 19.095C4.61327 19.1766 4.61374 19.183 4.61249 19.1833C4.61238 19.1834 4.61227 19.1834 4.61214 19.1833C4.61049 19.1832 4.6072 19.1828 4.6072 19.2706C4.61265 19.2876 4.61133 19.3068 4.60978 19.3294C4.60759 19.3613 4.60495 19.3997 4.62036 19.4478C4.62603 19.4654 4.62274 19.4847 4.61892 19.5072C4.61387 19.5368 4.60788 19.572 4.62036 19.6161C4.64862 19.607 4.64674 19.6252 4.64417 19.6501C4.64261 19.6652 4.64081 19.6827 4.6452 19.6981C4.62705 19.8776 4.61924 20.0579 4.62182 20.2383C4.62631 20.2523 4.62535 20.268 4.62441 20.2834C4.62258 20.3132 4.62082 20.3419 4.65836 20.3554C4.67745 20.416 4.66884 20.4657 4.66267 20.5013C4.66034 20.5148 4.65836 20.5262 4.65836 20.5355C4.64943 20.6201 4.66147 20.7056 4.69344 20.7844C4.70659 20.8253 4.70659 20.8253 4.67444 20.881L4.38212 20.9747L4.29735 21.001C4.20491 20.9319 4.18291 20.8355 4.16151 20.7417C4.15482 20.7124 4.1482 20.6834 4.1395 20.6555C4.12792 20.6171 4.1296 20.5808 4.13123 20.5457C4.1329 20.5098 4.13451 20.4751 4.12196 20.4403C4.09658 20.2811 4.09167 20.1192 4.10735 19.9587C4.08913 19.9001 4.08913 19.8373 4.10735 19.7786C4.11096 19.7062 4.10753 19.6337 4.09712 19.562C4.02563 19.5063 3.93818 19.4751 3.84766 19.473C3.75713 19.4709 3.66833 19.498 3.59434 19.5502C3.30604 19.7136 3.07913 19.9672 2.94832 20.272C2.93315 20.2981 2.92654 20.3205 2.92118 20.3386C2.91363 20.3642 2.90855 20.3814 2.88547 20.3891C2.86734 20.4141 2.86209 20.4375 2.85661 20.462C2.85149 20.4848 2.84617 20.5086 2.82993 20.5355C2.72475 20.7931 2.65826 21.065 2.63262 21.3421C2.60426 21.6718 2.62843 22.0039 2.70424 22.3259C2.73201 22.5762 2.77586 22.7827 2.97463 22.9408C3.04261 23.0293 3.12886 23.102 3.22749 23.1541C3.32611 23.2061 3.43479 23.2362 3.5461 23.2423C3.70481 23.2791 3.87051 23.2721 4.0255 23.2218C4.17694 23.1659 4.31489 23.0786 4.43035 22.9657C4.74313 22.7373 4.86883 22.4342 4.95214 22.1005C4.96451 22.081 4.97179 22.0587 4.97333 22.0357C4.97486 22.0127 4.97059 21.9896 4.9609 21.9687C4.92144 21.8443 4.99452 21.7828 5.09244 21.752C5.14956 21.7295 5.21183 21.7234 5.27222 21.7345C5.30552 21.7264 5.34065 21.7316 5.37014 21.7491C5.37581 21.7523 5.38105 21.7559 5.38594 21.7598C5.27822 21.4591 5.16239 21.0705 5.09489 20.844L5.09485 20.8439C5.0755 20.779 5.06013 20.7274 5.05006 20.6951C5.03225 20.638 5.01132 20.543 4.99014 20.4469L4.99013 20.4468C4.96785 20.3458 4.94531 20.2435 4.92583 20.1827C4.88816 20.0391 4.86659 19.8918 4.86152 19.7435C4.84628 19.6359 4.8523 19.5695 4.85828 19.5034C4.86436 19.4363 4.8704 19.3695 4.85421 19.2604C4.85766 19.034 4.88262 18.8086 4.92875 18.587C4.97845 18.4013 5.04096 18.2193 5.11583 18.0424C5.15212 17.9167 5.19577 17.8699 5.25459 17.8068C5.27869 17.7809 5.30534 17.7523 5.33507 17.7144C5.37427 17.6666 5.4244 17.6289 5.48122 17.6046C5.49503 17.5813 5.53582 17.5809 5.6015 17.5803C5.64709 17.5799 5.70467 17.5794 5.77354 17.571L5.946 17.6208L5.94763 17.6215C5.98909 17.6408 6.07052 17.6786 6.09216 17.7379C6.14331 17.7862 6.20324 17.8652 6.18862 17.934C6.20003 17.9707 6.22402 18.0086 6.24732 18.0455C6.28072 18.0983 6.3127 18.1488 6.30409 18.1902C6.28222 18.2551 6.29805 18.3199 6.31334 18.3826C6.3236 18.4246 6.33362 18.4656 6.33186 18.505C6.31886 18.5972 6.30543 18.67 6.29325 18.736C6.27392 18.8407 6.25775 18.9283 6.25147 19.0496C6.26761 19.1006 6.24822 19.1546 6.22827 19.2101C6.21389 19.2502 6.19923 19.291 6.19739 19.3321C6.20357 19.4064 6.18266 19.4635 6.16102 19.5227C6.13659 19.5894 6.11123 19.6588 6.12285 19.7581C6.05336 20.1132 5.92602 20.3284 5.79688 20.5467L5.79687 20.5467L5.79687 20.5468C5.76306 20.6039 5.72913 20.6613 5.69607 20.7214C5.67968 20.751 5.86097 21.1495 5.9572 21.361L5.9572 21.3611L5.95721 21.3611C5.9897 21.4325 6.01248 21.4826 6.0147 21.49C6.105 21.7077 6.22825 21.9101 6.38009 22.0902C6.44787 22.1804 6.52212 22.2655 6.60225 22.3449C6.61248 22.3742 6.6534 22.3932 6.69579 22.4123C6.74492 22.3966 6.76504 22.3528 6.78224 22.3153C6.78755 22.3037 6.79258 22.2928 6.7981 22.2835C6.8509 22.1106 6.86684 21.9285 6.84487 21.7491L6.79517 21.4739C6.78417 21.4208 6.75652 21.3726 6.71625 21.3363C6.69567 21.327 6.6775 21.3247 6.65956 21.3224C6.64057 21.3199 6.62184 21.3175 6.60079 21.307C6.53468 21.3164 6.46733 21.3035 6.40932 21.2704C6.38163 21.2679 6.35498 21.2586 6.33177 21.2433C6.30856 21.2279 6.28951 21.2071 6.27632 21.1826C6.21762 21.1172 6.17198 21.0412 6.14186 20.9586C6.03577 20.7707 6.00247 20.5502 6.04831 20.3393C6.08189 20.2566 6.13158 20.1815 6.19447 20.1183C6.22582 20.0904 6.24264 20.0641 6.25766 20.0406C6.28047 20.0049 6.29913 19.9758 6.35817 19.9572C6.3934 19.9313 6.4355 19.9163 6.47918 19.9143C6.52285 19.9122 6.56617 19.923 6.60371 19.9455L6.89602 20.0802C6.92704 20.0941 6.95259 20.1308 6.97838 20.1678L6.9784 20.1679C6.98784 20.1814 6.99731 20.195 7.0071 20.2076C7.14786 20.4419 7.24678 20.699 7.29942 20.9674C7.36373 20.941 7.64435 20.7888 7.62389 20.6321C7.62045 20.5191 7.63325 20.4062 7.66189 20.2969C7.66856 20.2612 7.68387 20.2241 7.69924 20.1868C7.7142 20.1505 7.72922 20.1141 7.73643 20.0787C7.75981 20.0392 7.7832 19.9997 7.81535 19.9894C7.92205 19.9894 8.03167 20.0641 8.01705 20.1358C8.05646 20.2187 8.07069 20.3114 8.05797 20.4023C8.04967 20.4414 8.03853 20.471 8.02671 20.5025L8.0267 20.5025C8.01772 20.5264 8.00834 20.5514 7.99951 20.5823C8.00942 20.6043 8.00973 20.6198 8.01007 20.6367C8.01044 20.6547 8.01084 20.6743 8.0229 20.7053C8.03138 20.8825 8.07354 21.0564 8.14713 21.2177L8.23921 21.5105C8.28435 21.5892 8.32566 21.6583 8.3678 21.7288C8.39934 21.7816 8.43134 21.8351 8.46575 21.894L8.49644 21.9116C8.51554 21.8793 8.54147 21.8502 8.56626 21.8224ZM5.60984 20.25C5.61854 20.173 5.64254 20.1211 5.66686 20.0685C5.69568 20.0062 5.72494 19.9429 5.72969 19.8357C5.83276 19.4534 5.81397 18.8979 5.7987 18.4466C5.79643 18.3795 5.79424 18.3147 5.79254 18.2532C5.79921 18.1732 5.78616 18.0927 5.75454 18.0189C5.71069 17.8726 5.60838 17.6251 5.4403 17.8125C5.42856 17.8324 5.42529 17.8496 5.42199 17.8671C5.41871 17.8844 5.4154 17.9019 5.40376 17.9223C5.38168 17.9898 5.36746 18.0595 5.36137 18.1302C5.3502 18.1491 5.3497 18.1723 5.3492 18.1957C5.34866 18.2213 5.3481 18.2472 5.3336 18.2678C5.32861 18.3643 5.31594 18.4633 5.30327 18.5623L5.30326 18.5624C5.28999 18.6661 5.27671 18.7699 5.27222 18.871C5.28537 19.0291 5.28976 19.1564 5.29414 19.2853L5.33068 19.4038C5.33068 19.4545 5.32491 19.482 5.32025 19.5042C5.31318 19.5378 5.30867 19.5593 5.33068 19.6308L5.33945 19.66C5.38593 19.9037 5.44892 20.1438 5.52799 20.3788C5.5293 20.3831 5.53146 20.387 5.53434 20.3903C5.53722 20.3937 5.54076 20.3964 5.54473 20.3983C5.54871 20.4003 5.55304 20.4013 5.55745 20.4015C5.56186 20.4017 5.56627 20.4009 5.57038 20.3993C5.59523 20.3891 5.60984 20.2793 5.60984 20.25ZM6.64463 21.0991L6.62709 21.0406C6.57197 20.8096 6.50117 20.5826 6.41517 20.3613C6.41171 20.3443 6.40437 20.3283 6.39372 20.3145C6.38307 20.3008 6.3694 20.2898 6.35378 20.2822C6.35181 20.2745 6.34755 20.2675 6.34157 20.2623C6.33558 20.257 6.32815 20.2537 6.32025 20.2528C6.31234 20.2518 6.30434 20.2533 6.29728 20.257C6.29022 20.2607 6.28444 20.2664 6.2807 20.2734C6.25505 20.2813 6.26855 20.399 6.27638 20.4674C6.27882 20.4887 6.2807 20.5051 6.2807 20.5121C6.31724 20.6306 6.45171 21.0625 6.60956 21.1094L6.64463 21.0991ZM8.54467 19.7654C8.44048 19.6775 8.32615 19.6023 8.20413 19.5415C8.16792 19.5365 8.12964 19.5249 8.0913 19.5134L8.09128 19.5134C8.05071 19.5011 8.01007 19.4889 7.97174 19.4844C7.9637 19.4791 7.9546 19.4757 7.94509 19.4743C7.93558 19.4729 7.92589 19.4737 7.91669 19.4765C7.9075 19.4793 7.89902 19.484 7.89187 19.4905C7.88472 19.4969 7.87905 19.5048 7.87528 19.5136C7.81974 19.5649 7.82851 19.5942 7.87528 19.6425C7.89942 19.6947 7.93796 19.7389 7.98636 19.7698L8.1062 19.8108C8.2087 19.8728 8.3271 19.9034 8.44675 19.8987C8.50458 19.8944 8.56215 19.887 8.61922 19.8767C8.59663 19.8352 8.56752 19.7976 8.53298 19.7654H8.54467ZM2.78463 27.0018C2.79652 27.0395 2.81498 27.0748 2.83502 27.1132C2.85931 27.1596 2.88592 27.2106 2.90594 27.2755L3.01117 27.6122C3.11116 27.8392 3.19611 28.0724 3.26549 28.3106C3.27434 28.3408 3.27723 28.3778 3.28018 28.4155C3.28308 28.4525 3.28603 28.4902 3.29472 28.5228L3.24648 28.596L3.03309 28.5726C3.0269 28.5869 3.02371 28.6024 3.02371 28.618C3.02371 28.6336 3.0269 28.649 3.03309 28.6634L2.99948 28.6736C2.97975 28.6663 2.95381 28.6663 2.92841 28.6663C2.90302 28.6663 2.87817 28.6663 2.86063 28.659C2.80287 28.6479 2.7439 28.6444 2.68524 28.6487C2.63149 28.6439 2.57902 28.6296 2.53031 28.6063C2.51502 28.5941 2.49745 28.5851 2.47862 28.5798C2.45979 28.5745 2.44009 28.5731 2.4207 28.5755C2.37831 28.5565 2.37831 28.5565 2.371 28.5331L2.0173 27.3985C1.99724 27.2399 1.9605 27.0839 1.90769 26.933C1.88625 26.8614 1.8725 26.7898 1.85875 26.7183C1.84437 26.6434 1.82999 26.5686 1.80684 26.4938C1.78813 26.4337 1.78106 26.3777 1.77455 26.3261C1.76885 26.281 1.76358 26.2393 1.7513 26.201C1.69186 26 1.64932 25.7943 1.62414 25.5861C1.60171 25.5137 1.59003 25.4484 1.57846 25.3837C1.56664 25.3177 1.55495 25.2523 1.53206 25.1806C1.51721 25.0735 1.49406 24.9706 1.47085 24.8674C1.44838 24.7674 1.42585 24.6673 1.41075 24.5628C1.37864 24.4681 1.35803 24.3697 1.34937 24.27C1.31568 24.144 1.29897 24.014 1.29967 23.8836C1.28944 23.8543 1.28944 23.8543 1.31283 23.8147C1.33583 23.7673 1.36932 23.7258 1.41075 23.6932C1.46645 23.6963 1.52218 23.6879 1.57445 23.6684C1.66801 23.6329 1.76677 23.6131 1.86676 23.6098C1.91707 23.6098 1.96803 23.6163 2.01826 23.6227L2.01828 23.6227H2.01829H2.0183H2.01831H2.01832H2.01833H2.01834C2.07461 23.6299 2.12996 23.637 2.18246 23.6347C2.24897 23.6386 2.31655 23.6459 2.38625 23.6535L2.38628 23.6535L2.38632 23.6535C2.49889 23.6658 2.61701 23.6786 2.74516 23.6786C2.85885 23.6922 2.97034 23.7202 3.07694 23.762C3.14086 23.7892 3.20091 23.8105 3.26087 23.8317L3.26089 23.8317C3.31747 23.8518 3.37397 23.8719 3.43357 23.8967C3.57538 23.9824 3.68564 24.1119 3.7478 24.2656L3.7668 24.3242C3.84551 24.5551 3.87586 24.7998 3.85596 25.043C3.84533 25.1022 3.84195 25.166 3.83854 25.2303C3.83445 25.3075 3.83031 25.3855 3.81358 25.4573C3.78142 25.4676 3.79019 25.4983 3.80042 25.5276C3.72682 25.7526 3.61991 25.9653 3.48326 26.1585C3.471 26.1773 3.45308 26.1917 3.43211 26.1995C3.43758 26.2187 3.4271 26.2299 3.41277 26.2453C3.40414 26.2545 3.39412 26.2652 3.38533 26.28C3.30757 26.3968 3.21244 26.501 3.10325 26.5889C3.0842 26.6217 3.05468 26.6522 3.0246 26.6832L3.02459 26.6833L3.02457 26.6833C2.99006 26.7189 2.95479 26.7554 2.93371 26.7968C2.94102 26.8202 2.90886 26.8305 2.87671 26.8407C2.86733 26.8638 2.85305 26.8845 2.83488 26.9014C2.81671 26.9183 2.79507 26.9311 2.77147 26.9388L2.78463 27.0018ZM2.219 24.0929L2.21169 24.0695C2.17567 24.0645 2.14887 24.0572 2.12238 24.0499C2.09404 24.0422 2.06606 24.0345 2.02754 24.0299C1.97011 24.0263 1.9125 24.0263 1.85507 24.0299C1.83312 24.0369 1.81083 24.0402 1.78872 24.0434C1.74606 24.0496 1.70407 24.0557 1.66653 24.0885L1.84484 24.6551C1.85412 24.6863 1.87508 24.7156 1.89283 24.7405C1.90584 24.7586 1.91713 24.7744 1.92084 24.7868C1.93366 24.856 1.96614 24.9201 2.01438 24.9713L2.18246 25.51C2.25049 25.6335 2.30349 25.7647 2.34031 25.9009L2.37393 25.917L2.43824 25.8965C2.46542 25.8552 2.49585 25.8312 2.52141 25.811C2.54122 25.7953 2.55811 25.782 2.56832 25.7647C2.67313 25.6656 2.76541 25.554 2.84309 25.4324C3.00305 25.2441 3.10912 25.016 3.15002 24.7722C3.17245 24.6301 3.16144 24.4847 3.11787 24.3476C3.07054 24.2782 3.00609 24.2222 2.93079 24.1851C2.91526 24.1901 2.90553 24.1872 2.896 24.1843C2.88578 24.1813 2.8758 24.1783 2.85917 24.1851L2.30962 24.0709L2.219 24.0929ZM5.02255 25.7562C4.99616 25.7826 4.97912 25.817 4.97405 25.854L4.91705 25.9873C4.92524 26.0091 4.91813 26.0117 4.9116 26.0141C4.90764 26.0155 4.9039 26.0169 4.9039 26.0224C4.86233 25.8802 4.83903 25.7606 4.81609 25.6428L4.81474 25.6359C4.8065 25.5332 4.78386 25.4322 4.74751 25.3358C4.73623 25.2258 4.70813 25.1181 4.6642 25.0167L4.64958 24.9888C4.64405 24.9771 4.64369 24.9626 4.64328 24.9461C4.64271 24.9233 4.64205 24.8968 4.62766 24.8688C4.60574 24.8076 4.56245 24.7563 4.50576 24.7246C4.44907 24.6928 4.38283 24.6827 4.31927 24.696C4.31927 24.696 4.15118 24.7868 4.11318 24.7722C4.07518 24.7575 4.04449 24.7736 4.02841 24.8176C3.9985 24.8412 3.97739 24.8742 3.96849 24.9112C4.06306 25.0453 4.11686 25.204 4.12342 25.368L4.13645 25.4844C4.18365 25.9053 4.20317 26.0794 4.24619 26.5977C4.26352 26.8231 4.31273 27.045 4.39234 27.2565L4.44204 27.3561C4.51347 27.3751 4.53157 27.4175 4.55083 27.4627C4.55522 27.4729 4.55966 27.4834 4.56481 27.4937C4.61728 27.5971 4.64364 27.615 4.67284 27.6348C4.69489 27.6497 4.71855 27.6658 4.75628 27.7206C4.81402 27.7798 4.88762 27.8209 4.9682 27.8392C5.01574 27.8536 5.0544 27.8616 5.09392 27.8699L5.09395 27.8699L5.09398 27.8699L5.09408 27.8699C5.12255 27.8758 5.15149 27.8818 5.18452 27.8904L5.31752 27.9255C5.41824 27.8941 5.51527 27.8519 5.60691 27.7996C5.73303 27.7305 5.83081 27.619 5.88315 27.4849C5.97033 27.2453 6.01341 26.9918 6.0103 26.7368C5.99542 26.6353 5.99325 26.6002 5.99114 26.566C5.98889 26.5296 5.9867 26.4942 5.96938 26.3811C5.96858 26.353 5.96296 26.3206 5.95804 26.2922C5.95397 26.2687 5.95038 26.2479 5.95038 26.2347C6.11549 26.1457 6.15415 25.9684 6.19516 25.7803L6.19797 25.7674L6.20177 25.7501C6.26082 26.0175 6.30133 26.1706 6.33239 26.2879C6.35438 26.3709 6.37164 26.4361 6.38739 26.5114C6.39107 26.6549 6.44665 26.7922 6.54378 26.8978L6.58324 26.9754C6.60445 27.022 6.63697 27.0624 6.67782 27.0931C6.71867 27.1238 6.76656 27.1437 6.81709 27.1511C6.91826 27.1386 7.01687 27.1105 7.10941 27.0677L7.1401 27.0516L7.23364 26.7983C7.2577 26.7134 7.27529 26.6268 7.28625 26.5392C7.28438 26.5103 7.29322 26.4603 7.30303 26.4048C7.31613 26.3307 7.33094 26.2468 7.32426 26.1907C7.31989 26.0331 7.32967 25.8753 7.35349 25.7194C7.3491 25.6725 7.3491 25.6304 7.3491 25.5885V25.5885C7.3491 25.5466 7.3491 25.5049 7.34472 25.4588C7.35857 25.4209 7.33553 25.3766 7.313 25.3332C7.30938 25.3262 7.30577 25.3193 7.30233 25.3124C7.21987 25.2959 7.20788 25.3576 7.19947 25.4011C7.19819 25.4077 7.19699 25.4138 7.19564 25.4192C7.1785 25.4941 7.17064 25.5708 7.17225 25.6476C7.17153 25.6829 7.14717 25.8532 7.12256 26.0251C7.09711 26.203 7.0714 26.3827 7.0714 26.4162C7.05204 26.4432 7.04151 26.4732 7.03114 26.5027C7.0196 26.5355 7.00827 26.5678 6.98517 26.5948C6.95994 26.5909 6.95726 26.5702 6.95446 26.5487C6.95304 26.5377 6.95159 26.5266 6.94717 26.5172C6.95078 26.4531 6.94185 26.389 6.92086 26.3284C6.9114 26.3074 6.91225 26.2767 6.91316 26.2442C6.91421 26.2065 6.91532 26.1665 6.9004 26.1366L6.87409 26.0868C6.85766 25.9911 6.82274 25.8348 6.78272 25.6556C6.72662 25.4045 6.66048 25.1084 6.62124 24.8717C6.61329 24.8184 6.60889 24.7646 6.60808 24.7107C6.61435 24.621 6.59319 24.5626 6.56947 24.4972C6.55447 24.4558 6.53846 24.4117 6.5277 24.3549C6.53884 24.3276 6.49244 24.2784 6.45949 24.2435C6.44488 24.228 6.43291 24.2153 6.42977 24.2085C6.4014 24.1831 6.36738 24.1647 6.33053 24.1551C6.29367 24.1454 6.25504 24.1447 6.21785 24.1529L6.13454 24.1983C6.03276 24.2095 5.93378 24.2388 5.84222 24.2847L5.85684 24.3125C5.84133 24.3444 5.83327 24.3795 5.83327 24.415C5.83327 24.4505 5.84133 24.4855 5.85684 24.5174L5.8963 24.5936L5.86414 24.6814C5.89397 24.7081 5.92132 24.7171 5.94272 24.7242C5.9706 24.7334 5.98838 24.7393 5.98838 24.7766C5.99676 24.8469 6.0134 24.9277 6.03077 25.0121L6.03077 25.0121L6.03077 25.0121L6.03078 25.0121L6.03082 25.0123L6.03087 25.0125C6.0377 25.0457 6.04464 25.0794 6.05123 25.1133C6.05274 25.1663 6.05962 25.2282 6.06696 25.2941C6.08799 25.4831 6.11269 25.7052 6.02492 25.8453C6.01428 25.8612 6.00514 25.8779 5.99623 25.8941C5.97331 25.9359 5.95197 25.9748 5.91092 25.9916C5.90921 25.9034 5.88544 25.8169 5.84178 25.7402C5.79812 25.6635 5.73596 25.5989 5.66099 25.5525C5.63448 25.5525 5.6113 25.5484 5.58968 25.5446L5.58966 25.5446C5.55048 25.5377 5.51638 25.5317 5.47683 25.5525L5.4169 25.5847C5.3276 25.5866 5.24177 25.6197 5.17428 25.6784L5.12021 25.7076C5.08323 25.7127 5.04894 25.7298 5.02255 25.7562ZM4.99715 26.7503L4.99714 26.7503L4.99714 26.7502L4.99713 26.7502L4.99712 26.7501L4.99712 26.75L4.99711 26.75C4.98345 26.6355 4.96961 26.5195 4.95359 26.4045C4.95585 26.3705 4.94957 26.3393 4.94315 26.3074C4.93711 26.2774 4.93095 26.2468 4.93166 26.2127C4.93166 26.2127 4.90243 26.201 4.93166 26.1849L4.94336 26.2068C4.97477 26.2707 5.02233 26.3253 5.08129 26.3651C5.14026 26.4049 5.2086 26.4286 5.27952 26.4338C5.34387 26.4512 5.41016 26.4606 5.47683 26.4616C5.50361 26.5058 5.51824 26.5563 5.51922 26.608C5.5483 26.8533 5.52944 27.1019 5.46368 27.34C5.43455 27.4126 5.39355 27.4799 5.34237 27.539C5.33214 27.58 5.27221 27.6122 5.21229 27.6445L5.1699 27.5625C5.12614 27.4609 5.09805 27.3533 5.08659 27.2433C5.09473 27.1683 5.08261 27.0925 5.05151 27.0237L5.02374 26.9681C5.01462 26.8968 5.00595 26.8241 4.9972 26.7507L4.99719 26.7507L4.99718 26.7506L4.99718 26.7505L4.99717 26.7505L4.99716 26.7504L4.99715 26.7503ZM5.21965 25.9931C5.20832 25.9577 5.19788 25.9252 5.17282 25.9155L5.14067 25.8643C5.22175 25.8814 5.2947 25.9254 5.34774 25.9891C5.40078 26.0529 5.43082 26.1327 5.43298 26.2156C5.42305 26.2428 5.41367 26.2425 5.40105 26.2422C5.39325 26.2419 5.38422 26.2417 5.37306 26.2478L5.34383 26.1937C5.33165 26.17 5.31245 26.1463 5.29312 26.1225C5.273 26.0977 5.25273 26.0727 5.24006 26.0473C5.23159 26.0303 5.2255 26.0113 5.21965 25.9931ZM10.7993 24.0397C10.7768 24.1862 10.7543 24.3324 10.7253 24.4765C10.7357 24.4972 10.7314 24.5061 10.7177 24.535C10.712 24.5469 10.7047 24.5623 10.6961 24.5833C10.6857 24.5405 10.6758 24.5 10.6662 24.4613L10.6662 24.4612C10.6302 24.3146 10.5999 24.1917 10.5733 24.0504C10.5611 23.9644 10.5416 23.8761 10.522 23.7872L10.522 23.7872L10.522 23.7871C10.5136 23.749 10.5052 23.7109 10.4973 23.6727C10.4668 23.5535 10.4435 23.4426 10.4202 23.3322L10.4202 23.3322L10.4202 23.3322L10.4202 23.3322L10.4202 23.3322C10.3989 23.2311 10.3777 23.1305 10.3512 23.0242C10.3443 22.9309 10.3205 22.8396 10.281 22.7548C10.2654 22.6977 10.2327 22.6466 10.1875 22.6084C10.1729 22.5616 10.1392 22.547 10.1129 22.5543C10.0473 22.5689 9.98554 22.5974 9.93171 22.6377C9.89955 22.648 9.54731 22.7914 9.54731 22.8427C9.52123 22.85 9.51972 22.864 9.51675 22.8917C9.51555 22.9028 9.51412 22.9161 9.51077 22.932C9.50144 23.0106 9.50489 23.0902 9.521 23.1677C9.53608 23.5187 9.52141 23.8703 9.47715 24.2188C9.45522 24.4531 9.4186 24.6859 9.36754 24.9156C9.36315 24.9493 9.35731 24.9771 9.34561 25.0328L9.36754 25.0781C9.39092 25.1294 9.42162 25.1382 9.44793 25.1294C9.48834 25.1172 9.49523 25.1058 9.50432 25.0907C9.50838 25.084 9.51288 25.0765 9.521 25.0679C9.55222 25.0138 9.55227 25.0134 9.55432 24.9945C9.55582 24.9807 9.5584 24.957 9.57508 24.8951C9.59321 24.8346 9.60448 24.7723 9.6087 24.7092C9.60969 24.6655 9.62397 24.6231 9.64962 24.5877C9.68016 24.446 9.69258 24.3021 9.70511 24.157C9.71536 24.0382 9.72569 23.9186 9.74608 23.7986C9.76427 23.9277 9.79662 24.0544 9.84255 24.1763C9.84467 24.2168 9.85847 24.2593 9.87213 24.3014C9.88665 24.3461 9.90101 24.3903 9.90101 24.4311C9.90491 24.5184 9.91964 24.605 9.94486 24.6887C9.96237 24.8238 9.98617 24.9494 10.0109 25.08L10.0109 25.08L10.0109 25.08L10.011 25.0801C10.0275 25.1675 10.0445 25.2571 10.0603 25.3534C10.0711 25.4719 10.0887 25.5897 10.1129 25.7062C10.1606 25.8458 10.1934 25.9901 10.2109 26.1366C10.2579 26.1758 10.3007 26.2286 10.3433 26.2811C10.3881 26.3363 10.4326 26.3911 10.4813 26.4294C10.5278 26.4209 10.5706 26.3984 10.604 26.365C10.623 26.3589 10.6363 26.3727 10.6483 26.385C10.6567 26.3937 10.6643 26.4016 10.6727 26.4016L10.6873 26.3386C10.6982 26.3277 10.7032 26.3196 10.7073 26.313C10.7136 26.3028 10.7174 26.2965 10.737 26.2903C10.7663 26.3137 11.0557 26.1907 11.0367 26.1512C10.9984 26.0725 10.9766 25.9868 10.9723 25.8994C10.9387 25.7472 10.8934 25.5349 10.8627 25.3885C10.852 25.2985 10.852 25.2076 10.8627 25.1177C10.8691 25.084 10.8764 25.0495 10.8841 25.0127L10.8842 25.0126L10.8842 25.0125L10.8842 25.0124C10.896 24.9565 10.9089 24.8955 10.9212 24.8249C10.9225 24.816 10.9234 24.8081 10.9243 24.8008L10.9243 24.8008C10.9297 24.7579 10.9319 24.7401 10.9694 24.7063L10.9826 24.7473C11.0192 24.7783 11.0465 24.8188 11.0615 24.8644C11.1294 24.9798 11.2046 25.0908 11.2866 25.1967C11.3394 25.2715 11.4073 25.3343 11.4858 25.3812C11.5643 25.4281 11.6518 25.458 11.7426 25.469C11.8727 25.4793 11.9326 25.4807 12.0188 25.3944C12.1021 25.3582 12.1728 25.298 12.222 25.2216V25.204C12.2449 25.1609 12.2572 25.1032 12.2699 25.044C12.2847 24.9747 12.2999 24.9034 12.3331 24.8512C12.3611 24.7886 12.3662 24.7182 12.3477 24.6521L12.3331 24.6053C12.378 24.417 12.3967 24.2234 12.3886 24.0299C12.3985 23.9696 12.3935 23.9068 12.3905 23.8674C12.3894 23.8542 12.3886 23.8437 12.3886 23.8367C12.3888 23.8352 12.389 23.8337 12.3891 23.8322C12.3935 23.8616 12.3987 23.8909 12.4047 23.9201C12.4047 24.1504 12.469 24.3761 12.5903 24.5716C12.688 24.7395 12.8394 24.8695 13.02 24.9405C13.1445 24.9969 13.2852 25.0061 13.4159 24.9662C13.5466 24.9263 13.6584 24.8402 13.7303 24.7239C13.7711 24.6608 13.8003 24.5909 13.8165 24.5174C13.832 24.4922 13.8411 24.4635 13.8431 24.434C13.8452 24.4044 13.8401 24.3748 13.8282 24.3476C13.8566 24.2884 13.8735 24.2243 13.8779 24.1588L13.8999 24.1075L13.9306 24.1749C14.002 24.3205 14.0569 24.4737 14.0942 24.6316L14.1249 24.699C14.1396 24.7326 14.2082 24.7824 14.2448 24.7649C14.3104 24.7633 14.3758 24.7737 14.4377 24.7956C14.4427 24.8046 14.4509 24.8113 14.4608 24.8143C14.4706 24.8174 14.4812 24.8164 14.4903 24.8117C14.6087 24.8717 14.752 24.5965 14.7081 24.5013C14.6942 24.4693 14.7134 24.4212 14.733 24.3724L14.7359 24.3652C14.749 24.2803 14.749 24.2803 14.749 24.1954V24.1954C14.7753 24.1427 14.7914 24.0914 14.7753 24.0578C14.8195 23.9601 14.8376 23.8527 14.828 23.7459C14.8611 23.6313 14.8778 23.5125 14.8777 23.3931C14.8877 23.368 14.8928 23.2842 14.898 23.1993V23.1993C14.9034 23.1108 14.9089 23.0211 14.92 22.9949C14.9259 22.91 14.8981 22.8529 14.8601 22.8705C14.8221 22.8881 14.7359 22.9437 14.7505 22.9774C14.7237 23.1313 14.7089 23.2822 14.6947 23.427V23.427C14.6771 23.6058 14.6605 23.7752 14.6233 23.9289C14.6196 23.9944 14.6032 24.0586 14.5751 24.1178L14.5137 23.9816C14.4697 23.8861 14.4286 23.7717 14.3869 23.6557L14.3869 23.6556L14.3869 23.6556L14.3869 23.6556L14.3868 23.6554C14.3456 23.5405 14.3037 23.4241 14.2579 23.3229L14.2112 23.2218C14.1882 23.1176 14.1657 23.0133 14.1432 22.9088L14.143 22.9079C14.1254 22.8263 14.1078 22.7446 14.0899 22.6626C14.0793 22.6375 14.0707 22.6117 14.0622 22.5863L14.0622 22.5863L14.0622 22.5863L14.0622 22.5862C14.0339 22.502 14.0065 22.4204 13.9145 22.3698C13.9239 22.3014 13.865 22.2891 13.8142 22.2784L13.8142 22.2784C13.802 22.2759 13.7902 22.2734 13.78 22.2703C13.7612 22.282 13.7403 22.2897 13.7184 22.2929C13.6965 22.2962 13.6742 22.295 13.6529 22.2893C13.5955 22.2934 13.5401 22.3116 13.4914 22.3422C13.4427 22.3729 13.4023 22.415 13.3737 22.465C13.3971 22.5155 13.411 22.5704 13.4248 22.6253L13.4249 22.6253C13.4387 22.6802 13.4526 22.7351 13.476 22.7856C13.5136 22.8531 13.5328 22.9293 13.5315 23.0066C13.5227 23.1107 13.5398 23.2153 13.5812 23.3111C13.5898 23.3393 13.5872 23.3698 13.5739 23.3961C13.6096 23.4821 13.6218 23.5761 13.609 23.6683C13.5929 23.9207 13.5567 24.1713 13.5008 24.4179C13.478 24.4811 13.4438 24.5397 13.4 24.5906C13.3781 24.6419 13.2158 24.6785 13.1851 24.6111C13.1253 24.5406 13.1153 24.5062 13.0998 24.4532C13.0897 24.4182 13.0771 24.375 13.0463 24.3081C13.1077 24.2378 13.077 24.1705 13.0463 24.1031C13.0408 24.0405 13.0374 23.9522 13.034 23.8653V23.8653L13.034 23.8652L13.034 23.8651V23.8651C13.0312 23.7915 13.0284 23.719 13.0244 23.664L13.0273 23.6567C13.0468 23.6079 13.0661 23.5599 13.0522 23.5278C13.0626 23.4736 13.0601 23.4061 13.0575 23.3347C13.0535 23.2269 13.0491 23.1102 13.0887 23.0169C13.0968 22.9716 13.1085 22.9271 13.1238 22.8837C13.0875 22.8028 13.129 22.7144 13.1687 22.6297C13.1786 22.6087 13.1884 22.5879 13.1968 22.5675C13.1866 22.5338 13.2962 22.3552 13.3328 22.3376C13.3504 22.3291 13.3762 22.3121 13.4025 22.2948L13.4025 22.2948L13.4025 22.2948C13.4306 22.2763 13.4593 22.2574 13.4789 22.2483C13.4253 22.1946 13.3576 22.1571 13.2836 22.1403C13.2097 22.1234 13.1325 22.1279 13.0609 22.1532C13.0214 22.1691 12.9793 22.1775 12.9367 22.178C12.8377 22.2259 12.7523 22.2979 12.6882 22.3874C12.6773 22.413 12.6444 22.4679 12.6115 22.5228C12.5786 22.5777 12.5457 22.6326 12.5348 22.6582C12.4766 22.8558 12.4332 23.0574 12.4047 23.2614C12.3705 23.428 12.3625 23.5986 12.3808 23.7671C12.374 23.7494 12.3645 23.7341 12.3551 23.7191C12.3446 23.7023 12.3343 23.6858 12.3287 23.6669C12.2951 23.6522 12.2439 23.6684 12.2585 23.7152C12.2684 23.747 12.2609 23.7767 12.255 23.7999C12.2522 23.8109 12.2498 23.8204 12.2498 23.8279C12.2448 23.8555 12.2487 23.8739 12.2521 23.8898C12.2558 23.9068 12.2588 23.921 12.2498 23.9406C12.2321 24.0069 12.2169 24.1193 12.1999 24.2453V24.2453C12.1662 24.4949 12.1253 24.7979 12.0437 24.901C11.9702 24.9661 11.8522 24.8306 11.7475 24.7104L11.7475 24.7104L11.7475 24.7104C11.7251 24.6847 11.7033 24.6597 11.6827 24.6375C11.6205 24.5705 11.555 24.4754 11.4906 24.3818L11.4905 24.3818L11.4905 24.3818L11.4905 24.3817L11.4905 24.3817L11.4905 24.3817C11.4338 24.2994 11.378 24.2184 11.326 24.1588C11.2976 24.1177 11.2862 24.1045 11.277 24.0938C11.2658 24.0809 11.2578 24.0716 11.2267 24.0212C11.2061 24.0143 11.1919 24.0035 11.1784 23.9932C11.1661 23.9838 11.1544 23.9748 11.139 23.9699C11.1359 23.9711 11.1326 23.9716 11.1293 23.9715C11.1261 23.9714 11.1228 23.9707 11.1198 23.9693C11.1168 23.968 11.1142 23.966 11.1119 23.9636C11.1106 23.9621 11.1094 23.9605 11.1084 23.9588C11.1078 23.9577 11.1072 23.9565 11.1068 23.9553C11.1109 23.8248 11.1407 23.6965 11.1945 23.5776C11.2349 23.5121 11.2585 23.4377 11.2632 23.3609C11.3129 23.1853 11.379 23.0147 11.4605 22.8515C11.4781 22.8268 11.4864 22.7967 11.4839 22.7666C11.4909 22.7548 11.496 22.7411 11.5012 22.7274L11.5012 22.7274C11.5135 22.6951 11.5259 22.6622 11.5628 22.6509C11.5716 22.6802 11.5716 22.6802 11.6184 22.6919C11.6271 22.6983 11.6371 22.7027 11.6477 22.705C11.6582 22.7073 11.6692 22.7073 11.6797 22.7051C11.6914 22.7016 11.6957 22.6933 11.7002 22.6845C11.7054 22.6744 11.7109 22.6637 11.728 22.6582C11.7235 22.6137 11.7099 22.5705 11.6881 22.5315C11.6662 22.4924 11.6365 22.4583 11.6008 22.4313C11.5321 22.4088 11.4586 22.4057 11.3882 22.4222C11.3179 22.4387 11.2534 22.4743 11.2018 22.525C11.1709 22.5345 11.1571 22.5586 11.1421 22.5849C11.1316 22.6034 11.1205 22.6229 11.1024 22.6392C11.0534 22.7323 11.0147 22.8305 10.987 22.932C10.9371 23.0766 10.9278 23.1519 10.9161 23.2461C10.9076 23.3149 10.8978 23.3939 10.87 23.5176C10.8655 23.5295 10.8662 23.5461 10.8668 23.5642C10.8681 23.5992 10.8696 23.6398 10.835 23.664C10.8175 23.765 10.8092 23.8674 10.8101 23.9699C10.8065 23.9932 10.8029 24.0165 10.7993 24.0397ZM4.63351 12.2202C4.61402 12.2241 4.5921 12.2475 4.56774 12.2905L4.7519 12.2554C4.7519 12.2554 5.19913 12.0416 5.32921 12.109C5.35805 12.1257 5.41087 12.1105 5.46257 12.0956C5.52356 12.078 5.58299 12.0608 5.59961 12.0972C5.62347 12.0952 5.64748 12.0987 5.66976 12.1075V12.1075C5.66245 12.1631 5.66245 12.1631 5.70484 12.1748C5.71521 12.2008 5.74012 12.2156 5.76649 12.2313C5.80702 12.2554 5.851 12.2816 5.851 12.3534C5.8753 12.4505 5.86917 12.5528 5.83346 12.6462C5.82602 12.7367 5.79079 12.8226 5.73261 12.8922C5.65709 13.0901 5.60325 13.1415 5.44042 13.2968C5.41417 13.3219 5.38507 13.3496 5.3526 13.3811C5.23966 13.485 5.11151 13.5709 4.97259 13.6359C4.84803 13.7042 4.77437 13.7073 4.69954 13.7105C4.65408 13.7125 4.60819 13.7144 4.5502 13.731C4.44573 13.7658 4.33443 13.7749 4.22573 13.7574C4.20193 13.758 4.17821 13.7545 4.15557 13.7471C4.06662 13.6749 3.97413 13.6098 3.88328 13.5459C3.61888 13.3599 3.36841 13.1836 3.25963 12.8688C3.17085 12.6812 3.13016 12.4744 3.14124 12.2671C3.12955 12.0094 3.13686 11.7078 3.45256 11.4736C3.81649 11.1955 4.36896 11.3331 4.53266 11.3989C4.65638 11.4221 4.77702 11.4594 4.89221 11.5102C5.14166 11.6026 5.24543 11.6943 5.30627 11.748C5.33704 11.7752 5.35682 11.7927 5.37891 11.7957C5.09216 11.8554 4.83141 12.0039 4.63351 12.2202Z" fill="white"/>
</svg>
