<?xml version="1.0" encoding="utf-8"?>
<svg xmlns="http://www.w3.org/2000/svg" xmlns:xlink="http://www.w3.org/1999/xlink">
  <symbol stroke="none" viewBox="0 0 8 6" id="angle-down">
    <path d="M3.18912 4.8764C3.58825 5.42946 4.41175 5.42946 4.81088 4.87641L7.1861 1.58521C7.6634 0.923842 7.19083 0 6.37522 0H1.62478C0.809174 0 0.336598 0.923841 0.813896 1.58521L3.18912 4.8764Z"></path>
  </symbol>

  <symbol fill="none" viewBox="0 0 24 24" id="arrow-left">
    <path d="M20 12H4" stroke-width="2" stroke-linecap="round" stroke-linejoin="round"></path>
    <path d="M10 18L4 12L10 6" stroke-width="2" stroke-linecap="round" stroke-linejoin="round"></path>
  </symbol>

  <symbol stroke="none" viewBox="0 0 104 104" id="bones">
    <path d="M87.4387 0.393289C86.6278 0.490698 85.874 0.860991 85.3012 1.44336L69.851 17.0444C69.4827 17.3709 69.1852 17.7693 68.9769 18.2153C68.7686 18.6613 68.654 19.1452 68.6401 19.6372C68.6262 20.1292 68.7133 20.6189 68.896 21.0759C69.0788 21.5329 69.3533 21.9476 69.7026 22.2944C70.0519 22.6411 70.4686 22.9125 70.9269 23.0919C71.3853 23.2713 71.8755 23.3548 72.3674 23.3373C72.8592 23.3197 73.3423 23.2015 73.7867 22.99C74.2311 22.7784 74.6274 22.4779 74.9511 22.1072L87.8512 9.05637L94.9013 16.1443L73.1136 37.9332C72.4708 38.5807 72.0978 39.4481 72.07 40.3601C72.0421 41.272 72.3615 42.1606 72.9636 42.8461C75.1382 45.3104 75.0643 48.9957 72.7011 51.3591C70.2407 53.8196 66.3863 53.8196 63.926 51.3591C62.4383 49.8712 61.849 47.8398 62.1634 45.9212C62.2536 45.359 62.2091 44.7835 62.0337 44.2418C61.8583 43.7001 61.5569 43.2077 61.1543 42.8051C60.7517 42.4025 60.2594 42.1011 59.7177 41.9257C59.1761 41.7503 58.6005 41.7058 58.0384 41.796C56.1199 42.1104 54.126 41.5586 52.6383 40.0709C50.178 37.6103 50.178 33.7182 52.6383 31.2578C55.0016 28.8944 58.6492 28.858 61.1134 31.0328C61.4668 31.3528 61.8803 31.5995 62.3298 31.7585C62.7793 31.9175 63.2559 31.9856 63.732 31.9588C64.208 31.9321 64.674 31.8111 65.1029 31.6028C65.5318 31.3945 65.9151 31.1031 66.2305 30.7455C66.5458 30.3879 66.7871 29.9712 66.9401 29.5197C67.0931 29.0681 67.155 28.5905 67.122 28.1149C67.089 27.6392 66.9619 27.1748 66.748 26.7487C66.5341 26.3225 66.2377 25.9431 65.876 25.6324C60.6241 20.9973 52.552 21.1809 47.5382 26.195C42.3264 31.4071 42.3264 39.9591 47.5382 45.1712C49.6603 47.2934 52.3391 48.4847 55.1133 48.8839C55.5169 51.6488 56.7107 54.3441 58.8259 56.4594C64.0377 61.6715 72.5893 61.6715 77.8011 56.4594C81.9508 52.3095 82.5876 46.1328 80.1262 41.1209L102.551 18.6945C102.887 18.36 103.153 17.9625 103.335 17.5249C103.517 17.0873 103.61 16.6181 103.61 16.1443C103.61 15.6705 103.517 15.2013 103.335 14.7637C103.153 14.3261 102.887 13.9287 102.551 13.5942L90.4013 1.44336C90.019 1.05573 89.5538 0.759814 89.0406 0.577933C88.5275 0.396051 87.9798 0.332936 87.4387 0.393289ZM35.6881 43.5961C32.2453 43.5961 28.8064 44.8902 26.2005 47.4964C22.0429 51.6542 21.3966 57.8556 23.8755 62.8723L1.45017 85.2988C0.783852 85.9728 0.410156 86.8824 0.410156 87.8302C0.410156 88.778 0.783852 89.6875 1.45017 90.3616L13.6003 102.512C13.9348 102.848 14.3322 103.114 14.7698 103.296C15.2074 103.478 15.6766 103.571 16.1504 103.571C16.6242 103.571 17.0933 103.478 17.5309 103.296C17.9685 103.114 18.3659 102.848 18.7004 102.512L41.0882 80.1233C46.1042 82.6009 52.3065 81.9554 56.4634 77.7983C61.6752 72.5862 61.6752 63.9967 56.4634 58.7845C54.3418 56.6629 51.6618 55.5088 48.8883 55.1093C48.4887 52.3355 47.2972 49.618 45.1757 47.4964C42.5698 44.8902 39.1309 43.5961 35.6881 43.5961ZM35.6881 50.7591C37.2731 50.7591 38.8455 51.3664 40.0757 52.5967C41.5634 54.0844 42.1526 56.1158 41.8382 58.0345C41.748 58.5967 41.7925 59.1723 41.9679 59.714C42.1433 60.2556 42.4447 60.748 42.8473 61.1506C43.2499 61.5532 43.7422 61.8546 44.2839 62.03C44.8255 62.2055 45.4011 62.2499 45.9632 62.1597C47.8817 61.8453 49.8756 62.3971 51.3633 63.8849C53.8236 66.3454 53.8236 70.2374 51.3633 72.6979C49 75.0614 45.3524 75.1351 42.8882 72.9605C42.2005 72.3474 41.3041 72.0213 40.3833 72.0492C39.4625 72.0771 38.5874 72.4569 37.9381 73.1105L16.1504 94.8994L9.10027 87.8491L30.888 66.0226C31.5308 65.3751 31.9039 64.5076 31.9317 63.5957C31.9595 62.6837 31.6401 61.7952 31.038 61.1097C28.8634 58.6453 28.9373 54.96 31.3005 52.5967C32.5307 51.3664 34.1031 50.759 35.6881 50.7591Z"></path>
  </symbol>

  <symbol fill="none" viewBox="0 0 22 22" id="cart">
    <path fill-rule="evenodd" clip-rule="evenodd" d="M7.66667 20.1666C8.58714 20.1666 9.33333 19.4204 9.33333 18.4999C9.33333 17.5794 8.58714 16.8333 7.66667 16.8333C6.74619 16.8333 6 17.5794 6 18.4999C6 19.4204 6.74619 20.1666 7.66667 20.1666Z" stroke-width="2" stroke-linecap="round" stroke-linejoin="round"></path>
    <path fill-rule="evenodd" clip-rule="evenodd" d="M17.6667 20.1666C18.5871 20.1666 19.3333 19.4204 19.3333 18.4999C19.3333 17.5794 18.5871 16.8333 17.6667 16.8333C16.7462 16.8333 16 17.5794 16 18.4999C16 19.4204 16.7462 20.1666 17.6667 20.1666Z" stroke-width="2" stroke-linecap="round" stroke-linejoin="round"></path>
    <path d="M5.72467 5.99992H20.1663L18.7663 12.9916C18.6091 13.7834 17.9069 14.3487 17.0997 14.3333H8.29134C7.44924 14.3404 6.73412 13.7182 6.62467 12.8833L5.35801 3.28325C5.24936 2.45458 4.54377 1.83452 3.70801 1.83325H1.83301" stroke-width="2" stroke-linecap="round" stroke-linejoin="round"></path>
  </symbol>

  <symbol fill="none" viewBox="0 0 8 14" id="chevron-left">
    <path d="M7 13L1 7L7 1" stroke-width="2" stroke-linecap="round" stroke-linejoin="round"></path>
  </symbol>

  <symbol fill="none" viewBox="0 0 8 14" id="chevron-right">
    <path d="M1 13L7 7L1 1" stroke-width="2" stroke-linecap="round" stroke-linejoin="round"></path>
  </symbol>

  <symbol fill="none" viewBox="0 0 24 24" id="clock">
    <path fill-rule="evenodd" clip-rule="evenodd" d="M12 22C17.5228 22 22 17.5228 22 12C22 6.47715 17.5228 2 12 2C6.47715 2 2 6.47715 2 12C2 17.5228 6.47715 22 12 22Z" stroke-width="2" stroke-linecap="round" stroke-linejoin="round"></path>
    <path d="M12 6V12L15 15" stroke-width="2" stroke-linecap="round" stroke-linejoin="round"></path>
  </symbol>

  <symbol stroke="none" viewBox="0 0 60 60" id="dzen">
    <path d="M35.7857 35.7857C31.0714 40.65 30.7286 46.7143 30.3214 60C42.7071 60 51.2571 59.9571 55.6714 55.6714C59.9571 51.2571 60 42.3 60 30.3214C46.7143 30.75 40.65 31.0714 35.7857 35.7857ZM0 30.3214C0 42.3 0.0428571 51.2571 4.32857 55.6714C8.74286 59.9571 17.2929 60 29.6786 60C29.25 46.7143 28.9286 40.65 24.2143 35.7857C19.35 31.0714 13.2857 30.7286 0 30.3214ZM29.6786 0C17.3143 0 8.74286 0.0428571 4.32857 4.32857C0.0428571 8.74286 0 17.7 0 29.6786C13.2857 29.25 19.35 28.9286 24.2143 24.2143C28.9286 19.35 29.2714 13.2857 29.6786 0ZM35.7857 24.2143C31.0714 19.35 30.7286 13.2857 30.3214 0C42.7071 0 51.2571 0.0428571 55.6714 4.32857C59.9571 8.74286 60 17.7 60 29.6786C46.7143 29.25 40.65 28.9286 35.7857 24.2143Z"></path>
  </symbol>

  <symbol stroke="none" viewBox="0 0 13 24" id="fb">
    <path d="M9.99555 3.985H12.1865V0.169C11.8085 0.117 10.5085 0 8.99455 0C5.83555 0 3.67155 1.987 3.67155 5.639V9H0.185547V13.266H3.67155V24H7.94555V13.267H11.2905L11.8215 9.001H7.94455V6.062C7.94555 4.829 8.27755 3.985 9.99555 3.985Z"></path>
  </symbol>

  <symbol stroke="none" viewBox="0 0 24 30" id="fire">
    <path d="M21.4329 13.6667C21.0496 13.1667 20.5829 12.7333 20.1496 12.3C19.0329 11.3 17.7663 10.5833 16.6996 9.53333C14.2163 7.1 13.6663 3.08333 15.2496 0C13.6663 0.383333 12.2829 1.25 11.0996 2.2C6.78293 5.66667 5.08293 11.7833 7.11626 17.0333C7.18293 17.2 7.24959 17.3667 7.24959 17.5833C7.24959 17.95 6.99959 18.2833 6.66626 18.4167C6.28293 18.5833 5.88293 18.4833 5.56626 18.2167C5.46626 18.1333 5.39959 18.05 5.33293 17.9333C3.44959 15.55 3.14959 12.1333 4.41626 9.4C1.63293 11.6667 0.116261 15.5 0.332928 19.1167C0.432928 19.95 0.532928 20.7833 0.816261 21.6167C1.04959 22.6167 1.49959 23.6167 1.99959 24.5C3.79959 27.3833 6.91626 29.45 10.2663 29.8667C13.8329 30.3167 17.6496 29.6667 20.3829 27.2C23.4329 24.4333 24.4996 20 22.9329 16.2L22.7163 15.7667C22.3663 15 21.4329 13.6667 21.4329 13.6667ZM16.1663 24.1667C15.6996 24.5667 14.9329 25 14.3329 25.1667C12.4663 25.8333 10.5996 24.9 9.49959 23.8C11.4829 23.3333 12.6663 21.8667 13.0163 20.3833C13.2996 19.05 12.7663 17.95 12.5496 16.6667C12.3496 15.4333 12.3829 14.3833 12.8329 13.2333C13.1496 13.8667 13.4829 14.5 13.8829 15C15.1663 16.6667 17.1829 17.4 17.6163 19.6667C17.6829 19.9 17.7163 20.1333 17.7163 20.3833C17.7663 21.75 17.1663 23.25 16.1663 24.1667Z" fill="#2384B8"></path>
  </symbol>

  <symbol stroke="none" viewBox="0 0 38 38" id="force">
    <path d="M30.9121 17.8592C28.1988 17.9897 25.9652 19.3092 24.5418 20.4233C24.4441 20.4998 24.3648 20.5971 24.3094 20.7081C24.2541 20.8191 24.2241 20.941 24.2217 21.065C24.2194 21.189 24.2446 21.312 24.2956 21.4251C24.3466 21.5381 24.4222 21.6384 24.5168 21.7186C25.5027 22.5586 26.4231 23.4728 27.2699 24.453C27.5175 24.7381 27.5105 25.1975 27.2261 25.4467C27.1581 25.5063 27.079 25.5519 26.9933 25.5808C26.9076 25.6097 26.817 25.6215 26.7268 25.6153C26.6366 25.6091 26.5484 25.5852 26.4675 25.5449C26.3865 25.5045 26.3143 25.4486 26.255 25.3803C24.1394 22.946 22.4566 21.8303 21.9222 21.5084C19.6871 20.5124 17.2621 20.6233 15.5714 20.9108C15.3173 20.9543 15.0837 21.0782 14.9051 21.2642C14.7265 21.4502 14.6123 21.6886 14.5793 21.9444C14.3793 23.4514 13.8621 25.1788 12.5941 26.0749C12.5157 26.1305 12.4266 26.169 12.3324 26.1879C12.2382 26.2069 12.1411 26.2058 12.0473 26.1848C11.9535 26.1638 11.8652 26.1234 11.7881 26.0661C11.711 26.0088 11.6467 25.9359 11.5996 25.8522C11.5185 25.6987 11.4966 25.5208 11.5379 25.3522C11.5792 25.1836 11.681 25.036 11.8238 24.9374C12.4738 24.4631 12.8558 23.5694 13.0738 22.6085C13.276 21.6787 13.3287 20.7227 13.23 19.7764L12.5668 13.017C12.5344 12.7114 12.4074 12.4235 12.2035 12.1936L11.4332 11.31C11.3105 11.1749 11.2452 10.9974 11.2511 10.815C11.2569 10.6326 11.3334 10.4597 11.4644 10.3327C11.5319 10.2702 11.6113 10.2218 11.6978 10.1905C11.7843 10.1593 11.8762 10.1456 11.9681 10.1505C12.0599 10.1554 12.1499 10.1787 12.2326 10.219C12.3153 10.2592 12.3891 10.3157 12.4496 10.385L13.5925 11.6959C13.97 11.7991 14.3686 11.7968 14.7448 11.6894C15.1211 11.582 15.4608 11.3735 15.7269 11.0866L18.8519 7.66782C19.1913 7.30058 19.3791 6.8184 19.3773 6.31833C19.3756 5.81825 19.1845 5.33739 18.8425 4.97251L15.3597 1.24908C15.0846 0.959813 14.7161 0.776981 14.3194 0.732817C13.9226 0.688652 13.523 0.78599 13.191 1.00767L8.69254 4.0272C7.714 4.67847 6.99814 5.65565 6.67222 6.78501L0.797224 27.4374C0.454255 28.6436 1.12769 29.9022 2.3441 30.328L4.30504 31.0155C4.30504 31.0155 12.3191 36.8663 23.8441 35.9631C24.5889 35.9058 25.3382 35.955 26.0691 36.1092C27.9847 36.51 32.0472 37.2584 35.8222 37.2811C36.0156 37.2819 36.2072 37.2445 36.3861 37.1711C36.565 37.0976 36.7276 36.9896 36.8646 36.8531C37.0015 36.7166 37.1102 36.5544 37.1843 36.3758C37.2584 36.1972 37.2965 36.0057 37.2964 35.8124V33.2389C37.2967 33.1843 37.2855 33.1302 37.2636 33.0802C37.2416 33.0302 37.2094 32.9854 37.1691 32.9486C37.1288 32.9117 37.0812 32.8838 37.0293 32.8665C36.9775 32.8493 36.9227 32.8431 36.8683 32.8483C36.6964 32.8613 36.5266 32.8681 36.3589 32.8686C33.7457 32.8686 31.5152 31.3366 29.98 29.8717C29.8548 29.7558 29.7759 29.5983 29.7582 29.4285C29.7406 29.2587 29.7852 29.0883 29.8839 28.9491C29.942 28.8706 30.0161 28.8054 30.1014 28.7578C30.1866 28.7102 30.281 28.6813 30.3782 28.6731C30.4755 28.6648 30.5734 28.6773 30.6655 28.7098C30.7575 28.7423 30.8416 28.7941 30.9121 28.8616C32.3597 30.2499 34.5128 31.7194 36.9496 31.4561C37.0454 31.4453 37.1339 31.3994 37.1979 31.3273C37.262 31.2552 37.2971 31.1619 37.2964 31.0655V21.0866C37.2974 20.7538 37.184 20.4309 36.9753 20.1717C36.3019 19.3397 34.498 17.6858 30.9121 17.8592Z" fill="#2384B8"></path>
  </symbol>

  <symbol stroke="none" viewBox="0 0 26 32" id="h-ic-1">
    <path d="M21.9504 12.9364L20.4308 11.4208L11.5157 0.844855C11.0767 0.339637 10.4351 0.00282434 9.75973 0.00282434C9.08434 -0.0308569 8.44273 0.238593 7.93619 0.71013L0.912181 7.74951C0.439412 8.22105 0.169258 8.89467 0.203027 9.5683C0.236796 10.2419 0.54072 10.8819 1.04726 11.3197L11.6508 20.1779L13.1704 21.6935C14.3861 22.9061 15.9733 23.5123 17.5604 23.5123C19.1476 23.5123 20.7347 22.9061 21.9504 21.6935C24.3818 19.3022 24.3818 15.3615 21.9504 12.9364ZM1.65511 9.50093C1.65511 9.23148 1.75641 8.96203 1.92526 8.79363L8.98303 1.72057C9.18565 1.51848 9.42204 1.41744 9.69219 1.45112C9.96234 1.45112 10.1987 1.58584 10.4013 1.78793L19.384 12.4312L12.6639 19.1338L1.9928 10.1746C1.79018 10.0062 1.65511 9.77038 1.65511 9.50093ZM14.2173 20.6831L13.677 20.1779L20.397 13.4753L20.9036 13.9805C22.7609 15.833 22.7609 18.8306 20.9036 20.6831C19.08 22.5356 16.0746 22.5356 14.2173 20.6831Z"></path>
    <path d="M20.1518 19.9175C20.4683 19.6019 20.4683 19.09 20.1518 18.7744C19.8353 18.4587 19.3222 18.4587 19.0057 18.7744C18.6892 19.09 18.6892 19.6019 19.0057 19.9175C19.3222 20.2332 19.8353 20.2332 20.1518 19.9175Z"></path>
    <path d="M20.439 17.2415C20.7555 16.9258 20.7555 16.414 20.439 16.0983C20.1225 15.7827 19.6093 15.7827 19.2928 16.0983C18.9763 16.414 18.9763 16.9258 19.2928 17.2415C19.6093 17.5572 20.1225 17.5572 20.439 17.2415Z"></path>
    <path d="M17.4585 20.1876C17.775 19.8719 17.775 19.3601 17.4585 19.0444C17.142 18.7287 16.6288 18.7287 16.3123 19.0444C15.9958 19.3601 15.9958 19.8719 16.3123 20.1876C16.6288 20.5032 17.142 20.5032 17.4585 20.1876Z"></path>
    <path d="M14.5211 12.3637C14.6562 12.4985 14.8588 12.5658 15.0277 12.5658C15.1965 12.5658 15.3991 12.4985 15.5342 12.3637C15.8044 12.0943 15.8044 11.6228 15.5342 11.3533L10.1649 5.99799C9.89476 5.72854 9.42199 5.72854 9.15183 5.99799C8.88168 6.26744 8.88168 6.73897 9.15183 7.00842L14.5211 12.3637Z"></path>
    <path d="M12.5957 14.2837L7.22644 8.92841C6.95628 8.65896 6.48351 8.65896 6.21336 8.92841C5.9432 9.19786 5.9432 9.66939 6.21336 9.93884L11.5827 15.2942C11.7177 15.4289 11.9204 15.4963 12.0892 15.4963C12.2581 15.4963 12.4607 15.4289 12.5957 15.2942C12.8659 15.0247 12.8659 14.5532 12.5957 14.2837Z"></path>
    <path d="M24.1449 24.5228C24.7044 24.5228 25.158 24.0704 25.158 23.5124C25.158 22.9543 24.7044 22.502 24.1449 22.502C23.5854 22.502 23.1318 22.9543 23.1318 23.5124C23.1318 24.0704 23.5854 24.5228 24.1449 24.5228Z"></path>
    <path d="M24.7875 28.9349C25.347 28.9349 25.8006 28.4826 25.8006 27.9245C25.8006 27.3665 25.347 26.9141 24.7875 26.9141C24.228 26.9141 23.7744 27.3665 23.7744 27.9245C23.7744 28.4826 24.228 28.9349 24.7875 28.9349Z"></path>
    <path d="M21.8158 31.9999C22.3753 31.9999 22.8289 31.5475 22.8289 30.9894C22.8289 30.4314 22.3753 29.979 21.8158 29.979C21.2563 29.979 20.8027 30.4314 20.8027 30.9894C20.8027 31.5475 21.2563 31.9999 21.8158 31.9999Z"></path>
    <path d="M20.8021 27.3182C21.3616 27.3182 21.8152 26.8658 21.8152 26.3078C21.8152 25.7498 21.3616 25.2974 20.8021 25.2974C20.2426 25.2974 19.7891 25.7498 19.7891 26.3078C19.7891 26.8658 20.2426 27.3182 20.8021 27.3182Z"></path>
  </symbol>

  <symbol stroke="none" viewBox="0 0 40 40" id="h-ic-2">
    <path d="M10.5695 21.3966C10.4402 21.3966 10.3109 21.3557 10.2005 21.272C10.1241 21.2158 8.36704 19.8642 8.46276 18.1684C8.51706 17.2119 9.1213 16.3857 10.258 15.7144C11.015 15.2677 11.4149 14.7713 11.4531 14.2399C11.5134 13.3419 10.5622 12.3822 10.1908 12.0878C9.92527 11.878 9.88017 11.4929 10.0882 11.227C10.2962 10.962 10.68 10.9146 10.9483 11.124C11.0247 11.1838 12.7891 12.5893 12.6763 14.3172C12.6119 15.2783 12.009 16.1032 10.8834 16.7698C10.1195 17.2198 9.71772 17.7129 9.68826 18.2351C9.6358 19.1005 10.5746 20.016 10.9409 20.2953C11.2092 20.5014 11.2612 20.885 11.0583 21.1546C10.9363 21.3134 10.7541 21.3966 10.5695 21.3966Z"></path>
    <path d="M17.8806 16.2675C17.7508 16.2675 17.6219 16.227 17.5115 16.1432C17.4379 16.0867 15.6772 14.7355 15.7733 13.0397C15.8286 12.0832 16.4319 11.2569 17.5686 10.5857C18.3261 10.1395 18.7255 9.64398 18.7619 9.11123C18.824 8.21457 17.8732 7.25489 17.5023 6.96045C17.2363 6.75066 17.1907 6.36559 17.3988 6.09968C17.6077 5.83514 17.9906 5.7873 18.2589 5.99662C18.3357 6.05551 20.1006 7.46191 19.9851 9.18898C19.9229 10.15 19.3196 10.9749 18.1935 11.6416C17.43 12.092 17.0274 12.5847 16.9965 13.1068C16.9459 13.9722 17.8852 14.8882 18.251 15.167C18.5193 15.3731 18.5723 15.7568 18.3684 16.025C18.2464 16.1842 18.0651 16.2675 17.8806 16.2675Z"></path>
    <path d="M25.1902 14.003C25.0613 14.003 24.9311 13.9625 24.8211 13.8788C24.7447 13.8227 22.9867 12.471 23.0829 10.7748C23.1381 9.8183 23.7419 8.99249 24.8791 8.32127C25.6356 7.87501 26.0355 7.37814 26.0737 6.84677C26.134 5.94874 25.1828 4.98905 24.8123 4.69462C24.5468 4.48483 24.5003 4.09976 24.7088 3.83384C24.9173 3.56793 25.3001 3.52238 25.568 3.73079C25.6448 3.7906 27.4102 5.19608 27.2979 6.92406C27.2325 7.88513 26.6292 8.71002 25.504 9.37664C24.7401 9.82704 24.3379 10.3198 24.3084 10.8419C24.2564 11.7073 25.1948 12.6233 25.5611 12.9021C25.8294 13.1082 25.8823 13.4919 25.6789 13.7615C25.556 13.9193 25.3742 14.003 25.1902 14.003Z"></path>
    <path d="M34.0676 25.8588C33.9116 25.8588 33.7537 25.799 33.6341 25.6789C28.5553 20.5984 29.9967 15.103 30.0616 14.8721C30.1499 14.5454 30.4859 14.3518 30.8135 14.4447C31.1394 14.533 31.3303 14.8698 31.2443 15.1969C31.19 15.4012 29.9447 20.2548 34.5011 24.8126C34.7409 25.0523 34.7409 25.4401 34.5011 25.6793C34.3815 25.799 34.2264 25.8588 34.0676 25.8588Z"></path>
    <path d="M5.37362 36.4002C5.31288 36.4002 5.25075 36.3905 5.19138 36.3726C4.98245 36.3077 4.82461 36.1352 4.77629 35.9222C4.36717 34.1233 5.3566 30.4401 5.75605 29.0806C2.60507 27.2119 0.262659 24.6567 0.159574 24.544C0.00172611 24.3705 -0.0429133 24.1226 0.0431438 23.9059C0.129661 23.6883 0.332609 23.5387 0.565009 23.5203C1.30271 23.4619 2.03488 23.4334 2.74359 23.4334C6.32623 23.4334 8.62032 24.1672 9.54486 24.5371C11.8808 21.7602 16.6945 18.1077 22.1971 16.2684C25.9808 15.0042 29.8171 14.3081 33.0021 14.3081C36.2345 14.3081 38.5677 14.9977 39.75 16.302C39.958 16.5316 39.9631 16.8789 39.7596 17.1136L37.5857 19.6388L39.4412 19.8017C39.6492 19.8196 39.8342 19.9434 39.9299 20.1283C40.0275 20.3128 40.0229 20.535 39.918 20.7158C38.1296 23.8474 32.8903 27.2349 26.5704 29.3475C22.7894 30.6099 18.9536 31.3064 15.7681 31.3064C14.1809 31.3064 12.8012 31.1394 11.6618 30.8077L5.78964 36.2369C5.67459 36.3441 5.52641 36.4002 5.37362 36.4002ZM2.01601 24.6691C3.03351 25.6316 4.77214 27.1337 6.78137 28.2576C7.03494 28.3993 7.15459 28.6992 7.06807 28.9762C6.73259 30.0403 6.02618 32.6567 5.9162 34.4504L11.0884 29.6677C11.2513 29.5154 11.4864 29.4657 11.6986 29.537C14.8146 30.5818 20.5832 30.0569 26.1815 28.1849C31.6583 26.3548 36.2539 23.5815 38.299 20.9325L36.2874 20.7563C36.0574 20.7361 35.8581 20.5902 35.772 20.3772C35.686 20.1642 35.7269 19.9213 35.8756 19.7465L38.4421 16.7648C37.3841 15.968 35.4849 15.5342 33.0021 15.5342C29.9464 15.5342 26.2468 16.2082 22.5855 17.4328C17.0728 19.2749 12.3051 22.9904 10.2075 25.6642C10.0253 25.8924 9.70501 25.9633 9.44454 25.8303C9.42245 25.8197 7.09707 24.6595 2.74359 24.6595C2.50429 24.6595 2.26268 24.6631 2.01601 24.6691Z"></path>
    <path d="M29.497 23.4913C29.3696 23.4913 29.2407 23.4517 29.1303 23.3703L24.8251 20.1623C24.554 19.9603 24.4965 19.5757 24.7004 19.3043C24.9042 19.0329 25.2862 18.9776 25.5568 19.1787L29.8629 22.3872C30.1362 22.5887 30.1906 22.9728 29.989 23.2452C29.868 23.4062 29.6834 23.4913 29.497 23.4913Z"></path>
    <path d="M27.0783 25.9209C26.9518 25.9209 26.822 25.8813 26.712 25.8003L19.9402 20.7553C19.6696 20.5534 19.6116 20.1692 19.8155 19.8973C20.0193 19.624 20.4013 19.5716 20.6724 19.7712L27.4446 24.8167C27.718 25.0187 27.7723 25.4028 27.5712 25.6743C27.4502 25.8362 27.2652 25.9209 27.0783 25.9209Z"></path>
    <path d="M23.337 27.1717C23.2109 27.1717 23.0807 27.1322 22.9711 27.0493L16.2016 22.002C15.9287 21.8001 15.873 21.4168 16.0769 21.1449C16.2785 20.8721 16.6618 20.8169 16.9342 21.0203L23.7038 26.068C23.9767 26.27 24.0319 26.6528 23.8285 26.9251C23.7088 27.0871 23.5238 27.1717 23.337 27.1717Z"></path>
    <path d="M19.2191 28.7963C19.0893 28.7963 18.9623 28.7567 18.8523 28.6748L13.4289 24.6341C13.1555 24.4322 13.1003 24.048 13.3014 23.7761C13.5053 23.5047 13.8914 23.4508 14.162 23.6505L19.585 27.6917C19.856 27.8932 19.9135 28.2778 19.7097 28.5497C19.5896 28.7116 19.4055 28.7963 19.2191 28.7963Z"></path>
    <path d="M33.9338 19.4409C33.7152 19.4409 33.5053 19.3967 33.3037 19.3116C32.4874 18.967 32.1045 18.0198 32.451 17.2027C32.7915 16.4068 33.7685 16.0153 34.561 16.3516C34.9559 16.5177 35.2647 16.8305 35.4253 17.2303C35.5854 17.6278 35.5804 18.0644 35.4156 18.461C35.162 19.0554 34.5808 19.4409 33.9338 19.4409ZM33.9338 17.4479C33.7782 17.4479 33.6411 17.5404 33.5789 17.6825C33.4975 17.8753 33.5886 18.1017 33.7828 18.1826C33.9789 18.2723 34.2062 18.1697 34.2854 17.9816C34.3258 17.8868 34.3258 17.7828 34.2877 17.6871C34.249 17.5928 34.1777 17.5197 34.0842 17.4801C34.0345 17.459 33.9839 17.4479 33.9338 17.4479Z"></path>
  </symbol>

  <symbol stroke="none" viewBox="0 0 40 40" id="h-ic-3">
    <path d="M37.9038 20.5601C37.9438 20.1601 37.6638 19.8801 37.5038 19.5601C37.4638 19.4401 37.3038 19.0801 37.5438 19.1201C37.5038 18.8401 37.1438 18.8401 37.1038 18.5601C37.1038 18.4001 37.3038 18.2801 37.1438 18.1201C37.0638 18.0401 36.9038 18.0001 36.7838 17.9601C36.6638 17.8801 36.5438 17.8401 36.5838 17.6801C36.5838 17.5601 36.7438 17.4801 36.6238 17.3601C36.5438 17.2801 36.3838 17.3601 36.2638 17.3201C36.1038 17.2801 36.0638 17.0801 35.9438 16.9601C35.9038 17.0401 35.8238 17.1601 35.9038 17.2401C35.6238 17.2801 35.5438 17.0001 35.4238 16.8001C35.2638 16.5201 35.1438 16.3201 35.3438 16.0001C35.1838 15.9601 35.2238 15.7601 35.1838 15.6801C35.3038 15.6801 35.3438 15.7601 35.4638 15.8001C35.5038 15.5601 35.2638 15.3201 35.4238 15.1201C35.5438 14.9601 35.7838 14.9601 35.9038 14.8001C35.5838 14.4801 35.5038 14.0401 35.4638 13.6001C35.4238 13.3201 35.5038 12.8801 35.1438 12.7601C35.3038 12.4801 35.4638 12.5601 35.3838 12.2001C35.1838 12.4401 34.8238 12.2401 34.5838 12.3201C34.5038 12.3601 34.1838 12.6401 34.1438 12.5601C34.1838 12.5201 34.2238 12.4801 34.2238 12.4401C34.1838 12.4401 34.1038 12.4401 34.0638 12.4801C34.1038 12.2401 34.4638 12.2001 34.3438 11.8801C34.2638 11.6401 33.9038 11.4401 33.6638 11.4801C33.7038 11.4801 33.7438 11.4801 33.8238 11.4401C33.7838 11.4801 33.7438 11.3201 33.7438 11.3201C34.0238 11.6001 34.1038 11.2001 34.2638 11.0001C34.4638 10.7601 34.9038 10.8001 34.9838 10.4801C34.9038 10.4801 34.9038 10.4801 34.9038 10.4001C35.0638 10.4801 34.9838 10.3201 34.9838 10.2401C34.9038 10.4001 34.7438 10.1601 34.6638 10.1201C34.6638 10.1601 34.6638 10.1601 34.6638 10.2001C34.5438 10.1201 34.4638 10.2401 34.3438 10.2001C34.4638 10.1601 34.5038 10.0401 34.5038 9.9201C34.5038 9.9601 34.3838 9.9601 34.3838 9.9601C34.4638 9.8401 34.3438 9.7201 34.3438 9.6001C34.3438 10.0401 33.7038 10.0001 33.6238 10.3601C33.7438 10.4001 33.9038 10.4001 34.0238 10.3601C34.0638 10.6001 33.5438 10.4801 33.3838 10.5201C33.0238 10.6001 32.7038 10.9201 32.3838 11.1201C32.0638 11.3201 31.2638 11.8001 31.5438 12.3201C31.4238 12.3201 31.2238 12.4401 31.2238 12.6001C31.2238 12.7601 31.3838 12.7201 31.5038 12.8001C31.6238 12.8401 31.8638 12.9601 31.7438 13.1201C31.6238 13.2801 31.4238 13.0801 31.3038 13.0801C31.0238 13.1201 31.1038 13.4801 31.0238 13.6801C30.9438 13.8401 30.5038 14.1201 30.7838 14.3201C30.6638 14.2801 30.6238 14.4401 30.5038 14.4401C30.3838 14.4401 30.3438 14.3601 30.2238 14.3201C29.9438 14.2001 29.7038 14.4001 29.5438 14.6001C29.3838 14.8001 29.3038 15.0001 29.1038 15.1201C29.0238 15.1601 28.7038 15.2001 28.8238 15.3201C28.7038 15.2001 28.6638 15.2801 28.5038 15.1601C28.3838 15.1201 28.5838 15.0401 28.3438 15.0401C27.9438 15.0801 28.2238 15.6401 27.9838 15.7601C28.0238 15.5601 27.8238 15.6001 27.7038 15.6401C27.7038 15.5201 27.9038 15.4801 27.8238 15.3601C27.6638 15.4401 27.5438 15.5601 27.3838 15.6001C27.2638 15.6401 27.1038 15.6801 27.0238 15.8001C27.2638 15.8801 26.9038 16.1601 27.1038 16.2401C27.1438 16.2001 27.1438 16.1601 27.1438 16.0801C27.2638 16.1601 27.3038 16.3201 27.4238 16.4001C27.3438 16.5201 27.1838 16.4801 27.1038 16.6001C27.1438 16.6401 27.2238 16.6801 27.2238 16.7601C27.0238 16.6801 26.6638 16.8401 26.7838 17.0801C26.6238 17.0801 26.3838 16.9201 26.2638 17.1201C26.1838 17.3201 26.4638 17.4801 26.4238 17.6801C26.2238 17.4801 25.8238 17.6801 25.7038 17.4401C25.6638 17.3601 25.7438 16.9201 25.5438 17.1201C25.5838 16.9201 25.3438 16.7201 25.1838 16.7601C25.0638 16.8001 25.0238 16.8401 24.9438 16.8801C24.8238 16.8801 24.6638 16.8801 24.5838 16.8001C24.5438 17.0001 24.6638 17.2401 24.5438 17.4001C24.4638 17.4801 24.2238 17.6001 24.1838 17.4401C24.1038 17.6401 23.9038 17.4001 23.7838 17.3601C23.5438 17.2801 23.3038 17.5201 23.1838 17.6801C23.2238 17.7201 23.2238 17.7201 23.2638 17.7601C23.1438 17.7601 23.1438 17.6001 23.0638 17.5201C22.9038 17.4001 22.7038 17.6001 22.5838 17.7201C22.3838 17.9201 22.3438 18.3201 22.0238 18.3601C22.1838 17.8001 23.2238 17.1201 22.6638 16.5201C22.9038 16.5601 22.7438 16.3601 22.6638 16.2801C22.5438 16.2001 22.3438 16.1201 22.2238 16.1601C22.1038 16.1601 21.9838 16.3601 21.9438 16.3601C21.8238 16.3601 21.8638 16.2401 21.8238 16.2401C21.7038 16.1601 21.6238 16.2001 21.4638 16.1601C21.5438 16.0801 21.6638 15.9201 21.5438 15.8001C21.4238 15.7201 21.2638 15.9201 21.1838 16.0001C20.9838 16.2001 21.0638 16.6001 20.7438 16.6001C20.7838 16.6801 20.8638 16.7201 20.9038 16.8001C20.7438 16.7201 20.5038 16.8401 20.3838 16.9601C20.3838 16.8801 20.3838 16.8401 20.4238 16.7601C20.2638 16.7601 20.0638 16.8001 19.9438 16.9601C19.9838 16.9601 20.0238 17.0001 20.0638 17.0001C19.9438 17.1601 19.7038 17.1201 19.5438 17.2001C19.4238 17.2801 19.3438 17.4801 19.1438 17.4401C19.1438 17.5201 19.1438 17.5601 19.2238 17.5201C19.1838 17.5601 19.0638 17.8801 19.1038 17.8801C19.0638 17.8801 19.1438 17.7601 19.0238 17.8001C19.0238 17.8001 18.9438 18.1201 18.9038 18.1601C18.7438 18.2801 18.4638 18.1601 18.2638 18.2801C17.9038 18.5201 18.4238 18.7601 18.3438 19.0401C18.3038 19.2801 18.1838 19.1601 18.0638 19.0401C17.9038 18.9201 17.8638 18.8801 17.6638 18.9201C17.5438 18.9201 17.3038 18.9601 17.2638 19.0801C17.2238 19.3201 17.5838 19.2801 17.5838 19.5201C17.4238 19.4001 17.2238 19.3201 17.1438 19.1201C17.0238 18.8801 17.1838 18.6401 17.2638 18.4001C17.0238 18.2801 16.7038 19.4401 16.6638 19.6001C16.5438 19.9601 16.5438 20.1201 16.9038 20.3201C17.1838 20.4801 17.3438 20.9201 17.3038 21.2801C16.9838 21.2801 17.1438 20.8801 17.0638 20.7201C16.9038 20.3601 16.5838 20.7601 16.4638 20.9601C16.3038 21.2001 16.1838 21.5201 15.8638 21.6001C15.6238 21.6401 15.2638 21.5201 15.3038 21.2001C15.9038 21.4001 16.2238 20.8401 16.3438 20.3201C16.4238 19.9201 16.4638 19.5201 16.5838 19.1201C16.6638 18.8801 16.8638 18.5601 16.7038 18.3201C16.3838 17.8801 15.7038 18.8401 15.5838 19.0801C15.4638 19.3201 15.2238 20.0801 15.6638 20.1201C15.2238 20.4001 15.0238 19.8401 14.8238 19.5601C14.7038 19.3601 14.5438 19.2401 14.3038 19.3201C14.1438 19.3601 13.9038 19.6001 13.9438 19.8001C13.8238 19.7201 13.8638 19.5601 13.7838 19.4801C13.7038 19.4001 13.5438 19.4001 13.4638 19.4001C13.2638 19.4001 12.9438 19.4401 12.7838 19.2401C12.8638 19.2401 12.9038 19.0801 13.0238 19.1201C12.9838 18.9201 12.7438 19.0801 12.6238 19.0801C12.4238 19.0801 12.1038 19.0001 11.9038 18.9601C11.9038 19.0001 11.9038 19.0401 11.9438 19.0401C11.7438 18.8801 11.4638 19.2801 11.2638 19.0801C11.0238 18.8801 11.3838 18.4401 11.5838 18.7201C11.8238 18.5201 11.6238 17.9601 11.3038 18.0001C11.3438 18.2401 11.1438 18.4401 11.0238 18.6001C10.9838 18.7201 10.9438 18.8401 10.8638 18.9201C10.7838 19.0401 10.6238 19.0801 10.5438 19.1601C10.5038 19.0001 10.5038 18.8401 10.3038 18.7201C10.1038 18.6001 9.90377 18.8001 9.66377 18.7201C9.66377 18.8801 9.62377 19.1201 9.38377 19.0801C9.18377 19.0401 9.26377 18.8401 9.22377 18.6801C9.06377 18.2801 9.02377 18.8801 8.82377 18.9601C8.46377 19.1201 8.58377 18.5201 8.62377 18.3601C8.70377 18.1601 8.82377 18.0001 8.90377 17.8401C9.02377 17.5601 8.98377 17.2801 9.10377 17.0001C9.26377 17.1601 9.22377 17.3601 9.26377 17.5601C9.30377 17.8001 9.46377 18.0401 9.66377 18.2001C9.98377 18.4401 10.3838 18.4001 10.5438 18.0401C10.7838 17.5601 10.4238 17.0401 10.2238 16.6001C10.1838 16.4801 9.94377 16.0001 10.2238 16.1601C10.1838 16.0401 10.1038 15.9601 9.94377 15.9601C9.94377 15.9201 9.94377 15.8801 9.98377 15.8401C9.86377 16.0001 9.62377 15.8001 9.50377 15.8401C9.26377 15.8801 9.22377 16.0401 9.10377 16.2001C8.94377 16.4001 8.74377 16.4801 8.58377 16.6401C8.38377 16.8401 8.26377 17.0801 8.06377 17.2801C7.90377 17.4801 7.70377 17.6401 7.54377 17.8801C7.46377 18.2001 7.42377 18.4401 7.26377 18.6001C6.86377 18.9201 6.34377 18.5601 5.90377 18.5601C5.94377 18.6401 6.02377 18.6801 6.10377 18.7201C5.94377 18.8801 6.22377 19.1601 6.02377 19.3201C5.86377 18.8801 5.26377 19.0001 4.98377 19.2401C4.78377 19.4001 4.54377 19.6401 4.42377 19.8401C4.34377 20.0801 4.38377 20.3201 4.30377 20.5601C4.62377 20.6001 4.26377 21.5201 4.18377 21.7201C4.06377 21.9601 4.02377 21.9201 3.78377 21.9201C3.54377 21.9201 3.42377 22.0401 3.50377 22.2801C3.58377 22.5201 3.78377 22.6401 3.82377 22.8801C3.86377 23.1601 3.66377 23.4401 3.74377 23.7601C3.82377 24.0401 4.02377 24.2401 4.14377 24.4801C4.22377 24.6401 4.26377 24.8801 4.46377 24.9601C4.38377 25.0801 4.22377 25.1201 4.10377 25.2401C3.98377 25.3601 3.90377 25.5201 3.78377 25.6401C3.62377 25.4801 3.30377 25.2801 3.10377 25.5201C3.18377 25.5601 3.46377 25.6401 3.38377 25.8001C3.26377 25.7601 3.14377 25.7601 3.06377 25.7601C2.98377 25.7201 2.90377 25.6801 2.82377 25.6401C2.82377 25.7601 2.86377 25.8401 2.82377 25.9601C2.62377 25.8801 2.18377 25.9201 2.06377 26.1201C1.86377 26.4001 2.18377 26.8401 2.34377 27.0801C2.78377 27.8001 3.30377 28.4401 3.66377 29.2401C3.74377 29.4401 4.10377 30.2401 4.38377 29.9601C4.62377 29.7201 4.46377 29.0801 4.58377 28.8001C4.62377 28.6401 4.70377 28.4801 4.86377 28.3601C4.94377 28.2801 5.18377 28.2401 5.18377 28.0801C5.42377 28.1201 5.74377 28.3601 5.94377 28.1201C5.86377 28.0401 5.82377 27.9201 5.82377 27.8401C6.26377 27.8001 6.02377 27.2401 5.78377 27.1201C5.86377 27.0801 5.82377 26.7601 5.90377 26.6401C5.98377 26.4801 6.14377 26.3201 6.30377 26.2401C6.62377 26.0801 6.66377 26.4401 6.98377 26.4001C7.14377 26.3601 7.26377 26.2401 7.42377 26.2001C7.66377 26.1201 7.82377 26.2001 8.06377 26.3201C8.22377 26.4001 8.38377 26.4801 8.50377 26.6401C8.58377 26.7201 8.62377 26.8401 8.66377 26.9601C8.66377 27.0001 8.70377 27.0401 8.70377 27.0801C8.62377 27.1201 8.62377 27.1601 8.62377 27.2401C8.70377 27.2401 8.70377 27.1201 8.78377 27.1201C8.82377 27.1201 8.90377 27.1601 8.94377 27.2001C9.14377 27.2801 9.34377 27.3601 9.54377 27.4801C9.82377 27.6401 10.2638 28.2001 10.6238 28.0401C10.9438 27.8801 10.6638 27.4801 10.8638 27.2801C10.9438 27.1601 11.4638 27.1201 11.1838 26.9201C11.3038 26.8401 11.3438 26.6801 11.4638 26.6401C11.6238 26.6001 11.8238 26.7601 11.9838 26.8001C12.3838 26.9201 12.8238 26.8401 13.2638 26.8001C13.5438 26.8001 13.9038 26.8001 14.1038 27.0401C14.2238 27.2001 14.2238 27.4001 14.3438 27.5601C14.4238 27.6401 14.5838 27.5601 14.5038 27.7201C14.5838 27.7601 14.7838 27.6401 14.8638 27.7601C14.9838 27.8801 14.7438 27.9601 14.7438 28.0801C15.1838 28.1201 15.5438 27.6001 15.7838 28.1201C15.9038 28.3601 16.1038 28.6001 16.1838 28.8801C16.2638 29.1201 16.2238 29.3601 16.3838 29.5601C16.7438 30.0001 17.4238 29.7601 17.8238 30.0801C18.0238 30.2401 18.3838 30.8401 18.6638 30.4801C18.7838 31.2001 19.8238 30.3601 20.1438 30.2001C20.5838 30.0001 20.9038 30.1201 21.3038 30.2801C21.6638 30.4401 22.2238 30.6001 22.3038 30.0401C22.3438 29.7201 22.1838 29.2801 22.6238 29.1601C22.9838 29.0801 23.3438 29.4401 23.6638 29.5601C24.1038 29.7201 24.5438 29.6401 24.9838 29.6801C25.5438 29.7201 26.1438 29.9601 26.6238 29.6401C26.9838 29.4401 27.2238 29.0801 27.6638 28.9601C28.1038 28.8401 28.6638 28.9201 28.9038 28.4801C29.3038 27.8401 28.3838 27.0401 29.0238 26.4401C29.5838 25.9201 30.3438 26.1601 30.8238 26.6401C31.2238 27.0001 31.4638 27.2401 32.0238 27.2001C32.2638 27.2001 32.4638 27.1601 32.7038 27.2801C32.9438 27.4001 33.1038 27.5601 33.3438 27.3201C33.5838 27.0801 33.7438 26.6401 34.1038 27.0801C34.3038 27.3201 34.4638 27.7601 34.3438 28.0801C34.2238 28.4001 33.8638 28.5601 34.0238 28.9201C34.1438 29.1601 34.3038 29.2801 34.3438 29.5201C34.3438 29.6401 34.2638 29.9201 34.4638 29.8801C34.4238 29.7601 34.5038 29.6801 34.5438 29.6001C34.5838 29.4801 34.5438 29.3601 34.5438 29.2801C34.5838 29.3201 34.6238 29.3601 34.6638 29.4001C34.6638 29.3201 34.6638 29.2401 34.7038 29.2001C35.4238 29.7201 35.4638 27.9201 35.4638 27.5601C35.4638 26.8001 35.5038 26.0001 35.2238 25.2801C35.0638 24.8801 34.7438 24.5201 34.5438 24.1201C34.3838 23.8801 34.2238 23.5201 33.9038 23.5201C34.1038 23.1201 33.1838 23.3601 33.0638 23.4401C33.1438 23.5601 33.2638 23.6801 33.2238 23.8001C33.1038 23.7201 33.0238 23.9601 32.9438 24.0001C32.9438 23.8801 32.7838 23.8001 32.7838 23.6801C32.6638 23.7601 32.8638 23.9201 32.7438 24.0401C32.6638 23.9601 32.6238 23.8801 32.5038 23.8401C32.3838 23.8001 32.2638 23.9201 32.1838 23.8401C31.9838 23.7601 32.0238 23.5201 32.0238 23.3601C32.0638 22.8001 32.1438 22.2401 32.1438 21.6801C32.1438 21.2001 32.2238 20.7601 32.5838 20.4001C32.7438 20.2401 33.2238 19.9601 33.0638 19.6801C33.3838 19.8001 33.3838 19.0401 33.6638 18.9601C33.9838 18.8801 33.7838 19.1201 33.8638 19.2001C33.9438 19.2801 34.0238 18.8801 34.0638 18.8401C34.1038 18.6001 34.2638 18.5601 34.3438 18.3601C33.7838 18.2801 33.8238 18.0401 33.7438 17.5201C33.7038 17.2801 33.6638 17.0801 33.7438 16.8801C33.8238 16.7601 34.0238 16.6401 33.9038 16.4801C34.0238 16.6001 34.1438 16.7601 34.2638 16.8801C34.2638 16.8401 34.2638 16.8001 34.2638 16.7201C34.3438 16.7601 34.3838 16.8001 34.4238 16.8801C34.5038 16.7601 34.3838 16.6001 34.3838 16.4801C34.3438 16.3201 34.3838 16.1601 34.4238 16.0001C33.7038 16.1601 34.3038 15.4001 34.3438 15.4001C34.1038 15.5201 34.3838 15.7601 34.4638 15.8401C34.6238 16.0401 34.7038 16.2801 34.7838 16.5201C34.9038 16.8401 35.0638 17.1601 35.1438 17.5201C35.1838 17.8001 35.1038 18.1201 35.1838 18.4001C35.3438 19.0401 35.9038 19.4801 36.4638 19.7601C36.7838 19.9201 37.0638 20.1201 37.3838 20.2401C37.5438 20.3201 37.8238 20.3201 37.9038 20.5601C37.9038 20.5201 37.9038 20.4801 37.9038 20.4401C37.9038 20.4401 37.9038 20.4801 37.9038 20.5601C37.9038 20.4801 37.9038 20.4401 37.9038 20.3601C37.9038 20.4001 37.9038 20.4801 37.9038 20.5601C37.9038 20.5201 37.9038 20.4401 37.9038 20.3601C37.9038 20.4001 37.9038 20.4801 37.9038 20.5601C37.9038 20.5201 37.9038 20.4401 37.9038 20.3601C37.9038 20.4001 37.9038 20.4801 37.9038 20.5601C37.9038 20.5201 37.9038 20.4401 37.9038 20.3601C37.9038 20.4001 37.9038 20.4801 37.9038 20.5601C37.9438 20.1601 37.9038 20.4801 37.9038 20.5601C37.9438 20.1601 37.9038 20.4801 37.9038 20.5601Z"></path>
    <path d="M14.1601 18.52C13.8801 18.68 14.1201 18.72 14.1201 18.92H14.2401C14.2801 18.88 14.2401 18.64 14.1601 18.52Z"></path>
    <path d="M30.9201 10.7199C31.0401 10.8799 31.0801 11.0399 31.2001 10.8399C31.2401 10.7999 31.2401 10.6399 31.2401 10.5599C31.2401 9.99994 30.8801 10.5999 30.9201 10.7199Z"></path>
    <path d="M26.6401 15.5199C26.6801 15.3599 26.9601 15.3199 27.0801 15.2799C27.0401 15.0799 26.7201 15.0399 26.6001 15.2399C26.5601 15.2799 26.6401 15.4399 26.6401 15.5199Z"></path>
    <path d="M20.8797 14.9599C20.8797 14.8799 20.8797 14.7599 20.8397 14.6799C20.6797 14.6799 20.5597 15.4399 20.6397 15.5199C20.7997 15.3599 21.1197 15.3599 21.1597 15.1199C21.1597 15.0799 21.1997 14.9999 21.1597 14.9199C21.1197 14.8799 21.0797 14.8799 21.0397 14.9199C20.9997 14.8399 20.9597 14.7999 20.9197 14.7599C20.9597 14.7999 20.9197 14.9599 20.8797 14.9599Z"></path>
    <path d="M20.4005 14.4001C20.3605 14.4801 20.3205 14.5201 20.2805 14.5201C20.3205 14.4401 20.3205 14.4001 20.3205 14.3201C20.2005 14.3601 20.0805 14.4001 20.0005 14.4801C19.9205 14.5601 19.9605 14.7201 19.8405 14.7601C19.8005 14.7201 20.0405 14.8801 20.0005 14.8401C20.0805 14.8801 20.0805 14.9201 20.1605 15.0001C20.2005 15.0401 20.3605 15.1201 20.4405 15.0801C20.6405 15.0401 20.4805 14.9201 20.4805 14.8001C20.4805 14.6801 20.6405 14.4401 20.4005 14.4001Z"></path>
    <path d="M12.2795 18.0801C11.9595 18.0801 11.9995 18.5201 12.3195 18.4001C12.4795 18.3201 12.4795 18.0801 12.2795 18.0801Z"></path>
    <path d="M13.8003 18.1999C13.7203 18.1999 13.4803 18.0399 13.4803 17.9599C13.4803 17.8399 13.6003 17.7999 13.5603 17.6799C13.5603 17.5599 13.4003 17.5199 13.3603 17.3999C13.3203 17.2399 13.4403 17.0799 13.6003 17.1999C13.6003 17.0799 13.9203 17.0399 13.7603 16.9199C13.8003 16.8799 13.8803 16.8399 13.9603 16.9199L14.0003 16.7599C14.0803 16.7599 14.1603 16.7999 14.2403 16.7599C14.3203 16.7199 14.2803 16.6399 14.4003 16.6399C14.3203 16.5999 14.2803 16.5599 14.2403 16.5199C14.4003 16.4799 14.6403 16.2799 14.8003 16.3199L14.7203 16.2399C14.8003 16.1999 14.8403 16.2399 14.8803 16.2799C14.8403 16.1999 14.8803 16.0399 14.9203 15.9999C14.9603 16.0399 15.0003 16.0799 15.0803 16.0799C15.0803 16.0399 15.0803 16.0399 15.0803 15.9999C15.2003 16.0799 15.2403 15.9599 15.3603 15.9199C15.4803 15.8799 15.5203 15.9199 15.6403 15.8799C15.8803 15.8399 15.9203 15.8399 16.1603 15.8799C16.4403 15.9599 16.4403 15.7599 16.6803 15.7199C16.8403 15.6799 17.0003 15.7999 16.9603 15.9599C16.8803 16.1599 15.4003 16.3199 15.5203 16.4799C15.4403 16.5199 15.2003 16.5599 15.1203 16.5199C15.1603 16.6399 15.0403 16.6799 14.9603 16.7599C14.9603 16.7199 14.9603 16.6799 14.9603 16.6799C14.8803 16.7199 14.8803 16.7599 14.9203 16.8399C14.9203 16.8399 14.8003 16.8399 14.8003 16.7999C14.8003 16.8399 14.8003 16.8799 14.8003 16.9199L14.7603 16.8799C14.6003 17.1599 14.2003 17.2399 14.0803 17.5599C14.0003 17.7599 14.2003 18.2799 14.0003 18.3199C13.8803 18.2799 13.8803 18.2399 13.8003 18.1999Z"></path>
    <path d="M33.7597 22.5599H33.7197C33.6797 22.5199 33.6797 22.4399 33.6797 22.3999C34.0797 22.4799 34.3597 22.9599 34.6797 23.1999C34.8397 23.3199 35.0397 23.4399 35.1997 23.5199C35.3997 23.6399 35.5997 23.8399 35.8397 23.9199C35.7997 24.0399 35.7197 24.0799 35.5997 24.0799C35.7197 24.4399 35.6797 24.7599 36.0797 24.9599C36.1997 24.9999 36.3197 25.1199 36.4397 25.1199C36.5597 25.1599 36.6797 25.0399 36.7597 25.2399C36.7197 25.1199 36.3997 25.2399 36.3597 25.3599C36.3197 25.4799 36.6397 25.6399 36.4397 25.7599C36.1997 25.4799 36.0397 25.0799 35.7197 24.8799C35.5997 24.7999 35.4797 24.7599 35.3597 24.6399C35.2397 24.5199 35.1997 24.3599 35.1197 24.2399C34.9997 24.0799 34.8797 23.9599 34.7597 23.8399C34.6397 23.7599 34.4797 23.7199 34.3597 23.5999C34.1997 23.4399 34.1197 23.0799 33.8397 23.0799C33.8797 23.0399 33.8797 22.9599 33.8797 22.9199C33.9197 22.9199 33.9597 22.9599 33.9997 22.9599C34.0397 22.7599 33.8797 22.5999 33.7597 22.5599Z"></path>
    <path d="M26.2805 14.5601C26.1605 14.4801 25.9205 14.4001 26.0805 14.2401C26.1205 14.7201 26.6005 14.2401 26.3605 14.2801C26.3605 14.2401 26.4005 14.1601 26.4005 14.1201C26.2405 14.1601 26.1605 14.2001 26.0005 14.2401C25.9205 14.2401 25.8805 14.2001 25.8005 14.2401C25.8005 14.3601 25.8805 14.4001 25.9605 14.4801C25.9205 14.5201 25.4005 14.3601 25.5605 14.5601L25.4805 14.6001C25.4805 14.6801 25.5605 14.7601 25.5205 14.8401C25.6405 14.8401 25.6405 15.0401 25.8405 15.0801C26.1205 15.1601 26.0405 15.0401 26.1205 14.8801L26.1605 14.9201C26.2005 14.8401 26.2805 14.7201 26.3605 14.6401L26.4005 14.6801C26.4405 14.6401 26.4805 14.6001 26.5205 14.5201C26.3605 14.5201 26.3605 14.5201 26.2805 14.5601Z"></path>
    <path d="M26.7595 13.84C26.6795 13.92 26.5995 14.04 26.5195 14C26.5195 14.04 26.5595 14.04 26.5595 14.08C26.6795 14.32 27.0395 14.12 27.1195 13.96C27.3595 13.56 26.7995 13.92 26.7595 13.84Z"></path>
    <path d="M2.68004 18.6401C2.64004 18.5601 2.60004 18.5201 2.56004 18.4801L2.52004 18.5201L2.56004 18.5601V18.6401H2.48004C2.48004 18.6401 2.48004 18.6001 2.48004 18.5601C2.40004 18.4801 2.40004 18.4001 2.36004 18.4001C2.32004 18.4001 2.32004 18.3601 2.28004 18.3601C2.24004 18.3601 2.20004 18.4001 2.12004 18.4001C2.08004 18.4001 2.08004 18.4001 2.04004 18.4001C2.12004 18.6001 2.28004 19.0001 2.48004 19.0801C2.64004 19.1201 2.72004 19.0001 2.72004 18.8401C2.72004 18.8001 2.72004 18.7201 2.68004 18.6401Z"></path>
    <path d="M19.9597 13.6799C19.9597 13.7599 19.7997 13.8399 19.7597 13.9199C19.7597 13.9599 19.7197 14.1599 19.7197 14.1999C19.7597 14.5599 20.0397 14.3199 20.2397 14.2399C20.1597 14.0799 20.3197 13.7199 19.9597 13.6799Z"></path>
    <path d="M14.1601 18.52C13.8801 18.68 14.1201 18.72 14.1201 18.92H14.2401C14.2801 18.88 14.2401 18.64 14.1601 18.52Z"></path>
  </symbol>

  <symbol stroke="none" viewBox="0 0 100 92" id="heart">
    <path d="M72.5 0.14978C63.8 0.14978 55.45 4.19978 50 10.4998C44.55 4.19978 36.2 0.14978 27.5 0.14978C12.1 0.14978 0 12.1998 0 27.6498C0 46.4998 17 61.9498 42.75 85.2998L50 91.8498L57.25 85.2998C83 61.9498 100 46.4998 100 27.6498C100 12.1998 87.9 0.14978 72.5 0.14978ZM50 75.1498V55.1498H35L50 20.1498V40.1498H65"></path>
  </symbol>

  <symbol stroke="none" viewBox="0 0 60 60" id="insta">
    <path d="M17.4 -3.05176e-05H42.6C52.2 -3.05176e-05 60 7.79997 60 17.4V42.6C60 52.2 52.2 60 42.6 60H17.4C7.8 60 0 52.2 0 42.6V17.4C0 7.79997 7.8 -3.05176e-05 17.4 -3.05176e-05ZM16.8 5.99997C10.83 5.99997 6 10.83 6 16.8V43.2C6 49.17 10.83 54 16.8 54H43.2C49.17 54 54 49.17 54 43.2V16.8C54 10.83 49.17 5.99997 43.2 5.99997H16.8ZM45.75 10.5C47.82 10.5 49.5 12.18 49.5 14.25C49.5 16.32 47.82 18 45.75 18C43.68 18 42 16.32 42 14.25C42 12.18 43.68 10.5 45.75 10.5ZM30 15C38.28 15 45 21.72 45 30C45 38.28 38.28 45 30 45C21.72 45 15 38.28 15 30C15 21.72 21.72 15 30 15ZM30 21C25.02 21 21 25.02 21 30C21 34.98 25.02 39 30 39C34.98 39 39 34.98 39 30C39 25.02 34.98 21 30 21Z"></path>
  </symbol>

  <symbol fill="none" viewBox="0 0 24 24" id="link">
    <path d="M10 13C10.869 14.1617 12.1996 14.8887 13.6466 14.9923C15.0937 15.096 16.5144 14.566 17.54 13.54L20.54 10.54C22.4349 8.57811 22.4078 5.45958 20.4791 3.53091C18.5504 1.60224 15.4319 1.57514 13.47 3.47L11.75 5.18" stroke-width="2" stroke-linecap="round" stroke-linejoin="round"></path>
    <path d="M14.0002 11C13.1312 9.83831 11.8006 9.1113 10.3536 9.00767C8.90653 8.90403 7.48583 9.43399 6.4602 10.46L3.4602 13.46C1.56534 15.4219 1.59244 18.5404 3.52111 20.4691C5.44978 22.3978 8.56831 22.4249 10.5302 20.53L12.2402 18.82" stroke-width="2" stroke-linecap="round" stroke-linejoin="round"></path>
  </symbol>

  <symbol fill="none" viewBox="0 0 18 18" id="list">
    <path d="M6 4.5H15.75" stroke-width="2" stroke-linecap="round" stroke-linejoin="round"></path>
    <path d="M6 9H15.75" stroke-width="2" stroke-linecap="round" stroke-linejoin="round"></path>
    <path d="M6 13.5H15.75" stroke-width="2" stroke-linecap="round" stroke-linejoin="round"></path>
    <path d="M3 4.5H2.25" stroke-width="2" stroke-linecap="round" stroke-linejoin="round"></path>
    <path d="M3 9H2.25" stroke-width="2" stroke-linecap="round" stroke-linejoin="round"></path>
    <path d="M3 13.5H2.25" stroke-width="2" stroke-linecap="round" stroke-linejoin="round"></path>
  </symbol>

  <symbol fill="none" stroke="none" viewBox="0 0 24 24" id="map-pin">
    <path fill-rule="evenodd" clip-rule="evenodd" d="M21 10C21 17 12 23 12 23C12 23 3 17 3 10C3 5.02944 7.02944 1 12 1C16.9706 1 21 5.02944 21 10Z" fill="#FF6347" stroke="#FF6347" stroke-width="2" stroke-linecap="round" stroke-linejoin="round"></path>
    <path fill-rule="evenodd" clip-rule="evenodd" d="M12 13C13.6569 13 15 11.6569 15 10C15 8.34315 13.6569 7 12 7C10.3431 7 9 8.34315 9 10C9 11.6569 10.3431 13 12 13Z" fill="white"></path>
  </symbol>

  <symbol fill="none" viewBox="0 0 20 18" id="map">
    <path fill-rule="evenodd" clip-rule="evenodd" d="M1.75 4.5V16.5L7 13.5L13 16.5L18.25 13.5V1.5L13 4.5L7 1.5L1.75 4.5Z" stroke-width="2" stroke-linecap="round" stroke-linejoin="round"></path>
    <path d="M7 1.5V13.5" stroke-width="2" stroke-linecap="round" stroke-linejoin="round"></path>
    <path d="M13 4.5V16.5" stroke-width="2" stroke-linecap="round" stroke-linejoin="round"></path>
  </symbol>

  <symbol fill="none" viewBox="0 0 28 36" id="play">
    <path fill-rule="evenodd" clip-rule="evenodd" d="M1.66699 1.33337L26.667 18L1.66699 34.6667V1.33337V1.33337Z" stroke-width="2" stroke-linecap="round" stroke-linejoin="round"></path>
  </symbol>

  <symbol fill="none" viewBox="0 0 24 24" id="search">
    <path fill-rule="evenodd" clip-rule="evenodd" d="M10.5 18C14.6421 18 18 14.6421 18 10.5C18 6.35786 14.6421 3 10.5 3C6.35786 3 3 6.35786 3 10.5C3 14.6421 6.35786 18 10.5 18Z" stroke-width="2" stroke-linecap="round" stroke-linejoin="round"></path>
    <path d="M20.9998 21L15.7998 15.8" stroke-width="2" stroke-linecap="round" stroke-linejoin="round"></path>
  </symbol>

  <symbol fill="none" viewBox="0 0 24 24" id="share">
    <path fill-rule="evenodd" clip-rule="evenodd" d="M18 8C19.6569 8 21 6.65685 21 5C21 3.34315 19.6569 2 18 2C16.3431 2 15 3.34315 15 5C15 6.65685 16.3431 8 18 8Z" stroke-width="2" stroke-linecap="round" stroke-linejoin="round"></path>
    <path fill-rule="evenodd" clip-rule="evenodd" d="M6 15C7.65685 15 9 13.6569 9 12C9 10.3431 7.65685 9 6 9C4.34315 9 3 10.3431 3 12C3 13.6569 4.34315 15 6 15Z" stroke-width="2" stroke-linecap="round" stroke-linejoin="round"></path>
    <path fill-rule="evenodd" clip-rule="evenodd" d="M18 22C19.6569 22 21 20.6569 21 19C21 17.3431 19.6569 16 18 16C16.3431 16 15 17.3431 15 19C15 20.6569 16.3431 22 18 22Z" stroke-width="2" stroke-linecap="round" stroke-linejoin="round"></path>
    <path d="M8.58984 13.51L15.4198 17.49" stroke-width="2" stroke-linecap="round" stroke-linejoin="round"></path>
    <path d="M15.4098 6.51001L8.58984 10.49" stroke-width="2" stroke-linecap="round" stroke-linejoin="round"></path>
  </symbol>

  <symbol stroke="none" viewBox="0 0 32 34" id="snow">
    <path d="M30.65 20.2499L26.7667 21.2833L23.4333 19.3999V14.5999L26.7667 12.7166L30.65 13.7499L31.5167 10.5333L28.5667 9.74992L29.3333 6.79992L26.1167 5.93325L25.0833 9.81659L21.75 11.6999L17.6667 9.29992V5.53325L20.5167 2.68325L18.15 0.333252L16 2.48325L13.85 0.333252L11.4833 2.68325L14.3333 5.53325V9.29992L10.1667 11.6999L6.83333 9.81659L5.86667 5.93325L2.66667 6.79992L3.45 9.74992L0.5 10.5333L1.36667 13.7499L5.25 12.7166L8.58333 14.5999V19.4166L5.25 21.2999L1.36667 20.2666L0.5 23.4833L3.45 24.2666L2.66667 27.1999L5.88333 28.0666L6.91667 24.1833L10.25 22.2999L14.3333 24.6999V28.4666L11.4833 31.3166L13.85 33.6666L16 31.5166L18.15 33.6666L20.5 31.3166L17.6667 28.4666V24.6999L21.8333 22.2833L25.1667 24.1666L26.2 28.0499L29.3333 27.1999L28.55 24.2499L31.5 23.4666L30.65 20.2499ZM11.8333 14.5999L16 12.1833L20.1667 14.5999V19.3999L16 21.8166L11.8333 19.3999V14.5999Z" fill="#2384B8"></path>
  </symbol>

  <symbol fill="none" viewBox="0 0 22 22" id="star">
    <path fill-rule="evenodd" clip-rule="evenodd" d="M11 1L14.09 7.26L21 8.27L16 13.14L17.18 20.02L11 16.77L4.82 20.02L6 13.14L1 8.27L7.91 7.26L11 1Z" stroke-width="2" stroke-linecap="round" stroke-linejoin="round"></path>
  </symbol>

  <symbol id="telegram" enable-background="new 0 0 24 24" viewBox="0 0 24 24">
    <path d="m9.417 15.181-.397 5.584c.568 0 .814-.244 1.109-.537l2.663-2.545 5.518 4.041c1.012.564 1.725.267 1.998-.931l3.622-16.972.001-.001c.321-1.496-.541-2.081-1.527-1.714l-21.29 8.151c-1.453.564-1.431 1.374-.247 1.741l5.443 1.693 12.643-7.911c.595-.394 1.136-.176.691.218z"></path>
  </symbol>

  <symbol stroke="none" viewBox="0 0 22 17" id="tw">
    <path d="M21.4591 2C20.6891 2.35 19.8591 2.58 18.9991 2.69C19.8791 2.16 20.5591 1.32 20.8791 0.31C20.0491 0.81 19.1291 1.16 18.1591 1.36C17.3691 0.5 16.2591 0 14.9991 0C12.6491 0 10.7291 1.92 10.7291 4.29C10.7291 4.63 10.7691 4.96 10.8391 5.27C7.27906 5.09 4.10906 3.38 1.99906 0.79C1.62906 1.42 1.41906 2.16 1.41906 2.94C1.41906 4.43 2.16906 5.75 3.32906 6.5C2.61906 6.5 1.95906 6.3 1.37906 6C1.37906 6 1.37906 6 1.37906 6.03C1.37906 8.11 2.85906 9.85 4.81906 10.24C4.45906 10.34 4.07906 10.39 3.68906 10.39C3.41906 10.39 3.14906 10.36 2.88906 10.31C3.42906 12 4.99906 13.26 6.88906 13.29C5.42906 14.45 3.57906 15.13 1.55906 15.13C1.21906 15.13 0.879063 15.11 0.539062 15.07C2.43906 16.29 4.69906 17 7.11906 17C14.9991 17 19.3291 10.46 19.3291 4.79C19.3291 4.6 19.3291 4.42 19.3191 4.23C20.1591 3.63 20.8791 2.87 21.4591 2Z"></path>
  </symbol>

  <symbol version="1.1" stroke="none" id="user" xmlns:xlink="http://www.w3.org/1999/xlink" x="0px" y="0px" xml:space="preserve" viewBox="0 0 19.738 19.738">
    <path d="M18.18,19.738h-2c0-3.374-2.83-6.118-6.311-6.118s-6.31,2.745-6.31,6.118h-2
		c0-4.478,3.729-8.118,8.311-8.118C14.451,11.62,18.18,15.26,18.18,19.738z"></path>
    <path d="M9.87,10.97c-3.023,0-5.484-2.462-5.484-5.485C4.385,2.461,6.846,0,9.87,0
		c3.025,0,5.486,2.46,5.486,5.485S12.895,10.97,9.87,10.97z M9.87,2C7.948,2,6.385,3.563,6.385,5.485S7.948,8.97,9.87,8.97
		c1.923,0,3.486-1.563,3.486-3.485S11.791,2,9.87,2z"></path>
  </symbol>

  <symbol fill="none" viewBox="0 0 24 24" id="users">
    <path d="M17 21V19C17 16.7909 15.2091 15 13 15H5C2.79086 15 1 16.7909 1 19V21" stroke-width="2" stroke-linecap="round" stroke-linejoin="round"></path>
    <path fill-rule="evenodd" clip-rule="evenodd" d="M9 11C11.2091 11 13 9.20914 13 7C13 4.79086 11.2091 3 9 3C6.79086 3 5 4.79086 5 7C5 9.20914 6.79086 11 9 11Z" stroke-width="2" stroke-linecap="round" stroke-linejoin="round"></path>
    <path d="M23 21V19C22.9986 17.1771 21.765 15.5857 20 15.13" stroke-width="2" stroke-linecap="round" stroke-linejoin="round"></path>
    <path d="M16 3.13C17.7699 3.58317 19.0078 5.178 19.0078 7.005C19.0078 8.83201 17.7699 10.4268 16 10.88" stroke-width="2" stroke-linecap="round" stroke-linejoin="round"></path>
  </symbol>

  <symbol stroke="none" viewBox="0 0 60 60" id="vk-round">
    <path d="M39.21 0H20.79C3.99 0 0 3.99 0 20.79V39.21C0 56.01 3.99 60 20.79 60H39.21C56.01 60 60 56.01 60 39.21V20.79C60 3.99 56.01 0 39.21 0ZM48.45 42.81H44.07C42.42 42.81 41.91 41.46 39 38.49C36.36 36 35.22 35.64 34.59 35.64C33.72 35.64 33.45 35.88 33.45 37.14V41.07C33.45 42.12 33.12 42.78 30.33 42.78C25.71 42.78 20.58 39.96 16.98 34.77C11.55 27.15 10.08 21.39 10.08 20.25C10.08 19.62 10.29 19.02 11.55 19.02H15.96C17.07 19.02 17.49 19.5 17.91 20.7C20.07 27 23.67 32.4 25.14 32.4C25.71 32.4 25.95 32.13 25.95 30.75V24.3C25.8 21.36 24.21 21.09 24.21 20.04C24.21 19.5 24.63 19.02 25.32 19.02H32.19C33.12 19.02 33.45 19.5 33.45 20.64V29.31C33.45 30.24 33.84 30.57 34.14 30.57C34.68 30.57 35.16 30.24 36.15 29.22C39.3 25.71 41.55 20.28 41.55 20.28C41.85 19.65 42.33 19.05 43.5 19.05H47.79C49.11 19.05 49.41 19.74 49.11 20.67C48.57 23.22 43.23 30.75 43.29 30.75C42.81 31.5 42.63 31.83 43.29 32.7C43.74 33.33 45.27 34.65 46.29 35.82C48.15 37.95 49.59 39.72 49.98 40.95C50.31 42.18 49.71 42.81 48.45 42.81Z"></path>
  </symbol>

  <symbol stroke="none" viewBox="0 0 24 14" id="vk">
    <path d="M23.8728 12.5199C23.8437 12.4573 23.8166 12.4053 23.7915 12.3637C23.3751 11.6138 22.5793 10.6933 21.4047 9.60193L21.3799 9.57694L21.3675 9.56469L21.3549 9.55212H21.3423C20.8093 9.04395 20.4717 8.70226 20.3303 8.52732C20.0716 8.19408 20.0137 7.85676 20.1551 7.51499C20.2549 7.25676 20.6301 6.71143 21.2797 5.87823C21.6214 5.43667 21.892 5.08277 22.0918 4.81614C23.5331 2.90002 24.158 1.67559 23.9663 1.14238L23.8919 1.01777C23.8418 0.942755 23.7127 0.874128 23.5047 0.811541C23.2962 0.749086 23.0297 0.738757 22.7047 0.78038L19.106 0.805239C19.0477 0.784581 18.9645 0.786507 18.856 0.811541C18.7477 0.836576 18.6935 0.849138 18.6935 0.849138L18.6309 0.880431L18.5812 0.918027C18.5395 0.942886 18.4937 0.98661 18.4436 1.04911C18.3939 1.11139 18.3523 1.18448 18.319 1.26777C17.9272 2.27577 17.4817 3.21295 16.9818 4.07928C16.6735 4.59586 16.3904 5.04355 16.1319 5.42262C15.8737 5.80155 15.6571 6.08074 15.4823 6.25971C15.3073 6.43884 15.1493 6.58236 15.0074 6.69077C14.8657 6.79922 14.7575 6.84505 14.6827 6.82828C14.6076 6.81152 14.5369 6.79489 14.47 6.77826C14.3534 6.70324 14.2597 6.60122 14.189 6.47211C14.118 6.34299 14.0702 6.18049 14.0452 5.98472C14.0204 5.78882 14.0057 5.62031 14.0015 5.47864C13.9976 5.33714 13.9994 5.13699 14.0078 4.87877C14.0165 4.62041 14.0204 4.44561 14.0204 4.35396C14.0204 4.03735 14.0265 3.69373 14.0389 3.32303C14.0515 2.95232 14.0617 2.6586 14.0703 2.44221C14.0788 2.22561 14.0827 1.99645 14.0827 1.75485C14.0827 1.51326 14.068 1.32379 14.0389 1.18627C14.0102 1.04893 13.9661 0.91562 13.9081 0.786376C13.8496 0.657263 13.7641 0.557386 13.6519 0.486484C13.5395 0.415669 13.3997 0.359472 13.2333 0.317718C12.7917 0.217798 12.2295 0.163746 11.5462 0.155342C9.99683 0.138711 9.00126 0.238762 8.55974 0.455365C8.3848 0.546882 8.22649 0.671924 8.08495 0.830098C7.93496 1.01344 7.91404 1.11349 8.02232 1.12995C8.52223 1.20483 8.87613 1.38397 9.08442 1.66719L9.15948 1.81726C9.21786 1.92554 9.27616 2.11724 9.3345 2.3921C9.39275 2.66696 9.43035 2.97101 9.44689 3.30407C9.48847 3.9123 9.48847 4.43296 9.44689 4.86608C9.40518 5.29937 9.36579 5.63668 9.3282 5.87828C9.2906 6.11987 9.23441 6.31564 9.15948 6.46554C9.08442 6.61549 9.03448 6.70714 9.00944 6.7404C8.98445 6.77366 8.96362 6.79463 8.94708 6.80285C8.8388 6.84435 8.72618 6.86549 8.60963 6.86549C8.4929 6.86549 8.35136 6.8071 8.18478 6.69042C8.01825 6.57373 7.84542 6.41346 7.66628 6.20933C7.48714 6.00516 7.28511 5.71984 7.0601 5.35333C6.83527 4.98683 6.60199 4.55367 6.3604 4.05385L6.16052 3.69137C6.03556 3.45818 5.86487 3.11863 5.64827 2.67304C5.43153 2.22727 5.23996 1.79608 5.07343 1.37955C5.00686 1.20461 4.90685 1.07143 4.77358 0.979782L4.71104 0.942186C4.66946 0.908923 4.60272 0.873603 4.51116 0.835963C4.41946 0.798368 4.32379 0.771407 4.22374 0.754819L0.799886 0.779679C0.450013 0.779679 0.21262 0.858941 0.0876216 1.01725L0.0375959 1.09213C0.0126049 1.13384 0 1.20046 0 1.29215C0 1.3838 0.024991 1.49628 0.0750167 1.62946C0.574836 2.80417 1.11838 3.93708 1.70564 5.02836C2.29291 6.11965 2.80323 6.99871 3.23631 7.66476C3.66947 8.33129 4.11099 8.96035 4.56087 9.55164C5.01076 10.1432 5.30855 10.5222 5.45425 10.6888C5.60012 10.8556 5.7147 10.9803 5.79799 11.0636L6.11045 11.3635C6.31037 11.5634 6.60396 11.8029 6.99135 12.0819C7.37882 12.3611 7.80778 12.636 8.27845 12.907C8.7492 13.1775 9.29686 13.3982 9.92172 13.569C10.5465 13.7399 11.1546 13.8085 11.7461 13.7754H13.1832C13.4746 13.7502 13.6954 13.6586 13.8455 13.5004L13.8952 13.4378C13.9286 13.388 13.9599 13.3108 13.9888 13.2068C14.0181 13.1027 14.0326 12.988 14.0326 12.8632C14.0241 12.5051 14.0513 12.1823 14.1136 11.8949C14.1759 11.6076 14.2469 11.391 14.3263 11.2452C14.4057 11.0994 14.4952 10.9764 14.5949 10.8767C14.6947 10.7768 14.7659 10.7163 14.8077 10.6955C14.8491 10.6745 14.8823 10.6603 14.9073 10.6517C15.1072 10.5851 15.3425 10.6496 15.6135 10.8456C15.8843 11.0413 16.1383 11.2831 16.3758 11.5704C16.6133 11.8579 16.8985 12.1805 17.2317 12.5387C17.5651 12.8969 17.8566 13.1633 18.1064 13.3385L18.3562 13.4884C18.523 13.5885 18.7396 13.6801 19.0063 13.7634C19.2724 13.8466 19.5056 13.8675 19.7058 13.8258L22.9046 13.7759C23.221 13.7759 23.4672 13.7236 23.6419 13.6196C23.8168 13.5155 23.9208 13.4008 23.9543 13.276C23.9877 13.1511 23.9895 13.0094 23.9607 12.8509C23.931 12.6929 23.9018 12.5824 23.8728 12.5199Z"></path>
  </symbol>

  <symbol stroke="none" viewBox="0 0 30 40" id="water">
    <path d="M15.667 0.75C15.3337 0.333333 14.667 0.333333 14.3337 0.75C11.5003 4.41667 0.916992 18.75 0.916992 25.5C0.916992 33.25 7.25033 39.5833 15.0003 39.5833C22.7503 39.5833 29.0837 33.25 29.0837 25.5C29.0837 18.75 18.5003 4.41667 15.667 0.75ZM19.7503 34.6667C19.5837 34.75 19.417 34.75 19.2503 34.75C18.7503 34.75 18.2503 34.4167 18.0837 34C17.8337 33.3333 18.167 32.6667 18.7503 32.3333C23.667 30.3333 23.2503 24.3333 23.167 24.25C23.0837 23.5833 23.5837 22.9167 24.3337 22.9167C25.0003 22.8333 25.667 23.3333 25.667 24.0833C26.0003 26.75 25.0003 32.5 19.7503 34.6667Z" fill="#2384B8"></path>
  </symbol>

  <symbol stroke="none" viewBox="0 0 34 30" id="weight">
    <path d="M16.9997 0C20.683 0 23.6663 2.98333 23.6663 6.66667C23.6663 7.88333 23.3497 9.01667 22.7663 10H26.9997C28.583 10 29.9163 11.1167 30.2497 12.6C33.5997 25.95 33.6663 26.3 33.6663 26.6667C33.6663 28.5 32.1663 30 30.333 30H3.66634C1.83301 30 0.333008 28.5 0.333008 26.6667C0.333008 26.3 0.399675 25.95 3.74968 12.6C4.08301 11.1167 5.41634 10 6.99967 10H11.233C10.6497 9.01667 10.333 7.88333 10.333 6.66667C10.333 2.98333 13.3163 0 16.9997 0ZM16.9997 3.33333C15.1663 3.33333 13.6663 4.83333 13.6663 6.66667C13.6663 8.5 15.1663 10 16.9997 10C18.833 10 20.333 8.5 20.333 6.66667C20.333 4.83333 18.833 3.33333 16.9997 3.33333Z" fill="#2384B8"></path>
  </symbol>

  <symbol stroke="none" viewBox="0 0 60 42" id="youtube">
    <path d="M24 30L39.57 21L24 12V30ZM58.68 6.51C59.07 7.92 59.34 9.81 59.52 12.21C59.73 14.61 59.82 16.68 59.82 18.48L60 21C60 27.57 59.52 32.4 58.68 35.49C57.93 38.19 56.19 39.93 53.49 40.68C52.08 41.07 49.5 41.34 45.54 41.52C41.64 41.73 38.07 41.82 34.77 41.82L30 42C17.43 42 9.6 41.52 6.51 40.68C3.81 39.93 2.07 38.19 1.32 35.49C0.93 34.08 0.66 32.19 0.48 29.79C0.27 27.39 0.18 25.32 0.18 23.52L0 21C0 14.43 0.48 9.6 1.32 6.51C2.07 3.81 3.81 2.07 6.51 1.32C7.92 0.93 10.5 0.66 14.46 0.48C18.36 0.27 21.93 0.18 25.23 0.18L30 0C42.57 0 50.4 0.48 53.49 1.32C56.19 2.07 57.93 3.81 58.68 6.51Z"></path>
  </symbol>

  <symbol fill="none" viewBox="0 0 22 22" id="close">
    <path d="M16.25 5.75L5.75 16.25" stroke-width="2" stroke-linecap="round" stroke-linejoin="round"></path>
    <path d="M5.75 5.75L16.25 16.25" stroke-width="2" stroke-linecap="round" stroke-linejoin="round"></path>
  </symbol>
</svg>