<?xml version="1.0"?>
<svg xmlns="http://www.w3.org/2000/svg" viewBox="0 0 64 64" width="512" height="512"><g id="outline"><path d="M20,62H44V60a1,1,0,0,0-.219-.625,8.375,8.375,0,0,1-.736-9.438l.823-1.441a1,1,0,0,0-.161-1.2l-8.5-8.5a2.536,2.536,0,0,1,3.586-3.586l10.5,10.5,1.414-1.414L49,42.586V32.773l2.773,3.345A9,9,0,0,1,54,42.044V62h2V42.044a10.976,10.976,0,0,0-2.7-7.222L49,29.639V7a5.006,5.006,0,0,0-5-5H20a5.006,5.006,0,0,0-5,5V57A5.006,5.006,0,0,0,20,62Zm-3-5V56H40.111a10.368,10.368,0,0,0,1.671,4H20A3,3,0,0,1,17,57ZM40.207,33.793A4.523,4.523,0,0,0,32.952,39H31v3h2V39.092a4.464,4.464,0,0,0,.793,1.115l7.96,7.96-.444.777A10.386,10.386,0,0,0,39.952,54H17V10H47V40.586ZM20,4H44a3,3,0,0,1,3,3V8H17V7A3,3,0,0,1,20,4Z"/><path d="M43.857,21.189a10.075,10.075,0,0,0-5.41-7.084,1,1,0,0,0-1.342.448,3.88,3.88,0,0,1-4.886,1.857l-.848-.339a1,1,0,0,0-1.219.4l-4.94,7.9L20.986,28.6A3.381,3.381,0,0,0,25.1,33.907l18.416-11.05A1,1,0,0,0,43.98,21.8Zm-19.787,11a1.366,1.366,0,0,1-1.67-.206A1.383,1.383,0,0,1,22,30.98a1.357,1.357,0,0,1,.4-.966l4.307-4.307a.962.962,0,0,0,.141-.177l4.557-7.291.071.028a5.9,5.9,0,0,0,6.863-1.924,8.077,8.077,0,0,1,3.542,5.162Z"/><path d="M33.658,21.711l-1.211-.606a1,1,0,0,0-1.342.448l-2,4,1.79.894,1.552-3.105,1.106.553a1,1,0,0,0,1.279-.34l2-3-1.664-1.11Z"/><path d="M22,37a3,3,0,0,0-3,3,3.389,3.389,0,0,0,1,2.414l1.293,1.293a1,1,0,0,0,1.414,0L24,42.414A3.389,3.389,0,0,0,25,40,3,3,0,0,0,22,37Zm.586,4L22,41.586,21.414,41A1.425,1.425,0,0,1,21,40a1,1,0,0,1,2,0A1.425,1.425,0,0,1,22.586,41Z"/><path d="M22,46a3,3,0,1,0,3,3A3,3,0,0,0,22,46Zm0,4a1,1,0,1,1,1-1A1,1,0,0,1,22,50Z"/><rect x="27" y="39" width="2" height="3"/><rect x="27" y="47" width="2" height="3"/><rect x="31" y="47" width="2" height="3"/><rect x="35" y="47" width="2" height="3"/><rect x="43" y="12" width="2" height="2"/><rect x="19" y="12" width="2" height="2"/><rect x="23" y="12" width="2" height="2"/><rect x="27" y="12" width="2" height="2"/></g></svg>
