<?xml version="1.0"?>
<svg xmlns="http://www.w3.org/2000/svg" viewBox="0 0 64 64" width="512" height="512"><g id="outline"><path d="M62,51V11a4,4,0,0,0-4-4H47A5,5,0,0,0,37,7H26a4,4,0,0,0-4,4V39h2V11a2,2,0,0,1,2-2h5.382l-1,2H27a1,1,0,0,0-1,1V39h2V13h2v2a1,1,0,0,0,1,1H53a1,1,0,0,0,1-1V13h2V42H50a1,1,0,0,0-1,1v6H48v2h9a1,1,0,0,0,1-1V12a1,1,0,0,0-1-1H53.618l-1-2H58a2,2,0,0,1,2,2V51a2,2,0,0,1-2,2H48v2H58A4,4,0,0,0,62,51ZM51,44h3.586L51,47.586Zm1.414,5L56,45.414V49ZM52,12.236V14H32V12.236L33.618,9H38a1,1,0,0,0,1-1V7a3,3,0,0,1,6,0V8a1,1,0,0,0,1,1h4.382Z"/><rect x="41" y="6" width="2" height="2"/><path d="M5.745,60.569A73.817,73.817,0,0,0,20.2,62H41a5.006,5.006,0,0,0,5-5V54a20.62,20.62,0,0,0-1.661-8.073l-1.42-3.32a1,1,0,0,0-1.569-.367L39.6,43.734a6.9,6.9,0,0,1-3.282,1.573l-.052.007a7,7,0,0,1-5.823-1.627l-2.79-2.44a1,1,0,0,0-1.143-.122L23.506,42.8l-.765-1.113-1.648,1.132.657.957-1.888,1.048-.55-1.1-1.79.895.59,1.18-.517.287-1.512.5-.5-1.149-1.834.8.429.99-1.768.589-.288-.937-1.912.587.3.983L5.187,50.22A4.639,4.639,0,0,0,2,54.64V56A4.672,4.672,0,0,0,5.745,60.569ZM44,57a3,3,0,0,1-3,3H20.2a71.818,71.818,0,0,1-14.06-1.392,2.662,2.662,0,0,1-1.874-1.462l7.626.848A1,1,0,0,0,12,58h9.73a24.481,24.481,0,0,0,8.621-1.563A22.475,22.475,0,0,1,38.272,55H44ZM5.816,52.119,11.1,50.356l.442,1.438,1.912-.588L13,49.722l1.978-.66.688,1.586,1.834-.8-.618-1.425,1.433-.478a.987.987,0,0,0,.173-.076l.519-.289.681,1.363,1.79-.894-.721-1.441,2.131-1.184.955,1.388,1.648-1.132-.846-1.232,2.226-1.237,2.262,1.978a9,9,0,0,0,7.428,2.1.438.438,0,0,0,.062-.008A8.9,8.9,0,0,0,40.91,45.25l.706-.6.885,2.067a18.474,18.474,0,0,1,1.1,3.5A18.226,18.226,0,0,1,43.948,53H38.272a24.5,24.5,0,0,0-8.623,1.563A22.475,22.475,0,0,1,21.728,56h-3.5c-3.435,0-6.912-.173-10.333-.516L4,55.1V54.64A2.644,2.644,0,0,1,5.816,52.119Z"/><polygon points="38 43 38 40 54 40 54 38 38 38 38 32 54 32 54 30 38 30 38 24 54 24 54 22 38 22 38 18 36 18 36 22 30 22 30 24 36 24 36 30 30 30 30 32 36 32 36 38 30 38 30 40 36 40 36 43 38 43"/><rect x="30" y="18" width="4" height="2"/><rect x="40" y="18" width="2" height="2"/><rect x="44" y="18" width="2" height="2"/><rect x="48" y="18" width="2" height="2"/><rect x="52" y="18" width="2" height="2"/><rect x="30" y="26" width="4" height="2"/><rect x="40" y="26" width="2" height="2"/><rect x="44" y="26" width="2" height="2"/><rect x="48" y="26" width="2" height="2"/><rect x="52" y="26" width="2" height="2"/><rect x="30" y="34" width="4" height="2"/><rect x="40" y="34" width="2" height="2"/><rect x="44" y="34" width="2" height="2"/><rect x="48" y="34" width="2" height="2"/><rect x="52" y="34" width="2" height="2"/><path d="M13.293,40.707l2,2a1,1,0,0,0,1.414,0l2-2A1,1,0,0,0,19,40V15a3,3,0,0,0-6,0v1H10a1,1,0,0,0-1,1V27h2V18h2V40A1,1,0,0,0,13.293,40.707ZM16,40.586l-1-1V18h2V39.586ZM15,15a1,1,0,0,1,2,0v1H15Z"/><path d="M23,51.945s1.083-.425,1.074-.461l.32-.137.657,1.969a1,1,0,0,0,1.395.579l6-3-.894-1.79L26.584,51.59l-.636-1.906a1,1,0,0,0-1.342-.6l-7,3,.788,1.838Z"/></g></svg>
