<?xml version="1.0"?>
<svg xmlns="http://www.w3.org/2000/svg" viewBox="0 0 64 64" width="512" height="512"><g id="outline"><path d="M34.367,21.75a7.129,7.129,0,0,1,8.027-.876,1,1,0,0,0,1.333-1.4l-1.88-3-1.694,1.062.375.6a9.1,9.1,0,0,0-7.484,2.12Z"/><path d="M28,44v3a1,1,0,0,0,1,1h8a1,1,0,0,0,1-1V43a1,1,0,0,0-1-1H32v2h4v2H30V44Z"/><path d="M55,29.639V7a5.006,5.006,0,0,0-5-5H28a4.982,4.982,0,0,0-2.5.67l1,1.73A3,3,0,0,1,28,4H50a3,3,0,0,1,3,3V8H31v2H53V40.586l-6.793-6.793a4.55,4.55,0,0,0-.718-.585,8.968,8.968,0,0,0,1.385-10.574l-1.748.972a6.981,6.981,0,0,1-1.816,8.889,4.505,4.505,0,0,0-3.517,1.3c-.05.05-.084.109-.131.161-.225.02-.455.046-.662.046a6.9,6.9,0,0,1-3.394-.874,1,1,0,0,0-1.333,1.405l1.88,3,1.694-1.062-.375-.6a8.986,8.986,0,0,0,1.121.116,4.525,4.525,0,0,0,1.2,4.221L41.586,42H41a1,1,0,0,0-1,1v4a1,1,0,0,0,1,1h6.586l.167.167-.444.777A10.622,10.622,0,0,0,46.8,50H25V48H23v5a5.006,5.006,0,0,0,5,5H46.7A10.439,10.439,0,0,0,48,60.341V62a1,1,0,0,0,1,1H61a1,1,0,0,0,1-1V42.045a10.982,10.982,0,0,0-2.7-7.224ZM28,56a3,3,0,0,1-3-3V52H46.158a10.3,10.3,0,0,0-.047,4ZM42,46V44h1.586l2,2ZM60,61H50V60a1,1,0,0,0-.219-.625,8.375,8.375,0,0,1-.736-9.438l.823-1.441a1,1,0,0,0-.161-1.2l-8.5-8.5a2.536,2.536,0,0,1,3.586-3.586l10.5,10.5,1.414-1.414L55,42.586V32.773l2.773,3.345A9,9,0,0,1,60,42.045Z"/><rect x="49" y="12" width="2" height="2"/><rect x="34" y="12" width="2" height="2"/><path d="M20,23a3.006,3.006,0,0,1,1.5.4l1-1.73A5,5,0,0,0,15.67,28.5l1.73-1A3,3,0,0,1,20,23Z"/><path d="M25,26a4.99,4.99,0,0,0-.67-2.5l-1.73,1a3,3,0,0,1-4.1,4.1l-1,1.732A5,5,0,0,0,25,26Z"/><path d="M3,63H15a1,1,0,0,0,1-1V60.341a10.361,10.361,0,0,0,.691-11.4l-.444-.777L18.414,46H25a1,1,0,0,0,1-.933L26.2,42H29a1,1,0,0,0,1-.91l.7-7.7a12.672,12.672,0,0,0,1.7-3.456,13.114,13.114,0,0,0,.356-6.489.462.462,0,0,0-.011-.063,12.733,12.733,0,0,0-2.045-4.761L30,10.91A1,1,0,0,0,29,10H26.2L26,6.936A1,1,0,0,0,25,6H15a1,1,0,0,0-1,.933L13.8,10H11a1,1,0,0,0-1,.91l-.7,7.7A12.942,12.942,0,0,0,7.964,30.889L4.721,34.8A11,11,0,0,0,2,42.045V62A1,1,0,0,0,3,63ZM20.414,44l3.793-3.793c.046-.046.078-.1.122-.149L24.065,44ZM19.042,32.926a6.849,6.849,0,0,1-2.358-.767,7,7,0,1,1,6.818-.106c-.028.015-.167.092-.194.111a6.149,6.149,0,0,1-1.128.475,4.273,4.273,0,0,0-3.138.287ZM26.337,40l.186-2.773a12.935,12.935,0,0,0,1.937-1.352L28.086,40Zm1.75-28,.376,4.127a13.048,13.048,0,0,0-1.94-1.354L26.337,12ZM24.063,8l.39,5.8a13.4,13.4,0,0,0-8.906,0L15.935,8Zm-10.4,4-.186,2.773a12.935,12.935,0,0,0-1.937,1.352L11.914,12Zm-2.575,7.548a.825.825,0,0,0,.067-.106,11.024,11.024,0,0,1,17.688,0,.934.934,0,0,0,.071.113,10.758,10.758,0,0,1,1.856,4.179c0,.02.006.04.01.06A10.854,10.854,0,0,1,31,26a11.05,11.05,0,0,1-.514,3.33,10.658,10.658,0,0,1-1.571,3.118.891.891,0,0,0-.07.11A11.128,11.128,0,0,1,25.3,35.63,4.5,4.5,0,0,0,24.3,33.9a1.357,1.357,0,0,0,.2-.116,9.071,9.071,0,1,0-7.415.716l-1.552,1.552c-.22-.1-.43-.2-.627-.3a11.163,11.163,0,0,1-3.773-3.239c-.013-.021-.027-.041-.042-.062a11.709,11.709,0,0,1-1.071-1.8A11.019,11.019,0,0,1,9,26,10.9,10.9,0,0,1,11.088,19.548Zm.8,20.152-.349-3.832a13.049,13.049,0,0,0,1.94,1.359l.055.827ZM4,42.045A9.015,9.015,0,0,1,6.244,36.1L8.95,32.834c.115.186.232.369.356.547L10,41.09a.994.994,0,0,0,.115.376L7.293,44.293l1.414,1.414,10.5-10.5a2.6,2.6,0,0,1,3.586,0,2.535,2.535,0,0,1,0,3.586l-8.5,8.5a1,1,0,0,0-.161,1.2l.823,1.441a8.375,8.375,0,0,1-.736,9.438A1,1,0,0,0,14,60v1H4Z"/></g></svg>
