<svg height="512pt" viewBox="-1 0 512 512" width="512pt" xmlns="http://www.w3.org/2000/svg"><path d="m176.398438 445.339844c-12.578126 0-22.8125 10.234375-22.8125 22.8125s10.234374 22.8125 22.8125 22.8125c12.578124 0 22.8125-10.234375 22.8125-22.8125s-10.234376-22.8125-22.8125-22.8125zm0 30.417968c-4.191407 0-7.601563-3.410156-7.601563-7.605468 0-4.191406 3.410156-7.601563 7.601563-7.601563 4.191406 0 7.605468 3.410157 7.605468 7.601563-.003906 4.195312-3.414062 7.605468-7.605468 7.605468zm0 0"/><path d="m136.859375 51.476562h79.078125c4.199219 0 7.605469-3.402343 7.605469-7.601562s-3.40625-7.605469-7.605469-7.605469h-79.078125c-4.199219 0-7.601563 3.40625-7.601563 7.605469s3.402344 7.601562 7.601563 7.601562zm0 0"/><path d="m107.96875 51.480469c3.515625 0 6.636719-2.523438 7.410156-5.941407.6875-3.027343-.609375-6.269531-3.195312-7.988281-2.757813-1.832031-6.472656-1.652343-9.039063.445313-2.460937 2.011718-3.394531 5.449218-2.335937 8.4375 1.058594 2.980468 3.988281 5.046875 7.160156 5.046875zm0 0"/><path d="m463.242188 135.316406c-28.585938-33.679687-67.605469-56.898437-110.4375-65.878906v-26.835938c0-23.492187-19.117188-42.601562-42.613282-42.601562h-267.589844c-23.492187 0-42.601562 19.109375-42.601562 42.601562v426.785157c0 23.496093 19.109375 42.613281 42.601562 42.613281h267.589844c23.496094 0 42.613282-19.117188 42.613282-42.613281v-12.144531c42.832031-8.980469 81.851562-32.199219 110.4375-65.878907 30.328124-35.738281 47.035156-81.203125 47.035156-128.023437 0-46.820313-16.707032-92.285156-47.035156-128.023438zm-153.050782 361.476563h-267.589844c-15.105468 0-27.394531-12.292969-27.394531-27.40625v-426.785157c0-15.105468 12.289063-27.394531 27.394531-27.394531h267.589844c15.109375 0 27.402344 12.289063 27.402344 27.394531v157.046876c0 4.199218 3.40625 7.605468 7.605469 7.605468s7.605469-3.40625 7.605469-7.605468v-63.808594c24.96875 8 47.417968 23.398437 63.953124 44.082031 19.136719 23.941406 29.25 52.785156 29.25 83.417969 0 30.632812-10.117187 59.476562-29.25 83.414062-16.535156 20.683594-38.980468 36.085938-63.953124 44.085938v-77.640625c0-4.199219-3.40625-7.601563-7.605469-7.601563s-7.605469 3.402344-7.605469 7.601563v81.535156c-4.761719.921875-9.585938 1.589844-14.445312 1.988281v-47.023437c0-4.199219-3.40625-7.601563-7.605469-7.601563s-7.601563 3.402344-7.601563 7.601563v47.40625c-66.445312-2.0625-121.191406-52.6875-128.730468-118.308594h24.675781c2.714843 0 5.226562-1.449219 6.582031-3.804687 1.359375-2.351563 1.359375-5.25 0-7.601563l-57.699219-99.941406c-1.359375-2.351563-3.867187-3.800781-6.585937-3.800781-2.714844 0-5.226563 1.449218-6.585938 3.800781l-57.699218 99.941406c-1.359376 2.351563-1.359376 5.25 0 7.601563 1.359374 2.355468 3.867187 3.804687 6.585937 3.804687h26.175781c3.746094 48.351563 24.953125 93.296875 60.203125 127.230469 5.570313 5.359375 11.402344 10.351562 17.464844 14.980468h-128.960937c-10.207032 0-18.515626-8.300781-18.515626-18.503906v-288.414062c0-10.207032 8.304688-18.511719 18.515626-18.511719h226.058593c10.207031 0 18.515625 8.304687 18.515625 18.511719v69.339844c0 4.199218 3.402344 7.601562 7.601563 7.601562s7.605469-3.402344 7.605469-7.601562v-69.339844c0-18.59375-15.128907-33.722656-33.722657-33.722656h-226.058593c-18.59375 0-33.722657 15.128906-33.722657 33.722656v288.414062c0 18.585938 15.128907 33.710938 33.722657 33.710938h152.074218c29.277344 16.453125 62.402344 25.234375 96.714844 25.234375 8.503906 0 17.027344-.550781 25.4375-1.632813v9.570313c0 15.113281-12.292969 27.40625-27.402344 27.40625zm141.453125-115.269531c-27.683593 32.621093-65.953125 54.625-107.761719 61.964843-10.40625 1.824219-21.078124 2.753907-31.722656 2.753907-47.460937 0-92.472656-18.171876-126.75-51.167969-34.175781-32.90625-54.058594-77.011719-55.984375-124.191407-.164062-4.074218-3.515625-7.292968-7.597656-7.292968h-20.171875l44.53125-77.128906 44.527344 77.128906h-19.777344c-2.089844 0-4.085938.859375-5.523438 2.375s-2.183593 3.558594-2.070312 5.644531c4.34375 78.941406 69.707031 140.777344 148.816406 140.777344 11.773438 0 23.488282-1.382813 34.816406-4.113281 31.976563-7.671876 60.980469-26.148438 81.660157-52.023438 21.011719-26.28125 32.578125-59.277344 32.578125-92.910156 0-33.632813-11.566406-66.628906-32.578125-92.914063-19.417969-24.289062-46.167969-42.0625-75.832031-50.492187v-34.941406c38.3125 8.746093 73.140624 29.878906 98.84375 60.164062 28 32.992188 43.421874 74.964844 43.421874 118.183594s-15.421874 85.191406-43.425781 118.183594zm0 0"/><path d="m309.339844 309.695312h-56.816406v-7.234374c0-9.34375 11.15625-17.167969 24.078124-26.230469 8.679688-6.085938 18.511719-12.984375 25.96875-21.222657 8.550782-9.453124 12.710938-19.277343 12.710938-30.023437 0-11.019531-4.382812-20.992187-12.34375-28.085937-7.664062-6.828126-18.046875-10.589844-29.234375-10.589844-10.574219 0-20.46875 3.339844-27.851563 9.398437-7.730468 6.34375-11.984374 15.226563-11.984374 25.011719 0 7.777344 3.082031 11.558594 9.425781 11.558594 4.050781 0 6.609375-1.332032 8.042969-2.449219 1.863281-1.453125 2.929687-3.429687 2.929687-5.429687 0-6.136719 1.960937-11.128907 5.671875-14.429688 3.390625-3.019531 8.152344-4.617188 13.765625-4.617188 10.011719 0 20.792969 6.324219 20.792969 20.210938 0 6.574219-3.152344 13.074219-9.636719 19.863281-5.808594 6.082031-13.722656 11.867188-21.382813 17.460938-15.886718 11.613281-32.320312 23.621093-32.320312 39.574219v18.789062c0 1.886719 1.121094 3.671875 3.15625 5.019531 1.78125 1.179688 4.054688 1.882813 6.074219 1.882813h68.957031c3.546875 0 6.90625-4.578125 6.90625-9.421875-.003906-4.8125-3.230469-9.035157-6.910156-9.035157zm0 0"/><path d="m316.769531 288.710938c0 4.519531 3 7.679687 7.292969 7.679687h47.523438v24.859375c0 2.125 1.117187 3.910156 3.234374 5.167969 1.882813 1.121093 4.421876 1.738281 7.15625 1.738281 2.625 0 5.207032-.632812 7.085938-1.738281 2.164062-1.269531 3.308594-3.054688 3.308594-5.167969v-24.859375h9.363281c3.648437 0 7.101563-4.675781 7.101563-9.617187 0-2.5625-.628907-4.953126-1.765626-6.726563-1.289062-2.019531-3.136718-3.085937-5.335937-3.085937h-9.363281v-26.601563c0-5.097656-5.597656-6.90625-10.394532-6.90625-5.023437 0-10.390624 1.8125-10.390624 6.90625v26.601563h-28.140626l39.808594-79.425782c.589844-1.179687.980469-2.167968.980469-3.15625 0-4.851562-6.253906-8.066406-10.390625-8.066406-2.257812 0-6.433594.738281-9.023438 5.683594l-46.871093 92.390625c-.75 1.308593-1.179688 2.886719-1.179688 4.324219zm0 0"/></svg>