<svg height="480pt" viewBox="-40 0 480 480.06094" width="480pt" xmlns="http://www.w3.org/2000/svg"><path d="m391.621094 313.769531c9.375-9.375 9.375-24.574219 0-33.945312-9.496094-9.066407-24.445313-9.066407-33.941406 0l-7.441407 7.441406c-11.984375-7.351563-25.339843-12.179687-39.253906-14.195313-2.320313-.34375-4.640625-.496093-6.960937-.679687v-8.390625h24c4.417968 0 8-3.582031 8-8v-32c0-4.417969-3.582032-8-8-8h-23.992188v-160c0-13.253906-10.746094-24-24-24h-88v-8c0-13.253906-10.746094-24-24-24h-40c-13.253906 0-24 10.746094-24 24v8h-80c-13.253906 0-24 10.746094-24 24v328c0 13.253906 10.746094 24 24 24h173.101562c12.332032 38.257812 45.613282 65.976562 85.46875 71.183594 39.855469 5.207031 79.144532-13.03125 100.886719-46.835938 21.746094-33.808594 22.050781-77.121094.78125-111.226562zm-22.621094-22.632812c3.164062-3.023438 8.144531-3.023438 11.308594 0 3.125 3.125 3.125 8.1875 0 11.3125l-5.664063 5.664062c-3.492187-4.042969-7.289062-7.8125-11.359375-11.273437zm-80.96875-18.800781c-5.390625.390624-10.742188 1.210937-16 2.457031v-10.792969h16zm-71.304688 36.464843-6.351562-6.402343c-2.957031-3.148438-2.875-8.078126.179688-11.128907 3.054687-3.054687 7.984374-3.128906 11.132812-.171875l6.3125 6.308594c-4.042969 3.507812-7.8125 7.3125-11.273438 11.394531zm24.265626-20.984375-8-8c-6.027344-6.238281-14.949219-8.742187-23.34375-6.546875-8.390626 2.199219-14.941407 8.75-17.140626 17.140625-2.195312 8.394532.308594 17.316406 6.546876 23.34375l8.175781 8.140625c-7.101563 11.664063-11.828125 24.613281-13.910157 38.105469h-145.289062v-280h208v200.078125c-5.21875 2.164063-10.246094 4.75-15.039062 7.738281zm79.039062-39.816406h-48v-16h48zm-200-224c0-4.417969 3.582031-8 8-8h40c4.417969 0 8 3.582031 8 8v8h-56zm-96 368c-4.417969 0-8-3.582031-8-8v-328c0-4.417969 3.582031-8 8-8h256c4.417969 0 8 3.582031 8 8v160h-16v-136c0-8.835938-7.164062-16-16-16h-208c-8.835938 0-16 7.164062-16 16v280c0 8.835938 7.164062 16 16 16h144.101562c-.046874 5.355469.324219 10.703125 1.105469 16zm359.085938-3.328125c-6.757813 46.453125-48.792969 79.425781-95.519532 74.921875-46.726562-4.5-81.695312-44.890625-79.460937-91.78125 2.230469-46.890625 40.878906-83.769531 87.820312-83.8125h.128907c25.539062.015625 49.8125 11.125 66.515624 30.441406 16.703126 19.320313 24.191407 44.941406 20.515626 70.214844zm0 0"/><path d="m301.132812 304.0625c-4.417968-.273438-8.222656 3.082031-8.5 7.5-.273437 4.417969 3.082032 8.226562 7.5 8.5 23.878907 1.5 44.167969 18.003906 50.496094 41.074219 6.332032 23.074219-2.695312 47.617187-22.46875 61.09375-19.769531 13.472656-45.914062 12.898437-65.074218-1.429688l23.007812-23.007812c3.113281 1.445312 6.503906 2.199219 9.9375 2.207031 13.253906 0 24-10.746094 24-24s-10.746094-24-24-24-24 10.746094-24 24c.019531 3.695312.910156 7.332031 2.589844 10.625l-28.910156 28.894531c-3.125 3.125-3.125 8.1875 0 11.3125 22.648437 22.648438 57.535156 27.613281 85.601562 12.183594s42.566406-47.546875 35.578125-78.804687c-6.992187-31.257813-33.789063-54.140626-65.757813-56.148438zm-5.101562 63.9375c4.417969 0 8 3.582031 8 8s-3.582031 8-8 8-8-3.582031-8-8 3.582031-8 8-8zm0 0"/><path d="m232.03125 144h-32c-4.417969 0-8 3.582031-8 8v88h-16v-64c0-4.417969-3.582031-8-8-8h-32c-4.417969 0-8 3.582031-8 8v64h-16v-40c0-4.417969-3.582031-8-8-8h-32c-4.417969 0-8 3.582031-8 8v48c0 4.417969 3.582031 8 8 8h160c4.417969 0 8-3.582031 8-8v-96c0-4.417969-3.582031-8-8-8zm-152 96v-32h16v32zm64 0v-56h16v56zm64 0v-80h16v80zm0 0"/><path d="m72.03125 287.984375h16v16h-16zm0 0"/><path d="m104.03125 287.984375h16v16h-16zm0 0"/><path d="m136.03125 287.984375h40v16h-40zm0 0"/></svg>